<svg width="18" height="14" viewBox="0 0 18 14" fill="none" xmlns="http://www.w3.org/2000/svg">
<path d="M10.7699 4.52297C11.376 5.07685 11.3225 5.96198 11.1709 6.60738C11.1436 6.72272 11.1119 6.83738 11.0765 6.95037C10.9948 7.01273 10.92 7.0818 10.8574 7.15757C10.8761 6.95473 10.9034 6.75424 10.8522 6.55106C10.8441 6.51753 10.819 6.49842 10.7869 6.50311C10.6761 6.5182 10.569 6.55005 10.4579 6.56179C10.4401 6.5638 10.4201 6.58324 10.4159 6.60235C10.3759 6.77402 10.3505 6.94836 10.3424 7.12505C10.2894 7.04291 10.2383 6.96144 10.169 6.89002C10.0703 6.7881 9.95986 6.69992 9.84336 6.62515C9.62155 6.48367 9.43999 6.41024 9.19852 6.52859C9.17279 6.541 9.16432 6.57754 9.17521 6.60437C9.22817 6.73177 9.30654 6.84107 9.36041 6.96781C9.39854 7.05732 9.4297 7.14919 9.4642 7.23938C9.24633 7.12773 9.02603 7.02044 8.79636 6.95574C8.64687 6.91349 8.49345 6.89036 8.33368 6.89606C8.30463 6.89706 8.28254 6.9155 8.2786 6.94903C8.26801 7.04291 8.25833 7.13679 8.24895 7.23066C8.24592 7.26218 8.27074 7.29269 8.29858 7.29403C8.73099 7.31683 9.17189 7.3983 9.54953 7.63769C9.28536 7.66786 9.02361 7.7319 8.76852 7.81103C8.4414 7.91295 8.14606 8.06148 7.80927 7.9324C7.55024 7.83282 7.29151 7.76509 7.03067 7.72285C7.04883 7.71782 7.06729 7.71245 7.08544 7.7081C7.27185 7.66384 7.46612 7.66686 7.65585 7.65345C7.7088 7.64942 7.70941 7.57063 7.67642 7.54146C7.58837 7.46368 7.54661 7.36746 7.43313 7.33359C7.28909 7.29068 7.12145 7.33661 6.97832 7.35606C6.95956 7.35874 6.9405 7.36075 6.92204 7.3631C6.86545 7.36913 6.80856 7.37315 6.75198 7.3755C6.73563 6.86488 6.88028 6.34587 7.19589 5.92174C7.50909 5.50064 8.13305 4.87535 8.8596 4.49682C9.16462 4.33857 9.54076 4.19775 9.91568 4.19775C10.2128 4.19775 10.5094 4.28593 10.7696 4.52364L10.7699 4.52297Z" fill="#B0EA36"/>
<path d="M17.6659 7.69431C17.8009 7.96019 17.8805 8.24517 17.8121 8.54323C17.7818 8.675 17.7576 8.9288 17.6683 9.06191C17.5367 8.57106 17.366 8.11173 17.0398 7.73254C16.9796 7.6628 16.8919 7.72181 16.8979 7.80965C16.9251 8.20796 17.0991 8.56201 17.1693 8.94959C17.2486 9.38478 17.0904 9.79683 17.0719 10.228C17.0689 10.2324 17.0652 10.236 17.0622 10.2414C16.9681 10.3956 16.8483 10.6551 16.6909 10.7892C16.8111 10.3309 16.8177 9.83204 16.7935 9.36064C16.7666 8.82956 16.5744 8.37392 16.3423 7.91694C16.3326 7.89816 16.3178 7.88844 16.3024 7.88609C16.3051 7.89347 16.3075 7.90085 16.3096 7.90789C16.405 8.12146 16.4588 8.34609 16.4948 8.5781C16.5045 8.6237 16.513 8.6693 16.5212 8.7149C16.5832 8.94355 16.6225 9.17925 16.6277 9.43105C16.6322 9.65535 16.6328 9.88468 16.6177 10.112C16.5529 10.0315 16.4945 9.94402 16.4561 9.84679C16.4912 9.51051 16.2888 9.18127 16.0966 8.9402C16.0957 8.93987 16.0951 8.9402 16.0954 8.94121C16.2149 9.16215 16.3251 9.43809 16.3354 9.70664C16.3269 9.70798 16.3187 9.71134 16.3112 9.71603C16.2739 9.7271 16.2364 9.73112 16.1953 9.73313C16.1871 9.73347 16.1789 9.73414 16.1708 9.73414C16.1732 9.72207 16.1711 9.70933 16.1617 9.69826C16.1208 9.64864 16.1057 9.54605 16.0845 9.48402C16.06 9.41227 16.0325 9.34287 15.9904 9.28084C15.9901 9.28051 15.9895 9.28084 15.9901 9.28118C16.037 9.3764 16.05 9.47664 16.0624 9.58192C16.0682 9.62986 16.0648 9.70228 16.0915 9.74688C16.0809 9.75124 16.0706 9.75593 16.0603 9.75727C16.06 9.75727 16.06 9.7576 16.0603 9.75828C16.0824 9.76398 16.1069 9.7861 16.1299 9.79415C16.1644 9.80588 16.1995 9.81494 16.2349 9.82097C16.2476 9.82365 16.2606 9.82533 16.2733 9.826C16.2437 10.2806 16.0597 10.7185 15.9995 11.1711C15.9831 11.2945 16.0022 11.5698 15.9214 11.672C15.8636 11.7461 15.7365 11.7327 15.6367 11.721C15.6357 11.6972 15.6351 11.6737 15.6342 11.6499C15.6827 11.4072 15.6055 11.1674 15.5867 10.9247C15.5719 10.7309 15.591 10.5277 15.6255 10.3286C15.6784 10.1935 15.7002 10.0168 15.7323 9.85517C15.7456 9.78979 15.6584 9.75191 15.6415 9.8193C15.5979 9.99096 15.558 10.1653 15.5283 10.342C15.4905 10.4168 15.4391 10.4637 15.3643 10.4469C15.2127 10.4124 15.3625 10.0744 15.3915 9.95911C15.4324 9.79951 15.4608 9.64328 15.4599 9.47597C15.4596 9.43071 15.4094 9.39215 15.3752 9.42903C15.243 9.57186 15.1522 9.74118 15.0496 9.90948C14.9864 10.0131 14.9183 10.1365 14.8003 10.1593C14.7446 10.17 14.6813 10.1593 14.6214 10.1519C14.6816 9.84578 14.8009 9.55845 14.8677 9.25402C14.8502 9.28788 14.8323 9.32175 14.8142 9.35561C14.7758 9.4696 14.727 9.58058 14.7092 9.63255C14.6447 9.81762 14.5809 10.004 14.5083 10.1854C14.4937 10.2213 14.5222 10.2602 14.5542 10.2632C14.701 10.278 14.8481 10.3222 14.9734 10.2136C15.1374 10.0711 15.226 9.83874 15.3474 9.64529C15.3144 9.92591 15.2088 10.1915 15.1637 10.4714C15.1601 10.4932 15.1776 10.5217 15.197 10.5274C15.3362 10.5693 15.4336 10.5542 15.5038 10.5026C15.4932 10.5864 15.4851 10.6706 15.4814 10.7547C15.4763 10.8607 15.4851 10.9649 15.4969 11.0685C15.2986 11.0642 15.0986 11.0806 14.8989 11.1074C14.974 10.9351 14.9225 10.8486 14.717 10.7799C14.5881 10.7369 14.4517 10.7272 14.3179 10.7188C14.2408 10.7141 13.8468 10.739 13.8468 10.6129C13.8468 10.6099 13.8425 10.6095 13.8425 10.6126C13.8428 10.6344 13.8437 10.6565 13.8443 10.6779C13.8443 10.6789 13.8443 10.6793 13.8453 10.6793C13.9984 10.7356 14.1554 10.7517 14.3146 10.7735C14.4695 10.7946 14.9401 10.8345 14.7797 11.1135C14.7779 11.1175 14.7758 11.1212 14.7745 11.1252C14.5667 11.1574 14.3597 11.198 14.1572 11.2368C13.867 11.2918 13.5729 11.381 13.3493 11.5929C13.3057 11.5835 13.2627 11.5721 13.2198 11.5577C13.017 11.489 12.6509 11.3971 12.4926 11.1953C12.6642 11.2281 12.8234 11.3076 13.0034 11.2928C13.0285 11.2908 13.0461 11.2606 13.0488 11.2355C13.0648 11.086 13.1435 10.9197 13.004 10.8241C12.8887 10.745 12.6796 10.7363 12.5562 10.7064C12.3456 10.6548 12.141 10.5834 11.9316 10.5287C11.9298 10.5284 11.9277 10.5318 11.9298 10.5331C12.0656 10.6303 12.2191 10.6907 12.3728 10.745C12.5232 10.7983 12.7592 10.8127 12.8939 10.9012C12.9653 10.9482 12.9662 10.9713 12.9638 11.0541C12.961 11.15 12.9486 11.1607 12.8639 11.1698C12.7165 11.1859 12.5537 11.0712 12.3991 11.0732C12.3631 11.0742 12.3338 11.1125 12.3513 11.1517C12.4699 11.4145 12.824 11.5352 13.0546 11.6231C13.1931 11.6761 13.3339 11.7274 13.4806 11.7424C13.5602 11.7505 13.6392 11.7502 13.7176 11.7475C13.7536 11.7525 13.7899 11.7582 13.8256 11.7639C14.1899 11.7575 14.5552 11.843 14.9219 11.8873C14.8944 11.959 14.8572 12.0251 14.8217 12.0935C14.4943 12.0345 14.1736 12.1877 13.8537 12.2497C13.5959 12.2997 13.336 12.2682 13.076 12.2571C13.0984 12.1371 13.1238 12.0177 13.1502 11.8987C13.158 11.8621 13.145 11.8346 13.1151 11.8179C12.9238 11.7113 12.7111 11.7481 12.5102 11.6764C12.3126 11.6056 12.1362 11.4568 11.9655 11.329C11.9652 11.3287 11.9646 11.3294 11.9652 11.3301C12.1531 11.4967 12.3171 11.6925 12.5507 11.7813C12.6724 11.8279 12.8297 11.8132 12.9432 11.8735C13.0667 11.9389 12.9955 12.1193 12.9638 12.2551C12.8231 12.2534 12.683 12.2621 12.5435 12.297C12.522 12.3027 12.5062 12.3148 12.4953 12.3298C12.4956 12.3308 12.4962 12.3312 12.4966 12.3315C12.5755 12.465 12.679 12.5743 12.7647 12.7013C12.8197 12.754 12.8742 12.8073 12.9259 12.8636C12.834 12.9126 12.7438 12.9685 12.6457 12.9937C12.5804 13.0105 12.528 12.9987 12.4832 12.9719C12.4754 12.9689 12.4681 12.9639 12.4608 12.9568C12.4336 12.936 12.4091 12.9095 12.3861 12.88C12.2887 12.7815 12.1864 12.6889 12.0823 12.5981C12.0278 12.5511 11.973 12.5042 11.9183 12.4576H11.9168C11.8732 12.4194 11.7991 12.4214 11.7767 12.4968C11.6729 12.8465 11.5016 13.1251 11.173 13.156C11.232 12.938 11.3458 12.7446 11.3349 12.5065C11.3645 12.3607 11.3742 12.2098 11.3433 12.0636C11.2958 11.8387 11.1597 11.7176 11.0056 11.5771C11.0056 11.5768 11.0047 11.5771 11.0053 11.5775C11.2081 11.8206 11.2513 12.1116 11.2117 12.408C11.205 12.412 11.1981 12.4174 11.192 12.4247C10.9049 12.7536 10.608 13.054 10.2688 13.3055C10.355 13.0846 10.4537 12.8713 10.4821 12.6282C10.4849 12.6034 10.4504 12.589 10.4389 12.6115C10.3662 12.7526 10.2785 12.88 10.1723 12.993C10.0549 13.1177 9.96468 13.1801 9.82276 13.1452C9.99494 12.8576 10.1662 12.5511 10.2113 12.2051C10.2131 12.191 10.1931 12.1867 10.1892 12.2001C10.0951 12.5444 9.94804 12.8834 9.70898 13.1352C9.68144 13.1643 9.6884 13.2156 9.72532 13.2307C9.87753 13.2931 9.9789 13.3052 10.1114 13.1915C10.2177 13.1006 10.3075 12.9796 10.3798 12.8492C10.3236 13.0279 10.244 13.1962 10.1777 13.3722C10.1229 13.4104 10.0673 13.4477 10.0104 13.4832C9.68447 13.6864 9.23117 13.8151 8.85988 13.6585C8.97941 13.5315 9.13585 13.4497 9.24055 13.3048C9.34223 13.1637 9.35161 13.0051 9.34162 12.8388C9.45479 12.4965 9.61426 12.1786 9.72441 11.8333C9.7344 11.8025 9.69264 11.7864 9.68114 11.8162C9.58491 12.0703 9.4445 12.2879 9.33315 12.526C9.3277 12.5109 9.31529 12.4985 9.29472 12.4941C9.0139 12.4391 9.28231 12.1475 9.3398 12.0479C9.41939 11.9097 9.47991 11.7562 9.5492 11.611C9.5713 11.5644 9.52469 11.5084 9.48384 11.5463C9.38368 11.6392 9.28715 11.7364 9.18306 11.8239C9.11467 11.8819 8.91707 12.0898 8.8275 12.0408C8.62264 11.9292 9.02328 11.6616 9.09803 11.6016C9.24176 11.4863 9.65451 11.203 9.58491 10.9502C9.58461 10.9482 9.58128 10.9475 9.58068 10.9498C9.50412 11.2694 9.14009 11.4618 8.91162 11.6318C8.83355 11.6898 8.70918 11.7602 8.67166 11.8605C8.62657 11.9805 8.72885 12.0945 8.78846 12.1823C8.80268 12.2034 8.83325 12.2081 8.85413 12.1971C9.03508 12.0985 9.20757 11.9698 9.36038 11.8196C9.32891 11.8873 9.29593 11.9533 9.25871 12.0164C9.20757 12.1025 9.13131 12.1863 9.09863 12.2849C9.04416 12.4492 9.12889 12.5592 9.27565 12.5961C9.28534 12.5981 9.29381 12.5977 9.30168 12.5957C9.2926 12.6165 9.28413 12.637 9.27596 12.6577C9.26234 12.6527 9.24812 12.6507 9.2351 12.6551C8.69435 12.8328 8.16722 13.0869 7.60529 13.1808C7.4207 13.2116 7.23127 13.2109 7.07301 13.3343C6.9211 13.453 6.80097 13.6341 6.70081 13.8091C6.61759 13.7732 6.56706 13.7236 6.60095 13.6042C6.62183 13.5305 6.67569 13.4604 6.71079 13.395C6.73046 13.3581 6.74923 13.3206 6.76647 13.283C6.94955 12.9665 7.08844 12.6524 7.4325 12.5206C7.46397 12.5085 7.45126 12.4529 7.4204 12.4519C7.20162 12.4425 6.99736 12.4888 6.81126 12.6085C6.70051 12.2038 7.30269 12.2266 7.50119 11.9909C7.5021 11.9895 7.50089 11.9879 7.49968 11.9892C7.25094 12.2715 6.49625 12.0784 6.74136 12.7137C6.75074 12.7385 6.78554 12.7543 6.80733 12.7385C6.92927 12.65 7.06151 12.5873 7.20041 12.5535C7.04941 12.651 6.93744 12.7872 6.83759 12.9461C6.82397 12.925 6.80309 12.9095 6.7813 12.9109C6.64574 12.9189 6.53619 12.985 6.41818 13.0567C6.24206 13.164 6.05536 13.2401 5.86926 13.3246C5.69103 13.4054 5.51884 13.4963 5.34818 13.5958C5.18447 13.6914 5.12274 13.6911 5.02409 13.5425C5.08552 13.4802 5.15179 13.4252 5.21382 13.3652C5.27949 13.3199 5.34666 13.276 5.40113 13.2197C5.52066 13.0956 5.62929 12.9685 5.76547 12.8663C6.02116 12.6735 6.2926 12.5256 6.50956 12.2759C6.54406 12.236 6.52016 12.1602 6.46448 12.1733C6.20575 12.235 5.94309 12.2715 5.67771 12.2658C5.55455 12.2638 5.43139 12.2534 5.30944 12.2323C5.23046 12.2189 5.1179 12.2363 5.08945 12.1381C5.05798 12.0278 5.12637 11.9741 5.22744 11.9788C5.42292 11.9879 5.60902 12.0207 5.80662 12.0016C6.08743 11.9748 6.3159 11.8591 6.58491 11.788C6.63605 11.7743 6.6421 11.6958 6.59218 11.6747C6.4321 11.6067 6.24751 11.613 6.07926 11.5916C5.90254 11.5691 5.57241 11.5373 5.66591 11.2855C6.20363 11.5641 6.79583 11.4259 7.36986 11.4065C7.39165 11.4062 7.39407 11.373 7.37228 11.3696C6.8043 11.2781 6.20212 11.4618 5.67166 11.1497C5.64594 11.1346 5.60902 11.1342 5.59207 11.1664C5.31731 11.6848 5.96185 11.6962 6.3507 11.7438C6.23057 11.789 6.11134 11.8367 5.98394 11.8608C5.76123 11.903 5.54366 11.9027 5.32034 11.8759C5.05042 11.844 4.956 11.9275 4.97598 12.2313C4.97719 12.2494 4.99353 12.2678 5.00835 12.2725C5.42625 12.4137 5.87168 12.4184 6.29986 12.3319C6.07805 12.533 5.81449 12.6574 5.57997 12.8462C5.51158 12.9012 5.45167 12.9675 5.39145 13.0333C5.38177 13.0048 5.3624 12.9806 5.33638 12.9716C5.04104 12.8686 4.7578 12.7318 4.48758 12.5682C4.55717 12.5183 4.61709 12.4351 4.69123 12.4029C4.7227 12.3892 4.72905 12.3392 4.70757 12.3134C4.46791 12.0187 4.0025 11.724 4.01067 11.2677C4.01067 11.2674 4.00977 11.2674 4.00977 11.2677C3.99464 11.7284 4.34051 12.0261 4.58895 12.3372C4.52207 12.3959 4.44975 12.4921 4.3862 12.5052C4.04305 12.2873 3.72139 12.0274 3.42363 11.7394C3.37309 11.5255 3.30773 11.3103 3.22603 11.1061C3.19728 11.0602 3.16611 11.0169 3.13283 10.9787C3.2112 10.9606 3.29109 10.925 3.36401 10.8801C3.39427 10.862 3.40396 10.8258 3.39155 10.7906C3.21755 10.3068 3.08925 9.80153 3.03932 9.28319C3.13615 9.4515 3.16399 9.66339 3.27777 9.82432C3.39155 9.98559 3.44935 9.95374 3.61427 9.92189C3.64029 9.9172 3.66268 9.88367 3.65512 9.85383C3.55011 9.44747 3.34041 9.09309 3.21453 8.69713C3.12738 8.42153 3.13283 8.09531 2.97184 7.85391C2.93099 7.79356 2.85171 7.87034 2.89195 7.93069C3.04386 8.158 3.03539 8.48892 3.12072 8.74909C3.24116 9.11622 3.43028 9.44814 3.5371 9.82164C3.47386 9.83707 3.43543 9.84276 3.37339 9.77035C3.30349 9.68854 3.2696 9.56717 3.23238 9.46424C3.17489 9.30666 3.11981 9.17154 3.0021 9.05923C2.97335 9.0314 2.91677 9.06057 2.91889 9.10348C2.94854 9.68284 3.07745 10.2464 3.26204 10.7879C3.18306 10.8302 3.0838 10.8701 2.99665 10.8607C2.99514 10.8597 2.99393 10.859 2.99211 10.858C2.99302 10.859 2.99302 10.8597 2.99363 10.8607C2.93855 10.8536 2.88862 10.8275 2.85262 10.7685C2.78967 10.6665 2.78181 10.5059 2.76728 10.3862C2.72764 10.0691 2.68528 9.74084 2.70313 9.42132C2.70616 9.36667 2.62627 9.34354 2.61447 9.40121C2.61356 9.40557 2.61326 9.40992 2.61265 9.41428H2.61235V9.41629C2.5712 9.63724 2.58996 9.86523 2.54759 10.0855C2.46135 10.0657 2.41203 10.0547 2.39205 9.92793C2.36785 9.77504 2.37844 9.59298 2.38842 9.43876C2.40718 9.1588 2.49797 8.89427 2.52157 8.61532C2.52399 8.58917 2.48768 8.58648 2.48465 8.61264C2.45439 8.86309 2.35847 9.09476 2.32034 9.3432C2.2816 9.59533 2.29189 9.85282 2.29552 10.1073C2.29643 10.1418 2.31489 10.1683 2.34666 10.173C2.42322 10.1801 2.49827 10.1961 2.5712 10.223C2.59631 10.2307 2.62778 10.222 2.6411 10.1958C2.65804 10.3899 2.6877 10.5804 2.74217 10.7557C2.79815 10.9364 2.91646 10.9971 3.05021 10.9904C3.15128 11.2375 3.22028 11.5041 3.27232 11.7666C3.32528 12.0351 3.41606 12.4398 3.26718 12.6916C3.21392 12.6738 3.16218 12.6661 3.11074 12.6762C3.0596 12.3077 2.944 11.9604 2.81418 11.616C2.67075 11.2338 2.43654 10.9099 2.2816 10.5354C2.22229 10.6414 2.16268 10.7473 2.13091 10.8694C2.12425 10.8955 2.11911 10.922 2.11427 10.9482C2.12244 11.2754 2.18356 11.6258 2.39629 11.8125C2.48011 11.8866 2.51037 11.905 2.52611 12.0385C2.53821 12.1397 2.53276 12.2433 2.53882 12.3449C2.55062 12.5273 2.61114 12.707 2.62506 12.8891C2.42262 12.7318 2.24438 12.5391 2.06857 12.3459C1.84465 12.0992 1.77565 11.8078 1.71967 11.4685C1.60045 10.7416 1.67489 9.99733 1.70757 9.26542C1.7112 9.18227 1.6062 9.13332 1.56353 9.20976C1.39952 9.5028 1.27999 9.81661 1.18165 10.1428C1.13625 10.2944 1.08996 10.4459 1.05939 10.6022C1.02792 10.7628 1.03609 10.9234 1.02369 11.083C0.872991 10.9998 0.748318 10.8975 0.746805 10.683C0.745292 10.4292 0.814286 10.1566 0.872688 9.91384C1.00129 9.38042 1.20616 8.85806 1.55324 8.45472C1.60075 8.39974 1.56928 8.273 1.48637 8.30318C1.0252 8.46981 0.705349 8.89058 0.278982 9.12092C0.246301 9.00726 0.217857 8.89226 0.18457 8.77927C0.468109 8.68673 0.725623 8.4574 0.956206 8.26496C1.07967 8.16236 1.20131 8.05675 1.32447 7.95415C1.48213 7.81367 1.63888 7.67252 1.79411 7.52936C1.7342 7.84351 1.73904 8.1751 1.81015 8.49227C1.8165 8.52111 1.83859 8.54592 1.86643 8.54726C1.96327 8.55162 2.05647 8.5372 2.15239 8.52446C2.18689 8.5201 2.20142 8.48054 2.19899 8.44735C2.1884 8.29714 2.17932 8.14996 2.18719 8.00445C2.20777 8.10805 2.24499 8.20964 2.2925 8.31189C2.31822 8.36688 2.3969 8.3243 2.37057 8.26931C2.2692 8.05708 2.21836 7.85491 2.26224 7.61553C2.2695 7.57328 2.21382 7.56725 2.1996 7.60077C2.08703 7.87201 2.07069 8.11039 2.08007 8.3994C2.02651 8.40376 1.97295 8.40845 1.91909 8.40979C1.85736 8.1295 1.83829 7.7788 1.88399 7.44655C1.90184 7.42978 1.9206 7.41335 1.93845 7.39625C1.92726 7.39324 1.91485 7.39424 1.90154 7.40095C1.8976 7.40262 1.89427 7.40497 1.89064 7.40665C1.93876 7.09317 2.04527 6.79913 2.23016 6.60266C2.23198 6.60064 2.22895 6.59662 2.22714 6.5993C2.02137 6.84003 1.88277 7.13474 1.81076 7.4499C1.79623 7.45761 1.78201 7.46599 1.76809 7.47437C1.52812 7.61184 1.30844 7.77948 1.08935 7.95751C1.16561 7.64 1.3157 7.33423 1.50543 7.05863C1.64463 6.77566 1.82256 6.51783 1.99988 6.26201C1.88187 6.36528 1.76597 6.47894 1.65673 6.60165C1.21644 6.30024 1.92756 5.67059 2.18356 5.4949C2.1996 5.48417 2.18719 5.45501 2.17085 5.46573C1.87158 5.65986 1.02399 6.31231 1.57563 6.69687C1.56898 6.70458 1.56202 6.71229 1.55536 6.72C1.34566 6.88999 1.12022 7.03483 0.882977 7.13139C0.82518 7.15519 0.616989 7.25142 0.614266 7.1106C0.611542 6.98487 0.751345 7.04489 0.81247 7.03617C1.01219 7.00901 1.05153 6.80818 1.11265 6.63015C1.23884 6.26302 1.42282 5.91601 1.64039 5.60051C1.97991 5.0577 2.44622 4.63492 2.9555 4.27852C2.74852 4.48136 2.64049 4.7117 2.91344 4.90918C2.93583 4.9256 2.9673 4.9246 2.98848 4.90448C3.28867 4.60977 3.60004 4.35094 3.97073 4.17459C4.04426 4.13972 3.98949 4.01633 3.91596 4.0512C3.55042 4.22454 3.24146 4.47533 2.94612 4.76434C2.69254 4.49947 3.44057 3.9865 3.61094 3.84132C3.62546 3.82925 3.60852 3.80075 3.59339 3.81148C3.50624 3.87384 3.32346 3.98247 3.14977 4.11356C3.07412 4.14206 3.00059 4.17291 2.92857 4.20644C2.60842 4.35597 2.32336 4.55781 2.06252 4.81195C1.8038 4.98428 1.55354 5.16801 1.32387 5.39667C1.18316 5.17941 1.34293 5.02418 1.50967 4.84447C1.65703 4.68555 1.8044 4.53266 1.97113 4.39855C2.14089 4.26176 2.32125 4.13502 2.50371 4.02069C2.65865 3.92346 2.82417 3.85674 2.96307 3.73101C3.0133 3.68575 2.98394 3.58685 2.91889 3.58416C2.52369 3.5674 2.15935 3.63714 1.81015 3.82858C1.80924 3.74845 1.82256 3.68341 1.88792 3.60998C1.98384 3.50135 2.13182 3.44167 2.26103 3.40211C2.51431 3.325 2.77878 3.31762 3.03872 3.3488C3.54497 3.40949 4.05364 3.72733 4.56504 3.67771C4.58259 3.67603 4.60226 3.66094 4.61437 3.64284C4.61588 3.70151 4.61709 3.76018 4.61467 3.82154C4.61285 3.87049 4.66672 3.90435 4.70121 3.86982C4.96932 3.60428 5.33063 3.45072 5.69072 3.43597C5.48223 3.59556 5.11578 3.8953 5.23682 4.13167C5.29068 4.23628 5.39417 4.22924 5.47951 4.1823C5.55576 4.14039 5.62052 4.07367 5.69345 4.02639C5.83022 3.93855 5.97971 3.8715 6.12344 3.79908C6.17943 3.77125 6.13736 3.67603 6.08138 3.70453C5.92705 3.78298 5.76426 3.85406 5.61991 3.9533C5.55001 4.00158 5.28221 4.24499 5.3158 3.97275C5.3394 3.77728 5.70071 3.53924 5.83416 3.42591C5.86139 3.40278 5.84233 3.35785 5.81237 3.35349C5.43987 3.3032 4.97083 3.44 4.68366 3.72666C4.67368 3.69615 4.66672 3.66497 4.66187 3.63378C4.64917 3.55332 4.65098 3.4695 4.65613 3.38669C4.66399 3.37562 4.66853 3.36188 4.66793 3.34444C4.66762 3.33975 4.66702 3.33505 4.66702 3.33069C4.66672 3.32667 4.66611 3.32298 4.66551 3.31963C4.66641 3.3193 4.66702 3.3193 4.66823 3.31862C5.05828 3.12618 5.48283 3.07287 5.88983 2.93976C5.90224 2.9354 5.91435 2.92769 5.92433 2.91797C6.03387 2.89919 6.14311 2.88645 6.25326 2.89718C6.50624 2.92166 6.70111 3.14026 6.95953 3.12517C6.95984 3.12517 6.95984 3.12484 6.95984 3.12416C6.72835 3.02392 6.55193 2.80934 6.29895 2.76944C6.17489 2.74966 6.05294 2.76341 5.9319 2.78654C5.70737 2.55285 5.34515 2.521 5.05223 2.5153C4.70182 2.50893 4.37168 2.60683 4.04668 2.73726C4.12839 2.55218 4.25851 2.43551 4.47245 2.39796C4.71786 2.35504 4.98112 2.35806 5.22895 2.34599C5.57785 2.32922 5.9325 2.34163 6.27747 2.40667C6.56766 2.46132 6.84727 2.58269 7.14473 2.58102C7.22461 2.58068 7.25003 2.48211 7.19314 2.42645C6.9907 2.22764 6.73077 2.15253 6.49776 2.01742C6.6415 1.9745 6.78796 1.9507 6.93896 1.98087C7.15138 2.02312 7.34898 2.14281 7.54537 2.23669C7.90698 2.41003 8.28463 2.57632 8.68164 2.60214C8.72673 2.60516 8.77303 2.55688 8.75941 2.50457C8.64594 2.05463 8.23561 1.96444 7.89276 1.8015C8.24196 1.50914 8.85322 1.99697 9.14493 2.22328C9.53952 2.52972 9.84243 2.95217 10.2222 3.27973C10.2848 3.31728 10.3499 3.34981 10.4156 3.38032C10.4119 3.34947 10.4092 3.31997 10.4062 3.2975C10.4038 3.28141 10.4019 3.26599 10.3998 3.25023C10.2891 2.81839 9.97557 2.25681 10.1934 1.85984C10.2988 1.66739 10.5078 1.51216 10.6743 1.39179C10.841 1.27176 11.077 1.10848 11.2622 1.22516C11.0032 1.37536 10.7079 1.56345 10.7596 1.92857C10.7675 1.98121 10.8289 2.01775 10.8716 1.98925C11.1306 1.81927 11.416 1.71332 11.7128 1.65834C11.8602 1.63118 12.0085 1.61643 12.1579 1.61944C12.2853 1.62213 12.3443 1.63151 12.404 1.71768C12.0266 1.85079 11.5682 1.79681 11.2408 2.05899C10.9851 2.26318 10.933 2.68026 10.9285 3.00246C10.9276 3.04973 10.9678 3.10572 11.0162 3.08863C11.2716 2.99609 11.5019 2.81135 11.75 2.693C12.0684 2.54179 12.3955 2.43048 12.7335 2.34834C12.9934 2.28564 13.6259 2.04558 13.7817 2.39796C13.477 2.49217 13.1934 2.64371 12.9108 2.80096C12.8836 2.81638 12.873 2.84756 12.8757 2.8764C13.0458 2.90489 13.2307 2.86935 13.4059 2.84253C13.4706 2.83247 13.5342 2.82342 13.595 2.8194C13.6525 2.81538 13.7097 2.8147 13.7666 2.81605C14.1006 2.78386 14.4423 2.77816 14.7767 2.78922C15.0614 2.79928 15.3437 2.83884 15.6267 2.87573C15.8346 2.90288 15.9665 2.9639 16.0521 3.14126C15.6106 3.05778 15.1616 2.99106 14.7201 3.11075C14.6526 3.12919 14.6366 3.24453 14.7101 3.269C15.1564 3.42021 15.617 3.53924 16.0128 3.82456C16.2013 3.96068 16.3726 4.12195 16.5366 4.29193C16.6464 4.4066 16.743 4.52998 16.8734 4.61179C16.8546 4.67214 16.8298 4.72846 16.8011 4.78345C16.5593 4.66845 16.3408 4.50852 16.1069 4.37508C15.8884 4.25069 15.6472 4.188 15.4309 4.0616C15.4245 4.05858 15.4191 4.05456 15.413 4.0512C15.4058 4.04785 15.3982 4.0455 15.3912 4.04517C15.41 4.09311 15.4291 4.13972 15.4487 4.18666C15.4551 4.19705 15.4608 4.20744 15.4657 4.21649C15.486 4.25639 15.5062 4.29696 15.5259 4.33753C15.6488 4.45923 15.7489 4.62218 15.8488 4.75495C16.0092 4.96885 16.1508 5.19617 16.3045 5.41611C16.5614 5.78291 16.7738 6.21172 17.2114 6.32236C17.2153 6.32371 17.2193 6.32371 17.2226 6.32404C17.3158 6.47425 17.3666 6.66535 17.123 6.6268C16.9926 6.60567 16.8728 6.54935 16.7393 6.55203C16.6855 6.55337 16.6286 6.61607 16.6628 6.67776C16.776 6.88261 16.9484 6.99593 17.1279 7.12166C17.3424 7.27287 17.5382 7.44588 17.6644 7.69532L17.6659 7.69431ZM16.0999 6.375C16.1154 6.33846 16.0775 6.28817 16.0421 6.30091C15.7783 6.40048 15.4578 6.5071 15.2406 6.72436C15.331 6.29353 15.3359 5.84996 15.1383 5.44495C15.1277 5.42382 15.1044 5.40807 15.0823 5.41444C14.9991 5.43757 14.8811 5.44796 14.7794 5.48116C14.7319 5.16097 14.3936 4.94103 14.1321 4.87028C14.1097 4.86391 14.0967 4.9018 14.12 4.9085C14.3527 4.97824 14.6471 5.24613 14.6692 5.52877C14.6692 5.53044 14.6695 5.53178 14.6701 5.53312C14.6263 5.5633 14.5924 5.60387 14.5769 5.66053C14.4889 5.98307 14.6396 6.34952 14.576 6.6791C14.3918 6.48162 14.2395 6.2362 14.009 6.10175C13.7536 5.95356 13.6561 6.05683 13.493 6.26738C13.4694 6.29789 13.4885 6.3522 13.5209 6.36293C13.7058 6.42395 13.8837 6.5641 14.0422 6.68145C14.1118 6.73274 14.4147 6.9319 14.481 7.08076C14.4756 7.08512 14.4704 7.09015 14.4665 7.09618C13.9857 7.00163 13.4979 6.98521 13.0107 7.02678C12.7565 7.04857 12.5002 7.08143 12.2511 7.1401C12.029 7.19207 11.8172 7.28394 11.5978 7.34362C11.977 6.93693 12.5283 6.80684 13.0276 6.66535C13.0757 6.65161 13.0836 6.58958 13.0479 6.55605C12.9347 6.45011 12.8358 6.26604 12.6733 6.25699C12.5477 6.24995 12.3925 6.33242 12.2732 6.37366C12.1637 6.41188 12.0548 6.45279 11.9476 6.49771C11.7525 6.57818 11.5079 6.67776 11.2843 6.80986C11.2989 6.75722 11.3128 6.70424 11.3252 6.65161C11.5591 5.65517 11.402 4.87162 10.871 4.38648C9.71866 3.33304 7.82891 4.79283 7.07301 5.80772C6.73137 6.26671 6.57523 6.82763 6.59278 7.37983C6.50472 7.3815 6.41606 7.38251 6.32831 7.38486C6.26143 7.38687 6.19365 7.3919 6.12526 7.39592C6.05657 7.40061 5.98788 7.40497 5.91949 7.40598C6.10468 7.35636 6.29562 7.33121 6.48142 7.2826C6.51864 7.27254 6.53589 7.2313 6.52137 7.19308C6.47719 7.07774 6.41788 6.93257 6.30137 6.88798C6.16278 6.83467 5.9794 6.90407 5.84021 6.92486C5.52641 6.9728 5.23773 7.05327 4.97113 7.20582C4.96932 7.15083 4.96538 7.09618 4.96054 7.04153C4.96175 7.03751 4.96296 7.03382 4.96417 7.0298C4.95358 7.0194 4.94632 7.00499 4.94481 6.98554C4.94087 6.93994 4.93906 6.89401 4.93785 6.84774C4.93785 6.84473 4.93755 6.84171 4.93755 6.83869C4.90184 6.58589 4.84041 6.33946 4.74963 6.10175C4.67489 5.90595 4.57412 5.65047 4.39679 5.54519C4.30753 5.49189 4.12687 5.46808 4.11265 5.62197C4.10599 5.69473 4.16319 5.76949 4.19224 5.82817C4.26335 5.97267 4.3272 6.12824 4.35655 6.29018C4.22704 6.12489 4.0948 5.96295 3.93139 5.83521C3.7344 5.68165 3.51229 5.56699 3.28988 5.4664C3.15219 5.40404 2.9903 5.32492 2.84687 5.41276C2.7116 5.49557 2.62627 5.68433 2.53216 5.81207C2.51582 5.83387 2.5482 5.86639 2.56635 5.8456C2.66712 5.72926 2.76728 5.53681 2.91586 5.49691C3.08017 5.45266 3.2814 5.58912 3.42393 5.66221C3.82609 5.86874 4.09752 6.15339 4.38711 6.51884C4.41707 6.55672 4.48576 6.53828 4.48515 6.48263C4.48334 6.28984 4.42887 6.11382 4.35534 5.94015C4.33385 5.88919 4.2461 5.76614 4.24126 5.7078C4.22794 5.5576 4.42342 5.70009 4.47366 5.76983C4.72693 6.12153 4.83194 6.64155 4.85857 7.09316C4.85766 7.09886 4.85675 7.10389 4.85584 7.10926C4.85463 7.12099 4.85705 7.13005 4.86129 7.13776C4.8628 7.16961 4.86401 7.20045 4.86492 7.2313C4.86522 7.24505 4.86916 7.25678 4.87491 7.26583C4.79926 7.31545 4.72542 7.37144 4.6531 7.43515C4.6419 7.44521 4.65461 7.46666 4.66762 7.45895C4.77444 7.39391 4.8861 7.33859 5.00018 7.29064C5.19839 7.20749 5.40476 7.14782 5.61144 7.10155C5.75397 7.06936 5.8977 7.04891 6.04144 7.02477C6.23057 6.99325 6.30803 7.02645 6.38762 7.18235C6.1534 7.25242 5.91556 7.29936 5.6883 7.39793C5.64987 7.41436 5.67015 7.46901 5.70192 7.47572C5.84021 7.50488 5.98667 7.48812 6.12889 7.48007C6.1531 7.47873 6.177 7.47739 6.20091 7.47706C6.39125 7.47203 6.58128 7.47136 6.77132 7.46499C6.82518 7.46297 6.87813 7.45862 6.93109 7.45258C7.00311 7.44521 7.07483 7.43548 7.14775 7.4271C7.31479 7.40765 7.41737 7.43615 7.52026 7.53741C7.40345 7.54244 7.28604 7.54679 7.17075 7.56624C7.00704 7.5934 6.84878 7.69096 6.68175 7.67588C6.67267 7.67487 6.6654 7.67688 6.65935 7.67923C6.40607 7.66213 6.15007 7.66615 5.88893 7.68996C5.862 7.69197 5.86653 7.73857 5.89195 7.74092C6.2345 7.77109 6.58189 7.77311 6.92231 7.83245C7.26577 7.8928 7.58713 8.03395 7.92393 8.11576C8.16752 8.17443 8.42897 8.05843 8.65865 7.97964C8.99938 7.86296 9.35796 7.76305 9.71503 7.7436C9.76678 7.74058 9.79825 7.66984 9.75013 7.63262C9.67599 7.57496 9.59853 7.52399 9.51894 7.4794L9.55223 7.40765C9.59339 7.42878 9.63454 7.37111 9.61517 7.32987C9.55193 7.19643 9.51077 7.05394 9.45267 6.91782C9.40668 6.81019 9.34404 6.7143 9.29381 6.6097C9.5365 6.52454 9.76466 6.68815 9.96135 6.85277C10.1296 6.99392 10.2228 7.17128 10.3541 7.34563C10.3838 7.38486 10.4531 7.3644 10.4528 7.30942C10.4513 7.15452 10.4609 6.99962 10.4833 6.8464C10.5021 6.71766 10.5039 6.70123 10.6135 6.66301C10.6595 6.64725 10.7079 6.63853 10.756 6.63115C10.7999 6.87255 10.7384 7.11362 10.7351 7.35803C10.7342 7.41302 10.8071 7.45359 10.8353 7.39693C11.0268 7.01773 11.5443 6.80416 11.8929 6.65127C12.0917 6.56376 12.295 6.49336 12.5002 6.4263C12.6424 6.37936 12.729 6.38339 12.8421 6.50408C12.8645 6.52789 12.886 6.55203 12.9081 6.57583C12.3571 6.73174 11.7788 6.90139 11.4036 7.40665C11.3721 7.44889 11.4157 7.50522 11.4574 7.49784C11.7243 7.45124 11.9718 7.33289 12.2339 7.26617C12.4696 7.20682 12.7144 7.17564 12.955 7.15251C13.4767 7.10188 14.0065 7.11596 14.5204 7.23298C14.5673 7.2437 14.5872 7.18134 14.5751 7.14346C14.5709 7.13005 14.5667 7.11663 14.5624 7.10356C14.5624 7.09484 14.5615 7.08646 14.5606 7.07741C14.521 6.81153 13.881 6.39948 13.6331 6.27576C13.6949 6.18725 13.7572 6.11349 13.8819 6.15607C13.9953 6.19496 14.097 6.29152 14.1814 6.3807C14.3152 6.52152 14.429 6.68379 14.5657 6.82092C14.5936 6.84875 14.6381 6.84573 14.6529 6.80248C14.7122 6.62613 14.6916 6.41557 14.6859 6.22983C14.6816 6.09035 14.6599 5.95121 14.6662 5.8114C14.6735 5.65248 14.7071 5.63572 14.8423 5.59616C14.9603 5.56162 15.0475 5.50161 15.1119 5.63706C15.1722 5.76279 15.1903 5.9254 15.1994 6.06521C15.2191 6.36997 15.1598 6.66971 15.0762 6.95805C15.059 7.01739 15.1389 7.0697 15.1682 7.01002C15.3186 6.70492 15.6563 6.56477 15.9511 6.45346C15.8064 6.73341 15.5952 6.96442 15.4094 7.21118C15.3682 7.22795 15.3347 7.25376 15.325 7.29467C15.3238 7.29735 15.3232 7.30037 15.3226 7.30338C15.3226 7.30439 15.3226 7.30472 15.3223 7.30506H15.3226C15.3223 7.32015 15.3322 7.33591 15.3474 7.33691C15.3828 7.33959 15.4155 7.31881 15.45 7.31109C15.5099 7.29802 15.5719 7.29735 15.6324 7.29802C15.7377 7.29936 15.8554 7.30674 15.9565 7.34295C16.014 7.36373 16.0382 7.27623 15.9871 7.24773C15.8651 7.18 15.7132 7.17061 15.5795 7.17967C15.5749 7.18 15.5695 7.18067 15.564 7.18101C15.7628 6.92754 15.9692 6.68178 16.1009 6.37467L16.0999 6.375ZM13.7514 3.43798C13.7757 3.43061 13.795 3.39909 13.7805 3.3716C13.7315 3.27906 13.6927 3.13825 13.6056 3.07857C13.4991 3.00548 13.3414 3.0437 13.2252 3.05778C13.0089 3.0836 12.794 3.10204 12.5804 3.15132C12.446 3.18183 12.3192 3.23045 12.1921 3.27906C12.2702 3.23212 12.3477 3.18451 12.4152 3.11846C12.4369 3.09734 12.4372 3.06247 12.4203 3.038C12.0659 2.52503 11.5037 3.27269 11.1863 3.49498C11.1669 3.50839 11.182 3.5436 11.2017 3.53018C11.3742 3.41518 11.54 3.29013 11.7113 3.17244C11.7921 3.11645 11.8756 3.06281 11.964 3.02224C12.1104 2.95519 12.2076 2.94982 12.3074 3.06717C12.1649 3.18686 11.9924 3.24922 11.8677 3.39741C11.8405 3.4296 11.8581 3.50034 11.9062 3.48425C12.0714 3.4296 12.226 3.34511 12.3922 3.29415C12.5801 3.23615 12.7765 3.19893 12.9707 3.17613C13.1133 3.1597 13.2706 3.13054 13.414 3.13188C13.5759 3.13322 13.6156 3.23145 13.6797 3.36188C13.4031 3.43295 13.1157 3.43932 12.8657 3.60562C12.8318 3.62808 12.8367 3.69112 12.8812 3.6938C13.0322 3.70252 13.1874 3.73571 13.3151 3.83059C13.4186 3.90771 13.4667 3.9808 13.4803 4.11591C13.4909 4.21649 13.4649 4.28087 13.4283 4.35429C13.2549 4.05221 12.8001 4.08037 12.5196 4.01902C12.4808 4.0103 12.4672 4.07367 12.4953 4.0958C12.591 4.17023 12.6367 4.27651 12.6963 4.38279C12.722 4.42839 12.7904 4.39184 12.7647 4.34524C12.7214 4.26813 12.6842 4.19269 12.6351 4.12698C12.9066 4.16922 13.296 4.188 13.3814 4.47298C13.392 4.50919 13.4434 4.53534 13.4646 4.49176C13.5699 4.27148 13.6588 4.10351 13.4973 3.88122C13.3832 3.72397 13.2101 3.64887 13.0337 3.61702C13.2612 3.51577 13.5124 3.50739 13.7508 3.43765L13.7514 3.43798ZM13.1959 8.10771C13.2316 8.10805 13.2506 8.07284 13.2385 8.03697C13.1947 7.90319 13.1934 7.77176 13.1907 7.63095C13.1898 7.61016 13.181 7.58803 13.1611 7.58099C12.5689 7.38687 11.9304 7.72248 11.4353 8.06312C11.396 8.09028 11.4259 8.16169 11.468 8.13587C11.787 7.94074 12.1141 7.755 12.4726 7.66615C12.6009 7.63464 12.9532 7.54512 13.0706 7.65408C13.1308 7.70974 13.1278 7.88743 13.1444 8.00948C12.8503 8.00948 12.5698 8.02724 12.2808 8.10067C12.1047 8.1456 11.8493 8.20058 11.7531 8.39236C11.7343 8.42924 11.7582 8.47786 11.7994 8.46947C12.115 8.40376 12.4354 8.46981 12.7296 8.60258C12.6957 8.73032 12.6506 8.85269 12.5997 8.97373C12.2188 8.71389 11.816 8.71993 11.376 8.6988C11.3312 8.69713 11.3128 8.77357 11.3594 8.78799C11.6287 8.8708 11.8475 9.02134 12.0384 9.24094C11.98 9.31269 11.9258 9.38444 11.882 9.46659C11.4732 9.11991 11.028 8.81414 10.493 8.84163C10.4727 8.84297 10.4694 8.8765 10.4906 8.87751C11.0362 8.90232 11.4641 9.25368 11.8671 9.62752C11.9001 9.65803 11.9464 9.63087 11.9606 9.59399C12.0075 9.47161 12.0889 9.37841 12.1616 9.27514C12.1761 9.25436 12.174 9.21781 12.1576 9.19903C12.0045 9.02637 11.8369 8.89393 11.6459 8.80039C11.9809 8.81615 12.299 8.86242 12.594 9.08404C12.6197 9.10281 12.6475 9.08806 12.6597 9.06023C12.7268 8.90734 12.7871 8.75546 12.827 8.59151C12.8337 8.56402 12.8234 8.53888 12.7995 8.52781C12.518 8.39337 12.2109 8.3186 11.9059 8.35246C12.0357 8.24182 12.253 8.20729 12.3943 8.1751C12.6612 8.11442 12.9238 8.10637 13.1959 8.10805V8.10771ZM9.99403 3.81282C10.0073 3.82322 10.0198 3.80176 10.008 3.79036C9.86543 3.65692 9.79613 3.47486 9.63999 3.35115C9.49595 3.23715 9.3389 3.1711 9.17368 3.10405C9.05142 3.05409 8.90375 2.96357 8.76879 2.98536C8.65138 3.0038 8.56756 3.11779 8.48041 3.19625C8.44985 3.22341 8.46286 3.27537 8.49645 3.29046C8.53216 3.30656 8.56787 3.32231 8.60357 3.33841C8.28917 3.27001 7.96962 3.24118 7.64735 3.269C7.62163 3.27102 7.61043 3.30287 7.61285 3.32667C7.63797 3.62406 7.95782 3.5845 8.13696 3.70553C8.18598 3.73873 8.23652 3.65591 8.18719 3.62406C8.07069 3.54795 7.76718 3.5275 7.71059 3.36657C8.15421 3.3669 8.58057 3.42256 9.00846 3.56472C9.06232 3.58282 9.10166 3.5037 9.05385 3.46615C8.91616 3.35953 8.76365 3.28979 8.60932 3.22106C8.70343 3.13255 8.77364 3.07253 8.92433 3.11679C9.04114 3.15132 9.15703 3.20463 9.27172 3.24855C9.41697 3.30488 9.55919 3.37763 9.68265 3.48023C9.80067 3.57746 9.87178 3.7223 9.99343 3.81249L9.99403 3.81282ZM8.69738 8.99955C8.70585 8.98245 8.70373 8.95998 8.69345 8.94355C8.69314 8.9392 8.69254 8.93551 8.69254 8.93148C8.69133 8.91371 8.66893 8.9117 8.66016 8.92277C8.65623 8.92277 8.65229 8.92243 8.64806 8.9231C8.20293 9.0495 7.69698 8.93048 7.25608 8.82587C7.23944 8.82185 7.22976 8.84867 7.24701 8.85471C7.67943 9.00659 8.20353 9.21245 8.65229 9.02871C8.64291 9.11991 8.6181 9.21345 8.59359 9.29694C8.59056 9.30733 8.59056 9.31672 8.59207 9.32543C7.95963 9.3422 7.33839 9.32845 6.7695 8.9801C6.73652 8.95998 6.68901 8.99418 6.71019 9.03743C6.88661 9.39987 7.19163 9.62886 7.49605 9.84746C7.41071 9.91988 7.31509 9.97587 7.22552 10.0426C6.94138 9.75191 6.47416 9.60539 6.23843 9.26039C6.20394 9.17992 6.16732 9.1008 6.12647 9.02268C6.11164 8.99485 6.06625 9.00692 6.07472 9.04213C6.09379 9.11957 6.12163 9.18898 6.15673 9.25234C6.23208 9.43943 6.31136 9.62651 6.37945 9.81494C6.41515 9.91351 6.43422 10.0332 6.31923 10.0798C6.22633 10.1177 6.14251 9.999 6.06837 9.92457C5.69466 9.55007 5.43109 9.06828 5.41324 8.50032C5.41293 8.48154 5.38721 8.47886 5.38691 8.49831C5.36664 9.23256 5.76486 9.80957 6.2584 10.2515C6.27596 10.2669 6.31166 10.2662 6.3277 10.2468C6.4206 10.1361 6.55859 10.0708 6.52046 9.9011C6.4902 9.768 6.39367 9.63121 6.34162 9.50715C6.33738 9.4971 6.33345 9.48737 6.32921 9.47731C6.58461 9.73011 6.95378 9.87931 7.18437 10.1472C7.20373 10.1697 7.23067 10.17 7.25276 10.1522C7.36896 10.0617 7.49544 9.99196 7.5953 9.87897C7.61346 9.85886 7.61618 9.82231 7.59167 9.80521C7.32054 9.61813 7.04154 9.42032 6.85665 9.1293C7.41192 9.41898 8.00775 9.43373 8.62022 9.42032C8.64987 9.41931 8.665 9.39148 8.66409 9.36567C8.67499 9.36064 8.68346 9.35058 8.68649 9.33382C8.70737 9.22888 8.70464 9.12896 8.69859 9.0257C8.69829 9.01698 8.69768 9.0086 8.69708 8.99988L8.69738 8.99955ZM5.06464 10.8265C5.21897 10.8171 5.26315 10.628 5.17872 10.5096C5.11971 10.4265 5.02863 10.4023 4.95298 10.344C4.83527 10.2525 4.75901 10.0949 4.67489 9.9695C4.6649 9.95441 4.641 9.97118 4.65007 9.9876C4.72028 10.12 4.78019 10.2739 4.87914 10.3846C4.91061 10.4204 4.94874 10.4463 4.98596 10.4738C5.01864 10.4979 5.18386 10.6481 5.08552 10.6967C5.0598 10.6803 5.02379 10.6863 5.01017 10.7115C4.71604 10.5646 4.50634 10.342 4.39679 9.99431C4.38741 9.96447 4.34112 9.97553 4.34202 10.006C4.34233 10.0091 4.34233 10.0117 4.34293 10.0148C4.3508 10.222 4.37713 10.4335 4.42554 10.6337C4.46972 10.8144 4.5487 10.981 4.57563 11.1661C4.47124 11.1755 4.40133 11.1768 4.31812 11.0726C4.2576 10.9958 4.20827 10.9069 4.1647 10.8177C4.08209 10.6504 4.02399 10.4691 3.98405 10.2837C3.90567 9.91787 3.89599 9.53934 3.88933 9.16484C3.88903 9.14506 3.86149 9.14237 3.86149 9.16283C3.85574 9.64596 3.85453 10.1435 3.99918 10.6059C4.06302 10.8087 4.16046 11.0605 4.31025 11.2067C4.4092 11.3036 4.5139 11.2798 4.63736 11.2627C4.66339 11.2586 4.6767 11.2281 4.67337 11.2023C4.65159 11.0186 4.58259 10.8576 4.52933 10.6833C4.48667 10.5428 4.4555 10.397 4.4319 10.2498C4.5605 10.5123 4.76446 10.694 5.02681 10.8234C5.0374 10.8285 5.04648 10.8278 5.05465 10.8248C5.05828 10.8258 5.06131 10.8275 5.06524 10.8268L5.06464 10.8265Z" fill="#FCC12C"/>
<path d="M9.55135 7.40726L9.51806 7.47901C9.1625 7.27918 8.76004 7.20174 8.36182 7.1776C8.36696 7.12127 8.3718 7.06427 8.37695 7.00795C8.51221 7.00593 8.64354 7.02672 8.77215 7.0626C9.04176 7.13803 9.29898 7.27784 9.55135 7.40693V7.40726Z" fill="#FCC12C"/>
<path d="M0.155697 9.28649C0.171129 9.3351 0.229532 9.34516 0.266752 9.32839C0.625336 9.16444 0.89798 8.84057 1.22661 8.62432C0.937924 9.07292 0.76544 9.60433 0.661345 10.1435C0.61656 10.3735 0.54212 10.6504 0.613231 10.8824C0.68162 11.1064 0.881337 11.209 1.0632 11.2998C1.11616 11.3266 1.16215 11.2737 1.17123 11.2214C1.20119 11.0467 1.17698 10.87 1.20542 10.6946C1.23266 10.5267 1.28471 10.3627 1.33282 10.2008C1.39001 10.0093 1.45447 9.82226 1.53163 9.64154C1.49653 10.3238 1.46324 11.0108 1.5982 11.682C1.66084 11.9955 1.73831 12.2369 1.94408 12.4649C2.16407 12.709 2.38981 12.9611 2.66034 13.1355C2.71662 13.1717 2.7835 13.1381 2.79197 13.0647C2.81648 12.8481 2.74355 12.648 2.71299 12.4374C2.68576 12.2503 2.7139 12.0518 2.66215 11.8688C2.6092 11.6807 2.44337 11.6488 2.36954 11.4681C2.29812 11.2928 2.27482 11.0862 2.2721 10.8834C2.3998 11.1241 2.54474 11.3531 2.64521 11.6103C2.7953 11.9959 2.92844 12.3968 2.96445 12.8169C2.96899 12.8729 3.03829 12.9085 3.08095 12.8806C3.15479 12.8485 3.22287 12.8532 3.28521 12.8944C3.34028 12.9212 3.38235 12.878 3.39142 12.8263C3.5515 12.6 3.5279 12.2688 3.47797 11.9908C3.9579 12.5014 4.53768 12.9034 5.17224 13.1281C5.08781 13.2605 4.93984 13.3544 4.84603 13.4748C4.82001 13.5083 4.83211 13.5579 4.85178 13.5894C4.91926 13.6957 4.99915 13.8335 5.12322 13.861C5.24789 13.8885 5.36954 13.7933 5.47272 13.7309C5.69423 13.5985 5.92542 13.4932 6.15751 13.3866C6.31729 13.3135 6.49643 13.165 6.67194 13.1036C6.55785 13.4587 6.19201 13.8117 6.70916 13.9951C6.74184 14.0072 6.78208 13.9954 6.80175 13.9619C6.90585 13.7815 7.03052 13.5509 7.20421 13.4449C7.38487 13.3343 7.65055 13.3574 7.85027 13.3051C8.30145 13.1864 8.73054 13.0044 9.17355 12.8625C9.17234 13.0714 9.11696 13.1982 8.94872 13.345C8.84492 13.4359 8.74446 13.515 8.6682 13.6374C8.63825 13.686 8.66155 13.744 8.70633 13.7664C9.61232 14.2164 10.4887 13.4704 11.122 12.7747C11.0754 12.9309 11.0031 13.0825 10.9758 13.2451C10.9677 13.2964 11.014 13.3457 11.0566 13.3484C11.5214 13.3782 11.7898 13.0463 11.9336 12.5943C11.9717 12.5943 12.0089 12.6151 12.0459 12.648C12.1781 12.7663 12.3012 13.0443 12.402 13.1214C12.6329 13.2974 12.872 13.0728 13.0944 12.9899C13.1522 12.9685 13.193 12.8904 13.1434 12.832C13.0245 12.6936 12.894 12.5698 12.7615 12.4485C13.098 12.4126 13.4372 12.4904 13.7752 12.4488C14.1205 12.4062 14.4869 12.1829 14.8374 12.2785C14.8697 12.2872 14.9139 12.2812 14.9318 12.244C14.9977 12.1075 15.0773 11.9918 15.1067 11.8379C15.1176 11.7816 15.0943 11.7239 15.0365 11.7186C14.562 11.6743 14.0924 11.5429 13.6218 11.5959C13.8297 11.4742 14.0802 11.4276 14.306 11.3907C14.6848 11.328 15.0728 11.2438 15.4571 11.2468C15.4656 11.4299 15.4725 11.6126 15.4777 11.796C15.4792 11.844 15.5055 11.8896 15.553 11.8919C15.8154 11.9073 16.0571 11.9358 16.1198 11.5972C16.1749 11.2968 16.1818 10.9907 16.2499 10.6906C16.2974 10.4831 16.3631 10.2812 16.4009 10.0734C16.4575 10.1646 16.525 10.2487 16.597 10.3299C16.5725 10.5361 16.5316 10.7389 16.4645 10.933C16.4402 11.0028 16.4999 11.0705 16.5625 11.0584C16.8621 11.0008 17.0485 10.5988 17.2025 10.3463V10.3453C17.2219 10.3322 17.2355 10.3094 17.2364 10.2759C17.2433 9.84271 17.3989 9.42496 17.339 8.9891C17.2981 8.69137 17.1862 8.41343 17.1157 8.12442C17.322 8.45768 17.4419 8.8352 17.5435 9.23385C17.5584 9.29286 17.6083 9.32035 17.66 9.29721C17.8552 9.21038 17.8915 8.92707 17.9369 8.72993C18.0044 8.43555 18.0325 8.24981 17.9448 7.9541C17.8655 7.68521 17.7481 7.44146 17.5605 7.24599C17.3889 7.06729 17.1181 6.95196 16.9359 6.77091C17.1153 6.82656 17.3151 6.89395 17.4413 6.74006C17.5947 6.55231 17.4149 6.28107 17.2742 6.16104C17.2551 6.14461 17.2349 6.14327 17.2176 6.15098C16.777 5.98167 16.5117 5.44321 16.2523 5.04155C16.1177 4.83268 15.9694 4.63486 15.8196 4.43906C15.809 4.42532 15.7987 4.41157 15.7878 4.39715C15.8741 4.43336 15.9594 4.47158 16.042 4.51852C16.3007 4.66705 16.5398 4.85179 16.8097 4.97617C16.8621 5.00031 16.9072 4.9517 16.9162 4.89873C16.9326 4.80116 16.9792 4.71399 16.9998 4.61676C17.0343 4.57384 17.0352 4.48935 16.9722 4.45717C16.7961 4.36798 16.6557 4.16112 16.5092 4.02064C16.3434 3.86239 16.1694 3.71319 15.9782 3.5935C15.7055 3.42217 15.4087 3.31555 15.1091 3.22C15.4677 3.20457 15.8278 3.28068 16.1815 3.34908C16.2318 3.35914 16.2844 3.29309 16.2693 3.23877C16.2081 3.0252 16.1162 2.83845 15.917 2.75698C15.7013 2.6688 15.4335 2.67014 15.2068 2.646C14.818 2.60477 14.4264 2.61449 14.037 2.63896C13.8751 2.64936 13.7108 2.65405 13.551 2.6849C13.4974 2.69529 13.4448 2.70803 13.3924 2.72178C13.5564 2.64735 13.7232 2.5823 13.8975 2.53536C13.9362 2.52497 13.9671 2.48205 13.9574 2.43579C13.846 1.9141 13.2611 2.04452 12.9119 2.12968C12.6078 2.20378 12.3061 2.27988 12.0123 2.39656C11.8165 2.47401 11.6237 2.56286 11.4373 2.66512C11.316 2.7315 11.2028 2.817 11.0806 2.88204C11.0975 2.51223 11.1986 2.185 11.5605 2.06799C11.8888 1.96137 12.2377 1.97646 12.5594 1.83732C12.5978 1.82055 12.6132 1.75987 12.5951 1.72098C12.4486 1.41621 12.2516 1.42661 11.9551 1.44907C11.6001 1.47589 11.2449 1.57547 10.9274 1.75585C10.9922 1.53758 11.2821 1.41822 11.4476 1.322C11.4945 1.29451 11.5081 1.22611 11.4733 1.18051C11.102 0.694362 10.4245 1.29618 10.1482 1.63381C9.7963 2.06296 10.0662 2.59974 10.2299 3.08622C9.80448 2.66176 9.45406 2.17662 8.94478 1.84939C8.56986 1.60866 8.04303 1.31831 7.70532 1.7763C7.67204 1.82123 7.7026 1.87923 7.74194 1.89968C8.01246 2.04485 8.41947 2.11191 8.5753 2.42372C8.17012 2.37074 7.78612 2.17192 7.41725 1.99054C7.02295 1.79742 6.71521 1.75518 6.30276 1.90773C6.24406 1.92918 6.21773 2.01334 6.27522 2.05793C6.44922 2.19338 6.65711 2.26278 6.84624 2.36739C6.60506 2.3171 6.36722 2.23395 6.12362 2.20009C5.71178 2.14343 5.30629 2.16488 4.89354 2.18534C4.67446 2.19606 4.43661 2.18098 4.22994 2.27787C4.00359 2.38382 3.89193 2.60678 3.82929 2.85991C3.80962 2.94038 3.87559 3.00374 3.94458 2.97357C4.28138 2.82772 4.62513 2.69462 4.99098 2.69361C5.20008 2.69328 5.48241 2.69563 5.68666 2.80895C5.61192 2.83041 5.53657 2.85019 5.46183 2.86997C5.44851 2.87131 5.43581 2.87198 5.4231 2.87265C5.40706 2.87299 5.39526 2.88036 5.38588 2.89042C5.11989 2.96116 4.85481 3.03493 4.60546 3.16803C4.57309 3.18479 4.56219 3.21564 4.56552 3.24548C4.54918 3.25319 4.53435 3.26828 4.52467 3.29275C4.50016 3.35444 4.49683 3.42887 4.48654 3.49794C4.15096 3.4909 3.82415 3.33399 3.49976 3.25118C3.19746 3.17406 2.89031 3.12813 2.58015 3.16267C2.33201 3.19016 2.05997 3.2552 1.85481 3.4215C1.67022 3.57036 1.65267 3.71218 1.66598 3.95492C1.66962 4.01427 1.71985 4.07294 1.77704 4.03774C2.06603 3.86004 2.34775 3.78762 2.65701 3.76046C2.49391 3.86507 2.31174 3.95124 2.15923 4.05819C1.94045 4.21174 1.72983 4.37838 1.54222 4.57653C1.26473 4.86889 0.912202 5.176 1.2602 5.5723C1.28803 5.60448 1.33706 5.6142 1.36883 5.58101C1.43328 5.51396 1.50076 5.45025 1.56976 5.38722C1.423 5.5904 1.29015 5.80598 1.17516 6.03297C1.1092 6.16339 1.04807 6.29783 0.99451 6.4353C0.915531 6.63847 0.915531 6.80946 0.68404 6.8326C0.610508 6.84031 0.564815 6.82086 0.509741 6.89228C0.461325 6.95464 0.441656 7.0864 0.453457 7.16486C0.481297 7.35261 0.637137 7.38178 0.782991 7.35094C0.940042 7.31774 1.09497 7.25136 1.24567 7.16419C1.08015 7.44783 0.956685 7.75561 0.903427 8.07513C0.901006 8.08821 0.901914 8.09927 0.90373 8.10967C0.651662 8.3229 0.364795 8.56497 0.0652185 8.62364C0.00863186 8.63471 -0.00952428 8.69942 0.00772405 8.75239C0.0652185 8.92707 0.101228 9.10879 0.156907 9.28447L0.155697 9.28649ZM0.956685 8.26389C1.08015 8.1613 1.20179 8.05569 1.32495 7.95309C1.48261 7.81261 1.63936 7.67146 1.79459 7.5283C1.73468 7.84245 1.73952 8.17404 1.81063 8.49121C1.81698 8.52004 1.83907 8.54485 1.86691 8.5462C1.96375 8.55055 2.05695 8.53614 2.15287 8.5234C2.18737 8.51904 2.20189 8.47948 2.19947 8.44628C2.18888 8.29608 2.1798 8.14889 2.18767 8.00338C2.20825 8.10698 2.24547 8.20857 2.29298 8.31083C2.3187 8.36582 2.39737 8.32324 2.37105 8.26825C2.26968 8.05602 2.21884 7.85385 2.26272 7.61446C2.26998 7.57222 2.2143 7.56618 2.20008 7.59971C2.08751 7.87095 2.07117 8.10933 2.08055 8.39834C2.02699 8.4027 1.97343 8.40739 1.91957 8.40873C1.85783 8.12844 1.83877 7.77774 1.88446 7.44548C1.90232 7.42872 1.92108 7.41229 1.93893 7.39519C1.92774 7.39217 1.91533 7.39318 1.90201 7.39989C1.89808 7.40156 1.89475 7.40391 1.89112 7.40559C1.93923 7.0921 2.04575 6.79807 2.23064 6.60159C2.23246 6.59958 2.22943 6.59556 2.22762 6.59824C2.02185 6.83897 1.88325 7.13368 1.81123 7.44884C1.79671 7.45655 1.78249 7.46493 1.76857 7.47331C1.5286 7.61077 1.30891 7.77841 1.08983 7.95644C1.16609 7.6386 1.31648 7.33317 1.50591 7.05757C1.64511 6.77493 1.82304 6.51677 2.00036 6.26095C1.88235 6.36422 1.76645 6.47788 1.65721 6.60059C1.21692 6.29917 1.92804 5.66953 2.18404 5.49384C2.20008 5.48311 2.18767 5.45394 2.17133 5.46467C1.87206 5.6588 1.02447 6.31124 1.57611 6.69581C1.56945 6.70352 1.56249 6.71123 1.55584 6.71894C1.34613 6.88893 1.1207 7.03376 0.883455 7.13032C0.825658 7.15413 0.617468 7.25035 0.614744 7.10954C0.612021 6.98381 0.751823 7.04382 0.812949 7.03511C1.01267 7.00795 1.052 6.80712 1.11313 6.62909C1.23932 6.26196 1.4233 5.91495 1.64087 5.59945C1.98039 5.05664 2.4467 4.63386 2.95598 4.27746C2.749 4.4803 2.64097 4.71064 2.91392 4.90811C2.93631 4.92454 2.96778 4.92354 2.98896 4.90342C3.28914 4.60871 3.60052 4.34988 3.97121 4.17352C4.04474 4.13865 3.98997 4.01527 3.91644 4.05014C3.5509 4.22348 3.24194 4.47427 2.9466 4.76327C2.69302 4.49841 3.44105 3.98543 3.61142 3.84026C3.62564 3.82819 3.60899 3.79969 3.59386 3.81042C3.50672 3.87278 3.32394 3.98141 3.15025 4.1125C3.0746 4.141 3.00107 4.17185 2.92905 4.20537C2.60889 4.35491 2.32384 4.55674 2.063 4.81088C1.80427 4.98322 1.55402 5.16695 1.32435 5.3956C1.18364 5.17835 1.34341 5.02311 1.51014 4.84341C1.65751 4.68448 1.80488 4.5316 1.97161 4.39749C2.14137 4.2607 2.32172 4.13396 2.50419 4.01963C2.65913 3.9224 2.82465 3.85568 2.96354 3.72995C3.01378 3.68469 2.98442 3.58578 2.91936 3.5831C2.52417 3.56634 2.15983 3.63608 1.81063 3.82752C1.80972 3.74739 1.82304 3.68234 1.8884 3.60892C1.98432 3.50029 2.1323 3.44061 2.26151 3.40105C2.51478 3.32393 2.77926 3.31656 3.03919 3.34774C3.54545 3.40842 4.05382 3.72626 4.56552 3.67664C4.58307 3.67497 4.60274 3.65988 4.61485 3.64178C4.61636 3.70045 4.61757 3.75946 4.61515 3.82048C4.61333 3.86943 4.6672 3.90329 4.70169 3.86876C4.9698 3.60322 5.33111 3.44933 5.6912 3.43491C5.48271 3.5945 5.11626 3.89424 5.2373 4.13061C5.29116 4.23521 5.39465 4.22817 5.47999 4.18157C5.55624 4.13966 5.621 4.07294 5.69393 4.02567C5.8307 3.93782 5.98019 3.87077 6.12392 3.79835C6.1799 3.77052 6.13784 3.6753 6.08186 3.7038C5.92753 3.78226 5.76473 3.85333 5.62039 3.95258C5.55049 4.00086 5.28269 4.24427 5.31628 3.97202C5.33988 3.77656 5.70119 3.53851 5.83464 3.42519C5.86187 3.40205 5.84281 3.35713 5.81285 3.35277C5.44034 3.30248 4.97131 3.43927 4.68414 3.72593C4.67416 3.69542 4.6672 3.66424 4.66235 3.63306C4.64964 3.55259 4.65146 3.46877 4.6566 3.38596C4.66447 3.3749 4.66901 3.36115 4.66841 3.34371C4.6681 3.33902 4.6675 3.33433 4.6675 3.32997C4.6672 3.32595 4.66659 3.32226 4.66599 3.3189C4.66689 3.31857 4.6675 3.31857 4.66871 3.3179C5.05876 3.12545 5.48331 3.07214 5.89031 2.93904C5.90272 2.93468 5.91482 2.92697 5.92481 2.91724C6.03435 2.89847 6.14359 2.88573 6.25374 2.89646C6.50672 2.92093 6.70159 3.13953 6.96001 3.12444C6.96032 3.12444 6.96032 3.12411 6.96032 3.12344C6.72883 3.02319 6.55241 2.80861 6.29943 2.76872C6.17537 2.74893 6.05342 2.76268 5.93238 2.78581C5.70784 2.55213 5.34563 2.52028 5.05271 2.51458C4.7023 2.50821 4.37216 2.60611 4.04716 2.73653C4.12887 2.55146 4.25898 2.43478 4.47292 2.39723C4.71834 2.35431 4.9816 2.35733 5.22943 2.34526C5.57833 2.3285 5.93298 2.3409 6.27795 2.40595C6.56814 2.4606 6.84775 2.58197 7.14521 2.58029C7.22509 2.57996 7.25051 2.48138 7.19362 2.42573C6.99118 2.22691 6.73125 2.15181 6.49824 2.01669C6.64198 1.97378 6.78844 1.94997 6.93944 1.98015C7.15186 2.02239 7.34946 2.14208 7.54585 2.23596C7.90746 2.4093 8.28511 2.5756 8.68212 2.60141C8.72721 2.60443 8.77351 2.55615 8.75989 2.50385C8.64642 2.05391 8.23609 1.96372 7.89324 1.80077C8.24244 1.50841 8.8537 1.99624 9.14541 2.22255C9.54 2.52899 9.84291 2.95144 10.2227 3.27901C10.2853 3.31656 10.3504 3.34908 10.416 3.37959C10.4124 3.34874 10.4097 3.31924 10.4067 3.29678C10.4042 3.28068 10.4024 3.26526 10.4003 3.2495C10.2895 2.81767 9.97605 2.25608 10.1939 1.85911C10.2992 1.66666 10.5083 1.51143 10.6748 1.39107C10.8415 1.27104 11.0775 1.10776 11.2627 1.22443C11.0037 1.37464 10.7083 1.56273 10.7601 1.92784C10.768 1.98048 10.8294 2.01703 10.8721 1.98853C11.1311 1.81854 11.4164 1.7126 11.7133 1.65761C11.8607 1.63045 12.0089 1.6157 12.1584 1.61872C12.2858 1.6214 12.3448 1.63079 12.4044 1.71695C12.0271 1.85006 11.5686 1.79608 11.2412 2.05827C10.9855 2.26245 10.9335 2.67953 10.9289 3.00173C10.928 3.04901 10.9683 3.105 11.0167 3.0879C11.2721 2.99536 11.5024 2.81063 11.7505 2.69227C12.0688 2.54106 12.396 2.42975 12.734 2.34761C12.9939 2.28491 13.6263 2.04485 13.7822 2.39723C13.4775 2.49144 13.1939 2.64299 12.9113 2.80023C12.8841 2.81565 12.8735 2.84684 12.8762 2.87567C13.0463 2.90417 13.2311 2.86863 13.4064 2.84181C13.4711 2.83175 13.5347 2.82303 13.5955 2.81867C13.653 2.81465 13.7102 2.81398 13.7671 2.81532C14.1011 2.78313 14.4428 2.77743 14.7771 2.7885C15.0619 2.79856 15.3442 2.83812 15.6272 2.875C15.835 2.90216 15.967 2.96318 16.0526 3.14054C15.6114 3.05705 15.1621 2.99033 14.7206 3.11003C14.6531 3.12847 14.637 3.2438 14.7106 3.26828C15.1569 3.41949 15.6175 3.53851 16.0133 3.82417C16.2018 3.96029 16.3731 4.12156 16.5371 4.29154C16.6469 4.40621 16.7435 4.52959 16.8739 4.61139C16.8551 4.67174 16.8303 4.72807 16.8015 4.78306C16.5598 4.66806 16.3413 4.50813 16.1074 4.37469C15.8889 4.2503 15.6477 4.18727 15.4314 4.06121C15.425 4.05819 15.4196 4.05417 15.4135 4.05081C15.4062 4.04746 15.3987 4.04511 15.3917 4.04478C15.4105 4.09272 15.4296 4.13933 15.4492 4.18626C15.4556 4.19666 15.4613 4.20705 15.4662 4.2161C15.4864 4.256 15.5067 4.29657 15.5264 4.33714C15.6492 4.45884 15.7494 4.62179 15.8493 4.75456C16.0096 4.96846 16.1513 5.19578 16.305 5.41572C16.5619 5.78251 16.7743 6.21133 17.2119 6.32197C17.2158 6.32331 17.2197 6.32331 17.2231 6.32365C17.3163 6.47385 17.3671 6.66496 17.1235 6.6264C16.9931 6.60528 16.8733 6.54896 16.7398 6.55164C16.686 6.55298 16.6291 6.61568 16.6633 6.67737C16.7764 6.88222 16.9489 6.99554 17.1284 7.12127C17.3429 7.27248 17.5387 7.44548 17.6649 7.69493C17.7995 7.9608 17.8794 8.24579 17.811 8.54385C17.7808 8.67561 17.7566 8.92942 17.6673 9.06252C17.5357 8.57168 17.365 8.11235 17.0388 7.73315C16.9786 7.66341 16.8908 7.72242 16.8969 7.81026C16.9241 8.20857 17.0981 8.56262 17.1683 8.9502C17.2476 9.38539 17.0893 9.79745 17.0709 10.2286C17.0678 10.233 17.0642 10.2367 17.0612 10.242C16.9671 10.3963 16.8472 10.6558 16.6899 10.7899C16.81 10.3315 16.8167 9.83265 16.7925 9.36125C16.7655 8.83017 16.5734 8.37453 16.3413 7.91755C16.3316 7.89878 16.3168 7.88905 16.3013 7.88671C16.3041 7.89408 16.3065 7.90146 16.3086 7.9085C16.4039 8.12207 16.4578 8.34671 16.4938 8.57872C16.5035 8.62432 16.512 8.66991 16.5201 8.71551C16.5822 8.94417 16.6215 9.17987 16.6266 9.43166C16.6312 9.65596 16.6318 9.88529 16.6167 10.1126C16.5519 10.0321 16.4935 9.94463 16.4551 9.8474C16.4902 9.51112 16.2877 9.18188 16.0956 8.94082C16.0947 8.94048 16.0941 8.94082 16.0944 8.94182C16.2139 9.16277 16.324 9.4387 16.3343 9.70726C16.3259 9.7086 16.3177 9.71195 16.3101 9.71665C16.2729 9.72771 16.2354 9.73173 16.1942 9.73374C16.1861 9.73408 16.1779 9.73475 16.1697 9.73475C16.1721 9.72268 16.17 9.70994 16.1606 9.69888C16.1198 9.64925 16.1047 9.54632 16.0835 9.48463C16.059 9.41288 16.0314 9.34348 15.9894 9.28146C15.9891 9.28112 15.9885 9.28146 15.9891 9.28179C16.036 9.37701 16.049 9.47726 16.0614 9.58253C16.0671 9.63014 16.0638 9.7029 16.0904 9.74749C16.0798 9.75185 16.0696 9.75654 16.0593 9.75788C16.059 9.75788 16.059 9.75822 16.0593 9.75889C16.0814 9.76459 16.1059 9.78672 16.1289 9.79476C16.1634 9.8065 16.1985 9.81555 16.2339 9.82159C16.2466 9.82427 16.2596 9.82594 16.2723 9.82662C16.2426 10.2812 16.0587 10.7188 15.9984 11.1717C15.9821 11.2951 16.0012 11.5704 15.9204 11.6726C15.8626 11.7467 15.7355 11.7333 15.6356 11.7216C15.6347 11.6978 15.6341 11.6743 15.6332 11.6505C15.6816 11.4078 15.6045 11.1681 15.5857 10.9253C15.5709 10.7315 15.5899 10.5283 15.6244 10.3292C15.6774 10.1941 15.6992 10.0174 15.7312 9.85578C15.7446 9.79041 15.6574 9.75252 15.6405 9.81991C15.5969 9.99157 15.5569 10.1659 15.5273 10.3426C15.4895 10.4174 15.438 10.4643 15.3633 10.4475C15.2117 10.413 15.3615 10.0751 15.3905 9.95972C15.4314 9.80013 15.4598 9.64389 15.4589 9.47659C15.4586 9.43132 15.4084 9.39277 15.3742 9.42965C15.2419 9.57248 15.1512 9.74179 15.0486 9.9101C14.9853 10.0137 14.9172 10.1371 14.7992 10.1599C14.7436 10.1706 14.6803 10.1599 14.6204 10.1525C14.6806 9.8464 14.7998 9.55907 14.8667 9.25463C14.8492 9.2885 14.8313 9.32236 14.8131 9.35622C14.7747 9.47022 14.726 9.58119 14.7081 9.63316C14.6437 9.81823 14.5798 10.0046 14.5072 10.186C14.4927 10.2219 14.5211 10.2608 14.5529 10.2638C14.6997 10.2786 14.8467 10.3228 14.972 10.2142C15.136 10.0717 15.2247 9.83936 15.346 9.6459C15.313 9.92653 15.2074 10.1921 15.1624 10.472C15.1587 10.4938 15.1763 10.5223 15.1956 10.528C15.3348 10.5699 15.4323 10.5548 15.5025 10.5032C15.4919 10.587 15.4837 10.6712 15.4801 10.7553C15.4749 10.8613 15.4837 10.9655 15.4955 11.0691C15.2973 11.0648 15.0973 11.0812 14.8976 11.108C14.9726 10.9357 14.9212 10.8492 14.7157 10.7805C14.5868 10.7376 14.4503 10.7278 14.3166 10.7195C14.2394 10.7148 13.8454 10.7396 13.8454 10.6135C13.8454 10.6105 13.8412 10.6102 13.8412 10.6132C13.8415 10.635 13.8424 10.6571 13.843 10.6786C13.843 10.6796 13.843 10.6799 13.8439 10.6799C13.997 10.7362 14.1541 10.7523 14.3133 10.7741C14.4682 10.7952 14.9387 10.8351 14.7784 11.1141C14.7765 11.1181 14.7744 11.1218 14.7732 11.1258C14.5653 11.158 14.3583 11.1986 14.1559 11.2375C13.8657 11.2924 13.5716 11.3816 13.3479 11.5935C13.3044 11.5841 13.2614 11.5727 13.2184 11.5583C13.0157 11.4896 12.6495 11.3977 12.4913 11.1959C12.6629 11.2287 12.822 11.3082 13.0021 11.2934C13.0272 11.2914 13.0447 11.2613 13.0475 11.2361C13.0635 11.0866 13.1422 10.9203 13.0027 10.8247C12.8874 10.7456 12.6783 10.7369 12.5548 10.7071C12.3442 10.6554 12.1397 10.584 11.9303 10.5294C11.9284 10.529 11.9263 10.5324 11.9284 10.5337C12.0643 10.6309 12.2177 10.6913 12.3715 10.7456C12.5218 10.7989 12.7579 10.8133 12.8925 10.9018C12.9639 10.9488 12.9649 10.9719 12.9624 11.0547C12.9597 11.1506 12.9473 11.1614 12.8626 11.1704C12.7152 11.1865 12.5524 11.0718 12.3978 11.0738C12.3618 11.0748 12.3324 11.1131 12.35 11.1523C12.4686 11.4152 12.8226 11.5359 13.0532 11.6237C13.1918 11.6767 13.3325 11.728 13.4793 11.7431C13.5589 11.7511 13.6378 11.7508 13.7162 11.7481C13.7522 11.7531 13.7885 11.7588 13.8242 11.7645C14.1886 11.7581 14.5538 11.8436 14.9206 11.8879C14.893 11.9596 14.8558 12.0257 14.8204 12.0941C14.493 12.0351 14.1722 12.1883 13.8524 12.2503C13.5946 12.3003 13.3346 12.2688 13.0747 12.2577C13.0971 12.1377 13.1225 12.0183 13.1488 11.8993C13.1567 11.8627 13.1437 11.8353 13.1137 11.8185C12.9225 11.7119 12.7098 11.7488 12.5088 11.677C12.3112 11.6063 12.1348 11.4574 11.9641 11.3297C11.9638 11.3293 11.9632 11.33 11.9638 11.3307C12.1518 11.4973 12.3158 11.6931 12.5494 11.7819C12.671 11.8286 12.8284 11.8138 12.9419 11.8741C13.0653 11.9395 12.9942 12.1199 12.9624 12.2557C12.8217 12.254 12.6816 12.2627 12.5421 12.2976C12.5206 12.3033 12.5049 12.3154 12.494 12.3305C12.4943 12.3315 12.4949 12.3318 12.4952 12.3321C12.5742 12.4656 12.6777 12.5749 12.7633 12.7019C12.8184 12.7546 12.8729 12.8079 12.9246 12.8642C12.8326 12.9132 12.7424 12.9692 12.6444 12.9943C12.579 13.0111 12.5267 12.9993 12.4819 12.9725C12.474 12.9695 12.4668 12.9645 12.4595 12.9574C12.4323 12.9366 12.4078 12.9102 12.3848 12.8806C12.2873 12.7821 12.185 12.6895 12.081 12.5987C12.0265 12.5517 11.9717 12.5048 11.9169 12.4582H11.9154C11.8719 12.42 11.7977 12.422 11.7753 12.4974C11.6715 12.8471 11.5003 13.1257 11.1716 13.1566C11.2306 12.9387 11.3444 12.7452 11.3335 12.5071C11.3632 12.3613 11.3729 12.2104 11.342 12.0642C11.2945 11.8393 11.1583 11.7182 11.0043 11.5778C11.0043 11.5774 11.0034 11.5778 11.004 11.5781C11.2067 11.8212 11.25 12.1122 11.2104 12.4086C11.2037 12.4126 11.1967 12.418 11.1907 12.4253C10.9035 12.7542 10.6067 13.0547 10.2675 13.3061C10.3537 13.0852 10.4523 12.8719 10.4808 12.6289C10.4835 12.604 10.449 12.5896 10.4378 12.6121C10.3652 12.7532 10.2774 12.8806 10.1712 12.9936C10.0538 13.1184 9.96364 13.1807 9.82172 13.1462C9.99391 12.8585 10.1652 12.5521 10.2103 12.2061C10.2121 12.192 10.1921 12.1876 10.1882 12.201C10.0941 12.5454 9.947 12.8843 9.70795 13.1361C9.68041 13.1653 9.68737 13.2166 9.72429 13.2317C9.8765 13.294 9.97787 13.3061 10.1104 13.1925C10.2166 13.1016 10.3065 12.9806 10.3788 12.8501C10.3225 13.0288 10.2429 13.1971 10.1767 13.3732C10.1219 13.4114 10.0662 13.4486 10.0093 13.4841C9.68343 13.6873 9.23014 13.8161 8.85884 13.6595C8.97837 13.5324 9.13482 13.4506 9.23952 13.3058C9.34119 13.1646 9.35057 13.006 9.34059 12.8397C9.45376 12.4974 9.61323 12.1796 9.72338 11.8343C9.73336 11.8034 9.6916 11.7873 9.68041 11.8172C9.58418 12.071 9.44377 12.2889 9.33242 12.5269C9.32697 12.5118 9.31456 12.4994 9.29399 12.4951C9.01317 12.4401 9.28158 12.1484 9.33907 12.0488C9.41866 11.9107 9.47918 11.7571 9.54847 11.612C9.57056 11.5654 9.52396 11.5094 9.48311 11.5473C9.38295 11.6401 9.28642 11.7374 9.18233 11.8249C9.11394 11.8829 8.91634 12.0907 8.82677 12.0418C8.62191 11.9301 9.02255 11.6626 9.09729 11.6026C9.24103 11.4872 9.65378 11.2039 9.58418 10.9511C9.58388 10.9491 9.58055 10.9485 9.57994 10.9508C9.50339 11.2703 9.13936 11.4628 8.91089 11.6327C8.83282 11.6908 8.70845 11.7612 8.67093 11.8614C8.62584 11.9814 8.72812 12.0954 8.78773 12.1833C8.80195 12.2044 8.83252 12.2091 8.8534 12.198C9.03435 12.0995 9.20684 11.9707 9.35965 11.8205C9.32818 11.8882 9.2952 11.9543 9.25798 12.0173C9.20684 12.1035 9.13058 12.1873 9.0979 12.2859C9.04343 12.4502 9.12816 12.5601 9.27492 12.597C9.28461 12.599 9.29308 12.5987 9.30095 12.5967C9.29187 12.6175 9.28339 12.6379 9.27522 12.6587C9.26161 12.6537 9.24739 12.6517 9.23437 12.656C8.69362 12.8337 8.16649 13.0878 7.60456 13.1817C7.41997 13.2126 7.23054 13.2119 7.07228 13.3353C6.92037 13.454 6.80024 13.635 6.70008 13.81C6.61686 13.7742 6.56633 13.7245 6.60022 13.6052C6.6211 13.5314 6.67466 13.4613 6.71006 13.396C6.72973 13.3591 6.74849 13.3215 6.76574 13.284C6.94882 12.9675 7.08771 12.6533 7.43177 12.5216C7.46324 12.5095 7.45053 12.4538 7.41967 12.4528C7.20089 12.4434 6.99663 12.4897 6.81053 12.6094C6.69978 12.2047 7.30195 12.2275 7.50046 11.9918C7.50137 11.9905 7.50016 11.9888 7.49895 11.9902C7.25021 12.2725 6.49552 12.0793 6.74063 12.7147C6.75001 12.7395 6.78481 12.7553 6.80659 12.7395C6.92854 12.651 7.06078 12.5883 7.19967 12.5544C7.04868 12.652 6.93671 12.7881 6.83685 12.947C6.82324 12.9259 6.80236 12.9105 6.78057 12.9118C6.645 12.9199 6.53546 12.9859 6.41745 13.0577C6.24133 13.165 6.05463 13.2411 5.86853 13.3256C5.69029 13.4064 5.51811 13.4972 5.34745 13.5968C5.18374 13.6924 5.12201 13.692 5.02336 13.5435C5.08479 13.4811 5.15106 13.4261 5.21309 13.3661C5.27875 13.3209 5.34593 13.2769 5.4004 13.2206C5.51993 13.0966 5.62856 12.9695 5.76473 12.8672C6.02043 12.6745 6.29187 12.5266 6.50883 12.2768C6.54333 12.2369 6.51942 12.1611 6.46375 12.1742C6.20502 12.2359 5.94236 12.2725 5.67698 12.2668C5.55382 12.2647 5.43066 12.2544 5.30871 12.2332C5.22973 12.2198 5.11717 12.2373 5.08872 12.139C5.05725 12.0287 5.12564 11.9751 5.22671 11.9798C5.42219 11.9888 5.60829 12.0217 5.80589 12.0026C6.0867 11.9757 6.31517 11.8601 6.58418 11.789C6.63532 11.7752 6.64137 11.6968 6.59144 11.6757C6.43137 11.6076 6.24678 11.614 6.07853 11.5925C5.90181 11.5701 5.57167 11.5382 5.66518 11.2864C6.2029 11.565 6.7951 11.4269 7.36913 11.4074C7.39092 11.4071 7.39334 11.3739 7.37155 11.3706C6.80357 11.279 6.20139 11.4628 5.67093 11.1506C5.64521 11.1355 5.60829 11.1352 5.59134 11.1674C5.31658 11.6857 5.96112 11.6971 6.34997 11.7447C6.22983 11.79 6.11061 11.8376 5.98321 11.8617C5.7605 11.904 5.54293 11.9037 5.31961 11.8768C5.04968 11.845 4.95527 11.9285 4.97524 12.2322C4.97646 12.2503 4.9928 12.2688 5.00762 12.2735C5.42552 12.4146 5.87095 12.4193 6.29913 12.3328C6.07732 12.534 5.81376 12.6584 5.57924 12.8471C5.51085 12.9021 5.45094 12.9685 5.39072 13.0342C5.38103 13.0057 5.36167 12.9816 5.33564 12.9725C5.0403 12.8696 4.75707 12.7328 4.48684 12.5692C4.55644 12.5192 4.61636 12.4361 4.6905 12.4039C4.72197 12.3901 4.72832 12.3402 4.70684 12.3144C4.46718 12.0197 4.00177 11.7249 4.00994 11.2686C4.00994 11.2683 4.00904 11.2683 4.00904 11.2686C3.99391 11.7293 4.33978 12.027 4.58822 12.3382C4.52134 12.3968 4.44902 12.4931 4.38547 12.5061C4.04232 12.2882 3.72066 12.0284 3.42289 11.7404C3.37236 11.5265 3.307 11.3112 3.22499 11.107C3.19625 11.0611 3.16508 11.0179 3.13179 10.9796C3.21017 10.9615 3.29005 10.926 3.36298 10.8811C3.39324 10.863 3.40292 10.8267 3.39052 10.7915C3.21652 10.3077 3.08822 9.80248 3.03829 9.28414C3.13512 9.45245 3.16296 9.66434 3.27674 9.82527C3.39052 9.98654 3.44831 9.95469 3.61323 9.92284C3.63926 9.91815 3.66165 9.88462 3.65408 9.85478C3.54908 9.44842 3.33938 9.09404 3.21349 8.69808C3.12634 8.42248 3.13179 8.09626 2.97081 7.85486C2.92996 7.79451 2.85067 7.87128 2.89092 7.93163C3.04283 8.15895 3.03435 8.48987 3.11969 8.75004C3.24012 9.11717 3.42925 9.44909 3.53607 9.82259C3.47282 9.83802 3.43439 9.84371 3.37236 9.7713C3.30246 9.68949 3.26857 9.56812 3.23135 9.46519C3.17385 9.30761 3.11878 9.17249 3.00107 9.06017C2.97232 9.03235 2.91573 9.06152 2.91785 9.10443C2.94751 9.68379 3.07641 10.2474 3.261 10.7889C3.18202 10.8311 3.08277 10.871 2.99562 10.8616C2.99411 10.8606 2.9929 10.8599 2.99108 10.8589C2.99199 10.8599 2.99199 10.8606 2.99259 10.8616C2.93752 10.8546 2.88759 10.8284 2.85158 10.7694C2.78864 10.6675 2.78077 10.5069 2.76625 10.3872C2.72661 10.07 2.68424 9.74179 2.7021 9.42227C2.70512 9.36762 2.62523 9.34449 2.61343 9.40216C2.61253 9.40651 2.61222 9.41087 2.61162 9.41523H2.61132V9.41724C2.57016 9.63819 2.58892 9.86618 2.54656 10.0865C2.46032 10.0667 2.41099 10.0556 2.39102 9.92887C2.36681 9.77599 2.3774 9.59393 2.38739 9.43971C2.40615 9.15975 2.49693 8.89522 2.52053 8.61627C2.52295 8.59012 2.48664 8.58743 2.48362 8.61359C2.45336 8.86404 2.35743 9.09571 2.3193 9.34415C2.28057 9.59628 2.29086 9.85377 2.29449 10.1082C2.2954 10.1428 2.31386 10.1693 2.34563 10.174C2.42219 10.181 2.49723 10.1971 2.57016 10.2239C2.59528 10.2316 2.62675 10.2229 2.64006 10.1968C2.65701 10.3909 2.68666 10.5813 2.74113 10.7567C2.79711 10.9374 2.91543 10.9981 3.04918 10.9914C3.15025 11.2385 3.21924 11.505 3.27129 11.7675C3.32425 12.0361 3.41503 12.4408 3.26615 12.6926C3.21289 12.6748 3.16114 12.6671 3.1097 12.6771C3.05856 12.3087 2.94297 11.9613 2.81315 11.617C2.66972 11.2348 2.4355 10.9109 2.28057 10.5364C2.22126 10.6423 2.16165 10.7483 2.12987 10.8703C2.12322 10.8965 2.11807 10.923 2.11323 10.9491C2.1214 11.2764 2.18253 11.6267 2.39526 11.8135C2.47908 11.8876 2.50934 11.906 2.52507 12.0394C2.53718 12.1407 2.53173 12.2443 2.53778 12.3459C2.54958 12.5283 2.6101 12.708 2.62402 12.89C2.42158 12.7328 2.24335 12.54 2.06754 12.3469C1.84361 12.1001 1.77462 11.8088 1.71864 11.4695C1.59941 10.7423 1.67385 9.99828 1.70653 9.26637C1.71016 9.18322 1.60516 9.13427 1.56249 9.21071C1.39848 9.50375 1.27896 9.81756 1.18061 10.1438C1.13522 10.2953 1.08892 10.4469 1.05836 10.6031C1.02689 10.7637 1.03506 10.9243 1.02265 11.0839C0.871956 11.0008 0.747284 10.8985 0.745771 10.6839C0.744258 10.4301 0.813252 10.1575 0.871654 9.91479C1.00026 9.38137 1.20512 8.85901 1.55221 8.45567C1.59972 8.40069 1.56824 8.27395 1.48533 8.30413C1.02417 8.47076 0.704315 8.89153 0.277948 9.12187C0.245267 9.00821 0.216822 8.89321 0.183536 8.78022C0.467074 8.68768 0.724589 8.45835 0.955172 8.2659L0.956685 8.26389Z" fill="black"/>
<path d="M11.2023 3.53039C11.3747 3.41539 11.5406 3.29033 11.7118 3.17265C11.7926 3.11666 11.8762 3.06301 11.9645 3.02245C12.111 2.95539 12.2081 2.95003 12.308 3.06737C12.1654 3.18707 11.993 3.24943 11.8683 3.39762C11.8411 3.42981 11.8586 3.50055 11.9067 3.48446C12.0719 3.42981 12.2266 3.34532 12.3927 3.29402C12.5806 3.23602 12.777 3.1988 12.9713 3.176C13.1138 3.15957 13.2712 3.1304 13.4146 3.13175C13.5765 3.13309 13.6161 3.23132 13.6803 3.36175C13.4037 3.43282 13.1162 3.43919 12.8663 3.60549C12.8324 3.62795 12.8372 3.69132 12.8817 3.69367C13.0327 3.70239 13.1879 3.73558 13.3156 3.83046C13.4191 3.90758 13.4672 3.98067 13.4809 4.11578C13.4915 4.21636 13.4654 4.28074 13.4288 4.35416C13.2554 4.05208 12.8006 4.08024 12.5201 4.01889C12.4814 4.01017 12.4677 4.07354 12.4959 4.09567C12.5915 4.1701 12.6372 4.27638 12.6968 4.38266C12.7225 4.42826 12.7909 4.39171 12.7652 4.34511C12.7222 4.268 12.6847 4.19256 12.6357 4.12685C12.9071 4.16909 13.2966 4.18787 13.3819 4.47285C13.3925 4.50906 13.4439 4.53521 13.4651 4.49196C13.5704 4.27169 13.6594 4.10371 13.4978 3.88142C13.3837 3.72418 13.2106 3.64908 13.0342 3.61723C13.2618 3.51597 13.5129 3.50759 13.7514 3.43785C13.7756 3.43048 13.795 3.39896 13.7804 3.37147C13.7314 3.27893 13.6927 3.13812 13.6055 3.07844C13.499 3.00535 13.3414 3.04357 13.2252 3.05765C13.0088 3.08347 12.794 3.10191 12.5803 3.15119C12.446 3.1817 12.3192 3.23032 12.1921 3.27893C12.2701 3.23199 12.3476 3.18438 12.4151 3.11833C12.4369 3.09721 12.4372 3.06234 12.4202 3.03787C12.0659 2.5249 11.5037 3.27256 11.1862 3.49485C11.1669 3.50826 11.182 3.54347 11.2017 3.53005L11.2023 3.53039Z" fill="black"/>
<path d="M13.1911 7.63125C13.1902 7.61046 13.1814 7.58833 13.1614 7.58129C12.5692 7.38717 11.9308 7.72278 11.4357 8.06342C11.3964 8.09058 11.4263 8.16199 11.4684 8.13617C11.7873 7.94104 12.1144 7.7553 12.473 7.66645C12.6013 7.63494 12.9536 7.54542 13.071 7.65438C13.1312 7.71004 13.1282 7.88773 13.1448 8.00978C12.8507 8.00978 12.5702 8.02755 12.2812 8.10097C12.1051 8.1459 11.8497 8.20088 11.7534 8.39266C11.7347 8.42954 11.7586 8.47816 11.7997 8.46977C12.1153 8.40406 12.4358 8.47011 12.7299 8.60288C12.696 8.73062 12.6509 8.853 12.6001 8.97403C12.2191 8.71419 11.8164 8.72023 11.3764 8.6991C11.3316 8.69743 11.3131 8.77387 11.3597 8.78829C11.6291 8.87076 11.8478 9.02164 12.0388 9.24124C11.9804 9.31299 11.9262 9.38474 11.8823 9.46689C11.4735 9.12021 11.0284 8.81444 10.4934 8.84193C10.4731 8.84327 10.4698 8.8768 10.491 8.87781C11.0366 8.90262 11.4644 9.25399 11.8675 9.62782C11.9005 9.65833 11.9468 9.63117 11.961 9.59429C12.0079 9.47192 12.0893 9.37871 12.1619 9.27544C12.1765 9.25466 12.1743 9.21811 12.158 9.19934C12.0049 9.02667 11.8373 8.89423 11.6463 8.80069C11.9813 8.81645 12.2993 8.86272 12.5944 9.08434C12.6201 9.10311 12.6479 9.08836 12.66 9.06053C12.7272 8.90764 12.7874 8.75576 12.8274 8.59181C12.834 8.56432 12.8237 8.53918 12.7998 8.52811C12.5184 8.39367 12.2113 8.3189 11.9062 8.35276C12.0361 8.24212 12.2533 8.20759 12.3946 8.1754C12.6615 8.11472 12.9242 8.10667 13.1962 8.10835C13.2319 8.10868 13.251 8.07348 13.2389 8.0376C13.195 7.90383 13.1938 7.7724 13.1911 7.63158V7.63125Z" fill="black"/>
<path d="M8.13734 3.70577C8.18636 3.73896 8.2369 3.65615 8.18757 3.6243C8.07107 3.54819 7.76756 3.52774 7.71097 3.3668C8.15459 3.36714 8.58095 3.4228 9.00883 3.56495C9.0627 3.58306 9.10204 3.50393 9.05422 3.46638C8.91684 3.35976 8.76403 3.29003 8.6097 3.22129C8.70381 3.13278 8.77401 3.07277 8.92471 3.11702C9.04151 3.15156 9.15741 3.20487 9.2721 3.24879C9.41735 3.30511 9.55957 3.37787 9.68303 3.48046C9.80105 3.57769 9.87216 3.72253 9.99381 3.81272C10.0071 3.82312 10.0195 3.80166 10.0077 3.79026C9.8652 3.65682 9.7959 3.47476 9.63976 3.35105C9.49572 3.23705 9.33867 3.171 9.17345 3.10395C9.0512 3.05399 8.90353 2.96347 8.76857 2.98526C8.65116 3.0037 8.56734 3.11769 8.48019 3.19615C8.44962 3.22331 8.46264 3.27527 8.49623 3.29036C8.53193 3.30612 8.56764 3.32221 8.60335 3.33797C8.28894 3.26957 7.9694 3.24074 7.64712 3.26857C7.6214 3.27058 7.61021 3.30243 7.61263 3.32624C7.63774 3.62363 7.95759 3.58406 8.13673 3.7051L8.13734 3.70577Z" fill="black"/>
<path d="M8.69744 8.99948C8.70591 8.98238 8.7038 8.95992 8.69351 8.94349C8.69321 8.93913 8.6926 8.93544 8.6926 8.93142C8.69139 8.91365 8.669 8.91164 8.66022 8.9227C8.65629 8.9227 8.65235 8.92237 8.64812 8.92304C8.20299 9.04944 7.69704 8.93042 7.25615 8.82581C7.2395 8.82179 7.22982 8.84861 7.24707 8.85464C7.67949 9.00652 8.20359 9.21238 8.65235 9.02865C8.64297 9.11985 8.61816 9.21339 8.59365 9.29687C8.59062 9.30727 8.59062 9.31665 8.59214 9.32537C7.9597 9.34213 7.33845 9.32839 6.76956 8.98004C6.73658 8.95992 6.68907 8.99412 6.71025 9.03737C6.88667 9.3998 7.19169 9.6288 7.49611 9.8474C7.41078 9.91982 7.31515 9.97581 7.22558 10.0425C6.94144 9.75184 6.47422 9.60533 6.23849 9.26033C6.204 9.17986 6.16738 9.10074 6.12653 9.02262C6.1117 8.99479 6.06631 9.00652 6.07479 9.04206C6.09385 9.11951 6.12169 9.18891 6.15679 9.25228C6.23214 9.4397 6.31142 9.62645 6.37951 9.81487C6.41521 9.91345 6.43428 10.0331 6.31929 10.0797C6.22639 10.1176 6.14257 9.99894 6.06843 9.92451C5.69472 9.55001 5.43115 9.06821 5.4133 8.50026C5.413 8.48148 5.38727 8.4788 5.38697 8.49824C5.3667 9.2325 5.76492 9.80951 6.25847 10.2514C6.27602 10.2668 6.31172 10.2662 6.32776 10.2467C6.42066 10.1361 6.55865 10.0707 6.52052 9.90104C6.49026 9.76794 6.39373 9.63114 6.34168 9.50709C6.33745 9.49703 6.33351 9.48731 6.32928 9.47725C6.58467 9.73005 6.95385 9.87925 7.18443 10.1471C7.2038 10.1696 7.23073 10.1699 7.25282 10.1522C7.36902 10.0616 7.4955 9.9919 7.59536 9.87891C7.61352 9.8588 7.61624 9.82225 7.59173 9.80515C7.3206 9.61807 7.0416 9.42025 6.85671 9.12923C7.41199 9.41891 8.00781 9.43367 8.62028 9.42025C8.64993 9.41925 8.66506 9.39142 8.66416 9.3656C8.67505 9.36057 8.68352 9.35052 8.68655 9.33375C8.70743 9.22881 8.7047 9.1289 8.69865 9.02563C8.69835 9.01692 8.69774 9.00853 8.69714 8.99982L8.69744 8.99948Z" fill="black"/>
<path d="M4.95295 10.344C4.83524 10.2525 4.75898 10.0949 4.67486 9.96949C4.66487 9.9544 4.64097 9.97117 4.65005 9.98759C4.72025 10.12 4.78016 10.2739 4.87912 10.3846C4.91059 10.4204 4.94871 10.4463 4.98593 10.4737C5.01862 10.4979 5.18384 10.6481 5.08549 10.6967C5.05977 10.6803 5.02376 10.6863 5.01014 10.7115C4.71601 10.5646 4.50631 10.342 4.39677 9.9943C4.38739 9.96446 4.34109 9.97552 4.342 10.006C4.3423 10.0091 4.3423 10.0117 4.3429 10.0148C4.35077 10.222 4.3771 10.4335 4.42551 10.6337C4.46969 10.8144 4.54867 10.981 4.57561 11.1661C4.47121 11.1755 4.40131 11.1768 4.31809 11.0725C4.25757 10.9958 4.20825 10.9069 4.16467 10.8177C4.08206 10.6504 4.02396 10.4691 3.98402 10.2836C3.90564 9.91786 3.89596 9.53933 3.8893 9.16483C3.889 9.14504 3.86146 9.14236 3.86146 9.16281C3.85571 9.64595 3.8545 10.1435 3.99915 10.6058C4.063 10.8087 4.16044 11.0605 4.31022 11.2067C4.40917 11.3036 4.51387 11.2797 4.63734 11.2626C4.66336 11.2586 4.67667 11.2281 4.67335 11.2023C4.65156 11.0186 4.58257 10.8576 4.52931 10.6833C4.48664 10.5428 4.45547 10.397 4.43187 10.2498C4.56048 10.5123 4.76443 10.694 5.02679 10.8234C5.03738 10.8285 5.04645 10.8278 5.05462 10.8248C5.05826 10.8258 5.06128 10.8275 5.06522 10.8268C5.21954 10.8174 5.26372 10.6283 5.1793 10.51C5.12029 10.4268 5.02921 10.4027 4.95356 10.3443L4.95295 10.344Z" fill="black"/>
<path d="M2.56631 5.84551C2.66708 5.72917 2.76724 5.53672 2.91582 5.49682C3.08013 5.45257 3.28136 5.58902 3.42389 5.66211C3.82604 5.86864 4.09748 6.15329 4.38707 6.51874C4.41703 6.55663 4.48572 6.53819 4.48511 6.48253C4.4833 6.28975 4.42883 6.11373 4.3553 5.94006C4.33381 5.88943 4.24606 5.76605 4.24121 5.70771C4.2279 5.55751 4.42338 5.7 4.47361 5.76974C4.72689 6.12144 4.83189 6.64146 4.85852 7.09307C4.85762 7.09877 4.85671 7.1038 4.8558 7.10917C4.85459 7.1209 4.85701 7.12995 4.86125 7.13767C4.86276 7.16952 4.86397 7.20036 4.86488 7.23121C4.86518 7.24495 4.86911 7.25669 4.87486 7.26574C4.79921 7.31536 4.72538 7.37135 4.65306 7.43505C4.64186 7.44511 4.65457 7.46657 4.66758 7.45886C4.7744 7.39382 4.88606 7.33816 5.00014 7.29055C5.19835 7.2074 5.40472 7.14772 5.6114 7.10145C5.75392 7.06927 5.89766 7.04882 6.0414 7.02468C6.23052 6.99316 6.30799 7.02635 6.38757 7.18226C6.15336 7.25233 5.91551 7.29927 5.68826 7.39784C5.64983 7.41427 5.6701 7.46892 5.70188 7.47562C5.84016 7.50479 5.98662 7.48803 6.12885 7.47998C6.15306 7.47864 6.17696 7.4773 6.20087 7.47696C6.3912 7.47194 6.58124 7.47126 6.77127 7.46489C6.82514 7.46288 6.87809 7.45852 6.93105 7.45249C7.00307 7.44511 7.07478 7.43539 7.14771 7.42701C7.31475 7.40756 7.41733 7.43606 7.52021 7.53731C7.40341 7.54234 7.286 7.5467 7.1704 7.56615C7.0067 7.59331 6.84844 7.69087 6.6814 7.67578C6.67232 7.67478 6.66506 7.67679 6.65901 7.67914C6.40573 7.66204 6.14973 7.66606 5.88858 7.68986C5.86165 7.69188 5.86619 7.73848 5.89161 7.74049C6.23415 7.77067 6.58154 7.77268 6.92197 7.83202C7.26542 7.89237 7.58679 8.03352 7.92358 8.11533C8.16718 8.174 8.42863 8.058 8.6583 7.97921C8.99903 7.86253 9.35761 7.76262 9.71469 7.74317C9.76643 7.74016 9.7979 7.66941 9.74979 7.6322C9.67565 7.57453 9.59818 7.52357 9.5186 7.47898C9.16304 7.27915 8.76058 7.2017 8.36236 7.17756C8.3675 7.12124 8.37234 7.06424 8.37749 7.00791C8.51275 7.0059 8.64408 7.02669 8.77268 7.06256C9.0423 7.138 9.29952 7.27781 9.55189 7.40689C9.59304 7.42801 9.63419 7.37035 9.61483 7.32911C9.55158 7.19567 9.51043 7.05318 9.45233 6.91705C9.40664 6.80943 9.34369 6.71354 9.29346 6.60893C9.53615 6.52377 9.76431 6.68739 9.961 6.85201C10.1293 6.99316 10.2225 7.17052 10.3538 7.34487C10.3834 7.38409 10.4527 7.36364 10.4524 7.30866C10.4509 7.15376 10.4606 6.99886 10.483 6.84564C10.5018 6.71689 10.5036 6.70046 10.6131 6.66224C10.6588 6.64648 10.7075 6.63777 10.7556 6.63039C10.7995 6.87179 10.7381 7.11285 10.7348 7.35761C10.7339 7.41259 10.8068 7.45316 10.8349 7.3965C11.0265 7.0173 11.5439 6.80373 11.8925 6.65084C12.0913 6.56334 12.2947 6.49293 12.4998 6.42587C12.6421 6.37893 12.7286 6.38296 12.8418 6.50366C12.8642 6.52746 12.8857 6.5516 12.9077 6.57541C12.3567 6.73131 11.7784 6.90096 11.4032 7.40622C11.3717 7.44847 11.4153 7.50479 11.4571 7.49742C11.724 7.45081 11.9715 7.33246 12.2335 7.26574C12.4693 7.2064 12.7141 7.17522 12.9546 7.15208C13.4763 7.10112 14.0062 7.11554 14.52 7.23255C14.5669 7.24328 14.5869 7.18092 14.5748 7.14303C14.5705 7.12962 14.5663 7.11621 14.5621 7.10313C14.5621 7.09441 14.5612 7.08603 14.5603 7.07698C14.5206 6.81111 13.8806 6.39905 13.6328 6.27533C13.6945 6.18682 13.7568 6.11306 13.8815 6.15564C13.995 6.19453 14.0967 6.29109 14.1811 6.38028C14.3148 6.52109 14.4286 6.68337 14.5654 6.82049C14.5932 6.84832 14.6377 6.8453 14.6526 6.80205C14.7119 6.6257 14.6913 6.41514 14.6855 6.2294C14.6813 6.08993 14.6595 5.95079 14.6659 5.81098C14.6731 5.65206 14.7067 5.63529 14.842 5.59573C14.96 5.5612 15.0471 5.50118 15.1116 5.63663C15.1718 5.76236 15.19 5.92497 15.1991 6.06478C15.2187 6.36955 15.1594 6.66928 15.0759 6.95762C15.0586 7.01697 15.1385 7.06927 15.1679 7.00959C15.3183 6.70449 15.656 6.56434 15.9507 6.45303C15.8061 6.73299 15.5949 6.96399 15.4091 7.21075C15.3679 7.22752 15.3343 7.25334 15.3246 7.29424C15.3234 7.29692 15.3228 7.29994 15.3222 7.30296C15.3222 7.30396 15.3222 7.3043 15.3219 7.30463H15.3222C15.3219 7.31972 15.3319 7.33548 15.347 7.33648C15.3824 7.33917 15.4151 7.31838 15.4496 7.31067C15.5095 7.29759 15.5716 7.29692 15.6321 7.29759C15.7374 7.29893 15.8551 7.30631 15.9562 7.34252C16.0137 7.36331 16.0379 7.2758 15.9867 7.2473C15.8648 7.17957 15.7129 7.17019 15.5791 7.17924C15.5746 7.17957 15.5691 7.18024 15.5637 7.18058C15.7625 6.92711 15.9689 6.68135 16.1005 6.37424C16.1159 6.3377 16.0781 6.2874 16.0427 6.30014C15.7788 6.39972 15.4584 6.50634 15.2411 6.7236C15.3316 6.29277 15.3364 5.8492 15.1388 5.44418C15.1282 5.42306 15.1049 5.4073 15.0829 5.41367C14.9996 5.43681 14.8816 5.4472 14.7799 5.48039C14.7324 5.16021 14.3941 4.94026 14.1327 4.86952C14.1103 4.86315 14.0973 4.90104 14.1206 4.90774C14.3533 4.97748 14.6477 5.24537 14.6698 5.528C14.6698 5.52968 14.6701 5.53102 14.6707 5.53236C14.6268 5.56254 14.5929 5.60311 14.5775 5.65977C14.4894 5.9823 14.6401 6.34876 14.5766 6.67834C14.3923 6.48086 14.2401 6.23544 14.0095 6.10099C13.7541 5.9528 13.6567 6.05606 13.4936 6.26662C13.47 6.29713 13.489 6.35144 13.5214 6.36217C13.7063 6.42319 13.8842 6.56334 14.0428 6.68068C14.1124 6.73198 14.4153 6.93113 14.4813 7.08C14.4758 7.08436 14.4707 7.08938 14.4668 7.09542C13.9859 7.00087 13.4981 6.98444 13.0109 7.02602C12.7567 7.04781 12.5004 7.08067 12.2514 7.13934C12.0293 7.19131 11.8175 7.28317 11.5978 7.34285C11.9769 6.93616 12.5283 6.80608 13.0276 6.66459C13.0757 6.65084 13.0836 6.58882 13.0479 6.55529C12.9347 6.44934 12.8357 6.26528 12.6732 6.25622C12.5476 6.24918 12.3924 6.33166 12.2732 6.3729C12.1636 6.41112 12.0547 6.45202 11.9476 6.49695C11.7527 6.57742 11.5079 6.677 11.2843 6.80909C11.2985 6.75646 11.3127 6.70348 11.3251 6.65084C11.559 5.6544 11.402 4.87086 10.8709 4.38572C9.71862 3.33228 7.82887 4.79207 7.07297 5.80695C6.73133 6.26595 6.57519 6.82686 6.59274 7.37906C6.50468 7.38074 6.41602 7.38175 6.32826 7.38409C6.26139 7.3861 6.1933 7.39113 6.12522 7.39516C6.05653 7.39985 5.98753 7.40421 5.91945 7.40522C6.10464 7.35559 6.29558 7.33045 6.48108 7.28183C6.5183 7.27178 6.53554 7.23054 6.52102 7.19231C6.47684 7.07698 6.41783 6.93181 6.30103 6.88721C6.16244 6.8339 5.97906 6.90331 5.83986 6.92409C5.52606 6.9717 5.23738 7.0525 4.97079 7.20506C4.96897 7.15007 4.96504 7.09542 4.9602 7.04077C4.96141 7.03675 4.96262 7.03306 4.96383 7.02904C4.95324 7.01864 4.94598 7.00423 4.94446 6.98478C4.94053 6.93918 4.93871 6.89325 4.9375 6.84698C4.9375 6.84396 4.9372 6.84095 4.9372 6.83793C4.90149 6.58513 4.84006 6.3387 4.74928 6.10099C4.67454 5.90519 4.57377 5.64971 4.39645 5.54443C4.30718 5.49112 4.12653 5.46732 4.11231 5.62121C4.10565 5.69397 4.16284 5.76873 4.19189 5.82741C4.263 5.97191 4.32685 6.12748 4.3562 6.28942C4.22669 6.12412 4.09445 5.96219 3.93105 5.83445C3.73405 5.68089 3.51194 5.56622 3.28953 5.46564C3.15185 5.40328 2.98995 5.32416 2.84652 5.412C2.71126 5.49481 2.62592 5.68357 2.53181 5.81131C2.51547 5.83311 2.54785 5.86563 2.56601 5.84484L2.56631 5.84551ZM7.19613 5.92095C7.50932 5.49984 8.13329 4.87455 8.85983 4.49602C9.16486 4.33744 9.54099 4.19696 9.91592 4.19696C10.2131 4.19696 10.5096 4.28513 10.7699 4.52285C11.376 5.07672 11.3224 5.96185 11.1708 6.60726C11.1436 6.72259 11.1118 6.83726 11.0764 6.95025C10.9947 7.01261 10.92 7.08167 10.8573 7.15745C10.8761 6.9546 10.903 6.75411 10.8522 6.55093C10.844 6.5174 10.8189 6.49829 10.7868 6.50299C10.6761 6.51807 10.5689 6.54993 10.4579 6.56166C10.44 6.56367 10.4201 6.58312 10.4158 6.60223C10.3759 6.77389 10.3505 6.94823 10.3423 7.12492C10.2893 7.04278 10.2382 6.96131 10.1689 6.8899C10.0702 6.78797 9.95979 6.69979 9.84329 6.62503C9.62148 6.48354 9.43992 6.41012 9.19845 6.52847C9.17272 6.54087 9.16425 6.57742 9.17515 6.60424C9.2281 6.73165 9.30647 6.84095 9.36034 6.96768C9.39847 7.0572 9.42963 7.14906 9.46413 7.23925C9.24626 7.12761 9.02596 7.02032 8.79629 6.95561C8.6468 6.91336 8.49338 6.89023 8.33361 6.89593C8.30456 6.89694 8.28247 6.91538 8.27853 6.9489C8.26794 7.04278 8.25826 7.13666 8.24888 7.23054C8.24585 7.26205 8.27067 7.29256 8.29851 7.2939C8.73093 7.3167 9.17182 7.39817 9.54946 7.63756C9.28529 7.66774 9.02354 7.73177 8.76845 7.8109C8.44133 7.91282 8.146 8.06135 7.8092 7.93227C7.55017 7.83269 7.29145 7.76497 7.0306 7.72272C7.04876 7.71769 7.06722 7.71233 7.08537 7.70797C7.27178 7.66371 7.46605 7.66673 7.65578 7.65332C7.70873 7.6493 7.70934 7.57084 7.67636 7.54134C7.5883 7.46355 7.54654 7.36733 7.43306 7.33347C7.28902 7.29055 7.12138 7.33648 6.97825 7.35593C6.95949 7.35861 6.94043 7.36062 6.92197 7.36297C6.86538 7.36901 6.80849 7.37303 6.75191 7.37538C6.73557 6.86475 6.88021 6.34574 7.19582 5.92162L7.19613 5.92095Z" fill="black"/>
<path d="M2.74175 7.00042C2.74175 7.00042 1.64663 6.43638 2.11769 5.49247C2.58874 4.54814 3.53285 4.73829 3.32576 3.43117C3.11867 2.12406 2.86432 1.43483 3.78039 0.873779C3.78039 0.873779 3.05539 1.71599 3.78039 3.16753C4.74894 5.10662 1.68228 5.54845 2.74175 7.00084V7.00042Z" fill="#B0EA36"/>
<path d="M16.8395 1.37207C16.8395 1.37207 15.5449 2.10446 16.3164 3.00393C17.0878 3.90383 16.1377 4.86739 16.1377 4.86739C16.1377 4.86739 17.506 3.88246 16.7954 3.11973C16.1962 2.47664 16.3913 2.06259 16.8395 1.37207Z" fill="#B0EA36"/>
</svg>
