<svg width="110" height="36" viewBox="0 0 110 36" fill="none" xmlns="http://www.w3.org/2000/svg">
<rect x="0.5" y="0.5" width="109" height="35" rx="17.5" fill="url(#paint0_linear_99_47551)" stroke="white"/>
<path d="M74.7541 19.5832C75.1458 20.3449 75.679 21.0358 76.3264 21.5962C77.6629 22.755 79.4419 23.3535 81.2101 23.3281C81.5945 23.3208 81.9681 23.2338 82.3091 23.0778C82.6518 22.92 82.9601 22.6934 83.2194 22.4086C83.2938 22.3579 83.3663 22.3053 83.437 22.2491C84.1135 21.7032 84.5578 20.869 84.6212 20.0003C84.692 19.041 84.2984 18.0581 83.5857 17.4143C82.8132 16.7125 81.7451 16.4296 80.9163 15.7967C80.909 15.7912 80.9018 15.7858 80.8945 15.7804C79.821 14.9462 79.2588 13.577 79.1482 12.2223C79.1064 11.6946 79.1246 11.1687 79.1881 10.6428C79.2842 9.81037 79.4927 8.98524 79.7285 8.17824C78.4699 9.17928 77.2023 10.1876 76.1541 11.4081C75.1059 12.6303 74.2808 14.0884 74.0577 15.6824C73.8709 17.0135 74.1375 18.39 74.7541 19.5851V19.5832Z" fill="#D6633C"/>
<path d="M74.7542 19.5832C74.8068 18.5477 75.0099 17.5195 75.3581 16.542C75.6319 17.6392 75.9039 18.7381 76.1778 19.8371C77.5034 18.8615 78.1672 17.0679 77.799 15.4648C78.4066 16.464 79.0159 17.4651 79.6234 18.4643C80.1511 17.4723 80.1928 16.2337 79.7358 15.2073C80.0877 15.4557 80.483 15.6498 80.8947 15.7785C79.8211 14.9443 79.2589 13.5752 79.1483 12.2205C79.1066 11.6928 79.1247 11.1668 79.1882 10.6409C79.2843 9.80855 79.4928 8.98341 79.7286 8.17641C78.47 9.17746 77.2024 10.1858 76.1542 11.4062C75.106 12.6285 74.2809 14.0866 74.0578 15.6806C73.871 17.0117 74.1376 18.3881 74.7542 19.5832Z" fill="#F7E5D2"/>
<g style="mix-blend-mode:multiply" opacity="0.4">
<path d="M78.7383 20.6696C79.9661 21.7342 81.6018 22.2855 83.2285 22.2619C83.2992 22.2619 83.3681 22.2564 83.4389 22.2492C84.1153 21.7033 84.5596 20.8691 84.6231 20.0005C84.6938 19.0411 84.3003 18.0582 83.5876 17.4144C82.815 16.7126 81.7469 16.4297 80.9181 15.7968C79.83 14.9644 79.2606 13.5862 79.15 12.2206C79.1083 11.6929 79.1264 11.167 79.1899 10.6411C78.9795 10.8533 78.7764 11.0745 78.5806 11.3012C77.6158 12.4237 76.8577 13.7657 76.6528 15.231C76.3699 17.2367 77.2096 19.344 78.7401 20.6696H78.7383Z" fill="#D6633C"/>
</g>
<path d="M84.7935 28.5112C84.7989 28.756 84.817 29.0026 84.8515 29.2474C84.9386 29.8622 85.1797 30.5259 85.731 30.8088C86.0484 30.9703 86.422 30.9829 86.7738 30.9285C86.9551 30.8995 87.1383 30.8542 87.2925 30.7526C87.4448 30.6511 87.5627 30.4842 87.5663 30.2993C87.5717 30.0272 87.3432 29.8169 87.1673 29.6083C86.9533 29.3544 86.8083 29.048 86.7321 28.727C86.6142 28.2283 86.6668 27.6897 86.9026 27.2327C86.9461 27.1492 86.9932 27.0713 87.044 26.9915C87.0676 26.9534 87.0948 26.9153 87.122 26.8754C87.229 26.7231 87.345 26.5744 87.452 26.422C87.4774 26.3894 87.501 26.3531 87.5246 26.3187C87.5482 26.286 87.5699 26.2516 87.5899 26.2189C87.6062 26.1917 87.6225 26.1663 87.637 26.1391C87.6515 26.1156 87.6642 26.092 87.6769 26.0684C87.8782 25.6948 87.9707 25.2614 87.9417 24.837L86.1246 23.7218L85.3176 23.2249C85.3176 23.292 85.3212 23.3609 85.3212 23.4262C85.3212 23.5277 85.3212 23.6311 85.3139 23.7344C85.3103 23.8288 85.3049 23.9212 85.2994 24.0155C85.294 24.0899 85.2886 24.1642 85.2831 24.2386C85.2777 24.2948 85.2722 24.3528 85.2668 24.4091C85.2378 24.6756 85.2015 24.9459 85.1634 25.2124C85.1598 25.2342 85.1562 25.2541 85.1525 25.2759C85.1362 25.3811 85.1199 25.4845 85.1036 25.5878C85.0818 25.7202 85.0601 25.8508 85.0401 25.9814C85.0075 26.179 84.9766 26.3749 84.9458 26.5707C84.9041 26.8464 84.8678 27.122 84.8388 27.3977C84.8025 27.7695 84.7808 28.1376 84.788 28.5094L84.7935 28.5112Z" fill="#D6633C"/>
<path d="M84.7935 28.5111C84.7989 28.7559 84.8171 29.0025 84.8515 29.2474C84.9386 29.8621 85.1798 30.5259 85.7311 30.8088C86.0484 30.9702 86.422 30.9829 86.7738 30.9285C86.9552 30.8995 87.1383 30.8541 87.2925 30.7526C87.4448 30.651 87.5627 30.4842 87.5663 30.2992C87.5718 30.0272 87.3433 29.8168 87.1673 29.6083C86.9534 29.3544 86.8083 29.0479 86.7321 28.7269C86.6142 28.5782 86.5272 28.415 86.4964 28.2246C86.4329 28.5456 86.3694 28.8683 86.3059 29.1893C86.159 29.0007 86.014 28.8121 85.8671 28.6235C85.8616 28.7595 85.7927 28.8901 85.6857 28.9699C85.6259 28.8067 85.566 28.6417 85.5062 28.4785C85.45 28.6217 85.3919 28.765 85.3357 28.9082C85.2088 28.7015 85.1254 28.4676 85.0927 28.2246C85.0583 28.4295 84.9748 28.6272 84.8515 28.7958C84.8316 28.6997 84.8134 28.609 84.7953 28.5129L84.7935 28.5111Z" fill="#79403D"/>
<g style="mix-blend-mode:multiply" opacity="0.4">
<path d="M87.044 26.9933C86.3295 26.9353 85.6313 26.7902 84.9494 26.5744C85.1163 25.4627 85.3502 24.3474 85.3194 23.2267L87.9435 24.8389C87.9725 25.2632 87.88 25.6966 87.6787 26.0702C87.5028 26.3985 87.2471 26.6814 87.044 26.9915V26.9933Z" fill="#D6633C"/>
</g>
<path d="M91.3583 30.3027C91.3928 30.6872 91.4671 31.097 91.7228 31.3672C91.9677 31.6229 92.3249 31.7027 92.6622 31.7372C93.0485 31.7753 92.9723 31.7698 93.3586 31.7191C93.5381 31.6955 93.734 31.6501 93.841 31.4942C93.9371 31.3545 93.9317 31.1587 93.8754 30.9955C93.821 30.8323 93.7213 30.6872 93.6379 30.5385C93.2951 29.9328 93.4982 29.2183 93.6089 28.5074C93.6324 28.3605 93.6506 28.2136 93.6615 28.0685C93.7177 27.2216 93.9063 26.3892 94.0024 25.546V25.5423C94.0767 24.8732 94.0931 24.1949 94.0495 23.5203C94.0387 23.3172 94.0187 23.1105 93.9951 22.9092C93.9951 22.9092 93.9951 22.9092 93.9951 22.9055C93.8809 21.9244 93.6415 20.9597 93.2842 20.0475L92.5063 21.7957L91.7101 23.5783L91.4018 24.2693C91.5143 24.982 91.5179 25.7037 91.4835 26.4255C91.4417 27.296 91.3456 28.1701 91.3239 29.0424C91.313 29.4649 91.3184 29.8856 91.3565 30.3064L91.3583 30.3027Z" fill="#D6633C"/>
<path d="M91.3584 30.3028C91.3928 30.6872 91.4672 31.0971 91.7229 31.3673C91.9677 31.623 92.3249 31.7028 92.6623 31.7373C93.0485 31.7753 92.9724 31.7699 93.3586 31.7191C93.5382 31.6955 93.734 31.6502 93.841 31.4943C93.9371 31.3546 93.9317 31.1588 93.8755 30.9955C93.8211 30.8323 93.7213 30.6873 93.6379 30.5385C93.2952 29.9328 93.4983 29.2183 93.6089 28.5074C93.4638 28.7269 93.2952 28.9282 93.1029 29.1077C93.0268 28.8302 92.9488 28.5546 92.8726 28.2771C92.6749 28.7232 92.4791 29.1694 92.2814 29.6173C92.2143 29.3489 92.1454 29.0787 92.0801 28.8103C92.0058 29.0098 91.9314 29.2093 91.8571 29.4087C91.7827 29.144 91.7102 28.8792 91.6358 28.6126C91.6086 28.8157 91.5198 29.0116 91.3783 29.1639C91.362 29.124 91.3438 29.0841 91.3257 29.0424C91.3148 29.465 91.3203 29.8857 91.3584 30.3064V30.3028Z" fill="#79403D"/>
<path d="M88.5347 29.6826C88.5347 29.7153 88.5347 29.7516 88.5347 29.7842C88.5293 30.1288 88.5402 30.4715 88.5692 30.8143C88.6036 31.1987 88.678 31.6086 88.9337 31.8788C89.1676 32.1254 89.5068 32.2088 89.8314 32.2433C89.8441 32.2433 89.8604 32.2469 89.8731 32.2487C90.0653 32.2687 90.1433 32.2777 90.2213 32.2741H90.2412C90.3138 32.2687 90.3935 32.256 90.5695 32.2306C90.7508 32.207 90.9467 32.1617 91.0518 32.0057C91.1153 31.9114 91.1334 31.7954 91.1244 31.6793C91.1189 31.6195 91.1062 31.5614 91.0881 31.5052C91.0537 31.4036 91.0029 31.3075 90.9503 31.2169C90.9503 31.2169 90.9503 31.2156 90.9503 31.2132C90.9176 31.1588 90.885 31.1044 90.8542 31.05C90.6891 30.7562 90.6511 30.4352 90.6692 30.1034C90.6873 29.7479 90.7689 29.3762 90.8288 29.0098C90.8505 28.8666 90.8687 28.7233 90.8796 28.5801C90.9249 27.8946 91.0591 27.2199 91.157 26.5417C91.1806 26.3803 91.2024 26.2189 91.2205 26.0575C91.3275 25.1163 91.3166 24.1624 91.1879 23.223C91.1353 22.8313 91.0645 22.445 90.972 22.0642C90.9412 21.9318 90.9068 21.7994 90.8705 21.6707C90.7671 21.2935 90.6438 20.9217 90.5005 20.559L89.9928 21.6961L88.62 24.7808C88.7088 25.343 88.7288 25.907 88.7161 26.4746C88.6943 27.5427 88.5565 28.6163 88.5384 29.6863L88.5347 29.6826Z" fill="#D6633C"/>
<path d="M88.5347 29.7841C88.5293 30.1286 88.5402 30.4714 88.5692 30.8141C88.6036 31.1986 88.678 31.6084 88.9337 31.8786C89.1676 32.1253 89.5068 32.2087 89.8314 32.2432C89.8495 32.2432 89.8658 32.2468 89.884 32.2486C90.0435 32.2613 90.1433 32.2704 90.2195 32.274H90.2394C90.3119 32.2685 90.3917 32.2559 90.5676 32.2305C90.749 32.2069 90.9448 32.1615 91.05 32.0056C91.1135 31.9113 91.1316 31.7952 91.1226 31.6792C91.1171 31.6193 91.1044 31.5613 91.0863 31.5051C91.0518 31.4035 91.0011 31.3074 90.9485 31.2167C90.9485 31.2167 90.9485 31.2155 90.9485 31.2131C90.9158 31.1587 90.8832 31.1043 90.8524 31.0499C90.6873 30.7561 90.6492 30.4351 90.6674 30.1032C90.6855 29.7478 90.7671 29.376 90.827 29.0097C90.7435 29.1149 90.6402 29.2092 90.5187 29.2872C90.4878 29.1022 90.4588 28.9154 90.4316 28.7323C90.1378 29.1385 89.8459 29.5465 89.5521 29.9545C89.4469 29.7206 89.3454 29.4867 89.242 29.2509C89.1948 29.4069 89.0987 29.5501 88.9591 29.6644C88.9065 29.5302 88.8593 29.3978 88.8086 29.2654C88.7179 29.4395 88.6272 29.6154 88.5365 29.7895L88.5347 29.7841Z" fill="#79403D"/>
<path d="M81.97 22.6335C82.1423 21.7739 82.7081 20.9851 83.477 20.5698C83.5713 20.519 83.6656 20.4755 83.7635 20.4356C84.4363 20.1635 85.198 20.1345 85.9307 20.149C86.7703 20.1635 87.6263 20.2216 88.4333 19.9895C89.2403 19.7555 90.0037 19.1553 90.1506 18.3283L94.0641 17.9239C93.8683 17.9438 93.8592 18.9612 93.8665 19.1008C93.8864 19.4944 93.9716 19.8825 94.0406 20.2705C94.3416 21.9281 94.0152 23.7144 93.0468 25.1035C91.2369 27.7004 88.4931 26.5379 85.8291 25.4227C84.5306 24.8786 82.1876 25.1144 81.9464 23.5892C81.8957 23.2719 81.9065 22.9491 81.97 22.6353V22.6335Z" fill="#D6633C"/>
<path d="M88.7234 20.3704C89.213 20.2471 89.6356 19.8789 89.8224 19.4092C90.0092 18.9396 89.9584 18.3828 89.6882 17.9548L95.3045 17.9857C94.9872 18.3846 95.0579 18.9813 95.2991 19.431C95.5403 19.8808 95.9211 20.2362 96.2312 20.6424C96.5413 21.0486 96.7861 21.5564 96.6864 22.0569C96.5087 21.803 96.262 21.5963 95.9791 21.4657C96.6066 22.2564 96.467 23.544 95.6835 24.1805C95.6745 23.8722 95.5366 23.5694 95.31 23.359C95.562 24.0173 95.2683 24.8388 94.6553 25.187C94.6408 24.9621 94.5519 24.7427 94.4087 24.5704C94.1058 25.8507 92.9815 26.8971 91.6812 27.1075C92.2053 26.5598 92.1074 25.6839 91.9296 24.9476C91.7773 24.3147 91.5996 23.6202 91.79 23.0199C91.6757 23.2828 91.5615 23.5458 91.4472 23.8088C91.0138 23.0326 90.8633 22.1023 91.032 21.2282C90.847 21.7087 90.6602 22.1893 90.4752 22.6699C89.9022 21.9989 89.7607 20.9906 90.1234 20.1872C89.7752 20.5608 89.1532 20.6406 88.7216 20.3668L88.7234 20.3704Z" fill="#F7E5D2"/>
<g style="mix-blend-mode:multiply">
<path d="M91.0337 19.7773C91.3239 19.6921 91.5723 19.4382 91.683 19.1154C91.7936 18.7926 91.7628 18.4063 91.6032 18.1125L94.9218 18.1343C94.7332 18.4099 94.7749 18.8216 94.9182 19.1317C95.0615 19.4418 95.2863 19.6885 95.4695 19.9677C95.6527 20.2488 95.7978 20.597 95.7379 20.9434C95.6327 20.7675 95.4876 20.626 95.3208 20.5353C95.6926 21.0812 95.6091 21.968 95.1467 22.4087C95.1413 22.1965 95.0597 21.9861 94.9255 21.8429C95.0742 22.2962 94.9001 22.8639 94.5392 23.1032C94.5301 22.9491 94.4793 22.7968 94.3923 22.6789C94.2128 23.5621 93.549 24.2838 92.7801 24.4289C93.0902 24.0517 93.0322 23.4478 92.927 22.94C92.8363 22.503 92.7312 22.0242 92.8454 21.6107C92.7783 21.7921 92.7112 21.9734 92.6423 22.1548C92.3848 21.6198 92.2977 20.9778 92.3975 20.3758C92.2868 20.7076 92.178 21.0395 92.0674 21.3696C91.7301 20.9071 91.6449 20.2107 91.8589 19.6576C91.6521 19.9151 91.2858 19.9695 91.0301 19.7809L91.0337 19.7773Z" fill="#F7E5D2"/>
</g>
<path d="M81.0686 28.1139C81.1484 28.9753 81.4096 30.067 81.7233 30.8722C81.8158 31.1098 81.9228 31.351 82.1059 31.5269C82.4142 31.8279 83.7961 31.7391 83.9775 31.5595C84.206 31.3346 84.1171 30.9538 84.0155 30.651C83.8505 30.1704 83.6855 29.6862 83.5223 29.2056C83.4715 29.0533 83.4189 28.8955 83.4262 28.7359C83.4262 28.6978 83.4316 28.6598 83.4407 28.6199C83.5114 28.3333 83.7961 28.1629 84.0464 28.0069C84.3275 27.8292 84.594 27.6279 84.8407 27.3994C85.0674 27.1945 85.2759 26.9642 85.4573 26.7193C85.7275 26.3566 85.9433 25.954 86.0811 25.5242C86.1101 25.439 86.1337 25.352 86.1555 25.2631C86.17 25.1996 86.1845 25.1343 86.1954 25.0709C86.277 24.6121 86.2479 24.1514 86.1264 23.7216C85.8889 22.882 85.2995 22.1475 84.4925 21.7232L84.3946 21.6706C84.2948 21.6162 84.1896 21.5727 84.079 21.5436C83.486 21.3804 82.7987 21.5908 82.3435 22.0224C82.2855 22.0768 82.2311 22.1367 82.1803 22.1965C82.1277 22.26 82.0769 22.3253 82.0298 22.3942C81.8448 22.6626 81.7142 22.969 81.629 23.29C81.5637 23.5312 81.5256 23.7815 81.5111 24.0299C81.4658 24.7698 81.6036 25.5079 81.7342 26.2388C81.7777 26.48 81.8158 26.7429 81.6943 26.9551C81.6417 27.0458 81.5673 27.1147 81.4875 27.18C81.3606 27.2851 81.221 27.3813 81.1394 27.5209C81.0396 27.6968 81.0487 27.9126 81.0686 28.1121V28.1139Z" fill="#D6633C"/>
<path d="M81.0686 28.114C81.1484 28.9754 81.4096 30.0671 81.7233 30.8723C81.8158 31.1099 81.9228 31.3511 82.1059 31.527C82.4142 31.828 83.7961 31.7392 83.9774 31.5596C84.2059 31.3348 84.1171 30.9539 84.0155 30.6511C83.8505 30.1705 83.6855 29.6863 83.5223 29.2057C83.4715 29.0534 83.4189 28.8956 83.4261 28.736C83.3899 28.7777 83.3518 28.8195 83.3155 28.863C83.3065 28.6762 83.2974 28.4894 83.2865 28.3026C83.1523 28.4187 83.0199 28.5311 82.8839 28.6472C82.8966 28.4695 82.9111 28.2954 82.922 28.1176C82.8204 28.2301 82.7189 28.3425 82.6137 28.4549C82.552 28.3081 82.5466 28.1358 82.601 27.9852C82.5339 28.0796 82.4668 28.172 82.3997 28.2682C82.3725 28.1049 82.3471 27.9399 82.3217 27.7785C82.1893 27.8637 82.0588 27.949 81.9282 28.036C81.9119 27.7912 81.8956 27.5464 81.8774 27.3034C81.7849 27.3669 81.6961 27.4285 81.6054 27.4902C81.5474 27.3941 81.5075 27.2889 81.4839 27.1819C81.357 27.2871 81.2173 27.3832 81.1357 27.5228C81.036 27.6987 81.045 27.9145 81.065 28.114H81.0686Z" fill="#79403D"/>
<path d="M92.8108 6.75473C93.188 5.99307 93.7538 5.34384 94.3124 4.70368C94.8166 4.12699 95.3225 3.54849 95.8865 3.02983C95.9482 2.9718 96.0515 3.00263 96.0733 3.08605C96.2256 3.67906 96.3798 4.27388 96.5321 4.86689C96.757 5.7428 96.9837 6.66587 96.7497 7.53815C96.5212 8.39049 95.8738 9.07961 95.1321 9.55837L92.4445 7.75758C92.5297 7.41121 92.6531 7.0739 92.8108 6.75291V6.75473Z" fill="#D6633C"/>
<g style="mix-blend-mode:multiply" opacity="0.42">
<path d="M93.4493 5.74287C93.8592 5.75919 94.2654 5.82629 94.6299 5.91697C95.1848 6.0566 95.6926 6.27966 96.1206 6.66594C96.3726 6.89262 96.5848 7.15558 96.7716 7.43485C96.7644 7.46931 96.7571 7.50558 96.7462 7.54003C96.5177 8.39237 95.8703 9.0815 95.1286 9.56025L92.441 7.75947C92.5262 7.41309 92.6496 7.07578 92.8073 6.7548C92.9851 6.39573 93.2045 6.06204 93.4475 5.74106L93.4493 5.74287Z" fill="#D6633C"/>
</g>
<path d="M99.8673 12.371C99.8618 13.5262 99.5644 14.4801 99.131 15.2545C97.9323 17.3944 95.6963 18.1869 95.6963 18.1869C93.9154 18.5931 92.3921 18.7255 91.0882 18.662C89.9366 18.6076 88.9592 18.3972 88.1268 18.0908C85.2524 17.0335 84.1226 14.8156 83.7237 13.6949C83.5731 13.2814 83.526 13.0185 83.526 13.0185C84.2623 13.9451 84.9459 13.5824 84.9459 13.5824C84.4889 13.1146 84.4926 12.1045 84.4926 12.1045C84.5016 12.1135 84.5071 12.1244 84.5143 12.1335C84.926 12.6612 85.7548 12.5415 86.0141 11.9249C87.5138 8.38319 91.168 7.69769 91.168 7.69769C95.0597 6.7311 96.8605 8.64252 97.6802 9.89745C97.9069 10.2456 98.3077 10.4234 98.7067 10.378C98.7865 10.369 98.8681 10.349 98.9479 10.3218L98.6214 11.5133C99.2162 11.1578 99.4792 9.89019 99.4792 9.89019C99.5536 10.1296 99.6152 10.3653 99.666 10.592C99.8111 11.234 99.8709 11.8234 99.8691 12.3692L99.8673 12.371Z" fill="#F7E5D2"/>
<path d="M99.6641 10.5939C99.2687 11.9685 98.4037 11.9286 98.4037 11.9286C97.8016 10.6138 97.2431 9.96276 96.8006 9.65447C96.3363 9.32804 95.6926 9.58737 95.5602 10.1387C95.1521 11.8488 95.7306 13.5099 96.7933 15.1511L94.5265 15.2962C93.7503 12.5996 92.4138 11.3809 91.6031 10.8659C90.885 10.4089 89.9293 10.5231 89.3726 11.1687C88.357 12.3511 88.1992 14.7141 88.1992 14.7141C87.5591 14.7903 86.1536 13.9524 86.1536 13.9524C86.1228 14.4747 86.665 15.0514 86.665 15.0514C85.3267 15.3325 84.3093 14.4312 83.7236 13.6967C83.573 13.2832 83.5259 13.0203 83.5259 13.0203C84.2622 13.947 84.9458 13.5843 84.9458 13.5843C84.4888 13.1164 84.4925 12.1063 84.4925 12.1063C84.5015 12.1154 84.507 12.1262 84.5142 12.1353C84.9259 12.663 85.7547 12.5433 86.014 11.9268C87.5137 8.38503 91.1679 7.69953 91.1679 7.69953C95.2881 6.70756 96.8604 8.64436 97.6801 9.89929C97.9068 10.2475 98.3076 10.4252 98.7066 10.3799C98.7864 10.3708 98.868 10.3508 98.9478 10.3236L98.6213 11.5151C99.2161 11.1597 99.4791 9.89204 99.4791 9.89204C99.5535 10.1314 99.6151 10.3672 99.6659 10.5939H99.6641Z" fill="#D6633C"/>
<path d="M89.4216 7.18805C88.7488 6.35567 87.8747 5.71551 87.0097 5.08441C86.2172 4.50591 85.4229 3.9256 84.5723 3.43958C84.498 3.39787 84.4055 3.45046 84.4037 3.5357C84.3801 4.32275 84.3547 5.11162 84.3311 5.89867C84.2967 7.03572 84.2731 8.23081 84.8027 9.2391C85.3195 10.222 86.3042 10.8912 87.347 11.2738C87.9309 10.2021 88.932 9.23366 90.1488 8.31967C89.9493 7.91708 89.7045 7.53624 89.4216 7.18805Z" fill="#D6633C"/>
<path d="M88.6963 7.94973C88.2229 7.36398 87.6082 6.91424 87.0006 6.46993C86.4584 6.07459 85.9144 5.67744 85.3341 5.34195C85.2615 5.30023 85.1672 5.35283 85.1654 5.43625C85.1491 5.97122 85.1328 6.5062 85.1164 7.04118C85.0911 7.84093 85.0765 8.68238 85.4483 9.39145C85.811 10.0842 86.5038 10.5539 87.2382 10.8223C87.7587 9.93369 88.4134 9.23731 89.2095 8.74404C89.068 8.46114 88.8976 8.19274 88.6981 7.94792L88.6963 7.94973Z" fill="#E8A465"/>
<path d="M92.0055 16.767C92.0908 17.5377 91.7118 18.2558 91.0861 18.6639C89.9345 18.6095 88.9571 18.3991 88.1247 18.0926C87.9579 17.8405 87.8472 17.5504 87.8128 17.233C87.6895 16.1286 88.5309 15.1257 89.6879 14.9988C90.8449 14.8719 91.8822 15.6625 92.0055 16.7688V16.767Z" fill="#E8A465"/>
<path d="M99.8671 12.3712C99.8616 13.5263 99.5642 14.4802 99.1308 15.2546C98.6049 15.0732 98.2023 14.6017 98.137 14.0105C98.0463 13.189 98.6357 12.4509 99.459 12.3585C99.5987 12.3421 99.7365 12.3458 99.8671 12.3712Z" fill="#E8A465"/>
<path d="M99.6133 15.4232C99.5209 15.9455 99.2869 16.5494 98.7538 17.0825C97.9885 17.8515 96.6048 18.4717 94.1384 18.488C94.1384 18.488 93.7902 17.4706 93.9625 16.4188C94.1947 15.0007 95.7506 14.2481 97.0581 14.8429C97.3356 14.9698 97.6657 15.0605 98.0211 15.0442C98.2732 15.0333 98.5343 14.9662 98.8027 14.8247C99.2071 14.6108 99.6913 14.9753 99.6115 15.425L99.6133 15.4232Z" fill="#F7E5D2"/>
<path d="M96.6473 17.6635C96.2592 17.8049 95.8076 17.6925 95.5374 17.3787C95.26 17.0559 95.2491 16.5572 95.474 16.2054C95.5628 16.0658 95.3416 15.937 95.2527 16.0748C94.9662 16.5228 95.0061 17.1321 95.3416 17.5419C95.6626 17.9337 96.2429 18.0824 96.7162 17.9101C96.8704 17.8539 96.8033 17.6054 96.6473 17.6616V17.6635Z" fill="#79403D"/>
<path d="M99.6114 15.4251C99.5643 15.6935 99.479 15.9818 99.3358 16.272C99.0637 16.8214 98.3402 16.9792 97.8632 16.5948C97.8614 16.5929 97.8578 16.5911 97.856 16.5893C97.4606 16.2756 97.428 15.6898 97.7671 15.3181L97.7852 15.2981C97.9194 15.153 98.0935 15.0479 98.2858 15.0098C98.4453 14.9771 98.6067 14.9227 98.7718 14.8393C99.1943 14.6235 99.6948 14.959 99.6114 15.4269V15.4251Z" fill="#79403D"/>
<g style="mix-blend-mode:screen" opacity="0.42">
<path d="M99.49 15.1457C99.49 15.298 99.2923 15.4213 99.0493 15.4213C98.8063 15.4213 98.6086 15.298 98.6086 15.1457C98.6086 14.9934 98.8063 14.87 99.0493 14.87C99.2923 14.87 99.49 14.9934 99.49 15.1457Z" fill="#79403D"/>
</g>
<path d="M92.9905 14.3822C93.0485 14.763 92.8055 15.1838 92.45 15.1711C92.0456 15.1566 91.75 14.5581 91.9459 14.161C92.1109 13.8273 92.5371 13.7475 92.8073 14.0141C92.9125 14.1174 92.9705 14.248 92.9923 14.3822H92.9905Z" fill="#79403D"/>
<path d="M97.5696 13.0258C97.6204 13.3594 97.3973 13.7312 97.0763 13.7221C96.71 13.7113 96.4452 13.1872 96.6247 12.8372C96.7753 12.5434 97.1615 12.4708 97.4045 12.703C97.4988 12.7936 97.5514 12.9079 97.5696 13.0258Z" fill="#79403D"/>
<path d="M90.6801 15.5321C90.6801 15.6844 90.4824 15.8077 90.2394 15.8077C89.9964 15.8077 89.7987 15.6844 89.7987 15.5321C89.7987 15.3797 89.9964 15.2564 90.2394 15.2564C90.4824 15.2564 90.6801 15.3797 90.6801 15.5321Z" fill="white"/>
<path d="M99.0964 13.2124C98.8531 13.2124 98.6558 13.089 98.6558 12.9368C98.6558 12.7846 98.8531 12.6611 99.0964 12.6611C99.3398 12.6611 99.5371 12.7846 99.5371 12.9368C99.5371 13.089 99.3398 13.2124 99.0964 13.2124Z" fill="white"/>
<defs>
<linearGradient id="paint0_linear_99_47551" x1="55" y1="36" x2="62.8678" y2="1.81055" gradientUnits="userSpaceOnUse">
<stop stop-color="#87C65C"/>
<stop offset="1" stop-color="#CCF398"/>
</linearGradient>
</defs>
</svg>
