<svg width="75" height="72" viewBox="0 0 75 72" fill="none" xmlns="http://www.w3.org/2000/svg">
<path d="M60.1853 22.7834C60.1667 22.7853 60.1481 22.789 60.1276 22.7927C59.9658 22.8279 59.8262 22.9297 59.7425 23.0742L35.8274 64.0599C35.753 64.1876 35.7288 64.3376 35.7604 64.4821C35.7734 64.5395 36.0692 65.8875 36.5493 67.2393C37.3009 69.3632 38.0823 70.3001 39.0051 70.189C39.0293 70.1853 39.0517 70.1835 39.0758 70.1779C39.2359 70.1483 39.3773 70.0539 39.4666 69.9187C39.5559 69.7835 39.5838 69.6169 39.5466 69.4576C39.2805 68.3521 39.4405 66.93 39.6675 65.7857C39.9429 67.0708 40.1736 68.9613 39.9782 71.3575C39.9559 71.6278 40.1233 71.8796 40.3819 71.9667C40.4675 71.9963 40.5568 72.0037 40.6424 71.9926C40.8154 71.9722 40.9736 71.8759 41.0722 71.7222C42.0973 70.1187 42.2797 68.3558 42.4546 66.6523C42.5197 66.0227 42.5848 65.3838 42.6927 64.7413C43.3699 66.1319 44.4788 67.1485 44.5514 67.2152C44.6816 67.3337 44.8546 67.3855 45.0239 67.3652C45.1077 67.3541 45.1914 67.3263 45.2677 67.28C45.4928 67.1393 45.597 66.8671 45.5226 66.6115C45.5207 66.6041 45.3756 66.0579 45.4221 64.9894C45.6453 65.8579 45.8742 66.4708 45.8965 66.5319C45.9933 66.7893 46.2537 66.943 46.5235 66.9115C46.5384 66.9115 46.5533 66.9078 46.5682 66.9041C46.8528 66.8467 47.0556 66.593 47.0463 66.3023C46.9775 64.3561 47.904 62.523 48.5366 61.5101C49.4669 63.1951 51.0297 64.7209 51.1097 64.7969C51.2437 64.9265 51.4241 64.9802 51.5972 64.9598C51.7255 64.945 51.8502 64.8876 51.9488 64.7876C52.1776 64.5561 52.1758 64.1821 51.9451 63.9525C51.9004 63.9062 50.8957 62.8248 51.5711 60.6842C52.1553 61.9563 52.2502 64.5432 52.0939 66.3412C52.0679 66.6467 52.28 66.9226 52.5832 66.9745C52.6428 66.9856 52.7004 66.9856 52.7581 66.98C52.9944 66.9522 53.1972 66.7837 53.2605 66.5449C53.2846 66.4523 53.8521 64.3117 54.9182 58.5566C55.7219 59.475 55.5601 61.249 55.5582 61.2693C55.5266 61.5897 55.7573 61.8767 56.0791 61.9156C56.1275 61.9212 56.1759 61.9212 56.2224 61.9156C56.4829 61.8841 56.7006 61.6823 56.7396 61.4119C56.7508 61.3305 56.9778 59.6491 56.3694 56.666C57.6997 57.3826 59.5955 57.9085 61.056 57.7326C61.8542 57.6363 62.4719 57.3419 62.8942 56.8586C63.0412 56.6901 63.0803 56.4512 62.9947 56.2438C62.9091 56.0364 62.7119 55.8957 62.4868 55.8809C61.3295 55.8013 60.4718 55.3865 59.8672 54.6143C58.9164 53.4014 58.8216 51.5849 58.8737 50.4498C59.7481 51.209 61.0672 52.5459 61.564 54.0514C61.644 54.2958 61.8728 54.4588 62.1314 54.4588C62.1538 54.4588 62.1779 54.4588 62.2003 54.4551C62.4291 54.4273 62.6245 54.2699 62.6952 54.0477C63.2738 52.2349 62.3882 49.6906 61.6254 48.0093C63.2887 49.0277 65.3557 50.622 65.7446 52.2256C65.8041 52.4719 66.0143 52.6533 66.2674 52.6756C66.3102 52.6793 66.3529 52.6793 66.3939 52.6756C66.5985 52.6515 66.7771 52.5219 66.8646 52.3311C68.7065 48.25 66.1985 44.7873 64.4068 42.9911C65.0617 43.03 65.819 43.0319 66.5855 42.9393C68.1781 42.7467 69.3856 42.2023 70.1707 41.3209C70.3345 41.1376 70.368 40.8709 70.2526 40.6543C70.1372 40.4358 69.8991 40.3117 69.6554 40.3413C68.5391 40.4765 67.0134 39.6192 65.6441 38.5896C66.5427 38.8933 67.5195 39.1303 68.4721 39.1877C68.5074 39.1896 68.5446 39.1877 68.5781 39.184C68.7009 39.1692 68.8163 39.1174 68.9093 39.0322C69.0284 38.9229 69.0972 38.7711 69.1009 38.61C69.1065 38.3711 69.0377 38.1119 68.9112 37.8415C69.6275 38.5767 70.3512 39.4284 71.0545 40.4154C71.181 40.5932 71.395 40.6858 71.6108 40.6598C71.6275 40.658 71.6424 40.6561 71.6592 40.6524C71.8899 40.6043 72.0703 40.4265 72.1206 40.1969C72.9559 36.3268 69.4079 32.0012 67.4804 29.994C68.2823 30.0162 69.2926 30.0032 70.2898 29.8829C72.1764 29.6551 73.4583 29.1015 74.1039 28.2386C74.2657 28.0219 74.2602 27.7256 74.089 27.5145C73.9569 27.3516 73.7541 27.2738 73.555 27.2979C73.4973 27.3053 73.4378 27.3201 73.382 27.346C73.0992 27.472 72.7717 27.559 72.4108 27.6034C68.1818 28.1127 60.6746 22.9427 60.5984 22.8908C60.4774 22.8075 60.3304 22.7723 60.1872 22.789L60.1853 22.7834Z" fill="url(#paint0_linear_99_280)"/>
<path d="M64.7436 29.057C64.7436 29.057 71.1363 34.7195 70.1279 39.3859C66.111 33.753 61.469 32.5642 61.469 32.5642C61.469 32.5642 67.259 36.2861 67.2199 37.9693C64.4105 37.8026 61.2625 35.8417 61.2625 35.8417C61.2625 35.8417 65.6217 40.5395 68.3902 40.2062C66.3808 42.4578 61.5025 41.3857 61.5025 41.3857C61.5025 41.3857 67.5436 45.5502 65.125 50.909C64.4254 48.0222 59.2736 45.6169 59.2736 45.6169C59.2736 45.6169 61.9137 50.0721 61.1007 52.6182C60.2969 50.1813 57.5136 48.2444 57.5136 48.2444C57.5136 48.2444 56.3377 54.7643 61.4039 55.1143C59.9564 56.7734 55.3256 54.9958 54.6465 53.8533C55.6735 57.64 55.3665 59.775 55.3665 59.775C55.3665 59.775 55.6642 56.8567 53.7814 56.166C52.6502 62.3748 52.0455 64.6321 52.0455 64.6321C52.0455 64.6321 52.5199 59.1566 50.8064 58.0529C49.3347 61.1138 50.9329 62.6952 50.9329 62.6952C50.9329 62.6952 48.8231 60.6509 48.1682 58.8084C48.1682 58.8084 45.9616 61.5212 46.0676 64.5672C46.0676 64.5672 44.7727 61.1416 45.3867 58.9695C44.0304 62.9785 44.6276 65.0024 44.6276 65.0024C44.6276 65.0024 42.0917 62.7063 42.5996 60.4953C41.2173 63.6673 42.1233 66.7912 40.4265 69.4409C40.8117 64.6765 39.5149 61.9489 39.5149 61.9489C39.5149 61.9489 38.3372 65.4116 38.8897 67.704C37.5241 67.9559 36.3706 62.6785 36.3706 62.6785L59.3071 23.3723C59.3071 23.3723 68.1241 29.4922 72.1261 27.6979C70.6209 29.7144 64.7398 29.057 64.7398 29.057H64.7436Z" fill="#318063"/>
<path d="M40.8042 59.7028C40.7763 59.8454 40.6945 59.9713 40.5773 60.0602C40.5028 60.1157 33.2096 65.5875 32.3686 69.7391C32.2961 70.0946 32.2756 70.4298 32.3072 70.7371C32.3128 70.7982 32.311 70.8575 32.2979 70.9149C32.2589 71.1112 32.1193 71.2797 31.924 71.3519C31.6709 71.4463 31.3844 71.3575 31.23 71.1371C30.6086 70.2575 30.4839 68.8706 30.8616 67.0171C31.0607 66.0375 31.3658 65.0802 31.6393 64.3284C29.1164 65.5172 23.8772 67.5115 20.4483 65.5042C20.2455 65.3857 20.132 65.1579 20.1599 64.9246C20.1618 64.908 20.1636 64.8913 20.1673 64.8765C20.2101 64.6654 20.3664 64.4913 20.5766 64.4284C21.7395 64.0747 22.7795 63.6581 23.706 63.2118C23.4065 63.247 23.1386 63.2303 22.9116 63.1488C22.759 63.0951 22.6362 62.9822 22.5693 62.8359C22.5172 62.7229 22.5041 62.5952 22.5283 62.4748C22.5358 62.4396 22.5451 62.4063 22.5581 62.373C22.9116 61.4916 23.4456 60.6435 24.0168 59.8917C22.6028 60.862 21.3078 62.0341 21.0864 63.1285C21.0381 63.3692 20.8446 63.5562 20.6008 63.5951C20.3571 63.6358 20.1134 63.521 19.9906 63.3081C19.3971 62.2878 19.2575 60.9768 19.5738 59.4121C19.7264 58.6603 19.9664 57.9437 20.2083 57.3382C17.931 58.4659 13.8397 59.7472 10.5261 56.7234C10.3698 56.5808 10.3047 56.3697 10.3456 56.1697C10.3531 56.129 10.3661 56.0883 10.3829 56.0494C10.4852 55.8179 10.7233 55.6753 10.9764 55.6976C12.6285 55.8346 14.7979 54.3828 16.2937 53.1311C14.4518 53.3237 11.7466 53.3607 10.1987 52.2423C10.0089 52.1052 9.91958 51.8719 9.96424 51.646C9.96796 51.6238 9.9754 51.6016 9.98098 51.5794C10.061 51.3349 10.2898 51.1701 10.5484 51.1701C12.1392 51.1738 13.8304 50.3461 14.8295 49.7591C13.7634 49.3536 12.0015 48.8722 10.5447 49.3888C9.61818 49.7184 8.95397 50.398 8.51303 51.4664C8.42745 51.6738 8.23209 51.8145 8.00697 51.8312C7.78185 51.8479 7.56789 51.7367 7.45253 51.5442C7.12322 50.9924 7.03764 50.3165 7.19578 49.5332C7.48788 48.0963 8.58559 46.4705 9.68702 45.4391C6.64879 45.0762 5.11758 44.3336 5.04316 44.2966C4.79757 44.1744 4.67291 43.9059 4.72501 43.6503C4.73431 43.604 4.7492 43.5596 4.76966 43.5152C4.90734 43.2244 5.25526 43.0967 5.55108 43.2281C5.56969 43.2374 7.21067 43.9466 8.34 43.4763C3.1845 40.6598 1.32212 39.4525 1.24211 39.3988C1.03374 39.2636 0.938849 39.0174 0.985362 38.7859C0.996525 38.7303 1.01699 38.6748 1.0449 38.6229C1.19002 38.3526 1.51933 38.2378 1.80399 38.36C3.47102 39.0711 5.96598 39.7951 7.36323 39.6432C5.50085 38.3063 4.14267 38.96 4.12778 38.9692C3.83568 39.1155 3.48032 39.0007 3.32962 38.7118C3.26636 38.5878 3.24962 38.4526 3.27566 38.3248C3.30915 38.1563 3.41892 38.0026 3.58451 37.9156C3.68126 37.8656 5.62736 36.8675 7.52695 36.5194C6.7567 35.6028 5.29805 34.1492 3.42637 33.6048C3.14729 33.5233 2.96868 33.253 3.00403 32.9641C3.00589 32.9493 3.00775 32.9345 3.01147 32.9197C3.06542 32.6549 3.29427 32.4568 3.56963 32.4456C3.63474 32.4438 4.29151 32.4197 5.19014 32.4808C4.18546 32.1012 3.618 32.0679 3.6087 32.066C3.3445 32.0531 3.11752 31.8679 3.05612 31.6105C3.03566 31.5253 3.03566 31.4383 3.0524 31.355C3.08589 31.192 3.18822 31.0439 3.34078 30.9587C3.42823 30.9106 4.74548 30.1829 6.28413 29.9792C5.7055 29.6755 5.11572 29.4125 4.53524 29.1533C2.96496 28.4515 1.34072 27.7275 0.133243 26.2535C0.0178911 26.1128 -0.0230404 25.9313 0.0123095 25.7628C0.0290542 25.6795 0.0644041 25.598 0.12022 25.5258C0.283946 25.3092 0.576047 25.2295 0.827218 25.3351C3.0524 26.2721 4.92781 26.6498 6.23947 26.7924C5.21991 26.2184 3.91382 25.6202 2.77704 25.524C2.61518 25.511 2.46448 25.4314 2.36401 25.3036C2.26168 25.1777 2.21703 25.0147 2.23935 24.8536C2.24307 24.8296 2.2468 24.8073 2.25052 24.7833C2.43471 23.8759 3.57335 23.4334 5.83574 23.3889C7.27578 23.3612 8.65629 23.5056 8.71397 23.5112C8.86095 23.526 8.99863 23.5963 9.09723 23.7074L40.6703 59.188C40.78 59.3121 40.834 59.475 40.8173 59.6398C40.8154 59.6584 40.8117 59.6787 40.808 59.6973L40.8042 59.7028Z" fill="url(#paint1_linear_99_280)"/>
<path d="M4.22834 24.874C6.58935 25.074 9.52153 27.2738 9.52153 27.2738C9.52153 27.2738 6.51306 27.6423 2.08875 25.7795C4.08322 28.2163 7.34844 28.3404 9.93828 30.6439C7.98846 29.4681 5.00046 31.142 5.00046 31.142C5.00046 31.142 7.11959 31.2143 10.5169 33.7548C8.63964 32.4919 4.96325 32.6382 4.96325 32.6382C7.90101 33.4937 9.79502 36.4324 9.79502 36.4324C7.83031 36.4713 5.21814 37.823 5.21814 37.823C5.21814 37.823 7.22937 36.812 9.68525 39.1636C8.09265 40.4358 3.02087 38.2656 3.02087 38.2656C3.02087 38.2656 4.98372 39.5451 10.5504 42.5671C9.29826 44.1299 6.60981 42.93 6.60981 42.93C6.60981 42.93 8.54848 43.8892 12.4835 44.1114C11.1793 44.3947 8.02753 48.2111 9.155 50.0998C11.0825 45.4243 16.932 48.5851 16.932 48.5851C16.932 48.5851 14.21 50.6035 11.6332 50.598C13.8044 52.1664 18.8855 51.072 18.8855 51.072C18.8855 51.072 14.971 55.1809 11.9979 54.9365C16.3496 58.9066 22.2214 54.5069 22.2214 54.5069C22.2214 54.5069 19.6651 58.7807 21.1814 61.386C21.734 58.6659 27.5853 56.0235 27.5853 56.0235C27.5853 56.0235 24.7257 58.3807 23.6838 60.9842C25.2764 61.5508 30.6477 57.2511 30.6477 57.2511C30.6477 57.2511 28.0542 61.2638 21.4196 63.2877C25.5518 65.706 32.9641 61.4471 32.9641 61.4471C32.9641 61.4471 30.4877 66.7967 31.9389 68.8521C31.4868 64.508 40.0955 58.1011 40.0955 58.1011L9.81363 24.0741C9.81363 24.0741 4.41626 23.5056 4.22648 24.874H4.22834Z" fill="#318063"/>
<path d="M69.0302 31.7476C69.0302 34.4714 66.0552 36.7694 65.3798 39.2822C64.6821 41.882 66.0831 45.3484 64.7603 47.6241C63.4188 49.9332 59.6885 50.4498 57.8057 52.3237C55.9228 54.1977 55.4037 57.9104 53.0836 59.2454C50.7971 60.562 47.3123 59.1677 44.702 59.862C42.1773 60.5342 39.8684 63.4951 37.1315 63.4951C34.3947 63.4951 32.0858 60.5342 29.5611 59.862C26.9489 59.1677 23.466 60.562 21.1794 59.2454C18.8594 57.9104 18.3403 54.1977 16.4574 52.3237C14.5746 50.4498 10.8442 49.9332 9.50281 47.6241C8.17998 45.3484 9.58095 41.8801 8.88325 39.2822C8.20788 36.7694 5.23291 34.4714 5.23291 31.7476C5.23291 29.0237 8.20788 26.7257 8.88325 24.2129C9.58095 21.6131 8.17998 18.1467 9.50281 15.871C10.8442 13.5619 14.5746 13.0453 16.4574 11.1714C18.3403 9.29743 18.8594 5.58475 21.1794 4.24967C23.466 2.93311 26.9508 4.32744 29.5611 3.63305C32.0858 2.96088 34.3947 0 37.1315 0C39.8684 0 42.1773 2.96088 44.702 3.63305C47.3142 4.32744 50.7971 2.93311 53.0836 4.24967C55.4037 5.58475 55.9228 9.29743 57.8057 11.1714C59.6885 13.0453 63.4188 13.5619 64.7603 15.871C66.0831 18.1467 64.6821 21.615 65.3798 24.2129C66.0552 26.7257 69.0302 29.0237 69.0302 31.7476Z" fill="url(#paint2_linear_99_280)"/>
<path d="M67.4358 30.1606C67.4358 30.7402 67.2944 31.2976 67.0674 31.842C66.7809 32.5345 66.3567 33.2048 65.9083 33.8659C65.1306 35.0158 64.2859 36.1398 63.9696 37.3175C63.538 38.9248 63.951 40.882 63.9473 42.6486C63.9436 43.5948 63.8208 44.4892 63.3817 45.2447C63.2514 45.4706 63.0952 45.678 62.9184 45.8705C61.3984 47.5519 58.3787 48.113 56.775 49.7073C54.9889 51.4868 54.494 55.0161 52.2911 56.2827C50.118 57.5345 46.81 56.2086 44.3262 56.8697C41.9299 57.5067 39.7363 60.3194 37.1353 60.3194C34.5343 60.3194 32.3408 57.5067 29.9425 56.8697C27.4625 56.2086 24.1526 57.5363 21.9795 56.2827C19.7767 55.0143 19.2818 51.4868 17.4938 49.7073C15.7077 47.9296 12.1615 47.4371 10.8871 45.2447C10.8368 45.1576 10.7903 45.0706 10.7475 44.9799C10.4294 44.304 10.3289 43.5318 10.3233 42.7189C10.3066 40.9339 10.7364 38.947 10.2992 37.3175C9.65914 34.9325 6.83301 32.7493 6.83301 30.1606C6.83301 27.5719 9.65914 25.3888 10.2992 23.0019C10.9634 20.5336 9.62937 17.2394 10.8871 15.0766C12.1634 12.8842 15.7077 12.3916 17.4938 10.6121C19.2818 8.8345 19.7767 5.30515 21.9795 4.03673C24.1526 2.78682 27.4606 4.11265 29.9425 3.45159C32.3389 2.8146 34.5324 0 37.1316 0C39.7307 0 41.9262 2.81275 44.3225 3.44973C46.8044 4.11079 50.1143 2.78312 52.2874 4.03487C54.4289 5.26811 54.9554 8.63822 56.6243 10.4585C56.6726 10.5122 56.721 10.5621 56.7713 10.6121C58.0569 11.8917 60.2449 12.5046 61.8486 13.5619C62.4793 13.9767 63.0189 14.4581 63.378 15.0766C64.6357 17.2394 63.3035 20.5317 63.9678 23.0019C64.6078 25.3888 67.4339 27.5719 67.4339 30.1606H67.4358Z" fill="url(#paint3_linear_99_280)"/>
<path d="M63.3389 36.9064C62.684 39.3488 64.0012 42.606 62.7565 44.7465C61.497 46.9149 57.9917 47.4 56.2224 49.1629C54.4549 50.922 53.9656 54.4106 51.7869 55.6642C49.638 56.9012 46.3635 55.5902 43.9113 56.2438C41.5391 56.8752 39.3679 59.6584 36.7985 59.6584C34.2291 59.6584 32.0561 56.8752 29.6858 56.2438C27.2317 55.592 23.9591 56.903 21.8102 55.6642C19.6296 54.4106 19.1422 50.922 17.3728 49.161C15.6035 47.4019 12.0982 46.9149 10.8387 44.7465C9.59585 42.6078 10.9131 39.3488 10.2563 36.9064C9.6219 34.5473 6.82739 32.3864 6.82739 29.8292C6.82739 28.5015 7.5809 27.2812 8.39395 26.0832C8.94467 25.2721 9.52329 24.4703 9.914 23.6519C10.0573 23.3538 10.1745 23.0519 10.2563 22.7501C10.9112 20.3077 9.59399 17.0505 10.8387 14.9118C12.0982 12.7416 15.6035 12.2565 17.3728 10.4955C19.1403 8.73451 19.6296 5.24589 21.8102 3.99228C23.9572 2.75534 27.2317 4.06635 29.6858 3.4127C32.0561 2.78127 34.2273 0 36.8004 0C39.3735 0 41.541 2.78127 43.9113 3.4127C46.3653 4.0645 49.638 2.75349 51.7887 3.99228C53.8688 5.19034 54.4084 8.42157 55.9935 10.2455C56.0661 10.3325 56.1442 10.4159 56.2261 10.4973C57.4931 11.7584 59.655 12.3657 61.2402 13.4082C61.8672 13.8193 62.403 14.297 62.7584 14.9118C64.0012 17.0487 62.684 20.3077 63.3407 22.7501C63.9752 25.1092 66.7715 27.2701 66.7715 29.8292C66.7715 32.3882 63.9752 34.5473 63.3407 36.9064H63.3389Z" fill="url(#paint4_linear_99_280)"/>
<path d="M21.3208 24.9351C17.0993 25.6073 11.8377 25.9332 8.39575 26.0832C8.94647 25.2721 9.52509 24.4703 9.9158 23.6519C12.9205 23.8426 17.0323 23.9926 21.2036 23.8093C21.9217 23.7778 22.0297 24.8203 21.3208 24.9333V24.9351Z" fill="url(#paint5_linear_99_280)"/>
<path d="M67.0654 31.842C66.7789 32.5345 66.3547 33.2048 65.9063 33.8659C33.6375 34.7788 17.9402 40.7135 10.7456 44.978C10.4275 44.3021 10.327 43.53 10.3214 42.7171C10.8461 42.1023 11.4247 41.432 12.0591 40.7006C29.8885 33.7937 57.6159 32.1957 67.0673 31.842H67.0654Z" fill="url(#paint6_linear_99_280)"/>
<path d="M63.9454 42.6486C63.9417 43.5948 63.8189 44.4892 63.3798 45.2447C63.2495 45.4706 63.0933 45.678 62.9165 45.8705C59.8057 46.6668 51.8427 48.5703 44.1736 49.3258C43.6396 49.3777 43.528 48.5926 44.0564 48.4963C51.8818 47.0593 59.7443 44.2744 63.9472 42.6504L63.9454 42.6486Z" fill="url(#paint7_linear_99_280)"/>
<path d="M61.8485 13.5619C57.8577 14.6174 46.4416 17.4005 36.618 17.4394C36.0059 17.4412 35.9203 16.5617 36.5213 16.4487C44.3559 14.984 52.3283 12.1324 56.6261 10.4585C56.6744 10.5122 56.7228 10.5621 56.773 10.6121C58.0587 11.8917 60.2466 12.5046 61.8504 13.5619H61.8485Z" fill="url(#paint8_linear_99_280)"/>
<defs>
<linearGradient id="paint0_linear_99_280" x1="54.0977" y1="75.5738" x2="55.4431" y2="30.3454" gradientUnits="userSpaceOnUse">
<stop stop-color="#95D543"/>
<stop offset="0.26" stop-color="#72B74E"/>
<stop offset="0.58" stop-color="#4E9959"/>
<stop offset="0.83" stop-color="#388660"/>
<stop offset="1" stop-color="#318063"/>
</linearGradient>
<linearGradient id="paint1_linear_99_280" x1="19.451" y1="74.5443" x2="20.7964" y2="29.314" gradientUnits="userSpaceOnUse">
<stop stop-color="#95D543"/>
<stop offset="0.26" stop-color="#72B74E"/>
<stop offset="0.58" stop-color="#4E9959"/>
<stop offset="0.83" stop-color="#388660"/>
<stop offset="1" stop-color="#318063"/>
</linearGradient>
<linearGradient id="paint2_linear_99_280" x1="30.856" y1="17.5561" x2="50.5725" y2="62.5661" gradientUnits="userSpaceOnUse">
<stop stop-color="#F8A45B"/>
<stop offset="0.22" stop-color="#C87E40"/>
<stop offset="0.47" stop-color="#975824"/>
<stop offset="0.7" stop-color="#733C10"/>
<stop offset="0.88" stop-color="#5D2B04"/>
<stop offset="1" stop-color="#562500"/>
</linearGradient>
<linearGradient id="paint3_linear_99_280" x1="85.5424" y1="66.9134" x2="24.5638" y2="20.1748" gradientUnits="userSpaceOnUse">
<stop stop-color="#F8A45B"/>
<stop offset="0.39" stop-color="#CB7837"/>
<stop offset="0.79" stop-color="#A45218"/>
<stop offset="1" stop-color="#96440C"/>
</linearGradient>
<linearGradient id="paint4_linear_99_280" x1="28.6606" y1="13.5064" x2="51.0757" y2="58.895" gradientUnits="userSpaceOnUse">
<stop stop-color="#F8A45B"/>
<stop offset="0.39" stop-color="#CB7837"/>
<stop offset="0.79" stop-color="#A45218"/>
<stop offset="1" stop-color="#96440C"/>
</linearGradient>
<linearGradient id="paint5_linear_99_280" x1="14.9132" y1="22.7834" x2="15.2596" y2="27.3815" gradientUnits="userSpaceOnUse">
<stop offset="0.38" stop-color="#96440C"/>
<stop offset="0.4" stop-color="#9A480F"/>
<stop offset="0.5" stop-color="#B76427"/>
</linearGradient>
<linearGradient id="paint6_linear_99_280" x1="38.1139" y1="33.2048" x2="38.9784" y2="39.7128" gradientUnits="userSpaceOnUse">
<stop offset="0.38" stop-color="#96440C"/>
<stop offset="0.4" stop-color="#9A480F"/>
<stop offset="0.5" stop-color="#B76427"/>
</linearGradient>
<linearGradient id="paint7_linear_99_280" x1="53.6195" y1="44.8947" x2="54.6631" y2="49.4854" gradientUnits="userSpaceOnUse">
<stop offset="0.38" stop-color="#96440C"/>
<stop offset="0.4" stop-color="#9A480F"/>
<stop offset="0.5" stop-color="#B76427"/>
</linearGradient>
<linearGradient id="paint8_linear_99_280" x1="48.2277" y1="11.6824" x2="49.5238" y2="17.9326" gradientUnits="userSpaceOnUse">
<stop offset="0.38" stop-color="#96440C"/>
<stop offset="0.4" stop-color="#9A480F"/>
<stop offset="0.5" stop-color="#B76427"/>
</linearGradient>
</defs>
</svg>
