<svg width="28" height="31" viewBox="0 0 28 31" fill="none" xmlns="http://www.w3.org/2000/svg">
<path d="M22.5477 22.4795C22.3573 22.2438 22.0943 22.0824 21.8332 21.9264C21.6464 21.814 21.4433 21.6871 21.378 21.4785C21.3127 21.2772 21.3961 21.0614 21.465 20.8601C21.815 19.8591 21.8513 18.7202 21.4088 17.7554C21.0534 16.9811 20.3951 16.35 19.6044 16.029C18.8155 15.708 17.9015 15.6989 17.1072 16.0054L17.1852 19.2697C16.8515 20.1202 16.9621 21.1339 17.4735 21.892C17.9849 22.65 18.8808 23.1342 19.7948 23.1451C19.0422 23.8252 18.5018 24.741 18.2715 25.7293C18.2134 25.9778 18.1754 26.2353 18.2153 26.4873C18.257 26.7394 18.3875 26.9861 18.6052 27.1166C19.0041 27.356 19.5427 27.1293 19.8401 26.7702C20.1375 26.4112 20.2717 25.9487 20.4857 25.5353C20.7995 24.9241 21.2909 24.4055 21.8839 24.0591C22.2158 23.865 22.613 23.6891 22.7417 23.3264C22.8433 23.0417 22.7363 22.7153 22.5459 22.4795H22.5477Z" fill="black"/>
<g style="mix-blend-mode:multiply" opacity="0.55">
<path d="M22.7433 23.3264C22.6145 23.6891 22.2192 23.865 21.8855 24.059C21.7241 24.1551 21.5681 24.2621 21.423 24.3818C21.2961 24.4834 21.18 24.594 21.0694 24.7119C20.8391 24.9567 20.6414 25.2342 20.4873 25.5352C20.2733 25.9487 20.1391 26.4093 19.8417 26.7702C19.5443 27.1293 19.0057 27.3578 18.6085 27.1166C18.3891 26.9842 18.2585 26.7394 18.2168 26.4873C18.1751 26.237 18.2168 25.9795 18.2712 25.7292C18.4 25.1798 18.623 24.6539 18.9259 24.1787C19.1671 23.7979 19.4609 23.4497 19.7945 23.145C18.8787 23.1342 17.9829 22.65 17.4715 21.8919C16.9619 21.1339 16.8494 20.1201 17.1831 19.2696L17.1051 16.0053C17.8994 15.6989 18.8116 15.7079 19.6023 16.0289C20.3912 16.3499 21.0513 16.9828 21.4067 17.7572C21.7948 18.6023 21.8148 19.5797 21.5772 20.4828C21.5427 20.6116 21.5046 20.7349 21.4611 20.86C21.3922 21.0613 21.3088 21.2753 21.3741 21.4784C21.4394 21.6852 21.6425 21.8121 21.8293 21.9246C22.0886 22.0805 22.3534 22.2437 22.5438 22.4777C22.7342 22.7116 22.8412 23.038 22.7396 23.3246L22.7433 23.3264Z" fill="black"/>
</g>
<path d="M21.0712 24.6956V24.7138C20.8409 24.9586 20.6433 25.236 20.4891 25.5371C20.2751 25.9506 20.1409 26.4112 19.8435 26.7721C19.5461 27.1311 19.0075 27.3596 18.6103 27.1184C18.3909 26.9861 18.2603 26.7412 18.2186 26.4892C18.1769 26.2389 18.2186 25.9814 18.273 25.7311C18.4018 25.1816 18.6249 24.6557 18.9277 24.1806C18.964 24.2586 18.993 24.3402 19.0184 24.4218C19.1399 24.2713 19.2596 24.1189 19.3865 23.972C19.3992 24.1752 19.4137 24.3783 19.4264 24.5796C19.6803 24.3819 19.9777 24.2404 20.2914 24.1697C20.2407 24.4055 20.1881 24.6412 20.1391 24.877C20.3223 24.7663 20.5072 24.6557 20.6922 24.5469C20.6705 24.692 20.6505 24.8389 20.6324 24.984C20.7793 24.8879 20.9262 24.7899 21.0731 24.6938L21.0712 24.6956Z" fill="#79403D"/>
<path d="M27.1554 13.064C27.1028 13.1836 27.0429 13.2997 26.9795 13.414C26.4826 14.3225 25.701 15.0733 24.7688 15.5321C23.8041 16.0054 22.7141 16.1596 21.6968 16.5132C20.6776 16.8668 19.6602 17.5106 19.3193 18.5316L19.7491 16.7997C19.3574 16.6456 19.2631 16.1433 19.3773 15.7261C19.3955 15.659 19.4209 15.592 19.4481 15.5303C19.6584 15.0896 20.0374 14.7469 20.2387 14.3008C20.5198 13.6805 20.4092 12.9479 20.1735 12.3077C20.0411 11.9541 19.8742 11.615 19.7128 11.2722C19.5804 10.9966 19.4553 10.7173 19.3556 10.429C18.6646 8.42144 19.4064 6.10743 20.8517 4.55146C22.297 2.99368 24.3372 2.10689 26.4064 1.62631C25.5124 2.07062 25.0753 3.15327 25.1261 4.14887C25.1769 5.14629 25.6284 6.0766 26.1181 6.94707C26.1561 7.01417 26.1942 7.08308 26.2323 7.15018C26.6893 7.95174 27.1717 8.74968 27.4147 9.63828C27.7284 10.7645 27.6341 11.9958 27.1554 13.0603V13.064Z" fill="black"/>
<g style="mix-blend-mode:multiply" opacity="0.55">
<path d="M27.1553 13.0641C27.1027 13.1838 27.0428 13.2998 26.9794 13.4141C26.4825 14.3226 25.7009 15.0734 24.7687 15.5322C23.804 16.0055 22.7141 16.1597 21.6967 16.5133C20.6775 16.8669 19.6601 17.5107 19.3192 18.5317L19.749 16.7999C19.3573 16.6457 19.263 16.1434 19.3772 15.7263C21.071 15.5558 22.7485 15.0426 24.1014 14.0216C25.6047 12.8882 26.6511 11.0656 26.555 9.18866C26.5169 8.50316 26.3374 7.83399 26.2322 7.15393C26.6892 7.95549 27.1716 8.75342 27.4146 9.64203C27.7283 10.7682 27.634 11.9996 27.1553 13.0641Z" fill="black"/>
</g>
<path d="M27.1551 13.064C27.1026 13.1836 27.0427 13.2997 26.9792 13.414C26.4443 13.7005 25.844 13.8655 25.2383 13.8836C25.7479 13.1111 25.8132 12.1101 25.6173 11.2051C25.4196 10.3002 24.988 9.46419 24.5619 8.64268C25.0769 9.67818 24.9173 11.0129 24.1701 11.8943C23.9308 10.5904 23.3051 9.36082 22.3929 8.39605C22.2497 9.53492 22.3476 10.7028 22.6795 11.8C21.3774 11.1018 20.4235 9.79062 20.1551 8.33802C19.8885 9.29372 19.7398 10.2803 19.7144 11.2722C19.582 10.9966 19.4569 10.7173 19.3572 10.429C18.6662 8.42144 19.4079 6.10743 20.8533 4.55146C22.2986 2.99368 24.3388 2.10689 26.408 1.62631C25.5139 2.07062 25.0769 3.15327 25.1277 4.14887C25.1784 5.14628 25.63 6.0766 26.1196 6.94707C26.6093 7.81754 27.1515 8.67532 27.4163 9.63828C27.73 10.7645 27.6357 11.9958 27.157 13.0603L27.1551 13.064Z" fill="#F7E5D2"/>
<path d="M23.7785 28.085C23.5863 28.3135 23.298 28.4459 23.0042 28.5021C22.7104 28.5583 22.4094 28.5492 22.1101 28.5402C21.9796 28.5347 21.829 28.5184 21.7619 28.4078C21.7039 28.3117 21.7347 28.1847 21.7801 28.0832C21.8943 27.813 22.072 27.5718 22.2951 27.3832C22.4347 27.2653 22.5998 27.1601 22.6687 26.9933C22.7213 26.8663 22.714 26.7267 22.705 26.5907C22.705 26.5598 22.7013 26.529 22.6995 26.4982C22.6814 26.2262 22.6632 25.9578 22.6469 25.6857C22.6379 25.5425 22.627 25.392 22.5562 25.2686C22.4765 25.129 22.3332 25.0401 22.199 24.9513C21.9306 24.7772 21.6731 24.5868 21.4246 24.3819C20.0536 23.2466 19.0435 21.6761 18.5974 19.9533L20.6068 17.5015C20.7464 18.6676 21.1109 19.6686 21.5806 20.4847C22.0303 21.2663 22.5798 21.8792 23.1239 22.3018C23.5518 22.6337 23.8239 23.1287 23.8583 23.6692C23.9127 24.5088 23.9708 25.2795 24.0234 26.1482C24.0342 26.315 24.0451 26.4873 24.056 26.6632C24.085 27.1583 24.0959 27.7042 23.7785 28.0832V28.085Z" fill="black"/>
<path d="M23.7787 28.0851C23.5865 28.3136 23.2981 28.446 23.0043 28.5022C22.7106 28.5584 22.4095 28.5493 22.1103 28.5403C21.9797 28.5348 21.8292 28.5185 21.7621 28.4079C21.7041 28.3118 21.7349 28.1848 21.7802 28.0833C21.8945 27.8131 22.0722 27.5719 22.2953 27.3833C22.4349 27.2654 22.5999 27.1602 22.6688 26.9934C22.7214 26.8664 22.7142 26.7268 22.7051 26.5908C22.7051 26.5599 22.7015 26.5291 22.6997 26.4983C22.7523 26.5763 22.8121 26.6524 22.8756 26.725C22.9282 26.5617 22.9826 26.4022 23.0352 26.2371C22.9989 26.4167 23.222 26.5998 23.4069 26.54C23.6046 26.4783 23.6989 26.2299 23.6481 26.0304C23.7098 26.1809 23.7968 26.3242 23.9038 26.4475C23.9455 26.3478 23.9836 26.248 24.0235 26.1483C24.0344 26.3151 24.0453 26.4874 24.0562 26.6633C24.0852 27.1584 24.0961 27.7042 23.7787 28.0833V28.0851Z" fill="#79403D"/>
<path d="M13.0265 23.718C13.0555 23.7108 13.0845 23.6999 13.1099 23.6818C13.0827 23.6945 13.0537 23.7053 13.0265 23.718Z" fill="#F7E5D2"/>
<path d="M19.1342 19.1138C18.9112 18.9615 18.6373 18.9089 18.3708 18.869C16.278 18.5499 14.1435 18.6967 12.0308 18.8436L5.5603 20.0043C5.93025 21.5602 7.0256 22.9294 8.4655 23.6294C9.87639 24.3167 11.5901 24.3476 13.0264 23.7165C12.8451 23.7618 12.622 23.6312 12.6039 23.4372C13.0935 23.497 13.6031 23.3882 14.0256 23.1362C13.857 23.118 13.7174 22.9584 13.721 22.7898C14.0764 22.7789 14.4301 22.681 14.742 22.5069C14.5062 22.4579 14.2904 22.3165 14.1544 22.1188C14.8018 21.952 15.451 21.7851 16.0985 21.6183C15.9479 21.5421 15.7974 21.4677 15.6469 21.3916C16.8003 21.2592 17.9264 20.8929 18.9366 20.3198C19.1524 20.1983 19.379 20.0442 19.4443 19.8048C19.5151 19.5436 19.3573 19.2644 19.136 19.112L19.1342 19.1138Z" fill="black"/>
<path d="M11.5884 23.9667C11.5104 25.2651 11.3816 26.5962 10.9827 27.8221C10.7977 28.3934 10.5529 28.9411 10.2283 29.4507C10.1412 29.5885 10.0433 29.7281 9.91272 29.8297C9.64251 30.0364 9.27618 30.0527 8.93525 30.0582C8.60338 30.0636 8.21348 30.0419 8.02307 29.7698C7.85441 29.5286 7.92332 29.1877 8.08291 28.9411C8.24431 28.6944 8.48188 28.5095 8.67048 28.2828C8.90805 28.0017 9.06945 27.6644 9.16556 27.3071C9.22903 27.0804 9.26711 26.8447 9.28344 26.6107C9.32515 26.0105 9.2381 25.4066 9.15287 24.8081C8.9552 23.4281 8.75934 22.048 8.56167 20.668L11.4107 19.5073C11.7117 20.969 11.6754 22.4778 11.5884 23.9685V23.9667Z" fill="black"/>
<path d="M10.9807 27.8222C10.7957 28.3935 10.5509 28.9412 10.2263 29.4508C10.1393 29.5886 10.0413 29.7282 9.91076 29.8298C9.64055 30.0365 9.27423 30.0528 8.93329 30.0583C8.60143 30.0637 8.21153 30.042 8.02111 29.7699C7.85246 29.5287 7.92137 29.1878 8.08096 28.9412C8.24236 28.6945 8.47992 28.5096 8.66853 28.2829C8.90609 28.0018 9.06749 27.6645 9.16361 27.3072C9.2035 27.4813 9.23977 27.6536 9.27967 27.8277C9.42293 27.6881 9.56801 27.5448 9.71128 27.4051C9.7548 27.5466 9.79833 27.6899 9.84366 27.8313C9.97605 27.6645 10.1048 27.4976 10.2372 27.3308C10.2716 27.5067 10.3061 27.6826 10.3406 27.8585C10.4566 27.6971 10.5691 27.5357 10.6851 27.3725C10.7286 27.5647 10.7722 27.7588 10.8175 27.951C10.881 27.922 10.939 27.8785 10.9825 27.8222H10.9807Z" fill="#79403D"/>
<path d="M8.9502 20.6275C9.12066 21.4397 9.28906 22.2984 9.0353 23.0901C8.91606 23.4626 8.70816 23.8028 8.49234 24.1303C8.07923 24.7603 7.6359 25.3677 7.16407 25.952C7.14958 25.9719 7.13453 25.9902 7.12121 26.0079C6.97822 26.184 6.82717 26.3646 6.77045 26.5833C6.71438 26.7922 6.75059 27.0092 6.76501 27.2238C6.81701 27.9296 6.65841 28.6504 6.31705 29.2724C6.20075 29.4837 6.0581 29.6902 5.86092 29.8286C5.66373 29.9671 5.40059 30.0316 5.1747 29.9467C4.86017 29.8296 4.70398 29.4781 4.62847 29.1517C4.50066 28.6117 4.49458 28.0531 4.49018 27.4996C4.4831 26.9966 4.48124 26.4862 4.62598 26.0044C4.62774 25.9981 4.62951 25.9918 4.63128 25.9855C4.78468 25.4952 5.08102 25.0633 5.33445 24.6168C6.21053 23.0584 6.54529 21.2659 6.86832 19.5077L8.95365 20.6264L8.9502 20.6275Z" fill="black"/>
<g style="mix-blend-mode:multiply" opacity="0.55">
<path d="M6.86467 19.5087C6.69658 20.4233 6.52555 21.3465 6.27675 22.2416C6.4175 22.5867 6.58473 22.9195 6.80033 23.225C7.19352 23.7837 7.73207 24.156 8.35872 24.33C8.40339 24.262 8.45035 24.1953 8.49503 24.1274C8.71085 23.7999 8.91758 23.4619 9.03799 23.0872C9.29175 22.2954 9.12335 21.4368 8.95288 20.6246L6.86756 19.5059L6.86467 19.5087Z" fill="black"/>
</g>
<path d="M7.16509 25.9497C7.1506 25.9697 7.13555 25.9879 7.12223 26.0056C6.97924 26.1817 6.82818 26.3624 6.77147 26.581C6.7154 26.7899 6.7516 27.007 6.76603 27.2215C6.81802 27.9273 6.65943 28.6482 6.31807 29.2701C6.20177 29.4814 6.05912 29.6879 5.86194 29.8264C5.66475 29.9648 5.4016 30.0293 5.17572 29.9444C4.86119 29.8274 4.705 29.4758 4.62948 29.1495C4.50168 28.6094 4.4956 28.0508 4.4912 27.4973C4.48412 26.9943 4.48226 26.4839 4.62699 26.0021C4.62876 25.9958 4.63053 25.9895 4.6323 25.9832C4.66601 26.0753 4.69744 26.1661 4.73115 26.2581C4.88333 26.0046 5.03494 25.7494 5.18712 25.496C5.26588 25.7736 5.34291 26.0517 5.42166 26.3293C5.60894 26.0606 5.79738 25.7896 5.98522 25.5227C6.03478 25.7926 6.08435 26.0625 6.13391 26.3324C6.27673 26.103 6.41783 25.8741 6.56065 25.6446C6.68076 25.8382 6.71907 26.0794 6.65891 26.2991C6.76189 26.1055 6.86374 25.9084 6.96616 25.7131C7.03842 25.7887 7.10607 25.8678 7.1691 25.9503L7.16509 25.9497Z" fill="#79403D"/>
<path d="M20.4019 19.5727C20.0029 20.1747 19.2395 20.4232 18.5195 20.4885C17.8014 20.5538 17.0669 20.483 16.3633 20.639C15.4257 20.8493 14.6296 21.4424 13.7664 21.8667C13.4055 22.0426 13.0083 22.1859 12.6112 22.2602C12.0526 22.3618 11.4904 22.3219 11.0135 22.0336C11.0824 22.1659 11.1513 22.2983 11.222 22.4325C10.3189 22.4851 9.3995 22.1569 8.73395 21.5439C8.71219 21.7017 8.69043 21.8613 8.67048 22.019C8.00674 21.6999 7.46632 21.1359 7.17798 20.4576C7.1943 20.697 7.20881 20.9382 7.22332 21.1776C6.59223 20.5936 6.17331 19.7866 6.05725 18.9361C5.99015 19.141 5.92124 19.3442 5.85414 19.5455C5.31191 18.86 5.34273 17.7846 5.92305 17.1299C5.75258 17.2895 5.52227 17.3838 5.28833 17.3892C6.06994 16.7273 6.37098 15.554 5.99922 14.6019L9.45934 12.3278C9.48292 12.9879 9.69691 13.6281 10.0505 14.1812V14.1848C10.6399 15.1079 11.6083 15.797 12.6946 15.962C13.7772 16.1234 14.8653 15.8169 15.9389 15.6048C17.0107 15.3926 18.1858 15.2892 19.147 15.8169C19.9558 16.2594 20.498 17.119 20.6504 18.0294C20.7392 18.5571 20.6957 19.132 20.4019 19.5781V19.5727Z" fill="black"/>
<g style="mix-blend-mode:multiply" opacity="0.55">
<path d="M12.6112 22.2602C12.0526 22.3618 11.4904 22.3219 11.0135 22.0336C11.0824 22.1659 11.1513 22.2983 11.222 22.4325C10.3189 22.4851 9.3995 22.1569 8.73395 21.5439C8.71219 21.7017 8.69043 21.8613 8.67048 22.019C8.00674 21.6999 7.46632 21.1359 7.17798 20.4576C7.1943 20.697 7.20881 20.9382 7.22332 21.1776C6.59223 20.5936 6.17331 19.7866 6.05725 18.9361C5.99015 19.141 5.92124 19.3442 5.85414 19.5455C5.31191 18.86 5.34273 17.7846 5.92305 17.1299C5.75258 17.2895 5.52227 17.3838 5.28833 17.3892C6.06994 16.7273 6.37098 15.554 5.99922 14.6019L9.45934 12.3278C9.48292 12.9879 9.69691 13.6281 10.0505 14.1812V14.1848C10.4767 15.3237 11.1658 16.3628 12.0581 17.1879C11.8187 17.0483 11.5793 16.9068 11.3417 16.7672C12.2303 17.6268 13.0265 18.6913 13.1316 19.9208C13.2024 20.7278 12.9702 21.5367 12.6094 22.2621L12.6112 22.2602Z" fill="black"/>
</g>
<path d="M10.9336 22.1532C10.9336 22.2257 10.9318 22.3001 10.93 22.3726C11.5756 21.4096 11.7442 20.142 11.3707 19.0431C11.5974 19.2026 11.7805 19.4221 11.8966 19.6741C12.1305 19.1591 11.9673 18.5389 11.659 18.0656C11.3489 17.5923 10.9082 17.2223 10.522 16.8107C10.1339 16.399 9.78387 15.9093 9.72765 15.3454C9.90356 15.4378 10.0777 15.5303 10.2536 15.6228C9.53905 14.8992 9.05122 13.9544 8.8735 12.9534L6.10612 13.443C5.79964 14.8303 4.97995 16.0979 3.8429 16.9485C4.26906 16.8923 4.68254 16.7436 5.04524 16.5151C4.27994 17.3583 3.92088 18.5552 4.09678 19.6796C4.12036 19.3006 4.36155 18.9415 4.7043 18.7783C4.67347 19.4946 4.57373 20.2091 4.40689 20.9073C4.62632 20.7604 4.84394 20.6153 5.06337 20.4684C5.0815 21.0995 5.27192 21.7252 5.60923 22.2602C5.69084 22.0317 5.77063 21.8032 5.85224 21.5729C6.04265 22.34 6.56675 23.02 7.26313 23.3972C7.09991 23.1959 7.04551 22.9112 7.12349 22.6646C7.60225 23.3084 8.29318 23.7907 9.0621 24.0174C8.90796 23.9014 8.82635 23.6965 8.85718 23.5042C9.34138 23.7073 9.82376 23.9086 10.308 24.1117C10.3297 23.419 10.5492 22.7335 10.9354 22.1568L10.9336 22.1532Z" fill="#F7E5D2"/>
<g style="mix-blend-mode:multiply" opacity="0.44">
<path d="M10.1521 21.0868C10.1521 21.1412 10.1503 21.1938 10.1485 21.2482C10.6218 20.5428 10.7451 19.6125 10.4713 18.8073C10.6381 18.9234 10.7723 19.0848 10.8576 19.2697C11.0298 18.8925 10.9102 18.4373 10.6835 18.091C10.4568 17.7446 10.134 17.4726 9.84927 17.1697C9.56455 16.8669 9.30885 16.5078 9.26714 16.0961C9.3959 16.1632 9.52466 16.2322 9.6516 16.2992C9.1275 15.7679 8.77025 15.077 8.63968 14.3425L6.61039 14.7016C6.38552 15.7189 5.78525 16.6474 4.95105 17.2713C5.26297 17.2296 5.56582 17.1208 5.8324 16.9521C5.27204 17.5705 5.00908 18.4482 5.13603 19.2734C5.15235 18.9959 5.33007 18.7329 5.58214 18.6114C5.56038 19.1374 5.48784 19.6615 5.36452 20.1729C5.52411 20.0659 5.68551 19.9589 5.8451 19.85C5.85779 20.3125 5.99743 20.7713 6.24588 21.1648C6.30572 20.9962 6.36557 20.8293 6.4236 20.6607C6.56324 21.2247 6.9477 21.7216 7.45728 21.999C7.33759 21.8521 7.2977 21.6418 7.35573 21.4604C7.70573 21.9319 8.21351 22.2856 8.7775 22.4524C8.66325 22.3672 8.60341 22.2166 8.62698 22.077C8.98242 22.2257 9.33605 22.3744 9.6915 22.5231C9.70782 22.0154 9.8674 21.5112 10.1503 21.0887L10.1521 21.0868Z" fill="#F7E5D2"/>
</g>
<path d="M10.2174 3.72096C10.9138 2.89039 11.8096 2.25929 12.6964 1.63546C13.5089 1.06421 14.3231 0.491147 15.1936 0.0142005C15.2679 -0.0275096 15.3622 0.0287062 15.3622 0.11394C15.3731 0.911873 15.3822 1.70981 15.3931 2.50774C15.4076 3.6593 15.4094 4.87071 14.8545 5.88082C14.314 6.86735 13.3057 7.52565 12.243 7.8956C11.6718 6.80026 10.6762 5.80284 9.45935 4.85439C9.66971 4.44998 9.9236 4.06915 10.2156 3.72096H10.2174Z" fill="black"/>
<path d="M10.9375 4.5062C11.4271 3.92225 12.0582 3.47795 12.6802 3.03909C13.2351 2.64919 13.7937 2.25748 14.3867 1.92742C14.4611 1.88571 14.5554 1.94011 14.5554 2.02716C14.5626 2.56939 14.5699 3.11163 14.5771 3.65386C14.588 4.46448 14.588 5.31501 14.1981 6.0259C13.8173 6.72046 13.1082 7.1829 12.361 7.44223C11.8496 6.53367 11.2004 5.81553 10.4043 5.30413C10.5512 5.01941 10.7307 4.75283 10.9356 4.50801L10.9375 4.5062Z" fill="#E8A465"/>
<path d="M6.39096 3.67913C5.93578 2.96824 5.3065 2.39156 4.68447 1.82212C4.12411 1.30891 3.56193 0.793873 2.94897 0.344129C2.88187 0.295165 2.78394 0.336878 2.77125 0.420298C2.68602 1.02237 2.59897 1.62445 2.51373 2.22653C2.38679 3.11513 2.26529 4.04908 2.59171 4.88509C2.91089 5.70116 3.62359 6.31049 4.40701 6.70039L6.85884 4.63121C6.73734 4.29934 6.57957 3.97836 6.38734 3.68094L6.39096 3.67913Z" fill="black"/>
<g style="mix-blend-mode:multiply" opacity="0.55">
<path d="M6.39088 3.67907C6.22767 3.42337 6.03906 3.18399 5.83958 2.95731C5.15046 3.11871 4.41962 3.15861 3.80848 3.53218C3.22816 3.88763 2.89811 4.49877 2.71313 5.13893C3.07039 5.82624 3.71055 6.35033 4.41056 6.69852L6.86239 4.62934C6.74088 4.29747 6.58311 3.97649 6.39088 3.67907Z" fill="black"/>
</g>
<path d="M0.0473598 9.99006C0.177931 11.1289 0.576897 12.0375 1.0883 12.752C2.50644 14.7305 4.79687 15.2673 4.79687 15.2673C6.59766 15.4722 8.11555 15.4378 9.39406 15.231C10.5239 15.0515 11.4651 14.7378 12.2521 14.3442C14.9705 12.9859 15.8428 10.6756 16.113 9.52581C16.2164 9.10145 16.2345 8.83668 16.2345 8.83668C15.6089 9.83229 14.8962 9.54938 14.8962 9.54938C15.2951 9.03798 15.1809 8.04238 15.1809 8.04238C15.1736 8.05326 15.1682 8.06233 15.1627 8.07321C14.8164 8.63902 13.984 8.61 13.6612 8.0315C11.7933 4.70375 8.11555 4.42811 8.11555 4.42811C4.17122 3.9022 2.60619 5.98407 1.9352 7.31154C1.75022 7.67968 1.37483 7.8973 0.975864 7.8973C0.89607 7.8973 0.814463 7.88642 0.731043 7.86828L1.18441 9.00715C0.558762 8.72244 0.161609 7.50015 0.161609 7.50015C0.114459 7.74497 0.0800025 7.98435 0.0528003 8.21285C-0.0197391 8.86026 -0.0142986 9.44964 0.0473598 9.98825V9.99006Z" fill="#F7E5D2"/>
<path d="M0.0527344 8.21648C0.593153 9.52763 1.44186 9.39524 1.44186 9.39524C1.89161 8.0315 2.37037 7.32969 2.77477 6.97787C3.19732 6.60429 3.86105 6.78927 4.05147 7.32062C4.64085 8.96182 4.25276 10.6647 3.38592 12.3984L5.63645 12.2932C6.10796 9.54939 7.29035 8.20016 8.03388 7.60352C8.69217 7.07398 9.64606 7.08124 10.2663 7.65793C11.3979 8.71337 11.8114 11.0256 11.8114 11.0256C12.4515 11.031 13.7464 10.0499 13.7464 10.0499C13.8334 10.5613 13.3637 11.1888 13.3637 11.1888C14.7148 11.3194 15.6197 10.3201 16.1166 9.52944C16.2199 9.10509 16.2381 8.84032 16.2381 8.84032C15.6124 9.83592 14.8997 9.55301 14.8997 9.55301C15.2987 9.04161 15.1844 8.04601 15.1844 8.04601C15.1772 8.05689 15.1717 8.06596 15.1663 8.07684C14.8199 8.64265 13.9875 8.61363 13.6647 8.03513C11.7969 4.70739 8.11911 4.43174 8.11911 4.43174C3.9481 3.90583 2.60975 5.98771 1.93876 7.31518C1.75378 7.68331 1.37839 7.90093 0.979425 7.90093C0.899631 7.90093 0.818025 7.89005 0.734604 7.87192L1.18798 9.01078C0.562323 8.72607 0.16517 7.50378 0.16517 7.50378C0.11802 7.7486 0.0835636 7.98798 0.0563613 8.21648H0.0527344Z" fill="black"/>
<path d="M8.2804 13.4628C8.2804 14.2317 8.73377 14.8973 9.39387 15.2328C10.5237 15.0532 11.4649 14.7395 12.2519 14.346C12.3879 14.0776 12.4659 13.7802 12.4659 13.4646C12.4659 12.362 11.5265 11.4662 10.3713 11.4662C9.21615 11.4662 8.2804 12.362 8.2804 13.4646V13.4628Z" fill="#E8A465"/>
<path d="M0.0472412 9.99002C0.177812 11.1289 0.576778 12.0375 1.08818 12.752C1.58689 12.5162 1.93145 12.0066 1.93145 11.4172C1.93145 10.5975 1.26772 9.93381 0.448021 9.93381C0.308383 9.93381 0.172372 9.95194 0.0472412 9.99002Z" fill="#E8A465"/>
<path d="M0.633023 12.9715C0.781728 13.4756 1.07733 14.0469 1.66308 14.5129C2.50091 15.1876 3.93356 15.6482 6.36726 15.3925C6.36726 15.3925 6.59757 14.3497 6.31285 13.3324C5.9284 11.9596 4.31077 11.3883 3.08667 12.1173C2.82734 12.2733 2.51179 12.3984 2.15816 12.4202C1.90972 12.4365 1.64313 12.4002 1.36386 12.2896C0.941315 12.1228 0.504265 12.5344 0.633023 12.9697V12.9715Z" fill="#F7E5D2"/>
<path d="M3.35149 14.6635C3.73957 14.805 4.19113 14.6925 4.46134 14.3788C4.7388 14.056 4.74968 13.5573 4.52481 13.2055C4.43595 13.0658 4.6572 12.9371 4.74606 13.0749C5.03259 13.5228 4.99269 14.1322 4.6572 14.542C4.33621 14.9337 3.75589 15.0824 3.28258 14.9101C3.12843 14.8539 3.19553 14.6055 3.35149 14.6617V14.6635Z" fill="#79403D"/>
<path d="M0.635047 12.975C0.711213 13.2325 0.825462 13.5082 0.997743 13.7784C1.32598 14.2916 2.05863 14.3678 2.48661 13.9362C2.48843 13.9343 2.49205 13.9307 2.49387 13.9289C2.84931 13.5771 2.81848 12.995 2.44309 12.6667C2.28169 12.5271 2.08221 12.4382 1.87003 12.4165C1.7177 12.4001 1.56174 12.3639 1.40034 12.304C0.95966 12.1372 0.502662 12.5234 0.63686 12.975H0.635047Z" fill="#79403D"/>
<path d="M7.09994 11.227C7.08543 11.5625 7.34658 11.9052 7.66212 11.8599C8.02119 11.8091 8.2243 11.2633 8.01031 10.9368C7.82896 10.663 7.44088 10.634 7.22689 10.8897C7.14347 10.9894 7.10538 11.1073 7.09994 11.2252V11.227Z" fill="#79403D"/>
<path d="M2.38498 10.3837C2.37047 10.7192 2.63161 11.0619 2.94716 11.0166C3.30623 10.9658 3.50934 10.4199 3.29535 10.0935C3.114 9.81967 2.72591 9.79066 2.51192 10.0464C2.4285 10.1461 2.39042 10.264 2.38498 10.3819V10.3837Z" fill="#79403D"/>
<g style="mix-blend-mode:screen" opacity="0.42">
<path d="M1.78467 12.7394C1.78467 12.8917 1.587 13.015 1.344 13.015C1.10099 13.015 0.90332 12.8917 0.90332 12.7394C0.90332 12.587 1.10099 12.4637 1.344 12.4637C1.587 12.4637 1.78467 12.587 1.78467 12.7394Z" fill="#79403D"/>
</g>
<path d="M10.6925 12.0758C10.6925 12.2281 10.4948 12.3514 10.2518 12.3514C10.0088 12.3514 9.81116 12.2281 9.81116 12.0758C9.81116 11.9234 10.0088 11.8001 10.2518 11.8001C10.4948 11.8001 10.6925 11.9234 10.6925 12.0758Z" fill="white"/>
<path d="M1.1626 10.4852C1.1626 10.6376 0.964933 10.7609 0.721927 10.7609C0.47892 10.7609 0.28125 10.6376 0.28125 10.4852C0.28125 10.3329 0.47892 10.2096 0.721927 10.2096C0.964933 10.2096 1.1626 10.3329 1.1626 10.4852Z" fill="white"/>
</svg>
