<svg width="483" height="343" viewBox="0 0 483 343" fill="none" xmlns="http://www.w3.org/2000/svg">
<path d="M43.3397 236.451C43.3791 236.451 43.4224 236.463 43.4617 236.47C43.8082 236.537 44.1113 236.75 44.2964 237.048L97.2408 323.174C97.4062 323.442 97.4652 323.764 97.4062 324.071C97.3826 324.193 96.8235 327.083 95.8747 329.989C94.3865 334.554 92.7763 336.595 90.8118 336.406C90.7606 336.402 90.7094 336.394 90.6621 336.386C90.3196 336.331 90.0165 336.138 89.8196 335.855C89.6228 335.568 89.5559 335.218 89.6267 334.88C90.1346 332.509 89.7173 329.489 89.1779 327.059C88.6582 329.812 88.2724 333.854 88.8078 338.954C88.8669 339.532 88.5283 340.074 87.9811 340.271C87.8 340.338 87.611 340.358 87.4299 340.342C87.0638 340.306 86.7173 340.11 86.5008 339.791C84.237 336.425 83.7606 332.678 83.3 329.053C83.1307 327.712 82.9575 326.355 82.6937 324.991C81.3276 327.987 79.0284 330.213 78.8748 330.358C78.6032 330.618 78.2371 330.736 77.8788 330.7C77.6977 330.685 77.5205 330.626 77.3552 330.531C76.867 330.244 76.6308 329.666 76.7804 329.12C76.7843 329.104 77.0638 327.932 76.9103 325.659C76.4812 327.523 76.0284 328.84 75.9812 328.97C75.7882 329.525 75.241 329.867 74.6662 329.812C74.6347 329.812 74.6032 329.804 74.5678 329.8C73.9576 329.694 73.5166 329.163 73.5206 328.545C73.5639 324.393 71.5009 320.536 70.1033 318.408C68.2135 322.05 64.9734 325.38 64.812 325.549C64.5324 325.832 64.1545 325.958 63.7883 325.923C63.5128 325.895 63.245 325.781 63.0324 325.573C62.5325 325.089 62.5167 324.295 62.997 323.795C63.0876 323.693 65.1663 321.338 63.6191 316.808C62.4458 319.553 62.3789 325.069 62.8041 328.891C62.875 329.54 62.438 330.138 61.7962 330.268C61.6703 330.291 61.5482 330.299 61.4262 330.287C60.9222 330.24 60.4852 329.89 60.3356 329.387C60.2766 329.19 58.9655 324.657 56.3986 312.443C54.7412 314.445 55.1742 318.216 55.1821 318.263C55.2648 318.943 54.7884 319.568 54.1113 319.667C54.0089 319.682 53.9065 319.682 53.8081 319.675C53.253 319.619 52.7806 319.203 52.6861 318.629C52.6585 318.456 52.0877 314.885 53.2215 308.492C50.4341 310.088 46.4342 311.307 43.32 311.008C41.6232 310.843 40.2925 310.249 39.3712 309.239C39.0484 308.885 38.9539 308.381 39.1271 307.933C39.3004 307.489 39.7098 307.178 40.1862 307.131C42.6389 306.899 44.4381 305.971 45.6861 304.296C47.6428 301.661 47.7491 297.784 47.5798 295.37C45.7649 297.033 43.0287 299.951 42.0523 303.187C41.8948 303.71 41.4145 304.072 40.8673 304.084C40.8161 304.084 40.7688 304.084 40.7216 304.08C40.2334 304.032 39.8122 303.706 39.6507 303.234C38.324 299.4 40.0759 293.927 41.6074 290.309C38.1271 292.57 33.8201 296.074 33.076 299.511C32.9618 300.037 32.5248 300.435 31.9894 300.497C31.8988 300.509 31.8083 300.509 31.7217 300.497C31.2886 300.454 30.8988 300.191 30.702 299.786C26.576 291.182 31.7217 283.668 35.4342 279.748C34.0445 279.866 32.4343 279.905 30.8044 279.748C27.4107 279.421 24.8202 278.324 23.1036 276.484C22.7454 276.099 22.6627 275.536 22.895 275.064C23.1273 274.593 23.6273 274.317 24.1509 274.368C26.5288 274.596 29.7256 272.693 32.5799 270.424C30.6863 271.117 28.6233 271.675 26.6036 271.848C26.5288 271.856 26.4501 271.852 26.3753 271.848C26.1154 271.824 25.8635 271.718 25.6627 271.541C25.4028 271.317 25.2493 270.995 25.2335 270.653C25.2099 270.145 25.3398 269.591 25.5957 269.001C24.1154 270.605 22.6194 272.457 21.1785 274.6C20.9186 274.986 20.4698 275.194 20.0092 275.151C19.9737 275.151 19.9422 275.143 19.9068 275.135C19.4147 275.045 19.021 274.675 18.9029 274.187C16.9265 265.981 24.2375 256.579 28.2256 252.195C26.5209 252.285 24.3792 252.309 22.2532 252.105C18.2336 251.719 15.4816 250.606 14.0683 248.798C13.7139 248.345 13.71 247.712 14.0604 247.252C14.3321 246.898 14.7612 246.721 15.1864 246.765C15.3124 246.777 15.4344 246.808 15.5565 246.859C16.1627 247.115 16.8635 247.28 17.6312 247.355C26.639 248.22 42.32 236.809 42.4775 236.695C42.7295 236.51 43.0405 236.427 43.3476 236.455L43.3397 236.451Z" fill="url(#paint0_linear_99_49710)"/>
<path d="M36.1744 252.628C36.1744 252.628 23.7375 264.239 25.9697 273.499C33.6823 262.065 42.8554 259.466 42.8554 259.466C42.8554 259.466 31.5248 267.177 31.6823 270.535C37.261 270.063 43.4263 266.001 43.4263 266.001C43.4263 266.001 34.9893 275.587 29.4658 275.057C33.572 279.453 43.2216 277.078 43.2216 277.078C43.2216 277.078 31.4106 285.681 36.4814 296.263C37.7334 290.467 47.8593 285.418 47.8593 285.418C47.8593 285.418 42.8239 294.438 44.568 299.479C46.0483 294.576 51.4853 290.577 51.4853 290.577C51.4853 290.577 54.1427 303.533 44.0838 304.477C47.0444 307.721 56.1624 303.946 57.4616 301.63C55.6073 309.239 56.3199 313.481 56.3199 313.481C56.3199 313.481 55.5837 307.674 59.2962 306.203C61.8513 318.538 63.1623 323.013 63.1623 323.013C63.1623 323.013 61.9497 312.109 65.3041 309.825C68.3788 315.86 65.2804 319.097 65.2804 319.097C65.2804 319.097 69.3749 314.913 70.5875 311.205C70.5875 311.205 75.1111 316.509 75.0441 322.592C75.0441 322.592 77.4536 315.691 76.1268 311.39C79.0205 319.321 77.9299 323.394 77.9299 323.394C77.9299 323.394 82.859 318.692 81.7409 314.299C84.6464 320.559 82.9968 326.839 86.5007 332.049C85.5007 322.557 87.9456 317.052 87.9456 317.052C87.9456 317.052 90.4574 323.906 89.4732 328.506C92.2015 328.943 94.2369 318.353 94.2369 318.353L46.7018 241.024C46.7018 241.024 29.4658 253.666 21.4186 250.28C24.5091 254.232 36.1744 252.635 36.1744 252.635V252.628Z" fill="#318063"/>
<path d="M60.7135 55.8238C60.745 55.8592 60.7726 55.8946 60.8001 55.9339C61.0324 56.2642 61.119 56.6732 61.0324 57.0664L36.8515 169.962C36.7767 170.316 36.572 170.627 36.2767 170.835C36.1625 170.918 33.4145 172.868 30.3398 174.523C25.5051 177.13 22.5682 177.547 21.0879 175.845C21.0485 175.801 21.0131 175.754 20.9776 175.711C20.7375 175.396 20.639 174.999 20.702 174.606C20.765 174.217 20.9855 173.871 21.3123 173.647C23.5996 172.085 25.6429 169.258 27.1114 166.828C24.5091 168.696 20.9973 171.736 17.4186 176.375C17.0131 176.898 16.3044 177.083 15.6981 176.816C15.4974 176.729 15.3241 176.596 15.1863 176.438C14.9107 176.12 14.7808 175.687 14.8556 175.251C15.6391 170.686 18.2021 167.214 20.6824 163.852C21.5997 162.609 22.5288 161.351 23.3871 160.018C19.891 161.422 16.2336 161.449 15.9934 161.453C15.5643 161.453 15.1666 161.264 14.8989 160.954C14.7651 160.796 14.6588 160.612 14.5997 160.403C14.4226 159.782 14.6863 159.117 15.2375 158.783C15.2533 158.771 16.4068 158.024 18.0761 156.023C16.2493 157.226 14.8359 157.957 14.6942 158.032C14.0997 158.339 13.3753 158.193 12.9462 157.694C12.9226 157.666 12.8989 157.639 12.8753 157.607C12.4541 157.041 12.5092 156.251 13.0013 155.744C16.3162 152.342 17.6509 147.529 18.1745 144.671C13.7415 146.196 8.43048 146.401 8.16277 146.409C7.71001 146.424 7.29663 146.228 7.02104 145.909C6.81632 145.669 6.6864 145.363 6.67065 145.024C6.63916 144.234 7.25332 143.562 8.04466 143.526C8.20214 143.515 11.7808 143.204 14.0722 138.238C10.9344 139.582 6.52892 144.093 3.86359 147.588C3.41084 148.182 2.5762 148.331 1.94234 147.934C1.8203 147.856 1.714 147.765 1.62345 147.659C1.2455 147.223 1.15495 146.589 1.43447 146.055C1.54077 145.846 4.03288 141.065 11.5486 128.946C8.59583 129.296 5.98168 132.756 5.95019 132.799C5.48169 133.429 4.59587 133.57 3.95808 133.114C3.85965 133.047 3.77698 132.969 3.70217 132.882C3.28485 132.398 3.2258 131.683 3.59981 131.132C3.71398 130.967 6.06042 127.566 12.0446 123.174C8.48166 122.297 4.21004 120.162 1.87148 117.46C0.595899 115.99 -0.0340172 114.448 0.00141559 112.887C0.0132265 112.341 0.332122 111.849 0.82818 111.617C1.32424 111.385 1.90691 111.452 2.33604 111.79C4.54862 113.532 6.76514 114.181 9.11945 113.776C12.8163 113.139 15.9659 110.017 17.7296 107.885C14.9147 107.83 10.3478 108.094 6.98955 109.997C6.44625 110.308 5.76515 110.229 5.30059 109.808C5.25728 109.769 5.22185 109.73 5.18248 109.686C4.81634 109.266 4.72579 108.66 4.96201 108.145C6.89112 103.93 12.6549 100.784 16.7808 98.9948C12.1194 98.1219 5.79271 97.6304 2.46596 99.8914C1.95416 100.237 1.28093 100.222 0.788811 99.852C0.706134 99.7891 0.631332 99.7183 0.564403 99.6436C0.237634 99.2661 0.123462 98.7432 0.284878 98.2556C3.6628 87.8905 13.8478 85.7317 20.0131 85.4093C18.7729 84.4105 17.4068 83.1798 16.1824 81.7642C13.6352 78.8229 12.3556 75.8738 12.3871 73.0034C12.395 72.4057 12.769 71.8709 13.332 71.6664C13.895 71.462 14.5289 71.6232 14.9186 72.0754C16.706 74.1358 20.8477 75.0795 25.0012 75.4492C22.8871 74.533 20.7414 73.3691 18.9343 71.9181C18.8674 71.8631 18.8044 71.8041 18.7493 71.7372C18.5524 71.5092 18.4304 71.226 18.4028 70.9233C18.3674 70.534 18.4934 70.1447 18.7493 69.8498C19.1312 69.4094 19.6784 69.0555 20.3516 68.7724C17.8595 68.9336 15.1627 69.2914 12.2808 69.9245C11.7612 70.0385 11.2257 69.8577 10.8793 69.4605C10.8517 69.4291 10.8281 69.4015 10.8045 69.3661C10.4659 68.9061 10.4344 68.2887 10.7218 67.7933C15.5643 59.4493 29.0287 57.4321 35.7846 56.9445C34.3043 55.6784 32.513 54.0111 30.9146 52.167C27.8988 48.6831 26.4973 45.5963 26.7532 42.9893C26.8162 42.3366 27.3162 41.8097 27.9658 41.7075C28.4697 41.6288 28.9618 41.8176 29.2807 42.1872C29.3752 42.2933 29.4539 42.4192 29.513 42.5529C29.8122 43.241 30.261 43.9291 30.8397 44.5976C37.6035 52.4068 59.5757 55.3087 59.7962 55.3363C60.1505 55.3834 60.4734 55.5565 60.7017 55.8238H60.7135Z" fill="url(#paint1_linear_99_49710)"/>
<path d="M42.2018 63.6999C42.2018 63.6999 22.8122 63.5151 17.3674 72.9011C32.7216 69.5234 42.3317 74.5841 42.3317 74.5841C42.3317 74.5841 26.9224 72.0479 24.4145 74.9419C29.3869 78.933 37.6664 80.4194 37.6664 80.4194C37.6664 80.4194 23.1665 81.7013 19.0327 76.9277C18.9579 83.7735 28.7846 89.3886 28.7846 89.3886C28.7846 89.3886 12.2768 87.2141 8.13515 99.915C13.7257 96.1204 26.0484 99.8992 26.0484 99.8992C26.0484 99.8992 14.8004 103.387 12.2729 108.908C17.3516 106.029 24.9815 106.997 24.9815 106.997C24.9815 106.997 16.9815 119.764 7.94618 112.651C7.83594 117.645 18.324 121.691 21.2138 120.802C13.6981 125.619 10.9462 129.677 10.9462 129.677C10.9462 129.677 14.9107 124.31 19.1272 126.013C11.5288 138.187 9.0879 142.905 9.0879 142.905C9.0879 142.905 16.6666 132.965 21.2295 133.712C19.017 141.104 13.9186 141.336 13.9186 141.336C13.9186 141.336 20.5839 141.104 24.5051 138.993C24.5051 138.993 24.0602 146.916 19.2217 151.882C19.2217 151.882 26.635 148.084 28.9263 143.495C25.072 152.307 20.9697 154.808 20.9697 154.808C20.9697 154.808 28.7373 154.8 31.2688 150.301C28.7373 157.745 22.4382 161.626 21.2295 168.668C27.8712 160.057 34.2176 157.442 34.2176 157.442C34.2176 157.442 30.8948 165.063 26.4657 168.083C28.3712 170.583 38.3829 163.451 38.3829 163.451L60.0245 62.3945C60.0245 62.3945 35.8711 59.2881 31.8987 50.1852C31.3397 55.8671 42.2097 63.7039 42.2097 63.7039L42.2018 63.6999Z" fill="#318063"/>
<path d="M439.655 236.451C439.616 236.451 439.573 236.463 439.533 236.47C439.187 236.537 438.884 236.75 438.699 237.048L385.754 323.174C385.589 323.442 385.53 323.764 385.589 324.071C385.612 324.193 386.171 327.083 387.12 329.989C388.608 334.554 390.219 336.595 392.183 336.406C392.234 336.402 392.286 336.394 392.333 336.386C392.675 336.331 392.978 336.138 393.175 335.855C393.372 335.568 393.439 335.218 393.368 334.88C392.86 332.509 393.278 329.489 393.817 327.059C394.337 329.812 394.723 333.854 394.187 338.954C394.128 339.532 394.467 340.074 395.014 340.271C395.195 340.338 395.384 340.358 395.565 340.342C395.931 340.306 396.278 340.11 396.494 339.791C398.758 336.425 399.234 332.678 399.695 329.053C399.864 327.712 400.037 326.355 400.301 324.991C401.667 327.987 403.967 330.213 404.12 330.358C404.392 330.618 404.758 330.736 405.116 330.7C405.297 330.685 405.474 330.626 405.64 330.531C406.128 330.244 406.364 329.666 406.215 329.12C406.211 329.104 405.931 327.932 406.085 325.659C406.514 327.523 406.967 328.84 407.014 328.97C407.207 329.525 407.754 329.867 408.329 329.812C408.36 329.812 408.392 329.804 408.427 329.8C409.037 329.694 409.478 329.163 409.474 328.545C409.431 324.393 411.494 320.536 412.892 318.408C414.781 322.05 418.022 325.38 418.183 325.549C418.462 325.832 418.84 325.958 419.207 325.923C419.482 325.895 419.75 325.781 419.962 325.573C420.462 325.089 420.478 324.295 419.998 323.795C419.907 323.693 417.825 321.338 419.376 316.808C420.549 319.553 420.616 325.069 420.191 328.891C420.12 329.54 420.557 330.138 421.199 330.268C421.325 330.291 421.447 330.299 421.569 330.287C422.073 330.24 422.51 329.89 422.659 329.387C422.718 329.19 424.029 324.657 426.596 312.443C428.254 314.445 427.821 318.216 427.813 318.263C427.73 318.943 428.207 319.568 428.884 319.667C428.986 319.682 429.088 319.682 429.187 319.675C429.742 319.619 430.214 319.203 430.309 318.629C430.336 318.456 430.907 314.885 429.773 308.492C432.561 310.088 436.561 311.307 439.675 311.008C441.372 310.843 442.702 310.249 443.624 309.239C443.947 308.885 444.041 308.381 443.868 307.933C443.695 307.489 443.285 307.178 442.809 307.131C440.356 306.899 438.557 305.971 437.309 304.296C435.352 301.661 435.246 297.784 435.415 295.37C437.23 297.033 439.966 299.951 440.943 303.187C441.1 303.71 441.58 304.072 442.128 304.084C442.179 304.084 442.226 304.084 442.273 304.08C442.762 304.032 443.183 303.706 443.344 303.234C444.671 299.4 442.919 293.927 441.388 290.309C444.868 292.57 449.175 296.074 449.919 299.511C450.033 300.037 450.47 300.435 451.006 300.497C451.096 300.509 451.187 300.509 451.273 300.497C451.706 300.454 452.096 300.191 452.293 299.786C456.419 291.182 451.273 283.668 447.561 279.748C448.95 279.866 450.561 279.905 452.191 279.748C455.584 279.421 458.175 278.324 459.891 276.484C460.25 276.099 460.332 275.536 460.1 275.064C459.868 274.593 459.368 274.317 458.844 274.368C456.466 274.596 453.269 272.693 450.415 270.424C452.309 271.117 454.372 271.675 456.391 271.848C456.466 271.856 456.545 271.852 456.62 271.848C456.879 271.824 457.131 271.718 457.332 271.541C457.592 271.317 457.746 270.995 457.761 270.653C457.785 270.145 457.655 269.591 457.399 269.001C458.88 270.605 460.376 272.457 461.816 274.6C462.076 274.986 462.525 275.194 462.986 275.151C463.021 275.151 463.053 275.143 463.088 275.135C463.58 275.045 463.974 274.675 464.092 274.187C466.068 265.981 458.757 256.579 454.769 252.195C456.474 252.285 458.616 252.309 460.742 252.105C464.761 251.719 467.513 250.606 468.927 248.798C469.281 248.345 469.285 247.712 468.935 247.252C468.663 246.898 468.234 246.721 467.809 246.765C467.683 246.777 467.561 246.808 467.439 246.859C466.832 247.115 466.131 247.28 465.364 247.355C456.356 248.22 440.675 236.809 440.517 236.695C440.265 236.51 439.954 236.427 439.647 236.455L439.655 236.451Z" fill="url(#paint2_linear_99_49710)"/>
<path d="M446.821 252.628C446.821 252.628 459.257 264.239 457.025 273.499C449.313 262.065 440.14 259.466 440.14 259.466C440.14 259.466 451.47 267.177 451.313 270.535C445.734 270.063 439.569 266.001 439.569 266.001C439.569 266.001 448.006 275.587 453.529 275.057C449.423 279.453 439.773 277.078 439.773 277.078C439.773 277.078 451.584 285.681 446.513 296.263C445.262 290.467 435.136 285.418 435.136 285.418C435.136 285.418 440.171 294.438 438.427 299.479C436.947 294.576 431.51 290.577 431.51 290.577C431.51 290.577 428.852 303.533 438.911 304.477C435.951 307.721 426.833 303.946 425.533 301.63C427.388 309.239 426.675 313.481 426.675 313.481C426.675 313.481 427.411 307.674 423.699 306.203C421.144 318.538 419.833 323.013 419.833 323.013C419.833 323.013 421.045 312.109 417.691 309.825C414.616 315.86 417.715 319.097 417.715 319.097C417.715 319.097 413.62 314.913 412.407 311.205C412.407 311.205 407.884 316.509 407.951 322.592C407.951 322.592 405.541 315.691 406.868 311.39C403.974 319.321 405.065 323.394 405.065 323.394C405.065 323.394 400.136 318.692 401.254 314.299C398.349 320.559 399.998 326.839 396.494 332.049C397.494 322.557 395.049 317.052 395.049 317.052C395.049 317.052 392.538 323.906 393.522 328.506C390.793 328.943 388.758 318.353 388.758 318.353L436.293 241.024C436.293 241.024 453.529 253.666 461.576 250.28C458.486 254.232 446.821 252.635 446.821 252.635V252.628Z" fill="#318063"/>
<path d="M422.285 55.8238C422.254 55.8592 422.226 55.8946 422.199 55.9339C421.967 56.2642 421.88 56.6732 421.967 57.0664L446.147 169.962C446.222 170.316 446.427 170.627 446.722 170.835C446.836 170.918 449.584 172.868 452.659 174.523C457.494 177.13 460.431 177.547 461.911 175.845C461.95 175.801 461.986 175.754 462.021 175.711C462.261 175.396 462.36 174.999 462.297 174.606C462.234 174.217 462.013 173.871 461.687 173.647C459.399 172.085 457.356 169.258 455.887 166.828C458.49 168.696 462.002 171.736 465.58 176.375C465.986 176.898 466.694 177.083 467.301 176.816C467.502 176.729 467.675 176.596 467.813 176.438C468.088 176.12 468.218 175.687 468.143 175.251C467.36 170.686 464.797 167.214 462.317 163.852C461.399 162.609 460.47 161.351 459.612 160.018C463.108 161.422 466.765 161.449 467.005 161.453C467.435 161.453 467.832 161.264 468.1 160.954C468.234 160.796 468.34 160.612 468.399 160.403C468.576 159.782 468.313 159.117 467.761 158.783C467.746 158.771 466.592 158.024 464.923 156.023C466.75 157.226 468.163 157.957 468.305 158.032C468.899 158.339 469.624 158.193 470.053 157.694C470.076 157.666 470.1 157.639 470.124 157.607C470.545 157.041 470.49 156.251 469.998 155.744C466.683 152.342 465.348 147.529 464.824 144.671C469.257 146.196 474.568 146.401 474.836 146.409C475.289 146.424 475.702 146.228 475.978 145.909C476.183 145.669 476.313 145.363 476.328 145.024C476.36 144.234 475.746 143.562 474.954 143.526C474.797 143.515 471.218 143.204 468.927 138.238C472.065 139.582 476.47 144.093 479.135 147.588C479.588 148.182 480.423 148.331 481.057 147.934C481.179 147.856 481.285 147.765 481.375 147.659C481.753 147.223 481.844 146.589 481.564 146.055C481.458 145.846 478.966 141.065 471.45 128.946C474.403 129.296 477.017 132.756 477.049 132.799C477.517 133.429 478.403 133.57 479.041 133.114C479.139 133.047 479.222 132.969 479.297 132.882C479.714 132.398 479.773 131.683 479.399 131.132C479.285 130.967 476.938 127.566 470.954 123.174C474.517 122.297 478.789 120.162 481.127 117.46C482.403 115.99 483.033 114.448 482.997 112.887C482.986 112.341 482.667 111.849 482.171 111.617C481.675 111.385 481.092 111.452 480.663 111.79C478.45 113.532 476.234 114.181 473.879 113.776C470.183 113.139 467.033 110.017 465.269 107.885C468.084 107.83 472.651 108.094 476.009 109.997C476.553 110.308 477.234 110.229 477.698 109.808C477.742 109.769 477.777 109.73 477.816 109.686C478.183 109.266 478.273 108.66 478.037 108.145C476.108 103.93 470.344 100.784 466.218 98.9948C470.879 98.1219 477.206 97.6304 480.533 99.8914C481.045 100.237 481.718 100.222 482.21 99.852C482.293 99.7891 482.368 99.7183 482.435 99.6436C482.761 99.2661 482.875 98.7432 482.714 98.2556C479.336 87.8905 469.151 85.7317 462.986 85.4093C464.226 84.4105 465.592 83.1798 466.817 81.7642C469.364 78.8229 470.643 75.8738 470.612 73.0034C470.604 72.4057 470.23 71.8709 469.667 71.6664C469.104 71.462 468.47 71.6232 468.08 72.0754C466.293 74.1358 462.147 75.0795 457.998 75.4492C460.112 74.533 462.258 73.3691 464.065 71.9181C464.132 71.8631 464.194 71.8041 464.25 71.7372C464.446 71.5092 464.569 71.226 464.596 70.9233C464.631 70.534 464.506 70.1447 464.25 69.8498C463.868 69.4094 463.32 69.0555 462.647 68.7724C465.139 68.9336 467.836 69.2914 470.718 69.9245C471.238 70.0385 471.773 69.8577 472.12 69.4605C472.147 69.4291 472.171 69.4015 472.194 69.3661C472.533 68.9061 472.565 68.2887 472.277 67.7933C467.435 59.4493 453.97 57.4321 447.214 56.9445C448.695 55.6784 450.486 54.0111 452.084 52.167C455.1 48.6831 456.502 45.5963 456.246 42.9893C456.183 42.3366 455.683 41.8097 455.033 41.7075C454.529 41.6288 454.037 41.8176 453.718 42.1872C453.624 42.2933 453.545 42.4192 453.486 42.5529C453.187 43.241 452.738 43.9291 452.159 44.5976C445.395 52.4068 423.423 55.3087 423.203 55.3363C422.848 55.3834 422.526 55.5565 422.297 55.8238H422.285Z" fill="url(#paint3_linear_99_49710)"/>
<path d="M440.793 63.6999C440.793 63.6999 460.183 63.5151 465.628 72.9011C450.273 69.5234 440.663 74.5841 440.663 74.5841C440.663 74.5841 456.073 72.0479 458.58 74.9419C453.608 78.933 445.329 80.4194 445.329 80.4194C445.329 80.4194 459.828 81.7013 463.962 76.9277C464.037 83.7735 454.21 89.3886 454.21 89.3886C454.21 89.3886 470.718 87.2141 474.86 99.915C469.269 96.1204 456.947 99.8992 456.947 99.8992C456.947 99.8992 468.195 103.387 470.722 108.908C465.643 106.029 458.013 106.997 458.013 106.997C458.013 106.997 466.013 119.764 475.049 112.651C475.159 117.645 464.671 121.691 461.781 120.802C469.297 125.619 472.049 129.677 472.049 129.677C472.049 129.677 468.084 124.31 463.868 126.013C471.466 138.187 473.907 142.905 473.907 142.905C473.907 142.905 466.328 132.965 461.765 133.712C463.978 141.104 469.076 141.336 469.076 141.336C469.076 141.336 462.411 141.104 458.49 138.993C458.49 138.993 458.935 146.916 463.773 151.882C463.773 151.882 456.36 148.084 454.069 143.495C457.923 152.307 462.025 154.808 462.025 154.808C462.025 154.808 454.258 154.8 451.726 150.301C454.258 157.745 460.557 161.626 461.765 168.668C455.124 160.057 448.777 157.442 448.777 157.442C448.777 157.442 452.1 165.063 456.529 168.083C454.624 170.583 444.612 163.451 444.612 163.451L422.97 62.3945C422.97 62.3945 447.124 59.2881 451.096 50.1852C451.655 55.8671 440.785 63.7039 440.785 63.7039L440.793 63.6999Z" fill="#318063"/>
<path d="M188.386 292.889C188.413 292.857 188.445 292.826 188.476 292.794C188.748 292.535 189.118 292.401 189.496 292.425L297.467 299.369C297.802 299.389 298.121 299.538 298.353 299.782C298.444 299.876 300.629 302.149 302.586 304.768C305.66 308.881 306.452 311.543 305.074 313.143C305.038 313.183 305.003 313.226 304.963 313.265C304.704 313.529 304.349 313.678 303.979 313.67C303.609 313.666 303.259 313.509 303.007 313.238C301.247 311.334 298.349 309.832 295.893 308.806C297.979 310.957 301.274 313.788 306.066 316.466C306.609 316.769 306.873 317.402 306.708 317.999C306.652 318.196 306.558 318.377 306.428 318.522C306.172 318.821 305.786 319.002 305.373 318.99C301.034 318.888 297.464 316.993 294.011 315.16C292.735 314.484 291.44 313.796 290.086 313.183C291.865 316.226 292.393 319.604 292.424 319.828C292.483 320.225 292.361 320.618 292.113 320.905C291.987 321.051 291.826 321.173 291.641 321.255C291.09 321.503 290.44 321.354 290.05 320.886C290.038 320.87 289.188 319.907 287.101 318.636C288.464 320.162 289.338 321.369 289.424 321.491C289.79 321.998 289.751 322.687 289.349 323.154C289.326 323.182 289.302 323.206 289.279 323.229C288.81 323.697 288.07 323.752 287.534 323.367C283.932 320.768 279.283 320.19 276.562 320.095C278.582 323.988 279.495 328.872 279.542 329.116C279.617 329.532 279.495 329.941 279.235 330.24C279.042 330.464 278.775 330.626 278.464 330.685C277.735 330.822 277.031 330.346 276.885 329.619C276.853 329.477 276.074 326.21 271.157 324.767C272.83 327.484 277.617 330.944 281.223 332.934C281.838 333.272 282.09 334.023 281.806 334.66C281.751 334.786 281.68 334.896 281.594 334.994C281.243 335.403 280.664 335.572 280.133 335.391C279.928 335.321 275.153 333.673 262.889 328.372C263.613 331.054 267.18 333.001 267.224 333.024C267.869 333.37 268.121 334.172 267.791 334.825C267.739 334.923 267.68 335.014 267.609 335.096C267.22 335.549 266.562 335.702 266.003 335.431C265.834 335.348 262.361 333.642 257.468 328.707C257.145 332.124 255.743 336.366 253.562 338.899C252.373 340.279 251.031 341.073 249.578 341.254C249.07 341.317 248.57 341.089 248.287 340.664C248.003 340.24 247.984 339.689 248.239 339.245C249.55 336.96 249.85 334.821 249.153 332.698C248.058 329.367 244.732 326.882 242.515 325.537C242.85 328.148 243.716 332.336 245.94 335.179C246.303 335.639 246.322 336.28 245.995 336.768C245.968 336.811 245.932 336.854 245.901 336.893C245.558 337.291 245.015 337.456 244.499 337.306C240.33 336.095 236.625 331.196 234.401 327.625C234.228 332.057 234.637 337.975 237.184 340.743C237.574 341.168 237.653 341.793 237.377 342.3C237.33 342.387 237.275 342.465 237.212 342.536C236.909 342.89 236.436 343.067 235.964 342.984C225.893 341.274 222.5 332.151 221.362 326.493C220.606 327.779 219.649 329.206 218.507 330.531C216.13 333.292 213.57 334.872 210.905 335.238C210.35 335.313 209.803 335.037 209.535 334.546C209.267 334.054 209.33 333.445 209.7 333.02C211.37 331.086 211.673 327.126 211.452 323.233C210.889 325.313 210.106 327.456 209.008 329.324C208.964 329.395 208.917 329.462 208.866 329.521C208.681 329.733 208.437 329.886 208.157 329.953C207.799 330.04 207.425 329.977 207.114 329.78C206.653 329.489 206.252 329.029 205.897 328.443C206.385 330.724 207.086 333.174 208.067 335.753C208.244 336.217 208.149 336.74 207.826 337.114C207.803 337.141 207.775 337.169 207.752 337.196C207.37 337.57 206.803 337.688 206.303 337.487C197.905 334.149 194.197 321.971 192.823 315.786C191.85 317.327 190.551 319.214 189.059 320.941C186.244 324.208 183.571 325.923 181.118 326.041C180.504 326.072 179.949 325.683 179.764 325.097C179.622 324.645 179.732 324.161 180.031 323.815C180.118 323.713 180.22 323.622 180.338 323.552C180.937 323.178 181.512 322.675 182.055 322.046C188.37 314.724 188.063 294.006 188.059 293.797C188.051 293.463 188.169 293.14 188.386 292.893V292.889Z" fill="url(#paint4_linear_99_49710)"/>
<path d="M198.878 307.768C198.878 307.768 201.307 325.38 210.571 329.061C205.445 315.585 208.756 306.191 208.756 306.191C208.756 306.191 208.512 320.508 211.48 322.396C214.445 317.351 214.685 309.644 214.685 309.644C214.685 309.644 217.791 322.624 214.008 327.012C220.244 326.163 224.031 316.497 224.031 316.497C224.031 316.497 224.263 331.762 236.37 333.818C232.169 329.257 233.956 317.575 233.956 317.575C233.956 317.575 238.633 327.311 243.992 328.864C240.692 324.645 240.551 317.594 240.551 317.594C240.551 317.594 253.232 323.143 247.972 332.293C252.531 331.723 254.802 321.668 253.606 319.167C258.991 325.341 263.05 327.291 263.05 327.291C263.05 327.291 257.641 324.413 258.621 320.359C270.708 325.62 275.326 327.201 275.326 327.201C275.326 327.201 265.271 321.66 265.342 317.417C272.357 318.436 273.255 323.029 273.255 323.029C273.255 323.029 272.149 317.012 269.708 313.741C269.708 313.741 276.972 313.084 282.133 316.808C282.133 316.808 277.684 310.591 273.204 309.129C281.731 311.445 284.554 314.83 284.554 314.83C284.554 314.83 283.507 307.788 279.078 306.093C286.184 307.391 290.558 312.585 297.121 312.738C288.405 307.866 285.172 302.46 285.172 302.46C285.172 302.46 292.546 304.453 295.885 308.067C297.904 306.002 290.078 297.879 290.078 297.879L195.287 291.784C195.287 291.784 195.701 314.111 187.953 318.931C193.193 318.68 198.866 307.768 198.866 307.768H198.878Z" fill="#318063"/>
<path d="M438.894 126.227C438.048 133.855 447.359 142.604 446.516 150.24C445.67 157.869 434.674 164.384 433.831 172.013C432.989 179.641 442.3 188.39 441.453 196.026C440.611 203.655 429.615 210.17 428.768 217.799C427.926 225.427 437.237 234.176 436.394 241.812C435.548 249.441 424.552 255.956 423.709 263.584C422.863 271.213 432.174 279.962 431.331 287.598C430.485 295.226 419.489 301.734 418.646 309.37C418.627 309.559 418.607 309.756 418.599 309.952C417.891 321.678 406.525 329.55 395.375 325.815C393.375 325.146 391.422 324.666 389.529 324.497C378.808 323.514 367.237 332.794 356.501 332.008C345.765 331.221 335.679 320.353 324.927 319.763C314.175 319.173 302.954 328.87 292.203 328.477C281.443 328.079 270.963 317.589 260.199 317.392C249.435 317.195 238.577 327.297 227.813 327.297C217.05 327.297 206.192 317.195 195.424 317.392C184.664 317.589 174.184 328.083 163.424 328.477C152.668 328.87 141.444 319.169 130.7 319.763C119.948 320.353 109.866 331.225 99.1254 332.008C88.3893 332.798 76.8185 323.518 66.0982 324.497C64.2045 324.67 62.2478 325.15 60.2518 325.815C49.1062 329.55 37.7362 321.678 37.0315 309.952C37.0236 309.756 37.0039 309.559 36.9842 309.37C36.1417 301.738 25.1457 295.226 24.2993 287.598C23.4568 279.966 32.7677 271.213 31.9213 263.584C31.0788 255.956 20.0828 249.441 19.2363 241.812C18.3938 234.18 27.7048 225.427 26.8623 217.799C26.0158 210.17 15.0198 203.655 14.1773 196.026C13.3309 188.394 22.6418 179.641 21.7993 172.013C20.9568 164.384 9.96082 157.869 9.11437 150.24C8.27186 142.608 17.5828 133.855 16.7364 126.227C15.8938 118.599 4.89787 112.083 4.05142 104.455C3.2089 96.8262 12.5199 88.0693 11.6773 80.441C11.634 80.0635 11.571 79.6703 11.4923 79.2731C9.08287 67.4846 19.4529 57.1234 31.311 58.8063C31.3622 58.8103 31.4173 58.8181 31.4764 58.8339C31.5512 58.8378 31.626 58.8496 31.7008 58.8653C35.1929 59.4355 38.5708 59.7225 41.7165 59.4355C43.0668 59.3097 44.4054 59.0698 45.7401 58.7316C45.7991 58.7159 45.8621 58.7002 45.9251 58.6844C48.6652 57.9767 51.3739 56.8796 54.0746 55.6213C62.0431 51.9094 69.8895 46.7976 78.1138 46.196C79.3736 46.1055 80.6413 46.1173 81.9169 46.2235H81.9248C82.0075 46.2274 82.0862 46.2313 82.161 46.2392C93.3538 47.1947 104.964 54.595 116.054 53.9855C117.354 53.9108 118.653 53.7299 119.944 53.4586C120.047 53.4429 120.153 53.4193 120.255 53.3957C123.976 52.5857 127.665 51.064 131.35 49.3928C138.499 46.1566 145.625 42.3543 152.916 42.0908C153.46 42.0711 153.999 42.0711 154.542 42.0908C154.664 42.0908 154.786 42.0947 154.912 42.0987H154.924C166.727 42.6649 178.759 51.4729 190.546 51.2566C193.735 51.2016 196.912 50.482 200.093 49.4439C208.684 46.6403 217.25 41.5049 225.865 40.8011C226.14 40.7814 226.42 40.7578 226.699 40.746C226.951 40.7342 227.203 40.7264 227.455 40.7185H227.463C227.581 40.7146 227.699 40.7146 227.817 40.7146C228.187 40.7146 228.565 40.7224 228.935 40.746C229.211 40.7578 229.491 40.7814 229.77 40.8011C238.384 41.5049 246.951 46.6403 255.542 49.4439C256.691 49.8175 257.833 50.1517 258.982 50.4269C261.014 50.9145 263.053 51.2212 265.089 51.2606C276.695 51.4729 288.533 42.9362 300.163 42.1341C300.348 42.1223 300.529 42.1144 300.71 42.0987H300.722C301.392 42.0711 302.057 42.0633 302.722 42.0908C311.513 42.4093 320.072 47.875 328.722 51.292C330.974 52.1846 333.234 52.9396 335.501 53.4232C335.564 53.439 335.627 53.4547 335.69 53.4626C336.982 53.7339 338.281 53.9148 339.58 53.9895C350.434 54.5872 361.789 47.5093 372.761 46.3139C372.997 46.2864 373.237 46.2628 373.474 46.2431C374.828 46.1212 376.178 46.1016 377.521 46.1999C386.82 46.8841 395.643 53.3289 404.69 56.9976C406.28 57.6503 407.879 58.2047 409.485 58.6294C409.623 58.6687 409.757 58.7041 409.891 58.7356C411.225 59.0737 412.564 59.3136 413.914 59.4394C416.875 59.7107 420.044 59.4709 423.32 58.9636C423.524 58.9322 423.725 58.9046 423.934 58.8693C424.013 58.8575 424.083 58.8417 424.162 58.8378C436.083 57.0369 446.556 67.4374 444.138 79.2771C444.06 79.6742 443.997 80.0674 443.953 80.4449C443.111 88.0733 452.422 96.8302 451.579 104.459C450.733 112.087 439.737 118.602 438.894 126.231V126.227Z" fill="url(#paint5_linear_99_49710)"/>
<path d="M430.076 122.656C429.359 129.125 436.268 136.442 437.304 143.107C437.438 143.969 437.473 144.822 437.382 145.663C436.906 149.961 433.072 153.885 429.827 157.884C427.552 160.68 425.564 163.515 425.233 166.527C424.422 173.837 433.347 182.224 432.536 189.534C432.438 190.411 432.205 191.272 431.859 192.118C430.402 195.739 427.013 199.148 424.284 202.62C422.312 205.137 420.682 207.693 420.383 210.402C419.576 217.712 428.497 226.095 427.69 233.409C426.879 240.719 416.343 246.959 415.532 254.269C414.725 261.579 423.646 269.966 422.839 277.276C422.032 284.586 411.493 290.826 410.686 298.136C410.666 298.321 410.646 298.506 410.639 298.694C409.961 309.929 399.068 317.474 388.387 313.892C386.47 313.251 384.599 312.799 382.781 312.63C372.509 311.686 361.422 320.581 351.135 319.83C340.848 319.075 331.179 308.658 320.883 308.092C310.58 307.526 299.828 316.822 289.521 316.44C279.211 316.063 269.167 306.008 258.856 305.819C248.542 305.631 238.136 315.312 227.821 315.312C217.506 315.312 207.101 305.631 196.786 305.819C186.471 306.008 176.428 316.063 166.121 316.44C155.814 316.818 145.062 307.526 134.759 308.092C124.464 308.658 114.795 319.075 104.507 319.83C94.2199 320.585 83.1334 311.686 72.8618 312.63C71.0469 312.799 69.1729 313.251 67.2556 313.892C56.7872 317.4 46.118 310.223 45.0589 299.363C45.055 299.355 45.055 299.343 45.055 299.331C45.0353 299.119 45.0156 298.911 45.0038 298.694C44.9959 298.506 44.9762 298.321 44.9565 298.136C44.9408 297.983 44.9172 297.825 44.8935 297.672C44.8896 297.668 44.8896 297.664 44.8896 297.66C43.6928 290.551 33.5944 284.429 32.807 277.276C32.7873 277.072 32.7716 276.875 32.7637 276.674V276.667C32.6771 274.468 33.4094 272.172 34.4527 269.844C34.9409 268.755 35.4921 267.658 36.059 266.561C38.2086 262.377 40.5471 258.17 40.1141 254.273C40.0944 254.1 40.0708 253.931 40.0393 253.766C40.0393 253.762 40.0393 253.754 40.0353 253.75C38.803 246.664 28.7441 240.546 27.9567 233.413C27.937 233.216 27.9212 233.016 27.9134 232.819V232.807C27.7835 229.528 29.4842 226.04 31.2795 222.545C33.4133 218.412 35.6889 214.26 35.2637 210.406C35.248 210.245 35.2243 210.091 35.2007 209.938C34.0078 202.821 23.9016 196.699 23.1142 189.542C23.0945 189.349 23.0788 189.157 23.0709 188.964C22.8032 182.704 29.189 175.713 30.3031 169.303C30.4685 168.367 30.5157 167.439 30.4134 166.531C30.3976 166.394 30.3779 166.256 30.3582 166.118C29.2086 158.985 19.0512 152.843 18.2599 145.671C18.2323 145.447 18.2205 145.223 18.2166 144.999C17.9883 137.846 26.3465 129.75 25.5669 122.664C25.5512 122.491 25.5236 122.318 25.4921 122.153C24.2638 115.059 14.2009 108.941 13.4096 101.8C13.3702 101.442 13.3544 101.081 13.3584 100.715V100.656C13.504 93.6214 21.4804 85.7296 20.7166 78.7933C20.689 78.5691 20.6615 78.345 20.6182 78.1169C20.5985 77.9832 20.5709 77.8495 20.5434 77.7119C20.5355 77.6608 20.5276 77.6058 20.5119 77.5507C20.4646 77.3148 20.4213 77.0749 20.3859 76.839C19.1418 68.6837 24.2284 61.3817 31.4842 58.8416C34.0747 57.9332 36.9448 57.6305 39.9015 58.1141C41.8936 58.4405 43.8542 58.6686 45.7479 58.7393C47.0313 58.7944 48.2794 58.7747 49.4919 58.6607C51.673 58.4562 53.8187 57.9372 55.9525 57.2097C64.7477 54.2213 73.2555 47.7686 82.1649 46.243C82.8972 46.1171 83.6334 46.0267 84.3696 45.9717C85.4168 45.893 86.472 45.893 87.5271 45.9559C87.6294 45.9638 87.7397 45.9717 87.846 45.9835C97.0545 46.6401 106.566 51.98 115.814 53.2186C115.885 53.2265 115.952 53.2343 116.023 53.2461C117.334 53.4152 118.645 53.4978 119.944 53.4663C120.204 53.4624 120.468 53.4545 120.724 53.4388C124.373 53.2343 127.979 52.1333 131.57 50.6784C139.338 47.5445 147.034 42.7945 154.912 42.1024H154.924C155.294 42.071 155.672 42.0474 156.042 42.0317C156.31 42.0238 156.582 42.0199 156.849 42.0199H156.936C167.9 42.0631 179.085 50.0178 190.07 50.7689C190.109 50.7728 190.144 50.7728 190.176 50.7728C190.814 50.8161 191.459 50.8318 192.101 50.82C194.766 50.7728 197.432 50.242 200.089 49.4437C208.68 46.8721 217.246 41.5401 225.861 40.8009C226.136 40.7812 226.416 40.7576 226.695 40.7458C226.947 40.734 227.199 40.7262 227.451 40.7183H227.459C227.577 40.7144 227.695 40.7144 227.813 40.7144C228.183 40.7144 228.561 40.7223 228.931 40.7458C229.207 40.7576 229.487 40.7812 229.766 40.8009C238.38 41.5362 246.947 46.8682 255.538 49.4437C257.923 50.1594 260.313 50.6588 262.707 50.7885H262.734C262.998 50.8043 263.266 50.8161 263.53 50.82C275.014 51.0323 286.742 42.2951 298.246 42.0238C298.277 42.0199 298.305 42.0199 298.336 42.0238C298.754 42.0159 299.175 42.0159 299.592 42.0317C299.962 42.0434 300.34 42.071 300.71 42.1024H300.722C310.116 42.9282 319.254 49.5263 328.557 52.271C330.596 52.8804 332.643 53.2972 334.706 53.427C334.777 53.4309 334.84 53.4349 334.911 53.4388C335.171 53.4506 335.435 53.4585 335.69 53.4663C346.722 53.6944 358.261 46.0542 369.312 45.9205C369.966 45.9127 370.615 45.9284 371.269 45.9756C372.005 46.0306 372.741 46.1211 373.474 46.2469C383.584 47.981 393.174 56.0497 403.257 58.2164C404.213 58.4248 405.182 58.5742 406.147 58.6646C406.3 58.6764 406.458 58.6921 406.615 58.7C407.682 58.7826 408.772 58.7904 409.891 58.7433C411.784 58.6725 413.745 58.4444 415.737 58.1181C416.698 57.9647 417.654 57.8861 418.591 57.89C420.532 57.8939 422.41 58.236 424.158 58.8455C430.048 60.9099 434.512 66.1121 435.312 72.3681C435.528 74.0708 435.477 75.8559 435.103 77.6726C435.024 78.0579 434.969 78.4276 434.926 78.7933C434.8 79.9336 434.914 81.0975 435.186 82.285C436.666 88.6983 442.914 95.6346 442.233 101.8C441.422 109.114 430.887 115.35 430.076 122.668V122.656Z" fill="url(#paint6_linear_99_49710)"/>
<path d="M428.705 122.385C428.016 128.672 434.536 135.758 435.823 142.27C435.883 142.58 435.938 142.891 435.965 143.198C435.977 143.296 435.985 143.394 435.997 143.497C436.012 143.642 436.024 143.792 436.032 143.941C436.036 144.079 436.04 144.212 436.04 144.35C436.04 144.676 436.024 145.003 435.989 145.325C435.973 145.463 435.953 145.596 435.934 145.734C435.918 145.84 435.898 145.946 435.879 146.053C435.863 146.147 435.839 146.245 435.816 146.34C435.8 146.426 435.776 146.509 435.757 146.595C435.729 146.686 435.709 146.776 435.678 146.866C435.528 147.389 435.331 147.905 435.099 148.42C435.06 148.502 435.02 148.589 434.977 148.671C434.749 149.155 434.485 149.631 434.197 150.107C434.119 150.236 434.036 150.366 433.957 150.496C433.658 150.972 433.331 151.44 432.989 151.911C432.867 152.081 432.749 152.242 432.619 152.411C431.268 154.204 429.698 155.969 428.261 157.755C427.851 158.258 427.453 158.769 427.076 159.28C426.977 159.418 426.879 159.552 426.776 159.685C426.198 160.491 425.67 161.301 425.225 162.119C425.166 162.225 425.107 162.336 425.056 162.442C424.997 162.548 424.946 162.662 424.89 162.768C424.729 163.094 424.587 163.429 424.461 163.759C424.418 163.877 424.375 163.991 424.335 164.109C424.296 164.215 424.261 164.325 424.233 164.427C424.198 164.538 424.162 164.652 424.135 164.762C424.103 164.872 424.076 164.986 424.052 165.096C424.024 165.202 424.001 165.312 423.981 165.418C423.934 165.65 423.898 165.878 423.875 166.11C423.072 173.401 431.961 181.756 431.154 189.043C431.115 189.385 431.06 189.723 430.977 190.061C430.961 190.148 430.938 190.234 430.918 190.317C430.898 190.399 430.875 190.486 430.847 190.568C430.698 191.099 430.497 191.618 430.26 192.137C430.201 192.271 430.135 192.405 430.072 192.538C430.024 192.637 429.973 192.735 429.922 192.837C429.741 193.183 429.548 193.525 429.335 193.871C429.241 194.033 429.138 194.19 429.036 194.351C428.182 195.68 427.142 196.99 426.064 198.291C425.922 198.468 425.776 198.641 425.631 198.814C425.355 199.144 425.076 199.479 424.796 199.809C424.658 199.978 424.516 200.147 424.379 200.312C424.351 200.34 424.331 200.367 424.304 200.399C424.142 200.591 423.981 200.792 423.82 200.985C423.808 200.996 423.792 201.016 423.78 201.032C423.607 201.244 423.438 201.449 423.272 201.661C423.268 201.661 423.268 201.665 423.268 201.665C423.099 201.877 422.934 202.086 422.768 202.302C422.761 202.314 422.753 202.322 422.741 202.337C422.568 202.561 422.394 202.789 422.229 203.014H422.225C421.69 203.733 421.194 204.461 420.757 205.196C420.611 205.448 420.469 205.699 420.335 205.951C420.225 206.155 420.119 206.364 420.02 206.572C419.981 206.659 419.942 206.745 419.902 206.832C419.8 207.052 419.709 207.272 419.627 207.496C419.583 207.602 419.544 207.709 419.509 207.815C419.505 207.823 419.501 207.834 419.497 207.85C419.461 207.952 419.426 208.058 419.398 208.161C419.328 208.385 419.268 208.609 419.217 208.833C419.19 208.924 419.174 209.014 419.158 209.108C419.139 209.211 419.119 209.317 419.103 209.419C419.076 209.561 419.06 209.702 419.044 209.852C418.284 216.745 426.19 224.593 426.371 231.585C426.383 231.986 426.367 232.387 426.324 232.784C425.969 235.981 423.749 238.977 421.296 241.954C418.162 245.744 414.662 249.495 414.209 253.581C413.406 260.871 422.296 269.223 421.489 276.513C420.686 283.803 410.182 290.02 409.375 297.31C409.359 297.491 409.339 297.676 409.328 297.861C408.654 309.059 397.8 316.586 387.155 313.015C385.249 312.374 383.379 311.922 381.572 311.753C371.332 310.813 360.277 319.68 350.029 318.929C339.769 318.174 330.139 307.789 319.872 307.231C309.604 306.665 298.888 315.929 288.612 315.551C278.337 315.178 268.329 305.155 258.049 304.966C247.77 304.781 237.4 314.427 227.117 314.427C216.833 314.427 206.467 304.781 196.188 304.966C185.908 305.155 175.9 315.178 165.625 315.551C155.349 315.929 144.633 306.669 134.365 307.231C124.098 307.793 114.46 318.174 104.208 318.929C93.9601 319.68 82.9051 310.813 72.665 311.753C70.8579 311.922 68.9879 312.374 67.0824 313.015C65.1021 313.68 63.1139 313.959 61.1769 313.904C61.0706 313.904 60.9643 313.9 60.858 313.892C60.4446 313.872 60.0312 313.837 59.6179 313.79C59.3659 313.754 59.1218 313.719 58.8738 313.68C58.7439 313.66 58.6139 313.633 58.484 313.605C58.4053 313.589 58.3305 313.574 58.2517 313.558C58.1376 313.538 58.0313 313.511 57.921 313.483C57.7281 313.436 57.5273 313.389 57.3344 313.338C57.2321 313.31 57.1297 313.283 57.0313 313.251C56.8541 313.2 56.673 313.145 56.4919 313.082C56.3738 313.043 56.2596 313.003 56.1415 312.96C56.0234 312.921 55.9092 312.878 55.7911 312.834C55.5628 312.748 55.3384 312.657 55.114 312.559C54.3226 312.217 53.5549 311.812 52.8266 311.356C52.74 311.305 52.6534 311.25 52.5667 311.191C51.3108 310.369 50.1612 309.374 49.1573 308.246C49.0038 308.069 48.8463 307.884 48.6967 307.699C48.618 307.605 48.5353 307.506 48.4644 307.404C48.3857 307.306 48.3148 307.207 48.24 307.105C48.1613 307.007 48.0904 306.901 48.0195 306.802C47.9487 306.708 47.8857 306.61 47.8148 306.515C47.5983 306.197 47.3975 305.874 47.2006 305.54C47.1416 305.434 47.0747 305.324 47.0156 305.214C46.9565 305.108 46.8936 304.994 46.8384 304.884C46.7794 304.773 46.7203 304.659 46.6652 304.541C46.5471 304.313 46.4408 304.085 46.3424 303.853C46.1888 303.503 46.0432 303.149 45.9093 302.788C45.6888 302.178 45.5038 301.553 45.3463 300.912C45.3148 300.782 45.2873 300.657 45.2597 300.527C45.2046 300.267 45.1574 300.004 45.1101 299.74C45.0944 299.618 45.0707 299.5 45.055 299.375C45.0511 299.367 45.0511 299.355 45.0511 299.343C45.0196 299.135 44.992 298.926 44.9684 298.714C44.9605 298.643 44.9526 298.576 44.9487 298.506C44.929 298.285 44.9093 298.069 44.8975 297.849C44.8936 297.79 44.8896 297.723 44.8857 297.664C44.8778 297.538 44.866 297.42 44.8503 297.298C44.7873 296.728 44.6652 296.166 44.492 295.608C44.429 295.391 44.3542 295.175 44.2715 294.963C44.0156 294.29 43.6928 293.626 43.3227 292.973C43.2046 292.769 43.0904 292.568 42.9645 292.364C42.9526 292.352 42.9487 292.336 42.9369 292.324C42.8109 292.12 42.681 291.919 42.5471 291.723C41.9093 290.763 41.1849 289.82 40.4212 288.868C40.3385 288.766 40.2519 288.66 40.1653 288.553C40.0787 288.451 39.992 288.345 39.9054 288.239C39.8031 288.109 39.6928 287.979 39.5865 287.85C38.7046 286.792 37.807 285.738 36.9645 284.676C36.8779 284.574 36.7952 284.464 36.7125 284.362C36.1259 283.619 35.5708 282.875 35.0669 282.12C34.9921 282.018 34.9252 281.908 34.8543 281.802C34.807 281.731 34.7677 281.668 34.7283 281.605C34.6732 281.519 34.6181 281.428 34.559 281.338C34.5196 281.279 34.4842 281.216 34.4527 281.153C34.3897 281.047 34.3228 280.937 34.2637 280.831C33.8582 280.119 33.5118 279.399 33.248 278.672C33.2086 278.566 33.1732 278.46 33.1417 278.353C32.996 277.905 32.8779 277.453 32.7992 277.001C32.7834 276.906 32.7677 276.808 32.7559 276.714C32.7559 276.706 32.7519 276.694 32.7519 276.682V276.674C32.7441 276.619 32.7362 276.564 32.7323 276.505C32.5 274.382 33.0866 272.164 34.0236 269.915C34.4685 268.838 34.9921 267.752 35.5433 266.663C36.9055 263.97 38.4251 261.256 39.3109 258.614C39.3542 258.488 39.3936 258.362 39.433 258.24C39.433 258.24 39.4369 258.237 39.4369 258.233C39.5353 257.906 39.6259 257.58 39.7046 257.257C39.7322 257.163 39.7558 257.069 39.7755 256.974C40.0196 255.885 40.1259 254.808 40.0314 253.75C40.0314 253.691 40.0275 253.632 40.0196 253.573C39.992 253.345 39.9605 253.117 39.9172 252.893C39.8739 252.669 39.8227 252.445 39.7637 252.22C39.7322 252.11 39.7007 251.996 39.6653 251.886C39.5826 251.619 39.4881 251.347 39.3818 251.08C39.3188 250.907 39.244 250.734 39.1653 250.561C38.9606 250.105 38.7283 249.653 38.4724 249.2C38.4212 249.106 38.3661 249.016 38.307 248.925C38.248 248.823 38.181 248.717 38.118 248.611C38.059 248.512 37.9921 248.414 37.933 248.312C36.4094 245.941 34.3031 243.633 32.4173 241.301C32.2795 241.128 32.1417 240.959 32.0079 240.794C30.7047 239.15 29.5354 237.495 28.7756 235.8C28.7284 235.686 28.6811 235.58 28.6339 235.469C28.4528 235.041 28.3071 234.612 28.185 234.176C28.1654 234.105 28.1457 234.034 28.1299 233.96C28.0591 233.696 28.0079 233.433 27.9646 233.165C27.9528 233.083 27.937 232.996 27.9291 232.914L27.9173 232.823V232.811C27.9173 232.811 27.9134 232.792 27.9134 232.78C27.5512 229.489 29.1693 225.973 30.9764 222.438C33.1456 218.188 35.5944 213.906 35.2007 209.938C35.1968 209.907 35.1968 209.879 35.1929 209.848C34.3897 202.557 23.8859 196.341 23.0788 189.051C23.0749 189.019 23.0749 188.995 23.0709 188.964C22.4528 182.739 28.8307 175.74 30.1693 169.295C30.3937 168.218 30.4764 167.156 30.3583 166.118C30.0945 163.724 28.7874 161.447 27.1181 159.209C23.7048 154.632 18.7875 150.217 18.2442 145.325C18.2324 145.219 18.2245 145.105 18.2166 144.999C17.7048 137.787 26.3189 129.573 25.5237 122.393C25.5158 122.31 25.5079 122.232 25.4922 122.153C24.4882 114.969 14.2088 108.807 13.4096 101.6C13.3781 101.305 13.3623 101.01 13.3584 100.711V100.652C13.3584 93.5899 21.4607 85.6391 20.689 78.6635C20.6694 78.4826 20.6457 78.2978 20.6142 78.113C20.5946 77.9793 20.567 77.8456 20.5394 77.708C20.5316 77.6569 20.5237 77.6018 20.5079 77.5468C20.4607 77.3108 20.4174 77.071 20.382 76.835C19.0788 68.6955 24.1063 61.3975 31.3189 58.814C33.9291 57.8821 36.8267 57.5675 39.8109 58.0551C41.9054 58.3972 43.9487 58.6332 45.929 58.6882C47.1022 58.7275 48.2518 58.7 49.3699 58.5978C51.5589 58.3933 53.7203 57.8703 55.8659 57.1311H55.8699C64.61 54.1426 73.0626 47.749 81.9169 46.2233H81.9248C82.6571 46.0975 83.3933 46.007 84.1295 45.952C85.2554 45.8694 86.3854 45.8734 87.5271 45.952C87.6294 45.9599 87.7397 45.9677 87.846 45.9795C97.0624 46.7148 106.574 52.0822 115.814 53.2147C115.885 53.2225 115.952 53.2304 116.023 53.2422C117.444 53.4073 118.854 53.4702 120.255 53.3955C120.295 53.3955 120.334 53.3916 120.373 53.3916C124.133 53.1871 127.842 52.0154 131.542 50.4976C139.196 47.3597 146.775 42.7355 154.546 42.0867C154.893 42.0552 155.231 42.0356 155.578 42.0238C156.007 42.0081 156.428 42.0081 156.853 42.0159H156.94C167.916 42.2833 179.101 50.2813 190.073 50.7649C190.113 50.7689 190.148 50.7689 190.18 50.7689C190.625 50.7885 191.07 50.7964 191.514 50.7846C203.408 50.5644 215.215 40.7104 227.109 40.7104C227.227 40.7104 227.337 40.7105 227.455 40.7144H227.463C237.998 40.8835 248.459 48.6337 258.978 50.4228C260.223 50.6352 261.463 50.7649 262.707 50.7846H262.734C274.482 50.9812 286.49 41.7957 298.242 42.0159C298.273 42.012 298.301 42.012 298.332 42.0159C298.435 42.0159 298.545 42.0159 298.647 42.0199C299.151 42.0356 299.651 42.0749 300.159 42.126C309.718 43.1209 319.013 49.9942 328.513 52.499C330.281 52.9669 332.064 53.2854 333.852 53.3837C334.135 53.3955 334.423 53.4113 334.706 53.4152C334.97 53.4191 335.238 53.4191 335.501 53.4152C346.623 53.2383 358.234 45.4841 369.316 45.9048C369.576 45.9087 369.836 45.9245 370.092 45.9441C370.985 46.007 371.879 46.1289 372.765 46.302C383.04 48.2602 392.784 56.6081 403.08 58.354C403.67 58.4562 404.261 58.5349 404.859 58.5899C405.438 58.641 406.028 58.6764 406.623 58.6843C407.56 58.7118 408.517 58.6882 409.493 58.6214C411.099 58.527 412.749 58.3186 414.422 58.0473C415.843 57.8153 417.241 57.7641 418.599 57.8742C420.249 58.0079 421.835 58.3815 423.324 58.9556C429.012 61.1576 433.253 66.3244 433.953 72.4743C434.142 74.1022 434.079 75.8048 433.725 77.5389C433.646 77.9164 433.587 78.2939 433.544 78.6556C433.414 79.8392 433.54 81.0503 433.839 82.285C435.375 88.6354 441.504 95.4891 440.827 101.592C440.024 108.882 429.52 115.095 428.713 122.385H428.705Z" fill="url(#paint7_linear_99_49710)"/>
<path opacity="0.2" d="M423.871 166.114C423.068 173.405 431.957 181.76 431.15 189.047C430.347 196.337 419.843 202.554 419.036 209.844C418.276 216.737 426.182 224.585 426.363 231.577C426.375 231.978 426.359 232.379 426.316 232.776C425.961 235.973 423.741 238.969 421.288 241.946C418.154 245.736 414.654 249.488 414.202 253.573C413.398 260.863 422.288 269.215 421.481 276.505C420.678 283.796 410.174 290.012 409.367 297.302C409.351 297.483 409.332 297.668 409.32 297.853C408.647 309.052 397.792 316.578 387.147 313.007C385.241 312.366 383.371 311.914 381.564 311.745C371.324 310.805 360.269 319.672 350.021 318.921C339.761 318.166 330.131 307.782 319.864 307.223C309.596 306.657 298.88 315.921 288.604 315.544C278.329 315.17 268.321 305.147 258.041 304.958C247.762 304.773 237.392 314.419 227.109 314.419C216.825 314.419 206.459 304.773 196.18 304.958C185.9 305.147 175.893 315.17 165.617 315.544C155.341 315.921 144.625 306.661 134.357 307.223C124.09 307.786 114.452 318.166 104.2 318.921C93.9522 319.672 82.8972 310.805 72.6571 311.745C70.8501 311.914 68.98 312.366 67.0745 313.007C56.4289 316.578 45.5707 309.052 44.8975 297.853C44.8896 297.668 44.8699 297.483 44.8503 297.302C44.0471 290.012 33.5433 283.796 32.7362 276.505C32.5039 274.382 33.0905 272.164 34.0275 269.915C34.4724 268.838 34.996 267.752 35.5472 266.663C37.7952 262.216 40.4763 257.725 40.0196 253.573C39.2165 246.283 28.7126 240.066 27.9055 232.776C27.5433 229.485 29.1614 225.969 30.9685 222.434C64.9328 234.459 109.736 266.183 202.68 261.882C307.12 257.049 298.667 194.752 435.823 142.27C436.028 143.304 436.099 144.322 435.989 145.321C435.186 152.607 424.682 158.824 423.875 166.114H423.871Z" fill="#96440C"/>
<path d="M437.383 145.663C436.906 149.961 433.072 153.885 429.827 157.884C399.552 155.301 363.793 151.298 342.407 145.636C341.08 145.282 341.403 143.332 342.769 143.406C379.462 145.53 412.147 144.708 437.308 143.107C437.442 143.969 437.477 144.822 437.386 145.663H437.383Z" fill="url(#paint8_linear_99_49710)"/>
<path d="M426.367 231.573C426.379 231.974 426.363 232.375 426.32 232.772C425.965 235.969 423.745 238.965 421.292 241.942C378.95 242.319 260.408 243.302 232.66 242.76C179.633 241.726 88.2122 261.575 34.0276 269.911C34.4725 268.834 34.9961 267.748 35.5473 266.659C75.5469 258.775 185.463 238.218 250.947 236.716C322.628 235.068 402.619 232.387 426.367 231.573Z" fill="url(#paint9_linear_99_49710)"/>
<path d="M128.216 282.828C128.216 282.828 194.711 288.546 251.971 285.384C222.841 294.039 160.212 293.484 128.216 282.828Z" fill="url(#paint10_linear_99_49710)"/>
<path d="M120.606 167.097C105.271 174.372 54.4722 171.277 30.1575 169.292C30.3819 168.214 30.4646 167.152 30.3465 166.114C30.0827 163.72 28.7756 161.443 27.1063 159.206C41.4369 162.571 82.4248 170.974 120.606 167.097Z" fill="url(#paint11_linear_99_49710)"/>
<path d="M431.855 192.118C430.398 195.739 427.009 199.148 424.28 202.62C382.485 210.74 261.797 219.08 230.195 209.395C196.168 198.967 69.6808 200.941 69.6808 200.941C69.6808 200.941 147.46 192.35 239.884 205.837C328.143 218.715 360.1 192.53 431.855 192.114V192.118Z" fill="url(#paint12_linear_99_49710)"/>
<path d="M57.1297 108.143C57.1297 108.143 111.456 89.1938 212.53 108.143C276.498 120.136 298.663 113.88 298.663 113.88C298.663 113.88 233.687 120.891 198.518 111.112C163.349 101.332 57.1257 108.143 57.1257 108.143H57.1297Z" fill="url(#paint13_linear_99_49710)"/>
<path d="M435.186 82.2732C417.654 82.4069 302.12 82.8237 248.79 70.7874C302.99 82.3007 397.497 75.6908 435.312 72.3563C435.528 74.059 435.477 75.8441 435.103 77.6608C435.024 78.0461 434.969 78.4158 434.926 78.7815C434.8 79.9218 434.914 81.0857 435.186 82.2732Z" fill="url(#paint14_linear_99_49710)"/>
<path d="M133.542 94.7932L96.6294 101.065L59.8423 107.309L54.0864 108.288C49.5077 109.067 46.1101 104.148 48.4644 100.145L65.5037 71.2042C66.854 68.9157 66.354 65.9902 64.3265 64.2719L55.9486 57.194L55.8659 57.1193H55.862L54.0746 55.6093C62.0431 51.8974 69.8895 46.7856 78.1138 46.184C79.3736 46.0936 80.6413 46.1054 81.9169 46.2115H81.9248C82.6571 46.0857 83.3933 45.9953 84.1295 45.9402C85.2555 45.8576 86.3854 45.8616 87.5271 45.9402C87.6295 45.9481 87.7397 45.9559 87.846 45.9677C97.0546 46.6244 106.566 51.9643 115.814 53.2029C115.885 53.2107 115.952 53.2186 116.023 53.2304C117.444 53.3956 118.854 53.4585 120.255 53.3838C123.976 52.5737 127.665 51.052 131.35 49.3808L131.539 50.4897L131.57 50.6666L138.007 88.4978C138.515 91.4666 136.515 94.2859 133.539 94.7892L133.542 94.7932Z" fill="url(#paint15_linear_99_49710)"/>
<path d="M406.308 108.292L326.852 94.7971C323.879 94.2938 321.876 91.4744 322.383 88.5057L323.903 79.5915L324.301 77.2558L328.513 52.5069L328.557 52.267L328.722 51.2919C330.974 52.1845 333.234 52.9394 335.501 53.4231C346.623 53.2461 358.233 45.4919 369.316 45.9127C369.97 45.9048 370.619 45.9205 371.273 45.9677C372.009 46.0228 372.745 46.1132 373.477 46.239C374.832 46.1172 376.182 46.0975 377.525 46.1958C386.824 46.88 395.647 53.3248 404.694 56.9935L403.257 58.2085L403.076 58.3579L396.072 64.2797C394.044 65.9941 393.544 68.9236 394.895 71.2121L397.229 75.1757L401.351 82.1788L411.934 100.149C414.284 104.148 410.891 109.071 406.312 108.292H406.308Z" fill="url(#paint16_linear_99_49710)"/>
<path d="M138.657 88.6551L63.4053 101.438C59.0707 102.174 55.8502 97.5142 58.0785 93.7275L74.2162 66.3166C75.4918 64.15 75.0194 61.3778 73.0981 59.7538L48.7952 39.2123C45.4369 36.3733 46.933 30.9116 51.2676 30.1762L126.519 17.3929C129.334 16.9131 132.007 18.8084 132.487 21.6199L142.889 82.6979C143.369 85.5094 141.472 88.1793 138.657 88.659V88.6551Z" fill="url(#paint17_linear_99_49710)"/>
<path d="M137.735 83.2484L73.8225 94.105C69.4879 94.8403 66.2202 89.9016 68.417 85.9301L81.3933 62.4984C82.6531 60.2257 82.1531 57.3041 80.2122 55.5739L60.2084 37.7456C56.8187 34.7257 58.2675 28.9848 62.6021 28.2456L126.515 17.3889C129.33 16.9092 132.023 18.9303 132.531 21.8951L141.916 77.0002C142.42 79.969 140.55 82.7608 137.731 83.2405L137.735 83.2484Z" fill="#E3FFBB"/>
<path d="M141.519 78.3175C140.968 80.0909 139.539 81.4632 137.692 81.7738L76.3501 92.194C72.1966 92.9057 69.0391 88.0613 71.1415 84.1881L83.5272 61.3267C84.7319 59.1089 84.2398 56.2503 82.3776 54.5477L63.1061 37.0575C59.8502 34.1005 61.2164 28.4894 65.3817 27.7855L79.5154 25.379L126.724 17.3535C129.424 16.8974 132.019 18.8753 132.511 21.7811L141.696 75.6908C141.846 76.607 141.775 77.5074 141.519 78.3175Z" fill="#95D543"/>
<g opacity="0.25">
<path d="M141.519 78.3175C127.027 79.6347 112.582 81.5693 98.216 84.0977C94.1924 84.8016 90.3617 82.1474 89.594 78.1484C86.2318 60.5599 82.8775 42.9675 79.5193 25.379L126.728 17.3535C129.428 16.8974 132.023 18.8753 132.515 21.7811L141.7 75.6908C141.849 76.607 141.779 77.5074 141.523 78.3175H141.519Z" fill="#318063"/>
</g>
<path d="M321.742 88.6551L396.993 101.438C401.328 102.174 404.548 97.5142 402.32 93.7275L386.182 66.3166C384.907 64.15 385.379 61.3778 387.3 59.7538L411.603 39.2123C414.961 36.3733 413.465 30.9116 409.131 30.1762L333.879 17.3929C331.064 16.9131 328.391 18.8084 327.911 21.6199L317.509 82.6979C317.029 85.5094 318.927 88.1793 321.742 88.659V88.6551Z" fill="url(#paint18_linear_99_49710)"/>
<path d="M322.663 83.2484L386.576 94.105C390.91 94.8403 394.178 89.9016 391.981 85.9301L379.005 62.4984C377.745 60.2257 378.245 57.3041 380.186 55.5739L400.19 37.7456C403.58 34.7257 402.131 28.9848 397.796 28.2456L333.883 17.3889C331.068 16.9092 328.376 18.9303 327.868 21.8951L318.482 77.0002C317.978 79.969 319.848 82.7608 322.667 83.2405L322.663 83.2484Z" fill="#E3FFBB"/>
<path d="M318.876 78.3175C319.427 80.0909 320.856 81.4632 322.702 81.7738L384.044 92.194C388.198 92.9057 391.355 88.0613 389.253 84.1881L376.867 61.3267C375.663 59.1089 376.155 56.2503 378.017 54.5477L397.288 37.0575C400.544 34.1005 399.178 28.4894 395.013 27.7855L380.879 25.379L333.671 17.3535C330.97 16.8974 328.376 18.8753 327.883 21.7811L318.698 75.6908C318.549 76.607 318.62 77.5074 318.876 78.3175Z" fill="#95D543"/>
<g opacity="0.25">
<path d="M318.876 78.3175C333.368 79.6347 347.812 81.5693 362.178 84.0977C366.202 84.8016 370.033 82.1474 370.8 78.1484C374.163 60.5599 377.517 42.9675 380.875 25.379L333.667 17.3535C330.966 16.8974 328.372 18.8753 327.879 21.7811L318.695 75.6908C318.545 76.607 318.616 77.5074 318.872 78.3175H318.876Z" fill="#318063"/>
</g>
<path d="M355.025 71.4008C272.396 57.5518 187.999 57.5518 105.37 71.4008C100.952 72.1401 96.6334 68.3062 95.7121 62.758C93.5665 49.7505 91.4051 36.6132 89.2161 23.3501C88.2634 17.6131 91.3342 12.2339 96.094 11.4199C184.845 -3.80139 275.549 -3.80139 364.301 11.4199C369.056 12.2339 372.131 17.6131 371.178 23.3501C368.993 36.6171 366.828 49.7544 364.682 62.758C363.761 68.3062 359.442 72.1401 355.025 71.4008Z" fill="url(#paint19_linear_99_49710)"/>
<path d="M368.556 22.2137C368.127 24.7184 367.706 27.2193 367.285 29.7083C365.568 39.7903 363.867 49.7858 362.182 59.7066C361.277 64.9875 357.037 68.6326 352.702 67.9287C271.612 54.7521 188.782 54.7521 107.692 67.9287C103.354 68.6326 99.1176 64.9836 98.212 59.7066C97.0191 52.7035 95.8262 45.6532 94.6215 38.5674C93.6963 33.1411 92.7712 27.6872 91.8381 22.2097C90.905 16.7519 93.9168 11.6362 98.5861 10.8616C185.688 -3.62052 274.707 -3.62052 361.808 10.8616C366.474 11.6362 369.489 16.7519 368.556 22.2097V22.2137Z" fill="#E3FFBB"/>
<path d="M352.706 65.0701C271.612 52.4518 188.786 52.4518 107.692 65.0701C103.358 65.7425 99.1175 62.2507 98.216 57.194C96.1136 45.3386 93.9877 33.3691 91.842 21.2778C90.905 16.052 93.9207 11.1486 98.59 10.4054C185.692 -3.46717 274.707 -3.46717 361.808 10.4054C366.478 11.1486 369.493 16.052 368.56 21.2778C366.415 33.3691 364.289 45.3386 362.186 57.194C361.281 62.2507 357.045 65.7425 352.71 65.0701H352.706Z" fill="url(#paint20_linear_99_49710)"/>
<g opacity="0.25">
<path d="M367.285 29.7083C365.568 39.7903 363.867 49.7858 362.182 59.7066C361.277 64.9875 357.037 68.6326 352.702 67.9287C271.612 54.7521 188.782 54.7521 107.692 67.9287C103.354 68.6326 99.1176 64.9836 98.2121 59.7066C97.0192 52.7035 95.8263 45.6532 94.6216 38.5674C134.066 16.7676 199.4 41.375 275.549 46.0621C330.596 49.4516 355.749 39.8336 367.285 29.7044V29.7083Z" fill="#318063"/>
</g>
<defs>
<linearGradient id="paint0_linear_99_49710" x1="-8.37249" y1="332.025" x2="124.467" y2="246.172" gradientUnits="userSpaceOnUse">
<stop stop-color="#95D543"/>
<stop offset="0.26" stop-color="#72B74E"/>
<stop offset="0.58" stop-color="#4E9959"/>
<stop offset="0.83" stop-color="#388660"/>
<stop offset="1" stop-color="#318063"/>
</linearGradient>
<linearGradient id="paint1_linear_99_49710" x1="-24.6637" y1="114.464" x2="85.0963" y2="103.202" gradientUnits="userSpaceOnUse">
<stop stop-color="#95D543"/>
<stop offset="0.26" stop-color="#72B74E"/>
<stop offset="0.58" stop-color="#4E9959"/>
<stop offset="0.83" stop-color="#388660"/>
<stop offset="1" stop-color="#318063"/>
</linearGradient>
<linearGradient id="paint2_linear_99_49710" x1="491.367" y1="332.025" x2="358.528" y2="246.172" gradientUnits="userSpaceOnUse">
<stop stop-color="#95D543"/>
<stop offset="0.26" stop-color="#72B74E"/>
<stop offset="0.58" stop-color="#4E9959"/>
<stop offset="0.83" stop-color="#388660"/>
<stop offset="1" stop-color="#318063"/>
</linearGradient>
<linearGradient id="paint3_linear_99_49710" x1="507.659" y1="114.464" x2="397.903" y2="103.202" gradientUnits="userSpaceOnUse">
<stop stop-color="#95D543"/>
<stop offset="0.26" stop-color="#72B74E"/>
<stop offset="0.58" stop-color="#4E9959"/>
<stop offset="0.83" stop-color="#388660"/>
<stop offset="1" stop-color="#318063"/>
</linearGradient>
<linearGradient id="paint4_linear_99_49710" x1="242.677" y1="357.864" x2="243.839" y2="280.294" gradientUnits="userSpaceOnUse">
<stop stop-color="#95D543"/>
<stop offset="0.26" stop-color="#72B74E"/>
<stop offset="0.58" stop-color="#4E9959"/>
<stop offset="0.83" stop-color="#388660"/>
<stop offset="1" stop-color="#318063"/>
</linearGradient>
<linearGradient id="paint5_linear_99_49710" x1="132.822" y1="-76.3414" x2="250.724" y2="222.636" gradientUnits="userSpaceOnUse">
<stop stop-color="#F8A45B"/>
<stop offset="0.22" stop-color="#C87E40"/>
<stop offset="0.47" stop-color="#975824"/>
<stop offset="0.7" stop-color="#733C10"/>
<stop offset="0.88" stop-color="#5D2B04"/>
<stop offset="1" stop-color="#562500"/>
</linearGradient>
<linearGradient id="paint6_linear_99_49710" x1="308.128" y1="374.939" x2="186.479" y2="45.1313" gradientUnits="userSpaceOnUse">
<stop stop-color="#F8A45B"/>
<stop offset="0.39" stop-color="#CB7837"/>
<stop offset="0.79" stop-color="#A45218"/>
<stop offset="1" stop-color="#96440C"/>
</linearGradient>
<linearGradient id="paint7_linear_99_49710" x1="187.822" y1="43.0658" x2="311.84" y2="401.339" gradientUnits="userSpaceOnUse">
<stop stop-color="#F8A45B"/>
<stop offset="0.39" stop-color="#CB7837"/>
<stop offset="0.79" stop-color="#A45218"/>
<stop offset="1" stop-color="#96440C"/>
</linearGradient>
<linearGradient id="paint8_linear_99_49710" x1="389.946" y1="134.842" x2="388.465" y2="167.459" gradientUnits="userSpaceOnUse">
<stop offset="0.38" stop-color="#96440C"/>
<stop offset="0.4" stop-color="#9A480F"/>
<stop offset="0.5" stop-color="#B76427"/>
</linearGradient>
<linearGradient id="paint9_linear_99_49710" x1="229.798" y1="234.361" x2="230.19" y2="250.569" gradientUnits="userSpaceOnUse">
<stop offset="0.38" stop-color="#96440C"/>
<stop offset="0.4" stop-color="#9A480F"/>
<stop offset="0.5" stop-color="#B76427"/>
</linearGradient>
<linearGradient id="paint10_linear_99_49710" x1="190.089" y1="284.149" x2="189.3" y2="295.219" gradientUnits="userSpaceOnUse">
<stop offset="0.38" stop-color="#96440C"/>
<stop offset="0.4" stop-color="#9A480F"/>
<stop offset="0.5" stop-color="#B76427"/>
</linearGradient>
<linearGradient id="paint11_linear_99_49710" x1="73.6335" y1="165.186" x2="72.4513" y2="176.059" gradientUnits="userSpaceOnUse">
<stop offset="0.38" stop-color="#96440C"/>
<stop offset="0.4" stop-color="#9A480F"/>
<stop offset="0.5" stop-color="#B76427"/>
</linearGradient>
<linearGradient id="paint12_linear_99_49710" x1="250.868" y1="193.974" x2="249.686" y2="223.921" gradientUnits="userSpaceOnUse">
<stop offset="0.38" stop-color="#96440C"/>
<stop offset="0.4" stop-color="#9A480F"/>
<stop offset="0.5" stop-color="#B76427"/>
</linearGradient>
<linearGradient id="paint13_linear_99_49710" x1="179.574" y1="97.3962" x2="176.809" y2="119.932" gradientUnits="userSpaceOnUse">
<stop offset="0.38" stop-color="#96440C"/>
<stop offset="0.4" stop-color="#9A480F"/>
<stop offset="0.5" stop-color="#B76427"/>
</linearGradient>
<linearGradient id="paint14_linear_99_49710" x1="342.116" y1="74.6409" x2="342.116" y2="83.2405" gradientUnits="userSpaceOnUse">
<stop offset="0.38" stop-color="#96440C"/>
<stop offset="0.4" stop-color="#9A480F"/>
<stop offset="0.5" stop-color="#B76427"/>
</linearGradient>
<linearGradient id="paint15_linear_99_49710" x1="92.8932" y1="29.1382" x2="92.8932" y2="201.476" gradientUnits="userSpaceOnUse">
<stop offset="0.38" stop-color="#96440C"/>
<stop offset="0.4" stop-color="#9A480F"/>
<stop offset="0.5" stop-color="#B76427"/>
</linearGradient>
<linearGradient id="paint16_linear_99_49710" x1="367.501" y1="29.1382" x2="367.501" y2="201.476" gradientUnits="userSpaceOnUse">
<stop offset="0.38" stop-color="#96440C"/>
<stop offset="0.4" stop-color="#9A480F"/>
<stop offset="0.5" stop-color="#B76427"/>
</linearGradient>
<linearGradient id="paint17_linear_99_49710" x1="75.228" y1="32.6102" x2="94.8304" y2="59.305" gradientUnits="userSpaceOnUse">
<stop stop-color="#318063"/>
<stop offset="0.35" stop-color="#22664C"/>
<stop offset="0.75" stop-color="#165039"/>
<stop offset="1" stop-color="#124933"/>
</linearGradient>
<linearGradient id="paint18_linear_99_49710" x1="385.17" y1="32.6102" x2="365.568" y2="59.305" gradientUnits="userSpaceOnUse">
<stop stop-color="#318063"/>
<stop offset="0.35" stop-color="#22664C"/>
<stop offset="0.75" stop-color="#165039"/>
<stop offset="1" stop-color="#124933"/>
</linearGradient>
<linearGradient id="paint19_linear_99_49710" x1="230.199" y1="-35.636" x2="230.199" y2="68.7781" gradientUnits="userSpaceOnUse">
<stop stop-color="#318063"/>
<stop offset="0.35" stop-color="#22664C"/>
<stop offset="0.75" stop-color="#165039"/>
<stop offset="1" stop-color="#124933"/>
</linearGradient>
<linearGradient id="paint20_linear_99_49710" x1="230.199" y1="68.3809" x2="230.199" y2="-38.2548" gradientUnits="userSpaceOnUse">
<stop stop-color="#95D543"/>
<stop offset="0.03" stop-color="#98D648"/>
<stop offset="0.35" stop-color="#B8E879"/>
<stop offset="0.63" stop-color="#CFF49D"/>
<stop offset="0.85" stop-color="#DDFCB3"/>
<stop offset="1" stop-color="#E3FFBB"/>
</linearGradient>
</defs>
</svg>
