<svg width="147" height="67" viewBox="0 0 147 67" fill="none" xmlns="http://www.w3.org/2000/svg">
<path d="M120.756 54.9361C118.038 54.6974 115.454 52.4218 112.732 52.2616C110.011 52.1014 107.205 54.0597 104.48 53.9781C101.756 53.8995 99.0551 51.7781 96.3305 51.7781C93.6059 51.7781 90.9053 53.8965 88.1806 53.9781C85.456 54.0567 82.6505 52.1014 79.9289 52.2616C77.2072 52.4218 74.6235 54.6974 71.9049 54.9361C69.9686 55.1023 68.1252 52.9536 66.2638 52.6394C64.3605 52.316 61.9805 53.7424 60.2301 52.9657C58.4586 52.18 57.7482 49.3786 56.2136 48.1819C54.6759 46.9791 51.9363 47.0758 50.7224 45.5104C49.5174 43.9571 50.1409 41.1436 49.3346 39.282C48.5523 37.4778 46.1184 36.1512 45.7857 34.1053C45.7827 34.075 45.7617 33.9451 45.7587 33.9179C45.7557 33.8877 45.7377 33.7728 45.7318 33.7426C45.7288 33.7124 45.7108 33.6127 45.7078 33.5824C45.3541 31.4066 47.2844 29.2247 47.5931 27.1244C47.9078 24.9938 46.6969 22.3012 47.6171 20.3641C48.5193 18.4632 51.2889 17.8588 52.6977 16.2541C54.0585 14.7069 54.3972 11.7332 56.1596 10.5667C57.8412 9.45154 60.5148 10.4035 62.5051 9.7205C64.3814 9.07681 65.997 6.6199 68.0982 6.43556C71.2215 6.16055 74.4796 8.00399 77.6059 7.81965C80.7351 7.6353 83.7805 5.42016 86.9127 5.32949C90.045 5.23883 93.2042 7.26964 96.3335 7.26964C99.4628 7.26964 102.625 5.23581 105.754 5.32949C108.884 5.42016 111.932 7.6353 115.061 7.81965C118.187 8.00399 121.449 6.15753 124.569 6.43556C126.667 6.6199 128.283 9.07681 130.159 9.7205C132.149 10.4035 134.823 9.45154 136.504 10.5667C138.267 11.7362 138.609 14.7069 139.966 16.2541C141.375 17.8588 144.145 18.4632 145.047 20.3641C145.967 22.3012 144.756 24.9908 145.071 27.1244C145.38 29.2247 147.313 31.4066 146.956 33.5824C146.953 33.6127 146.935 33.7124 146.932 33.7426C146.929 33.7728 146.911 33.8877 146.905 33.9179C146.902 33.9481 146.881 34.0781 146.878 34.1053C146.546 36.1512 144.112 37.4778 143.329 39.285C142.523 41.1466 143.147 43.9601 141.942 45.5134C140.725 47.0818 137.988 46.9821 136.45 48.1849C134.919 49.3846 134.205 52.183 132.434 52.9688C130.683 53.7454 128.304 52.319 126.4 52.6424C124.536 52.9567 122.692 55.1053 120.759 54.9391L120.756 54.9361Z" fill="url(#paint0_linear_99_99)"/>
<path opacity="0.5" d="M144.505 31.5517C144.499 31.5759 144.484 31.6696 144.481 31.6998C144.481 31.7239 144.46 31.8327 144.457 31.863C144.451 31.8871 144.436 32.011 144.433 32.0352C144.193 33.4344 142.841 34.474 141.84 35.5921C141.48 35.988 141.168 36.399 140.968 36.8402C140.746 37.3238 140.635 37.8798 140.566 38.4631C140.383 39.9439 140.458 41.5848 139.613 42.6244C138.426 44.078 135.755 43.9843 134.254 45.1025C132.761 46.2146 132.065 48.8135 130.336 49.5418C128.627 50.2641 126.304 48.9435 124.446 49.2396C122.63 49.5328 120.834 51.5273 118.943 51.3732C116.293 51.1496 113.769 49.0372 111.114 48.8891C108.458 48.741 105.718 50.5572 103.06 50.4817C100.398 50.4061 97.7694 48.4418 95.1078 48.4418C92.4461 48.4418 89.8174 50.4061 87.1557 50.4817C84.494 50.5572 81.7574 48.741 79.1017 48.8891C76.4461 49.0372 73.9223 51.1496 71.2726 51.3732C69.3812 51.5273 67.5858 49.5328 65.7694 49.2396C63.908 48.9435 61.5881 50.2641 59.8796 49.5418C58.1531 48.8135 57.4547 46.2146 55.962 45.1025C54.4603 43.9843 51.7896 44.078 50.6027 42.6244C49.4247 41.1799 50.0332 38.5658 49.2479 36.8402C48.4835 35.166 46.1126 33.9361 45.7829 32.0352C45.7769 32.011 45.7619 31.8871 45.7589 31.863C45.7529 31.8327 45.7349 31.7239 45.7349 31.6998C45.7289 31.6696 45.7139 31.5759 45.7109 31.5517C45.3633 29.533 47.2486 27.5022 47.5513 25.559C47.8571 23.5796 46.6791 21.0804 47.5723 19.2823C48.4565 17.5144 51.1542 16.9553 52.53 15.4654C53.8548 14.03 54.1905 11.2678 55.911 10.1859C57.5506 9.15241 60.1583 10.0318 62.1006 9.40022C63.932 8.80488 65.5086 6.52627 67.5588 6.35099C70.6012 6.09714 73.7844 7.81063 76.8357 7.63838C79.8901 7.46914 82.8635 5.41114 85.9178 5.32653C88.9721 5.24191 92.0534 7.12766 95.1107 7.12766C98.1681 7.12766 101.252 5.24191 104.304 5.32653C107.358 5.41114 110.331 7.46914 113.386 7.63838C116.44 7.81063 119.62 6.10017 122.663 6.35099C124.716 6.52325 126.289 8.80488 128.121 9.40022C130.066 10.0348 132.671 9.15241 134.31 10.1859C136.034 11.2709 136.367 14.03 137.692 15.4654C139.067 16.9553 141.765 17.5144 142.649 19.2823C142.928 19.8474 143.009 20.485 142.988 21.1529C142.973 21.8057 142.859 22.4856 142.766 23.1625C142.649 23.9936 142.556 24.8095 142.667 25.559C142.973 27.5052 144.855 29.533 144.508 31.5517H144.505Z" fill="url(#paint1_linear_99_99)"/>
<path d="M143.713 31.3371C143.707 31.3673 143.692 31.461 143.689 31.4852C143.683 31.5154 143.668 31.6182 143.665 31.6484C143.659 31.6726 143.641 31.7904 143.641 31.8206C143.395 33.241 142.008 34.2806 141.007 35.4138C140.677 35.7886 140.392 36.1754 140.206 36.5864C139.966 37.1152 139.853 37.7287 139.784 38.3694C139.628 39.7958 139.667 41.334 138.86 42.3222C137.682 43.7667 135.033 43.6791 133.543 44.7882C132.059 45.8912 131.37 48.469 129.655 49.1943C127.962 49.9075 125.654 48.5959 123.814 48.8921C122.006 49.1852 120.226 51.1586 118.349 51.0045C115.718 50.7869 113.221 48.6926 110.583 48.5446C107.948 48.3965 105.233 50.1976 102.598 50.1221C99.9574 50.0465 97.3467 48.0973 94.706 48.0973C92.0653 48.0973 89.4576 50.0465 86.8169 50.1221C84.1822 50.1976 81.4666 48.3935 78.8319 48.5446C76.1972 48.6926 73.6914 50.7869 71.0627 51.0045C69.1923 51.1586 67.4059 49.1822 65.6045 48.8921C63.7581 48.5959 61.4561 49.9075 59.7626 49.1943C58.0451 48.472 57.3587 45.8942 55.875 44.7852C54.9038 44.0689 53.4351 43.8544 52.2122 43.386C51.5558 43.1442 50.9653 42.8329 50.5576 42.3282C49.9642 41.5999 49.8263 40.5815 49.7334 39.5208C49.6464 38.4963 49.6015 37.4386 49.2118 36.5924C48.4565 34.9303 46.1005 33.7124 45.7768 31.8267C45.7708 31.7965 45.7528 31.6786 45.7528 31.6544C45.7468 31.6242 45.7289 31.5215 45.7229 31.4912C45.7229 31.4671 45.7079 31.3734 45.7019 31.3432C45.3572 29.3426 47.2276 27.3299 47.5273 25.3988C47.6682 24.4892 47.4943 23.4678 47.3504 22.4584C47.2635 21.8359 47.1886 21.2103 47.2126 20.618C47.2335 20.1073 47.3265 19.6177 47.5453 19.1735C48.4205 17.4207 51.1002 16.8676 52.464 15.3929C53.7798 13.9665 54.1095 11.2316 55.818 10.1527C57.4486 9.12823 60.0354 10.0046 61.9597 9.37603C63.7761 8.78069 65.3407 6.52022 67.3729 6.35098C69.573 6.16362 71.845 7.01281 74.0871 7.42985C74.9203 7.57793 75.7566 7.67161 76.5749 7.62326C77.7768 7.5598 78.9608 7.19715 80.1448 6.78313C81.9522 6.14851 83.7536 5.38393 85.585 5.33256C88.6184 5.24794 91.6757 7.11858 94.706 7.11858C97.7364 7.11858 100.797 5.24794 103.827 5.33256C106.86 5.41718 109.81 7.45705 112.84 7.62326C115.865 7.79551 119.021 6.09411 122.045 6.35098C124.077 6.52022 125.639 8.78069 127.455 9.37603C129.386 10.0046 131.972 9.12823 133.6 10.1527C135.303 11.2316 135.638 13.9695 136.954 15.3929C138.318 16.8676 140.998 17.4207 141.867 19.1735C142.76 20.9595 141.588 23.4345 141.891 25.3988C142.191 27.3329 144.061 29.3426 143.716 31.3432L143.713 31.3371Z" fill="url(#paint2_linear_99_99)"/>
<path d="M141.837 35.5948C141.477 35.9907 141.166 36.4017 140.965 36.8429C140.743 37.3264 140.632 37.8825 140.563 38.4657C122.51 40.0191 111.932 36.7371 111.405 36.5709C121.035 38.496 132.644 37.2872 141.837 35.5948Z" fill="url(#paint3_linear_99_99)"/>
<path d="M80.9511 41.1011C74.3329 43.8239 59.3969 43.6486 52.2122 43.3827C51.5558 43.1409 50.9653 42.8297 50.5577 42.325C49.9642 41.5967 49.8263 40.5782 49.7334 39.5175C54.8229 40.684 67.0313 42.8841 80.9511 41.1011Z" fill="url(#paint4_linear_99_99)"/>
<path d="M89.4697 46.3867C89.4697 46.3867 113.748 44.6641 116.305 43.7817C118.862 42.8992 116.56 43.7907 116.56 43.7907C116.56 43.7907 105.122 48.8466 89.4727 46.3867H89.4697Z" fill="url(#paint5_linear_99_99)"/>
<path d="M54.0016 21.9505C51.3459 22.3947 48.966 22.4763 47.3504 22.4552C47.2635 21.8326 47.1886 21.2071 47.2125 20.6147C48.8611 21.0711 51.3519 21.6604 54.0016 21.9505Z" fill="url(#paint6_linear_99_99)"/>
<path d="M80.1448 6.7767C78.3973 8.80448 71.3475 9.10367 66.5337 8.7108C68.5329 8.50228 71.7222 7.90392 74.0871 7.42342C74.9204 7.5715 75.7566 7.66518 76.5749 7.61683C77.7769 7.55336 78.9608 7.19072 80.1448 6.7767Z" fill="url(#paint7_linear_99_99)"/>
<path d="M142.982 21.1525C142.967 21.8053 142.853 22.4852 142.76 23.1622C139.502 22.6484 136.9 21.1525 136.9 21.1525H142.982Z" fill="url(#paint8_linear_99_99)"/>
<path d="M54.0551 46.5587C54.0551 46.5587 54.0311 46.5315 54.0191 46.5194C53.9082 46.4076 53.7584 46.3472 53.6025 46.3562L8.91758 48.2118C8.7797 48.2178 8.64482 48.2752 8.54591 48.375C8.50694 48.4142 7.58375 49.342 6.75048 50.4148C5.44062 52.1011 5.08693 53.2042 5.64145 53.8841C5.65643 53.9022 5.67142 53.9174 5.68641 53.9355C5.79132 54.0473 5.93519 54.1138 6.09105 54.1138C6.24392 54.1138 6.39079 54.0533 6.4987 53.9415C7.24504 53.1649 8.45598 52.5665 9.48109 52.1616C8.59686 53.0379 7.20908 54.1893 5.20383 55.2591C4.97603 55.38 4.86213 55.6399 4.92208 55.8938C4.94306 55.9784 4.98202 56.0509 5.03298 56.1144C5.13789 56.2413 5.29375 56.3199 5.4646 56.3199C7.25703 56.3199 8.75273 55.5613 10.1975 54.83C10.731 54.5611 11.2735 54.286 11.837 54.0443C11.0727 55.2954 10.8239 56.7006 10.8059 56.7943C10.779 56.9605 10.8239 57.1237 10.9258 57.2476C10.9768 57.3111 11.0427 57.3625 11.1177 57.3987C11.3425 57.5075 11.6122 57.4501 11.7771 57.2597C11.7831 57.2537 12.1428 56.8608 13.015 56.3501C12.4365 56.9726 12.0648 57.4682 12.0289 57.5166C11.873 57.7251 11.882 58.0122 12.0438 58.2117C12.0528 58.2237 12.0618 58.2328 12.0738 58.2449C12.2627 58.4444 12.5684 58.4746 12.7932 58.3205C14.3069 57.2718 16.2342 57.0754 17.3582 57.0603C16.486 58.665 16.0633 60.6927 16.0424 60.7955C16.0064 60.9677 16.0543 61.14 16.1592 61.2669C16.2372 61.3606 16.3451 61.4331 16.474 61.4603C16.7737 61.5238 17.0705 61.3334 17.1364 61.0312C17.1514 60.9708 17.5051 59.6169 19.5493 59.0609C18.8299 60.179 16.8217 61.5752 15.311 62.37C15.0532 62.506 14.9423 62.8142 15.0532 63.0862C15.0742 63.1376 15.1042 63.1859 15.1371 63.2282C15.278 63.4005 15.5148 63.4791 15.7366 63.4065C15.8235 63.3793 17.8108 62.7356 22.9303 60.6444C22.6036 61.7565 21.1109 62.5332 21.0929 62.5422C20.8232 62.6812 20.7093 63.0137 20.8412 63.2887C20.8621 63.331 20.8861 63.3672 20.9131 63.4035C21.069 63.5969 21.3387 63.6664 21.5755 63.5576C21.6474 63.5244 23.0982 62.8475 25.1664 60.8348C25.2683 62.2642 25.8048 64.0472 26.683 65.123C27.1626 65.7093 27.7081 66.0538 28.3076 66.1445C28.5174 66.1747 28.7273 66.084 28.8472 65.9088C28.967 65.7335 28.982 65.5038 28.8801 65.3165C28.3586 64.3524 28.2567 63.4549 28.5654 62.5755C29.051 61.1974 30.4478 60.1911 31.3769 59.6532C31.2151 60.7381 30.8164 62.4757 29.8693 63.6422C29.7164 63.8326 29.7014 64.0986 29.8333 64.3041C29.8453 64.3222 29.8573 64.3403 29.8723 64.3554C30.0101 64.5247 30.2349 64.6002 30.4478 64.5428C32.1832 64.0774 33.7599 62.0708 34.713 60.6021C34.743 62.4516 34.5152 64.9175 33.4361 66.0478C33.2713 66.22 33.2323 66.483 33.3402 66.6945C33.3582 66.7308 33.3792 66.764 33.4062 66.7942C33.5291 66.9453 33.7209 67.0239 33.9187 66.9937C38.0971 66.3772 39.5868 62.6057 40.1113 60.2546C40.411 60.7985 40.7917 61.4029 41.2533 61.968C42.2095 63.1406 43.2526 63.8266 44.3496 64.0049C44.5774 64.0412 44.8052 63.9324 44.9221 63.7299C45.039 63.5274 45.015 63.2736 44.8681 63.0922C44.1967 62.2702 44.1098 60.6142 44.2387 58.9913C44.4515 59.8647 44.7542 60.7653 45.1889 61.557C45.2068 61.5873 45.2248 61.6145 45.2458 61.6417C45.3207 61.7323 45.4197 61.7988 45.5336 61.829C45.6804 61.8683 45.8363 61.8472 45.9652 61.7656C46.157 61.6477 46.3279 61.4603 46.4807 61.2216C46.2559 62.1675 45.9442 63.1829 45.5126 64.2497C45.4346 64.4431 45.4706 64.6607 45.5995 64.8178C45.6085 64.8299 45.6205 64.842 45.6295 64.8511C45.7823 65.0112 46.0161 65.0656 46.226 64.9871C49.7269 63.6755 51.3784 58.6317 52.0049 56.066C52.3916 56.7188 52.9101 57.5166 53.5096 58.254C54.6426 59.6441 55.7306 60.3845 56.7438 60.46C56.9985 60.4782 57.2323 60.321 57.3133 60.0793C57.3762 59.8919 57.3372 59.6894 57.2143 59.5414C57.1784 59.499 57.1364 59.4598 57.0885 59.4295C56.8457 59.2694 56.6119 59.0518 56.3931 58.7858C53.8543 55.6701 54.178 47.0302 54.184 46.9425C54.19 46.8035 54.145 46.6675 54.0581 46.5617L54.0551 46.5587Z" fill="url(#paint9_linear_99_99)"/>
<path d="M51.9599 54.963C51.9599 54.963 50.677 62.9805 46.4447 64.5671C48.9056 58.4656 47.5058 54.1411 47.5058 54.1411C47.5058 54.1411 47.4668 60.6837 46.103 61.5148C44.8142 59.1788 44.7872 55.6551 44.7872 55.6551C44.7872 55.6551 43.2465 61.5511 44.9131 63.597C42.1015 63.1437 40.4889 58.6892 40.4889 58.6892C40.4889 58.6892 40.2222 65.658 34.725 66.4709C36.6733 64.4311 35.9869 59.076 35.9869 59.076C35.9869 59.076 33.7688 63.4731 31.329 64.1258C32.8666 62.234 33.0045 59.0156 33.0045 59.0156C33.0045 59.0156 27.2106 61.4151 29.4916 65.6489C27.4354 65.3407 26.5122 60.723 27.0787 59.5928C24.5759 62.3549 22.7205 63.2041 22.7205 63.2041C22.7205 63.2041 25.1993 61.947 24.7977 60.0854C19.2735 62.361 17.1663 63.0349 17.1663 63.0349C17.1663 63.0349 21.7733 60.6082 21.7853 58.6711C18.5991 59.0609 18.1465 61.1522 18.1465 61.1522C18.1465 61.1522 18.71 58.4172 19.849 56.9485C19.849 56.9485 16.5699 56.5708 14.1929 58.2178C14.1929 58.2178 16.2701 55.4254 18.3143 54.8029C14.4327 55.7729 13.1199 57.287 13.1199 57.287C13.1199 57.287 13.6684 54.0806 15.6886 53.3553C12.4605 53.8721 10.4282 56.1991 7.45483 56.2021C11.4503 54.0685 12.97 51.6328 12.97 51.6328C12.97 51.6328 9.61295 52.4638 8.0633 54.0806C7.17308 53.1166 10.7969 49.4871 10.7969 49.4871L53.7523 47.7041C53.7523 47.7041 53.3327 57.8974 56.7857 60.1821C54.4178 60.0098 51.9659 54.9661 51.9659 54.9661L51.9599 54.963Z" fill="#318063"/>
<path d="M14.8914 49.9557C14.7625 50.004 14.6217 50.007 14.4928 49.9557C14.4118 49.9254 6.37588 46.8974 2.64714 48.3479C2.32942 48.4718 2.05066 48.629 1.82286 48.8103C1.7779 48.8466 1.72994 48.8738 1.67599 48.8949C1.49914 48.9644 1.29532 48.9372 1.13946 48.8194C0.935634 48.6653 0.863697 48.3933 0.959613 48.1545C1.34628 47.2086 2.38637 46.4018 4.05291 45.752C4.93414 45.4105 5.84834 45.1627 6.58569 44.9995C4.36464 43.5973 0.135334 40.4302 0.000451966 36.6678C-0.00854017 36.4442 0.11735 36.2387 0.315177 36.142C0.330164 36.1359 0.342153 36.1299 0.35714 36.1238C0.545975 36.0513 0.764784 36.0876 0.920647 36.2205C1.78989 36.967 2.64714 37.5865 3.46842 38.0972C3.28858 37.8766 3.16868 37.653 3.11773 37.4324C3.08475 37.2843 3.11173 37.1271 3.19566 37.0002C3.2616 36.9005 3.35452 36.8249 3.46242 36.7826C3.4924 36.7705 3.52537 36.7615 3.55834 36.7554C4.43657 36.5862 5.38075 36.5802 6.26797 36.6497C4.78127 36.0181 3.19566 35.5829 2.21252 35.9637C1.99671 36.0483 1.75092 35.9878 1.59506 35.8126C1.43919 35.6373 1.40922 35.3865 1.51413 35.1779C2.02668 34.1837 2.99783 33.401 4.4036 32.854C5.08101 32.5911 5.77041 32.4158 6.37588 32.301C4.32867 31.0589 1.24436 28.4479 1.97872 24.2563C2.01169 24.0599 2.14658 23.8997 2.32642 23.8302C2.36239 23.8151 2.40135 23.806 2.44032 23.8C2.67711 23.7637 2.90791 23.8816 3.02181 24.0931C3.74718 25.4833 5.99821 26.4715 7.74868 27.0275C6.66662 25.6555 5.26984 23.5129 5.38075 21.7057C5.39274 21.4851 5.53361 21.2917 5.73744 21.2131C5.75842 21.2041 5.7794 21.198 5.80038 21.192C6.03418 21.1315 6.28296 21.2282 6.41185 21.4368C7.21215 22.709 8.72283 23.6368 9.69398 24.1354C9.47816 23.0777 8.97161 21.4217 7.82661 20.5241C7.09525 19.9529 6.22001 19.7686 5.14695 19.965C4.93714 20.0013 4.72732 19.9197 4.60143 19.7475C4.47554 19.5752 4.45456 19.3485 4.55047 19.1582C4.82324 18.6142 5.3178 18.2002 6.02219 17.9252C7.31106 17.4235 9.16044 17.4688 10.5362 17.8224C9.29233 15.2114 9.10949 13.6067 9.10349 13.5311C9.07652 13.2743 9.22638 13.0355 9.45718 12.9479C9.49915 12.9328 9.54111 12.9207 9.58907 12.9146C9.8918 12.8754 10.1676 13.0869 10.2125 13.3921C10.2125 13.4103 10.4763 15.0845 11.4235 15.7463C11.0638 10.1888 11.0848 8.08544 11.0848 7.99478C11.0848 7.75906 11.2346 7.55658 11.4414 7.47801C11.4924 7.45988 11.5464 7.44477 11.6003 7.44175C11.8881 7.42059 12.1458 7.62307 12.1938 7.91318C12.4695 9.60854 13.153 11.9718 13.9772 13.0083C14.1001 10.8385 12.8952 10.089 12.8802 10.08C12.6164 9.92283 12.5295 9.57832 12.6824 9.31238C12.7483 9.19755 12.8502 9.11595 12.9641 9.07062C13.117 9.01018 13.2938 9.01925 13.4437 9.10689C13.5336 9.15826 15.3081 10.2039 16.546 11.5396C16.8877 10.4547 17.3073 8.54781 16.7978 6.77388C16.7228 6.50794 16.8457 6.22689 17.0945 6.10903C17.1065 6.10299 17.1215 6.09694 17.1335 6.0909C17.3703 5.99722 17.646 6.08183 17.7929 6.2964C17.8289 6.34777 18.1766 6.8585 18.5812 7.60796C18.3744 6.61069 18.1166 6.14227 18.1136 6.13321C17.9907 5.91562 18.0237 5.64062 18.1975 5.4593C18.2545 5.39886 18.3234 5.35353 18.3984 5.32633C18.5452 5.26891 18.7131 5.27495 18.86 5.35353C18.9439 5.39886 20.1848 6.07881 21.126 7.20301C21.075 6.58651 20.9881 5.98211 20.9012 5.38375C20.6674 3.76998 20.4246 2.10182 20.9881 0.385309C21.0421 0.222119 21.1649 0.0951939 21.3178 0.0377754C21.3927 0.00755507 21.4767 -0.00453304 21.5606 0.00151101C21.8154 0.0226652 22.0252 0.213053 22.0672 0.469926C22.4448 2.72436 23.0923 4.4167 23.6378 5.53787C23.5808 4.42878 23.398 3.08096 22.9004 2.12298C22.8285 1.98698 22.8165 1.82682 22.8675 1.67874C22.9154 1.53368 23.0233 1.4128 23.1642 1.34934C23.1852 1.34027 23.2062 1.3312 23.2271 1.32214C24.0424 1.00482 24.9686 1.6878 26.1466 3.47382C26.8959 4.61011 27.4774 5.78568 27.5014 5.83403C27.5644 5.96095 27.5763 6.10601 27.5374 6.23898L15.2361 49.593C15.1942 49.7441 15.0893 49.871 14.9514 49.9405C14.9364 49.9496 14.9184 49.9557 14.9004 49.9617L14.8914 49.9557Z" fill="url(#paint10_linear_99_99)"/>
<path d="M24.6839 4.38347C25.718 6.37499 25.4452 9.85033 25.4452 9.85033C25.4452 9.85033 23.6288 7.63216 22.8765 3.13538C21.9413 5.98213 23.4939 8.65662 22.9664 11.9113C22.9184 9.74758 20.0709 8.21541 20.0709 8.21541C20.0709 8.21541 21.087 9.95005 20.7783 13.9694C20.8352 11.8207 18.86 8.95278 18.86 8.95278C19.6633 11.7421 18.2785 14.7641 18.2785 14.7641C17.2534 13.2108 14.8555 11.8116 14.8555 11.8116C14.8555 11.8116 16.6809 12.9026 16.0454 16.0757C14.226 15.4532 13.3897 10.2825 13.3897 10.2825C13.3897 10.2825 13.3628 12.5097 13.7674 18.5115C11.8881 18.312 11.4834 15.5438 11.4834 15.5438C11.4834 15.5438 11.6992 17.5867 13.5126 20.8505C12.6254 19.953 7.98847 19.3848 7.05329 21.2555C11.7562 20.4002 12.1968 26.7042 12.1968 26.7042C12.1968 26.7042 9.2084 25.5619 7.91054 23.4948C7.75767 26.0363 11.2017 29.5419 11.2017 29.5419C11.2017 29.5419 5.94426 28.5144 4.6344 26.0091C3.66925 31.5273 10.1466 33.9722 10.1466 33.9722C10.1466 33.9722 5.44369 34.1142 4.13384 36.6648C6.5827 35.7129 11.6513 39.0431 11.6513 39.0431C11.6513 39.0431 8.32417 37.9643 5.71945 38.4629C6.07314 40.0283 12.2208 42.1226 12.2208 42.1226C12.2208 42.1226 7.70672 42.1014 2.73706 37.8283C2.89892 42.3764 10.0447 46.1237 10.0447 46.1237C10.0447 46.1237 4.5235 46.8853 3.61829 49.0974C6.85546 46.5106 16.3212 50.1158 16.3212 50.1158L28.1458 8.44508C28.1458 8.44508 25.8678 3.83346 24.6809 4.38347H24.6839Z" fill="#318063"/>
<path d="M66.7101 31.3913C66.7101 33.9842 63.9165 36.1691 63.2811 38.5595C62.6246 41.0316 63.9435 44.3316 62.6996 46.4954C61.4407 48.6924 57.9367 49.185 56.1683 50.965C54.3998 52.748 53.9113 56.2807 51.7352 57.55C49.5891 58.8041 46.3159 57.4744 43.864 58.1362C41.4931 58.7739 39.326 61.5934 36.7543 61.5934C34.1825 61.5934 32.0154 58.7769 29.6445 58.1362C27.1926 57.4744 23.9195 58.8041 21.7734 57.55C19.5943 56.2777 19.1057 52.748 17.3402 50.965C15.5718 49.182 12.0679 48.6894 10.809 46.4954C9.56504 44.3316 10.8839 41.0316 10.2275 38.5595C9.59502 36.1691 6.79846 33.9842 6.79846 31.3913C6.79846 28.7984 9.59202 26.6134 10.2275 24.223C10.8839 21.751 9.56504 18.4509 10.809 16.2872C12.0679 14.0902 15.5718 13.5976 17.3402 11.8176C19.1087 10.0376 19.5973 6.50184 21.7734 5.23259C23.9195 3.97845 27.1926 5.30814 29.6445 4.64632C32.0154 4.00867 34.1825 1.18912 36.7543 1.18912C39.326 1.18912 41.4931 4.00565 43.864 4.64632C46.3159 5.30814 49.5891 3.97845 51.7352 5.23259C53.9143 6.50487 54.4028 10.0346 56.1683 11.8176C57.9337 13.6006 61.4407 14.0932 62.6996 16.2872C63.9435 18.4509 62.6246 21.751 63.2811 24.223C63.9135 26.6134 66.7101 28.7984 66.7101 31.3913Z" fill="url(#paint11_linear_99_99)"/>
<path d="M65.2084 29.8801C65.2084 30.4301 65.0765 30.962 64.8607 31.4788C64.591 32.1376 64.1923 32.7752 63.7727 33.4038C63.0413 34.4978 62.247 35.5676 61.9533 36.6857C61.5486 38.2149 61.9353 40.0764 61.9323 41.7567C61.9293 42.6573 61.8124 43.5095 61.4018 44.2257C61.2789 44.4403 61.132 44.6367 60.9671 44.821C59.5404 46.4197 56.7049 46.9546 55.1972 48.4716C53.5186 50.164 53.0541 53.5214 50.9859 54.7272C48.9446 55.9179 45.8364 54.6577 43.5074 55.2863C41.2564 55.8937 39.1972 58.5682 36.7543 58.5682C34.3114 58.5682 32.2522 55.8907 29.9982 55.2863C27.6692 54.6577 24.561 55.9209 22.5197 54.7272C20.4516 53.5214 19.987 50.164 18.3054 48.4716C16.6239 46.7793 13.2968 46.3109 12.1009 44.2257C12.0559 44.1441 12.0109 44.0595 11.972 43.9749C11.6752 43.3312 11.5793 42.5968 11.5733 41.8232C11.5583 40.1248 11.96 38.233 11.5493 36.6857C10.9469 34.4162 8.29419 32.34 8.29419 29.8771C8.29419 27.4141 10.9499 25.338 11.5493 23.0654C12.1728 20.7173 10.9199 17.5835 12.1009 15.5255C13.2998 13.4403 16.6269 12.9719 18.3054 11.2765C19.984 9.58416 20.4486 6.22669 22.5197 5.0209C24.561 3.83022 27.6692 5.09343 29.9982 4.46485C32.2522 3.85742 34.3114 1.18292 36.7543 1.18292C39.1972 1.18292 41.2564 3.86044 43.5074 4.46485C45.8394 5.09343 48.9476 3.83022 50.9859 5.0209C52.9971 6.19345 53.4917 9.39982 55.0593 11.1314C55.1043 11.1828 55.1492 11.2312 55.1972 11.2765C56.4051 12.4944 58.4583 13.0776 59.966 14.084C60.5595 14.4768 61.066 14.9362 61.4018 15.5255C62.5827 17.5835 61.3328 20.7173 61.9563 23.0654C62.5587 25.338 65.2114 27.4141 65.2114 29.8771L65.2084 29.8801Z" fill="url(#paint12_linear_99_99)"/>
<path d="M61.3628 36.2992C60.7483 38.6231 61.9832 41.7207 60.8173 43.7575C59.6333 45.8216 56.3422 46.284 54.6786 47.9582C53.0151 49.6324 52.5595 52.9506 50.5153 54.1443C48.495 55.3228 45.4227 54.0747 43.1207 54.6943C40.8937 55.2957 38.8555 57.9429 36.4396 57.9429C34.0237 57.9429 31.9855 55.2957 29.7584 54.6943C27.4534 54.0747 24.3811 55.3198 22.3639 54.1443C20.3167 52.9506 19.8581 49.6324 18.1975 47.9551C16.537 46.2809 13.2429 45.8186 12.0589 43.7575C10.8899 41.7207 12.1278 38.6231 11.5134 36.2992C10.9169 34.0538 8.29419 31.9988 8.29419 29.5661C8.29419 28.3029 9.00157 27.1424 9.7659 26.0031C10.2844 25.2295 10.827 24.4679 11.1927 23.6913C11.3275 23.4072 11.4384 23.1201 11.5134 22.833C12.1278 20.5091 10.8929 17.4115 12.0589 15.3746C13.2429 13.3106 16.534 12.8482 18.1975 11.174C19.8581 9.49982 20.3167 6.17861 22.3639 4.98491C24.3811 3.80632 27.4564 5.05441 29.7584 4.4349C31.9855 3.83352 34.0237 1.18924 36.4396 1.18924C38.8555 1.18924 40.8907 3.83654 43.1177 4.4349C45.4227 5.05441 48.495 3.80934 50.5153 4.98491C52.4696 6.12421 52.9761 9.19762 54.4628 10.9323C54.5318 11.0139 54.6037 11.0955 54.6816 11.171C55.8716 12.3707 57.9008 12.948 59.3905 13.9422C59.981 14.332 60.4846 14.7884 60.8173 15.3716C61.9862 17.4054 60.7483 20.5061 61.3628 22.83C61.9593 25.0754 64.585 27.1303 64.585 29.5661C64.585 32.0019 61.9593 34.0538 61.3628 36.2992Z" fill="url(#paint13_linear_99_99)"/>
<path d="M21.9023 24.9091C17.9368 25.5498 12.9971 25.858 9.76294 26.0031C10.2815 25.2294 10.824 24.4679 11.1897 23.6912C14.0132 23.8725 17.8738 24.0176 21.7914 23.8423C22.4658 23.8121 22.5677 24.8064 21.9023 24.9121V24.9091Z" fill="url(#paint14_linear_99_99)"/>
<path d="M64.8637 31.4818C64.5939 32.1406 64.1953 32.7783 63.7757 33.4069C33.4692 34.2772 18.7251 39.9224 11.969 43.9779C11.6722 43.3342 11.5763 42.5999 11.5703 41.8262C12.0619 41.24 12.6044 40.6053 13.2009 39.9073C29.9472 33.3374 55.9855 31.8143 64.8637 31.4788V31.4818Z" fill="url(#paint15_linear_99_99)"/>
<path d="M61.9323 41.763C61.9293 42.6636 61.8124 43.5158 61.4018 44.232C61.2789 44.4466 61.132 44.643 60.9672 44.8273C58.0447 45.5859 50.5662 47.3961 43.3635 48.1153C42.86 48.1667 42.7551 47.4172 43.2526 47.3266C50.6022 45.9606 57.9848 43.3103 61.9353 41.763H61.9323Z" fill="url(#paint16_linear_99_99)"/>
<path d="M59.963 14.0901C56.2133 15.0965 45.4917 17.7407 36.2658 17.78C35.6903 17.78 35.6093 16.9459 36.1758 16.8372C43.5344 15.444 51.0219 12.7302 55.0563 11.1376C55.1013 11.189 55.1463 11.2373 55.1942 11.2827C56.4022 12.5005 58.4554 13.0838 59.963 14.0901Z" fill="url(#paint17_linear_99_99)"/>
<defs>
<linearGradient id="paint0_linear_99_99" x1="74.6864" y1="-10.6057" x2="125.892" y2="84.0333" gradientUnits="userSpaceOnUse">
<stop stop-color="#F8A45B"/>
<stop offset="0.22" stop-color="#C87E40"/>
<stop offset="0.47" stop-color="#975824"/>
<stop offset="0.7" stop-color="#733C10"/>
<stop offset="0.88" stop-color="#5D2B04"/>
<stop offset="1" stop-color="#562500"/>
</linearGradient>
<linearGradient id="paint1_linear_99_99" x1="95.6832" y1="34.9485" x2="104.26" y2="91.8932" gradientUnits="userSpaceOnUse">
<stop stop-color="#F8A45B"/>
<stop offset="0.39" stop-color="#CB7837"/>
<stop offset="0.79" stop-color="#A45218"/>
<stop offset="1" stop-color="#96440C"/>
</linearGradient>
<linearGradient id="paint2_linear_99_99" x1="87.8031" y1="-7.37205" x2="99.6946" y2="55.9134" gradientUnits="userSpaceOnUse">
<stop stop-color="#F8A45B"/>
<stop offset="0.39" stop-color="#CB7837"/>
<stop offset="0.79" stop-color="#A45218"/>
<stop offset="1" stop-color="#96440C"/>
</linearGradient>
<linearGradient id="paint3_linear_99_99" x1="126.634" y1="36.3141" x2="126.86" y2="40.4027" gradientUnits="userSpaceOnUse">
<stop offset="0.38" stop-color="#96440C"/>
<stop offset="0.4" stop-color="#9A480F"/>
<stop offset="0.5" stop-color="#B76427"/>
</linearGradient>
<linearGradient id="paint4_linear_99_99" x1="65.3707" y1="39.4117" x2="65.1087" y2="47.148" gradientUnits="userSpaceOnUse">
<stop offset="0.38" stop-color="#96440C"/>
<stop offset="0.4" stop-color="#9A480F"/>
<stop offset="0.5" stop-color="#B76427"/>
</linearGradient>
<linearGradient id="paint5_linear_99_99" x1="103.497" y1="45.1869" x2="103.574" y2="47.7617" gradientUnits="userSpaceOnUse">
<stop offset="0.38" stop-color="#96440C"/>
<stop offset="0.4" stop-color="#9A480F"/>
<stop offset="0.5" stop-color="#B76427"/>
</linearGradient>
<linearGradient id="paint6_linear_99_99" x1="50.6955" y1="20.1735" x2="50.3786" y2="24.1441" gradientUnits="userSpaceOnUse">
<stop offset="0.38" stop-color="#96440C"/>
<stop offset="0.4" stop-color="#9A480F"/>
<stop offset="0.5" stop-color="#B76427"/>
</linearGradient>
<linearGradient id="paint7_linear_99_99" x1="73.2988" y1="7.26627" x2="73.4877" y2="9.38444" gradientUnits="userSpaceOnUse">
<stop offset="0.38" stop-color="#96440C"/>
<stop offset="0.4" stop-color="#9A480F"/>
<stop offset="0.5" stop-color="#B76427"/>
</linearGradient>
<linearGradient id="paint8_linear_99_99" x1="140.167" y1="19.844" x2="139.494" y2="24.3785" gradientUnits="userSpaceOnUse">
<stop offset="0.38" stop-color="#96440C"/>
<stop offset="0.4" stop-color="#9A480F"/>
<stop offset="0.5" stop-color="#B76427"/>
</linearGradient>
<linearGradient id="paint9_linear_99_99" x1="-13.8955" y1="56.6795" x2="72.6299" y2="56.6795" gradientUnits="userSpaceOnUse">
<stop stop-color="#95D543"/>
<stop offset="0.26" stop-color="#72B74E"/>
<stop offset="0.58" stop-color="#4E9959"/>
<stop offset="0.83" stop-color="#388660"/>
<stop offset="1" stop-color="#318063"/>
</linearGradient>
<linearGradient id="paint10_linear_99_99" x1="-13.8954" y1="24.9937" x2="72.6299" y2="24.9937" gradientUnits="userSpaceOnUse">
<stop stop-color="#95D543"/>
<stop offset="0.26" stop-color="#72B74E"/>
<stop offset="0.58" stop-color="#4E9959"/>
<stop offset="0.83" stop-color="#388660"/>
<stop offset="1" stop-color="#318063"/>
</linearGradient>
<linearGradient id="paint11_linear_99_99" x1="30.8554" y1="17.8888" x2="49.7807" y2="60.5332" gradientUnits="userSpaceOnUse">
<stop stop-color="#F8A45B"/>
<stop offset="0.22" stop-color="#C87E40"/>
<stop offset="0.47" stop-color="#975824"/>
<stop offset="0.7" stop-color="#733C10"/>
<stop offset="0.88" stop-color="#5D2B04"/>
<stop offset="1" stop-color="#562500"/>
</linearGradient>
<linearGradient id="paint12_linear_99_99" x1="82.2156" y1="64.848" x2="24.3983" y2="21.1045" gradientUnits="userSpaceOnUse">
<stop stop-color="#F8A45B"/>
<stop offset="0.39" stop-color="#CB7837"/>
<stop offset="0.79" stop-color="#A45218"/>
<stop offset="1" stop-color="#96440C"/>
</linearGradient>
<linearGradient id="paint13_linear_99_99" x1="28.7933" y1="14.0359" x2="50.2889" y2="56.9989" gradientUnits="userSpaceOnUse">
<stop stop-color="#F8A45B"/>
<stop offset="0.39" stop-color="#CB7837"/>
<stop offset="0.79" stop-color="#A45218"/>
<stop offset="1" stop-color="#96440C"/>
</linearGradient>
<linearGradient id="paint14_linear_99_99" x1="15.8836" y1="22.8632" x2="16.2157" y2="27.2387" gradientUnits="userSpaceOnUse">
<stop offset="0.38" stop-color="#96440C"/>
<stop offset="0.4" stop-color="#9A480F"/>
<stop offset="0.5" stop-color="#B76427"/>
</linearGradient>
<linearGradient id="paint15_linear_99_99" x1="37.6715" y1="32.7783" x2="38.5061" y2="38.9686" gradientUnits="userSpaceOnUse">
<stop offset="0.38" stop-color="#96440C"/>
<stop offset="0.4" stop-color="#9A480F"/>
<stop offset="0.5" stop-color="#B76427"/>
</linearGradient>
<linearGradient id="paint16_linear_99_99" x1="52.2358" y1="43.8996" x2="53.2404" y2="48.2628" gradientUnits="userSpaceOnUse">
<stop offset="0.38" stop-color="#96440C"/>
<stop offset="0.4" stop-color="#9A480F"/>
<stop offset="0.5" stop-color="#B76427"/>
</linearGradient>
<linearGradient id="paint17_linear_99_99" x1="47.1702" y1="12.3011" x2="48.4186" y2="18.2413" gradientUnits="userSpaceOnUse">
<stop offset="0.38" stop-color="#96440C"/>
<stop offset="0.4" stop-color="#9A480F"/>
<stop offset="0.5" stop-color="#B76427"/>
</linearGradient>
</defs>
</svg>
