<svg width="48" height="44" viewBox="0 0 48 44" fill="none" xmlns="http://www.w3.org/2000/svg">
<g filter="url(#filter0_d_99_9080)">
<path d="M40.8062 19.3677L40.8843 19.2442C43.3047 15.3459 44.3844 10.2795 42.6448 6.15251C41.2282 2.79191 37.6679 0.53414 34.0592 0.500388L40.8062 19.3677ZM40.8062 19.3677C37.1405 25.1654 32.8764 29.2154 29.5301 31.8151C27.8572 33.1147 26.415 34.0509 25.3936 34.6609C24.883 34.9659 24.4777 35.1892 24.2017 35.3356C24.1237 35.3769 24.0561 35.4121 23.9993 35.4412M40.8062 19.3677L23.9993 35.4412M23.9993 35.4412C23.9425 35.4121 23.8749 35.3769 23.7969 35.3356C23.5209 35.1892 23.1156 34.966 22.605 34.661C21.5836 34.0511 20.1414 33.115 18.4685 31.8154C15.1222 29.2158 10.8581 25.1658 7.19244 19.3678C4.71851 15.4534 3.59719 10.324 5.35527 6.15247M23.9993 35.4412L13.9409 0.500387C10.3315 0.5341 6.77191 2.79248 5.35527 6.15247M5.35527 6.15247L4.89455 5.95831L5.35527 6.15247ZM23.9983 7.35989L23.5562 6.51383C23.4043 6.22327 23.2403 5.93907 23.064 5.66188L23.9983 7.35989ZM23.9983 7.35989L24.442 6.51465M23.9983 7.35989L24.442 6.51465M24.442 6.51465C24.5948 6.22363 24.7591 5.93901 24.9348 5.66146M24.442 6.51465L24.9348 5.66146M24.9348 5.66146C26.917 2.54739 30.4503 0.468168 34.059 0.500386L24.9348 5.66146ZM13.941 0.500386C17.5492 0.467443 21.0825 2.5468 23.064 5.66179L13.941 0.500386Z" fill="url(#paint0_radial_99_9080)" stroke="white"/>
<path opacity="0.28" d="M14.0251 1.07941C17.13 1.07941 20.3071 2.78402 22.2502 5.48093C16.5648 5.58733 10.8914 6.37077 5.39133 7.83877C5.51473 7.34596 5.67529 6.85902 5.87703 6.38098L5.87711 6.38079C7.17421 3.30372 10.495 1.11185 13.9429 1.07941H13.9429H13.9431H13.9433H13.9434H13.9436H13.9438H13.9439H13.9441H13.9443H13.9444H13.9446H13.9448H13.9449H13.9451H13.9453H13.9454H13.9456H13.9458H13.9459H13.9461H13.9463H13.9464H13.9466H13.9468H13.9469H13.9471H13.9473H13.9474H13.9476H13.9478H13.9479H13.9481H13.9483H13.9484H13.9486H13.9488H13.9489H13.9491H13.9493H13.9494H13.9496H13.9498H13.9499H13.9501H13.9503H13.9504H13.9506H13.9508H13.9509H13.9511H13.9513H13.9514H13.9516H13.9518H13.9519H13.9521H13.9523H13.9524H13.9526H13.9528H13.9529H13.9531H13.9533H13.9534H13.9536H13.9538H13.9539H13.9541H13.9542H13.9544H13.9546H13.9547H13.9549H13.9551H13.9552H13.9554H13.9556H13.9557H13.9559H13.9561H13.9562H13.9564H13.9566H13.9567H13.9569H13.9571H13.9572H13.9574H13.9576H13.9577H13.9579H13.9581H13.9582H13.9584H13.9586H13.9587H13.9589H13.9591H13.9592H13.9594H13.9596H13.9597H13.9599H13.9601H13.9602H13.9604H13.9606H13.9607H13.9609H13.9611H13.9612H13.9614H13.9616H13.9617H13.9619H13.9621H13.9622H13.9624H13.9626H13.9627H13.9629H13.9631H13.9632H13.9634H13.9636H13.9637H13.9639H13.9641H13.9642H13.9644H13.9646H13.9647H13.9649H13.9651H13.9652H13.9654H13.9656H13.9657H13.9659H13.966H13.9662H13.9664H13.9665H13.9667H13.9669H13.967H13.9672H13.9674H13.9675H13.9677H13.9679H13.968H13.9682H13.9684H13.9685H13.9687H13.9689H13.969H13.9692H13.9694H13.9695H13.9697H13.9699H13.97H13.9702H13.9704H13.9705H13.9707H13.9709H13.971H13.9712H13.9714H13.9715H13.9717H13.9719H13.972H13.9722H13.9724H13.9725H13.9727H13.9729H13.973H13.9732H13.9734H13.9735H13.9737H13.9738H13.974H13.9742H13.9743H13.9745H13.9747H13.9748H13.975H13.9752H13.9753H13.9755H13.9757H13.9758H13.976H13.9762H13.9763H13.9765H13.9767H13.9768H13.977H13.9772H13.9773H13.9775H13.9777H13.9778H13.978H13.9782H13.9783H13.9785H13.9787H13.9788H13.979H13.9791H13.9793H13.9795H13.9796H13.9798H13.98H13.9801H13.9803H13.9805H13.9806H13.9808H13.981H13.9811H13.9813H13.9815H13.9816H13.9818H13.982H13.9821H13.9823H13.9825H13.9826H13.9828H13.983H13.9831H13.9833H13.9835H13.9836H13.9838H13.9839H13.9841H13.9843H13.9844H13.9846H13.9848H13.9849H13.9851H13.9853H13.9854H13.9856H13.9858H13.9859H13.9861H13.9863H13.9864H13.9866H13.9868H13.9869H13.9871H13.9873H13.9874H13.9876H13.9877H13.9879H13.9881H13.9882H13.9884H13.9886H13.9887H13.9889H13.9891H13.9892H13.9894H13.9896H13.9897H13.9899H13.9901H13.9902H13.9904H13.9906H13.9907H13.9909H13.991H13.9912H13.9914H13.9915H13.9917H13.9919H13.992H13.9922H13.9924H13.9925H13.9927H13.9929H13.993H13.9932H13.9934H13.9935H13.9937H13.9939H13.994H13.9942H13.9943H13.9945H13.9947H13.9948H13.995H13.9952H13.9953H13.9955H13.9957H13.9958H13.996H13.9962H13.9963H13.9965H13.9967H13.9968H13.997H13.9971H13.9973H13.9975H13.9976H13.9978H13.998H13.9981H13.9983H13.9985H13.9986H13.9988H13.999H13.9991H13.9993H13.9994H13.9996H13.9998H13.9999H14.0001H14.0003H14.0004H14.0006H14.0008H14.0009H14.0011H14.0013H14.0014H14.0016H14.0017H14.0019H14.0021H14.0022H14.0024H14.0026H14.0027H14.0029H14.0031H14.0032H14.0034H14.0036H14.0037H14.0039H14.004H14.0042H14.0044H14.0045H14.0047H14.0049H14.005H14.0052H14.0054H14.0055H14.0057H14.0059H14.006H14.0062H14.0063H14.0065H14.0067H14.0068H14.007H14.0072H14.0073H14.0075H14.0077H14.0078H14.008H14.0081H14.0083H14.0085H14.0086H14.0088H14.009H14.0091H14.0093H14.0095H14.0096H14.0098H14.0099H14.0101H14.0103H14.0104H14.0106H14.0108H14.0109H14.0111H14.0113H14.0114H14.0116H14.0117H14.0119H14.0121H14.0122H14.0124H14.0126H14.0127H14.0129H14.0131H14.0132H14.0134H14.0135H14.0137H14.0139H14.014H14.0142H14.0144H14.0145H14.0147H14.0148H14.015H14.0152H14.0153H14.0155H14.0157H14.0158H14.016H14.0162H14.0163H14.0165H14.0166H14.0168H14.017H14.0171H14.0173H14.0175H14.0176H14.0178H14.0179H14.0181H14.0183H14.0184H14.0186H14.0188H14.0189H14.0191H14.0193H14.0194H14.0196H14.0197H14.0199H14.0201H14.0202H14.0204H14.0206H14.0207H14.0209H14.021H14.0212H14.0214H14.0215H14.0217H14.0219H14.022H14.0222H14.0223H14.0225H14.0227H14.0228H14.023H14.0232H14.0233H14.0235H14.0236H14.0238H14.024H14.0241H14.0243H14.0245H14.0246H14.0248H14.0249H14.0251Z" fill="url(#paint1_linear_99_9080)" stroke="white"/>
<path opacity="0.28" d="M42.1224 6.38098C42.3241 6.85902 42.4847 7.34596 42.6081 7.83877C37.1081 6.37077 31.4347 5.58733 25.7492 5.48093C27.6923 2.78402 30.8694 1.07941 33.9743 1.07941H33.9745H33.9746H33.9748H33.975H33.9751H33.9753H33.9755H33.9756H33.9758H33.9759H33.9761H33.9763H33.9764H33.9766H33.9768H33.9769H33.9771H33.9772H33.9774H33.9776H33.9777H33.9779H33.9781H33.9782H33.9784H33.9785H33.9787H33.9789H33.979H33.9792H33.9794H33.9795H33.9797H33.9798H33.98H33.9802H33.9803H33.9805H33.9807H33.9808H33.981H33.9811H33.9813H33.9815H33.9816H33.9818H33.982H33.9821H33.9823H33.9824H33.9826H33.9828H33.9829H33.9831H33.9833H33.9834H33.9836H33.9838H33.9839H33.9841H33.9842H33.9844H33.9846H33.9847H33.9849H33.9851H33.9852H33.9854H33.9855H33.9857H33.9859H33.986H33.9862H33.9864H33.9865H33.9867H33.9869H33.987H33.9872H33.9873H33.9875H33.9877H33.9878H33.988H33.9882H33.9883H33.9885H33.9887H33.9888H33.989H33.9891H33.9893H33.9895H33.9896H33.9898H33.99H33.9901H33.9903H33.9905H33.9906H33.9908H33.9909H33.9911H33.9913H33.9914H33.9916H33.9918H33.9919H33.9921H33.9923H33.9924H33.9926H33.9927H33.9929H33.9931H33.9932H33.9934H33.9936H33.9937H33.9939H33.9941H33.9942H33.9944H33.9945H33.9947H33.9949H33.995H33.9952H33.9954H33.9955H33.9957H33.9959H33.996H33.9962H33.9964H33.9965H33.9967H33.9968H33.997H33.9972H33.9973H33.9975H33.9977H33.9978H33.998H33.9982H33.9983H33.9985H33.9987H33.9988H33.999H33.9991H33.9993H33.9995H33.9996H33.9998H34H34.0001H34.0003H34.0005H34.0006H34.0008H34.001H34.0011H34.0013H34.0014H34.0016H34.0018H34.0019H34.0021H34.0023H34.0024H34.0026H34.0028H34.0029H34.0031H34.0033H34.0034H34.0036H34.0038H34.0039H34.0041H34.0042H34.0044H34.0046H34.0047H34.0049H34.0051H34.0052H34.0054H34.0056H34.0057H34.0059H34.0061H34.0062H34.0064H34.0066H34.0067H34.0069H34.007H34.0072H34.0074H34.0075H34.0077H34.0079H34.008H34.0082H34.0084H34.0085H34.0087H34.0089H34.009H34.0092H34.0094H34.0095H34.0097H34.0099H34.01H34.0102H34.0103H34.0105H34.0107H34.0108H34.011H34.0112H34.0113H34.0115H34.0117H34.0118H34.012H34.0122H34.0123H34.0125H34.0127H34.0128H34.013H34.0132H34.0133H34.0135H34.0137H34.0138H34.014H34.0141H34.0143H34.0145H34.0146H34.0148H34.015H34.0151H34.0153H34.0155H34.0156H34.0158H34.016H34.0161H34.0163H34.0165H34.0166H34.0168H34.017H34.0171H34.0173H34.0175H34.0176H34.0178H34.018H34.0181H34.0183H34.0184H34.0186H34.0188H34.0189H34.0191H34.0193H34.0194H34.0196H34.0198H34.0199H34.0201H34.0203H34.0204H34.0206H34.0208H34.0209H34.0211H34.0213H34.0214H34.0216H34.0218H34.0219H34.0221H34.0223H34.0224H34.0226H34.0228H34.0229H34.0231H34.0232H34.0234H34.0236H34.0237H34.0239H34.0241H34.0242H34.0244H34.0246H34.0247H34.0249H34.0251H34.0252H34.0254H34.0256H34.0257H34.0259H34.0261H34.0262H34.0264H34.0266H34.0267H34.0269H34.0271H34.0272H34.0274H34.0276H34.0277H34.0279H34.0281H34.0282H34.0284H34.0286H34.0287H34.0289H34.0291H34.0292H34.0294H34.0295H34.0297H34.0299H34.03H34.0302H34.0304H34.0305H34.0307H34.0309H34.031H34.0312H34.0314H34.0315H34.0317H34.0319H34.032H34.0322H34.0324H34.0325H34.0327H34.0329H34.033H34.0332H34.0334H34.0335H34.0337H34.0339H34.034H34.0342H34.0344H34.0345H34.0347H34.0349H34.035H34.0352H34.0354H34.0355H34.0357H34.0359H34.036H34.0362H34.0364H34.0365H34.0367H34.0369H34.037H34.0372H34.0374H34.0375H34.0377H34.0379H34.038H34.0382H34.0384H34.0385H34.0387H34.0388H34.039H34.0392H34.0393H34.0395H34.0397H34.0398H34.04H34.0402H34.0403H34.0405H34.0407H34.0408H34.041H34.0412H34.0413H34.0415H34.0417H34.0418H34.042H34.0422H34.0423H34.0425H34.0427H34.0428H34.043H34.0432H34.0433H34.0435H34.0437H34.0438H34.044H34.0442H34.0443H34.0445H34.0447H34.0448H34.045H34.0452H34.0453H34.0455H34.0457H34.0458H34.046H34.0462H34.0463H34.0465H34.0467H34.0468H34.047H34.0472H34.0473H34.0475H34.0477H34.0478H34.048H34.0482H34.0483H34.0485H34.0487H34.0488H34.049H34.0492H34.0493H34.0495H34.0497H34.0498H34.05H34.0502H34.0503H34.0505H34.0507H34.0508H34.051H34.0512H34.0513H34.0515H34.0517H34.0518H34.052H34.0522H34.0523H34.0525H34.0527H34.0528H34.053H34.0532H34.0533H34.0535H34.0537H34.0538H34.054H34.0541H34.0543H34.0545H34.0546H34.0548H34.055H34.0551H34.0553H34.0555H34.0556H34.0558H34.056H34.0561H34.0563H34.0565H34.0565C37.5044 1.11185 40.8252 3.30372 42.1223 6.38079L42.1224 6.38098Z" fill="url(#paint2_linear_99_9080)" stroke="white"/>
</g>
<defs>
<filter id="filter0_d_99_9080" x="0" y="0" width="48" height="44.0001" filterUnits="userSpaceOnUse" color-interpolation-filters="sRGB">
<feFlood flood-opacity="0" result="BackgroundImageFix"/>
<feColorMatrix in="SourceAlpha" type="matrix" values="0 0 0 0 0 0 0 0 0 0 0 0 0 0 0 0 0 0 127 0" result="hardAlpha"/>
<feOffset dy="4"/>
<feGaussianBlur stdDeviation="2"/>
<feComposite in2="hardAlpha" operator="out"/>
<feColorMatrix type="matrix" values="0 0 0 0 0 0 0 0 0 0 0 0 0 0 0 0 0 0 0.25 0"/>
<feBlend mode="normal" in2="BackgroundImageFix" result="effect1_dropShadow_99_9080"/>
<feBlend mode="normal" in="SourceGraphic" in2="effect1_dropShadow_99_9080" result="shape"/>
</filter>
<radialGradient id="paint0_radial_99_9080" cx="0" cy="0" r="1" gradientUnits="userSpaceOnUse" gradientTransform="translate(24 17.9306) scale(23.3176 17.8102)">
<stop stop-color="#F26957"/>
<stop offset="0.34" stop-color="#DD3C48"/>
<stop offset="1" stop-color="#B72933"/>
</radialGradient>
<linearGradient id="paint1_linear_99_9080" x1="12.9771" y1="-0.455395" x2="13.8897" y2="6.5027" gradientUnits="userSpaceOnUse">
<stop stop-color="white"/>
<stop offset="1" stop-color="white" stop-opacity="0"/>
</linearGradient>
<linearGradient id="paint2_linear_99_9080" x1="35.0224" y1="-0.455395" x2="34.1097" y2="6.5027" gradientUnits="userSpaceOnUse">
<stop stop-color="white"/>
<stop offset="1" stop-color="white" stop-opacity="0"/>
</linearGradient>
</defs>
</svg>
