<svg width="18" height="13" viewBox="0 0 18 13" fill="none" xmlns="http://www.w3.org/2000/svg">
<path d="M10.7699 3.52242C11.376 4.0763 11.3225 4.96143 11.1709 5.60683C11.1436 5.72217 11.1119 5.83683 11.0765 5.94982C10.9948 6.01218 10.92 6.08125 10.8574 6.15702C10.8761 5.95418 10.9034 5.75369 10.8522 5.55051C10.8441 5.51698 10.819 5.49787 10.7869 5.50256C10.6761 5.51765 10.569 5.5495 10.4579 5.56124C10.4401 5.56325 10.4201 5.58269 10.4159 5.60181C10.3759 5.77347 10.3505 5.94781 10.3424 6.1245C10.2894 6.04236 10.2383 5.96089 10.169 5.88947C10.0703 5.78755 9.95986 5.69937 9.84336 5.6246C9.62155 5.48312 9.43999 5.40969 9.19852 5.52804C9.17279 5.54045 9.16432 5.577 9.17521 5.60382C9.22817 5.73122 9.30654 5.84052 9.36041 5.96726C9.39854 6.05678 9.4297 6.14864 9.4642 6.23883C9.24633 6.12718 9.02603 6.01989 8.79636 5.95519C8.64687 5.91294 8.49345 5.88981 8.33368 5.89551C8.30463 5.89651 8.28254 5.91495 8.2786 5.94848C8.26801 6.04236 8.25833 6.13624 8.24895 6.23011C8.24592 6.26163 8.27074 6.29214 8.29858 6.29348C8.73099 6.31628 9.17189 6.39775 9.54953 6.63714C9.28536 6.66731 9.02361 6.73135 8.76852 6.81048C8.4414 6.9124 8.14606 7.06093 7.80927 6.93185C7.55024 6.83227 7.29151 6.76454 7.03067 6.7223C7.04883 6.71727 7.06729 6.71191 7.08544 6.70755C7.27185 6.66329 7.46612 6.66631 7.65585 6.6529C7.7088 6.64887 7.70941 6.57008 7.67642 6.54091C7.58837 6.46313 7.54661 6.36691 7.43313 6.33304C7.28909 6.29013 7.12145 6.33606 6.97832 6.35551C6.95956 6.35819 6.9405 6.3602 6.92204 6.36255C6.86545 6.36858 6.80856 6.37261 6.75198 6.37495C6.73563 5.86433 6.88028 5.34532 7.19589 4.92119C7.50909 4.50009 8.13305 3.8748 8.8596 3.49627C9.16462 3.33802 9.54076 3.1972 9.91568 3.1972C10.2128 3.1972 10.5094 3.28538 10.7696 3.52309L10.7699 3.52242Z" fill="white"/>
<path d="M17.6659 6.6938C17.8009 6.95967 17.8805 7.24466 17.8121 7.54272C17.7818 7.67448 17.7576 7.92828 17.6683 8.06139C17.5367 7.57054 17.366 7.11122 17.0398 6.73202C16.9796 6.66228 16.8919 6.72129 16.8979 6.80913C16.9251 7.20744 17.0991 7.56149 17.1693 7.94907C17.2486 8.38426 17.0904 8.79631 17.0719 9.22748C17.0689 9.23184 17.0652 9.23553 17.0622 9.24089C16.9681 9.39512 16.8483 9.65462 16.6909 9.78873C16.8111 9.33041 16.8177 8.83152 16.7935 8.36012C16.7666 7.82904 16.5744 7.3734 16.3423 6.91642C16.3326 6.89764 16.3178 6.88792 16.3024 6.88557C16.3051 6.89295 16.3075 6.90033 16.3096 6.90737C16.405 7.12094 16.4588 7.34557 16.4948 7.57758C16.5045 7.62318 16.513 7.66878 16.5212 7.71438C16.5832 7.94304 16.6225 8.17873 16.6277 8.43053C16.6322 8.65483 16.6328 8.88416 16.6177 9.11147C16.5529 9.03101 16.4945 8.9435 16.4561 8.84627C16.4912 8.50999 16.2888 8.18075 16.0966 7.93968C16.0957 7.93935 16.0951 7.93968 16.0954 7.94069C16.2149 8.16164 16.3251 8.43757 16.3354 8.70613C16.3269 8.70747 16.3187 8.71082 16.3112 8.71551C16.2739 8.72658 16.2364 8.7306 16.1953 8.73261C16.1871 8.73295 16.1789 8.73362 16.1708 8.73362C16.1732 8.72155 16.1711 8.70881 16.1617 8.69774C16.1208 8.64812 16.1057 8.54553 16.0845 8.4835C16.06 8.41175 16.0325 8.34235 15.9904 8.28032C15.9901 8.27999 15.9895 8.28032 15.9901 8.28066C16.037 8.37588 16.05 8.47612 16.0624 8.5814C16.0682 8.62935 16.0648 8.70177 16.0915 8.74636C16.0809 8.75072 16.0706 8.75541 16.0603 8.75675C16.06 8.75675 16.06 8.75709 16.0603 8.75776C16.0824 8.76346 16.1069 8.78558 16.1299 8.79363C16.1644 8.80537 16.1995 8.81442 16.2349 8.82045C16.2476 8.82314 16.2606 8.82481 16.2733 8.82548C16.2437 9.28012 16.0597 9.71799 15.9995 10.1706C15.9831 10.294 16.0022 10.5693 15.9214 10.6715C15.8636 10.7456 15.7365 10.7322 15.6367 10.7205C15.6357 10.6967 15.6351 10.6732 15.6342 10.6494C15.6827 10.4066 15.6055 10.1669 15.5867 9.92418C15.5719 9.73039 15.591 9.52722 15.6255 9.32806C15.6784 9.19295 15.7002 9.01625 15.7323 8.85465C15.7456 8.78927 15.6584 8.75139 15.6415 8.81878C15.5979 8.99044 15.558 9.16478 15.5283 9.34147C15.4905 9.41624 15.4391 9.46318 15.3643 9.44641C15.2127 9.41188 15.3625 9.07392 15.3915 8.95859C15.4324 8.799 15.4608 8.64276 15.4599 8.47545C15.4596 8.43019 15.4094 8.39163 15.3752 8.42852C15.243 8.57134 15.1522 8.74066 15.0496 8.90897C14.9864 9.01257 14.9183 9.13595 14.8003 9.15875C14.7446 9.16948 14.6813 9.15875 14.6214 9.15137C14.6816 8.84526 14.8009 8.55793 14.8677 8.2535C14.8502 8.28736 14.8323 8.32123 14.8142 8.35509C14.7758 8.46908 14.727 8.58006 14.7092 8.63203C14.6447 8.8171 14.5809 9.00351 14.5083 9.1849C14.4937 9.22077 14.5222 9.25966 14.5542 9.26268C14.701 9.27743 14.8481 9.32169 14.9734 9.21306C15.1374 9.07057 15.226 8.83822 15.3474 8.64477C15.3144 8.9254 15.2088 9.19093 15.1637 9.47089C15.1601 9.49268 15.1776 9.52118 15.197 9.52688C15.3362 9.56879 15.4336 9.5537 15.5038 9.50207C15.4932 9.58589 15.4851 9.67004 15.4814 9.7542C15.4763 9.86014 15.4851 9.96442 15.4969 10.068C15.2986 10.0637 15.0986 10.0801 14.8989 10.1069C14.974 9.93458 14.9225 9.84807 14.717 9.77934C14.5881 9.73643 14.4517 9.7267 14.3179 9.71832C14.2408 9.71363 13.8468 9.73844 13.8468 9.61238C13.8468 9.60936 13.8425 9.60902 13.8425 9.61204C13.8428 9.63383 13.8437 9.65596 13.8443 9.67742C13.8443 9.67843 13.8443 9.67876 13.8453 9.67876C13.9984 9.73509 14.1554 9.75118 14.3146 9.77297C14.4695 9.7941 14.9401 9.83399 14.7797 10.1129C14.7779 10.117 14.7758 10.1207 14.7745 10.1247C14.5667 10.1569 14.3597 10.1974 14.1572 10.2363C13.867 10.2913 13.5729 10.3805 13.3493 10.5924C13.3057 10.583 13.2627 10.5716 13.2198 10.5572C13.017 10.4885 12.6509 10.3966 12.4926 10.1948C12.6642 10.2276 12.8234 10.3071 13.0034 10.2923C13.0285 10.2903 13.0461 10.2601 13.0488 10.235C13.0648 10.0855 13.1435 9.91915 13.004 9.8236C12.8887 9.74447 12.6796 9.73576 12.5562 9.70592C12.3456 9.65428 12.141 9.58287 11.9316 9.52822C11.9298 9.52789 11.9277 9.53124 11.9298 9.53258C12.0656 9.62981 12.2191 9.69016 12.3728 9.74448C12.5232 9.79778 12.7592 9.8122 12.8939 9.90071C12.9653 9.94765 12.9662 9.97079 12.9638 10.0536C12.961 10.1495 12.9486 10.1602 12.8639 10.1693C12.7165 10.1854 12.5537 10.0707 12.3991 10.0727C12.3631 10.0737 12.3338 10.1119 12.3513 10.1512C12.4699 10.414 12.824 10.5347 13.0546 10.6226C13.1931 10.6755 13.3339 10.7268 13.4806 10.7419C13.5602 10.75 13.6392 10.7496 13.7176 10.747C13.7536 10.752 13.7899 10.7577 13.8256 10.7634C14.1899 10.757 14.5552 10.8425 14.9219 10.8868C14.8944 10.9585 14.8572 11.0246 14.8217 11.093C14.4943 11.0339 14.1736 11.1872 13.8537 11.2492C13.5959 11.2992 13.336 11.2676 13.076 11.2566C13.0984 11.1365 13.1238 11.0172 13.1502 10.8982C13.158 10.8616 13.145 10.8341 13.1151 10.8174C12.9238 10.7107 12.7111 10.7476 12.5102 10.6759C12.3126 10.6051 12.1362 10.4563 11.9655 10.3285C11.9652 10.3282 11.9646 10.3289 11.9652 10.3295C12.1531 10.4962 12.3171 10.692 12.5507 10.7808C12.6724 10.8274 12.8297 10.8127 12.9432 10.873C13.0667 10.9384 12.9955 11.1188 12.9638 11.2546C12.8231 11.2529 12.683 11.2616 12.5435 11.2965C12.522 11.3022 12.5062 11.3142 12.4953 11.3293C12.4956 11.3303 12.4962 11.3307 12.4966 11.331C12.5755 11.4644 12.679 11.5737 12.7647 11.7008C12.8197 11.7534 12.8742 11.8068 12.9259 11.8631C12.834 11.912 12.7438 11.968 12.6457 11.9932C12.5804 12.0099 12.528 11.9982 12.4832 11.9714C12.4754 11.9684 12.4681 11.9633 12.4608 11.9563C12.4336 11.9355 12.4091 11.909 12.3861 11.8795C12.2887 11.7809 12.1864 11.6884 12.0823 11.5975C12.0278 11.5506 11.973 11.5037 11.9183 11.4571H11.9168C11.8732 11.4188 11.7991 11.4209 11.7767 11.4963C11.6729 11.846 11.5016 12.1246 11.173 12.1554C11.232 11.9375 11.3458 11.7441 11.3349 11.506C11.3645 11.3602 11.3742 11.2093 11.3433 11.0631C11.2958 10.8381 11.1597 10.7171 11.0056 10.5766C11.0056 10.5763 11.0047 10.5766 11.0053 10.577C11.2081 10.82 11.2513 11.1111 11.2117 11.4074C11.205 11.4115 11.1981 11.4168 11.192 11.4242C10.9049 11.7531 10.608 12.0535 10.2688 12.305C10.355 12.084 10.4537 11.8708 10.4821 11.6277C10.4849 11.6029 10.4504 11.5885 10.4389 11.611C10.3662 11.7521 10.2785 11.8795 10.1723 11.9925C10.0549 12.1172 9.96468 12.1796 9.82276 12.1447C9.99494 11.8571 10.1662 11.5506 10.2113 11.2046C10.2131 11.1905 10.1931 11.1862 10.1892 11.1996C10.0951 11.5439 9.94804 11.8829 9.70898 12.1347C9.68144 12.1638 9.6884 12.2151 9.72532 12.2302C9.87753 12.2926 9.9789 12.3046 10.1114 12.191C10.2177 12.1001 10.3075 11.9791 10.3798 11.8487C10.3236 12.0274 10.244 12.1957 10.1777 12.3717C10.1229 12.4099 10.0673 12.4471 10.0104 12.4827C9.68447 12.6859 9.23117 12.8146 8.85988 12.658C8.97941 12.531 9.13585 12.4491 9.24055 12.3043C9.34223 12.1632 9.35161 12.0046 9.34162 11.8383C9.45479 11.496 9.61426 11.1781 9.72441 10.8328C9.7344 10.8019 9.69264 10.7858 9.68114 10.8157C9.58491 11.0698 9.4445 11.2874 9.33315 11.5255C9.3277 11.5104 9.31529 11.498 9.29472 11.4936C9.0139 11.4386 9.28231 11.1469 9.3398 11.0474C9.41939 10.9092 9.47991 10.7557 9.5492 10.6105C9.5713 10.5639 9.52469 10.5079 9.48384 10.5458C9.38368 10.6387 9.28715 10.7359 9.18306 10.8234C9.11467 10.8814 8.91707 11.0893 8.8275 11.0403C8.62264 10.9287 9.02328 10.6611 9.09803 10.6011C9.24176 10.4858 9.65451 10.2025 9.58491 9.94966C9.58461 9.94765 9.58128 9.94698 9.58068 9.94933C9.50412 10.2688 9.14009 10.4613 8.91162 10.6313C8.83355 10.6893 8.70918 10.7597 8.67166 10.8599C8.62657 10.98 8.72885 11.094 8.78846 11.1818C8.80268 11.2029 8.83325 11.2076 8.85413 11.1966C9.03508 11.098 9.20757 10.9692 9.36038 10.819C9.32891 10.8868 9.29593 10.9528 9.25871 11.0158C9.20757 11.102 9.13131 11.1858 9.09863 11.2844C9.04416 11.4487 9.12889 11.5587 9.27565 11.5955C9.28534 11.5975 9.29381 11.5972 9.30168 11.5952C9.2926 11.616 9.28413 11.6364 9.27596 11.6572C9.26234 11.6522 9.24812 11.6502 9.2351 11.6545C8.69435 11.8322 8.16722 12.0864 7.60529 12.1803C7.4207 12.2111 7.23127 12.2104 7.07301 12.3338C6.9211 12.4525 6.80097 12.6335 6.70081 12.8086C6.61759 12.7727 6.56706 12.7231 6.60095 12.6037C6.62183 12.53 6.67569 12.4599 6.71079 12.3945C6.73046 12.3576 6.74923 12.3201 6.76647 12.2825C6.94955 11.966 7.08844 11.6519 7.4325 11.5201C7.46397 11.508 7.45126 11.4524 7.4204 11.4514C7.20162 11.442 6.99736 11.4882 6.81126 11.6079C6.70051 11.2033 7.30269 11.2261 7.50119 10.9904C7.5021 10.989 7.50089 10.9873 7.49968 10.9887C7.25094 11.271 6.49625 11.0779 6.74136 11.7132C6.75074 11.738 6.78554 11.7538 6.80733 11.738C6.92927 11.6495 7.06151 11.5868 7.20041 11.553C7.04941 11.6505 6.93744 11.7866 6.83759 11.9456C6.82397 11.9244 6.80309 11.909 6.7813 11.9104C6.64574 11.9184 6.53619 11.9845 6.41818 12.0562C6.24206 12.1635 6.05536 12.2396 5.86926 12.3241C5.69103 12.4049 5.51884 12.4958 5.34818 12.5953C5.18447 12.6909 5.12274 12.6905 5.02409 12.542C5.08552 12.4797 5.15179 12.4247 5.21382 12.3647C5.27949 12.3194 5.34666 12.2755 5.40113 12.2191C5.52066 12.0951 5.62929 11.968 5.76547 11.8658C6.02116 11.673 6.2926 11.5251 6.50956 11.2753C6.54406 11.2354 6.52016 11.1597 6.46448 11.1728C6.20575 11.2344 5.94309 11.271 5.67771 11.2653C5.55455 11.2633 5.43139 11.2529 5.30944 11.2318C5.23046 11.2183 5.1179 11.2358 5.08945 11.1375C5.05798 11.0272 5.12637 10.9736 5.22744 10.9783C5.42292 10.9873 5.60902 11.0202 5.80662 11.0011C6.08743 10.9743 6.3159 10.8586 6.58491 10.7875C6.63605 10.7738 6.6421 10.6953 6.59218 10.6742C6.4321 10.6061 6.24751 10.6125 6.07926 10.591C5.90254 10.5686 5.57241 10.5367 5.66591 10.2849C6.20363 10.5636 6.79583 10.4254 7.36986 10.406C7.39165 10.4056 7.39407 10.3724 7.37228 10.3691C6.8043 10.2776 6.20212 10.4613 5.67166 10.1492C5.64594 10.1341 5.60902 10.1337 5.59207 10.1659C5.31731 10.6843 5.96185 10.6957 6.3507 10.7433C6.23057 10.7885 6.11134 10.8361 5.98394 10.8603C5.76123 10.9025 5.54366 10.9022 5.32034 10.8754C5.05042 10.8435 4.956 10.927 4.97598 11.2308C4.97719 11.2489 4.99353 11.2673 5.00835 11.272C5.42625 11.4131 5.87168 11.4178 6.29986 11.3313C6.07805 11.5325 5.81449 11.6569 5.57997 11.8457C5.51158 11.9006 5.45167 11.967 5.39145 12.0327C5.38177 12.0042 5.3624 11.9801 5.33638 11.971C5.04104 11.8681 4.7578 11.7313 4.48758 11.5677C4.55717 11.5177 4.61709 11.4346 4.69123 11.4024C4.7227 11.3887 4.72905 11.3387 4.70757 11.3129C4.46791 11.0182 4.0025 10.7235 4.01067 10.2672C4.01067 10.2668 4.00977 10.2668 4.00977 10.2672C3.99464 10.7278 4.34051 11.0256 4.58895 11.3367C4.52207 11.3954 4.44975 11.4916 4.3862 11.5047C4.04305 11.2867 3.72139 11.0269 3.42363 10.7389C3.37309 10.525 3.30773 10.3098 3.22603 10.1056C3.19728 10.0596 3.16611 10.0164 3.13283 9.97816C3.2112 9.96006 3.29109 9.92452 3.36401 9.87959C3.39427 9.86149 3.40396 9.82528 3.39155 9.79007C3.21755 9.30627 3.08925 8.80101 3.03932 8.28267C3.13615 8.45098 3.16399 8.66287 3.27777 8.82381C3.39155 8.98507 3.44935 8.95322 3.61427 8.92137C3.64029 8.91668 3.66268 8.88315 3.65512 8.85331C3.55011 8.44696 3.34041 8.09257 3.21453 7.69661C3.12738 7.42101 3.13283 7.09479 2.97184 6.85339C2.93099 6.79304 2.85171 6.86982 2.89195 6.93017C3.04386 7.15748 3.03539 7.4884 3.12072 7.74858C3.24116 8.1157 3.43028 8.44763 3.5371 8.82112C3.47386 8.83655 3.43543 8.84225 3.37339 8.76983C3.30349 8.68802 3.2696 8.56665 3.23238 8.46372C3.17489 8.30614 3.11981 8.17102 3.0021 8.05871C2.97335 8.03088 2.91677 8.06005 2.91889 8.10296C2.94854 8.68232 3.07745 9.24592 3.26204 9.78739C3.18306 9.82963 3.0838 9.86953 2.99665 9.86014C2.99514 9.85914 2.99393 9.85847 2.99211 9.85746C2.99302 9.85847 2.99302 9.85914 2.99363 9.86014C2.93855 9.8531 2.88862 9.82695 2.85262 9.76794C2.78967 9.66602 2.78181 9.50542 2.76728 9.38573C2.72764 9.06856 2.68528 8.74032 2.70313 8.4208C2.70616 8.36615 2.62627 8.34302 2.61447 8.40069C2.61356 8.40505 2.61326 8.4094 2.61265 8.41376H2.61235V8.41578C2.5712 8.63672 2.58996 8.86471 2.54759 9.08499C2.46135 9.0652 2.41203 9.05414 2.39205 8.92741C2.36785 8.77452 2.37844 8.59247 2.38842 8.43824C2.40718 8.15828 2.49797 7.89375 2.52157 7.6148C2.52399 7.58865 2.48768 7.58597 2.48465 7.61212C2.45439 7.86257 2.35847 8.09425 2.32034 8.34268C2.2816 8.59481 2.29189 8.8523 2.29552 9.10678C2.29643 9.14131 2.31489 9.1678 2.34666 9.17249C2.42322 9.17953 2.49827 9.19563 2.5712 9.22245C2.59631 9.23016 2.62778 9.22144 2.6411 9.19529C2.65804 9.38942 2.6877 9.57985 2.74217 9.7552C2.79815 9.93592 2.91646 9.9966 3.05021 9.9899C3.15128 10.237 3.22028 10.5035 3.27232 10.7661C3.32528 11.0346 3.41606 11.4393 3.26718 11.6911C3.21392 11.6733 3.16218 11.6656 3.11074 11.6757C3.0596 11.3072 2.944 10.9599 2.81418 10.6155C2.67075 10.2333 2.43654 9.90943 2.2816 9.53493C2.22229 9.64087 2.16268 9.74682 2.13091 9.86886C2.12425 9.89501 2.11911 9.9215 2.11427 9.94765C2.12244 10.2749 2.18356 10.6252 2.39629 10.812C2.48011 10.8861 2.51037 10.9045 2.52611 11.038C2.53821 11.1392 2.53276 11.2428 2.53882 11.3444C2.55062 11.5268 2.61114 11.7065 2.62506 11.8886C2.42262 11.7313 2.24438 11.5385 2.06857 11.3454C1.84465 11.0987 1.77565 10.8073 1.71967 10.468C1.60045 9.74112 1.67489 8.99681 1.70757 8.2649C1.7112 8.18175 1.6062 8.1328 1.56353 8.20925C1.39952 8.50228 1.27999 8.81609 1.18165 9.14232C1.13625 9.29386 1.08996 9.44541 1.05939 9.60165C1.02792 9.76224 1.03609 9.92284 1.02369 10.0824C0.872991 9.99928 0.748318 9.89703 0.746805 9.68245C0.745292 9.42864 0.814286 9.15606 0.872688 8.91333C1.00129 8.3799 1.20616 7.85754 1.55324 7.4542C1.60075 7.39922 1.56928 7.27248 1.48637 7.30266C1.0252 7.46929 0.705349 7.89006 0.278982 8.1204C0.246301 8.00674 0.217857 7.89174 0.18457 7.77875C0.468109 7.68621 0.725623 7.45689 0.956206 7.26444C1.07967 7.16184 1.20131 7.05623 1.32447 6.95364C1.48213 6.81315 1.63888 6.672 1.79411 6.52884C1.7342 6.84299 1.73904 7.17458 1.81015 7.49175C1.8165 7.52059 1.83859 7.5454 1.86643 7.54674C1.96327 7.5511 2.05647 7.53668 2.15239 7.52394C2.18689 7.51958 2.20142 7.48002 2.19899 7.44683C2.1884 7.29662 2.17932 7.14944 2.18719 7.00393C2.20777 7.10753 2.24499 7.20912 2.2925 7.31138C2.31822 7.36636 2.3969 7.32378 2.37057 7.2688C2.2692 7.05657 2.21836 6.85439 2.26224 6.61501C2.2695 6.57276 2.21382 6.56673 2.1996 6.60025C2.08703 6.87149 2.07069 7.10987 2.08007 7.39888C2.02651 7.40324 1.97295 7.40794 1.91909 7.40928C1.85736 7.12899 1.83829 6.77829 1.88399 6.44603C1.90184 6.42926 1.9206 6.41283 1.93845 6.39574C1.92726 6.39272 1.91485 6.39372 1.90154 6.40043C1.8976 6.40211 1.89427 6.40445 1.89064 6.40613C1.93876 6.09265 2.04527 5.79861 2.23016 5.60214C2.23198 5.60013 2.22895 5.5961 2.22714 5.59878C2.02137 5.83951 1.88277 6.13422 1.81076 6.44938C1.79623 6.45709 1.78201 6.46547 1.76809 6.47386C1.52812 6.61132 1.30844 6.77896 1.08935 6.95699C1.16561 6.63948 1.3157 6.33371 1.50543 6.05811C1.64463 5.77514 1.82256 5.51731 1.99988 5.2615C1.88187 5.36476 1.76597 5.47842 1.65673 5.60113C1.21644 5.29972 1.92756 4.67007 2.18356 4.49438C2.1996 4.48366 2.18719 4.45449 2.17085 4.46522C1.87158 4.65934 1.02399 5.31179 1.57563 5.69635C1.56898 5.70406 1.56202 5.71177 1.55536 5.71948C1.34566 5.88947 1.12022 6.03431 0.882977 6.13087C0.82518 6.15467 0.616989 6.2509 0.614266 6.11008C0.611542 5.98435 0.751345 6.04437 0.81247 6.03565C1.01219 6.00849 1.05153 5.80766 1.11265 5.62963C1.23884 5.2625 1.42282 4.91549 1.64039 4.6C1.97991 4.05718 2.44622 3.6344 2.9555 3.278C2.74852 3.48084 2.64049 3.71118 2.91344 3.90866C2.93583 3.92509 2.9673 3.92408 2.98848 3.90396C3.28867 3.60926 3.60004 3.35042 3.97073 3.17407C4.04426 3.1392 3.98949 3.01582 3.91596 3.05068C3.55042 3.22402 3.24146 3.47481 2.94612 3.76382C2.69254 3.49895 3.44057 2.98598 3.61094 2.8408C3.62546 2.82873 3.60852 2.80023 3.59339 2.81096C3.50624 2.87332 3.32346 2.98195 3.14977 3.11305C3.07412 3.14154 3.00059 3.17239 2.92857 3.20592C2.60842 3.35545 2.32336 3.55729 2.06252 3.81143C1.8038 3.98376 1.55354 4.16749 1.32387 4.39615C1.18316 4.17889 1.34293 4.02366 1.50967 3.84395C1.65703 3.68503 1.8044 3.53214 1.97113 3.39803C2.14089 3.26124 2.32125 3.1345 2.50371 3.02017C2.65865 2.92294 2.82417 2.85622 2.96307 2.7305C3.0133 2.68523 2.98394 2.58633 2.91889 2.58365C2.52369 2.56688 2.15935 2.63662 1.81015 2.82806C1.80924 2.74793 1.82256 2.68289 1.88792 2.60946C1.98384 2.50083 2.13182 2.44115 2.26103 2.40159C2.51431 2.32448 2.77878 2.3171 3.03872 2.34828C3.54497 2.40897 4.05364 2.72681 4.56504 2.67719C4.58259 2.67551 4.60226 2.66042 4.61437 2.64232C4.61588 2.70099 4.61709 2.75967 4.61467 2.82102C4.61285 2.86997 4.66672 2.90383 4.70121 2.8693C4.96932 2.60376 5.33063 2.45021 5.69072 2.43545C5.48223 2.59504 5.11578 2.89478 5.23682 3.13115C5.29068 3.23576 5.39417 3.22872 5.47951 3.18178C5.55576 3.13987 5.62052 3.07315 5.69345 3.02587C5.83022 2.93803 5.97971 2.87098 6.12344 2.79856C6.17943 2.77073 6.13736 2.67551 6.08138 2.70401C5.92705 2.78246 5.76426 2.85354 5.61991 2.95278C5.55001 3.00106 5.28221 3.24447 5.3158 2.97223C5.3394 2.77676 5.70071 2.53872 5.83416 2.42539C5.86139 2.40226 5.84233 2.35733 5.81237 2.35298C5.43987 2.30268 4.97083 2.43948 4.68366 2.72614C4.67368 2.69563 4.66672 2.66445 4.66187 2.63327C4.64917 2.5528 4.65098 2.46898 4.65613 2.38617C4.66399 2.3751 4.66853 2.36136 4.66793 2.34392C4.66762 2.33923 4.66702 2.33453 4.66702 2.33018C4.66672 2.32615 4.66611 2.32246 4.66551 2.31911C4.66641 2.31878 4.66702 2.31878 4.66823 2.31811C5.05828 2.12566 5.48283 2.07235 5.88983 1.93924C5.90224 1.93489 5.91435 1.92717 5.92433 1.91745C6.03387 1.89868 6.14311 1.88594 6.25326 1.89666C6.50624 1.92114 6.70111 2.13974 6.95953 2.12465C6.95984 2.12465 6.95984 2.12432 6.95984 2.12365C6.72835 2.0234 6.55193 1.80882 6.29895 1.76892C6.17489 1.74914 6.05294 1.76289 5.9319 1.78602C5.70737 1.55234 5.34515 1.52048 5.05223 1.51478C4.70182 1.50841 4.37168 1.60631 4.04668 1.73674C4.12839 1.55166 4.25851 1.43499 4.47245 1.39744C4.71786 1.35452 4.98112 1.35754 5.22895 1.34547C5.57785 1.32871 5.9325 1.34111 6.27747 1.40615C6.56766 1.4608 6.84727 1.58217 7.14473 1.5805C7.22461 1.58016 7.25003 1.48159 7.19314 1.42594C6.9907 1.22712 6.73077 1.15202 6.49776 1.0169C6.6415 0.973984 6.78796 0.950179 6.93896 0.980354C7.15138 1.0226 7.34898 1.14229 7.54537 1.23617C7.90698 1.40951 8.28463 1.5758 8.68164 1.60162C8.72673 1.60464 8.77303 1.55636 8.75941 1.50406C8.64594 1.05411 8.23561 0.963925 7.89276 0.800981C8.24196 0.50862 8.85322 0.996447 9.14493 1.22276C9.53952 1.5292 9.84243 1.95165 10.2222 2.27921C10.2848 2.31677 10.3499 2.34929 10.4156 2.3798C10.4119 2.34895 10.4092 2.31945 10.4062 2.29698C10.4038 2.28089 10.4019 2.26547 10.3998 2.24971C10.2891 1.81787 9.97557 1.25629 10.1934 0.859319C10.2988 0.666871 10.5078 0.511638 10.6743 0.391274C10.841 0.271245 11.077 0.107965 11.2622 0.224641C11.0032 0.374845 10.7079 0.562935 10.7596 0.928051C10.7675 0.980689 10.8289 1.01723 10.8716 0.988736C11.1306 0.818751 11.416 0.712804 11.7128 0.657818C11.8602 0.630661 12.0085 0.615909 12.1579 0.618926C12.2853 0.621608 12.3443 0.630996 12.404 0.717162C12.0266 0.850267 11.5682 0.796287 11.2408 1.05847C10.9851 1.26266 10.933 1.67974 10.9285 2.00194C10.9276 2.04921 10.9678 2.10521 11.0162 2.08811C11.2716 1.99557 11.5019 1.81083 11.75 1.69248C12.0684 1.54127 12.3955 1.42996 12.7335 1.34782C12.9934 1.28512 13.6259 1.04506 13.7817 1.39744C13.477 1.49165 13.1934 1.6432 12.9108 1.80044C12.8836 1.81586 12.873 1.84704 12.8757 1.87588C13.0458 1.90438 13.2307 1.86884 13.4059 1.84201C13.4706 1.83196 13.5342 1.8229 13.595 1.81888C13.6525 1.81486 13.7097 1.81419 13.7666 1.81553C14.1006 1.78334 14.4423 1.77764 14.7767 1.7887C15.0614 1.79876 15.3437 1.83833 15.6267 1.87521C15.8346 1.90236 15.9665 1.96338 16.0521 2.14075C15.6106 2.05726 15.1616 1.99054 14.7201 2.11023C14.6526 2.12868 14.6366 2.24401 14.7101 2.26849C15.1564 2.41969 15.617 2.53872 16.0128 2.82404C16.2013 2.96016 16.3726 3.12143 16.5366 3.29141C16.6464 3.40608 16.743 3.52946 16.8734 3.61127C16.8546 3.67162 16.8298 3.72794 16.8011 3.78293C16.5593 3.66793 16.3408 3.508 16.1069 3.37456C15.8884 3.25017 15.6472 3.18748 15.4309 3.06108C15.4245 3.05806 15.4191 3.05404 15.413 3.05068C15.4058 3.04733 15.3982 3.04499 15.3912 3.04465C15.41 3.09259 15.4291 3.1392 15.4487 3.18614C15.4551 3.19653 15.4608 3.20692 15.4657 3.21598C15.486 3.25587 15.5062 3.29644 15.5259 3.33701C15.6488 3.45872 15.7489 3.62166 15.8488 3.75443C16.0092 3.96834 16.1508 4.19565 16.3045 4.41559C16.5614 4.78239 16.7738 5.21121 17.2114 5.32185C17.2153 5.32319 17.2193 5.32319 17.2226 5.32352C17.3158 5.47373 17.3666 5.66483 17.123 5.62628C16.9926 5.60515 16.8728 5.54883 16.7393 5.55151C16.6855 5.55285 16.6286 5.61555 16.6628 5.67724C16.776 5.88209 16.9484 5.99542 17.1279 6.12114C17.3424 6.27235 17.5382 6.44536 17.6644 6.6948L17.6659 6.6938ZM16.0999 5.37448C16.1154 5.33794 16.0775 5.28765 16.0421 5.30039C15.7783 5.39997 15.4578 5.50658 15.2406 5.72384C15.331 5.29301 15.3359 4.84944 15.1383 4.44443C15.1277 4.42331 15.1044 4.40755 15.0823 4.41392C14.9991 4.43705 14.8811 4.44745 14.7794 4.48064C14.7319 4.16045 14.3936 3.94051 14.1321 3.86976C14.1097 3.86339 14.0967 3.90128 14.12 3.90799C14.3527 3.97772 14.6471 4.24561 14.6692 4.52825C14.6692 4.52992 14.6695 4.53126 14.6701 4.53261C14.6263 4.56278 14.5924 4.60335 14.5769 4.66001C14.4889 4.98255 14.6396 5.349 14.576 5.67858C14.3918 5.4811 14.2395 5.23568 14.009 5.10123C13.7536 4.95304 13.6561 5.05631 13.493 5.26686C13.4694 5.29737 13.4885 5.35169 13.5209 5.36241C13.7058 5.42343 13.8837 5.56358 14.0422 5.68093C14.1118 5.73222 14.4147 5.93138 14.481 6.08024C14.4756 6.0846 14.4704 6.08963 14.4665 6.09566C13.9857 6.00112 13.4979 5.98469 13.0107 6.02626C12.7565 6.04805 12.5002 6.08091 12.2511 6.13958C12.029 6.19155 11.8172 6.28342 11.5978 6.3431C11.977 5.93641 12.5283 5.80632 13.0276 5.66483C13.0757 5.65109 13.0836 5.58906 13.0479 5.55553C12.9347 5.44959 12.8358 5.26552 12.6733 5.25647C12.5477 5.24943 12.3925 5.3319 12.2732 5.37314C12.1637 5.41136 12.0548 5.45227 11.9476 5.4972C11.7525 5.57766 11.5079 5.67724 11.2843 5.80934C11.2989 5.7567 11.3128 5.70373 11.3252 5.65109C11.5591 4.65465 11.402 3.87111 10.871 3.38596C9.71866 2.33252 7.82891 3.79232 7.07301 4.8072C6.73137 5.26619 6.57523 5.82711 6.59278 6.37931C6.50472 6.38098 6.41606 6.38199 6.32831 6.38434C6.26143 6.38635 6.19365 6.39138 6.12526 6.3954C6.05657 6.40009 5.98788 6.40445 5.91949 6.40546C6.10468 6.35584 6.29562 6.33069 6.48142 6.28208C6.51864 6.27202 6.53589 6.23078 6.52137 6.19256C6.47719 6.07722 6.41788 5.93205 6.30137 5.88746C6.16278 5.83415 5.9794 5.90355 5.84021 5.92434C5.52641 5.97228 5.23773 6.05275 4.97113 6.2053C4.96932 6.15031 4.96538 6.09566 4.96054 6.04101C4.96175 6.03699 4.96296 6.0333 4.96417 6.02928C4.95358 6.01889 4.94632 6.00447 4.94481 5.98502C4.94087 5.93942 4.93906 5.89349 4.93785 5.84722C4.93785 5.84421 4.93755 5.84119 4.93755 5.83817C4.90184 5.58537 4.84041 5.33894 4.74963 5.10123C4.67489 4.90543 4.57412 4.64995 4.39679 4.54468C4.30753 4.49137 4.12687 4.46756 4.11265 4.62145C4.10599 4.69421 4.16319 4.76898 4.19224 4.82765C4.26335 4.97215 4.3272 5.12772 4.35655 5.28966C4.22704 5.12437 4.0948 4.96243 3.93139 4.83469C3.7344 4.68113 3.51229 4.56647 3.28988 4.46589C3.15219 4.40352 2.9903 4.3244 2.84687 4.41224C2.7116 4.49506 2.62627 4.68382 2.53216 4.81156C2.51582 4.83335 2.5482 4.86587 2.56635 4.84508C2.66712 4.72874 2.76728 4.53629 2.91586 4.4964C3.08017 4.45214 3.2814 4.5886 3.42393 4.66169C3.82609 4.86822 4.09752 5.15287 4.38711 5.51832C4.41707 5.5562 4.48576 5.53776 4.48515 5.48211C4.48334 5.28932 4.42887 5.1133 4.35534 4.93963C4.33385 4.88867 4.2461 4.76562 4.24126 4.70728C4.22794 4.55708 4.42342 4.69957 4.47366 4.76931C4.72693 5.12102 4.83194 5.64103 4.85857 6.09265C4.85766 6.09835 4.85675 6.10337 4.85584 6.10874C4.85463 6.12047 4.85705 6.12953 4.86129 6.13724C4.8628 6.16909 4.86401 6.19993 4.86492 6.23078C4.86522 6.24453 4.86916 6.25626 4.87491 6.26531C4.79926 6.31493 4.72542 6.37093 4.6531 6.43463C4.6419 6.44469 4.65461 6.46614 4.66762 6.45843C4.77444 6.39339 4.8861 6.33807 5.00018 6.29012C5.19839 6.20698 5.40476 6.1473 5.61144 6.10103C5.75397 6.06884 5.8977 6.04839 6.04144 6.02425C6.23057 5.99273 6.30803 6.02593 6.38762 6.18183C6.1534 6.2519 5.91556 6.29884 5.6883 6.39741C5.64987 6.41384 5.67015 6.46849 5.70192 6.4752C5.84021 6.50437 5.98667 6.4876 6.12889 6.47955C6.1531 6.47821 6.177 6.47687 6.20091 6.47654C6.39125 6.47151 6.58128 6.47084 6.77132 6.46447C6.82518 6.46246 6.87813 6.4581 6.93109 6.45206C7.00311 6.44469 7.07483 6.43496 7.14775 6.42658C7.31479 6.40714 7.41737 6.43563 7.52026 6.53689C7.40345 6.54192 7.28604 6.54628 7.17075 6.56572C7.00704 6.59288 6.84878 6.69044 6.68175 6.67536C6.67267 6.67435 6.6654 6.67636 6.65935 6.67871C6.40607 6.66161 6.15007 6.66563 5.88893 6.68944C5.862 6.69145 5.86653 6.73805 5.89195 6.7404C6.2345 6.77057 6.58189 6.77259 6.92231 6.83193C7.26577 6.89228 7.58713 7.03343 7.92393 7.11524C8.16752 7.17391 8.42897 7.05791 8.65865 6.97912C8.99938 6.86244 9.35796 6.76253 9.71503 6.74308C9.76678 6.74006 9.79825 6.66932 9.75013 6.63211C9.67599 6.57444 9.59853 6.52348 9.51894 6.47888L9.55223 6.40714C9.59339 6.42826 9.63454 6.37059 9.61517 6.32935C9.55193 6.19591 9.51077 6.05342 9.45267 5.9173C9.40668 5.80967 9.34404 5.71378 9.29381 5.60918C9.5365 5.52402 9.76466 5.68763 9.96135 5.85225C10.1296 5.9934 10.2228 6.17077 10.3541 6.34511C10.3838 6.38434 10.4531 6.36388 10.4528 6.3089C10.4513 6.154 10.4609 5.9991 10.4833 5.84588C10.5021 5.71714 10.5039 5.70071 10.6135 5.66249C10.6595 5.64673 10.7079 5.63801 10.756 5.63064C10.7999 5.87203 10.7384 6.1131 10.7351 6.35751C10.7342 6.4125 10.8071 6.45307 10.8353 6.39641C11.0268 6.01721 11.5443 5.80364 11.8929 5.65075C12.0917 5.56324 12.295 5.49284 12.5002 5.42578C12.6424 5.37884 12.729 5.38287 12.8421 5.50357C12.8645 5.52737 12.886 5.55151 12.9081 5.57531C12.3571 5.73122 11.7788 5.90087 11.4036 6.40613C11.3721 6.44837 11.4157 6.5047 11.4574 6.49732C11.7243 6.45072 11.9718 6.33237 12.2339 6.26565C12.4696 6.20631 12.7144 6.17512 12.955 6.15199C13.4767 6.10136 14.0065 6.11545 14.5204 6.23246C14.5673 6.24319 14.5872 6.18082 14.5751 6.14294C14.5709 6.12953 14.5667 6.11612 14.5624 6.10304C14.5624 6.09432 14.5615 6.08594 14.5606 6.07689C14.521 5.81101 13.881 5.39896 13.6331 5.27524C13.6949 5.18673 13.7572 5.11297 13.8819 5.15555C13.9953 5.19444 14.097 5.291 14.1814 5.38018C14.3152 5.521 14.429 5.68327 14.5657 5.8204C14.5936 5.84823 14.6381 5.84521 14.6529 5.80196C14.7122 5.62561 14.6916 5.41505 14.6859 5.22931C14.6816 5.08984 14.6599 4.9507 14.6662 4.81089C14.6735 4.65196 14.7071 4.6352 14.8423 4.59564C14.9603 4.5611 15.0475 4.50109 15.1119 4.63654C15.1722 4.76227 15.1903 4.92488 15.1994 5.06469C15.2191 5.36946 15.1598 5.66919 15.0762 5.95753C15.059 6.01687 15.1389 6.06918 15.1682 6.0095C15.3186 5.7044 15.6563 5.56425 15.9511 5.45294C15.8064 5.73289 15.5952 5.9639 15.4094 6.21066C15.3682 6.22743 15.3347 6.25324 15.325 6.29415C15.3238 6.29683 15.3232 6.29985 15.3226 6.30286C15.3226 6.30387 15.3226 6.30421 15.3223 6.30454H15.3226C15.3223 6.31963 15.3322 6.33539 15.3474 6.33639C15.3828 6.33907 15.4155 6.31829 15.45 6.31058C15.5099 6.2975 15.5719 6.29683 15.6324 6.2975C15.7377 6.29884 15.8554 6.30622 15.9565 6.34243C16.014 6.36321 16.0382 6.27571 15.9871 6.24721C15.8651 6.17948 15.7132 6.17009 15.5795 6.17915C15.5749 6.17948 15.5695 6.18015 15.564 6.18049C15.7628 5.92702 15.9692 5.68126 16.1009 5.37415L16.0999 5.37448ZM13.7514 2.43746C13.7757 2.43009 13.795 2.39857 13.7805 2.37108C13.7315 2.27854 13.6927 2.13773 13.6056 2.07805C13.4991 2.00496 13.3414 2.04318 13.2252 2.05726C13.0089 2.08308 12.794 2.10152 12.5804 2.1508C12.446 2.18131 12.3192 2.22993 12.1921 2.27854C12.2702 2.2316 12.3477 2.184 12.4152 2.11795C12.4369 2.09682 12.4372 2.06196 12.4203 2.03748C12.0659 1.52451 11.5037 2.27217 11.1863 2.49446C11.1669 2.50787 11.182 2.54308 11.2017 2.52967C11.3742 2.41467 11.54 2.28961 11.7113 2.17193C11.7921 2.11593 11.8756 2.06229 11.964 2.02172C12.1104 1.95467 12.2076 1.9493 12.3074 2.06665C12.1649 2.18634 11.9924 2.2487 11.8677 2.3969C11.8405 2.42908 11.8581 2.49983 11.9062 2.48373C12.0714 2.42908 12.226 2.34459 12.3922 2.29363C12.5801 2.23563 12.7765 2.19841 12.9707 2.17561C13.1133 2.15919 13.2706 2.13002 13.414 2.13136C13.5759 2.1327 13.6156 2.23093 13.6797 2.36136C13.4031 2.43244 13.1157 2.43881 12.8657 2.6051C12.8318 2.62757 12.8367 2.6906 12.8812 2.69328C13.0322 2.702 13.1874 2.73519 13.3151 2.83007C13.4186 2.90719 13.4667 2.98028 13.4803 3.11539C13.4909 3.21598 13.4649 3.28035 13.4283 3.35377C13.2549 3.05169 12.8001 3.07985 12.5196 3.0185C12.4808 3.00978 12.4672 3.07315 12.4953 3.09528C12.591 3.16971 12.6367 3.27599 12.6963 3.38227C12.722 3.42787 12.7904 3.39133 12.7647 3.34472C12.7214 3.26761 12.6842 3.19217 12.6351 3.12646C12.9066 3.1687 13.296 3.18748 13.3814 3.47246C13.392 3.50867 13.4434 3.53482 13.4646 3.49124C13.5699 3.27096 13.6588 3.10299 13.4973 2.8807C13.3832 2.72346 13.2101 2.64835 13.0337 2.6165C13.2612 2.51525 13.5124 2.50687 13.7508 2.43713L13.7514 2.43746ZM13.1959 7.10719C13.2316 7.10753 13.2506 7.07232 13.2385 7.03645C13.1947 6.90267 13.1934 6.77125 13.1907 6.63043C13.1898 6.60964 13.181 6.58751 13.1611 6.58047C12.5689 6.38635 11.9304 6.72196 11.4353 7.0626C11.396 7.08976 11.4259 7.16117 11.468 7.13536C11.787 6.94022 12.1141 6.75448 12.4726 6.66563C12.6009 6.63412 12.9532 6.5446 13.0706 6.65356C13.1308 6.70922 13.1278 6.88692 13.1444 7.00896C12.8503 7.00896 12.5698 7.02673 12.2808 7.10015C12.1047 7.14508 11.8493 7.20006 11.7531 7.39184C11.7343 7.42872 11.7582 7.47734 11.7994 7.46896C12.115 7.40324 12.4354 7.46929 12.7296 7.60206C12.6957 7.7298 12.6506 7.85218 12.5997 7.97321C12.2188 7.71337 11.816 7.71941 11.376 7.69828C11.3312 7.69661 11.3128 7.77305 11.3594 7.78747C11.6287 7.87028 11.8475 8.02082 12.0384 8.24043C11.98 8.31217 11.9258 8.38392 11.882 8.46607C11.4732 8.11939 11.028 7.81362 10.493 7.84111C10.4727 7.84245 10.4694 7.87598 10.4906 7.87699C11.0362 7.9018 11.4641 8.25317 11.8671 8.627C11.9001 8.65751 11.9464 8.63035 11.9606 8.59347C12.0075 8.4711 12.0889 8.37789 12.1616 8.27462C12.1761 8.25384 12.174 8.21729 12.1576 8.19852C12.0045 8.02585 11.8369 7.89341 11.6459 7.79987C11.9809 7.81563 12.299 7.8619 12.594 8.08352C12.6197 8.10229 12.6475 8.08754 12.6597 8.05971C12.7268 7.90683 12.7871 7.75495 12.827 7.591C12.8337 7.5635 12.8234 7.53836 12.7995 7.52729C12.518 7.39285 12.2109 7.31808 11.9059 7.35194C12.0357 7.2413 12.253 7.20677 12.3943 7.17458C12.6612 7.1139 12.9238 7.10585 13.1959 7.10753V7.10719ZM9.99403 2.8123C10.0073 2.8227 10.0198 2.80124 10.008 2.78984C9.86543 2.6564 9.79613 2.47434 9.63999 2.35063C9.49595 2.23663 9.3389 2.17058 9.17368 2.10353C9.05142 2.05357 8.90375 1.96305 8.76879 1.98484C8.65138 2.00328 8.56756 2.11728 8.48041 2.19573C8.44985 2.22289 8.46286 2.27486 8.49645 2.28994C8.53216 2.30604 8.56787 2.32179 8.60357 2.33789C8.28917 2.26949 7.96962 2.24066 7.64735 2.26849C7.62163 2.2705 7.61043 2.30235 7.61285 2.32615C7.63797 2.62354 7.95782 2.58398 8.13696 2.70502C8.18598 2.73821 8.23652 2.65539 8.18719 2.62354C8.07069 2.54744 7.76718 2.52698 7.71059 2.36605C8.15421 2.36639 8.58057 2.42204 9.00846 2.5642C9.06232 2.5823 9.10166 2.50318 9.05385 2.46563C8.91616 2.35901 8.76365 2.28927 8.60932 2.22054C8.70343 2.13203 8.77364 2.07201 8.92433 2.11627C9.04114 2.1508 9.15703 2.20411 9.27172 2.24803C9.41697 2.30436 9.55919 2.37711 9.68265 2.47971C9.80067 2.57694 9.87178 2.72178 9.99343 2.81197L9.99403 2.8123ZM8.69738 7.99903C8.70585 7.98193 8.70373 7.95946 8.69345 7.94304C8.69314 7.93868 8.69254 7.93499 8.69254 7.93097C8.69133 7.9132 8.66893 7.91118 8.66016 7.92225C8.65623 7.92225 8.65229 7.92191 8.64806 7.92258C8.20293 8.04898 7.69698 7.92996 7.25608 7.82535C7.23944 7.82133 7.22976 7.84815 7.24701 7.85419C7.67943 8.00607 8.20353 8.21193 8.65229 8.0282C8.64291 8.11939 8.6181 8.21293 8.59359 8.29642C8.59056 8.30681 8.59056 8.3162 8.59207 8.32492C7.95963 8.34168 7.33839 8.32793 6.7695 7.97958C6.73652 7.95946 6.68901 7.99366 6.71019 8.03691C6.88661 8.39935 7.19163 8.62834 7.49605 8.84694C7.41071 8.91936 7.31509 8.97535 7.22552 9.04207C6.94138 8.75139 6.47416 8.60487 6.23843 8.25987C6.20394 8.17941 6.16732 8.10028 6.12647 8.02216C6.11164 7.99433 6.06625 8.0064 6.07472 8.04161C6.09379 8.11906 6.12163 8.18846 6.15673 8.25183C6.23208 8.43891 6.31136 8.62599 6.37945 8.81442C6.41515 8.91299 6.43422 9.03268 6.31923 9.07929C6.22633 9.11717 6.14251 8.99849 6.06837 8.92405C5.69466 8.54955 5.43109 8.06776 5.41324 7.4998C5.41293 7.48103 5.38721 7.47834 5.38691 7.49779C5.36664 8.23204 5.76486 8.80905 6.2584 9.25095C6.27596 9.26637 6.31166 9.2657 6.3277 9.24625C6.4206 9.13561 6.55859 9.07023 6.52046 8.90058C6.4902 8.76748 6.39367 8.63069 6.34162 8.50663C6.33738 8.49658 6.33345 8.48685 6.32921 8.4768C6.58461 8.72959 6.95378 8.87879 7.18437 9.14668C7.20373 9.16914 7.23067 9.16948 7.25276 9.15171C7.36896 9.06118 7.49544 8.99144 7.5953 8.87846C7.61346 8.85834 7.61618 8.82179 7.59167 8.8047C7.32054 8.61761 7.04154 8.4198 6.85665 8.12878C7.41192 8.41846 8.00775 8.43321 8.62022 8.4198C8.64987 8.41879 8.665 8.39096 8.66409 8.36515C8.67499 8.36012 8.68346 8.35006 8.68649 8.3333C8.70737 8.22836 8.70464 8.12844 8.69859 8.02518C8.69829 8.01646 8.69768 8.00808 8.69708 7.99936L8.69738 7.99903ZM5.06464 9.82595C5.21897 9.81656 5.26315 9.62746 5.17872 9.50911C5.11971 9.42596 5.02863 9.40182 4.95298 9.34348C4.83527 9.25195 4.75901 9.09437 4.67489 8.96898C4.6649 8.95389 4.641 8.97066 4.65007 8.98709C4.72028 9.11952 4.78019 9.27341 4.87914 9.38405C4.91061 9.41993 4.94874 9.44574 4.98596 9.47324C5.01864 9.49738 5.18386 9.64758 5.08552 9.69619C5.0598 9.67977 5.02379 9.6858 5.01017 9.71095C4.71604 9.5641 4.50634 9.34147 4.39679 8.99379C4.38741 8.96395 4.34112 8.97502 4.34202 9.00553C4.34233 9.00854 4.34233 9.01122 4.34293 9.01424C4.3508 9.22144 4.37713 9.433 4.42554 9.63316C4.46972 9.81388 4.5487 9.98051 4.57563 10.1656C4.47124 10.175 4.40133 10.1763 4.31812 10.072C4.2576 9.99526 4.20827 9.90641 4.1647 9.81723C4.08209 9.64993 4.02399 9.46854 3.98405 9.28313C3.90567 8.91735 3.89599 8.53882 3.88933 8.16432C3.88903 8.14454 3.86149 8.14185 3.86149 8.16231C3.85574 8.64544 3.85453 9.14299 3.99918 9.60533C4.06302 9.80818 4.16046 10.06 4.31025 10.2062C4.4092 10.303 4.5139 10.2792 4.63736 10.2621C4.66339 10.2581 4.6767 10.2276 4.67337 10.2018C4.65159 10.0181 4.58259 9.85713 4.52933 9.68278C4.48667 9.5423 4.4555 9.39646 4.4319 9.24927C4.5605 9.51179 4.76446 9.69351 5.02681 9.82293C5.0374 9.82796 5.04648 9.82729 5.05465 9.82427C5.05828 9.82528 5.06131 9.82695 5.06524 9.82628L5.06464 9.82595Z" fill="#FCC12C"/>
<path d="M9.55135 6.4068L9.51806 6.47855C9.1625 6.27873 8.76004 6.20128 8.36182 6.17714C8.36696 6.12081 8.3718 6.06381 8.37695 6.00749C8.51221 6.00548 8.64354 6.02626 8.77215 6.06214C9.04176 6.13758 9.29898 6.27739 9.55135 6.40647V6.4068Z" fill="#FCC12C"/>
<path d="M0.155697 8.28591C0.171129 8.33452 0.229532 8.34458 0.266752 8.32782C0.625336 8.16387 0.89798 7.83999 1.22661 7.62374C0.937924 8.07234 0.76544 8.60375 0.661345 9.14287C0.61656 9.37287 0.54212 9.64981 0.613231 9.88182C0.68162 10.1058 0.881337 10.2084 1.0632 10.2992C1.11616 10.3261 1.16215 10.2731 1.17123 10.2208C1.20119 10.0461 1.17698 9.86942 1.20542 9.69407C1.23266 9.52609 1.28471 9.36214 1.33282 9.2002C1.39001 9.00876 1.45447 8.82168 1.53163 8.64096C1.49653 9.32325 1.46324 10.0102 1.5982 10.6815C1.66084 10.9949 1.73831 11.2363 1.94408 11.4643C2.16407 11.7084 2.38981 11.9605 2.66034 12.1349C2.71662 12.1711 2.7835 12.1376 2.79197 12.0641C2.81648 11.8475 2.74355 11.6474 2.71299 11.4368C2.68576 11.2497 2.7139 11.0513 2.66215 10.8682C2.6092 10.6801 2.44337 10.6483 2.36954 10.4675C2.29812 10.2922 2.27482 10.0857 2.2721 9.88283C2.3998 10.1236 2.54474 10.3525 2.64521 10.6097C2.7953 10.9953 2.92844 11.3963 2.96445 11.8164C2.96899 11.8724 3.03829 11.9079 3.08095 11.8801C3.15479 11.8479 3.22287 11.8526 3.28521 11.8938C3.34028 11.9206 3.38235 11.8774 3.39142 11.8258C3.5515 11.5994 3.5279 11.2682 3.47797 10.9902C3.9579 11.5009 4.53768 11.9029 5.17224 12.1275C5.08781 12.2599 4.93984 12.3538 4.84603 12.4742C4.82001 12.5077 4.83211 12.5573 4.85178 12.5888C4.91926 12.6951 4.99915 12.8329 5.12322 12.8604C5.24789 12.8879 5.36954 12.7927 5.47272 12.7303C5.69423 12.5979 5.92542 12.4926 6.15751 12.386C6.31729 12.3129 6.49643 12.1644 6.67194 12.103C6.55785 12.4581 6.19201 12.8111 6.70916 12.9945C6.74184 13.0066 6.78208 12.9949 6.80175 12.9613C6.90585 12.781 7.03052 12.5503 7.20421 12.4443C7.38487 12.3337 7.65055 12.3568 7.85027 12.3045C8.30145 12.1858 8.73054 12.0038 9.17355 11.862C9.17234 12.0708 9.11696 12.1976 8.94872 12.3444C8.84492 12.4353 8.74446 12.5144 8.6682 12.6368C8.63825 12.6854 8.66155 12.7434 8.70633 12.7659C9.61232 13.2158 10.4887 12.4698 11.122 11.7741C11.0754 11.9304 11.0031 12.0819 10.9758 12.2445C10.9677 12.2958 11.014 12.3451 11.0566 12.3478C11.5214 12.3776 11.7898 12.0457 11.9336 11.5937C11.9717 11.5937 12.0089 11.6145 12.0459 11.6474C12.1781 11.7657 12.3012 12.0437 12.402 12.1208C12.6329 12.2968 12.872 12.0722 13.0944 11.9894C13.1522 11.9679 13.193 11.8898 13.1434 11.8315C13.0245 11.693 12.894 11.5693 12.7615 11.4479C13.098 11.412 13.4372 11.4898 13.7752 11.4482C14.1205 11.4057 14.4869 11.1824 14.8374 11.2779C14.8697 11.2866 14.9139 11.2806 14.9318 11.2434C14.9977 11.1069 15.0773 10.9912 15.1067 10.8374C15.1176 10.781 15.0943 10.7234 15.0365 10.718C14.562 10.6737 14.0924 10.5423 13.6218 10.5953C13.8297 10.4736 14.0802 10.427 14.306 10.3901C14.6848 10.3274 15.0728 10.2432 15.4571 10.2463C15.4656 10.4293 15.4725 10.6121 15.4777 10.7954C15.4792 10.8434 15.5055 10.889 15.553 10.8913C15.8154 10.9068 16.0571 10.9353 16.1198 10.5966C16.1749 10.2962 16.1818 9.99011 16.2499 9.69004C16.2974 9.48251 16.3631 9.28067 16.4009 9.0728C16.4575 9.16399 16.525 9.24815 16.597 9.32929C16.5725 9.53548 16.5316 9.73832 16.4645 9.93245C16.4402 10.0022 16.4999 10.0699 16.5625 10.0578C16.8621 10.0002 17.0485 9.59818 17.2025 9.34571V9.34471C17.2219 9.33163 17.2355 9.30883 17.2364 9.27531C17.2433 8.84213 17.3989 8.42438 17.339 7.98852C17.2981 7.69079 17.1862 7.41285 17.1157 7.12384C17.322 7.4571 17.4419 7.83462 17.5435 8.23327C17.5584 8.29228 17.6083 8.31977 17.66 8.29663C17.8552 8.2098 17.8915 7.92649 17.9369 7.72935C18.0044 7.43497 18.0325 7.24923 17.9448 6.95352C17.8655 6.68463 17.7481 6.44088 17.5605 6.24541C17.3889 6.06671 17.1181 5.95138 16.9359 5.77033C17.1153 5.82598 17.3151 5.89337 17.4413 5.73948C17.5947 5.55173 17.4149 5.28049 17.2742 5.16046C17.2551 5.14403 17.2349 5.14269 17.2176 5.1504C16.777 4.98109 16.5117 4.44263 16.2523 4.04097C16.1177 3.8321 15.9694 3.63428 15.8196 3.43848C15.809 3.42474 15.7987 3.41099 15.7878 3.39657C15.8741 3.43278 15.9594 3.471 16.042 3.51794C16.3007 3.66647 16.5398 3.85121 16.8097 3.97559C16.8621 3.99973 16.9072 3.95112 16.9162 3.89815C16.9326 3.80058 16.9792 3.71341 16.9998 3.61618C17.0343 3.57326 17.0352 3.48877 16.9722 3.45659C16.7961 3.3674 16.6557 3.16054 16.5092 3.02006C16.3434 2.86181 16.1694 2.71261 15.9782 2.59292C15.7055 2.42159 15.4087 2.31497 15.1091 2.21942C15.4677 2.20399 15.8278 2.2801 16.1815 2.3485C16.2318 2.35856 16.2844 2.29251 16.2693 2.23819C16.2081 2.02462 16.1162 1.83787 15.917 1.7564C15.7013 1.66822 15.4335 1.66956 15.2068 1.64542C14.818 1.60419 14.4264 1.61391 14.037 1.63838C13.8751 1.64878 13.7108 1.65347 13.551 1.68432C13.4974 1.69471 13.4448 1.70745 13.3924 1.7212C13.5564 1.64677 13.7232 1.58172 13.8975 1.53478C13.9362 1.52439 13.9671 1.48147 13.9574 1.43521C13.846 0.913517 13.2611 1.04394 12.9119 1.1291C12.6078 1.2032 12.3061 1.2793 12.0123 1.39598C11.8165 1.47343 11.6237 1.56228 11.4373 1.66454C11.316 1.73092 11.2028 1.81642 11.0806 1.88146C11.0975 1.51165 11.1986 1.18442 11.5605 1.06741C11.8888 0.960791 12.2377 0.975878 12.5594 0.836739C12.5978 0.819975 12.6132 0.75929 12.5951 0.720398C12.4486 0.415632 12.2516 0.426025 11.9551 0.448489C11.6001 0.475311 11.2449 0.574888 10.9274 0.755266C10.9922 0.537002 11.2821 0.417643 11.4476 0.321419C11.4945 0.293926 11.5081 0.22553 11.4733 0.179932C11.102 -0.306218 10.4245 0.295603 10.1482 0.633226C9.7963 1.06238 10.0662 1.59916 10.2299 2.08564C9.80448 1.66118 9.45406 1.17604 8.94478 0.848808C8.56986 0.60808 8.04303 0.317731 7.70532 0.775718C7.67204 0.820645 7.7026 0.878648 7.74194 0.8991C8.01246 1.04427 8.41947 1.11133 8.5753 1.42314C8.17012 1.37016 7.78612 1.17134 7.41725 0.98996C7.02295 0.796841 6.71521 0.754596 6.30276 0.907147C6.24406 0.928604 6.21773 1.01276 6.27522 1.05735C6.44922 1.1928 6.65711 1.2622 6.84624 1.36681C6.60506 1.31652 6.36722 1.23337 6.12362 1.19951C5.71178 1.14285 5.30629 1.1643 4.89354 1.18476C4.67446 1.19548 4.43661 1.1804 4.22994 1.27729C4.00359 1.38324 3.89193 1.6062 3.82929 1.85933C3.80962 1.9398 3.87559 2.00316 3.94458 1.97299C4.28138 1.82714 4.62513 1.69404 4.99098 1.69303C5.20008 1.6927 5.48241 1.69505 5.68666 1.80837C5.61192 1.82983 5.53657 1.84961 5.46183 1.86939C5.44851 1.87073 5.43581 1.8714 5.4231 1.87207C5.40706 1.87241 5.39526 1.87978 5.38588 1.88984C5.11989 1.96058 4.85481 2.03435 4.60546 2.16745C4.57309 2.18421 4.56219 2.21506 4.56552 2.2449C4.54918 2.25261 4.53435 2.2677 4.52467 2.29217C4.50016 2.35386 4.49683 2.42829 4.48654 2.49736C4.15096 2.49032 3.82415 2.33341 3.49976 2.2506C3.19746 2.17349 2.89031 2.12755 2.58015 2.16209C2.33201 2.18958 2.05997 2.25462 1.85481 2.42092C1.67022 2.56978 1.65267 2.7116 1.66598 2.95434C1.66962 3.01369 1.71985 3.07236 1.77704 3.03716C2.06603 2.85946 2.34775 2.78704 2.65701 2.75988C2.49391 2.86449 2.31174 2.95066 2.15923 3.05761C1.94045 3.21116 1.72983 3.3778 1.54222 3.57595C1.26473 3.86831 0.912202 4.17542 1.2602 4.57172C1.28803 4.6039 1.33706 4.61363 1.36883 4.58043C1.43328 4.51338 1.50076 4.44968 1.56976 4.38664C1.423 4.58982 1.29015 4.8054 1.17516 5.03239C1.1092 5.16281 1.04807 5.29725 0.99451 5.43472C0.915531 5.63789 0.915531 5.80889 0.68404 5.83202C0.610508 5.83973 0.564815 5.82028 0.509741 5.8917C0.461325 5.95406 0.441656 6.08582 0.453457 6.16428C0.481297 6.35203 0.637137 6.3812 0.782991 6.35036C0.940042 6.31716 1.09497 6.25078 1.24567 6.16361C1.08015 6.44725 0.956685 6.75503 0.903427 7.07455C0.901006 7.08763 0.901914 7.09869 0.90373 7.10909C0.651662 7.32232 0.364795 7.56439 0.0652185 7.62306C0.00863186 7.63413 -0.00952428 7.69884 0.00772405 7.75181C0.0652185 7.92649 0.101228 8.10821 0.156907 8.28389L0.155697 8.28591ZM0.956685 7.26331C1.08015 7.16072 1.20179 7.05511 1.32495 6.95251C1.48261 6.81203 1.63936 6.67088 1.79459 6.52772C1.73468 6.84187 1.73952 7.17346 1.81063 7.49063C1.81698 7.51946 1.83907 7.54427 1.86691 7.54562C1.96375 7.54997 2.05695 7.53556 2.15287 7.52282C2.18737 7.51846 2.20189 7.4789 2.19947 7.4457C2.18888 7.2955 2.1798 7.14831 2.18767 7.0028C2.20825 7.1064 2.24547 7.20799 2.29298 7.31025C2.3187 7.36524 2.39737 7.32266 2.37105 7.26767C2.26968 7.05544 2.21884 6.85327 2.26272 6.61388C2.26998 6.57164 2.2143 6.5656 2.20008 6.59913C2.08751 6.87037 2.07117 7.10875 2.08055 7.39776C2.02699 7.40212 1.97343 7.40681 1.91957 7.40815C1.85783 7.12786 1.83877 6.77716 1.88446 6.4449C1.90232 6.42814 1.92108 6.41171 1.93893 6.39461C1.92774 6.39159 1.91533 6.3926 1.90201 6.39931C1.89808 6.40098 1.89475 6.40333 1.89112 6.40501C1.93923 6.09152 2.04575 5.79749 2.23064 5.60101C2.23246 5.599 2.22943 5.59498 2.22762 5.59766C2.02185 5.83839 1.88325 6.1331 1.81123 6.44826C1.79671 6.45597 1.78249 6.46435 1.76857 6.47273C1.5286 6.6102 1.30891 6.77783 1.08983 6.95586C1.16609 6.63802 1.31648 6.33259 1.50591 6.05699C1.64511 5.77435 1.82304 5.51619 2.00036 5.26037C1.88235 5.36364 1.76645 5.4773 1.65721 5.60001C1.21692 5.29859 1.92804 4.66895 2.18404 4.49326C2.20008 4.48253 2.18767 4.45336 2.17133 4.46409C1.87206 4.65822 1.02447 5.31066 1.57611 5.69523C1.56945 5.70294 1.56249 5.71065 1.55584 5.71836C1.34613 5.88835 1.1207 6.03319 0.883455 6.12974C0.825658 6.15355 0.617468 6.24977 0.614744 6.10896C0.612021 5.98323 0.751823 6.04324 0.812949 6.03453C1.01267 6.00737 1.052 5.80654 1.11313 5.62851C1.23932 5.26138 1.4233 4.91437 1.64087 4.59887C1.98039 4.05606 2.4467 3.63328 2.95598 3.27688C2.749 3.47972 2.64097 3.71006 2.91392 3.90753C2.93631 3.92396 2.96778 3.92296 2.98896 3.90284C3.28914 3.60813 3.60052 3.3493 3.97121 3.17294C4.04474 3.13807 3.98997 3.01469 3.91644 3.04956C3.5509 3.2229 3.24194 3.47369 2.9466 3.76269C2.69302 3.49783 3.44105 2.98485 3.61142 2.83968C3.62564 2.82761 3.60899 2.79911 3.59386 2.80984C3.50672 2.8722 3.32394 2.98083 3.15025 3.11192C3.0746 3.14042 3.00107 3.17127 2.92905 3.20479C2.60889 3.35433 2.32384 3.55616 2.063 3.8103C1.80427 3.98264 1.55402 4.16637 1.32435 4.39502C1.18364 4.17777 1.34341 4.02253 1.51014 3.84283C1.65751 3.6839 1.80488 3.53102 1.97161 3.39691C2.14137 3.26012 2.32172 3.13338 2.50419 3.01905C2.65913 2.92182 2.82465 2.8551 2.96354 2.72937C3.01378 2.68411 2.98442 2.5852 2.91936 2.58252C2.52417 2.56576 2.15983 2.6355 1.81063 2.82694C1.80972 2.74681 1.82304 2.68176 1.8884 2.60834C1.98432 2.49971 2.1323 2.44003 2.26151 2.40047C2.51478 2.32335 2.77926 2.31598 3.03919 2.34716C3.54545 2.40784 4.05382 2.72568 4.56552 2.67606C4.58307 2.67439 4.60274 2.6593 4.61485 2.6412C4.61636 2.69987 4.61757 2.75888 4.61515 2.8199C4.61333 2.86885 4.6672 2.90271 4.70169 2.86818C4.9698 2.60264 5.33111 2.44875 5.6912 2.43433C5.48271 2.59392 5.11626 2.89366 5.2373 3.13003C5.29116 3.23463 5.39465 3.22759 5.47999 3.18099C5.55624 3.13908 5.621 3.07236 5.69393 3.02509C5.8307 2.93724 5.98019 2.87019 6.12392 2.79777C6.1799 2.76994 6.13784 2.67472 6.08186 2.70322C5.92753 2.78168 5.76473 2.85275 5.62039 2.952C5.55049 3.00028 5.28269 3.24369 5.31628 2.97144C5.33988 2.77598 5.70119 2.53793 5.83464 2.42461C5.86187 2.40147 5.84281 2.35655 5.81285 2.35219C5.44034 2.3019 4.97131 2.43869 4.68414 2.72535C4.67416 2.69484 4.6672 2.66366 4.66235 2.63248C4.64964 2.55201 4.65146 2.46819 4.6566 2.38538C4.66447 2.37432 4.66901 2.36057 4.66841 2.34313C4.6681 2.33844 4.6675 2.33375 4.6675 2.32939C4.6672 2.32537 4.66659 2.32168 4.66599 2.31832C4.66689 2.31799 4.6675 2.31799 4.66871 2.31732C5.05876 2.12487 5.48331 2.07156 5.89031 1.93846C5.90272 1.9341 5.91482 1.92639 5.92481 1.91666C6.03435 1.89789 6.14359 1.88515 6.25374 1.89588C6.50672 1.92035 6.70159 2.13895 6.96001 2.12386C6.96032 2.12386 6.96032 2.12353 6.96032 2.12286C6.72883 2.02261 6.55241 1.80803 6.29943 1.76814C6.17537 1.74835 6.05342 1.7621 5.93238 1.78524C5.70784 1.55155 5.34563 1.5197 5.05271 1.514C4.7023 1.50763 4.37216 1.60553 4.04716 1.73595C4.12887 1.55088 4.25898 1.4342 4.47292 1.39665C4.71834 1.35373 4.9816 1.35675 5.22943 1.34468C5.57833 1.32792 5.93298 1.34032 6.27795 1.40537C6.56814 1.46002 6.84775 1.58139 7.14521 1.57971C7.22509 1.57938 7.25051 1.4808 7.19362 1.42515C6.99118 1.22633 6.73125 1.15123 6.49824 1.01611C6.64198 0.973196 6.78844 0.949391 6.93944 0.979566C7.15186 1.02181 7.34946 1.1415 7.54585 1.23538C7.90746 1.40872 8.28511 1.57502 8.68212 1.60083C8.72721 1.60385 8.77351 1.55557 8.75989 1.50327C8.64642 1.05333 8.23609 0.963138 7.89324 0.800193C8.24244 0.507833 8.8537 0.995659 9.14541 1.22197C9.54 1.52841 9.84291 1.95086 10.2227 2.27843C10.2853 2.31598 10.3504 2.3485 10.416 2.37901C10.4124 2.34816 10.4097 2.31866 10.4067 2.2962C10.4042 2.2801 10.4024 2.26468 10.4003 2.24892C10.2895 1.81709 9.97605 1.2555 10.1939 0.858532C10.2992 0.666083 10.5083 0.51085 10.6748 0.390486C10.8415 0.270457 11.0775 0.107177 11.2627 0.223854C11.0037 0.374057 10.7083 0.562147 10.7601 0.927263C10.768 0.979901 10.8294 1.01645 10.8721 0.987948C11.1311 0.817963 11.4164 0.712016 11.7133 0.65703C11.8607 0.629873 12.0089 0.615121 12.1584 0.618138C12.2858 0.620821 12.3448 0.630208 12.4044 0.716374C12.0271 0.849479 11.5686 0.7955 11.2412 1.05769C10.9855 1.26187 10.9335 1.67895 10.9289 2.00115C10.928 2.04843 10.9683 2.10442 11.0167 2.08732C11.2721 1.99478 11.5024 1.81005 11.7505 1.69169C12.0688 1.54048 12.396 1.42917 12.734 1.34703C12.9939 1.28433 13.6263 1.04427 13.7822 1.39665C13.4775 1.49086 13.1939 1.64241 12.9113 1.79965C12.8841 1.81507 12.8735 1.84626 12.8762 1.87509C13.0463 1.90359 13.2311 1.86805 13.4064 1.84123C13.4711 1.83117 13.5347 1.82245 13.5955 1.81809C13.653 1.81407 13.7102 1.8134 13.7671 1.81474C14.1011 1.78255 14.4428 1.77685 14.7771 1.78792C15.0619 1.79798 15.3442 1.83754 15.6272 1.87442C15.835 1.90158 15.967 1.9626 16.0526 2.13996C15.6114 2.05647 15.1621 1.98975 14.7206 2.10945C14.6531 2.12789 14.637 2.24322 14.7106 2.2677C15.1569 2.41891 15.6175 2.53793 16.0133 2.82359C16.2018 2.95971 16.3731 3.12098 16.5371 3.29096C16.6469 3.40563 16.7435 3.52901 16.8739 3.61081C16.8551 3.67116 16.8303 3.72749 16.8015 3.78248C16.5598 3.66748 16.3413 3.50755 16.1074 3.37411C15.8889 3.24972 15.6477 3.18669 15.4314 3.06063C15.425 3.05761 15.4196 3.05359 15.4135 3.05023C15.4062 3.04688 15.3987 3.04453 15.3917 3.0442C15.4105 3.09214 15.4296 3.13875 15.4492 3.18568C15.4556 3.19608 15.4613 3.20647 15.4662 3.21552C15.4864 3.25542 15.5067 3.29599 15.5264 3.33656C15.6492 3.45826 15.7494 3.62121 15.8493 3.75398C16.0096 3.96788 16.1513 4.1952 16.305 4.41514C16.5619 4.78193 16.7743 5.21075 17.2119 5.32139C17.2158 5.32273 17.2197 5.32273 17.2231 5.32307C17.3163 5.47327 17.3671 5.66438 17.1235 5.62582C16.9931 5.6047 16.8733 5.54838 16.7398 5.55106C16.686 5.5524 16.6291 5.6151 16.6633 5.67679C16.7764 5.88164 16.9489 5.99496 17.1284 6.12069C17.3429 6.2719 17.5387 6.4449 17.6649 6.69435C17.7995 6.96022 17.8794 7.24521 17.811 7.54327C17.7808 7.67503 17.7566 7.92884 17.6673 8.06194C17.5357 7.5711 17.365 7.11177 17.0388 6.73257C16.9786 6.66283 16.8908 6.72184 16.8969 6.80968C16.9241 7.20799 17.0981 7.56204 17.1683 7.94962C17.2476 8.38481 17.0893 8.79687 17.0709 9.22803C17.0678 9.23239 17.0642 9.23608 17.0612 9.24144C16.9671 9.39567 16.8472 9.65517 16.6899 9.78928C16.81 9.33096 16.8167 8.83207 16.7925 8.36067C16.7655 7.82959 16.5734 7.37395 16.3413 6.91697C16.3316 6.8982 16.3168 6.88847 16.3013 6.88613C16.3041 6.8935 16.3065 6.90088 16.3086 6.90792C16.4039 7.12149 16.4578 7.34613 16.4938 7.57814C16.5035 7.62374 16.512 7.66933 16.5201 7.71493C16.5822 7.94359 16.6215 8.17929 16.6266 8.43108C16.6312 8.65538 16.6318 8.88471 16.6167 9.11203C16.5519 9.03156 16.4935 8.94405 16.4551 8.84682C16.4902 8.51054 16.2877 8.1813 16.0956 7.94024C16.0947 7.9399 16.0941 7.94024 16.0944 7.94124C16.2139 8.16219 16.324 8.43812 16.3343 8.70668C16.3259 8.70802 16.3177 8.71137 16.3101 8.71607C16.2729 8.72713 16.2354 8.73115 16.1942 8.73316C16.1861 8.7335 16.1779 8.73417 16.1697 8.73417C16.1721 8.7221 16.17 8.70936 16.1606 8.6983C16.1198 8.64867 16.1047 8.54574 16.0835 8.48405C16.059 8.4123 16.0314 8.3429 15.9894 8.28088C15.9891 8.28054 15.9885 8.28088 15.9891 8.28121C16.036 8.37643 16.049 8.47668 16.0614 8.58195C16.0671 8.62956 16.0638 8.70232 16.0904 8.74691C16.0798 8.75127 16.0696 8.75596 16.0593 8.75731C16.059 8.75731 16.059 8.75764 16.0593 8.75831C16.0814 8.76401 16.1059 8.78614 16.1289 8.79418C16.1634 8.80592 16.1985 8.81497 16.2339 8.82101C16.2466 8.82369 16.2596 8.82537 16.2723 8.82604C16.2426 9.28067 16.0587 9.71821 15.9984 10.1712C15.9821 10.2945 16.0012 10.5698 15.9204 10.6721C15.8626 10.7462 15.7355 10.7328 15.6356 10.721C15.6347 10.6972 15.6341 10.6737 15.6332 10.6499C15.6816 10.4072 15.6045 10.1675 15.5857 9.92474C15.5709 9.73095 15.5899 9.52777 15.6244 9.32861C15.6774 9.1935 15.6992 9.01681 15.7312 8.8552C15.7446 8.78983 15.6574 8.75194 15.6405 8.81933C15.5969 8.99099 15.5569 9.16534 15.5273 9.34203C15.4895 9.41679 15.438 9.46373 15.3633 9.44697C15.2117 9.41243 15.3615 9.07448 15.3905 8.95914C15.4314 8.79955 15.4598 8.64331 15.4589 8.47601C15.4586 8.43075 15.4084 8.39219 15.3742 8.42907C15.2419 8.5719 15.1512 8.74121 15.0486 8.90952C14.9853 9.01312 14.9172 9.1365 14.7992 9.1593C14.7436 9.17003 14.6803 9.1593 14.6204 9.15192C14.6806 8.84582 14.7998 8.55849 14.8667 8.25406C14.8492 8.28792 14.8313 8.32178 14.8131 8.35564C14.7747 8.46964 14.726 8.58061 14.7081 8.63258C14.6437 8.81765 14.5798 9.00407 14.5072 9.18545C14.4927 9.22133 14.5211 9.26022 14.5529 9.26324C14.6997 9.27799 14.8467 9.32224 14.972 9.21362C15.136 9.07112 15.2247 8.83878 15.346 8.64532C15.313 8.92595 15.2074 9.19149 15.1624 9.47144C15.1587 9.49324 15.1763 9.52173 15.1956 9.52743C15.3348 9.56934 15.4323 9.55426 15.5025 9.50262C15.4919 9.58644 15.4837 9.6706 15.4801 9.75475C15.4749 9.8607 15.4837 9.96497 15.4955 10.0686C15.2973 10.0642 15.0973 10.0806 14.8976 10.1075C14.9726 9.93513 14.9212 9.84863 14.7157 9.7799C14.5868 9.73698 14.4503 9.72726 14.3166 9.71888C14.2394 9.71418 13.8454 9.73899 13.8454 9.61293C13.8454 9.60991 13.8412 9.60958 13.8412 9.61259C13.8415 9.63439 13.8424 9.65652 13.843 9.67797C13.843 9.67898 13.843 9.67931 13.8439 9.67931C13.997 9.73564 14.1541 9.75173 14.3133 9.77353C14.4682 9.79465 14.9387 9.83455 14.7784 10.1135C14.7765 10.1175 14.7744 10.1212 14.7732 10.1252C14.5653 10.1574 14.3583 10.198 14.1559 10.2369C13.8657 10.2919 13.5716 10.381 13.3479 10.5929C13.3044 10.5836 13.2614 10.5722 13.2184 10.5577C13.0157 10.489 12.6495 10.3971 12.4913 10.1953C12.6629 10.2282 12.822 10.3076 13.0021 10.2929C13.0272 10.2909 13.0447 10.2607 13.0475 10.2355C13.0635 10.086 13.1422 9.91971 13.0027 9.82415C12.8874 9.74503 12.6783 9.73631 12.5548 9.70647C12.3442 9.65484 12.1397 9.58342 11.9303 9.52877C11.9284 9.52844 11.9263 9.53179 11.9284 9.53313C12.0643 9.63036 12.2177 9.69071 12.3715 9.74503C12.5218 9.79834 12.7579 9.81275 12.8925 9.90127C12.9639 9.94821 12.9649 9.97134 12.9624 10.0542C12.9597 10.15 12.9473 10.1608 12.8626 10.1698C12.7152 10.1859 12.5524 10.0713 12.3978 10.0733C12.3618 10.0743 12.3324 10.1125 12.35 10.1517C12.4686 10.4146 12.8226 10.5353 13.0532 10.6231C13.1918 10.6761 13.3325 10.7274 13.4793 10.7425C13.5589 10.7505 13.6378 10.7502 13.7162 10.7475C13.7522 10.7525 13.7885 10.7582 13.8242 10.7639C14.1886 10.7576 14.5538 10.8431 14.9206 10.8873C14.893 10.9591 14.8558 11.0251 14.8204 11.0935C14.493 11.0345 14.1722 11.1877 13.8524 11.2497C13.5946 11.2997 13.3346 11.2682 13.0747 11.2571C13.0971 11.1371 13.1225 11.0177 13.1488 10.8987C13.1567 10.8622 13.1437 10.8347 13.1137 10.8179C12.9225 10.7113 12.7098 10.7482 12.5088 10.6764C12.3112 10.6057 12.1348 10.4568 11.9641 10.3291C11.9638 10.3287 11.9632 10.3294 11.9638 10.3301C12.1518 10.4967 12.3158 10.6925 12.5494 10.7814C12.671 10.828 12.8284 10.8132 12.9419 10.8736C13.0653 10.9389 12.9942 11.1193 12.9624 11.2551C12.8217 11.2534 12.6816 11.2622 12.5421 11.297C12.5206 11.3027 12.5049 11.3148 12.494 11.3299C12.4943 11.3309 12.4949 11.3312 12.4952 11.3316C12.5742 11.465 12.6777 11.5743 12.7633 11.7014C12.8184 11.754 12.8729 11.8073 12.9246 11.8636C12.8326 11.9126 12.7424 11.9686 12.6444 11.9937C12.579 12.0105 12.5267 11.9988 12.4819 11.9719C12.474 11.9689 12.4668 11.9639 12.4595 11.9568C12.4323 11.9361 12.4078 11.9096 12.3848 11.8801C12.2873 11.7815 12.185 11.689 12.081 11.5981C12.0265 11.5512 11.9717 11.5042 11.9169 11.4576H11.9154C11.8719 11.4194 11.7977 11.4214 11.7753 11.4968C11.6715 11.8465 11.5003 12.1252 11.1716 12.156C11.2306 11.9381 11.3444 11.7446 11.3335 11.5066C11.3632 11.3607 11.3729 11.2098 11.342 11.0637C11.2945 10.8387 11.1583 10.7177 11.0043 10.5772C11.0043 10.5768 11.0034 10.5772 11.004 10.5775C11.2067 10.8206 11.25 11.1116 11.2104 11.408C11.2037 11.412 11.1967 11.4174 11.1907 11.4248C10.9035 11.7537 10.6067 12.0541 10.2675 12.3055C10.3537 12.0846 10.4523 11.8713 10.4808 11.6283C10.4835 11.6035 10.449 11.589 10.4378 11.6115C10.3652 11.7527 10.2774 11.8801 10.1712 11.9931C10.0538 12.1178 9.96364 12.1801 9.82172 12.1456C9.99391 11.8579 10.1652 11.5515 10.2103 11.2055C10.2121 11.1914 10.1921 11.1871 10.1882 11.2005C10.0941 11.5448 9.947 11.8838 9.70795 12.1355C9.68041 12.1647 9.68737 12.216 9.72429 12.2311C9.8765 12.2935 9.97787 12.3055 10.1104 12.1919C10.2166 12.101 10.3065 11.98 10.3788 11.8496C10.3225 12.0283 10.2429 12.1966 10.1767 12.3726C10.1219 12.4108 10.0662 12.448 10.0093 12.4836C9.68343 12.6867 9.23014 12.8155 8.85884 12.6589C8.97837 12.5318 9.13482 12.45 9.23952 12.3052C9.34119 12.164 9.35057 12.0055 9.34059 11.8392C9.45376 11.4968 9.61323 11.179 9.72338 10.8337C9.73336 10.8028 9.6916 10.7867 9.68041 10.8166C9.58418 11.0704 9.44377 11.2883 9.33242 11.5264C9.32697 11.5113 9.31456 11.4989 9.29399 11.4945C9.01317 11.4395 9.28158 11.1478 9.33907 11.0482C9.41866 10.9101 9.47918 10.7566 9.54847 10.6114C9.57056 10.5648 9.52396 10.5088 9.48311 10.5467C9.38295 10.6395 9.28642 10.7368 9.18233 10.8243C9.11394 10.8823 8.91634 11.0902 8.82677 11.0412C8.62191 10.9296 9.02255 10.662 9.09729 10.602C9.24103 10.4867 9.65378 10.2034 9.58418 9.95055C9.58388 9.94854 9.58055 9.94787 9.57994 9.95022C9.50339 10.2697 9.13936 10.4622 8.91089 10.6322C8.83282 10.6902 8.70845 10.7606 8.67093 10.8608C8.62584 10.9809 8.72812 11.0949 8.78773 11.1827C8.80195 11.2038 8.83252 11.2085 8.8534 11.1974C9.03435 11.0989 9.20684 10.9701 9.35965 10.8199C9.32818 10.8876 9.2952 10.9537 9.25798 11.0167C9.20684 11.1029 9.13058 11.1867 9.0979 11.2853C9.04343 11.4496 9.12816 11.5595 9.27492 11.5964C9.28461 11.5984 9.29308 11.5981 9.30095 11.5961C9.29187 11.6169 9.28339 11.6373 9.27522 11.6581C9.26161 11.6531 9.24739 11.6511 9.23437 11.6554C8.69362 11.8331 8.16649 12.0873 7.60456 12.1811C7.41997 12.212 7.23054 12.2113 7.07228 12.3347C6.92037 12.4534 6.80024 12.6344 6.70008 12.8095C6.61686 12.7736 6.56633 12.724 6.60022 12.6046C6.6211 12.5308 6.67466 12.4608 6.71006 12.3954C6.72973 12.3585 6.74849 12.321 6.76574 12.2834C6.94882 11.9669 7.08771 11.6528 7.43177 11.521C7.46324 11.5089 7.45053 11.4533 7.41967 11.4523C7.20089 11.4429 6.99663 11.4891 6.81053 11.6088C6.69978 11.2042 7.30195 11.2269 7.50046 10.9912C7.50137 10.9899 7.50016 10.9882 7.49895 10.9896C7.25021 11.2719 6.49552 11.0788 6.74063 11.7141C6.75001 11.7389 6.78481 11.7547 6.80659 11.7389C6.92854 11.6504 7.06078 11.5877 7.19967 11.5538C7.04868 11.6514 6.93671 11.7875 6.83685 11.9465C6.82324 11.9253 6.80236 11.9099 6.78057 11.9112C6.645 11.9193 6.53546 11.9853 6.41745 12.0571C6.24133 12.1644 6.05463 12.2405 5.86853 12.325C5.69029 12.4058 5.51811 12.4966 5.34745 12.5962C5.18374 12.6918 5.12201 12.6914 5.02336 12.5429C5.08479 12.4805 5.15106 12.4256 5.21309 12.3655C5.27875 12.3203 5.34593 12.2764 5.4004 12.22C5.51993 12.096 5.62856 11.9689 5.76473 11.8667C6.02043 11.6739 6.29187 11.526 6.50883 11.2762C6.54333 11.2363 6.51942 11.1606 6.46375 11.1736C6.20502 11.2353 5.94236 11.2719 5.67698 11.2662C5.55382 11.2642 5.43066 11.2538 5.30871 11.2326C5.22973 11.2192 5.11717 11.2367 5.08872 11.1384C5.05725 11.0281 5.12564 10.9745 5.22671 10.9792C5.42219 10.9882 5.60829 11.0211 5.80589 11.002C6.0867 10.9752 6.31517 10.8595 6.58418 10.7884C6.63532 10.7747 6.64137 10.6962 6.59144 10.6751C6.43137 10.607 6.24678 10.6134 6.07853 10.5919C5.90181 10.5695 5.57167 10.5376 5.66518 10.2858C6.2029 10.5644 6.7951 10.4263 7.36913 10.4069C7.39092 10.4065 7.39334 10.3733 7.37155 10.37C6.80357 10.2785 6.20139 10.4622 5.67093 10.15C5.64521 10.135 5.60829 10.1346 5.59134 10.1668C5.31658 10.6851 5.96112 10.6965 6.34997 10.7442C6.22983 10.7894 6.11061 10.837 5.98321 10.8612C5.7605 10.9034 5.54293 10.9031 5.31961 10.8763C5.04968 10.8444 4.95527 10.9279 4.97524 11.2316C4.97646 11.2497 4.9928 11.2682 5.00762 11.2729C5.42552 11.414 5.87095 11.4187 6.29913 11.3322C6.07732 11.5334 5.81376 11.6578 5.57924 11.8465C5.51085 11.9015 5.45094 11.9679 5.39072 12.0336C5.38103 12.0051 5.36167 11.981 5.33564 11.9719C5.0403 11.869 4.75707 11.7322 4.48684 11.5686C4.55644 11.5186 4.61636 11.4355 4.6905 11.4033C4.72197 11.3896 4.72832 11.3396 4.70684 11.3138C4.46718 11.0191 4.00177 10.7244 4.00994 10.2681C4.00994 10.2677 4.00904 10.2677 4.00904 10.2681C3.99391 10.7287 4.33978 11.0265 4.58822 11.3376C4.52134 11.3963 4.44902 11.4925 4.38547 11.5056C4.04232 11.2876 3.72066 11.0278 3.42289 10.7398C3.37236 10.5259 3.307 10.3106 3.22499 10.1065C3.19625 10.0605 3.16508 10.0173 3.13179 9.97905C3.21017 9.96095 3.29005 9.92541 3.36298 9.88048C3.39324 9.86238 3.40292 9.82617 3.39052 9.79096C3.21652 9.30716 3.08822 8.8019 3.03829 8.28356C3.13512 8.45187 3.16296 8.66376 3.27674 8.82469C3.39052 8.98596 3.44831 8.95411 3.61323 8.92226C3.63926 8.91757 3.66165 8.88404 3.65408 8.8542C3.54908 8.44784 3.33938 8.09346 3.21349 7.6975C3.12634 7.4219 3.13179 7.09568 2.97081 6.85428C2.92996 6.79393 2.85067 6.8707 2.89092 6.93105C3.04283 7.15837 3.03435 7.48929 3.11969 7.74946C3.24012 8.11659 3.42925 8.44851 3.53607 8.82201C3.47282 8.83744 3.43439 8.84313 3.37236 8.77072C3.30246 8.68891 3.26857 8.56754 3.23135 8.46461C3.17385 8.30703 3.11878 8.17191 3.00107 8.05959C2.97232 8.03177 2.91573 8.06094 2.91785 8.10385C2.94751 8.68321 3.07641 9.24681 3.261 9.78828C3.18202 9.83052 3.08277 9.87042 2.99562 9.86103C2.99411 9.86003 2.9929 9.85936 2.99108 9.85835C2.99199 9.85936 2.99199 9.86003 2.99259 9.86103C2.93752 9.85399 2.88759 9.82784 2.85158 9.76883C2.78864 9.66691 2.78077 9.50631 2.76625 9.38662C2.72661 9.06945 2.68424 8.74121 2.7021 8.42169C2.70512 8.36704 2.62523 8.34391 2.61343 8.40158C2.61253 8.40593 2.61222 8.41029 2.61162 8.41465H2.61132V8.41666C2.57016 8.63761 2.58892 8.8656 2.54656 9.08587C2.46032 9.06609 2.41099 9.05503 2.39102 8.9283C2.36681 8.77541 2.3774 8.59335 2.38739 8.43913C2.40615 8.15917 2.49693 7.89464 2.52053 7.61569C2.52295 7.58954 2.48664 7.58685 2.48362 7.61301C2.45336 7.86346 2.35743 8.09513 2.3193 8.34357C2.28057 8.5957 2.29086 8.85319 2.29449 9.10767C2.2954 9.1422 2.31386 9.16869 2.34563 9.17338C2.42219 9.18042 2.49723 9.19652 2.57016 9.22334C2.59528 9.23105 2.62675 9.22233 2.64006 9.19618C2.65701 9.39031 2.68666 9.58074 2.74113 9.75609C2.79711 9.93681 2.91543 9.99749 3.04918 9.99079C3.15025 10.2379 3.21924 10.5044 3.27129 10.767C3.32425 11.0355 3.41503 11.4402 3.26615 11.692C3.21289 11.6742 3.16114 11.6665 3.1097 11.6766C3.05856 11.3081 2.94297 10.9607 2.81315 10.6164C2.66972 10.2342 2.4355 9.91032 2.28057 9.53582C2.22126 9.64176 2.16165 9.74771 2.12987 9.86975C2.12322 9.8959 2.11807 9.92239 2.11323 9.94854C2.1214 10.2758 2.18253 10.6261 2.39526 10.8129C2.47908 10.887 2.50934 10.9054 2.52507 11.0389C2.53718 11.1401 2.53173 11.2437 2.53778 11.3453C2.54958 11.5277 2.6101 11.7074 2.62402 11.8895C2.42158 11.7322 2.24335 11.5394 2.06754 11.3463C1.84361 11.0995 1.77462 10.8082 1.71864 10.4689C1.59941 9.74168 1.67385 8.9977 1.70653 8.26579C1.71016 8.18264 1.60516 8.13369 1.56249 8.21013C1.39848 8.50317 1.27896 8.81698 1.18061 9.14321C1.13522 9.29475 1.08892 9.4463 1.05836 9.60254C1.02689 9.76313 1.03506 9.92373 1.02265 10.0833C0.871956 10.0002 0.747284 9.89791 0.745771 9.68334C0.744258 9.42953 0.813252 9.15695 0.871654 8.91421C1.00026 8.38079 1.20512 7.85843 1.55221 7.45509C1.59972 7.40011 1.56824 7.27337 1.48533 7.30355C1.02417 7.47018 0.704315 7.89095 0.277948 8.12129C0.245267 8.00763 0.216822 7.89263 0.183536 7.77964C0.467074 7.6871 0.724589 7.45777 0.955172 7.26533L0.956685 7.26331Z" fill="black"/>
<path d="M11.2024 2.52999C11.3749 2.41499 11.5407 2.28993 11.712 2.17225C11.7928 2.11626 11.8763 2.06262 11.9646 2.02205C12.1111 1.95499 12.2082 1.94963 12.3081 2.06698C12.1656 2.18667 11.9931 2.24903 11.8684 2.39722C11.8412 2.42941 11.8587 2.50015 11.9068 2.48406C12.0721 2.42941 12.2267 2.34492 12.3928 2.29362C12.5807 2.23562 12.7771 2.1984 12.9714 2.17561C13.1139 2.15918 13.2713 2.13001 13.4147 2.13135C13.5766 2.13269 13.6162 2.23093 13.6804 2.36135C13.4038 2.43243 13.1163 2.4388 12.8664 2.60509C12.8325 2.62756 12.8373 2.69093 12.8818 2.69327C13.0328 2.70199 13.1881 2.73518 13.3158 2.83006C13.4193 2.90718 13.4674 2.98027 13.481 3.11538C13.4916 3.21597 13.4655 3.28034 13.4289 3.35377C13.2555 3.05168 12.8007 3.07985 12.5202 3.01849C12.4815 3.00977 12.4679 3.07314 12.496 3.09527C12.5916 3.1697 12.6373 3.27598 12.6969 3.38226C12.7227 3.42786 12.791 3.39132 12.7653 3.34471C12.7224 3.2676 12.6848 3.19216 12.6358 3.12645C12.9072 3.16869 13.2967 3.18747 13.382 3.47245C13.3926 3.50866 13.4441 3.53482 13.4652 3.49156C13.5706 3.27129 13.6595 3.10331 13.4979 2.88103C13.3838 2.72378 13.2108 2.64868 13.0343 2.61683C13.2619 2.51558 13.5131 2.50719 13.7515 2.43746C13.7757 2.43008 13.7951 2.39856 13.7806 2.37107C13.7315 2.27854 13.6928 2.13772 13.6057 2.07804C13.4991 2.00495 13.3415 2.04317 13.2253 2.05725C13.0089 2.08307 12.7941 2.10151 12.5804 2.1508C12.4461 2.18131 12.3193 2.22992 12.1922 2.27854C12.2703 2.2316 12.3477 2.18399 12.4152 2.11794C12.437 2.09682 12.4373 2.06195 12.4204 2.03747C12.066 1.5245 11.5038 2.27217 11.1863 2.49445C11.167 2.50786 11.1821 2.54307 11.2018 2.52966L11.2024 2.52999Z" fill="black"/>
<path d="M13.1911 6.63076C13.1902 6.60997 13.1814 6.58784 13.1614 6.5808C12.5692 6.38668 11.9308 6.72229 11.4357 7.06293C11.3964 7.09009 11.4263 7.1615 11.4684 7.13569C11.7873 6.94056 12.1144 6.75481 12.473 6.66596C12.6013 6.63445 12.9536 6.54493 13.071 6.65389C13.1312 6.70955 13.1282 6.88725 13.1448 7.00929C12.8507 7.00929 12.5702 7.02706 12.2812 7.10048C12.1051 7.14541 11.8497 7.20039 11.7534 7.39217C11.7347 7.42905 11.7586 7.47767 11.7997 7.46929C12.1153 7.40357 12.4358 7.46962 12.7299 7.60239C12.696 7.73013 12.6509 7.85251 12.6001 7.97354C12.2191 7.7137 11.8164 7.71974 11.3764 7.69861C11.3316 7.69694 11.3131 7.77338 11.3597 7.7878C11.6291 7.87028 11.8478 8.02115 12.0388 8.24076C11.9804 8.31251 11.9262 8.38426 11.8823 8.4664C11.4735 8.11972 11.0284 7.81395 10.4934 7.84144C10.4731 7.84278 10.4698 7.87631 10.491 7.87732C11.0366 7.90213 11.4644 8.2535 11.8675 8.62733C11.9005 8.65784 11.9468 8.63068 11.961 8.5938C12.0079 8.47143 12.0893 8.37822 12.1619 8.27495C12.1765 8.25417 12.1743 8.21762 12.158 8.19885C12.0049 8.02618 11.8373 7.89375 11.6463 7.8002C11.9813 7.81596 12.2993 7.86223 12.5944 8.08385C12.6201 8.10262 12.6479 8.08787 12.66 8.06004C12.7272 7.90716 12.7874 7.75528 12.8274 7.59133C12.834 7.56383 12.8237 7.53869 12.7998 7.52762C12.5184 7.39318 12.2113 7.31841 11.9062 7.35227C12.0361 7.24163 12.2533 7.2071 12.3946 7.17491C12.6615 7.11423 12.9242 7.10618 13.1962 7.10786C13.2319 7.10819 13.251 7.07299 13.2389 7.03712C13.195 6.90334 13.1938 6.77191 13.1911 6.6311V6.63076Z" fill="black"/>
<path d="M8.13734 2.70534C8.18636 2.73853 8.2369 2.65572 8.18757 2.62387C8.07107 2.54776 7.76756 2.52731 7.71097 2.36638C8.15459 2.36671 8.58095 2.42237 9.00883 2.56453C9.0627 2.58263 9.10204 2.50351 9.05422 2.46595C8.91684 2.35934 8.76403 2.2896 8.6097 2.22087C8.70381 2.13235 8.77401 2.07234 8.92471 2.1166C9.04151 2.15113 9.15741 2.20444 9.2721 2.24836C9.41735 2.30469 9.55957 2.37744 9.68303 2.48004C9.80105 2.57727 9.87216 2.72211 9.99381 2.81229C10.0071 2.82269 10.0195 2.80123 10.0077 2.78983C9.8652 2.65639 9.7959 2.47434 9.63976 2.35062C9.49572 2.23663 9.33867 2.17058 9.17345 2.10352C9.0512 2.05356 8.90353 1.96304 8.76857 1.98483C8.65116 2.00327 8.56734 2.11727 8.48019 2.19572C8.44962 2.22288 8.46264 2.27485 8.49623 2.28993C8.53193 2.30569 8.56764 2.32179 8.60335 2.33754C8.28894 2.26915 7.9694 2.24031 7.64712 2.26814C7.6214 2.27015 7.61021 2.302 7.61263 2.32581C7.63774 2.6232 7.95759 2.58364 8.13673 2.70467L8.13734 2.70534Z" fill="black"/>
<path d="M8.69744 7.99902C8.70591 7.98193 8.7038 7.95946 8.69351 7.94303C8.69321 7.93867 8.6926 7.93499 8.6926 7.93096C8.69139 7.91319 8.669 7.91118 8.66022 7.92225C8.65629 7.92225 8.65235 7.92191 8.64812 7.92258C8.20299 8.04898 7.69704 7.92996 7.25615 7.82535C7.2395 7.82133 7.22982 7.84815 7.24707 7.85418C7.67949 8.00607 8.20359 8.21192 8.65235 8.02819C8.64297 8.11939 8.61816 8.21293 8.59365 8.29641C8.59062 8.30681 8.59062 8.3162 8.59214 8.32491C7.9597 8.34168 7.33845 8.32793 6.76956 7.97958C6.73658 7.95946 6.68907 7.99366 6.71025 8.03691C6.88667 8.39934 7.19169 8.62834 7.49611 8.84694C7.41078 8.91936 7.31515 8.97535 7.22558 9.04207C6.94144 8.75138 6.47422 8.60487 6.23849 8.25987C6.204 8.1794 6.16738 8.10028 6.12653 8.02216C6.1117 7.99433 6.06631 8.00607 6.07479 8.0416C6.09385 8.11905 6.12169 8.18846 6.15679 8.25182C6.23214 8.43924 6.31142 8.62599 6.37951 8.81442C6.41521 8.91299 6.43428 9.03268 6.31929 9.07928C6.22639 9.11717 6.14257 8.99848 6.06843 8.92405C5.69472 8.54955 5.43115 8.06776 5.4133 7.4998C5.413 7.48102 5.38727 7.47834 5.38697 7.49779C5.3667 8.23204 5.76492 8.80905 6.25847 9.25095C6.27602 9.26637 6.31172 9.2657 6.32776 9.24625C6.42066 9.13561 6.55865 9.07023 6.52052 8.90058C6.49026 8.76748 6.39373 8.63068 6.34168 8.50663C6.33745 8.49657 6.33351 8.48685 6.32928 8.47679C6.58467 8.72959 6.95385 8.87879 7.18443 9.14667C7.2038 9.16914 7.23073 9.16947 7.25282 9.1517C7.36902 9.06118 7.4955 8.99144 7.59536 8.87845C7.61352 8.85834 7.61624 8.82179 7.59173 8.80469C7.3206 8.61761 7.0416 8.4198 6.85671 8.12878C7.41199 8.41845 8.00781 8.43321 8.62028 8.4198C8.64993 8.41879 8.66506 8.39096 8.66416 8.36515C8.67505 8.36012 8.68352 8.35006 8.68655 8.33329C8.70743 8.22835 8.7047 8.12844 8.69865 8.02518C8.69835 8.01646 8.69774 8.00808 8.69714 7.99936L8.69744 7.99902Z" fill="black"/>
<path d="M4.95295 9.34347C4.83524 9.25194 4.75898 9.09436 4.67486 8.96897C4.66487 8.95388 4.64097 8.97065 4.65005 8.98707C4.72025 9.11951 4.78016 9.2734 4.87912 9.38404C4.91059 9.41992 4.94871 9.44573 4.98593 9.47323C5.01862 9.49737 5.18384 9.64757 5.08549 9.69618C5.05977 9.67976 5.02376 9.68579 5.01014 9.71094C4.71601 9.56409 4.50631 9.34146 4.39677 8.99378C4.38739 8.96394 4.34109 8.97501 4.342 9.00552C4.3423 9.00853 4.3423 9.01121 4.3429 9.01423C4.35077 9.22143 4.3771 9.43299 4.42551 9.63315C4.46969 9.81387 4.54867 9.9805 4.57561 10.1656C4.47121 10.175 4.40131 10.1763 4.31809 10.072C4.25757 9.99525 4.20825 9.9064 4.16467 9.81722C4.08206 9.64992 4.02396 9.46853 3.98402 9.28312C3.90564 8.91734 3.89596 8.53881 3.8893 8.16431C3.889 8.14453 3.86146 8.14184 3.86146 8.1623C3.85571 8.64543 3.8545 9.14298 3.99915 9.60532C4.063 9.80817 4.16044 10.06 4.31022 10.2061C4.40917 10.303 4.51387 10.2792 4.63734 10.2621C4.66336 10.2581 4.67667 10.2276 4.67335 10.2018C4.65156 10.018 4.58257 9.85712 4.52931 9.68277C4.48664 9.54229 4.45547 9.39645 4.43187 9.24926C4.56048 9.51178 4.76443 9.6935 5.02679 9.82292C5.03738 9.82795 5.04645 9.82728 5.05462 9.82426C5.05826 9.82527 5.06128 9.82694 5.06522 9.82627C5.21954 9.81688 5.26372 9.62779 5.1793 9.50944C5.12029 9.42629 5.02921 9.40215 4.95356 9.34381L4.95295 9.34347Z" fill="black"/>
<path d="M2.56631 4.84508C2.66708 4.72874 2.76724 4.53629 2.91582 4.4964C3.08013 4.45214 3.28136 4.5886 3.42389 4.66169C3.82604 4.86822 4.09748 5.15287 4.38707 5.51832C4.41703 5.5562 4.48572 5.53776 4.48511 5.48211C4.4833 5.28932 4.42883 5.1133 4.3553 4.93963C4.33381 4.889 4.24606 4.76562 4.24121 4.70728C4.2279 4.55708 4.42338 4.69957 4.47361 4.76931C4.72689 5.12102 4.83189 5.64103 4.85852 6.09265C4.85762 6.09835 4.85671 6.10337 4.8558 6.10874C4.85459 6.12047 4.85701 6.12953 4.86125 6.13724C4.86276 6.16909 4.86397 6.19993 4.86488 6.23078C4.86518 6.24453 4.86911 6.25626 4.87486 6.26531C4.79921 6.31493 4.72538 6.37092 4.65306 6.43463C4.64186 6.44469 4.65457 6.46614 4.66758 6.45843C4.7744 6.39339 4.88606 6.33773 5.00014 6.29012C5.19835 6.20697 5.40472 6.1473 5.6114 6.10103C5.75392 6.06884 5.89766 6.04839 6.0414 6.02425C6.23052 5.99273 6.30799 6.02593 6.38757 6.18183C6.15336 6.2519 5.91551 6.29884 5.68826 6.39741C5.64983 6.41384 5.6701 6.46849 5.70188 6.4752C5.84016 6.50437 5.98662 6.4876 6.12885 6.47955C6.15306 6.47821 6.17696 6.47687 6.20087 6.47654C6.3912 6.47151 6.58124 6.47084 6.77127 6.46447C6.82514 6.46246 6.87809 6.4581 6.93105 6.45206C7.00307 6.44469 7.07478 6.43496 7.14771 6.42658C7.31475 6.40713 7.41733 6.43563 7.52021 6.53689C7.40341 6.54192 7.286 6.54627 7.1704 6.56572C7.0067 6.59288 6.84844 6.69044 6.6814 6.67536C6.67232 6.67435 6.66506 6.67636 6.65901 6.67871C6.40573 6.66161 6.14973 6.66563 5.88858 6.68944C5.86165 6.69145 5.86619 6.73805 5.89161 6.74006C6.23415 6.77024 6.58154 6.77225 6.92197 6.83159C7.26542 6.89194 7.58679 7.0331 7.92358 7.1149C8.16718 7.17358 8.42863 7.05757 8.6583 6.97878C8.99903 6.8621 9.35761 6.76219 9.71469 6.74275C9.76643 6.73973 9.7979 6.66899 9.74979 6.63177C9.67565 6.5741 9.59818 6.52314 9.5186 6.47855C9.16304 6.27872 8.76058 6.20128 8.36236 6.17714C8.3675 6.12081 8.37234 6.06381 8.37749 6.00749C8.51275 6.00547 8.64408 6.02626 8.77268 6.06214C9.0423 6.13757 9.29952 6.27738 9.55189 6.40646C9.59304 6.42759 9.63419 6.36992 9.61483 6.32868C9.55158 6.19524 9.51043 6.05275 9.45233 5.91663C9.40664 5.809 9.34369 5.71311 9.29346 5.60851C9.53615 5.52335 9.76431 5.68696 9.961 5.85158C10.1293 5.99273 10.2225 6.17009 10.3538 6.34444C10.3834 6.38367 10.4527 6.36321 10.4524 6.30823C10.4509 6.15333 10.4606 5.99843 10.483 5.84521C10.5018 5.71647 10.5036 5.70004 10.6131 5.66182C10.6588 5.64606 10.7075 5.63734 10.7556 5.62996C10.7995 5.87136 10.7381 6.11243 10.7348 6.35718C10.7339 6.41216 10.8068 6.45273 10.8349 6.39607C11.0265 6.01687 11.5439 5.8033 11.8925 5.65042C12.0913 5.56291 12.2947 5.4925 12.4998 5.42545C12.6421 5.37851 12.7286 5.38253 12.8418 5.50323C12.8642 5.52703 12.8857 5.55117 12.9077 5.57498C12.3567 5.73088 11.7784 5.90053 11.4032 6.40579C11.3717 6.44804 11.4153 6.50436 11.4571 6.49699C11.724 6.45039 11.9715 6.33203 12.2335 6.26531C12.4693 6.20597 12.7141 6.17479 12.9546 6.15165C13.4763 6.10069 14.0062 6.11511 14.52 6.23212C14.5669 6.24285 14.5869 6.18049 14.5748 6.1426C14.5705 6.12919 14.5663 6.11578 14.5621 6.1027C14.5621 6.09399 14.5612 6.08561 14.5603 6.07655C14.5206 5.81068 13.8806 5.39862 13.6328 5.27491C13.6945 5.18639 13.7568 5.11263 13.8815 5.15521C13.995 5.19411 14.0967 5.29067 14.1811 5.37985C14.3148 5.52066 14.4286 5.68294 14.5654 5.82007C14.5932 5.84789 14.6377 5.84488 14.6526 5.80163C14.7119 5.62527 14.6913 5.41472 14.6855 5.22897C14.6813 5.0895 14.6595 4.95036 14.6659 4.81055C14.6731 4.65163 14.7067 4.63486 14.842 4.5953C14.96 4.56077 15.0471 4.50075 15.1116 4.63621C15.1718 4.76193 15.19 4.92454 15.1991 5.06435C15.2187 5.36912 15.1594 5.66886 15.0759 5.95719C15.0586 6.01654 15.1385 6.06884 15.1679 6.00916C15.3183 5.70406 15.656 5.56392 15.9507 5.4526C15.8061 5.73256 15.5949 5.96356 15.4091 6.21033C15.3679 6.22709 15.3343 6.25291 15.3246 6.29381C15.3234 6.29649 15.3228 6.29951 15.3222 6.30253C15.3222 6.30353 15.3222 6.30387 15.3219 6.30421H15.3222C15.3219 6.31929 15.3319 6.33505 15.347 6.33606C15.3824 6.33874 15.4151 6.31795 15.4496 6.31024C15.5095 6.29716 15.5716 6.29649 15.6321 6.29716C15.7374 6.29851 15.8551 6.30588 15.9562 6.34209C16.0137 6.36288 16.0379 6.27537 15.9867 6.24687C15.8648 6.17915 15.7129 6.16976 15.5791 6.17881C15.5746 6.17915 15.5691 6.17982 15.5637 6.18015C15.7625 5.92668 15.9689 5.68093 16.1005 5.37381C16.1159 5.33727 16.0781 5.28698 16.0427 5.29972C15.7788 5.39929 15.4584 5.50591 15.2411 5.72317C15.3316 5.29234 15.3364 4.84877 15.1388 4.44376C15.1282 4.42263 15.1049 4.40688 15.0829 4.41325C14.9996 4.43638 14.8816 4.44677 14.7799 4.47997C14.7324 4.15978 14.3941 3.93984 14.1327 3.86909C14.1103 3.86272 14.0973 3.90061 14.1206 3.90732C14.3533 3.97705 14.6477 4.24494 14.6698 4.52758C14.6698 4.52925 14.6701 4.53059 14.6707 4.53193C14.6268 4.56211 14.5929 4.60268 14.5775 4.65934C14.4894 4.98188 14.6401 5.34833 14.5766 5.67791C14.3923 5.48043 14.2401 5.23501 14.0095 5.10056C13.7541 4.95237 13.6567 5.05564 13.4936 5.26619C13.47 5.2967 13.489 5.35101 13.5214 5.36174C13.7063 5.42276 13.8842 5.56291 14.0428 5.68026C14.1124 5.73155 14.4153 5.93071 14.4813 6.07957C14.4758 6.08393 14.4707 6.08896 14.4668 6.09499C13.9859 6.00044 13.4981 5.98402 13.0109 6.02559C12.7567 6.04738 12.5004 6.08024 12.2514 6.13891C12.0293 6.19088 11.8175 6.28275 11.5978 6.34243C11.9769 5.93574 12.5283 5.80565 13.0276 5.66416C13.0757 5.65042 13.0836 5.58839 13.0479 5.55486C12.9347 5.44892 12.8357 5.26485 12.6732 5.2558C12.5476 5.24876 12.3924 5.33123 12.2732 5.37247C12.1636 5.41069 12.0547 5.4516 11.9476 5.49652C11.7527 5.57699 11.5079 5.67657 11.2843 5.80867C11.2985 5.75603 11.3127 5.70305 11.3251 5.65042C11.559 4.65398 11.402 3.87044 10.8709 3.38529C9.71862 2.33185 7.82887 3.79165 7.07297 4.80653C6.73133 5.26552 6.57519 5.82644 6.59274 6.37864C6.50468 6.38031 6.41602 6.38132 6.32826 6.38367C6.26139 6.38568 6.1933 6.39071 6.12522 6.39473C6.05653 6.39942 5.98753 6.40378 5.91945 6.40479C6.10464 6.35517 6.29558 6.33002 6.48108 6.28141C6.5183 6.27135 6.53554 6.23011 6.52102 6.19189C6.47684 6.07655 6.41783 5.93138 6.30103 5.88679C6.16244 5.83348 5.97906 5.90288 5.83986 5.92367C5.52606 5.97128 5.23738 6.05208 4.97079 6.20463C4.96897 6.14964 4.96504 6.09499 4.9602 6.04034C4.96141 6.03632 4.96262 6.03263 4.96383 6.02861C4.95324 6.01821 4.94598 6.0038 4.94446 5.98435C4.94053 5.93875 4.93871 5.89282 4.9375 5.84655C4.9375 5.84354 4.9372 5.84052 4.9372 5.8375C4.90149 5.5847 4.84006 5.33827 4.74928 5.10056C4.67454 4.90476 4.57377 4.64928 4.39645 4.544C4.30718 4.4907 4.12653 4.46689 4.11231 4.62078C4.10565 4.69354 4.16284 4.7683 4.19189 4.82698C4.263 4.97148 4.32685 5.12705 4.3562 5.28899C4.22669 5.1237 4.09445 4.96176 3.93105 4.83402C3.73405 4.68046 3.51194 4.5658 3.28953 4.46521C3.15185 4.40285 2.98995 4.32373 2.84652 4.41157C2.71126 4.49438 2.62592 4.68314 2.53181 4.81089C2.51547 4.83268 2.54785 4.8652 2.56601 4.84441L2.56631 4.84508ZM7.19613 4.92052C7.50932 4.49941 8.13329 3.87412 8.85983 3.4956C9.16486 3.33701 9.54099 3.19653 9.91592 3.19653C10.2131 3.19653 10.5096 3.28471 10.7699 3.52242C11.376 4.07629 11.3224 4.96142 11.1708 5.60683C11.1436 5.72217 11.1118 5.83683 11.0764 5.94982C10.9947 6.01218 10.92 6.08125 10.8573 6.15702C10.8761 5.95418 10.903 5.75368 10.8522 5.5505C10.844 5.51698 10.8189 5.49787 10.7868 5.50256C10.6761 5.51765 10.5689 5.5495 10.4579 5.56123C10.44 5.56324 10.4201 5.58269 10.4158 5.6018C10.3759 5.77346 10.3505 5.94781 10.3423 6.1245C10.2893 6.04235 10.2382 5.96088 10.1689 5.88947C10.0702 5.78754 9.95979 5.69937 9.84329 5.6246C9.62148 5.48311 9.43992 5.40969 9.19845 5.52804C9.17272 5.54045 9.16425 5.57699 9.17515 5.60381C9.2281 5.73122 9.30647 5.84052 9.36034 5.96725C9.39847 6.05677 9.42963 6.14864 9.46413 6.23883C9.24626 6.12718 9.02596 6.01989 8.79629 5.95518C8.6468 5.91294 8.49338 5.8898 8.33361 5.8955C8.30456 5.89651 8.28247 5.91495 8.27853 5.94848C8.26794 6.04235 8.25826 6.13623 8.24888 6.23011C8.24585 6.26163 8.27067 6.29214 8.29851 6.29348C8.73093 6.31628 9.17182 6.39775 9.54946 6.63713C9.28529 6.66731 9.02354 6.73135 8.76845 6.81047C8.44133 6.9124 8.146 7.06092 7.8092 6.93184C7.55017 6.83227 7.29145 6.76454 7.0306 6.72229C7.04876 6.71727 7.06722 6.7119 7.08537 6.70754C7.27178 6.66329 7.46605 6.6663 7.65578 6.65289C7.70873 6.64887 7.70934 6.57041 7.67636 6.54091C7.5883 6.46313 7.54654 6.3669 7.43306 6.33304C7.28902 6.29012 7.12138 6.33606 6.97825 6.3555C6.95949 6.35818 6.94043 6.3602 6.92197 6.36254C6.86538 6.36858 6.80849 6.3726 6.75191 6.37495C6.73557 5.86432 6.88021 5.34532 7.19582 4.92119L7.19613 4.92052Z" fill="black"/>
</svg>
