<svg width="51" height="55" viewBox="0 0 51 55" fill="none" xmlns="http://www.w3.org/2000/svg">
<g clip-path="url(#clip0_99_200)">
<path d="M6.91298 31.0294C6.92345 31.0294 6.93392 31.0294 6.94439 31.0294C7.03514 31.0294 7.12415 31.0658 7.18524 31.1334L25.041 50.1706C25.0968 50.2295 25.1283 50.3074 25.1283 50.3888C25.1283 50.42 25.1352 51.1787 25.0427 51.9599C24.8996 53.1881 24.596 53.784 24.0863 53.836C24.0741 53.836 24.0602 53.8377 24.0462 53.8394C23.9572 53.8429 23.8699 53.81 23.8053 53.7476C23.7408 53.6852 23.7059 53.6004 23.7059 53.5103C23.7129 52.8867 23.4528 52.1453 23.191 51.5598C23.2015 52.2804 23.3097 53.3197 23.7076 54.5791C23.753 54.7211 23.6937 54.8753 23.5662 54.9532C23.5244 54.9792 23.4772 54.9948 23.4301 54.9983C23.3359 55.0087 23.2381 54.9758 23.1666 54.9065C22.4196 54.172 22.1072 53.2522 21.8035 52.3601C21.6918 52.031 21.5784 51.6966 21.4423 51.3658C21.2485 52.1921 20.7791 52.8694 20.7477 52.9144C20.6918 52.9941 20.6045 53.0426 20.512 53.0513C20.4649 53.0565 20.4178 53.0513 20.3707 53.0357C20.2328 52.9872 20.142 52.8538 20.1525 52.7083C20.1525 52.7031 20.163 52.3947 20.0077 51.8283C19.9937 52.3203 19.9466 52.6754 19.9413 52.7117C19.9204 52.8607 19.8 52.975 19.6516 52.9906C19.6429 52.9906 19.6342 52.9906 19.6255 52.9906C19.4649 52.9941 19.3253 52.8832 19.2956 52.7273C19.0931 51.6776 18.3724 50.8097 17.9081 50.3438C17.6149 51.3589 16.9639 52.3636 16.9308 52.4138C16.8749 52.4987 16.7842 52.5506 16.6899 52.5593C16.6184 52.5662 16.5451 52.5506 16.4805 52.5091C16.3287 52.4121 16.285 52.2129 16.381 52.0621C16.3985 52.0327 16.8069 51.3312 16.1803 50.2676C16.0232 51.0194 16.2885 52.4138 16.5922 53.3579C16.6445 53.519 16.5643 53.6904 16.4072 53.7563C16.3775 53.7684 16.3461 53.7771 16.3147 53.7805C16.1855 53.7944 16.0546 53.7286 15.9918 53.609C15.9674 53.5623 15.4019 52.4865 14.1244 49.5348C13.805 50.1238 14.1104 51.054 14.1139 51.0644C14.1698 51.2324 14.0808 51.4143 13.9132 51.4732C13.887 51.4819 13.8626 51.4871 13.8364 51.4905C13.6933 51.5061 13.5519 51.423 13.4978 51.2844C13.4821 51.2428 13.154 50.3698 13.1139 48.6999C12.4873 49.2438 11.5344 49.7548 10.7299 49.838C10.2901 49.883 9.92181 49.7999 9.63733 49.592C9.53785 49.5192 9.48724 49.3962 9.50818 49.275C9.52912 49.1537 9.61813 49.055 9.73681 49.0186C10.3476 48.835 10.7578 48.5111 10.9882 48.0243C11.3494 47.2604 11.1784 46.2765 11.0108 45.6754C10.6356 46.1882 10.0911 47.0629 10.0073 47.9291C9.99336 48.0694 9.89039 48.1854 9.75251 48.2149C9.7403 48.2183 9.72808 48.2201 9.71586 48.2201C9.59021 48.2322 9.46629 48.1716 9.39997 48.0624C8.86767 47.1617 9.02998 45.6927 9.23417 44.7019C8.46626 45.4485 7.55349 46.5519 7.54127 47.4562C7.53952 47.5947 7.44877 47.7177 7.31613 47.761C7.29344 47.768 7.27075 47.7731 7.24807 47.7749C7.13637 47.787 7.02293 47.7402 6.95312 47.6467C5.46441 45.6858 6.38591 43.5292 7.12764 42.3513C6.78034 42.4517 6.37369 42.5436 5.95308 42.5869C5.07522 42.6769 4.36141 42.5314 3.83085 42.1555C3.72089 42.0776 3.67028 41.939 3.70519 41.8091C3.74009 41.6792 3.85179 41.5839 3.98792 41.57C4.604 41.5077 5.31781 40.865 5.9269 40.1461C5.48186 40.4181 4.98621 40.6624 4.48183 40.8079C4.46263 40.8131 4.44343 40.8165 4.42423 40.8183C4.35617 40.8252 4.2881 40.8113 4.22877 40.7767C4.15197 40.7334 4.09613 40.6606 4.07344 40.574C4.04202 40.4476 4.04551 40.3003 4.08216 40.1392C3.78896 40.619 3.50448 41.163 3.24793 41.7762C3.20081 41.887 3.09784 41.9633 2.97916 41.9754C2.97043 41.9754 2.96171 41.9754 2.95298 41.9754C2.82383 41.9788 2.70341 41.9044 2.6493 41.7883C1.72606 39.8188 3.10133 37.0749 3.88844 35.7671C3.46085 35.8762 2.91807 35.9923 2.36832 36.0477C1.32814 36.1551 0.572445 36.0131 0.120422 35.6302C0.00698049 35.5332 -0.0261795 35.3739 0.0383952 35.2405C0.0890077 35.1383 0.188488 35.0707 0.298439 35.0603C0.329854 35.0569 0.363014 35.0586 0.396174 35.0655C0.563719 35.0984 0.748716 35.1054 0.949421 35.0846C3.28109 34.8455 6.67562 31.1697 6.71053 31.1316C6.76463 31.0727 6.83967 31.0346 6.91821 31.0277L6.91298 31.0294Z" fill="url(#paint0_linear_99_200)"/>
<path d="M5.97403 35.4587C5.97403 35.4587 3.42072 39.0098 4.4574 41.2253C5.82568 37.9583 8.01424 36.8393 8.01424 36.8393C8.01424 36.8393 5.53946 39.3528 5.75238 40.1895C7.14161 39.7893 8.49244 38.4538 8.49244 38.4538C8.49244 38.4538 6.84666 41.2929 5.42253 41.4384C6.6861 42.3357 9.00729 41.2496 9.00729 41.2496C9.00729 41.2496 6.45747 44.0125 8.28127 46.4168C8.30221 44.8959 10.606 43.1117 10.606 43.1117C10.606 43.1117 9.79266 45.6356 10.4908 46.8152C10.6147 45.5074 11.7875 44.2255 11.7875 44.2255C11.7875 44.2255 13.1226 47.3488 10.6252 48.0971C11.5397 48.7623 13.6549 47.3522 13.8661 46.7044C13.7858 48.712 14.182 49.7427 14.182 49.7427C14.182 49.7427 13.6986 48.3188 14.5642 47.761C15.8417 50.7335 16.402 51.7937 16.402 51.7937C16.402 51.7937 15.5381 49.1122 16.2711 48.3673C17.3584 49.7306 16.7388 50.7006 16.7388 50.7006C16.7388 50.7006 17.5626 49.4413 17.6795 48.447C17.6795 48.447 19.0949 49.5521 19.3898 51.0852C19.3898 51.0852 19.6464 49.2282 19.0914 48.2131C20.2293 50.0614 20.1613 51.1406 20.1613 51.1406C20.1613 51.1406 21.1683 49.708 20.6621 48.6601C21.718 50.0874 21.6203 51.7503 22.7739 52.8832C22.0357 50.5464 22.3742 49.0377 22.3742 49.0377C22.3742 49.0377 23.3603 50.6348 23.3464 51.8422C24.0584 51.8144 24.034 49.0463 24.034 49.0463L8.05089 32.0047C8.05089 32.0047 4.33523 36.0581 2.12573 35.6146C3.11006 36.4513 5.98101 35.4587 5.98101 35.4587H5.97403Z" fill="#318063"/>
<path d="M23.8002 46.6074C23.8002 46.597 23.8037 46.5866 23.8054 46.5762C23.8246 46.4878 23.8805 46.4116 23.9607 46.3648L46.6055 33.2761C46.6753 33.2345 46.7591 33.2224 46.8394 33.2397C46.8708 33.2467 47.616 33.4078 48.3647 33.6693C49.5393 34.0781 50.0576 34.5043 49.9983 35.0101C49.9983 35.0222 49.9948 35.0361 49.993 35.0482C49.9773 35.1365 49.925 35.2128 49.8499 35.2613C49.7749 35.3098 49.6824 35.3253 49.5951 35.3046C48.9843 35.1608 48.1972 35.2491 47.5654 35.3739C48.2757 35.5228 49.3211 35.6475 50.6475 35.5401C50.7976 35.528 50.9355 35.6181 50.9843 35.7601C51.0001 35.8069 51.0053 35.8554 51.0001 35.9022C50.9878 35.9957 50.9355 36.0841 50.8517 36.1378C49.9651 36.699 48.9913 36.7995 48.0488 36.8965C47.7015 36.9329 47.3472 36.9692 46.9929 37.0281C47.7626 37.3971 48.3246 38.0016 48.3612 38.0415C48.4275 38.1125 48.4555 38.2078 48.445 38.2996C48.4398 38.3464 48.424 38.3914 48.3979 38.433C48.3211 38.556 48.1692 38.6131 48.0279 38.5733C48.0226 38.5733 47.7225 38.4936 47.1308 38.5196C47.6108 38.6408 47.9493 38.7656 47.9842 38.7777C48.1256 38.8314 48.2129 38.9734 48.1937 39.1207C48.1937 39.1293 48.1919 39.138 48.1902 39.1449C48.1588 39.3008 48.0191 39.4117 47.8586 39.4065C46.7818 39.3701 45.7695 39.8776 45.2093 40.2241C46.1413 40.7316 46.986 41.5839 47.0278 41.6272C47.0994 41.6999 47.1291 41.7987 47.1186 41.8922C47.1099 41.9632 47.0785 42.0308 47.0244 42.0845C46.8969 42.2092 46.6893 42.2092 46.5636 42.0828C46.5374 42.0585 45.9388 41.5094 44.7555 41.8818C45.4606 42.2006 46.89 42.2508 47.883 42.1642C48.0523 42.1503 48.2041 42.2647 48.2338 42.431C48.2391 42.4639 48.2408 42.495 48.2373 42.5262C48.2216 42.6544 48.1291 42.7653 47.9965 42.8016C47.9459 42.8155 46.7626 43.1256 43.581 43.7111C44.0906 44.1493 45.0697 44.0592 45.0819 44.0592C45.2581 44.0419 45.417 44.1684 45.4397 44.3433C45.4431 44.3693 45.4431 44.3953 45.4397 44.4213C45.4222 44.5633 45.3105 44.6828 45.1622 44.7036C45.1168 44.7106 44.1883 44.8353 42.5373 44.5044C42.9335 45.2302 43.2267 46.2661 43.1307 47.0647C43.0783 47.4995 42.916 47.839 42.649 48.0694C42.5547 48.1508 42.4238 48.1716 42.3087 48.1248C42.1935 48.078 42.1167 47.9706 42.108 47.8476C42.0626 47.2154 41.8339 46.7477 41.4064 46.4168C40.7362 45.8989 39.7309 45.8469 39.1026 45.8764C39.5232 46.3527 40.2632 47.0733 41.0957 47.3436C41.2301 47.3869 41.3208 47.5133 41.3208 47.6536C41.3208 47.6657 41.3208 47.6796 41.3191 47.6917C41.3034 47.8165 41.2161 47.9238 41.094 47.962C40.0922 48.279 38.6838 47.7974 37.7553 47.3817C38.3207 48.2893 39.2021 49.417 40.0887 49.6284C40.2248 49.6613 40.3243 49.7756 40.3383 49.9142C40.34 49.9367 40.34 49.9609 40.3383 49.9835C40.3243 50.0943 40.2545 50.1931 40.148 50.2416C37.8931 51.2497 35.9769 49.883 34.9821 48.906C35.0047 49.2646 35.0047 49.6769 34.9541 50.0961C34.8494 50.9656 34.5492 51.6256 34.0623 52.0552C33.9611 52.1453 33.8145 52.1626 33.6941 52.1003C33.5736 52.0379 33.5038 51.908 33.5213 51.7746C33.5946 51.1649 33.1199 50.3316 32.5492 49.5851C32.7167 50.0753 32.8493 50.6088 32.8825 51.1302C32.8825 51.1493 32.8825 51.17 32.8825 51.1891C32.8738 51.2567 32.8459 51.319 32.7987 51.3692C32.7394 51.4351 32.6539 51.4715 32.5649 51.4749C32.4322 51.4784 32.2891 51.4403 32.139 51.371C32.5457 51.7607 33.0169 52.1557 33.5632 52.5402C33.6609 52.6095 33.7133 52.7256 33.6993 52.8434C33.6993 52.852 33.6975 52.8607 33.6958 52.8694C33.6696 52.9958 33.5719 53.0946 33.4445 53.1223C31.3048 53.5813 28.912 51.6464 27.8003 50.5949C27.8125 51.0332 27.8073 51.584 27.741 52.1297C27.6171 53.1604 27.3116 53.8619 26.8352 54.2136C26.7165 54.3019 26.5507 54.2985 26.4355 54.2066C26.3465 54.1356 26.3029 54.023 26.3151 53.9139C26.3186 53.8827 26.3273 53.8498 26.3413 53.8204C26.4111 53.6662 26.4582 53.4878 26.4826 53.2903C26.7619 50.9812 23.8979 46.8828 23.8682 46.8412C23.8211 46.7754 23.8019 46.6957 23.8124 46.616L23.8002 46.6074Z" fill="url(#paint1_linear_99_200)"/>
<path d="M27.9469 48.4937C27.9469 48.4937 30.8737 51.7486 33.2804 51.2324C30.371 49.1884 29.755 46.8221 29.755 46.8221C29.755 46.8221 31.68 49.7721 32.5474 49.7513C32.4601 48.3188 31.4461 46.7147 31.4461 46.7147C31.4461 46.7147 33.8738 48.9337 33.7027 50.3455C34.8633 49.32 34.3066 46.8325 34.3066 46.8325C34.3066 46.8325 36.4603 49.9107 39.2248 48.6739C37.7343 48.3188 36.4899 45.6945 36.4899 45.6945C36.4899 45.6945 38.7919 47.0387 40.1044 46.6212C38.846 46.2124 37.846 44.7954 37.846 44.7954C37.846 44.7954 41.2109 44.1926 41.3941 46.7736C42.2493 46.034 41.3295 43.6747 40.7396 43.33C42.6943 43.8514 43.7956 43.6937 43.7956 43.6937C43.7956 43.6937 42.2894 43.8479 41.9317 42.8883C45.1342 42.308 46.3 41.9979 46.3 41.9979C46.3 41.9979 43.4745 42.2439 42.9038 41.3708C44.4832 40.619 45.3 41.4314 45.3 41.4314C45.3 41.4314 44.2441 40.3575 43.293 40.0249C43.293 40.0249 44.6909 38.8989 46.2634 38.9509C46.2634 38.9509 44.4937 38.2927 43.375 38.6079C45.4431 37.915 46.4885 38.2182 46.4885 38.2182C46.4885 38.2182 45.3018 36.9277 44.1603 37.1875C45.7957 36.4807 47.4083 36.9415 48.7748 36.0737C46.3157 36.2729 44.9073 35.6129 44.9073 35.6129C44.9073 35.6129 46.6927 35.0101 47.876 35.2907C48.0052 34.5943 45.2808 34.0089 45.2808 34.0089L25.0114 45.7256C25.0114 45.7256 28.1755 50.2173 27.2523 52.2579C28.2924 51.4905 27.9486 48.492 27.9486 48.492L27.9469 48.4937Z" fill="#318063"/>
<path d="M6.91318 23.9706C6.92366 23.9706 6.93413 23.9706 6.9446 23.9706C7.03535 23.9706 7.12436 23.9342 7.18544 23.8666L25.0429 4.83116C25.0988 4.77226 25.1302 4.69431 25.1302 4.6129C25.1302 4.58172 25.1372 3.823 25.0447 3.04177C24.9016 1.81362 24.5979 1.21773 24.0883 1.16576C24.0761 1.16576 24.0621 1.16403 24.0481 1.1623C23.9591 1.15884 23.8719 1.19175 23.8073 1.25411C23.7427 1.31647 23.7078 1.40135 23.7078 1.49142C23.7148 2.11503 23.4548 2.85642 23.193 3.44191C23.2034 2.72131 23.3117 1.68197 23.7096 0.422639C23.7549 0.280596 23.6956 0.126428 23.5682 0.0484773C23.5263 0.0224939 23.4792 0.00690381 23.4321 0.00343935C23.3378 -0.00695402 23.2401 0.0259583 23.1685 0.0952475C22.4216 0.829712 22.1092 1.74953 21.8055 2.64162C21.6938 2.97075 21.5804 3.30507 21.4442 3.63592C21.2505 2.80965 20.781 2.13235 20.7496 2.08731C20.6938 2.00763 20.6065 1.95913 20.514 1.95046C20.4669 1.94527 20.4198 1.95046 20.3726 1.96605C20.2348 2.01456 20.144 2.14794 20.1545 2.29345C20.1545 2.29864 20.1649 2.60698 20.0096 3.17342C19.9957 2.68146 19.9485 2.32636 19.9433 2.28998C19.9224 2.14101 19.8019 2.02668 19.6536 2.01109C19.6449 2.01109 19.6361 2.01109 19.6274 2.01109C19.4668 2.00763 19.3272 2.11849 19.2976 2.27439C19.0951 3.32412 18.3743 4.19197 17.9101 4.65794C17.6169 3.64285 16.9659 2.63816 16.9327 2.58792C16.8769 2.50305 16.7861 2.45108 16.6919 2.44242C16.6203 2.43549 16.547 2.45108 16.4824 2.49265C16.3306 2.58966 16.287 2.78886 16.383 2.93957C16.4004 2.96901 16.8088 3.67057 16.1823 4.73416C16.0252 3.98237 16.2905 2.58792 16.5941 1.64386C16.6465 1.48276 16.5662 1.31127 16.4091 1.24545C16.3795 1.23332 16.3481 1.22466 16.3166 1.2212C16.1875 1.20734 16.0566 1.27316 15.9938 1.39269C15.9693 1.43946 15.4039 2.51517 14.1263 5.46689C13.807 4.87793 14.1124 3.94772 14.1159 3.93733C14.1717 3.7693 14.0827 3.58742 13.9152 3.52853C13.889 3.51986 13.8646 3.51467 13.8384 3.5112C13.6953 3.49561 13.5539 3.57876 13.4998 3.71734C13.4841 3.75891 13.156 4.63196 13.1158 6.30182C12.4893 5.7579 11.5364 5.2469 10.7318 5.16375C10.292 5.11871 9.92376 5.20186 9.63928 5.40973C9.5398 5.48248 9.48919 5.60547 9.51013 5.72672C9.53107 5.84798 9.62008 5.94672 9.73876 5.98309C10.3496 6.16671 10.7597 6.49064 10.9901 6.97739C11.3514 7.74131 11.1803 8.72521 11.0128 9.32629C10.6376 8.81356 10.093 7.93878 10.0093 7.07267C9.99531 6.93236 9.89234 6.8163 9.75447 6.78685C9.74225 6.78338 9.73003 6.78165 9.71782 6.78165C9.59216 6.76953 9.46824 6.83015 9.40192 6.94102C8.86962 7.84177 9.03193 9.31071 9.23612 10.3015C8.46821 9.55495 7.55544 8.45152 7.54322 7.5473C7.54148 7.40872 7.45072 7.28573 7.31808 7.24242C7.2954 7.2355 7.27271 7.2303 7.25002 7.22857C7.13832 7.21644 7.02488 7.26321 6.95507 7.35675C5.46636 9.31763 6.38786 11.4743 7.1296 12.6522C6.78229 12.5517 6.37564 12.4599 5.95504 12.4166C5.07717 12.3265 4.36336 12.472 3.8328 12.8479C3.72285 12.9259 3.67224 13.0644 3.70714 13.1944C3.74205 13.3243 3.85374 13.4196 3.98987 13.4334C4.60595 13.4958 5.31976 14.1384 5.92886 14.8573C5.48382 14.5853 4.98816 14.3411 4.48378 14.1956C4.46458 14.1904 4.44539 14.1869 4.42619 14.1852C4.35812 14.1783 4.29006 14.1921 4.23072 14.2268C4.15393 14.2701 4.09808 14.3428 4.07539 14.4294C4.04398 14.5559 4.04747 14.7031 4.08412 14.8642C3.79091 14.3844 3.50644 13.8405 3.24988 13.2273C3.20276 13.1164 3.09979 13.0402 2.98111 13.0281C2.97239 13.0281 2.96366 13.0281 2.95493 13.0281C2.82578 13.0246 2.70536 13.0991 2.65126 13.2151C1.72801 15.1847 3.10328 17.9285 3.89039 19.2364C3.4628 19.1272 2.92003 19.0112 2.37027 18.9558C1.3301 18.8484 0.574398 18.9904 0.122376 19.3732C0.00893362 19.4702 -0.0242263 19.6296 0.0403483 19.763C0.0909609 19.8652 0.190441 19.9327 0.300392 19.9431C0.331807 19.9466 0.364967 19.9449 0.398127 19.9379C0.565672 19.905 0.750669 19.8981 0.951374 19.9189C3.28304 20.1579 6.67757 23.8337 6.71248 23.8718C6.76658 23.9307 6.84163 23.9688 6.92017 23.9758L6.91318 23.9706Z" fill="url(#paint2_linear_99_200)"/>
<path d="M5.97403 19.5413C5.97403 19.5413 3.42072 15.9902 4.4574 13.7747C5.82568 17.0417 8.01424 18.1607 8.01424 18.1607C8.01424 18.1607 5.53946 15.6472 5.75238 14.8106C7.14161 15.2107 8.49244 16.5462 8.49244 16.5462C8.49244 16.5462 6.84666 13.7071 5.42253 13.5616C6.6861 12.6643 9.00729 13.7504 9.00729 13.7504C9.00729 13.7504 6.45747 10.9875 8.28127 8.58319C8.30221 10.1041 10.606 11.8883 10.606 11.8883C10.606 11.8883 9.79266 9.36443 10.4908 8.18478C10.6147 9.49261 11.7875 10.7745 11.7875 10.7745C11.7875 10.7745 13.1226 7.65125 10.6252 6.90293C11.5397 6.23775 13.6549 7.64952 13.8661 8.29738C13.7858 6.28972 14.182 5.25905 14.182 5.25905C14.182 5.25905 13.6986 6.68294 14.5642 7.24072C15.8417 4.26821 16.402 3.20809 16.402 3.20809C16.402 3.20809 15.5381 5.88958 16.2711 6.63444C17.3584 5.27117 16.7388 4.30112 16.7388 4.30112C16.7388 4.30112 17.5626 5.56045 17.6795 6.55475C17.6795 6.55475 19.0949 5.44959 19.3898 3.91657C19.3898 3.91657 19.6464 5.77352 19.0914 6.7886C20.2293 4.94032 20.1613 3.86114 20.1613 3.86114C20.1613 3.86114 21.1683 5.29369 20.6621 6.34169C21.718 4.91433 21.6203 3.25139 22.7739 2.11852C22.0357 4.45529 22.3742 5.96406 22.3742 5.96406C22.3742 5.96406 23.3603 4.36695 23.3464 3.15958C24.0584 3.1873 24.034 5.9554 24.034 5.9554L8.05089 22.9971C8.05089 22.9971 4.33523 18.9437 2.12573 19.3871C3.11006 18.5504 5.98101 19.543 5.98101 19.543L5.97403 19.5413Z" fill="#318063"/>
<path d="M23.8002 8.39266C23.8002 8.40305 23.8037 8.41344 23.8054 8.42384C23.8246 8.51218 23.8805 8.5884 23.9607 8.63517L46.6055 21.7239C46.6753 21.7655 46.7591 21.7776 46.8394 21.7603C46.8708 21.7533 47.616 21.5922 48.3647 21.3307C49.5393 20.9219 50.0576 20.4957 49.9983 19.9899C49.9983 19.9778 49.9948 19.9639 49.993 19.9518C49.9773 19.8635 49.925 19.7873 49.8499 19.7388C49.7749 19.6903 49.6824 19.6747 49.5951 19.6954C48.9843 19.8392 48.1972 19.7509 47.5654 19.6262C48.2757 19.4772 49.3211 19.3525 50.6475 19.4599C50.7976 19.472 50.9355 19.3819 50.9843 19.2399C51.0001 19.1931 51.0053 19.1446 51.0001 19.0978C50.9878 19.0043 50.9355 18.9159 50.8517 18.8622C49.9651 18.301 48.9913 18.2005 48.0488 18.1035C47.7015 18.0672 47.3472 18.0308 46.9929 17.9719C47.7626 17.6029 48.3246 16.9984 48.3612 16.9585C48.4275 16.8875 48.4555 16.7922 48.445 16.7004C48.4398 16.6537 48.424 16.6086 48.3979 16.567C48.3211 16.4441 48.1692 16.3869 48.0279 16.4267C48.0226 16.4267 47.7225 16.5064 47.1308 16.4804C47.6108 16.3592 47.9493 16.2345 47.9842 16.2223C48.1256 16.1686 48.2129 16.0266 48.1937 15.8793C48.1937 15.8707 48.1919 15.862 48.1902 15.8551C48.1588 15.6992 48.0191 15.5883 47.8586 15.5935C46.7818 15.6299 45.7695 15.1224 45.2093 14.7759C46.1413 14.2684 46.986 13.4161 47.0278 13.3728C47.0994 13.3001 47.1291 13.2013 47.1186 13.1078C47.1099 13.0368 47.0785 12.9692 47.0244 12.9155C46.8969 12.7908 46.6893 12.7908 46.5636 12.9172C46.5374 12.9415 45.9388 13.4906 44.7555 13.1182C45.4606 12.7994 46.89 12.7492 47.883 12.8358C48.0523 12.8497 48.2041 12.7354 48.2338 12.5691C48.2391 12.5361 48.2408 12.505 48.2373 12.4738C48.2216 12.3456 48.1291 12.2347 47.9965 12.1984C47.9459 12.1845 46.7626 11.8744 43.581 11.2889C44.0906 10.8507 45.0697 10.9408 45.0819 10.9408C45.2581 10.9581 45.417 10.8316 45.4397 10.6567C45.4431 10.6307 45.4431 10.6047 45.4397 10.5787C45.4222 10.4367 45.3105 10.3172 45.1622 10.2964C45.1168 10.2894 44.1883 10.1647 42.5373 10.4956C42.9335 9.76978 43.2267 8.7339 43.1307 7.93535C43.0783 7.50056 42.916 7.16104 42.649 6.93065C42.5547 6.84924 42.4238 6.82845 42.3087 6.87522C42.1935 6.92199 42.1167 7.02939 42.108 7.15238C42.0626 7.78464 41.8339 8.25235 41.4064 8.5832C40.7362 9.10114 39.7309 9.1531 39.1026 9.12366C39.5232 8.64729 40.2632 7.92669 41.0957 7.65646C41.2301 7.61315 41.3208 7.4867 41.3208 7.34639C41.3208 7.33426 41.3208 7.32041 41.3191 7.30828C41.3034 7.18356 41.2161 7.07616 41.094 7.03805C40.0922 6.72106 38.6838 7.20261 37.7553 7.61835C38.3207 6.71066 39.2021 5.58298 40.0887 5.37165C40.2248 5.33874 40.3243 5.22441 40.3383 5.08583C40.34 5.06331 40.34 5.03906 40.3383 5.01654C40.3243 4.90568 40.2545 4.80694 40.148 4.75844C37.8931 3.75028 35.9769 5.11701 34.9821 6.09399C35.0047 5.73542 35.0047 5.32315 34.9541 4.90395C34.8494 4.03437 34.5492 3.37439 34.0623 2.9448C33.9611 2.85472 33.8145 2.8374 33.6941 2.89976C33.5736 2.96212 33.5038 3.09204 33.5213 3.22542C33.5946 3.83516 33.1199 4.66836 32.5492 5.41495C32.7167 4.92473 32.8493 4.39121 32.8825 3.86981C32.8825 3.85075 32.8825 3.82996 32.8825 3.81091C32.8738 3.74335 32.8459 3.68099 32.7987 3.63076C32.7394 3.56493 32.6539 3.52856 32.5649 3.52509C32.4322 3.52163 32.2891 3.55974 32.139 3.62903C32.5457 3.23927 33.0169 2.84433 33.5632 2.45977C33.6609 2.39048 33.7133 2.27442 33.6993 2.15663C33.6993 2.14797 33.6975 2.13931 33.6958 2.13065C33.6696 2.0042 33.5719 1.90546 33.4445 1.87774C31.3048 1.4187 28.912 3.3536 27.8003 4.40506C27.8125 3.96681 27.8073 3.41596 27.741 2.87031C27.6171 1.83963 27.3116 1.13808 26.8352 0.786439C26.7165 0.698095 26.5507 0.701559 26.4355 0.793368C26.3465 0.864389 26.3029 0.976984 26.3151 1.08611C26.3186 1.11729 26.3273 1.15021 26.3413 1.17965C26.4111 1.33382 26.4582 1.51224 26.4826 1.70972C26.7619 4.01878 23.8979 8.11723 23.8682 8.1588C23.8211 8.22463 23.8019 8.30431 23.8124 8.384L23.8002 8.39266Z" fill="url(#paint3_linear_99_200)"/>
<path d="M27.9469 6.50625C27.9469 6.50625 30.8737 3.25139 33.2804 3.7676C30.371 5.81163 29.755 8.17785 29.755 8.17785C29.755 8.17785 31.68 5.22787 32.5474 5.24865C32.4601 6.68121 31.4461 8.28525 31.4461 8.28525C31.4461 8.28525 33.8738 6.06627 33.7027 4.6545C34.8633 5.67998 34.3066 8.16573 34.3066 8.16573C34.3066 8.16573 36.4603 5.08756 39.2248 6.32437C37.7343 6.67948 36.4899 9.3038 36.4899 9.3038C36.4899 9.3038 38.7919 7.95959 40.1044 8.37706C38.846 8.78587 37.846 10.2028 37.846 10.2028C37.846 10.2028 41.2109 10.8056 41.3941 8.22462C42.2493 8.96429 41.3295 11.3236 40.7396 11.6683C42.6943 11.1469 43.7956 11.3045 43.7956 11.3045C43.7956 11.3045 42.2894 11.1504 41.9317 12.11C45.1342 12.6903 46.3 13.0004 46.3 13.0004C46.3 13.0004 43.4745 12.7544 42.9038 13.6274C44.4832 14.3792 45.3 13.5668 45.3 13.5668C45.3 13.5668 44.2441 14.6408 43.293 14.9734C43.293 14.9734 44.6909 16.0993 46.2634 16.0474C46.2634 16.0474 44.4937 16.7056 43.375 16.3904C45.4431 17.0832 46.4885 16.7801 46.4885 16.7801C46.4885 16.7801 45.3018 18.0706 44.1603 17.8108C45.7957 18.5175 47.4083 18.0568 48.7748 18.9246C46.3157 18.7254 44.9073 19.3854 44.9073 19.3854C44.9073 19.3854 46.6927 19.9882 47.876 19.7076C48.0052 20.4039 45.2808 20.9894 45.2808 20.9894L25.0114 9.27262C25.0114 9.27262 28.1755 4.78095 27.2523 2.74039C28.2924 3.50776 27.9486 6.50625 27.9486 6.50625H27.9469Z" fill="#318063"/>
<path d="M49.9301 26.4806C49.9301 28.5471 47.6665 30.2898 47.1534 32.1952C46.6229 34.1665 47.6892 36.796 46.6822 38.5231C45.6612 40.2743 42.8234 40.6658 41.3923 42.088C39.9612 43.5084 39.565 46.325 37.8006 47.3384C36.0605 48.3379 33.4112 47.2795 31.4251 47.8061C29.5053 48.3153 27.7496 50.562 25.6675 50.562C23.5854 50.562 21.8297 48.3153 19.9099 47.8061C17.9238 47.2795 15.2745 48.3379 13.5345 47.3384C11.77 46.325 11.3756 43.5084 9.94272 42.088C8.51161 40.6676 5.67381 40.2743 4.65284 38.5231C3.64582 36.796 4.71218 34.1665 4.18162 32.1952C3.66851 30.2898 1.40491 28.5471 1.40491 26.4806C1.40491 24.414 3.66851 22.6714 4.18162 20.766C4.71218 18.7947 3.64582 16.1652 4.65284 14.4381C5.67381 12.6869 8.51161 12.2954 9.94272 10.8732C11.3738 9.45279 11.77 6.63619 13.5345 5.62283C15.2745 4.62334 17.9238 5.68173 19.9099 5.15513C21.8297 4.64586 23.5854 2.39915 25.6675 2.39915C27.7496 2.39915 29.5053 4.64586 31.4251 5.15513C33.4112 5.68173 36.0605 4.62334 37.8006 5.62283C39.565 6.63619 39.9595 9.45279 41.3923 10.8732C42.8234 12.2936 45.6612 12.6869 46.6822 14.4381C47.6892 16.1652 46.6229 18.7947 47.1534 20.766C47.6665 22.6714 49.9301 24.414 49.9301 26.4806Z" fill="url(#paint4_linear_99_200)"/>
<path d="M48.7172 25.275C48.7172 25.7132 48.6107 26.1376 48.4362 26.5499C48.218 27.0747 47.8951 27.5823 47.5548 28.0846C46.9632 28.9577 46.3209 29.8099 46.0801 30.702C45.752 31.9215 46.0661 33.406 46.0626 34.7451C46.0591 35.4622 45.9666 36.1412 45.6315 36.7146C45.5321 36.8861 45.4134 37.0437 45.279 37.1892C44.1219 38.4642 41.8269 38.8903 40.6069 40.0994C39.2474 41.4488 38.8721 44.1251 37.1967 45.0865C35.5439 46.0357 33.0273 45.031 31.1389 45.5316C29.3151 46.0149 27.6484 48.149 25.6692 48.149C23.6901 48.149 22.0234 46.0149 20.1979 45.5316C18.3112 45.031 15.7946 46.0375 14.1418 45.0865C12.4664 44.1251 12.0911 41.4488 10.7298 40.0994C9.37026 38.75 6.67383 38.3775 5.70521 36.7146C5.66682 36.6488 5.63191 36.583 5.6005 36.5137C5.35965 36.0009 5.28286 35.4154 5.27762 34.7988C5.26541 33.4442 5.59177 31.9371 5.25843 30.702C4.7715 28.8919 2.62134 27.2358 2.62134 25.2732C2.62134 23.3106 4.7715 21.6546 5.25843 19.8427C5.76281 17.9702 4.74881 15.4723 5.70521 13.8319C6.67558 12.1689 9.37201 11.7965 10.7298 10.4454C12.0894 9.09594 12.4664 6.41965 14.1418 5.45826C15.7946 4.509 18.3112 5.51543 20.1979 5.01481C22.0217 4.53152 23.6901 2.39742 25.6692 2.39742C27.6484 2.39742 29.3151 4.53152 31.1389 5.01481C33.0273 5.51543 35.5439 4.509 37.1967 5.45826C38.8268 6.39367 39.2264 8.9487 40.4952 10.3293C40.5319 10.3691 40.5685 10.409 40.6069 10.4454C41.5843 11.4154 43.2475 11.8796 44.4692 12.6817C44.9491 12.9952 45.3593 13.3624 45.6333 13.8319C46.5897 15.4723 45.5774 17.9702 46.0818 19.8427C46.5687 21.6529 48.7189 23.3089 48.7189 25.2732L48.7172 25.275Z" fill="url(#paint5_linear_99_200)"/>
<path d="M45.6018 30.392C45.1027 32.2437 46.1045 34.7156 45.1603 36.3387C44.2021 37.9826 41.5354 38.3516 40.1898 39.6871C38.8459 41.0209 38.4742 43.6678 36.8162 44.6188C35.1809 45.5576 32.6921 44.5633 30.8265 45.057C29.0219 45.5368 27.3708 47.6467 25.4161 47.6467C23.4615 47.6467 21.8087 45.5351 20.0058 45.057C18.1402 44.5616 15.6497 45.5559 14.0161 44.6188C12.3581 43.6678 11.9864 41.0209 10.6425 39.6854C9.29692 38.3516 6.63016 37.9826 5.67202 36.337C4.72609 34.7139 5.72786 32.2437 5.23047 30.3902C4.74703 28.6008 2.62305 26.9622 2.62305 25.0221C2.62305 24.0139 3.19549 23.0889 3.81506 22.1812C4.23392 21.5663 4.67373 20.9565 4.97217 20.3381C5.08037 20.1112 5.17113 19.8825 5.23221 19.6539C5.73136 17.8021 4.72958 15.3302 5.67376 13.7089C6.63191 12.0633 9.29867 11.6943 10.6443 10.3605C11.9881 9.02492 12.3599 6.37808 14.0179 5.42708C15.6514 4.48821 18.1402 5.48251 20.0076 4.98883C21.8104 4.509 23.4615 2.40088 25.4179 2.40088C27.3743 2.40088 29.0236 4.51073 30.8265 4.98883C32.6921 5.48425 35.1826 4.48995 36.8179 5.42708C38.3991 6.33477 38.8093 8.78587 40.0153 10.1699C40.0694 10.2357 40.1287 10.2998 40.1915 10.3605C41.1567 11.3184 42.7989 11.7774 44.0049 12.5691C44.4814 12.8809 44.8898 13.2429 45.1603 13.7106C46.1062 15.332 45.1044 17.8021 45.6018 19.6556C46.0853 21.445 48.211 23.0837 48.211 25.0255C48.211 26.9673 46.0835 28.6043 45.6018 30.3937V30.392Z" fill="url(#paint6_linear_99_200)"/>
<path d="M13.6427 21.3116C10.4314 21.8209 6.42954 22.0686 3.81165 22.1829C4.23051 21.568 4.67031 20.9582 4.96875 20.3398C7.25504 20.4836 10.3808 20.5997 13.5537 20.4594C14.1 20.4351 14.182 21.2267 13.6427 21.3134V21.3116Z" fill="url(#paint7_linear_99_200)"/>
<path d="M48.4361 26.5516C48.218 27.0765 47.8951 27.584 47.5548 28.0864C23.0129 28.7793 11.0719 33.2813 5.60046 36.5154C5.35962 36.0027 5.28282 35.4172 5.27759 34.8005C5.67725 34.3345 6.11531 33.827 6.59875 33.2709C20.1594 28.0327 41.2474 26.8201 48.4361 26.5516Z" fill="url(#paint8_linear_99_200)"/>
<path d="M46.0626 34.7468C46.0591 35.4639 45.9666 36.143 45.6315 36.7163C45.532 36.8878 45.4133 37.0455 45.279 37.191C42.9124 37.7938 36.8563 39.2385 31.0237 39.8118C30.617 39.8517 30.5315 39.2558 30.9347 39.183C36.886 38.0935 42.8653 35.9819 46.0643 34.7485L46.0626 34.7468Z" fill="url(#paint9_linear_99_200)"/>
<path d="M44.4675 12.6851C41.4325 13.4854 32.7498 15.5953 25.2784 15.6264C24.8141 15.6282 24.7478 14.9613 25.2051 14.8747C31.1634 13.7643 37.2264 11.6007 40.4953 10.331C40.5319 10.3709 40.5686 10.4107 40.607 10.4471C41.5843 11.4171 43.2476 11.8814 44.4692 12.6834L44.4675 12.6851Z" fill="url(#paint10_linear_99_200)"/>
<path d="M25.6971 35.2682C25.3795 35.2682 25.0636 35.1833 24.7826 35.0222L13.2587 28.4189C12.6845 28.0898 12.3424 27.5009 12.3424 26.8426C12.3424 26.1844 12.6845 25.5954 13.2587 25.2663L24.7826 18.663C25.0636 18.5019 25.3795 18.4171 25.6971 18.4171C26.7094 18.4171 27.5332 19.2347 27.5332 20.2394V21.8988H37.0937C37.9576 21.8988 38.6592 22.5969 38.6592 23.4526V30.2291C38.6592 31.0866 37.9558 31.7829 37.0937 31.7829H27.5332V33.4424C27.5332 34.4471 26.7094 35.2647 25.6971 35.2647V35.2682Z" fill="url(#paint11_linear_99_200)"/>
<path d="M25.6972 18.8744C26.4145 18.8744 27.0724 19.4443 27.0724 20.2394V22.3561H37.0937C37.7046 22.3561 38.1985 22.8481 38.1985 23.4526V30.2291C38.1985 30.8354 37.7028 31.3256 37.0937 31.3256H27.0724V33.4424C27.0724 34.2375 26.4145 34.8074 25.6972 34.8074C25.4685 34.8074 25.2347 34.7502 25.013 34.6221L13.4908 28.0188C12.5745 27.4939 12.5745 26.1826 13.4908 25.6578L25.013 19.0545C25.2347 18.9281 25.4685 18.8692 25.6972 18.8692M25.6972 17.9597C25.2992 17.9597 24.9031 18.0654 24.5523 18.2664L13.0301 24.8696C12.311 25.2819 11.8834 26.0181 11.8834 26.8426C11.8834 27.6672 12.3128 28.4034 13.0301 28.8156L24.5523 35.4189C24.9031 35.6198 25.2992 35.7255 25.6972 35.7255C26.9642 35.7255 27.9939 34.7035 27.9939 33.4459V32.2437H37.0937C38.2107 32.2437 39.12 31.3412 39.12 30.2326V23.4561C39.12 22.3475 38.2107 21.445 37.0937 21.445H27.9939V20.2428C27.9939 18.9852 26.9642 17.9632 25.6972 17.9632V17.9597Z" fill="#5A2903"/>
<path d="M36.8284 23.0768V29.2937C36.8284 29.848 36.3607 30.3001 35.783 30.3001H26.301V32.242C26.301 33.2051 25.2172 33.8062 24.3533 33.3246L16.7859 29.1222L13.4489 27.2687C12.5833 26.7872 12.5833 25.5833 13.4489 25.1L24.3533 19.0441C25.2172 18.5626 26.301 19.1636 26.301 20.1268V22.0686H35.783C35.9209 22.0686 36.05 22.0928 36.1705 22.1413C36.5579 22.2886 36.8284 22.6506 36.8284 23.075V23.0768Z" fill="url(#paint12_linear_99_200)"/>
<g opacity="0.25">
<path d="M36.8285 23.0767V29.2937C36.8285 29.848 36.3607 30.3001 35.783 30.3001H26.301V32.242C26.301 33.2051 25.2172 33.8062 24.3533 33.3246L16.7859 29.1222C27.4006 28.1366 33.3641 24.4833 36.1688 22.1413C36.5562 22.2886 36.8267 22.6506 36.8267 23.075L36.8285 23.0767Z" fill="#318063"/>
</g>
</g>
<defs>
<linearGradient id="paint0_linear_99_200" x1="6.71697" y1="54.3538" x2="18.751" y2="32.5876" gradientUnits="userSpaceOnUse">
<stop stop-color="#95D543"/>
<stop offset="0.26" stop-color="#72B74E"/>
<stop offset="0.58" stop-color="#4E9959"/>
<stop offset="0.83" stop-color="#388660"/>
<stop offset="1" stop-color="#318063"/>
</linearGradient>
<linearGradient id="paint1_linear_99_200" x1="46.6908" y1="51.9374" x2="28.1873" y2="35.2347" gradientUnits="userSpaceOnUse">
<stop stop-color="#95D543"/>
<stop offset="0.26" stop-color="#72B74E"/>
<stop offset="0.58" stop-color="#4E9959"/>
<stop offset="0.83" stop-color="#388660"/>
<stop offset="1" stop-color="#318063"/>
</linearGradient>
<linearGradient id="paint2_linear_99_200" x1="6.69386" y1="0.64989" x2="18.7278" y2="22.416" gradientUnits="userSpaceOnUse">
<stop stop-color="#95D543"/>
<stop offset="0.26" stop-color="#72B74E"/>
<stop offset="0.58" stop-color="#4E9959"/>
<stop offset="0.83" stop-color="#388660"/>
<stop offset="1" stop-color="#318063"/>
</linearGradient>
<linearGradient id="paint3_linear_99_200" x1="46.6835" y1="3.04874" x2="28.1801" y2="19.7515" gradientUnits="userSpaceOnUse">
<stop stop-color="#95D543"/>
<stop offset="0.26" stop-color="#72B74E"/>
<stop offset="0.58" stop-color="#4E9959"/>
<stop offset="0.83" stop-color="#388660"/>
<stop offset="1" stop-color="#318063"/>
</linearGradient>
<linearGradient id="paint4_linear_99_200" x1="20.896" y1="15.7148" x2="35.8228" y2="49.8841" gradientUnits="userSpaceOnUse">
<stop stop-color="#F8A45B"/>
<stop offset="0.22" stop-color="#C87E40"/>
<stop offset="0.47" stop-color="#975824"/>
<stop offset="0.7" stop-color="#733C10"/>
<stop offset="0.88" stop-color="#5D2B04"/>
<stop offset="1" stop-color="#562500"/>
</linearGradient>
<linearGradient id="paint5_linear_99_200" x1="62.489" y1="53.1517" x2="16.2035" y2="17.5784" gradientUnits="userSpaceOnUse">
<stop stop-color="#F8A45B"/>
<stop offset="0.39" stop-color="#CB7837"/>
<stop offset="0.79" stop-color="#A45218"/>
<stop offset="1" stop-color="#96440C"/>
</linearGradient>
<linearGradient id="paint6_linear_99_200" x1="19.2257" y1="12.6435" x2="36.1986" y2="47.1071" gradientUnits="userSpaceOnUse">
<stop stop-color="#F8A45B"/>
<stop offset="0.39" stop-color="#CB7837"/>
<stop offset="0.79" stop-color="#A45218"/>
<stop offset="1" stop-color="#96440C"/>
</linearGradient>
<linearGradient id="paint7_linear_99_200" x1="8.76993" y1="19.6816" x2="9.03129" y2="23.1689" gradientUnits="userSpaceOnUse">
<stop offset="0.38" stop-color="#96440C"/>
<stop offset="0.4" stop-color="#9A480F"/>
<stop offset="0.5" stop-color="#B76427"/>
</linearGradient>
<linearGradient id="paint8_linear_99_200" x1="26.4162" y1="27.5858" x2="27.0697" y2="32.5222" gradientUnits="userSpaceOnUse">
<stop offset="0.38" stop-color="#96440C"/>
<stop offset="0.4" stop-color="#9A480F"/>
<stop offset="0.5" stop-color="#B76427"/>
</linearGradient>
<linearGradient id="paint9_linear_99_200" x1="38.2089" y1="36.453" x2="38.9987" y2="39.9357" gradientUnits="userSpaceOnUse">
<stop offset="0.38" stop-color="#96440C"/>
<stop offset="0.4" stop-color="#9A480F"/>
<stop offset="0.5" stop-color="#B76427"/>
</linearGradient>
<linearGradient id="paint10_linear_99_200" x1="34.1076" y1="11.2612" x2="35.0882" y2="16.0018" gradientUnits="userSpaceOnUse">
<stop offset="0.38" stop-color="#96440C"/>
<stop offset="0.4" stop-color="#9A480F"/>
<stop offset="0.5" stop-color="#B76427"/>
</linearGradient>
<linearGradient id="paint11_linear_99_200" x1="24.2486" y1="22.6801" x2="30.7684" y2="35.9186" gradientUnits="userSpaceOnUse">
<stop stop-color="#318063"/>
<stop offset="0.35" stop-color="#22664C"/>
<stop offset="0.75" stop-color="#165039"/>
<stop offset="1" stop-color="#124933"/>
</linearGradient>
<linearGradient id="paint12_linear_99_200" x1="23.7948" y1="22.6212" x2="29.5197" y2="34.2457" gradientUnits="userSpaceOnUse">
<stop stop-color="#95D543"/>
<stop offset="0.03" stop-color="#98D648"/>
<stop offset="0.35" stop-color="#B8E879"/>
<stop offset="0.63" stop-color="#CFF49D"/>
<stop offset="0.85" stop-color="#DDFCB3"/>
<stop offset="1" stop-color="#E3FFBB"/>
</linearGradient>
<clipPath id="clip0_99_200">
<rect width="51" height="55" fill="white"/>
</clipPath>
</defs>
</svg>
