<svg width="30" height="40" viewBox="0 0 30 40" fill="none" xmlns="http://www.w3.org/2000/svg">
<path d="M29.8664 23.6951C29.8562 33.4297 23.1948 39.8732 14.9849 39.8648C6.7749 39.8563 0.125355 33.3993 0.13551 23.6646C0.143972 13.9317 5.4565 0.125097 15.0238 0.133549C24.5911 0.143691 29.8765 13.9605 29.8664 23.6951Z" fill="url(#paint0_linear_99_45468)"/>
<path d="M14.9831 40C6.29246 39.9915 -0.0101423 33.122 1.22529e-05 23.6663C0.0101668 13.9875 5.36501 -0.0101365 15.0237 5.50816e-06C24.6824 0.0101475 30.0101 14.0162 30 23.6951C29.9898 33.1508 23.6754 40.0084 14.9831 40ZM15.0237 0.267078C5.53763 0.258626 0.27757 14.0974 0.267416 23.6663C0.257261 32.9665 6.44647 39.7245 14.9831 39.7329C23.5197 39.7414 29.7224 32.997 29.7309 23.6968C29.741 14.1278 24.5081 0.27891 15.022 0.268768L15.0237 0.267078Z" fill="#D6D6D6"/>
<g style="mix-blend-mode:multiply">
<path d="M15.0238 0.133549C5.45649 0.125097 0.143955 13.9317 0.133801 23.6663C0.123646 33.4009 6.7732 39.858 14.9832 39.8665C23.1931 39.8749 29.8562 33.4297 29.8647 23.6968C29.8748 13.9621 24.5894 0.145381 15.0221 0.135239L15.0238 0.133549ZM14.9882 36.1494C7.65833 36.1427 1.7213 30.3769 1.72976 21.6853C1.73822 12.9936 6.4821 0.666003 15.0238 0.674455C23.5655 0.682906 28.284 13.0206 28.2755 21.7106C28.267 30.4023 22.3181 36.1562 14.9882 36.1477V36.1494Z" fill="#E8E8E8"/>
</g>
<defs>
<linearGradient id="paint0_linear_99_45468" x1="15.0009" y1="0.133545" x2="15.0009" y2="39.8648" gradientUnits="userSpaceOnUse">
<stop stop-color="#FF0000"/>
<stop offset="0.25" stop-color="#FFB800"/>
<stop offset="0.505" stop-color="#24FF00"/>
<stop offset="0.75" stop-color="#0066FF"/>
<stop offset="1" stop-color="#FF00C7"/>
</linearGradient>
</defs>
</svg>
