<svg width="26" height="30" viewBox="0 0 26 30" fill="none" xmlns="http://www.w3.org/2000/svg">
<path d="M25.1148 16.5832C24.7231 17.3449 24.1899 18.0358 23.5425 18.5962C22.206 19.755 20.427 20.3535 18.6588 20.3281C18.2744 20.3208 17.9008 20.2338 17.5598 20.0778C17.2171 19.92 16.9088 19.6933 16.6495 19.4086C16.5751 19.3579 16.5026 19.3053 16.4319 19.249C15.7554 18.7032 15.3111 17.869 15.2476 17.0003C15.1769 16.041 15.5704 15.0581 16.2831 14.4143C17.0557 13.7125 18.1238 13.4296 18.9526 12.7967C18.9598 12.7912 18.9671 12.7858 18.9744 12.7803C20.0479 11.9461 20.6101 10.577 20.7207 9.22229C20.7625 8.69457 20.7443 8.16866 20.6808 7.64275C20.5847 6.81036 20.3762 5.98522 20.1404 5.17822C21.399 6.17927 22.6666 7.18756 23.7148 8.40804C24.763 9.63032 25.5881 11.0884 25.8112 12.6824C25.998 14.0135 25.7314 15.3899 25.1148 16.585V16.5832Z" fill="black"/>
<path d="M25.1147 16.5832C25.0621 15.5477 24.859 14.5195 24.5108 13.542C24.237 14.6392 23.965 15.7382 23.6911 16.8371C22.3655 15.8615 21.7017 14.0679 22.0699 12.4648C21.4623 13.464 20.853 14.4651 20.2455 15.4643C19.7178 14.4723 19.6761 13.2337 20.1331 12.2073C19.7812 12.4557 19.3859 12.6498 18.9742 12.7785C20.0478 11.9443 20.61 10.5752 20.7206 9.22049C20.7623 8.69277 20.7442 8.16686 20.6807 7.64095C20.5846 6.80856 20.3761 5.98342 20.1403 5.17642C21.3989 6.17747 22.6665 7.18576 23.7147 8.40624C24.7629 9.62852 25.588 11.0866 25.8111 12.6806C25.9979 14.0117 25.7313 15.3881 25.1147 16.5832Z" fill="#F7E5D2"/>
<g style="mix-blend-mode:multiply" opacity="0.4">
<path d="M21.1306 17.6696C19.9028 18.7342 18.2671 19.2855 16.6404 19.2619C16.5697 19.2619 16.5007 19.2564 16.43 19.2492C15.7536 18.7033 15.3093 17.8691 15.2458 17.0005C15.1751 16.0411 15.5686 15.0582 16.2813 14.4144C17.0539 13.7126 18.122 13.4297 18.9508 12.7968C20.0389 11.9644 20.6083 10.5862 20.7189 9.22063C20.7606 8.6929 20.7425 8.16699 20.679 7.64108C20.8894 7.85326 21.0925 8.07451 21.2883 8.30119C22.2531 9.42374 23.0112 10.7657 23.2161 12.231C23.499 14.2367 22.6593 16.344 21.1288 17.6696H21.1306Z" fill="black"/>
</g>
<path d="M15.0754 25.5112C15.07 25.756 15.0518 26.0026 15.0174 26.2474C14.9303 26.8622 14.6892 27.5259 14.1379 27.8088C13.8205 27.9702 13.4469 27.9829 13.0951 27.9285C12.9138 27.8995 12.7306 27.8542 12.5764 27.7526C12.4241 27.6511 12.3062 27.4842 12.3026 27.2993C12.2972 27.0272 12.5257 26.8169 12.7016 26.6083C12.9156 26.3544 13.0606 26.048 13.1368 25.727C13.2547 25.2283 13.2021 24.6897 12.9663 24.2327C12.9228 24.1492 12.8757 24.0713 12.8249 23.9915C12.8013 23.9534 12.7741 23.9153 12.7469 23.8754C12.6399 23.7231 12.5239 23.5744 12.4169 23.422C12.3915 23.3894 12.3679 23.3531 12.3443 23.3187C12.3207 23.286 12.299 23.2516 12.279 23.2189C12.2627 23.1917 12.2464 23.1663 12.2319 23.1391C12.2174 23.1155 12.2047 23.092 12.192 23.0684C11.9907 22.6948 11.8982 22.2614 11.9272 21.837L13.7443 20.7217L14.5513 20.2249C14.5513 20.292 14.5477 20.3609 14.5477 20.4262C14.5477 20.5277 14.5477 20.6311 14.555 20.7344C14.5586 20.8287 14.564 20.9212 14.5695 21.0155C14.5749 21.0899 14.5803 21.1642 14.5858 21.2386C14.5912 21.2948 14.5967 21.3528 14.6021 21.4091C14.6311 21.6756 14.6674 21.9458 14.7055 22.2124C14.7091 22.2342 14.7127 22.2541 14.7164 22.2759C14.7327 22.3811 14.749 22.4845 14.7653 22.5878C14.7871 22.7202 14.8088 22.8508 14.8288 22.9813C14.8614 23.179 14.8923 23.3749 14.9231 23.5707C14.9648 23.8464 15.0011 24.122 15.0301 24.3977C15.0664 24.7694 15.0881 25.1376 15.0809 25.5093L15.0754 25.5112Z" fill="black"/>
<path d="M15.0754 25.5111C15.07 25.7559 15.0518 26.0025 15.0174 26.2474C14.9303 26.8621 14.6891 27.5259 14.1378 27.8088C13.8205 27.9702 13.4469 27.9829 13.0951 27.9285C12.9137 27.8994 12.7306 27.8541 12.5764 27.7525C12.4241 27.651 12.3062 27.4841 12.3026 27.2992C12.2971 27.0272 12.5256 26.8168 12.7016 26.6082C12.9155 26.3543 13.0606 26.0479 13.1368 25.7269C13.2547 25.5782 13.3417 25.415 13.3725 25.2245C13.436 25.5455 13.4995 25.8683 13.563 26.1893C13.7098 26.0007 13.8549 25.8121 14.0018 25.6235C14.0073 25.7595 14.0762 25.8901 14.1832 25.9699C14.243 25.8067 14.3029 25.6416 14.3627 25.4784C14.4189 25.6217 14.477 25.765 14.5332 25.9082C14.6601 25.7015 14.7435 25.4676 14.7762 25.2245C14.8106 25.4295 14.8941 25.6271 15.0174 25.7958C15.0373 25.6997 15.0555 25.609 15.0736 25.5129L15.0754 25.5111Z" fill="#79403D"/>
<g style="mix-blend-mode:multiply" opacity="0.4">
<path d="M12.8249 23.9933C13.5394 23.9353 14.2376 23.7902 14.9194 23.5744C14.7526 22.4627 14.5187 21.3474 14.5495 20.2267L11.9254 21.8389C11.8964 22.2632 11.9889 22.6966 12.1902 23.0702C12.3661 23.3985 12.6218 23.6814 12.8249 23.9915V23.9933Z" fill="black"/>
</g>
<path d="M8.51057 27.3027C8.47611 27.6872 8.40176 28.097 8.14606 28.3673C7.90124 28.623 7.54398 28.7027 7.20668 28.7372C6.8204 28.7753 6.89657 28.7698 6.5103 28.7191C6.33076 28.6955 6.13491 28.6502 6.02791 28.4942C5.9318 28.3546 5.93724 28.1587 5.99345 27.9955C6.04786 27.8323 6.1476 27.6872 6.23102 27.5385C6.57377 26.9328 6.37066 26.2183 6.26004 25.5074C6.23646 25.3605 6.21833 25.2136 6.20745 25.0685C6.15123 24.2216 5.96263 23.3892 5.86651 22.546V22.5423C5.79216 21.8732 5.77584 21.1949 5.81936 20.5203C5.83024 20.3172 5.85019 20.1105 5.87376 19.9092C5.87376 19.9092 5.87376 19.9092 5.87376 19.9055C5.98801 18.9244 6.22739 17.9597 6.58465 17.0475L7.36264 18.7957L8.15875 20.5783L8.46705 21.2693C8.35461 21.982 8.35098 22.7037 8.38544 23.4255C8.42715 24.296 8.52326 25.1701 8.54503 26.0424C8.55591 26.4649 8.55047 26.8856 8.51238 27.3064L8.51057 27.3027Z" fill="black"/>
<path d="M8.51054 27.3028C8.47608 27.6872 8.40173 28.0971 8.14603 28.3673C7.90121 28.623 7.54395 28.7028 7.20664 28.7373C6.82037 28.7753 6.89654 28.7699 6.51027 28.7191C6.33073 28.6955 6.13488 28.6502 6.02788 28.4943C5.93177 28.3546 5.93721 28.1588 5.99342 27.9955C6.04783 27.8323 6.14757 27.6873 6.23099 27.5385C6.57374 26.9328 6.37063 26.2183 6.26001 25.5074C6.40508 25.7269 6.57374 25.9282 6.76597 26.1077C6.84213 25.8302 6.92011 25.5546 6.99628 25.2771C7.19395 25.7232 7.38981 26.1694 7.58748 26.6173C7.65457 26.3489 7.72349 26.0787 7.78877 25.8103C7.86313 26.0098 7.93748 26.2093 8.01183 26.4087C8.08618 26.144 8.15872 25.8792 8.23308 25.6126C8.26028 25.8157 8.34914 26.0116 8.49059 26.1639C8.50691 26.124 8.52505 26.0841 8.54318 26.0424C8.55406 26.465 8.54862 26.8857 8.51054 27.3064V27.3028Z" fill="#79403D"/>
<path d="M11.3342 26.6827C11.3342 26.7153 11.3342 26.7516 11.3342 26.7842C11.3396 27.1288 11.3287 27.4715 11.2997 27.8143C11.2653 28.1987 11.1909 28.6086 10.9352 28.8788C10.7013 29.1254 10.3621 29.2088 10.0375 29.2433C10.0248 29.2433 10.0085 29.2469 9.99582 29.2487C9.80359 29.2687 9.72561 29.2778 9.64763 29.2741H9.62768C9.55514 29.2687 9.47535 29.256 9.29944 29.2306C9.11809 29.207 8.92224 29.1617 8.81705 29.0057C8.75358 28.9114 8.73545 28.7954 8.74452 28.6793C8.74996 28.6195 8.76265 28.5614 8.78079 28.5052C8.81524 28.4037 8.86602 28.3075 8.91861 28.2169C8.91861 28.2169 8.91861 28.2157 8.91861 28.2132C8.95125 28.1588 8.98389 28.1044 9.01472 28.05C9.17975 27.7562 9.21783 27.4353 9.1997 27.1034C9.18156 26.7479 9.09996 26.3762 9.04011 26.0099C9.01835 25.8666 9.00022 25.7233 8.98934 25.5801C8.944 24.8946 8.8098 24.2199 8.71187 23.5417C8.6883 23.3803 8.66654 23.2189 8.6484 23.0575C8.54141 22.1163 8.55229 21.1624 8.68104 20.223C8.73363 19.8313 8.80436 19.445 8.89685 19.0642C8.92768 18.9318 8.96213 18.7994 8.9984 18.6707C9.10177 18.2935 9.22509 17.9217 9.36835 17.559L9.87613 18.6961L11.2489 21.7808C11.1601 22.343 11.1401 22.907 11.1528 23.4746C11.1746 24.5427 11.3124 25.6163 11.3305 26.6863L11.3342 26.6827Z" fill="black"/>
<path d="M11.3342 26.7841C11.3396 27.1286 11.3287 27.4714 11.2997 27.8141C11.2653 28.1986 11.1909 28.6085 10.9352 28.8787C10.7013 29.1253 10.3621 29.2087 10.0375 29.2432C10.0194 29.2432 10.0031 29.2468 9.98494 29.2486C9.82535 29.2613 9.72561 29.2704 9.64944 29.274H9.6295C9.55696 29.2686 9.47716 29.2559 9.30126 29.2305C9.11991 29.2069 8.92405 29.1616 8.81887 29.0056C8.7554 28.9113 8.73726 28.7952 8.74633 28.6792C8.75177 28.6193 8.76446 28.5613 8.7826 28.5051C8.81706 28.4035 8.86783 28.3074 8.92042 28.2167C8.92042 28.2167 8.92042 28.2155 8.92042 28.2131C8.95307 28.1587 8.98571 28.1043 9.01654 28.0499C9.18157 27.7561 9.21965 27.4351 9.20151 27.1033C9.18338 26.7478 9.10177 26.3761 9.04193 26.0097C9.12535 26.1149 9.22872 26.2092 9.35022 26.2872C9.38105 26.1022 9.41007 25.9154 9.43727 25.7323C9.73105 26.1385 10.023 26.5465 10.3168 26.9546C10.422 26.7206 10.5235 26.4867 10.6269 26.2509C10.6741 26.4069 10.7702 26.5502 10.9098 26.6644C10.9624 26.5302 11.0096 26.3978 11.0603 26.2654C11.151 26.4395 11.2417 26.6154 11.3324 26.7895L11.3342 26.7841Z" fill="#79403D"/>
<path d="M17.8989 19.6335C17.7266 18.7739 17.1608 17.985 16.3919 17.5698C16.2976 17.519 16.2033 17.4755 16.1054 17.4356C15.4325 17.1635 14.6709 17.1345 13.9382 17.149C13.0986 17.1635 12.2426 17.2216 11.4356 16.9894C10.6286 16.7555 9.86515 16.1552 9.71826 15.3283L5.80476 14.9239C6.00062 14.9438 6.00969 15.9612 6.00243 16.1008C5.98248 16.4944 5.89725 16.8825 5.82834 17.2705C5.5273 18.9281 5.85373 20.7143 6.82213 22.1035C8.63198 24.7004 11.3758 23.5379 14.0398 22.4226C15.3382 21.8786 17.6813 22.1144 17.9225 20.5892C17.9732 20.2719 17.9624 19.9491 17.8989 19.6353V19.6335Z" fill="black"/>
<path d="M11.1455 17.3704C10.6559 17.2471 10.2333 16.8789 10.0465 16.4092C9.85975 15.9396 9.91052 15.3828 10.1807 14.9548L4.56437 14.9857C4.88173 15.3846 4.81101 15.9813 4.56981 16.431C4.32862 16.8808 3.94779 17.2362 3.63768 17.6424C3.32758 18.0486 3.08276 18.5564 3.1825 19.0569C3.36022 18.803 3.60685 18.5963 3.88976 18.4657C3.26229 19.2564 3.40193 20.544 4.18535 21.1805C4.19442 20.8722 4.33225 20.5694 4.55893 20.359C4.30686 21.0173 4.60064 21.8388 5.2136 22.187C5.22811 21.9621 5.31697 21.7427 5.46023 21.5704C5.76309 22.8507 6.88745 23.8971 8.18771 24.1075C7.66362 23.5598 7.76154 22.6839 7.93927 21.9476C8.0916 21.3147 8.26932 20.6202 8.0789 20.0199C8.19315 20.2828 8.3074 20.5458 8.42165 20.8088C8.85508 20.0326 9.00559 19.1023 8.83694 18.2282C9.02191 18.7087 9.2087 19.1893 9.39368 19.6699C9.96674 18.9989 10.1082 17.9906 9.7455 17.1872C10.0937 17.5608 10.7157 17.6406 11.1473 17.3668L11.1455 17.3704Z" fill="#F7E5D2"/>
<g style="mix-blend-mode:multiply">
<path d="M8.83517 16.7773C8.54501 16.6921 8.29656 16.4382 8.18594 16.1154C8.07532 15.7926 8.10615 15.4063 8.26573 15.1125L4.94706 15.1343C5.13566 15.41 5.09395 15.8216 4.95068 16.1317C4.80742 16.4418 4.58255 16.6885 4.39938 16.9677C4.21622 17.2488 4.07114 17.597 4.13099 17.9434C4.23617 17.7675 4.38125 17.626 4.54809 17.5354C4.17633 18.0812 4.25975 18.968 4.72219 19.4087C4.72763 19.1965 4.80923 18.9862 4.94343 18.8429C4.79472 19.2963 4.96882 19.8639 5.3297 20.1033C5.33877 19.9491 5.38955 19.7968 5.47659 19.6789C5.65613 20.5621 6.31986 21.2838 7.08878 21.4289C6.77868 21.0517 6.83671 20.4478 6.94189 19.94C7.03256 19.503 7.13775 19.0242 7.0235 18.6108C7.09059 18.7921 7.15769 18.9735 7.22661 19.1548C7.48412 18.6198 7.57117 17.9779 7.47143 17.3758C7.58205 17.7076 7.69086 18.0395 7.80148 18.3696C8.13879 17.9071 8.22402 17.2107 8.01003 16.6576C8.21677 16.9152 8.58309 16.9696 8.83879 16.781L8.83517 16.7773Z" fill="#F7E5D2"/>
</g>
<path d="M18.8003 25.1139C18.7205 25.9753 18.4593 27.067 18.1456 27.8722C18.0531 28.1098 17.9461 28.351 17.763 28.5269C17.4547 28.8279 16.0728 28.7391 15.8914 28.5595C15.6629 28.3346 15.7518 27.9538 15.8534 27.651C16.0184 27.1704 16.1834 26.6862 16.3466 26.2056C16.3974 26.0533 16.45 25.8955 16.4427 25.7359C16.4427 25.6978 16.4373 25.6598 16.4282 25.6199C16.3575 25.3333 16.0728 25.1629 15.8225 25.0069C15.5414 24.8292 15.2749 24.6279 15.0282 24.3994C14.8015 24.1945 14.593 23.9642 14.4116 23.7193C14.1414 23.3566 13.9256 22.954 13.7878 22.5242C13.7588 22.439 13.7352 22.352 13.7134 22.2631C13.6989 22.1996 13.6844 22.1343 13.6735 22.0709C13.5919 21.6121 13.621 21.1514 13.7425 20.7216C13.98 19.882 14.5694 19.1475 15.3764 18.7232L15.4743 18.6706C15.5741 18.6162 15.6793 18.5727 15.7899 18.5436C16.3829 18.3804 17.0702 18.5908 17.5254 19.0224C17.5834 19.0768 17.6378 19.1367 17.6886 19.1965C17.7412 19.26 17.792 19.3253 17.8391 19.3942C18.0241 19.6626 18.1547 19.969 18.2399 20.29C18.3052 20.5312 18.3433 20.7815 18.3578 21.0299C18.4031 21.7698 18.2653 22.5079 18.1347 23.2388C18.0912 23.48 18.0531 23.7429 18.1746 23.9551C18.2272 24.0458 18.3016 24.1147 18.3814 24.18C18.5083 24.2851 18.6479 24.3813 18.7295 24.5209C18.8293 24.6968 18.8202 24.9126 18.8003 25.1121V25.1139Z" fill="black"/>
<path d="M18.8003 25.114C18.7205 25.9754 18.4593 27.0671 18.1456 27.8723C18.0531 28.1099 17.9461 28.3511 17.763 28.527C17.4547 28.828 16.0728 28.7392 15.8915 28.5596C15.663 28.3348 15.7518 27.9539 15.8534 27.6511C16.0184 27.1705 16.1834 26.6863 16.3466 26.2057C16.3974 26.0534 16.45 25.8956 16.4428 25.736C16.479 25.7777 16.5171 25.8195 16.5534 25.863C16.5624 25.6762 16.5715 25.4894 16.5824 25.3026C16.7166 25.4187 16.849 25.5311 16.985 25.6472C16.9723 25.4695 16.9578 25.2954 16.9469 25.1176C17.0485 25.2301 17.15 25.3425 17.2552 25.455C17.3169 25.3081 17.3223 25.1358 17.2679 24.9853C17.335 25.0796 17.4021 25.172 17.4692 25.2682C17.4964 25.1049 17.5218 24.9399 17.5472 24.7785C17.6795 24.8638 17.8101 24.949 17.9407 25.036C17.957 24.7912 17.9733 24.5464 17.9915 24.3034C18.084 24.3669 18.1728 24.4285 18.2635 24.4902C18.3215 24.3941 18.3614 24.2889 18.385 24.1819C18.5119 24.2871 18.6516 24.3832 18.7332 24.5228C18.8329 24.6987 18.8239 24.9145 18.8039 25.114H18.8003Z" fill="#79403D"/>
<path d="M7.05806 3.75473C6.68085 2.99307 6.11505 2.34384 5.55649 1.70368C5.05235 1.12699 4.54638 0.548489 3.98239 0.0298325C3.92073 -0.0281989 3.81736 0.00263028 3.7956 0.0860505C3.64327 0.67906 3.48912 1.27388 3.33679 1.86689C3.11192 2.7428 2.88523 3.66587 3.11917 4.53815C3.34767 5.39049 3.99508 6.07961 4.7368 6.55837L7.42438 4.75758C7.33915 4.41121 7.21583 4.0739 7.05806 3.75291V3.75473Z" fill="black"/>
<g style="mix-blend-mode:multiply" opacity="0.42">
<path d="M6.41959 2.74287C6.00975 2.75919 5.60352 2.82629 5.23901 2.91697C4.68409 3.0566 4.17631 3.27966 3.74833 3.66594C3.49626 3.89262 3.28408 4.15558 3.09729 4.43485C3.10454 4.46931 3.1118 4.50558 3.12268 4.54003C3.35118 5.39237 3.99859 6.0815 4.74031 6.56025L7.42789 4.75947C7.34266 4.41309 7.21934 4.07578 7.06157 3.7548C6.88384 3.39573 6.66441 3.06204 6.42141 2.74106L6.41959 2.74287Z" fill="black"/>
</g>
<path d="M0.00160927 9.37103C0.00704972 10.5262 0.304461 11.4801 0.737884 12.2545C1.9366 14.3944 4.17262 15.1869 4.17262 15.1869C5.95346 15.5931 7.47679 15.7255 8.78069 15.662C9.93225 15.6076 10.9097 15.3972 11.7421 15.0908C14.6165 14.0335 15.7463 11.8156 16.1452 10.6949C16.2958 10.2814 16.3429 10.0184 16.3429 10.0184C15.6066 10.9451 14.923 10.5824 14.923 10.5824C15.38 10.1146 15.3763 9.10445 15.3763 9.10445C15.3673 9.11352 15.3618 9.1244 15.3546 9.13347C14.9429 9.66119 14.1141 9.5415 13.8548 8.92492C12.3551 5.38318 8.70089 4.69768 8.70089 4.69768C4.80915 3.7311 3.00837 5.64251 2.18867 6.89744C1.96199 7.24563 1.56121 7.42335 1.16224 7.37801C1.08245 7.36895 1.00084 7.349 0.921046 7.3218L1.24747 8.51325C0.65265 8.15781 0.389695 6.89019 0.389695 6.89019C0.315342 7.12957 0.253684 7.36532 0.202906 7.592C0.0578273 8.23398 -0.0020177 8.82336 -0.000204212 9.36922L0.00160927 9.37103Z" fill="#F7E5D2"/>
<path d="M0.204816 7.59387C0.600156 8.96849 1.46519 8.92859 1.46519 8.92859C2.06726 7.61382 2.62582 6.96278 3.06831 6.65448C3.53256 6.32806 4.17635 6.58738 4.30873 7.13868C4.71676 8.8488 4.13826 10.5099 3.07556 12.1512L5.34242 12.2962C6.11859 9.59958 7.45512 8.38092 8.26575 7.86589C8.98389 7.40889 9.9396 7.52314 10.4963 8.16874C11.5119 9.35113 11.6697 11.7141 11.6697 11.7141C12.3098 11.7903 13.7153 10.9524 13.7153 10.9524C13.7461 11.4747 13.2039 12.0514 13.2039 12.0514C14.5422 12.3325 15.5596 11.4312 16.1453 10.6967C16.2959 10.2833 16.343 10.0203 16.343 10.0203C15.6067 10.947 14.923 10.5843 14.923 10.5843C15.38 10.1164 15.3764 9.10631 15.3764 9.10631C15.3674 9.11538 15.3619 9.12626 15.3547 9.13533C14.943 9.66305 14.1142 9.54336 13.8549 8.92678C12.3552 5.38504 8.70099 4.69955 8.70099 4.69955C4.58075 3.70757 3.00846 5.64437 2.18877 6.8993C1.96208 7.24749 1.5613 7.42521 1.16234 7.37988C1.08254 7.37081 1.00094 7.35086 0.921142 7.32366L1.24757 8.51512C0.652747 8.15968 0.389792 6.89205 0.389792 6.89205C0.315439 7.13143 0.25378 7.36718 0.203003 7.59387H0.204816Z" fill="black"/>
<path d="M10.4473 4.18805C11.1201 3.35566 11.9942 2.7155 12.8592 2.08441C13.6517 1.5059 14.446 0.92559 15.2966 0.439576C15.3709 0.397866 15.4634 0.450457 15.4652 0.535691C15.4888 1.32274 15.5142 2.11161 15.5377 2.89866C15.5722 4.03571 15.5958 5.2308 15.0662 6.2391C14.5494 7.22201 13.5647 7.89118 12.5219 8.27383C11.938 7.20206 10.9369 6.23366 9.72009 5.31966C9.91958 4.91707 10.1644 4.53624 10.4473 4.18805Z" fill="black"/>
<path d="M11.1726 4.94973C11.646 4.36398 12.2607 3.91424 12.8682 3.46993C13.4105 3.07459 13.9545 2.67744 14.5348 2.34195C14.6074 2.30023 14.7017 2.35283 14.7035 2.43625C14.7198 2.97122 14.7361 3.5062 14.7525 4.04118C14.7778 4.84093 14.7924 5.68238 14.4206 6.39145C14.0579 7.08421 13.3651 7.5539 12.6307 7.82229C12.1102 6.93369 11.4555 6.23731 10.6594 5.74404C10.8009 5.46114 10.9713 5.19274 11.1708 4.94792L11.1726 4.94973Z" fill="#E8A465"/>
<path d="M7.86335 13.767C7.77812 14.5377 8.15714 15.2558 8.78279 15.6639C9.93435 15.6095 10.9118 15.3991 11.7442 15.0926C11.911 14.8405 12.0217 14.5504 12.0561 14.233C12.1794 13.1286 11.338 12.1258 10.181 11.9988C9.02398 11.8719 7.98667 12.6626 7.86335 13.7688V13.767Z" fill="#E8A465"/>
<path d="M0.00183105 9.37116C0.00727151 10.5263 0.304683 11.4802 0.738105 12.2546C1.26402 12.0733 1.66661 11.6017 1.73189 11.0106C1.82257 10.189 1.23319 9.45095 0.409865 9.35847C0.270227 9.34215 0.132402 9.34577 0.00183105 9.37116Z" fill="#E8A465"/>
<path d="M0.255554 12.4232C0.348041 12.9455 0.58198 13.5494 1.11514 14.0825C1.88043 14.8514 3.26412 15.4717 5.73046 15.488C5.73046 15.488 6.07865 14.4706 5.90637 13.4188C5.67424 12.0006 4.11827 11.2481 2.81075 11.8429C2.53329 11.9698 2.20323 12.0605 1.84779 12.0442C1.59572 12.0333 1.33458 11.9662 1.06618 11.8247C0.661774 11.6107 0.177574 11.9753 0.257367 12.425L0.255554 12.4232Z" fill="#F7E5D2"/>
<path d="M3.2216 14.6635C3.60969 14.8049 4.06125 14.6925 4.33146 14.3787C4.60892 14.0559 4.6198 13.5572 4.39493 13.2054C4.30607 13.0658 4.52731 12.937 4.61617 13.0748C4.9027 13.5228 4.86281 14.1321 4.52731 14.5419C4.20633 14.9337 3.62601 15.0824 3.15269 14.9101C2.99855 14.8539 3.06565 14.6054 3.2216 14.6616V14.6635Z" fill="#79403D"/>
<path d="M0.257486 12.4251C0.304637 12.6935 0.38987 12.9818 0.533136 13.272C0.805158 13.8214 1.52874 13.9792 2.00568 13.5948C2.0075 13.593 2.01112 13.5911 2.01294 13.5893C2.40828 13.2756 2.44092 12.6898 2.1018 12.3181L2.08366 12.2981C1.94947 12.153 1.77537 12.0479 1.58314 12.0098C1.42356 11.9771 1.26216 11.9227 1.09713 11.8393C0.674587 11.6235 0.174066 11.959 0.257486 12.4269V12.4251Z" fill="#79403D"/>
<g style="mix-blend-mode:screen" opacity="0.42">
<path d="M0.378906 12.1457C0.378906 12.298 0.576576 12.4214 0.819583 12.4214C1.06259 12.4214 1.26026 12.298 1.26026 12.1457C1.26026 11.9934 1.06259 11.8701 0.819583 11.8701C0.576576 11.8701 0.378906 11.9934 0.378906 12.1457Z" fill="#79403D"/>
</g>
<path d="M6.87844 11.3822C6.82041 11.763 7.06342 12.1838 7.41886 12.1711C7.82327 12.1566 8.11886 11.5581 7.92301 11.161C7.75798 10.8273 7.33181 10.7475 7.0616 11.0141C6.95642 11.1174 6.89839 11.248 6.87663 11.3822H6.87844Z" fill="#79403D"/>
<path d="M2.29932 10.0258C2.24855 10.3594 2.4716 10.7312 2.79259 10.7221C3.15891 10.7113 3.42368 10.1872 3.24415 9.83716C3.09363 9.54338 2.70736 9.47084 2.46435 9.70297C2.37005 9.79364 2.31746 9.90789 2.29932 10.0258Z" fill="#79403D"/>
<path d="M9.18884 12.5321C9.18884 12.6844 9.38651 12.8077 9.62952 12.8077C9.87253 12.8077 10.0702 12.6844 10.0702 12.5321C10.0702 12.3798 9.87253 12.2564 9.62952 12.2564C9.38651 12.2564 9.18884 12.3798 9.18884 12.5321Z" fill="white"/>
<path d="M0.772464 10.2124C1.01584 10.2124 1.21314 10.089 1.21314 9.93678C1.21314 9.78455 1.01584 9.66113 0.772464 9.66113C0.529085 9.66113 0.331787 9.78455 0.331787 9.93678C0.331787 10.089 0.529085 10.2124 0.772464 10.2124Z" fill="white"/>
</svg>
