<svg width="29" height="31" viewBox="0 0 29 31" fill="none" xmlns="http://www.w3.org/2000/svg">
<path d="M23.4178 22.4795C23.2274 22.2438 22.9644 22.0824 22.7033 21.9264C22.5165 21.814 22.3134 21.6871 22.2481 21.4785C22.1828 21.2772 22.2662 21.0614 22.3351 20.8601C22.6851 19.8591 22.7214 18.7202 22.2789 17.7554C21.9235 16.9811 21.2652 16.35 20.4745 16.029C19.6856 15.708 18.7716 15.6989 17.9773 16.0054L18.0553 19.2697C17.7216 20.1202 17.8323 21.1339 18.3437 21.892C18.8551 22.65 19.7509 23.1342 20.6649 23.1451C19.9123 23.8252 19.3719 24.741 19.1416 25.7293C19.0836 25.9778 19.0455 26.2353 19.0854 26.4873C19.1271 26.7394 19.2577 26.9861 19.4753 27.1166C19.8742 27.356 20.4128 27.1293 20.7103 26.7702C21.0077 26.4112 21.1419 25.9487 21.3559 25.5353C21.6696 24.9241 22.161 24.4055 22.754 24.0591C23.0859 23.865 23.4831 23.6891 23.6118 23.3264C23.7134 23.0417 23.6064 22.7153 23.416 22.4795H23.4178Z" fill="#D6633C"/>
<g style="mix-blend-mode:multiply" opacity="0.55">
<path d="M23.6134 23.3264C23.4846 23.6891 23.0893 23.865 22.7556 24.059C22.5942 24.1551 22.4382 24.2621 22.2932 24.3818C22.1662 24.4834 22.0502 24.594 21.9395 24.7119C21.7092 24.9567 21.5115 25.2342 21.3574 25.5352C21.1434 25.9487 21.0092 26.4093 20.7118 26.7702C20.4144 27.1293 19.8758 27.3578 19.4786 27.1166C19.2592 26.9842 19.1286 26.7394 19.0869 26.4873C19.0452 26.237 19.0869 25.9795 19.1413 25.7292C19.2701 25.1798 19.4931 24.6539 19.796 24.1787C20.0372 23.7979 20.331 23.4497 20.6647 23.145C19.7488 23.1342 18.853 22.65 18.3416 21.8919C17.832 21.1339 17.7196 20.1201 18.0532 19.2696L17.9753 16.0053C18.7696 15.6989 19.6817 15.7079 20.4724 16.0289C21.2613 16.3499 21.9214 16.9828 22.2768 17.7572C22.6649 18.6023 22.6849 19.5797 22.4473 20.4828C22.4128 20.6116 22.3748 20.7349 22.3312 20.86C22.2623 21.0613 22.1789 21.2753 22.2442 21.4784C22.3095 21.6852 22.5126 21.8121 22.6994 21.9246C22.9587 22.0805 23.2235 22.2437 23.4139 22.4777C23.6043 22.7116 23.7113 23.038 23.6097 23.3246L23.6134 23.3264Z" fill="#D6633C"/>
</g>
<path d="M21.9414 24.6956V24.7138C21.711 24.9586 21.5134 25.236 21.3592 25.5371C21.1452 25.9506 21.011 26.4112 20.7136 26.7721C20.4162 27.1311 19.8776 27.3596 19.4805 27.1184C19.261 26.9861 19.1305 26.7412 19.0887 26.4892C19.047 26.2389 19.0887 25.9814 19.1432 25.7311C19.2719 25.1816 19.495 24.6557 19.7978 24.1806C19.8341 24.2586 19.8631 24.3402 19.8885 24.4218C20.01 24.2713 20.1297 24.1189 20.2566 23.972C20.2693 24.1752 20.2838 24.3783 20.2965 24.5796C20.5504 24.3819 20.8478 24.2404 21.1616 24.1697C21.1108 24.4055 21.0582 24.6412 21.0092 24.877C21.1924 24.7663 21.3774 24.6557 21.5623 24.5469C21.5406 24.692 21.5206 24.8389 21.5025 24.984C21.6494 24.8879 21.7963 24.7899 21.9432 24.6938L21.9414 24.6956Z" fill="#79403D"/>
<path d="M28.0255 13.064C27.9729 13.1836 27.9131 13.2997 27.8496 13.414C27.3527 14.3225 26.5711 15.0733 25.6389 15.5321C24.6742 16.0054 23.5843 16.1596 22.5669 16.5132C21.5477 16.8668 20.5304 17.5106 20.1894 18.5316L20.6192 16.7997C20.2275 16.6456 20.1332 16.1433 20.2475 15.7261C20.2656 15.659 20.291 15.592 20.3182 15.5303C20.5285 15.0896 20.9076 14.7469 21.1089 14.3008C21.3899 13.6805 21.2793 12.9479 21.0436 12.3077C20.9112 11.9541 20.7443 11.615 20.5829 11.2722C20.4506 10.9966 20.3254 10.7173 20.2257 10.429C19.5348 8.42144 20.2765 6.10743 21.7218 4.55146C23.1672 2.99368 25.2073 2.10689 27.2765 1.62631C26.3825 2.07062 25.9454 3.15327 25.9962 4.14887C26.047 5.14629 26.4985 6.0766 26.9882 6.94707C27.0263 7.01417 27.0643 7.08308 27.1024 7.15018C27.5594 7.95174 28.0418 8.74968 28.2848 9.63828C28.5985 10.7645 28.5042 11.9958 28.0255 13.0603V13.064Z" fill="#D6633C"/>
<g style="mix-blend-mode:multiply" opacity="0.55">
<path d="M28.0254 13.0641C27.9728 13.1838 27.913 13.2998 27.8495 13.4141C27.3526 14.3226 26.571 15.0734 25.6389 15.5322C24.6741 16.0055 23.5842 16.1597 22.5668 16.5133C21.5476 16.8669 20.5303 17.5107 20.1893 18.5317L20.6191 16.7999C20.2274 16.6457 20.1331 16.1434 20.2474 15.7263C21.9412 15.5558 23.6186 15.0426 24.9715 14.0216C26.4749 12.8882 27.5212 11.0656 27.4251 9.18866C27.387 8.50316 27.2075 7.83399 27.1023 7.15393C27.5593 7.95549 28.0417 8.75342 28.2847 9.64203C28.5985 10.7682 28.5042 11.9996 28.0254 13.0641Z" fill="#D6633C"/>
</g>
<path d="M28.0253 13.064C27.9727 13.1836 27.9128 13.2997 27.8494 13.414C27.3144 13.7005 26.7141 13.8655 26.1084 13.8836C26.618 13.1111 26.6833 12.1101 26.4874 11.2051C26.2898 10.3002 25.8581 9.46419 25.432 8.64268C25.947 9.67818 25.7874 11.0129 25.0403 11.8943C24.8009 10.5904 24.1752 9.36082 23.2631 8.39605C23.1198 9.53492 23.2177 10.7028 23.5496 11.8C22.2475 11.1018 21.2936 9.79062 21.0252 8.33802C20.7586 9.29372 20.6099 10.2803 20.5845 11.2722C20.4522 10.9966 20.327 10.7173 20.2273 10.429C19.5363 8.42144 20.2781 6.10743 21.7234 4.55146C23.1688 2.99368 25.2089 2.10689 27.2781 1.62631C26.3841 2.07062 25.947 3.15327 25.9978 4.14887C26.0486 5.14628 26.5001 6.0766 26.9898 6.94707C27.4794 7.81754 28.0216 8.67532 28.2864 9.63828C28.6001 10.7645 28.5058 11.9958 28.0271 13.0603L28.0253 13.064Z" fill="#F7E5D2"/>
<path d="M24.6487 28.085C24.4564 28.3135 24.1681 28.4459 23.8743 28.5021C23.5805 28.5583 23.2795 28.5492 22.9802 28.5402C22.8497 28.5347 22.6992 28.5184 22.6321 28.4078C22.574 28.3117 22.6049 28.1847 22.6502 28.0832C22.7644 27.813 22.9422 27.5718 23.1652 27.3832C23.3049 27.2653 23.4699 27.1601 23.5388 26.9933C23.5914 26.8663 23.5841 26.7267 23.5751 26.5907C23.5751 26.5598 23.5714 26.529 23.5696 26.4982C23.5515 26.2262 23.5334 25.9578 23.517 25.6857C23.508 25.5425 23.4971 25.392 23.4264 25.2686C23.3466 25.129 23.2033 25.0401 23.0691 24.9513C22.8007 24.7772 22.5432 24.5868 22.2947 24.3819C20.9238 23.2466 19.9136 21.6761 19.4675 19.9533L21.4769 17.5015C21.6165 18.6676 21.981 19.6686 22.4507 20.4847C22.9005 21.2663 23.4499 21.8792 23.994 22.3018C24.422 22.6337 24.694 23.1287 24.7284 23.6692C24.7828 24.5088 24.8409 25.2795 24.8935 26.1482C24.9044 26.315 24.9152 26.4873 24.9261 26.6632C24.9551 27.1583 24.966 27.7042 24.6487 28.0832V28.085Z" fill="#D6633C"/>
<path d="M24.6488 28.0851C24.4566 28.3136 24.1682 28.446 23.8745 28.5022C23.5807 28.5584 23.2796 28.5493 22.9804 28.5403C22.8498 28.5348 22.6993 28.5185 22.6322 28.4079C22.5742 28.3118 22.605 28.1848 22.6504 28.0833C22.7646 27.8131 22.9423 27.5719 23.1654 27.3833C23.305 27.2654 23.4701 27.1602 23.539 26.9934C23.5916 26.8664 23.5843 26.7268 23.5752 26.5908C23.5752 26.5599 23.5716 26.5291 23.5698 26.4983C23.6224 26.5763 23.6822 26.6524 23.7457 26.725C23.7983 26.5617 23.8527 26.4022 23.9053 26.2371C23.869 26.4167 24.0921 26.5998 24.2771 26.54C24.4747 26.4783 24.569 26.2299 24.5182 26.0304C24.5799 26.1809 24.667 26.3242 24.7739 26.4475C24.8157 26.3478 24.8537 26.248 24.8936 26.1483C24.9045 26.3151 24.9154 26.4874 24.9263 26.6633C24.9553 27.1584 24.9662 27.7042 24.6488 28.0833V28.0851Z" fill="#79403D"/>
<path d="M13.8965 23.718C13.9255 23.7108 13.9545 23.6999 13.9799 23.6817C13.9527 23.6944 13.9237 23.7053 13.8965 23.718Z" fill="#F7E5D2"/>
<path d="M20.0042 19.1138C19.7812 18.9615 19.5073 18.9089 19.2407 18.869C17.148 18.5498 15.0135 18.6967 12.9008 18.8436L6.4303 20.0042C6.80025 21.5602 7.89559 22.9294 9.3355 23.6294C10.7464 24.3167 12.4601 24.3475 13.8964 23.7164C13.7151 23.7618 13.492 23.6312 13.4739 23.4372C13.9635 23.497 14.4731 23.3882 14.8956 23.1361C14.727 23.118 14.5873 22.9584 14.591 22.7898C14.9464 22.7789 15.3 22.6809 15.612 22.5068C15.3762 22.4579 15.1604 22.3164 15.0244 22.1188C15.6718 21.9519 16.321 21.7851 16.9685 21.6182C16.8179 21.5421 16.6674 21.4677 16.5169 21.3916C17.6703 21.2592 18.7964 20.8928 19.8066 20.3198C20.0224 20.1983 20.249 20.0441 20.3143 19.8048C20.3851 19.5436 20.2273 19.2643 20.006 19.112L20.0042 19.1138Z" fill="#D6633C"/>
<path d="M12.4584 23.9667C12.3804 25.2651 12.2516 26.5962 11.8527 27.8221C11.6677 28.3934 11.4229 28.941 11.0983 29.4506C11.0112 29.5884 10.9133 29.7281 10.7827 29.8296C10.5125 30.0364 10.1462 30.0527 9.80524 30.0581C9.47338 30.0636 9.08348 30.0418 8.89306 29.7698C8.72441 29.5286 8.79332 29.1877 8.95291 28.941C9.11431 28.6944 9.35187 28.5094 9.54047 28.2827C9.77804 28.0016 9.93944 27.6643 10.0356 27.3071C10.099 27.0804 10.1371 26.8447 10.1534 26.6107C10.1951 26.0104 10.1081 25.4066 10.0229 24.8081C9.82519 23.428 9.62933 22.048 9.43167 20.6679L12.2806 19.5073C12.5817 20.969 12.5454 22.4778 12.4584 23.9685V23.9667Z" fill="#D6633C"/>
<path d="M11.8507 27.8222C11.6657 28.3935 11.4209 28.9411 11.0963 29.4507C11.0093 29.5885 10.9113 29.7282 10.7808 29.8297C10.5105 30.0365 10.1442 30.0528 9.80329 30.0582C9.47142 30.0637 9.08152 30.0419 8.89111 29.7699C8.72245 29.5287 8.79137 29.1878 8.95095 28.9411C9.11235 28.6945 9.34992 28.5095 9.53852 28.2828C9.77609 28.0017 9.93749 27.6644 10.0336 27.3072C10.0735 27.4813 10.1098 27.6536 10.1497 27.8277C10.2929 27.688 10.438 27.5448 10.5813 27.4051C10.6248 27.5466 10.6683 27.6898 10.7137 27.8313C10.846 27.6644 10.9748 27.4976 11.1072 27.3308C11.1416 27.5067 11.1761 27.6826 11.2106 27.8585C11.3266 27.6971 11.4391 27.5357 11.5551 27.3725C11.5986 27.5647 11.6422 27.7587 11.6875 27.951C11.751 27.922 11.809 27.8784 11.8525 27.8222H11.8507Z" fill="#79403D"/>
<path d="M8.98728 20.1547C8.89842 20.9799 8.79324 21.8485 8.30723 22.5232C8.07873 22.8405 7.77588 23.0998 7.4694 23.3447C6.88183 23.8162 6.2725 24.2568 5.64322 24.6667C5.62327 24.6812 5.60332 24.6939 5.58519 24.7066C5.39477 24.8299 5.19529 24.955 5.07379 25.1455C4.95591 25.3268 4.92327 25.5444 4.87068 25.753C4.70202 26.4403 4.32845 27.0768 3.8116 27.5628C3.63569 27.7279 3.43621 27.8802 3.2059 27.9509C2.97559 28.0216 2.70538 28.0017 2.51678 27.8512C2.25382 27.6426 2.21392 27.26 2.24294 26.9263C2.28828 26.3732 2.45512 25.84 2.62196 25.3123C2.77066 24.8317 2.92662 24.3457 3.21315 23.9322C3.21678 23.9268 3.22041 23.9213 3.22403 23.9159C3.52145 23.497 3.93673 23.1778 4.31575 22.8314C5.63053 21.62 6.50281 20.0187 7.35334 18.4464L8.99091 20.1547H8.98728Z" fill="#D6633C"/>
<g style="mix-blend-mode:multiply" opacity="0.55">
<path d="M7.34956 18.4463C6.90707 19.2642 6.45914 20.0893 5.94592 20.8637C5.97313 21.2354 6.02934 21.6035 6.13997 21.9608C6.34126 22.6137 6.73842 23.1341 7.28065 23.4932C7.34412 23.4424 7.4094 23.3935 7.47288 23.3427C7.77936 23.0979 8.08039 22.8403 8.31071 22.5212C8.79672 21.8466 8.9019 20.9779 8.99076 20.1528L7.35319 18.4445L7.34956 18.4463Z" fill="#D6633C"/>
</g>
<path d="M5.64493 24.6649C5.62498 24.6794 5.60503 24.6921 5.5869 24.7048C5.39648 24.8281 5.197 24.9532 5.0755 25.1436C4.95762 25.325 4.92498 25.5426 4.87239 25.7511C4.70373 26.4384 4.33015 27.075 3.81331 27.561C3.6374 27.726 3.43792 27.8783 3.20761 27.9491C2.9773 28.0198 2.70709 27.9999 2.51848 27.8493C2.25553 27.6408 2.21563 27.2581 2.24465 26.9245C2.28999 26.3713 2.45683 25.8382 2.62367 25.3105C2.77237 24.8299 2.92833 24.3439 3.21486 23.9304C3.21849 23.9249 3.22212 23.9195 3.22574 23.9141C3.22937 24.012 3.23118 24.1081 3.23481 24.206C3.45787 24.012 3.68093 23.8161 3.90399 23.6221C3.89311 23.9104 3.88041 24.1988 3.86953 24.4871C4.13067 24.2895 4.39363 24.09 4.65477 23.8941C4.6185 24.1661 4.58223 24.4382 4.54596 24.7102C4.7527 24.5361 4.95762 24.362 5.16436 24.1879C5.21876 24.4092 5.18068 24.6503 5.05555 24.8408C5.21332 24.6884 5.37109 24.5325 5.52887 24.3783C5.5742 24.4726 5.6141 24.5687 5.64856 24.6667L5.64493 24.6649Z" fill="#79403D"/>
<path d="M21.2719 19.5726C20.8729 20.1747 20.1095 20.4232 19.3895 20.4884C18.6714 20.5537 17.9369 20.483 17.2333 20.639C16.2957 20.8493 15.4996 21.4423 14.6364 21.8667C14.2755 22.0426 13.8783 22.1859 13.4812 22.2602C12.9226 22.3618 12.3604 22.3219 11.8835 22.0335C11.9524 22.1659 12.0213 22.2983 12.092 22.4325C11.1889 22.4851 10.2695 22.1568 9.60394 21.5439C9.58218 21.7017 9.56042 21.8612 9.54047 22.019C8.87674 21.6998 8.33632 21.1358 8.04798 20.4576C8.0643 20.697 8.0788 20.9382 8.09331 21.1776C7.46222 20.5936 7.04331 19.7866 6.92724 18.9361C6.86014 19.141 6.79123 19.3441 6.72413 19.5454C6.1819 18.8599 6.21273 17.7845 6.79304 17.1299C6.62258 17.2894 6.39226 17.3838 6.15833 17.3892C6.93994 16.7273 7.24098 15.5539 6.86921 14.6019L10.3293 12.3278C10.3529 12.9879 10.5669 13.628 10.9205 14.1811V14.1848C11.5099 15.1078 12.4783 15.797 13.5646 15.962C14.6472 16.1234 15.7353 15.8169 16.8089 15.6047C17.8807 15.3925 19.0558 15.2892 20.017 15.8169C20.8258 16.2594 21.368 17.119 21.5203 18.0294C21.6092 18.5571 21.5657 19.1319 21.2719 19.5781V19.5726Z" fill="#D6633C"/>
<g style="mix-blend-mode:multiply" opacity="0.55">
<path d="M13.4812 22.2602C12.9226 22.3618 12.3604 22.3219 11.8835 22.0335C11.9524 22.1659 12.0213 22.2983 12.092 22.4325C11.1889 22.4851 10.2695 22.1568 9.60394 21.5439C9.58218 21.7017 9.56042 21.8612 9.54047 22.019C8.87674 21.6998 8.33632 21.1358 8.04798 20.4576C8.0643 20.697 8.0788 20.9382 8.09331 21.1776C7.46222 20.5936 7.04331 19.7866 6.92724 18.9361C6.86014 19.141 6.79123 19.3441 6.72413 19.5454C6.1819 18.8599 6.21273 17.7845 6.79304 17.1299C6.62258 17.2894 6.39226 17.3838 6.15833 17.3892C6.93994 16.7273 7.24098 15.5539 6.86921 14.6019L10.3293 12.3278C10.3529 12.9879 10.5669 13.628 10.9205 14.1811V14.1848C11.3467 15.3236 12.0358 16.3628 12.9281 17.1879C12.6887 17.0483 12.4493 16.9068 12.2117 16.7672C13.1003 17.6268 13.8965 18.6913 14.0016 19.9208C14.0724 20.7278 13.8402 21.5366 13.4794 22.262L13.4812 22.2602Z" fill="#D6633C"/>
</g>
<path d="M11.8036 22.1531C11.8036 22.2257 11.8018 22.3 11.8 22.3726C12.4456 21.4096 12.6142 20.142 12.2407 19.043C12.4673 19.2026 12.6505 19.422 12.7666 19.6741C13.0005 19.1591 12.8373 18.5389 12.529 18.0655C12.2189 17.5922 11.7782 17.2223 11.392 16.8106C11.0039 16.399 10.6539 15.9093 10.5976 15.3453C10.7736 15.4378 10.9476 15.5303 11.1236 15.6228C10.409 14.8992 9.92122 13.9544 9.74349 12.9533L6.97612 13.443C6.66964 14.8303 5.84994 16.0979 4.71289 16.9484C5.13906 16.8922 5.55253 16.7435 5.91523 16.515C5.14994 17.3583 4.79087 18.5552 4.96678 19.6796C4.99035 19.3005 5.23155 18.9415 5.5743 18.7783C5.54347 19.4946 5.44372 20.2091 5.27688 20.9073C5.49632 20.7604 5.71393 20.6153 5.93337 20.4684C5.9515 21.0995 6.14192 21.7252 6.47922 22.2601C6.56083 22.0316 6.64062 21.8031 6.72223 21.5728C6.91265 22.3399 7.43674 23.02 8.13312 23.3972C7.96991 23.1959 7.9155 22.9112 7.99348 22.6645C8.47224 23.3083 9.16318 23.7907 9.9321 24.0174C9.77795 23.9013 9.69634 23.6964 9.72717 23.5042C10.2114 23.7073 10.6938 23.9086 11.178 24.1117C11.1997 23.419 11.4192 22.7335 11.8054 22.1568L11.8036 22.1531Z" fill="#F7E5D2"/>
<g style="mix-blend-mode:multiply" opacity="0.44">
<path d="M11.0221 21.0868C11.0221 21.1412 11.0203 21.1938 11.0185 21.2482C11.4918 20.5428 11.6151 19.6125 11.3413 18.8073C11.5081 18.9233 11.6423 19.0847 11.7276 19.2697C11.8998 18.8925 11.7802 18.4373 11.5535 18.0909C11.3268 17.7446 11.004 17.4725 10.7193 17.1697C10.4345 16.8668 10.1788 16.5078 10.1371 16.0961C10.2659 16.1632 10.3947 16.2321 10.5216 16.2992C9.9975 15.7679 9.64024 15.0769 9.50967 14.3425L7.48038 14.7015C7.25551 15.7189 6.65525 16.6474 5.82104 17.2712C6.13296 17.2295 6.43582 17.1207 6.7024 16.9521C6.14203 17.5705 5.87908 18.4482 6.00602 19.2733C6.02234 18.9959 6.20006 18.7329 6.45214 18.6114C6.43038 19.1373 6.35784 19.6614 6.23452 20.1728C6.39411 20.0658 6.55551 19.9588 6.71509 19.85C6.72779 20.3125 6.86742 20.7713 7.11587 21.1648C7.17572 20.9961 7.23556 20.8293 7.29359 20.6606C7.43323 21.2246 7.81769 21.7215 8.32728 21.999C8.20759 21.8521 8.16769 21.6417 8.22572 21.4604C8.57573 21.9319 9.0835 22.2855 9.6475 22.4524C9.53325 22.3671 9.4734 22.2166 9.49698 22.077C9.85242 22.2257 10.206 22.3744 10.5615 22.5231C10.5778 22.0153 10.7374 21.5112 11.0203 21.0886L11.0221 21.0868Z" fill="#F7E5D2"/>
</g>
<path d="M11.0875 3.72096C11.7839 2.89039 12.6797 2.25929 13.5665 1.63546C14.379 1.06421 15.1932 0.491147 16.0637 0.0142005C16.1381 -0.0275096 16.2324 0.0287062 16.2324 0.11394C16.2432 0.911873 16.2523 1.70981 16.2632 2.50774C16.2777 3.6593 16.2795 4.87071 15.7246 5.88082C15.1842 6.86735 14.1759 7.52565 13.1132 7.8956C12.5419 6.80026 11.5463 5.80284 10.3295 4.85439C10.5398 4.44998 10.7937 4.06915 11.0857 3.72096H11.0875Z" fill="#D6633C"/>
<path d="M11.8076 4.5062C12.2972 3.92225 12.9283 3.47795 13.5503 3.03909C14.1053 2.64919 14.6638 2.25748 15.2568 1.92742C15.3312 1.88571 15.4255 1.94011 15.4255 2.02716C15.4327 2.56939 15.44 3.11163 15.4472 3.65386C15.4581 4.46448 15.4581 5.31501 15.0682 6.0259C14.6874 6.72046 13.9783 7.1829 13.2312 7.44223C12.7198 6.53367 12.0705 5.81553 11.2744 5.30413C11.4213 5.01941 11.6008 4.75283 11.8058 4.50801L11.8076 4.5062Z" fill="#E8A465"/>
<path d="M7.26108 3.67913C6.8059 2.96824 6.17662 2.39156 5.55459 1.82212C4.99423 1.30891 4.43205 0.793873 3.81909 0.344129C3.75199 0.295165 3.65406 0.336878 3.64137 0.420298C3.55613 1.02237 3.46909 1.62445 3.38385 2.22653C3.25691 3.11513 3.1354 4.04908 3.46183 4.88509C3.781 5.70116 4.4937 6.31049 5.27713 6.70039L7.72896 4.63121C7.60746 4.29934 7.44968 3.97836 7.25745 3.68094L7.26108 3.67913Z" fill="#D6633C"/>
<g style="mix-blend-mode:multiply" opacity="0.55">
<path d="M7.261 3.67907C7.09778 3.42337 6.90918 3.18399 6.7097 2.95731C6.02057 3.11871 5.28974 3.15861 4.6786 3.53218C4.09828 3.88763 3.76823 4.49877 3.58325 5.13893C3.94051 5.82624 4.58067 6.35033 5.28067 6.69852L7.7325 4.62934C7.611 4.29747 7.45323 3.97649 7.261 3.67907Z" fill="#D6633C"/>
</g>
<path d="M0.917477 9.99006C1.04805 11.1289 1.44701 12.0375 1.95842 12.752C3.37656 14.7305 5.66699 15.2673 5.66699 15.2673C7.46778 15.4722 8.98567 15.4378 10.2642 15.231C11.394 15.0515 12.3352 14.7378 13.1222 14.3442C15.8406 12.9859 16.7129 10.6756 16.9831 9.52581C17.0865 9.10145 17.1046 8.83668 17.1046 8.83668C16.479 9.83229 15.7663 9.54938 15.7663 9.54938C16.1652 9.03798 16.051 8.04238 16.051 8.04238C16.0437 8.05326 16.0383 8.06233 16.0329 8.07321C15.6865 8.63902 14.8541 8.61 14.5313 8.0315C12.6634 4.70375 8.98567 4.42811 8.98567 4.42811C5.04134 3.9022 3.4763 5.98407 2.80531 7.31154C2.62034 7.67968 2.24495 7.8973 1.84598 7.8973C1.76619 7.8973 1.68458 7.88642 1.60116 7.86828L2.05453 9.00715C1.42888 8.72244 1.03173 7.50015 1.03173 7.50015C0.984576 7.74497 0.95012 7.98435 0.922917 8.21285C0.850378 8.86026 0.855819 9.44964 0.917477 9.98825V9.99006Z" fill="#F7E5D2"/>
<path d="M0.922852 8.21648C1.46327 9.52763 2.31198 9.39524 2.31198 9.39524C2.76172 8.0315 3.24048 7.32969 3.64489 6.97787C4.06743 6.60429 4.73117 6.78927 4.92158 7.32062C5.51097 8.96182 5.12288 10.6647 4.25603 12.3984L6.50657 12.2932C6.97807 9.54939 8.16047 8.20016 8.90399 7.60352C9.56229 7.07398 10.5162 7.08124 11.1364 7.65793C12.268 8.71337 12.6815 11.0256 12.6815 11.0256C13.3216 11.031 14.6165 10.0499 14.6165 10.0499C14.7035 10.5613 14.2338 11.1888 14.2338 11.1888C15.5849 11.3194 16.4898 10.3201 16.9867 9.52944C17.0901 9.10509 17.1082 8.84032 17.1082 8.84032C16.4825 9.83592 15.7698 9.55301 15.7698 9.55301C16.1688 9.04161 16.0546 8.04601 16.0546 8.04601C16.0473 8.05689 16.0419 8.06596 16.0364 8.07684C15.6901 8.64265 14.8577 8.61363 14.5349 8.03513C12.667 4.70739 8.98923 4.43174 8.98923 4.43174C4.81821 3.90583 3.47986 5.98771 2.80887 7.31518C2.6239 7.68331 2.24851 7.90093 1.84954 7.90093C1.76975 7.90093 1.68814 7.89005 1.60472 7.87192L2.05809 9.01078C1.43244 8.72607 1.03529 7.50378 1.03529 7.50378C0.988137 7.7486 0.953681 7.98798 0.926479 8.21648H0.922852Z" fill="#D6633C"/>
<path d="M9.15051 13.4628C9.15051 14.2317 9.60388 14.8973 10.264 15.2328C11.3938 15.0532 12.335 14.7395 13.122 14.346C13.2581 14.0776 13.336 13.7802 13.336 13.4646C13.336 12.362 12.3966 11.4662 11.2415 11.4662C10.0863 11.4662 9.15051 12.362 9.15051 13.4646V13.4628Z" fill="#E8A465"/>
<path d="M0.917358 9.99002C1.04793 11.1289 1.4469 12.0375 1.9583 12.752C2.45701 12.5162 2.80157 12.0066 2.80157 11.4172C2.80157 10.5975 2.13783 9.93381 1.31814 9.93381C1.1785 9.93381 1.04249 9.95194 0.917358 9.99002Z" fill="#E8A465"/>
<path d="M1.50314 12.9715C1.65185 13.4756 1.94744 14.0469 2.5332 14.5129C3.37103 15.1876 4.80368 15.6482 7.23738 15.3925C7.23738 15.3925 7.46769 14.3497 7.18297 13.3324C6.79851 11.9596 5.18089 11.3883 3.95678 12.1173C3.69746 12.2733 3.38191 12.3984 3.02828 12.4202C2.77983 12.4365 2.51325 12.4002 2.23397 12.2896C1.81143 12.1228 1.37438 12.5344 1.50314 12.9697V12.9715Z" fill="#F7E5D2"/>
<path d="M4.2216 14.6635C4.60969 14.805 5.06125 14.6925 5.33146 14.3788C5.60892 14.056 5.6198 13.5573 5.39493 13.2055C5.30607 13.0658 5.52731 12.9371 5.61617 13.0749C5.9027 13.5228 5.86281 14.1322 5.52731 14.542C5.20633 14.9337 4.62601 15.0824 4.15269 14.9101C3.99855 14.8539 4.06565 14.6055 4.2216 14.6617V14.6635Z" fill="#79403D"/>
<path d="M1.50516 12.975C1.58133 13.2325 1.69558 13.5082 1.86786 13.7784C2.1961 14.2916 2.92875 14.3678 3.35673 13.9362C3.35854 13.9343 3.36217 13.9307 3.36398 13.9289C3.71943 13.5771 3.6886 12.995 3.31321 12.6667C3.15181 12.5271 2.95232 12.4382 2.74015 12.4165C2.58781 12.4001 2.43185 12.3639 2.27045 12.304C1.82978 12.1372 1.37278 12.5234 1.50698 12.975H1.50516Z" fill="#79403D"/>
<path d="M7.97006 11.227C7.95555 11.5625 8.21669 11.9052 8.53224 11.8599C8.89131 11.8091 9.09442 11.2633 8.88043 10.9368C8.69908 10.663 8.31099 10.634 8.097 10.8897C8.01358 10.9894 7.9755 11.1073 7.97006 11.2252V11.227Z" fill="#79403D"/>
<path d="M3.25509 10.3837C3.24059 10.7192 3.50173 11.0619 3.81727 11.0166C4.17634 10.9658 4.37945 10.4199 4.16546 10.0935C3.98411 9.81967 3.59603 9.79066 3.38204 10.0464C3.29862 10.1461 3.26053 10.264 3.25509 10.3819V10.3837Z" fill="#79403D"/>
<g style="mix-blend-mode:screen" opacity="0.42">
<path d="M2.65479 12.7394C2.65479 12.8917 2.45712 13.015 2.21411 13.015C1.97111 13.015 1.77344 12.8917 1.77344 12.7394C1.77344 12.587 1.97111 12.4637 2.21411 12.4637C2.45712 12.4637 2.65479 12.587 2.65479 12.7394Z" fill="#79403D"/>
</g>
<path d="M11.5626 12.0758C11.5626 12.2281 11.365 12.3514 11.122 12.3514C10.8789 12.3514 10.6813 12.2281 10.6813 12.0758C10.6813 11.9234 10.8789 11.8001 11.122 11.8001C11.365 11.8001 11.5626 11.9234 11.5626 12.0758Z" fill="white"/>
<path d="M2.03272 10.4852C2.03272 10.6376 1.83505 10.7609 1.59204 10.7609C1.34904 10.7609 1.15137 10.6376 1.15137 10.4852C1.15137 10.3329 1.34904 10.2096 1.59204 10.2096C1.83505 10.2096 2.03272 10.3329 2.03272 10.4852Z" fill="white"/>
</svg>
