<svg width="30" height="40" viewBox="0 0 30 40" fill="none" xmlns="http://www.w3.org/2000/svg">
<path d="M29.8663 23.695C29.8561 33.4296 23.1947 39.8732 14.9848 39.8647C6.77479 39.8563 0.125233 33.3992 0.135388 23.6646C0.14385 13.9317 5.45638 0.125036 15.0237 0.133488C24.591 0.14363 29.8764 13.9604 29.8663 23.695Z" fill="white"/>
<path d="M14.9831 40C6.29246 39.9915 -0.0101423 33.122 1.22529e-05 23.6663C0.0101668 13.9875 5.36501 -0.0101365 15.0237 5.50816e-06C24.6824 0.0101475 30.0102 14.0162 30 23.6951C29.9898 33.1508 23.6754 40.0084 14.9831 40ZM15.0237 0.267078C5.53764 0.258626 0.277571 14.0974 0.267416 23.6663C0.257261 32.9665 6.44647 39.7245 14.9831 39.7329C23.5197 39.7414 29.7224 32.997 29.7309 23.6968C29.7411 14.1278 24.5081 0.27891 15.022 0.268768L15.0237 0.267078Z" fill="#D6D6D6"/>
<g style="mix-blend-mode:multiply">
<path d="M15.0235 0.133488C5.45624 0.125036 0.143711 13.9317 0.133557 23.6663C0.123402 33.4009 6.77295 39.858 14.9829 39.8664C23.1929 39.8749 29.856 33.4296 29.8645 23.6967C29.8746 13.9621 24.5892 0.14532 15.0219 0.135178L15.0235 0.133488ZM14.988 36.1494C7.65809 36.1426 1.72105 30.3769 1.72952 21.6852C1.73798 12.9935 6.48186 0.665942 15.0235 0.674394C23.5652 0.682845 28.2837 13.0206 28.2753 21.7106C28.2668 30.4022 22.3179 36.1561 14.988 36.1477V36.1494Z" fill="#E8E8E8"/>
</g>
</svg>
