<svg width="40" height="40" viewBox="0 0 40 40" fill="none" xmlns="http://www.w3.org/2000/svg">
<circle cx="20" cy="20" r="20" fill="#CDCDCD"/>
<circle cx="20" cy="20" r="18" fill="white"/>
<path d="M20.3536 8.64645C20.1583 8.45118 19.8417 8.45118 19.6464 8.64645L16.4645 11.8284C16.2692 12.0237 16.2692 12.3403 16.4645 12.5355C16.6597 12.7308 16.9763 12.7308 17.1716 12.5355L20 9.70711L22.8284 12.5355C23.0237 12.7308 23.3403 12.7308 23.5355 12.5355C23.7308 12.3403 23.7308 12.0237 23.5355 11.8284L20.3536 8.64645ZM19.6464 31.3536C19.8417 31.5488 20.1583 31.5488 20.3536 31.3536L23.5355 28.1716C23.7308 27.9763 23.7308 27.6597 23.5355 27.4645C23.3403 27.2692 23.0237 27.2692 22.8284 27.4645L20 30.2929L17.1716 27.4645C16.9763 27.2692 16.6597 27.2692 16.4645 27.4645C16.2692 27.6597 16.2692 27.9763 16.4645 28.1716L19.6464 31.3536ZM19.5 9L19.5 31L20.5 31L20.5 9L19.5 9Z" fill="black"/>
<path d="M8.64645 19.6464C8.45118 19.8417 8.45118 20.1583 8.64645 20.3536L11.8284 23.5355C12.0237 23.7308 12.3403 23.7308 12.5355 23.5355C12.7308 23.3403 12.7308 23.0237 12.5355 22.8284L9.70711 20L12.5355 17.1716C12.7308 16.9763 12.7308 16.6597 12.5355 16.4645C12.3403 16.2692 12.0237 16.2692 11.8284 16.4645L8.64645 19.6464ZM31.3536 20.3536C31.5488 20.1583 31.5488 19.8417 31.3536 19.6464L28.1716 16.4645C27.9763 16.2692 27.6597 16.2692 27.4645 16.4645C27.2692 16.6597 27.2692 16.9763 27.4645 17.1716L30.2929 20L27.4645 22.8284C27.2692 23.0237 27.2692 23.3403 27.4645 23.5355C27.6597 23.7308 27.9763 23.7308 28.1716 23.5355L31.3536 20.3536ZM9 20.5L31 20.5V19.5L9 19.5V20.5Z" fill="black"/>
</svg>
