<svg width="29" height="31" viewBox="0 0 29 31" fill="none" xmlns="http://www.w3.org/2000/svg">
<path d="M23.5477 22.4795C23.3573 22.2438 23.0943 22.0824 22.8332 21.9264C22.6464 21.814 22.4433 21.6871 22.378 21.4785C22.3127 21.2772 22.3961 21.0614 22.465 20.8601C22.815 19.8591 22.8513 18.7202 22.4088 17.7554C22.0534 16.9811 21.3951 16.35 20.6044 16.029C19.8155 15.708 18.9015 15.6989 18.1072 16.0054L18.1852 19.2697C17.8515 20.1202 17.9621 21.1339 18.4735 21.892C18.9849 22.65 19.8808 23.1342 20.7948 23.1451C20.0422 23.8252 19.5018 24.741 19.2715 25.7293C19.2134 25.9778 19.1754 26.2353 19.2153 26.4873C19.257 26.7394 19.3875 26.9861 19.6052 27.1166C20.0041 27.356 20.5427 27.1293 20.8401 26.7702C21.1375 26.4112 21.2717 25.9487 21.4857 25.5353C21.7995 24.9241 22.2909 24.4055 22.8839 24.0591C23.2158 23.865 23.613 23.6891 23.7417 23.3264C23.8433 23.0417 23.7363 22.7153 23.5459 22.4795H23.5477Z" fill="#D6633C"/>
<g style="mix-blend-mode:multiply" opacity="0.55">
<path d="M23.7433 23.3264C23.6145 23.6891 23.2192 23.865 22.8855 24.059C22.7241 24.1551 22.5681 24.2621 22.423 24.3818C22.2961 24.4834 22.18 24.594 22.0694 24.7119C21.8391 24.9567 21.6414 25.2342 21.4873 25.5352C21.2733 25.9487 21.1391 26.4093 20.8417 26.7702C20.5443 27.1293 20.0057 27.3578 19.6085 27.1166C19.3891 26.9842 19.2585 26.7394 19.2168 26.4873C19.1751 26.237 19.2168 25.9795 19.2712 25.7292C19.4 25.1798 19.623 24.6539 19.9259 24.1787C20.1671 23.7979 20.4609 23.4497 20.7945 23.145C19.8787 23.1342 18.9829 22.65 18.4715 21.8919C17.9619 21.1339 17.8494 20.1201 18.1831 19.2696L18.1051 16.0053C18.8994 15.6989 19.8116 15.7079 20.6023 16.0289C21.3912 16.3499 22.0513 16.9828 22.4067 17.7572C22.7948 18.6023 22.8148 19.5797 22.5772 20.4828C22.5427 20.6116 22.5046 20.7349 22.4611 20.86C22.3922 21.0613 22.3088 21.2753 22.3741 21.4784C22.4394 21.6852 22.6425 21.8121 22.8293 21.9246C23.0886 22.0805 23.3534 22.2437 23.5438 22.4777C23.7342 22.7116 23.8412 23.038 23.7396 23.3246L23.7433 23.3264Z" fill="#D6633C"/>
</g>
<path d="M22.0712 24.6956V24.7138C21.8409 24.9586 21.6433 25.236 21.4891 25.5371C21.2751 25.9506 21.1409 26.4112 20.8435 26.7721C20.5461 27.1311 20.0075 27.3596 19.6103 27.1184C19.3909 26.9861 19.2603 26.7412 19.2186 26.4892C19.1769 26.2389 19.2186 25.9814 19.273 25.7311C19.4018 25.1816 19.6249 24.6557 19.9277 24.1806C19.964 24.2586 19.993 24.3402 20.0184 24.4218C20.1399 24.2713 20.2596 24.1189 20.3865 23.972C20.3992 24.1752 20.4137 24.3783 20.4264 24.5796C20.6803 24.3819 20.9777 24.2404 21.2914 24.1697C21.2407 24.4055 21.1881 24.6412 21.1391 24.877C21.3223 24.7663 21.5072 24.6557 21.6922 24.5469C21.6705 24.692 21.6505 24.8389 21.6324 24.984C21.7793 24.8879 21.9262 24.7899 22.0731 24.6938L22.0712 24.6956Z" fill="#79403D"/>
<path d="M28.1554 13.0639C28.1028 13.1836 28.0429 13.2997 27.9795 13.4139C27.4826 14.3225 26.701 15.0733 25.7688 15.5321C24.8041 16.0054 23.7141 16.1595 22.6968 16.5132C21.6776 16.8668 20.6602 17.5106 20.3193 18.5316L20.7491 16.7997C20.3574 16.6456 20.2631 16.1432 20.3773 15.7261C20.3955 15.659 20.4209 15.5919 20.4481 15.5303C20.6584 15.0896 21.0374 14.7468 21.2387 14.3007C21.5198 13.6805 21.4092 12.9479 21.1735 12.3077C21.0411 11.9541 20.8742 11.615 20.7128 11.2722C20.5804 10.9966 20.4553 10.7173 20.3556 10.4289C19.6646 8.42141 20.4064 6.1074 21.8517 4.55143C23.297 2.99365 25.3372 2.10685 27.4064 1.62628C26.5124 2.07059 26.0753 3.15324 26.1261 4.14884C26.1769 5.14625 26.6284 6.07657 27.1181 6.94704C27.1561 7.01414 27.1942 7.08305 27.2323 7.15015C27.6893 7.95171 28.1717 8.74964 28.4147 9.63825C28.7284 10.7644 28.6341 11.9958 28.1554 13.0603V13.0639Z" fill="#D6633C"/>
<g style="mix-blend-mode:multiply" opacity="0.55">
<path d="M28.1553 13.0641C28.1027 13.1838 28.0428 13.2998 27.9794 13.4141C27.4825 14.3226 26.7009 15.0734 25.7687 15.5322C24.804 16.0055 23.7141 16.1597 22.6967 16.5133C21.6775 16.8669 20.6601 17.5107 20.3192 18.5317L20.749 16.7999C20.3573 16.6457 20.263 16.1434 20.3772 15.7263C22.071 15.5558 23.7485 15.0426 25.1014 14.0216C26.6047 12.8882 27.6511 11.0656 27.555 9.18866C27.5169 8.50316 27.3374 7.83399 27.2322 7.15393C27.6892 7.95549 28.1716 8.75342 28.4146 9.64203C28.7283 10.7682 28.634 11.9996 28.1553 13.0641Z" fill="#D6633C"/>
</g>
<path d="M28.1551 13.0639C28.1026 13.1836 28.0427 13.2997 27.9792 13.4139C27.4443 13.7005 26.844 13.8655 26.2383 13.8836C26.7479 13.1111 26.8132 12.11 26.6173 11.2051C26.4196 10.3002 25.988 9.46416 25.5619 8.64265C26.0769 9.67815 25.9173 11.0129 25.1701 11.8942C24.9308 10.5903 24.3051 9.36079 23.3929 8.39602C23.2497 9.53489 23.3476 10.7028 23.6795 11.7999C22.3774 11.1017 21.4235 9.79059 21.1551 8.33799C20.8885 9.29369 20.7398 10.2802 20.7144 11.2722C20.582 10.9966 20.4569 10.7173 20.3572 10.4289C19.6662 8.42141 20.4079 6.1074 21.8533 4.55143C23.2986 2.99365 25.3388 2.10685 27.408 1.62628C26.5139 2.07059 26.0769 3.15324 26.1277 4.14884C26.1784 5.14625 26.63 6.07657 27.1196 6.94704C27.6093 7.81751 28.1515 8.67529 28.4163 9.63825C28.73 10.7644 28.6357 11.9958 28.157 13.0603L28.1551 13.0639Z" fill="#F7E5D2"/>
<path d="M24.7785 28.085C24.5863 28.3135 24.298 28.4458 24.0042 28.5021C23.7104 28.5583 23.4094 28.5492 23.1101 28.5401C22.9796 28.5347 22.829 28.5184 22.7619 28.4078C22.7039 28.3116 22.7347 28.1847 22.7801 28.0831C22.8943 27.8129 23.072 27.5717 23.2951 27.3831C23.4347 27.2653 23.5998 27.1601 23.6687 26.9932C23.7213 26.8663 23.714 26.7267 23.705 26.5906C23.705 26.5598 23.7013 26.529 23.6995 26.4982C23.6814 26.2261 23.6632 25.9577 23.6469 25.6857C23.6379 25.5425 23.627 25.3919 23.5562 25.2686C23.4765 25.129 23.3332 25.0401 23.199 24.9513C22.9306 24.7772 22.6731 24.5867 22.4246 24.3818C21.0536 23.2466 20.0435 21.6761 19.5974 19.9533L21.6068 17.5015C21.7464 18.6675 22.1109 19.6686 22.5806 20.4846C23.0303 21.2663 23.5798 21.8792 24.1239 22.3018C24.5518 22.6336 24.8239 23.1287 24.8583 23.6691C24.9127 24.5088 24.9708 25.2795 25.0234 26.1482C25.0342 26.315 25.0451 26.4873 25.056 26.6632C25.085 27.1583 25.0959 27.7041 24.7785 28.0831V28.085Z" fill="#D6633C"/>
<path d="M24.7787 28.0851C24.5865 28.3136 24.2981 28.446 24.0043 28.5022C23.7106 28.5584 23.4095 28.5493 23.1103 28.5403C22.9797 28.5348 22.8292 28.5185 22.7621 28.4079C22.7041 28.3118 22.7349 28.1848 22.7802 28.0833C22.8945 27.8131 23.0722 27.5719 23.2953 27.3833C23.4349 27.2654 23.5999 27.1602 23.6688 26.9934C23.7214 26.8664 23.7142 26.7268 23.7051 26.5908C23.7051 26.5599 23.7015 26.5291 23.6997 26.4983C23.7523 26.5763 23.8121 26.6524 23.8756 26.725C23.9282 26.5617 23.9826 26.4022 24.0352 26.2371C23.9989 26.4167 24.222 26.5998 24.4069 26.54C24.6046 26.4783 24.6989 26.2299 24.6481 26.0304C24.7098 26.1809 24.7968 26.3242 24.9038 26.4475C24.9455 26.3478 24.9836 26.248 25.0235 26.1483C25.0344 26.3151 25.0453 26.4874 25.0562 26.6633C25.0852 27.1584 25.0961 27.7042 24.7787 28.0833V28.0851Z" fill="#79403D"/>
<path d="M14.0265 23.718C14.0555 23.7108 14.0845 23.6999 14.1099 23.6818C14.0827 23.6945 14.0537 23.7053 14.0265 23.718Z" fill="#F7E5D2"/>
<path d="M20.1342 19.1138C19.9112 18.9615 19.6373 18.9089 19.3708 18.869C17.278 18.5499 15.1435 18.6967 13.0308 18.8436L6.5603 20.0043C6.93025 21.5602 8.0256 22.9294 9.4655 23.6294C10.8764 24.3167 12.5901 24.3476 14.0264 23.7165C13.8451 23.7618 13.622 23.6312 13.6039 23.4372C14.0935 23.497 14.6031 23.3882 15.0256 23.1362C14.857 23.118 14.7174 22.9584 14.721 22.7898C15.0764 22.7789 15.4301 22.681 15.742 22.5069C15.5062 22.4579 15.2904 22.3165 15.1544 22.1188C15.8018 21.952 16.451 21.7851 17.0985 21.6183C16.9479 21.5421 16.7974 21.4677 16.6469 21.3916C17.8003 21.2592 18.9264 20.8929 19.9366 20.3198C20.1524 20.1983 20.379 20.0442 20.4443 19.8048C20.5151 19.5436 20.3573 19.2644 20.136 19.112L20.1342 19.1138Z" fill="#D6633C"/>
<path d="M12.5884 23.9667C12.5104 25.2651 12.3816 26.5962 11.9827 27.8221C11.7977 28.3934 11.5529 28.9411 11.2283 29.4507C11.1412 29.5885 11.0433 29.7281 10.9127 29.8297C10.6425 30.0364 10.2762 30.0527 9.93525 30.0582C9.60338 30.0636 9.21348 30.0419 9.02307 29.7698C8.85441 29.5286 8.92332 29.1877 9.08291 28.9411C9.24431 28.6944 9.48188 28.5095 9.67048 28.2828C9.90805 28.0017 10.0694 27.6644 10.1656 27.3071C10.229 27.0804 10.2671 26.8447 10.2834 26.6107C10.3251 26.0105 10.2381 25.4066 10.1529 24.8081C9.9552 23.4281 9.75934 22.048 9.56167 20.668L12.4107 19.5073C12.7117 20.969 12.6754 22.4778 12.5884 23.9685V23.9667Z" fill="#D6633C"/>
<path d="M11.9807 27.8222C11.7957 28.3935 11.5509 28.9411 11.2263 29.4507C11.1393 29.5885 11.0413 29.7282 10.9108 29.8297C10.6406 30.0365 10.2742 30.0528 9.93329 30.0582C9.60143 30.0637 9.21153 30.0419 9.02111 29.7699C8.85246 29.5287 8.92137 29.1878 9.08096 28.9411C9.24236 28.6945 9.47992 28.5095 9.66853 28.2828C9.90609 28.0017 10.0675 27.6644 10.1636 27.3072C10.2035 27.4813 10.2398 27.6536 10.2797 27.8277C10.4229 27.688 10.568 27.5448 10.7113 27.4051C10.7548 27.5466 10.7983 27.6898 10.8437 27.8313C10.976 27.6644 11.1048 27.4976 11.2372 27.3308C11.2716 27.5067 11.3061 27.6826 11.3406 27.8585C11.4566 27.6971 11.5691 27.5357 11.6851 27.3725C11.7286 27.5647 11.7722 27.7587 11.8175 27.951C11.881 27.922 11.939 27.8784 11.9825 27.8222H11.9807Z" fill="#79403D"/>
<path d="M9.9502 20.6274C10.1207 21.4396 10.2891 22.2983 10.0353 23.0901C9.91606 23.4625 9.70816 23.8027 9.49234 24.1303C9.07923 24.7603 8.6359 25.3677 8.16407 25.9519C8.14958 25.9719 8.13453 25.9901 8.12121 26.0078C7.97822 26.1839 7.82717 26.3646 7.77045 26.5832C7.71438 26.7921 7.75059 27.0092 7.76501 27.2238C7.81701 27.9296 7.65841 28.6504 7.31705 29.2723C7.20075 29.4836 7.0581 29.6901 6.86092 29.8286C6.66373 29.967 6.40059 30.0315 6.1747 29.9467C5.86017 29.8296 5.70398 29.478 5.62847 29.1517C5.50066 28.6116 5.49458 28.053 5.49018 27.4995C5.4831 26.9965 5.48124 26.4861 5.62598 26.0043C5.62774 25.998 5.62951 25.9918 5.63128 25.9855C5.78468 25.4951 6.08102 25.0633 6.33445 24.6167C7.21053 23.0583 7.54529 21.2658 7.86832 19.5077L9.95365 20.6263L9.9502 20.6274Z" fill="#D6633C"/>
<g style="mix-blend-mode:multiply" opacity="0.55">
<path d="M7.86467 19.5087C7.69658 20.4233 7.52555 21.3465 7.27675 22.2415C7.4175 22.5867 7.58473 22.9194 7.80033 23.225C8.19352 23.7837 8.73207 24.156 9.35872 24.3299C9.40339 24.262 9.45035 24.1953 9.49503 24.1274C9.71085 23.7998 9.91758 23.4619 10.038 23.0872C10.2917 22.2954 10.1234 21.4367 9.95288 20.6245L7.86756 19.5059L7.86467 19.5087Z" fill="#D6633C"/>
</g>
<path d="M8.16509 25.9496C8.1506 25.9696 8.13555 25.9878 8.12223 26.0055C7.97924 26.1816 7.82818 26.3623 7.77147 26.5809C7.7154 26.7898 7.7516 27.0069 7.76603 27.2215C7.81802 27.9273 7.65943 28.6481 7.31807 29.27C7.20177 29.4813 7.05912 29.6879 6.86194 29.8263C6.66475 29.9647 6.4016 30.0293 6.17572 29.9444C5.86119 29.8273 5.705 29.4757 5.62948 29.1494C5.50168 28.6093 5.4956 28.0507 5.4912 27.4973C5.48412 26.9943 5.48226 26.4838 5.62699 26.0021C5.62876 25.9958 5.63053 25.9895 5.6323 25.9832C5.66601 26.0752 5.69744 26.166 5.73115 26.2581C5.88333 26.0046 6.03494 25.7494 6.18712 25.4959C6.26588 25.7735 6.34291 26.0517 6.42166 26.3292C6.60894 26.0606 6.79738 25.7896 6.98522 25.5226C7.03478 25.7925 7.08435 26.0624 7.13391 26.3324C7.27673 26.1029 7.41783 25.874 7.56065 25.6445C7.68076 25.8382 7.71907 26.0793 7.65891 26.2991C7.76189 26.1054 7.86374 25.9084 7.96616 25.713C8.03842 25.7887 8.10607 25.8678 8.1691 25.9503L8.16509 25.9496Z" fill="#79403D"/>
<path d="M21.4019 19.5726C21.0029 20.1747 20.2395 20.4232 19.5195 20.4884C18.8014 20.5537 18.0669 20.483 17.3633 20.639C16.4257 20.8493 15.6296 21.4423 14.7664 21.8667C14.4055 22.0426 14.0083 22.1859 13.6112 22.2602C13.0526 22.3618 12.4904 22.3219 12.0135 22.0335C12.0824 22.1659 12.1513 22.2983 12.222 22.4325C11.3189 22.4851 10.3995 22.1568 9.73395 21.5439C9.71219 21.7017 9.69043 21.8612 9.67048 22.019C9.00674 21.6998 8.46632 21.1358 8.17798 20.4576C8.1943 20.697 8.20881 20.9382 8.22332 21.1776C7.59223 20.5936 7.17331 19.7866 7.05725 18.9361C6.99015 19.141 6.92124 19.3441 6.85414 19.5454C6.31191 18.8599 6.34273 17.7845 6.92305 17.1299C6.75258 17.2894 6.52227 17.3838 6.28833 17.3892C7.06994 16.7273 7.37098 15.5539 6.99922 14.6019L10.4593 12.3278C10.4829 12.9879 10.6969 13.628 11.0505 14.1811V14.1848C11.6399 15.1078 12.6083 15.797 13.6946 15.962C14.7772 16.1234 15.8653 15.8169 16.9389 15.6047C18.0107 15.3925 19.1858 15.2892 20.147 15.8169C20.9558 16.2594 21.498 17.119 21.6504 18.0294C21.7392 18.5571 21.6957 19.1319 21.4019 19.5781V19.5726Z" fill="#D6633C"/>
<g style="mix-blend-mode:multiply" opacity="0.55">
<path d="M13.6112 22.2602C13.0526 22.3618 12.4904 22.3219 12.0135 22.0335C12.0824 22.1659 12.1513 22.2983 12.222 22.4325C11.3189 22.4851 10.3995 22.1568 9.73395 21.5439C9.71219 21.7017 9.69043 21.8612 9.67048 22.019C9.00674 21.6998 8.46632 21.1358 8.17798 20.4576C8.1943 20.697 8.20881 20.9382 8.22332 21.1776C7.59223 20.5936 7.17331 19.7866 7.05725 18.9361C6.99015 19.141 6.92124 19.3441 6.85414 19.5454C6.31191 18.8599 6.34273 17.7845 6.92305 17.1299C6.75258 17.2894 6.52227 17.3838 6.28833 17.3892C7.06994 16.7273 7.37098 15.5539 6.99922 14.6019L10.4593 12.3278C10.4829 12.9879 10.6969 13.628 11.0505 14.1811V14.1848C11.4767 15.3236 12.1658 16.3628 13.0581 17.1879C12.8187 17.0483 12.5793 16.9068 12.3417 16.7672C13.2303 17.6268 14.0265 18.6913 14.1316 19.9208C14.2024 20.7278 13.9702 21.5366 13.6094 22.262L13.6112 22.2602Z" fill="#D6633C"/>
</g>
<path d="M11.9336 22.1531C11.9336 22.2257 11.9318 22.3 11.93 22.3725C12.5756 21.4096 12.7442 20.142 12.3707 19.043C12.5974 19.2026 12.7805 19.422 12.8966 19.6741C13.1305 19.1591 12.9673 18.5388 12.659 18.0655C12.3489 17.5922 11.9082 17.2223 11.522 16.8106C11.1339 16.3989 10.7839 15.9093 10.7276 15.3453C10.9036 15.4378 11.0777 15.5303 11.2536 15.6228C10.539 14.8992 10.0512 13.9544 9.8735 12.9533L7.10612 13.443C6.79964 14.8303 5.97995 16.0979 4.8429 16.9484C5.26906 16.8922 5.68254 16.7435 6.04524 16.515C5.27994 17.3583 4.92088 18.5552 5.09678 19.6795C5.12036 19.3005 5.36155 18.9414 5.7043 18.7782C5.67347 19.4945 5.57373 20.2091 5.40689 20.9073C5.62632 20.7604 5.84394 20.6153 6.06337 20.4684C6.0815 21.0995 6.27192 21.7251 6.60923 22.2601C6.69084 22.0316 6.77063 21.8031 6.85224 21.5728C7.04265 22.3399 7.56675 23.02 8.26313 23.3972C8.09991 23.1959 8.04551 22.9111 8.12349 22.6645C8.60225 23.3083 9.29318 23.7907 10.0621 24.0174C9.90796 23.9013 9.82635 23.6964 9.85718 23.5042C10.3414 23.7073 10.8238 23.9086 11.308 24.1117C11.3297 23.4189 11.5492 22.7334 11.9354 22.1567L11.9336 22.1531Z" fill="#F7E5D2"/>
<g style="mix-blend-mode:multiply" opacity="0.44">
<path d="M11.1521 21.0868C11.1521 21.1412 11.1503 21.1938 11.1485 21.2482C11.6218 20.5428 11.7451 19.6125 11.4713 18.8073C11.6381 18.9233 11.7723 19.0847 11.8576 19.2697C12.0298 18.8925 11.9102 18.4373 11.6835 18.0909C11.4568 17.7446 11.134 17.4725 10.8493 17.1697C10.5646 16.8668 10.3089 16.5078 10.2671 16.0961C10.3959 16.1632 10.5247 16.2321 10.6516 16.2992C10.1275 15.7679 9.77025 15.0769 9.63968 14.3425L7.61039 14.7015C7.38552 15.7189 6.78525 16.6474 5.95105 17.2712C6.26297 17.2295 6.56582 17.1207 6.8324 16.9521C6.27204 17.5705 6.00908 18.4482 6.13603 19.2733C6.15235 18.9959 6.33007 18.7329 6.58214 18.6114C6.56038 19.1373 6.48784 19.6614 6.36452 20.1728C6.52411 20.0658 6.68551 19.9588 6.8451 19.85C6.85779 20.3125 6.99743 20.7713 7.24588 21.1648C7.30572 20.9961 7.36557 20.8293 7.4236 20.6606C7.56324 21.2246 7.9477 21.7215 8.45728 21.999C8.33759 21.8521 8.2977 21.6417 8.35573 21.4604C8.70573 21.9319 9.21351 22.2855 9.7775 22.4524C9.66325 22.3671 9.60341 22.2166 9.62698 22.077C9.98242 22.2257 10.3361 22.3744 10.6915 22.5231C10.7078 22.0153 10.8674 21.5112 11.1503 21.0886L11.1521 21.0868Z" fill="#F7E5D2"/>
</g>
<path d="M11.2174 3.72096C11.9138 2.89039 12.8096 2.25929 13.6964 1.63546C14.5089 1.06421 15.3231 0.491147 16.1936 0.0142005C16.2679 -0.0275096 16.3622 0.0287062 16.3622 0.11394C16.3731 0.911873 16.3822 1.70981 16.3931 2.50774C16.4076 3.6593 16.4094 4.87071 15.8545 5.88082C15.314 6.86735 14.3057 7.52565 13.243 7.8956C12.6718 6.80026 11.6762 5.80284 10.4594 4.85439C10.6697 4.44998 10.9236 4.06915 11.2156 3.72096H11.2174Z" fill="#D6633C"/>
<path d="M11.9375 4.50623C12.4271 3.92229 13.0582 3.47798 13.6802 3.03912C14.2351 2.64922 14.7937 2.25751 15.3867 1.92745C15.4611 1.88574 15.5554 1.94015 15.5554 2.02719C15.5626 2.56942 15.5699 3.11166 15.5771 3.65389C15.588 4.46451 15.588 5.31504 15.1981 6.02593C14.8173 6.72049 14.1082 7.18293 13.361 7.44226C12.8496 6.5337 12.2004 5.81556 11.4043 5.30416C11.5512 5.01944 11.7307 4.75286 11.9356 4.50804L11.9375 4.50623Z" fill="#E8A465"/>
<path d="M7.39096 3.67913C6.93578 2.96824 6.3065 2.39156 5.68447 1.82212C5.12411 1.30891 4.56193 0.793873 3.94897 0.344129C3.88187 0.295165 3.78394 0.336878 3.77125 0.420298C3.68602 1.02237 3.59897 1.62445 3.51373 2.22653C3.38679 3.11513 3.26529 4.04908 3.59171 4.88509C3.91089 5.70116 4.62359 6.31049 5.40701 6.70039L7.85884 4.63121C7.73734 4.29934 7.57957 3.97836 7.38734 3.68094L7.39096 3.67913Z" fill="#D6633C"/>
<g style="mix-blend-mode:multiply" opacity="0.55">
<path d="M7.39088 3.6791C7.22767 3.4234 7.03906 3.18402 6.83958 2.95734C6.15046 3.11874 5.41962 3.15864 4.80848 3.53221C4.22816 3.88766 3.89811 4.4988 3.71313 5.13896C4.07039 5.82627 4.71055 6.35037 5.41056 6.69855L7.86239 4.62937C7.74088 4.2975 7.58311 3.97652 7.39088 3.6791Z" fill="#D6633C"/>
</g>
<path d="M1.04736 9.99006C1.17793 11.1289 1.5769 12.0375 2.0883 12.752C3.50644 14.7305 5.79687 15.2673 5.79687 15.2673C7.59766 15.4722 9.11555 15.4378 10.3941 15.231C11.5239 15.0515 12.4651 14.7378 13.2521 14.3442C15.9705 12.9859 16.8428 10.6756 17.113 9.52581C17.2164 9.10145 17.2345 8.83668 17.2345 8.83668C16.6089 9.83229 15.8962 9.54938 15.8962 9.54938C16.2951 9.03798 16.1809 8.04238 16.1809 8.04238C16.1736 8.05326 16.1682 8.06233 16.1627 8.07321C15.8164 8.63902 14.984 8.61 14.6612 8.0315C12.7933 4.70375 9.11555 4.42811 9.11555 4.42811C5.17122 3.9022 3.60619 5.98407 2.9352 7.31154C2.75022 7.67968 2.37483 7.8973 1.97586 7.8973C1.89607 7.8973 1.81446 7.88642 1.73104 7.86828L2.18441 9.00715C1.55876 8.72244 1.16161 7.50015 1.16161 7.50015C1.11446 7.74497 1.08 7.98435 1.0528 8.21285C0.980261 8.86026 0.985701 9.44964 1.04736 9.98825V9.99006Z" fill="#F7E5D2"/>
<path d="M1.05273 8.21651C1.59315 9.52766 2.44186 9.39527 2.44186 9.39527C2.89161 8.03153 3.37037 7.32972 3.77477 6.9779C4.19732 6.60432 4.86105 6.7893 5.05147 7.32065C5.64085 8.96185 5.25276 10.6647 4.38592 12.3984L6.63645 12.2932C7.10796 9.54942 8.29035 8.20019 9.03388 7.60355C9.69217 7.07401 10.6461 7.08127 11.2663 7.65796C12.3979 8.7134 12.8114 11.0256 12.8114 11.0256C13.4515 11.031 14.7464 10.0499 14.7464 10.0499C14.8334 10.5613 14.3637 11.1888 14.3637 11.1888C15.7148 11.3194 16.6197 10.3202 17.1166 9.52947C17.2199 9.10512 17.2381 8.84035 17.2381 8.84035C16.6124 9.83595 15.8997 9.55304 15.8997 9.55304C16.2987 9.04164 16.1844 8.04604 16.1844 8.04604C16.1772 8.05692 16.1717 8.06599 16.1663 8.07687C15.8199 8.64268 14.9875 8.61366 14.6647 8.03516C12.7969 4.70742 9.11911 4.43177 9.11911 4.43177C4.9481 3.90586 3.60975 5.98774 2.93876 7.31521C2.75378 7.68334 2.37839 7.90096 1.97942 7.90096C1.89963 7.90096 1.81802 7.89008 1.7346 7.87195L2.18798 9.01081C1.56232 8.7261 1.16517 7.50381 1.16517 7.50381C1.11802 7.74863 1.08356 7.98801 1.05636 8.21651H1.05273Z" fill="#D6633C"/>
<path d="M9.2804 13.4628C9.2804 14.2317 9.73377 14.8972 10.3939 15.2327C11.5237 15.0532 12.4649 14.7395 13.2519 14.3459C13.3879 14.0775 13.4659 13.7801 13.4659 13.4646C13.4659 12.362 12.5265 11.4661 11.3713 11.4661C10.2162 11.4661 9.2804 12.362 9.2804 13.4646V13.4628Z" fill="#E8A465"/>
<path d="M1.04724 9.98999C1.17781 11.1289 1.57678 12.0374 2.08818 12.7519C2.58689 12.5162 2.93145 12.0066 2.93145 11.4172C2.93145 10.5975 2.26772 9.93378 1.44802 9.93378C1.30838 9.93378 1.17237 9.95191 1.04724 9.98999Z" fill="#E8A465"/>
<path d="M1.63302 12.9715C1.78173 13.4756 2.07733 14.0468 2.66308 14.5129C3.50091 15.1875 4.93356 15.6482 7.36726 15.3925C7.36726 15.3925 7.59757 14.3497 7.31285 13.3323C6.9284 11.9595 5.31077 11.3883 4.08667 12.1173C3.82734 12.2733 3.51179 12.3984 3.15816 12.4202C2.90972 12.4365 2.64313 12.4002 2.36386 12.2896C1.94131 12.1227 1.50427 12.5344 1.63302 12.9696V12.9715Z" fill="#F7E5D2"/>
<path d="M4.35149 14.6635C4.73957 14.8049 5.19113 14.6925 5.46134 14.3787C5.7388 14.0559 5.74968 13.5572 5.52481 13.2054C5.43595 13.0658 5.6572 12.937 5.74606 13.0748C6.03259 13.5228 5.99269 14.1321 5.6572 14.5419C5.33621 14.9337 4.75589 15.0824 4.28258 14.9101C4.12843 14.8539 4.19553 14.6054 4.35149 14.6616V14.6635Z" fill="#79403D"/>
<path d="M1.63505 12.9749C1.71121 13.2325 1.82546 13.5081 1.99774 13.7783C2.32598 14.2915 3.05863 14.3677 3.48661 13.9361C3.48843 13.9343 3.49205 13.9306 3.49387 13.9288C3.84931 13.577 3.81848 12.9949 3.44309 12.6667C3.28169 12.527 3.08221 12.4382 2.87003 12.4164C2.7177 12.4001 2.56174 12.3638 2.40034 12.304C1.95966 12.1371 1.50266 12.5234 1.63686 12.9749H1.63505Z" fill="#79403D"/>
<path d="M8.09994 11.227C8.08543 11.5625 8.34658 11.9052 8.66212 11.8599C9.02119 11.8091 9.2243 11.2632 9.01031 10.9368C8.82896 10.663 8.44088 10.6339 8.22689 10.8897C8.14347 10.9894 8.10538 11.1073 8.09994 11.2251V11.227Z" fill="#79403D"/>
<path d="M3.38498 10.3836C3.37047 10.7191 3.63161 11.0619 3.94716 11.0165C4.30623 10.9658 4.50934 10.4199 4.29535 10.0935C4.114 9.81964 3.72591 9.79062 3.51192 10.0463C3.4285 10.1461 3.39042 10.2639 3.38498 10.3818V10.3836Z" fill="#79403D"/>
<g style="mix-blend-mode:screen" opacity="0.42">
<path d="M2.78467 12.7393C2.78467 12.8917 2.587 13.015 2.344 13.015C2.10099 13.015 1.90332 12.8917 1.90332 12.7393C1.90332 12.587 2.10099 12.4637 2.344 12.4637C2.587 12.4637 2.78467 12.587 2.78467 12.7393Z" fill="#79403D"/>
</g>
<path d="M11.6925 12.0758C11.6925 12.2281 11.4948 12.3514 11.2518 12.3514C11.0088 12.3514 10.8112 12.2281 10.8112 12.0758C10.8112 11.9234 11.0088 11.8001 11.2518 11.8001C11.4948 11.8001 11.6925 11.9234 11.6925 12.0758Z" fill="white"/>
<path d="M2.1626 10.4852C2.1626 10.6376 1.96493 10.7609 1.72193 10.7609C1.47892 10.7609 1.28125 10.6376 1.28125 10.4852C1.28125 10.3329 1.47892 10.2096 1.72193 10.2096C1.96493 10.2096 2.1626 10.3329 2.1626 10.4852Z" fill="white"/>
<g clip-path="url(#clip0_99_45257)">
<path d="M0.360291 9.70654L0.83313 9.78143L0.742944 10.3508L0.270105 10.276L0.360291 9.70654Z" fill="#1A1A1A"/>
<path d="M0.450379 9.13739L0.923218 9.21228L0.833182 9.78074L0.360344 9.70585L0.450379 9.13739Z" fill="#1A1A1A"/>
<path d="M0.540467 8.56921L1.01331 8.6441L0.92312 9.21352L0.450281 9.13862L0.540467 8.56921Z" fill="#1A1A1A"/>
<path d="M0.743103 10.3497L1.21594 10.4246L1.12576 10.994L0.652917 10.9191L0.743103 10.3497Z" fill="#1A1A1A"/>
<path d="M0.833068 9.78143L1.30591 9.85632L1.21572 10.4257L0.742882 10.3508L0.833068 9.78143Z" fill="#1A1A1A"/>
<path d="M0.923278 9.21228L1.39612 9.28717L1.30608 9.85563L0.833243 9.78074L0.923278 9.21228Z" fill="#1A1A1A"/>
<path d="M1.01324 8.6441L1.48608 8.71899L1.3959 9.28841L0.923058 9.21351L1.01324 8.6441Z" fill="#1A1A1A"/>
<path d="M1.12506 10.9936L1.5979 11.0685L1.50771 11.6379L1.03488 11.563L1.12506 10.9936Z" fill="#1A1A1A"/>
<path d="M1.21515 10.4244L1.68799 10.4993L1.5978 11.0687L1.12496 10.9938L1.21515 10.4244Z" fill="#1A1A1A"/>
<path d="M1.30512 9.8562L1.77795 9.93109L1.68777 10.5005L1.21493 10.4256L1.30512 9.8562Z" fill="#1A1A1A"/>
<path d="M1.39533 9.28705L1.86816 9.36194L1.77813 9.9304L1.30529 9.85551L1.39533 9.28705Z" fill="#1A1A1A"/>
<path d="M1.48529 8.71887L1.95813 8.79376L1.86794 9.36317L1.39511 9.28828L1.48529 8.71887Z" fill="#1A1A1A"/>
<path d="M1.59784 11.0685L2.07068 11.1434L1.98049 11.7128L1.50765 11.6379L1.59784 11.0685Z" fill="#1A1A1A"/>
<path d="M1.68805 10.4993L2.16089 10.5742L2.0707 11.1436L1.59786 11.0687L1.68805 10.4993Z" fill="#1A1A1A"/>
<path d="M1.77801 9.93109L2.25085 10.006L2.16067 10.5754L1.68783 10.5005L1.77801 9.93109Z" fill="#1A1A1A"/>
<path d="M1.8681 9.36194L2.34094 9.43683L2.25091 10.0053L1.77807 9.9304L1.8681 9.36194Z" fill="#1A1A1A"/>
<path d="M1.95819 8.79376L2.43103 8.86865L2.34084 9.43806L1.868 9.36317L1.95819 8.79376Z" fill="#1A1A1A"/>
<path d="M2.07074 11.1434L2.54358 11.2183L2.45339 11.7877L1.98055 11.7128L2.07074 11.1434Z" fill="#1A1A1A"/>
<path d="M2.16083 10.5742L2.63367 10.6491L2.54348 11.2185L2.07064 11.1436L2.16083 10.5742Z" fill="#1A1A1A"/>
<path d="M2.25079 10.006L2.72363 10.0809L2.63345 10.6503L2.16061 10.5754L2.25079 10.006Z" fill="#1A1A1A"/>
<path d="M2.341 9.43683L2.81384 9.51172L2.72381 10.0802L2.25097 10.0053L2.341 9.43683Z" fill="#1A1A1A"/>
<path d="M2.43097 8.86865L2.90381 8.94354L2.81362 9.51295L2.34078 9.43806L2.43097 8.86865Z" fill="#1A1A1A"/>
<path d="M2.54279 11.2181L3.01562 11.293L2.92544 11.8624L2.4526 11.7876L2.54279 11.2181Z" fill="#1A1A1A"/>
<path d="M2.63287 10.649L3.10571 10.7239L3.01553 11.2933L2.54269 11.2184L2.63287 10.649Z" fill="#1A1A1A"/>
<path d="M2.72284 10.0807L3.19568 10.1556L3.10549 10.7251L2.63265 10.6502L2.72284 10.0807Z" fill="#1A1A1A"/>
<path d="M2.81305 9.5116L3.28589 9.58649L3.19585 10.1549L2.72301 10.0801L2.81305 9.5116Z" fill="#1A1A1A"/>
<path d="M2.90301 8.94342L3.37585 9.01831L3.28567 9.58772L2.81283 9.51283L2.90301 8.94342Z" fill="#1A1A1A"/>
<path d="M3.01556 11.293L3.4884 11.3679L3.39822 11.9373L2.92538 11.8624L3.01556 11.293Z" fill="#1A1A1A"/>
<path d="M3.10577 10.7239L3.57861 10.7988L3.48843 11.3682L3.01559 11.2933L3.10577 10.7239Z" fill="white"/>
<path d="M3.19574 10.1556L3.66858 10.2305L3.57839 10.7999L3.10555 10.7251L3.19574 10.1556Z" fill="#1A1A1A"/>
<path d="M3.28583 9.58649L3.75867 9.66138L3.66863 10.2298L3.19579 10.1549L3.28583 9.58649Z" fill="white"/>
<path d="M3.37592 9.01825L3.84875 9.09314L3.75857 9.66255L3.28573 9.58766L3.37592 9.01825Z" fill="#1A1A1A"/>
<path d="M3.48847 11.3679L3.9613 11.4428L3.87112 12.0122L3.39828 11.9373L3.48847 11.3679Z" fill="#1A1A1A"/>
<path d="M3.57855 10.7988L4.05139 10.8737L3.96121 11.4431L3.48837 11.3682L3.57855 10.7988Z" fill="#1A1A1A"/>
<path d="M3.66852 10.2305L4.14136 10.3054L4.05117 10.8748L3.57833 10.7999L3.66852 10.2305Z" fill="white"/>
<path d="M3.75873 9.66138L4.23157 9.73627L4.14153 10.3047L3.66869 10.2298L3.75873 9.66138Z" fill="#1A1A1A"/>
<path d="M3.84869 9.0932L4.32153 9.16809L4.23135 9.7375L3.75851 9.66261L3.84869 9.0932Z" fill="#1A1A1A"/>
<path d="M4.0506 10.8735L4.52344 10.9484L4.43325 11.5178L3.96041 11.4429L4.0506 10.8735Z" fill="#1A1A1A"/>
<path d="M4.14056 10.3053L4.6134 10.3802L4.52322 10.9496L4.05038 10.8747L4.14056 10.3053Z" fill="#1A1A1A"/>
<path d="M4.23077 9.73614L4.70361 9.81104L4.61358 10.3795L4.14074 10.3046L4.23077 9.73614Z" fill="white"/>
<path d="M4.32074 9.16791L4.79358 9.2428L4.70339 9.81221L4.23055 9.73732L4.32074 9.16791Z" fill="#1A1A1A"/>
<path d="M4.61347 10.3802L5.0863 10.4551L4.99612 11.0245L4.52328 10.9496L4.61347 10.3802Z" fill="#1A1A1A"/>
<path d="M4.70355 9.81104L5.17639 9.88593L5.08636 10.4544L4.61352 10.3795L4.70355 9.81104Z" fill="#1A1A1A"/>
<path d="M4.79364 9.2428L5.26648 9.31769L5.17629 9.8871L4.70346 9.81221L4.79364 9.2428Z" fill="#1A1A1A"/>
<path d="M5.26648 9.31769L5.73853 9.39246L5.64834 9.96187L5.17629 9.8871L5.26648 9.31769Z" fill="#1A1A1A"/>
<path d="M5.73846 9.39246L6.2113 9.46735L6.12112 10.0368L5.64828 9.96187L5.73846 9.39246Z" fill="#1A1A1A"/>
<path d="M6.03046 10.6046L6.5033 10.6795L6.41311 11.2489L5.94027 11.174L6.03046 10.6046Z" fill="#1A1A1A"/>
<path d="M6.12054 10.0355L6.59338 10.1104L6.50335 10.6788L6.03051 10.6039L6.12054 10.0355Z" fill="#1A1A1A"/>
<path d="M6.21051 9.46722L6.68335 9.54211L6.59316 10.1115L6.12032 10.0366L6.21051 9.46722Z" fill="#1A1A1A"/>
<path d="M6.41327 11.2477L6.88611 11.3226L6.79592 11.892L6.32308 11.8172L6.41327 11.2477Z" fill="#1A1A1A"/>
<path d="M6.50323 10.6795L6.97607 10.7544L6.88589 11.3238L6.41305 11.2489L6.50323 10.6795Z" fill="#1A1A1A"/>
<path d="M6.59344 10.1104L7.06628 10.1852L6.97625 10.7537L6.50341 10.6788L6.59344 10.1104Z" fill="#1A1A1A"/>
<path d="M6.68341 9.54211L7.15625 9.617L7.06606 10.1864L6.59322 10.1115L6.68341 9.54211Z" fill="#1A1A1A"/>
<path d="M6.79596 11.8918L7.2688 11.9667L7.17861 12.5361L6.70577 12.4612L6.79596 11.8918Z" fill="#1A1A1A"/>
<path d="M6.88605 11.3226L7.35889 11.3975L7.2687 11.9669L6.79586 11.892L6.88605 11.3226Z" fill="#1A1A1A"/>
<path d="M6.97614 10.7544L7.44897 10.8293L7.35879 11.3987L6.88595 11.3238L6.97614 10.7544Z" fill="#1A1A1A"/>
<path d="M7.06622 10.1852L7.53906 10.2601L7.44903 10.8286L6.97619 10.7537L7.06622 10.1852Z" fill="#1A1A1A"/>
<path d="M7.15619 9.617L7.62903 9.69189L7.53884 10.2613L7.066 10.1864L7.15619 9.617Z" fill="#1A1A1A"/>
<path d="M7.26801 11.9666L7.74084 12.0414L7.65066 12.6109L7.17782 12.536L7.26801 11.9666Z" fill="#1A1A1A"/>
<path d="M7.35809 11.3974L7.83093 11.4723L7.74075 12.0417L7.26791 11.9668L7.35809 11.3974Z" fill="#1A1A1A"/>
<path d="M7.44818 10.8292L7.92102 10.9041L7.83083 11.4735L7.358 11.3986L7.44818 10.8292Z" fill="#1A1A1A"/>
<path d="M7.53827 10.26L8.01111 10.3349L7.92107 10.9034L7.44823 10.8285L7.53827 10.26Z" fill="#1A1A1A"/>
<path d="M7.62823 9.69177L8.10107 9.76666L8.01089 10.3361L7.53805 10.2612L7.62823 9.69177Z" fill="#1A1A1A"/>
<path d="M7.65082 12.6096L8.12366 12.6845L8.03347 13.2539L7.56063 13.179L7.65082 12.6096Z" fill="#1A1A1A"/>
<path d="M7.74078 12.0414L8.21362 12.1163L8.12344 12.6857L7.6506 12.6109L7.74078 12.0414Z" fill="#1A1A1A"/>
<path d="M7.83099 11.4723L8.30383 11.5472L8.21365 12.1166L7.74081 12.0417L7.83099 11.4723Z" fill="#1A1A1A"/>
<path d="M7.92096 10.9041L8.3938 10.9789L8.30361 11.5484L7.83077 11.4735L7.92096 10.9041Z" fill="#1A1A1A"/>
<path d="M8.01117 10.3349L8.48401 10.4098L8.39397 10.9783L7.92113 10.9034L8.01117 10.3349Z" fill="#1A1A1A"/>
<path d="M8.10114 9.76666L8.57397 9.84155L8.48379 10.411L8.01095 10.3361L8.10114 9.76666Z" fill="#1A1A1A"/>
<path d="M8.12372 12.6845L8.59656 12.7594L8.50637 13.3288L8.03353 13.2539L8.12372 12.6845Z" fill="#1A1A1A"/>
<path d="M8.21368 12.1163L8.68652 12.1912L8.59634 12.7606L8.1235 12.6857L8.21368 12.1163Z" fill="#1A1A1A"/>
<path d="M8.30377 11.5472L8.77661 11.6221L8.68643 12.1915L8.21359 12.1166L8.30377 11.5472Z" fill="#1A1A1A"/>
<path d="M8.39386 10.9789L8.8667 11.0538L8.77651 11.6232L8.30367 11.5484L8.39386 10.9789Z" fill="#1A1A1A"/>
<path d="M8.48395 10.4098L8.95679 10.4847L8.86675 11.0531L8.39391 10.9783L8.48395 10.4098Z" fill="#1A1A1A"/>
<path d="M8.57391 9.84155L9.04675 9.91644L8.95657 10.4859L8.48373 10.411L8.57391 9.84155Z" fill="#1A1A1A"/>
<path d="M8.59576 12.7593L9.0686 12.8342L8.97842 13.4036L8.50558 13.3287L8.59576 12.7593Z" fill="#1A1A1A"/>
<path d="M8.68573 12.1911L9.15857 12.266L9.06838 12.8354L8.59554 12.7605L8.68573 12.1911Z" fill="#1A1A1A"/>
<path d="M8.77582 11.6219L9.24866 11.6968L9.15847 12.2662L8.68563 12.1914L8.77582 11.6219Z" fill="#1A1A1A"/>
<path d="M8.86591 11.0537L9.33875 11.1286L9.24856 11.698L8.77572 11.6231L8.86591 11.0537Z" fill="#1A1A1A"/>
<path d="M8.95599 10.4846L9.42883 10.5594L9.3388 11.1279L8.86596 11.053L8.95599 10.4846Z" fill="#1A1A1A"/>
<path d="M9.04596 9.91632L9.5188 9.99121L9.42861 10.5606L8.95577 10.4857L9.04596 9.91632Z" fill="#1A1A1A"/>
<path d="M9.06854 12.8342L9.54138 12.9091L9.4512 13.4785L8.97836 13.4036L9.06854 12.8342Z" fill="#1A1A1A"/>
<path d="M9.15851 12.266L9.63135 12.3409L9.54116 12.9103L9.06832 12.8354L9.15851 12.266Z" fill="white"/>
<path d="M9.24872 11.6968L9.72156 11.7717L9.63137 12.3411L9.15853 12.2662L9.24872 11.6968Z" fill="#1A1A1A"/>
<path d="M9.33868 11.1286L9.81152 11.2035L9.72134 11.7729L9.2485 11.698L9.33868 11.1286Z" fill="white"/>
<path d="M9.42889 10.5594L9.90173 10.6343L9.8117 11.2028L9.33886 11.1279L9.42889 10.5594Z" fill="#1A1A1A"/>
<path d="M9.51886 9.99121L9.9917 10.0661L9.90151 10.6355L9.42867 10.5606L9.51886 9.99121Z" fill="#1A1A1A"/>
<path d="M9.63134 12.3409L10.1034 12.4156L10.0132 12.9851L9.54116 12.9103L9.63134 12.3409Z" fill="#1A1A1A"/>
<path d="M9.72155 11.7717L10.1936 11.8465L10.1034 12.4159L9.63137 12.3411L9.72155 11.7717Z" fill="white"/>
<path d="M9.81152 11.2035L10.2836 11.2783L10.1934 11.8477L9.72133 11.7729L9.81152 11.2035Z" fill="#1A1A1A"/>
<path d="M9.90173 10.6343L10.3738 10.7091L10.2837 11.2776L9.81169 11.2028L9.90173 10.6343Z" fill="white"/>
<path d="M9.99169 10.0661L10.4637 10.1409L10.3736 10.7103L9.90151 10.6355L9.99169 10.0661Z" fill="#1A1A1A"/>
<path d="M10.1035 12.4156L10.5763 12.4905L10.4861 13.06L10.0133 12.9851L10.1035 12.4156Z" fill="#1A1A1A"/>
<path d="M10.1935 11.8465L10.6664 11.9214L10.5762 12.4908L10.1034 12.4159L10.1935 11.8465Z" fill="#1A1A1A"/>
<path d="M10.2836 11.2783L10.7565 11.3531L10.6663 11.9226L10.1934 11.8477L10.2836 11.2783Z" fill="white"/>
<path d="M10.3737 10.7091L10.8466 10.784L10.7565 11.3525L10.2837 11.2776L10.3737 10.7091Z" fill="#1A1A1A"/>
<path d="M10.4637 10.1409L10.9365 10.2158L10.8463 10.7852L10.3735 10.7103L10.4637 10.1409Z" fill="#1A1A1A"/>
<path d="M10.6656 11.9212L11.1384 11.9961L11.0482 12.5655L10.5754 12.4906L10.6656 11.9212Z" fill="#1A1A1A"/>
<path d="M10.7557 11.353L11.2285 11.4279L11.1383 11.9973L10.6655 11.9224L10.7557 11.353Z" fill="#1A1A1A"/>
<path d="M10.8458 10.7839L11.3186 10.8588L11.2286 11.4272L10.7557 11.3523L10.8458 10.7839Z" fill="white"/>
<path d="M10.9357 10.2156L11.4086 10.2905L11.3184 10.8599L10.8455 10.785L10.9357 10.2156Z" fill="#1A1A1A"/>
<path d="M11.2285 11.4279L11.7013 11.5028L11.6111 12.0722L11.1383 11.9973L11.2285 11.4279Z" fill="#1A1A1A"/>
<path d="M11.3187 10.8588L11.7915 10.9337L11.7015 11.5021L11.2286 11.4272L11.3187 10.8588Z" fill="#1A1A1A"/>
<path d="M11.4086 10.2905L11.8815 10.3654L11.7913 10.9348L11.3184 10.8599L11.4086 10.2905Z" fill="#1A1A1A"/>
<path d="M11.8814 10.3654L12.3542 10.4403L12.2641 11.0097L11.7912 10.9348L11.8814 10.3654Z" fill="#1A1A1A"/>
</g>
<defs>
<clipPath id="clip0_99_45257">
<rect width="15.3099" height="4.0309" fill="white" transform="matrix(-0.987688 -0.156434 -0.156434 0.987688 15.752 10.395)"/>
</clipPath>
</defs>
</svg>
