<svg width="27" height="30" viewBox="0 0 27 30" fill="none" xmlns="http://www.w3.org/2000/svg">
<path d="M26.1148 16.5832C25.7231 17.3449 25.1899 18.0358 24.5425 18.5962C23.206 19.755 21.427 20.3535 19.6588 20.3281C19.2744 20.3208 18.9008 20.2338 18.5598 20.0778C18.2171 19.92 17.9088 19.6933 17.6495 19.4086C17.5751 19.3579 17.5026 19.3053 17.4319 19.249C16.7554 18.7032 16.3111 17.869 16.2476 17.0003C16.1769 16.041 16.5704 15.0581 17.2831 14.4143C18.0557 13.7125 19.1238 13.4296 19.9526 12.7967C19.9598 12.7912 19.9671 12.7858 19.9744 12.7803C21.0479 11.9461 21.6101 10.577 21.7207 9.22229C21.7625 8.69457 21.7443 8.16866 21.6808 7.64275C21.5847 6.81036 21.3762 5.98522 21.1404 5.17822C22.399 6.17927 23.6666 7.18756 24.7148 8.40804C25.763 9.63032 26.5881 11.0884 26.8112 12.6824C26.998 14.0135 26.7314 15.3899 26.1148 16.585V16.5832Z" fill="#D6633C"/>
<path d="M26.1147 16.5832C26.0621 15.5477 25.859 14.5195 25.5108 13.542C25.237 14.6392 24.965 15.7381 24.6911 16.8371C23.3655 15.8614 22.7017 14.0679 23.0699 12.4648C22.4623 13.464 21.853 14.4651 21.2455 15.4643C20.7178 14.4723 20.6761 13.2337 21.1331 12.2073C20.7812 12.4557 20.3859 12.6498 19.9742 12.7785C21.0478 11.9443 21.61 10.5751 21.7206 9.22046C21.7623 8.69274 21.7442 8.16683 21.6807 7.64092C21.5846 6.80853 21.3761 5.98339 21.1403 5.17639C22.3989 6.17743 23.6665 7.18573 24.7147 8.40621C25.7629 9.62849 26.588 11.0865 26.8111 12.6806C26.9979 14.0117 26.7313 15.3881 26.1147 16.5832Z" fill="#F7E5D2"/>
<g style="mix-blend-mode:multiply" opacity="0.4">
<path d="M22.1306 17.6697C20.9028 18.7342 19.2671 19.2855 17.6404 19.2619C17.5697 19.2619 17.5007 19.2565 17.43 19.2492C16.7536 18.7034 16.3093 17.8692 16.2458 17.0005C16.1751 16.0412 16.5686 15.0583 17.2813 14.4145C18.0539 13.7127 19.122 13.4298 19.9508 12.7968C21.0389 11.9645 21.6083 10.5862 21.7189 9.22066C21.7606 8.69293 21.7425 8.16702 21.679 7.64111C21.8894 7.85329 22.0925 8.07454 22.2883 8.30122C23.2531 9.42377 24.0112 10.7657 24.2161 12.231C24.499 14.2368 23.6593 16.344 22.1288 17.6697H22.1306Z" fill="#D6633C"/>
</g>
<path d="M16.0754 25.5112C16.07 25.756 16.0518 26.0026 16.0174 26.2474C15.9303 26.8622 15.6892 27.5259 15.1379 27.8088C14.8205 27.9702 14.4469 27.9829 14.0951 27.9285C13.9138 27.8995 13.7306 27.8542 13.5764 27.7526C13.4241 27.6511 13.3062 27.4842 13.3026 27.2993C13.2972 27.0272 13.5257 26.8169 13.7016 26.6083C13.9156 26.3544 14.0606 26.048 14.1368 25.727C14.2547 25.2283 14.2021 24.6897 13.9663 24.2327C13.9228 24.1492 13.8757 24.0713 13.8249 23.9915C13.8013 23.9534 13.7741 23.9153 13.7469 23.8754C13.6399 23.7231 13.5239 23.5744 13.4169 23.422C13.3915 23.3894 13.3679 23.3531 13.3443 23.3187C13.3207 23.286 13.299 23.2516 13.279 23.2189C13.2627 23.1917 13.2464 23.1663 13.2319 23.1391C13.2174 23.1155 13.2047 23.092 13.192 23.0684C12.9907 22.6948 12.8982 22.2614 12.9272 21.837L14.7443 20.7217L15.5513 20.2249C15.5513 20.292 15.5477 20.3609 15.5477 20.4262C15.5477 20.5277 15.5477 20.6311 15.555 20.7344C15.5586 20.8287 15.564 20.9212 15.5695 21.0155C15.5749 21.0899 15.5803 21.1642 15.5858 21.2386C15.5912 21.2948 15.5967 21.3528 15.6021 21.4091C15.6311 21.6756 15.6674 21.9458 15.7055 22.2124C15.7091 22.2342 15.7127 22.2541 15.7164 22.2759C15.7327 22.3811 15.749 22.4845 15.7653 22.5878C15.7871 22.7202 15.8088 22.8508 15.8288 22.9813C15.8614 23.179 15.8923 23.3749 15.9231 23.5707C15.9648 23.8464 16.0011 24.122 16.0301 24.3977C16.0664 24.7694 16.0881 25.1376 16.0809 25.5093L16.0754 25.5112Z" fill="#D6633C"/>
<path d="M16.0754 25.5111C16.07 25.7559 16.0518 26.0025 16.0174 26.2474C15.9303 26.8621 15.6891 27.5259 15.1378 27.8088C14.8205 27.9702 14.4469 27.9829 14.0951 27.9285C13.9137 27.8994 13.7306 27.8541 13.5764 27.7525C13.4241 27.651 13.3062 27.4841 13.3026 27.2992C13.2971 27.0272 13.5256 26.8168 13.7016 26.6082C13.9155 26.3543 14.0606 26.0479 14.1368 25.7269C14.2547 25.5782 14.3417 25.415 14.3725 25.2245C14.436 25.5455 14.4995 25.8683 14.563 26.1893C14.7098 26.0007 14.8549 25.8121 15.0018 25.6235C15.0073 25.7595 15.0762 25.8901 15.1832 25.9699C15.243 25.8067 15.3029 25.6416 15.3627 25.4784C15.4189 25.6217 15.477 25.765 15.5332 25.9082C15.6601 25.7015 15.7435 25.4676 15.7762 25.2245C15.8106 25.4295 15.8941 25.6271 16.0174 25.7958C16.0373 25.6997 16.0555 25.609 16.0736 25.5129L16.0754 25.5111Z" fill="#79403D"/>
<g style="mix-blend-mode:multiply" opacity="0.4">
<path d="M13.8249 23.9933C14.5394 23.9353 15.2376 23.7902 15.9194 23.5744C15.7526 22.4627 15.5187 21.3474 15.5495 20.2267L12.9254 21.8389C12.8964 22.2632 12.9889 22.6966 13.1902 23.0702C13.3661 23.3985 13.6218 23.6814 13.8249 23.9915V23.9933Z" fill="#D6633C"/>
</g>
<path d="M9.51057 27.3027C9.47611 27.6872 9.40176 28.097 9.14606 28.3673C8.90124 28.623 8.54398 28.7027 8.20668 28.7372C7.8204 28.7753 7.89657 28.7698 7.5103 28.7191C7.33076 28.6955 7.13491 28.6502 7.02791 28.4942C6.9318 28.3546 6.93724 28.1587 6.99345 27.9955C7.04786 27.8323 7.1476 27.6872 7.23102 27.5385C7.57377 26.9328 7.37066 26.2183 7.26004 25.5074C7.23646 25.3605 7.21833 25.2136 7.20745 25.0685C7.15123 24.2216 6.96263 23.3892 6.86651 22.546V22.5423C6.79216 21.8732 6.77584 21.1949 6.81936 20.5203C6.83024 20.3172 6.85019 20.1105 6.87376 19.9092C6.87376 19.9092 6.87376 19.9092 6.87376 19.9055C6.98801 18.9244 7.22739 17.9597 7.58465 17.0475L8.36264 18.7957L9.15875 20.5783L9.46705 21.2693C9.35461 21.982 9.35098 22.7037 9.38544 23.4255C9.42715 24.296 9.52326 25.1701 9.54503 26.0424C9.55591 26.4649 9.55047 26.8856 9.51238 27.3064L9.51057 27.3027Z" fill="#D6633C"/>
<path d="M9.51054 27.3028C9.47608 27.6872 9.40173 28.0971 9.14603 28.3673C8.90121 28.623 8.54395 28.7028 8.20664 28.7372C7.82037 28.7753 7.89654 28.7699 7.51027 28.7191C7.33073 28.6955 7.13488 28.6502 7.02788 28.4942C6.93177 28.3546 6.93721 28.1587 6.99342 27.9955C7.04783 27.8323 7.14757 27.6872 7.23099 27.5385C7.57374 26.9328 7.37063 26.2183 7.26001 25.5074C7.40508 25.7268 7.57374 25.9281 7.76597 26.1077C7.84213 25.8302 7.92011 25.5546 7.99628 25.2771C8.19395 25.7232 8.38981 26.1693 8.58748 26.6173C8.65457 26.3489 8.72349 26.0787 8.78877 25.8103C8.86313 26.0097 8.93748 26.2092 9.01183 26.4087C9.08618 26.1439 9.15872 25.8792 9.23308 25.6126C9.26028 25.8157 9.34914 26.0116 9.49059 26.1639C9.50691 26.124 9.52505 26.0841 9.54318 26.0424C9.55406 26.4649 9.54862 26.8857 9.51054 27.3064V27.3028Z" fill="#79403D"/>
<path d="M12.3342 26.6827C12.3342 26.7153 12.3342 26.7516 12.3342 26.7842C12.3396 27.1288 12.3287 27.4715 12.2997 27.8143C12.2653 28.1987 12.1909 28.6086 11.9352 28.8788C11.7013 29.1254 11.3621 29.2088 11.0375 29.2433C11.0248 29.2433 11.0085 29.2469 10.9958 29.2487C10.8036 29.2687 10.7256 29.2778 10.6476 29.2741H10.6277C10.5551 29.2687 10.4753 29.256 10.2994 29.2306C10.1181 29.207 9.92224 29.1617 9.81705 29.0057C9.75358 28.9114 9.73545 28.7954 9.74452 28.6793C9.74996 28.6195 9.76265 28.5614 9.78079 28.5052C9.81524 28.4037 9.86602 28.3075 9.91861 28.2169C9.91861 28.2169 9.91861 28.2157 9.91861 28.2132C9.95125 28.1588 9.98389 28.1044 10.0147 28.05C10.1798 27.7562 10.2178 27.4353 10.1997 27.1034C10.1816 26.7479 10.1 26.3762 10.0401 26.0099C10.0184 25.8666 10.0002 25.7233 9.98934 25.5801C9.944 24.8946 9.8098 24.2199 9.71187 23.5417C9.6883 23.3803 9.66654 23.2189 9.6484 23.0575C9.54141 22.1163 9.55229 21.1624 9.68104 20.223C9.73363 19.8313 9.80436 19.445 9.89685 19.0642C9.92768 18.9318 9.96213 18.7994 9.9984 18.6707C10.1018 18.2935 10.2251 17.9217 10.3684 17.559L10.8761 18.6961L12.2489 21.7808C12.1601 22.343 12.1401 22.907 12.1528 23.4746C12.1746 24.5427 12.3124 25.6163 12.3305 26.6863L12.3342 26.6827Z" fill="#D6633C"/>
<path d="M12.3342 26.7841C12.3396 27.1286 12.3287 27.4714 12.2997 27.8141C12.2653 28.1986 12.1909 28.6084 11.9352 28.8786C11.7013 29.1253 11.3621 29.2087 11.0375 29.2431C11.0194 29.2431 11.0031 29.2468 10.9849 29.2486C10.8254 29.2613 10.7256 29.2703 10.6494 29.274H10.6295C10.557 29.2685 10.4772 29.2558 10.3013 29.2304C10.1199 29.2069 9.92405 29.1615 9.81887 29.0056C9.7554 28.9113 9.73726 28.7952 9.74633 28.6791C9.75177 28.6193 9.76446 28.5613 9.7826 28.5051C9.81706 28.4035 9.86783 28.3074 9.92042 28.2167C9.92042 28.2167 9.92042 28.2155 9.92042 28.2131C9.95307 28.1587 9.98571 28.1043 10.0165 28.0499C10.1816 27.7561 10.2196 27.4351 10.2015 27.1032C10.1834 26.7478 10.1018 26.376 10.0419 26.0097C10.1253 26.1149 10.2287 26.2092 10.3502 26.2872C10.381 26.1022 10.4101 25.9154 10.4373 25.7322C10.7311 26.1385 11.023 26.5465 11.3168 26.9545C11.422 26.7206 11.5235 26.4866 11.6269 26.2509C11.6741 26.4069 11.7702 26.5501 11.9098 26.6644C11.9624 26.5302 12.0096 26.3978 12.0603 26.2654C12.151 26.4395 12.2417 26.6154 12.3324 26.7895L12.3342 26.7841Z" fill="#79403D"/>
<path d="M18.8989 19.6335C18.7266 18.7739 18.1608 17.985 17.3919 17.5698C17.2976 17.519 17.2033 17.4755 17.1054 17.4356C16.4325 17.1635 15.6709 17.1345 14.9382 17.149C14.0986 17.1635 13.2426 17.2216 12.4356 16.9894C11.6286 16.7555 10.8652 16.1552 10.7183 15.3283L6.80476 14.9239C7.00062 14.9438 7.00969 15.9612 7.00243 16.1008C6.98248 16.4944 6.89725 16.8825 6.82834 17.2705C6.5273 18.9281 6.85373 20.7143 7.82213 22.1035C9.63198 24.7004 12.3758 23.5379 15.0398 22.4226C16.3382 21.8786 18.6813 22.1144 18.9225 20.5892C18.9732 20.2719 18.9624 19.9491 18.8989 19.6353V19.6335Z" fill="#D6633C"/>
<path d="M12.1455 17.3704C11.6559 17.2471 11.2333 16.8789 11.0465 16.4092C10.8597 15.9396 10.9105 15.3828 11.1807 14.9548L5.56437 14.9857C5.88173 15.3846 5.81101 15.9813 5.56981 16.431C5.32862 16.8808 4.94779 17.2362 4.63768 17.6424C4.32758 18.0486 4.08276 18.5564 4.1825 19.0569C4.36022 18.803 4.60685 18.5963 4.88976 18.4657C4.26229 19.2564 4.40193 20.544 5.18535 21.1805C5.19442 20.8722 5.33225 20.5694 5.55893 20.359C5.30686 21.0173 5.60064 21.8388 6.2136 22.187C6.22811 21.9621 6.31697 21.7427 6.46023 21.5704C6.76309 22.8507 7.88745 23.8971 9.18771 24.1075C8.66362 23.5598 8.76154 22.6839 8.93927 21.9476C9.0916 21.3147 9.26932 20.6202 9.0789 20.0199C9.19315 20.2828 9.3074 20.5458 9.42165 20.8088C9.85508 20.0326 10.0056 19.1023 9.83694 18.2282C10.0219 18.7087 10.2087 19.1893 10.3937 19.6699C10.9667 18.9989 11.1082 17.9906 10.7455 17.1872C11.0937 17.5608 11.7157 17.6406 12.1473 17.3668L12.1455 17.3704Z" fill="#F7E5D2"/>
<g style="mix-blend-mode:multiply">
<path d="M9.83517 16.7773C9.54501 16.6921 9.29656 16.4382 9.18594 16.1154C9.07532 15.7926 9.10615 15.4063 9.26573 15.1125L5.94706 15.1343C6.13566 15.41 6.09395 15.8216 5.95068 16.1317C5.80742 16.4418 5.58255 16.6885 5.39938 16.9677C5.21622 17.2488 5.07114 17.597 5.13099 17.9434C5.23617 17.7675 5.38125 17.626 5.54809 17.5354C5.17633 18.0812 5.25975 18.968 5.72219 19.4087C5.72763 19.1965 5.80923 18.9862 5.94343 18.8429C5.79472 19.2963 5.96882 19.8639 6.3297 20.1033C6.33877 19.9491 6.38955 19.7968 6.47659 19.6789C6.65613 20.5621 7.31986 21.2838 8.08878 21.4289C7.77868 21.0517 7.83671 20.4478 7.94189 19.94C8.03256 19.503 8.13775 19.0242 8.0235 18.6108C8.09059 18.7921 8.15769 18.9735 8.22661 19.1548C8.48412 18.6198 8.57117 17.9779 8.47143 17.3758C8.58205 17.7076 8.69086 18.0395 8.80148 18.3696C9.13879 17.9071 9.22402 17.2107 9.01003 16.6576C9.21677 16.9152 9.58309 16.9696 9.83879 16.781L9.83517 16.7773Z" fill="#F7E5D2"/>
</g>
<path d="M19.8003 25.1139C19.7205 25.9753 19.4593 27.067 19.1456 27.8722C19.0531 28.1098 18.9461 28.351 18.763 28.5269C18.4547 28.8279 17.0728 28.7391 16.8914 28.5595C16.6629 28.3346 16.7518 27.9538 16.8534 27.651C17.0184 27.1704 17.1834 26.6862 17.3466 26.2056C17.3974 26.0533 17.45 25.8955 17.4427 25.7359C17.4427 25.6978 17.4373 25.6598 17.4282 25.6199C17.3575 25.3333 17.0728 25.1629 16.8225 25.0069C16.5414 24.8292 16.2749 24.6279 16.0282 24.3994C15.8015 24.1945 15.593 23.9642 15.4116 23.7193C15.1414 23.3566 14.9256 22.954 14.7878 22.5242C14.7588 22.439 14.7352 22.352 14.7134 22.2631C14.6989 22.1996 14.6844 22.1343 14.6735 22.0709C14.5919 21.6121 14.621 21.1514 14.7425 20.7216C14.98 19.882 15.5694 19.1475 16.3764 18.7232L16.4743 18.6706C16.5741 18.6162 16.6793 18.5727 16.7899 18.5436C17.3829 18.3804 18.0702 18.5908 18.5254 19.0224C18.5834 19.0768 18.6378 19.1367 18.6886 19.1965C18.7412 19.26 18.792 19.3253 18.8391 19.3942C19.0241 19.6626 19.1547 19.969 19.2399 20.29C19.3052 20.5312 19.3433 20.7815 19.3578 21.0299C19.4031 21.7698 19.2653 22.5079 19.1347 23.2388C19.0912 23.48 19.0531 23.7429 19.1746 23.9551C19.2272 24.0458 19.3016 24.1147 19.3814 24.18C19.5083 24.2851 19.6479 24.3813 19.7295 24.5209C19.8293 24.6968 19.8202 24.9126 19.8003 25.1121V25.1139Z" fill="#D6633C"/>
<path d="M19.8003 25.114C19.7205 25.9754 19.4593 27.0671 19.1456 27.8723C19.0531 28.1099 18.9461 28.3511 18.763 28.527C18.4547 28.828 17.0728 28.7392 16.8915 28.5596C16.663 28.3348 16.7518 27.9539 16.8534 27.6511C17.0184 27.1705 17.1834 26.6863 17.3466 26.2057C17.3974 26.0534 17.45 25.8956 17.4428 25.736C17.479 25.7777 17.5171 25.8195 17.5534 25.863C17.5624 25.6762 17.5715 25.4894 17.5824 25.3026C17.7166 25.4187 17.849 25.5311 17.985 25.6472C17.9723 25.4695 17.9578 25.2954 17.9469 25.1176C18.0485 25.2301 18.15 25.3425 18.2552 25.455C18.3169 25.3081 18.3223 25.1358 18.2679 24.9853C18.335 25.0796 18.4021 25.172 18.4692 25.2682C18.4964 25.1049 18.5218 24.9399 18.5472 24.7785C18.6795 24.8638 18.8101 24.949 18.9407 25.036C18.957 24.7912 18.9733 24.5464 18.9915 24.3034C19.084 24.3669 19.1728 24.4285 19.2635 24.4902C19.3215 24.3941 19.3614 24.2889 19.385 24.1819C19.5119 24.2871 19.6516 24.3832 19.7332 24.5228C19.8329 24.6987 19.8239 24.9145 19.8039 25.114H19.8003Z" fill="#79403D"/>
<path d="M8.05806 3.75473C7.68085 2.99307 7.11505 2.34384 6.55649 1.70368C6.05235 1.12699 5.54638 0.548489 4.98239 0.0298325C4.92073 -0.0281989 4.81736 0.00263028 4.7956 0.0860505C4.64327 0.67906 4.48912 1.27388 4.33679 1.86689C4.11192 2.7428 3.88523 3.66587 4.11917 4.53815C4.34767 5.39049 4.99508 6.07961 5.7368 6.55837L8.42438 4.75758C8.33915 4.41121 8.21583 4.0739 8.05806 3.75291V3.75473Z" fill="#D6633C"/>
<g style="mix-blend-mode:multiply" opacity="0.42">
<path d="M7.41959 2.7429C7.00975 2.75922 6.60352 2.82632 6.23901 2.917C5.68409 3.05663 5.17631 3.27969 4.74833 3.66597C4.49626 3.89265 4.28408 4.15561 4.09729 4.43488C4.10454 4.46934 4.1118 4.50561 4.12268 4.54006C4.35118 5.3924 4.99859 6.08153 5.74031 6.56029L8.42789 4.7595C8.34266 4.41312 8.21934 4.07581 8.06157 3.75483C7.88384 3.39576 7.66441 3.06208 7.42141 2.74109L7.41959 2.7429Z" fill="#D6633C"/>
</g>
<path d="M1.00161 9.37106C1.00705 10.5263 1.30446 11.4801 1.73788 12.2545C2.9366 14.3944 5.17262 15.1869 5.17262 15.1869C6.95346 15.5931 8.47679 15.7255 9.78069 15.662C10.9322 15.6076 11.9097 15.3973 12.7421 15.0908C15.6165 14.0335 16.7463 11.8156 17.1452 10.6949C17.2958 10.2814 17.3429 10.0185 17.3429 10.0185C16.6066 10.9452 15.923 10.5825 15.923 10.5825C16.38 10.1146 16.3763 9.10448 16.3763 9.10448C16.3673 9.11355 16.3618 9.12443 16.3546 9.1335C15.9429 9.66122 15.1141 9.54153 14.8548 8.92495C13.3551 5.38321 9.70089 4.69771 9.70089 4.69771C5.80915 3.73113 4.00837 5.64254 3.18867 6.89747C2.96199 7.24566 2.56121 7.42338 2.16224 7.37804C2.08245 7.36898 2.00084 7.34903 1.92105 7.32183L2.24747 8.51328C1.65265 8.15784 1.38969 6.89022 1.38969 6.89022C1.31534 7.1296 1.25368 7.36535 1.20291 7.59203C1.05783 8.23401 0.997982 8.82339 0.999796 9.36925L1.00161 9.37106Z" fill="#F7E5D2"/>
<path d="M1.20482 7.59387C1.60016 8.96849 2.46519 8.92859 2.46519 8.92859C3.06726 7.61382 3.62582 6.96278 4.06831 6.65448C4.53256 6.32806 5.17635 6.58738 5.30873 7.13868C5.71676 8.8488 5.13826 10.5099 4.07556 12.1512L6.34242 12.2962C7.11859 9.59958 8.45512 8.38092 9.26575 7.86589C9.98389 7.40889 10.9396 7.52314 11.4963 8.16874C12.5119 9.35113 12.6697 11.7141 12.6697 11.7141C13.3098 11.7903 14.7153 10.9524 14.7153 10.9524C14.7461 11.4747 14.2039 12.0514 14.2039 12.0514C15.5422 12.3325 16.5596 11.4312 17.1453 10.6967C17.2959 10.2833 17.343 10.0203 17.343 10.0203C16.6067 10.947 15.923 10.5843 15.923 10.5843C16.38 10.1164 16.3764 9.10631 16.3764 9.10631C16.3674 9.11538 16.3619 9.12626 16.3547 9.13533C15.943 9.66305 15.1142 9.54336 14.8549 8.92678C13.3552 5.38504 9.70099 4.69955 9.70099 4.69955C5.58075 3.70757 4.00846 5.64437 3.18877 6.8993C2.96208 7.24749 2.5613 7.42521 2.16234 7.37988C2.08254 7.37081 2.00094 7.35086 1.92114 7.32366L2.24757 8.51512C1.65275 8.15968 1.38979 6.89205 1.38979 6.89205C1.31544 7.13143 1.25378 7.36718 1.203 7.59387H1.20482Z" fill="#D6633C"/>
<path d="M11.4473 4.18805C12.1201 3.35566 12.9942 2.7155 13.8592 2.08441C14.6517 1.5059 15.446 0.92559 16.2966 0.439576C16.3709 0.397866 16.4634 0.450457 16.4652 0.535691C16.4888 1.32274 16.5142 2.11161 16.5377 2.89866C16.5722 4.03571 16.5958 5.2308 16.0662 6.2391C15.5494 7.22201 14.5647 7.89118 13.5219 8.27383C12.938 7.20206 11.9369 6.23366 10.7201 5.31966C10.9196 4.91707 11.1644 4.53624 11.4473 4.18805Z" fill="#D6633C"/>
<path d="M12.1726 4.94973C12.646 4.36398 13.2607 3.91424 13.8682 3.46993C14.4105 3.07459 14.9545 2.67744 15.5348 2.34195C15.6074 2.30023 15.7017 2.35283 15.7035 2.43625C15.7198 2.97122 15.7361 3.5062 15.7525 4.04118C15.7778 4.84093 15.7924 5.68238 15.4206 6.39145C15.0579 7.08421 14.3651 7.5539 13.6307 7.82229C13.1102 6.93369 12.4555 6.23731 11.6594 5.74404C11.8009 5.46114 11.9713 5.19274 12.1708 4.94792L12.1726 4.94973Z" fill="#E8A465"/>
<path d="M8.86335 13.7669C8.77812 14.5377 9.15714 15.2558 9.78279 15.6638C10.9343 15.6094 11.9118 15.3991 12.7442 15.0926C12.911 14.8405 13.0217 14.5504 13.0561 14.233C13.1794 13.1286 12.338 12.1257 11.181 11.9988C10.024 11.8718 8.98667 12.6625 8.86335 13.7688V13.7669Z" fill="#E8A465"/>
<path d="M1.00183 9.37116C1.00727 10.5263 1.30468 11.4802 1.73811 12.2546C2.26402 12.0733 2.66661 11.6017 2.73189 11.0106C2.82257 10.189 2.23319 9.45095 1.40986 9.35847C1.27023 9.34215 1.1324 9.34577 1.00183 9.37116Z" fill="#E8A465"/>
<path d="M1.25555 12.4232C1.34804 12.9455 1.58198 13.5494 2.11514 14.0826C2.88043 14.8515 4.26412 15.4717 6.73046 15.488C6.73046 15.488 7.07865 14.4706 6.90637 13.4188C6.67424 12.0007 5.11827 11.2481 3.81075 11.8429C3.53329 11.9698 3.20323 12.0605 2.84779 12.0442C2.59572 12.0333 2.33458 11.9662 2.06618 11.8248C1.66177 11.6108 1.17757 11.9753 1.25737 12.425L1.25555 12.4232Z" fill="#F7E5D2"/>
<path d="M4.2216 14.6635C4.60969 14.8049 5.06125 14.6925 5.33146 14.3787C5.60892 14.0559 5.6198 13.5572 5.39493 13.2054C5.30607 13.0658 5.52731 12.937 5.61617 13.0748C5.9027 13.5228 5.86281 14.1321 5.52731 14.5419C5.20633 14.9337 4.62601 15.0824 4.15269 14.9101C3.99855 14.8539 4.06565 14.6054 4.2216 14.6616V14.6635Z" fill="#79403D"/>
<path d="M1.25749 12.4251C1.30464 12.6935 1.38987 12.9818 1.53314 13.272C1.80516 13.8214 2.52874 13.9792 3.00568 13.5948C3.0075 13.593 3.01112 13.5911 3.01294 13.5893C3.40828 13.2756 3.44092 12.6898 3.1018 12.3181L3.08366 12.2981C2.94947 12.153 2.77537 12.0479 2.58314 12.0098C2.42356 11.9771 2.26216 11.9227 2.09713 11.8393C1.67459 11.6235 1.17407 11.959 1.25749 12.4269V12.4251Z" fill="#79403D"/>
<g style="mix-blend-mode:screen" opacity="0.42">
<path d="M1.37891 12.1457C1.37891 12.298 1.57658 12.4214 1.81958 12.4214C2.06259 12.4214 2.26026 12.298 2.26026 12.1457C2.26026 11.9934 2.06259 11.8701 1.81958 11.8701C1.57658 11.8701 1.37891 11.9934 1.37891 12.1457Z" fill="#79403D"/>
</g>
<path d="M7.87844 11.3822C7.82041 11.763 8.06342 12.1837 8.41886 12.171C8.82327 12.1565 9.11886 11.5581 8.92301 11.1609C8.75798 10.8272 8.33181 10.7475 8.0616 11.014C7.95642 11.1174 7.89839 11.248 7.87663 11.3822H7.87844Z" fill="#79403D"/>
<path d="M3.29932 10.0258C3.24855 10.3594 3.4716 10.7312 3.79259 10.7221C4.15891 10.7113 4.42368 10.1872 4.24415 9.83716C4.09363 9.54338 3.70736 9.47084 3.46435 9.70297C3.37005 9.79364 3.31746 9.90789 3.29932 10.0258Z" fill="#79403D"/>
<path d="M10.1888 12.5321C10.1888 12.6844 10.3865 12.8077 10.6295 12.8077C10.8725 12.8077 11.0702 12.6844 11.0702 12.5321C11.0702 12.3797 10.8725 12.2564 10.6295 12.2564C10.3865 12.2564 10.1888 12.3797 10.1888 12.5321Z" fill="white"/>
<path d="M1.77246 10.2124C2.01584 10.2124 2.21314 10.089 2.21314 9.93678C2.21314 9.78455 2.01584 9.66113 1.77246 9.66113C1.52908 9.66113 1.33179 9.78455 1.33179 9.93678C1.33179 10.089 1.52908 10.2124 1.77246 10.2124Z" fill="white"/>
<g clip-path="url(#clip0_99_44950)">
<path d="M0.360291 9.70654L0.83313 9.78143L0.742944 10.3508L0.270105 10.276L0.360291 9.70654Z" fill="#1A1A1A"/>
<path d="M0.450379 9.13739L0.923218 9.21228L0.833182 9.78074L0.360344 9.70585L0.450379 9.13739Z" fill="#1A1A1A"/>
<path d="M0.540467 8.56921L1.01331 8.6441L0.92312 9.21352L0.450281 9.13862L0.540467 8.56921Z" fill="#1A1A1A"/>
<path d="M0.743103 10.3497L1.21594 10.4246L1.12576 10.994L0.652917 10.9191L0.743103 10.3497Z" fill="#1A1A1A"/>
<path d="M0.833068 9.78143L1.30591 9.85632L1.21572 10.4257L0.742882 10.3508L0.833068 9.78143Z" fill="#1A1A1A"/>
<path d="M0.923278 9.21228L1.39612 9.28717L1.30608 9.85563L0.833243 9.78074L0.923278 9.21228Z" fill="#1A1A1A"/>
<path d="M1.01324 8.6441L1.48608 8.71899L1.3959 9.28841L0.923058 9.21351L1.01324 8.6441Z" fill="#1A1A1A"/>
<path d="M1.12506 10.9936L1.5979 11.0685L1.50771 11.6379L1.03488 11.563L1.12506 10.9936Z" fill="#1A1A1A"/>
<path d="M1.21515 10.4244L1.68799 10.4993L1.5978 11.0687L1.12496 10.9938L1.21515 10.4244Z" fill="#1A1A1A"/>
<path d="M1.30512 9.8562L1.77795 9.93109L1.68777 10.5005L1.21493 10.4256L1.30512 9.8562Z" fill="#1A1A1A"/>
<path d="M1.39533 9.28705L1.86816 9.36194L1.77813 9.9304L1.30529 9.85551L1.39533 9.28705Z" fill="#1A1A1A"/>
<path d="M1.48529 8.71887L1.95813 8.79376L1.86794 9.36317L1.39511 9.28828L1.48529 8.71887Z" fill="#1A1A1A"/>
<path d="M1.59784 11.0685L2.07068 11.1434L1.98049 11.7128L1.50765 11.6379L1.59784 11.0685Z" fill="#1A1A1A"/>
<path d="M1.68805 10.4993L2.16089 10.5742L2.0707 11.1436L1.59786 11.0687L1.68805 10.4993Z" fill="#1A1A1A"/>
<path d="M1.77801 9.93109L2.25085 10.006L2.16067 10.5754L1.68783 10.5005L1.77801 9.93109Z" fill="#1A1A1A"/>
<path d="M1.8681 9.36194L2.34094 9.43683L2.25091 10.0053L1.77807 9.9304L1.8681 9.36194Z" fill="#1A1A1A"/>
<path d="M1.95819 8.79376L2.43103 8.86865L2.34084 9.43806L1.868 9.36317L1.95819 8.79376Z" fill="#1A1A1A"/>
<path d="M2.07074 11.1434L2.54358 11.2183L2.45339 11.7877L1.98055 11.7128L2.07074 11.1434Z" fill="#1A1A1A"/>
<path d="M2.16083 10.5742L2.63367 10.6491L2.54348 11.2185L2.07064 11.1436L2.16083 10.5742Z" fill="#1A1A1A"/>
<path d="M2.25079 10.006L2.72363 10.0809L2.63345 10.6503L2.16061 10.5754L2.25079 10.006Z" fill="#1A1A1A"/>
<path d="M2.341 9.43683L2.81384 9.51172L2.72381 10.0802L2.25097 10.0053L2.341 9.43683Z" fill="#1A1A1A"/>
<path d="M2.43097 8.86865L2.90381 8.94354L2.81362 9.51295L2.34078 9.43806L2.43097 8.86865Z" fill="#1A1A1A"/>
<path d="M2.54279 11.2181L3.01562 11.293L2.92544 11.8624L2.4526 11.7876L2.54279 11.2181Z" fill="#1A1A1A"/>
<path d="M2.63287 10.649L3.10571 10.7239L3.01553 11.2933L2.54269 11.2184L2.63287 10.649Z" fill="#1A1A1A"/>
<path d="M2.72284 10.0807L3.19568 10.1556L3.10549 10.7251L2.63265 10.6502L2.72284 10.0807Z" fill="#1A1A1A"/>
<path d="M2.81305 9.5116L3.28589 9.58649L3.19585 10.1549L2.72301 10.0801L2.81305 9.5116Z" fill="#1A1A1A"/>
<path d="M2.90301 8.94342L3.37585 9.01831L3.28567 9.58772L2.81283 9.51283L2.90301 8.94342Z" fill="#1A1A1A"/>
<path d="M3.01556 11.293L3.4884 11.3679L3.39822 11.9373L2.92538 11.8624L3.01556 11.293Z" fill="#1A1A1A"/>
<path d="M3.10577 10.7239L3.57861 10.7988L3.48843 11.3682L3.01559 11.2933L3.10577 10.7239Z" fill="white"/>
<path d="M3.19574 10.1556L3.66858 10.2305L3.57839 10.7999L3.10555 10.7251L3.19574 10.1556Z" fill="#1A1A1A"/>
<path d="M3.28583 9.58649L3.75867 9.66138L3.66863 10.2298L3.19579 10.1549L3.28583 9.58649Z" fill="white"/>
<path d="M3.37592 9.01825L3.84875 9.09314L3.75857 9.66255L3.28573 9.58766L3.37592 9.01825Z" fill="#1A1A1A"/>
<path d="M3.48847 11.3679L3.9613 11.4428L3.87112 12.0122L3.39828 11.9373L3.48847 11.3679Z" fill="#1A1A1A"/>
<path d="M3.57855 10.7988L4.05139 10.8737L3.96121 11.4431L3.48837 11.3682L3.57855 10.7988Z" fill="#1A1A1A"/>
<path d="M3.66852 10.2305L4.14136 10.3054L4.05117 10.8748L3.57833 10.7999L3.66852 10.2305Z" fill="white"/>
<path d="M3.75873 9.66138L4.23157 9.73627L4.14153 10.3047L3.66869 10.2298L3.75873 9.66138Z" fill="#1A1A1A"/>
<path d="M3.84869 9.0932L4.32153 9.16809L4.23135 9.7375L3.75851 9.66261L3.84869 9.0932Z" fill="#1A1A1A"/>
<path d="M4.0506 10.8735L4.52344 10.9484L4.43325 11.5178L3.96041 11.4429L4.0506 10.8735Z" fill="#1A1A1A"/>
<path d="M4.14056 10.3053L4.6134 10.3802L4.52322 10.9496L4.05038 10.8747L4.14056 10.3053Z" fill="#1A1A1A"/>
<path d="M4.23077 9.73614L4.70361 9.81104L4.61358 10.3795L4.14074 10.3046L4.23077 9.73614Z" fill="white"/>
<path d="M4.32074 9.16791L4.79358 9.2428L4.70339 9.81221L4.23055 9.73732L4.32074 9.16791Z" fill="#1A1A1A"/>
<path d="M4.61347 10.3802L5.0863 10.4551L4.99612 11.0245L4.52328 10.9496L4.61347 10.3802Z" fill="#1A1A1A"/>
<path d="M4.70355 9.81104L5.17639 9.88593L5.08636 10.4544L4.61352 10.3795L4.70355 9.81104Z" fill="#1A1A1A"/>
<path d="M4.79364 9.2428L5.26648 9.31769L5.17629 9.8871L4.70346 9.81221L4.79364 9.2428Z" fill="#1A1A1A"/>
<path d="M5.26648 9.31769L5.73853 9.39246L5.64834 9.96187L5.17629 9.8871L5.26648 9.31769Z" fill="#1A1A1A"/>
<path d="M5.73846 9.39246L6.2113 9.46735L6.12112 10.0368L5.64828 9.96187L5.73846 9.39246Z" fill="#1A1A1A"/>
<path d="M6.03046 10.6046L6.5033 10.6795L6.41311 11.2489L5.94027 11.174L6.03046 10.6046Z" fill="#1A1A1A"/>
<path d="M6.12054 10.0355L6.59338 10.1104L6.50335 10.6788L6.03051 10.6039L6.12054 10.0355Z" fill="#1A1A1A"/>
<path d="M6.21051 9.46722L6.68335 9.54211L6.59316 10.1115L6.12032 10.0366L6.21051 9.46722Z" fill="#1A1A1A"/>
<path d="M6.41327 11.2477L6.88611 11.3226L6.79592 11.892L6.32308 11.8172L6.41327 11.2477Z" fill="#1A1A1A"/>
<path d="M6.50323 10.6795L6.97607 10.7544L6.88589 11.3238L6.41305 11.2489L6.50323 10.6795Z" fill="#1A1A1A"/>
<path d="M6.59344 10.1104L7.06628 10.1852L6.97625 10.7537L6.50341 10.6788L6.59344 10.1104Z" fill="#1A1A1A"/>
<path d="M6.68341 9.54211L7.15625 9.617L7.06606 10.1864L6.59322 10.1115L6.68341 9.54211Z" fill="#1A1A1A"/>
<path d="M6.79596 11.8918L7.2688 11.9667L7.17861 12.5361L6.70577 12.4612L6.79596 11.8918Z" fill="#1A1A1A"/>
<path d="M6.88605 11.3226L7.35889 11.3975L7.2687 11.9669L6.79586 11.892L6.88605 11.3226Z" fill="#1A1A1A"/>
<path d="M6.97614 10.7544L7.44897 10.8293L7.35879 11.3987L6.88595 11.3238L6.97614 10.7544Z" fill="#1A1A1A"/>
<path d="M7.06622 10.1852L7.53906 10.2601L7.44903 10.8286L6.97619 10.7537L7.06622 10.1852Z" fill="#1A1A1A"/>
<path d="M7.15619 9.617L7.62903 9.69189L7.53884 10.2613L7.066 10.1864L7.15619 9.617Z" fill="#1A1A1A"/>
<path d="M7.26801 11.9666L7.74084 12.0414L7.65066 12.6109L7.17782 12.536L7.26801 11.9666Z" fill="#1A1A1A"/>
<path d="M7.35809 11.3974L7.83093 11.4723L7.74075 12.0417L7.26791 11.9668L7.35809 11.3974Z" fill="#1A1A1A"/>
<path d="M7.44818 10.8292L7.92102 10.9041L7.83083 11.4735L7.358 11.3986L7.44818 10.8292Z" fill="#1A1A1A"/>
<path d="M7.53827 10.26L8.01111 10.3349L7.92107 10.9034L7.44823 10.8285L7.53827 10.26Z" fill="#1A1A1A"/>
<path d="M7.62823 9.69177L8.10107 9.76666L8.01089 10.3361L7.53805 10.2612L7.62823 9.69177Z" fill="#1A1A1A"/>
<path d="M7.65082 12.6096L8.12366 12.6845L8.03347 13.2539L7.56063 13.179L7.65082 12.6096Z" fill="#1A1A1A"/>
<path d="M7.74078 12.0414L8.21362 12.1163L8.12344 12.6857L7.6506 12.6109L7.74078 12.0414Z" fill="#1A1A1A"/>
<path d="M7.83099 11.4723L8.30383 11.5472L8.21365 12.1166L7.74081 12.0417L7.83099 11.4723Z" fill="#1A1A1A"/>
<path d="M7.92096 10.9041L8.3938 10.9789L8.30361 11.5484L7.83077 11.4735L7.92096 10.9041Z" fill="#1A1A1A"/>
<path d="M8.01117 10.3349L8.48401 10.4098L8.39397 10.9783L7.92113 10.9034L8.01117 10.3349Z" fill="#1A1A1A"/>
<path d="M8.10114 9.76666L8.57397 9.84155L8.48379 10.411L8.01095 10.3361L8.10114 9.76666Z" fill="#1A1A1A"/>
<path d="M8.12372 12.6845L8.59656 12.7594L8.50637 13.3288L8.03353 13.2539L8.12372 12.6845Z" fill="#1A1A1A"/>
<path d="M8.21368 12.1163L8.68652 12.1912L8.59634 12.7606L8.1235 12.6857L8.21368 12.1163Z" fill="#1A1A1A"/>
<path d="M8.30377 11.5472L8.77661 11.6221L8.68643 12.1915L8.21359 12.1166L8.30377 11.5472Z" fill="#1A1A1A"/>
<path d="M8.39386 10.9789L8.8667 11.0538L8.77651 11.6232L8.30367 11.5484L8.39386 10.9789Z" fill="#1A1A1A"/>
<path d="M8.48395 10.4098L8.95679 10.4847L8.86675 11.0531L8.39391 10.9783L8.48395 10.4098Z" fill="#1A1A1A"/>
<path d="M8.57391 9.84155L9.04675 9.91644L8.95657 10.4859L8.48373 10.411L8.57391 9.84155Z" fill="#1A1A1A"/>
<path d="M8.59576 12.7593L9.0686 12.8342L8.97842 13.4036L8.50558 13.3287L8.59576 12.7593Z" fill="#1A1A1A"/>
<path d="M8.68573 12.1911L9.15857 12.266L9.06838 12.8354L8.59554 12.7605L8.68573 12.1911Z" fill="#1A1A1A"/>
<path d="M8.77582 11.6219L9.24866 11.6968L9.15847 12.2662L8.68563 12.1914L8.77582 11.6219Z" fill="#1A1A1A"/>
<path d="M8.86591 11.0537L9.33875 11.1286L9.24856 11.698L8.77572 11.6231L8.86591 11.0537Z" fill="#1A1A1A"/>
<path d="M8.95599 10.4846L9.42883 10.5594L9.3388 11.1279L8.86596 11.053L8.95599 10.4846Z" fill="#1A1A1A"/>
<path d="M9.04596 9.91632L9.5188 9.99121L9.42861 10.5606L8.95577 10.4857L9.04596 9.91632Z" fill="#1A1A1A"/>
<path d="M9.06854 12.8342L9.54138 12.9091L9.4512 13.4785L8.97836 13.4036L9.06854 12.8342Z" fill="#1A1A1A"/>
<path d="M9.15851 12.266L9.63135 12.3409L9.54116 12.9103L9.06832 12.8354L9.15851 12.266Z" fill="white"/>
<path d="M9.24872 11.6968L9.72156 11.7717L9.63137 12.3411L9.15853 12.2662L9.24872 11.6968Z" fill="#1A1A1A"/>
<path d="M9.33868 11.1286L9.81152 11.2035L9.72134 11.7729L9.2485 11.698L9.33868 11.1286Z" fill="white"/>
<path d="M9.42889 10.5594L9.90173 10.6343L9.8117 11.2028L9.33886 11.1279L9.42889 10.5594Z" fill="#1A1A1A"/>
<path d="M9.51886 9.99121L9.9917 10.0661L9.90151 10.6355L9.42867 10.5606L9.51886 9.99121Z" fill="#1A1A1A"/>
<path d="M9.63134 12.3409L10.1034 12.4156L10.0132 12.9851L9.54116 12.9103L9.63134 12.3409Z" fill="#1A1A1A"/>
<path d="M9.72155 11.7717L10.1936 11.8465L10.1034 12.4159L9.63137 12.3411L9.72155 11.7717Z" fill="white"/>
<path d="M9.81152 11.2035L10.2836 11.2783L10.1934 11.8477L9.72133 11.7729L9.81152 11.2035Z" fill="#1A1A1A"/>
<path d="M9.90173 10.6343L10.3738 10.7091L10.2837 11.2776L9.81169 11.2028L9.90173 10.6343Z" fill="white"/>
<path d="M9.99169 10.0661L10.4637 10.1409L10.3736 10.7103L9.90151 10.6355L9.99169 10.0661Z" fill="#1A1A1A"/>
<path d="M10.1035 12.4156L10.5763 12.4905L10.4861 13.06L10.0133 12.9851L10.1035 12.4156Z" fill="#1A1A1A"/>
<path d="M10.1935 11.8465L10.6664 11.9214L10.5762 12.4908L10.1034 12.4159L10.1935 11.8465Z" fill="#1A1A1A"/>
<path d="M10.2836 11.2783L10.7565 11.3531L10.6663 11.9226L10.1934 11.8477L10.2836 11.2783Z" fill="white"/>
<path d="M10.3737 10.7091L10.8466 10.784L10.7565 11.3525L10.2837 11.2776L10.3737 10.7091Z" fill="#1A1A1A"/>
<path d="M10.4637 10.1409L10.9365 10.2158L10.8463 10.7852L10.3735 10.7103L10.4637 10.1409Z" fill="#1A1A1A"/>
<path d="M10.6656 11.9212L11.1384 11.9961L11.0482 12.5655L10.5754 12.4906L10.6656 11.9212Z" fill="#1A1A1A"/>
<path d="M10.7557 11.353L11.2285 11.4279L11.1383 11.9973L10.6655 11.9224L10.7557 11.353Z" fill="#1A1A1A"/>
<path d="M10.8458 10.7839L11.3186 10.8588L11.2286 11.4272L10.7557 11.3523L10.8458 10.7839Z" fill="white"/>
<path d="M10.9357 10.2156L11.4086 10.2905L11.3184 10.8599L10.8455 10.785L10.9357 10.2156Z" fill="#1A1A1A"/>
<path d="M11.2285 11.4279L11.7013 11.5028L11.6111 12.0722L11.1383 11.9973L11.2285 11.4279Z" fill="#1A1A1A"/>
<path d="M11.3187 10.8588L11.7915 10.9337L11.7015 11.5021L11.2286 11.4272L11.3187 10.8588Z" fill="#1A1A1A"/>
<path d="M11.4086 10.2905L11.8815 10.3654L11.7913 10.9348L11.3184 10.8599L11.4086 10.2905Z" fill="#1A1A1A"/>
<path d="M11.8814 10.3654L12.3542 10.4403L12.2641 11.0097L11.7912 10.9348L11.8814 10.3654Z" fill="#1A1A1A"/>
</g>
<defs>
<clipPath id="clip0_99_44950">
<rect width="15.3099" height="4.0309" fill="white" transform="matrix(-0.987688 -0.156434 -0.156434 0.987688 15.752 10.395)"/>
</clipPath>
</defs>
</svg>
