<svg width="145" height="92" viewBox="0 0 145 92" fill="none" xmlns="http://www.w3.org/2000/svg">
<path d="M12.6035 47.7328C12.6291 47.748 12.6571 47.7632 12.6826 47.776C12.9173 47.8878 13.1902 47.8979 13.4326 47.8014L82.98 20.118C83.1968 20.0316 83.3728 19.869 83.4749 19.6581C83.5157 19.5767 84.462 17.6175 85.1864 15.4779C86.3241 12.1185 86.2705 10.2024 85.0206 9.44771C84.9875 9.42738 84.9569 9.40959 84.9212 9.3918C84.6941 9.27491 84.4289 9.25458 84.1865 9.33589C83.9442 9.41975 83.7452 9.59763 83.6407 9.82888C82.8933 11.4552 81.3092 13.0612 79.9139 14.2607C80.8246 12.4031 82.3831 9.8365 84.9594 7.05394C85.2502 6.73883 85.2885 6.26872 85.0538 5.91042C84.9747 5.79098 84.8727 5.69696 84.7579 5.62581C84.5232 5.48604 84.2324 5.45047 83.9621 5.54449C81.1307 6.54062 79.187 8.55068 77.3096 10.4921C76.6158 11.2087 75.9118 11.938 75.1516 12.6318C75.6669 10.2558 75.2868 7.92555 75.2613 7.77054C75.2154 7.4961 75.0496 7.26739 74.8226 7.13017C74.7078 7.06156 74.5777 7.01582 74.4374 7.00057C74.0216 6.95737 73.6262 7.1937 73.4706 7.5825C73.4655 7.5952 73.1135 8.41091 72.0167 9.68912C72.5855 8.39821 72.8993 7.41732 72.9324 7.31822C73.0625 6.90655 72.8916 6.46185 72.5243 6.24331C72.5039 6.2306 72.4835 6.22044 72.4605 6.20773C72.0524 6.0019 71.5524 6.12133 71.2846 6.4898C69.4735 8.96743 66.5401 10.3422 64.7699 10.9876C65.2596 8.00179 64.8107 4.59918 64.7877 4.42892C64.7495 4.13923 64.5786 3.89782 64.3439 3.75552C64.1679 3.65133 63.9587 3.60051 63.7393 3.62846C63.2292 3.69453 62.8695 4.15956 62.9307 4.66779C62.941 4.76944 63.1323 7.07935 60.2065 9.07924C60.7243 6.93704 63.1272 3.64116 65.0709 1.56504C65.4025 1.21182 65.4076 0.665472 65.0811 0.307169C65.0173 0.238558 64.9459 0.180111 64.8693 0.13437C64.5505 -0.0587577 64.1347 -0.0460519 63.8235 0.187734C63.7036 0.279216 60.9156 2.38329 53.9877 8.48715C53.8882 6.57112 55.8166 4.53057 55.8395 4.50516C56.1915 4.13923 56.1839 3.55985 55.8242 3.20154C55.7707 3.14818 55.7094 3.10244 55.6482 3.06432C55.2937 2.85087 54.8294 2.89152 54.5182 3.18884C54.4238 3.27778 52.5056 5.14299 50.3502 9.42738C49.4013 7.25469 47.5673 4.76944 45.5853 3.57509C44.5038 2.92456 43.4529 2.69077 42.4581 2.8839C42.1112 2.94997 41.8306 3.20917 41.7362 3.54968C41.6418 3.8902 41.7464 4.25358 42.0117 4.48991C43.3661 5.70712 44.0243 7.04885 44.0217 8.59134C44.0166 11.0131 42.3662 13.356 41.1954 14.7104C40.8536 12.9265 40.522 9.99151 41.374 7.64857C41.5117 7.26739 41.3893 6.84302 41.0679 6.59653C41.0398 6.57366 41.0092 6.55333 40.9786 6.53554C40.6674 6.3475 40.2746 6.35512 39.9685 6.56349C37.484 8.25082 36.1015 12.2608 35.4077 15.0789C34.3414 12.2074 33.3364 8.23812 34.4154 5.87484C34.5812 5.51146 34.497 5.08454 34.2062 4.81264C34.1578 4.7669 34.1042 4.72624 34.0481 4.6932C33.7726 4.52803 33.4231 4.51278 33.1298 4.66525C26.8727 7.94334 26.6023 14.6571 27.0717 18.6162C26.2988 17.9352 25.3626 17.2008 24.3245 16.5756C22.1639 15.2746 20.1411 14.7841 18.3097 15.117C17.9271 15.1856 17.6286 15.4855 17.5572 15.8641C17.4858 16.2453 17.6592 16.629 17.9934 16.8298C19.506 17.742 20.562 20.2756 21.2533 22.8777C20.437 21.6325 19.4575 20.395 18.3352 19.404C18.2918 19.3658 18.2485 19.3328 18.2 19.3048C18.0342 19.2057 17.8378 19.1575 17.6414 19.1727C17.3888 19.193 17.1542 19.315 16.9935 19.5107C16.7537 19.8004 16.5879 20.1866 16.4782 20.6491C16.3073 19.0482 16.2435 17.2923 16.3328 15.3889C16.3481 15.0459 16.1747 14.7231 15.8839 14.5478C15.8609 14.5351 15.8405 14.5224 15.815 14.5097C15.4834 14.3445 15.0855 14.3928 14.7998 14.6291C9.99409 18.6187 10.1726 27.406 10.6012 31.7565C9.62932 30.9535 8.36668 29.9929 7.01476 29.1798C4.45886 27.6398 2.3315 27.0859 0.691333 27.5331C0.278105 27.6449 -0.00503376 28.0185 6.78302e-05 28.4428C0.00516942 28.7707 0.181174 29.0654 0.451559 29.2281C0.530633 29.2763 0.61736 29.3119 0.71174 29.3348C1.18619 29.4517 1.67339 29.6601 2.16314 29.9548C7.89478 33.4083 12.1521 47.0721 12.1929 47.2093C12.2617 47.4304 12.4071 47.6159 12.6035 47.7328Z" fill="url(#paint0_linear_99_43920)"/>
<path d="M15.6185 35.0984C15.6185 35.0984 13.3815 22.7839 18.7892 18.2963C18.3071 28.4329 22.5899 33.9955 22.5899 33.9955C22.5899 33.9955 19.284 24.4687 20.8604 22.5578C23.9545 25.2844 25.8115 30.3896 25.8115 30.3896C25.8115 30.3896 25.0463 21.0255 21.544 18.9138C25.9135 18.1209 30.5764 23.7597 30.5764 23.7597C30.5764 23.7597 27.3828 13.4935 35.0531 9.4759C33.2369 13.4452 36.9993 20.873 36.9993 20.873C36.9993 20.873 38.0018 13.3385 41.254 11.1277C39.9684 14.6726 41.4198 19.4194 41.4198 19.4194C41.4198 19.4194 48.7075 12.937 43.1748 7.96391C46.3556 7.34895 50.09 13.5824 49.8375 15.5162C52.0949 10.2103 54.3906 8.01728 54.3906 8.01728C54.3906 8.01728 51.3935 11.1251 52.9418 13.6231C59.8953 7.46331 62.6476 5.39481 62.6476 5.39481C62.6476 5.39481 57.12 11.2979 58.0969 14.1211C62.5812 11.9078 62.1731 8.63732 62.1731 8.63732C62.1731 8.63732 62.7521 12.9039 61.8313 15.628C61.8313 15.628 66.8487 14.482 69.4939 10.8608C69.4939 10.8608 67.8741 15.9914 65.1907 17.9481C70.402 14.5353 71.5549 11.6537 71.5549 11.6537C71.5549 11.6537 72.3967 16.5962 69.7975 18.6952C74.2792 16.2735 76.0724 11.8443 80.4445 10.3069C75.6643 15.4705 74.6848 19.7955 74.6848 19.7955C74.6848 19.7955 79.1946 16.8529 80.6409 13.7044C82.4468 14.6446 78.9803 21.7903 78.9803 21.7903L16.7256 46.5692C16.7256 46.5692 12.101 31.5408 5.84644 30.0034C9.41755 29.0276 15.6185 35.0908 15.6185 35.0908V35.0984Z" fill="#318063"/>
<path d="M40.9455 60.9317C40.9633 60.9114 40.9812 60.8911 41.0016 60.8733C41.1725 60.7107 41.4021 60.6268 41.6367 60.6421L108.84 64.8756C109.049 64.8883 109.246 64.9798 109.391 65.1297C109.447 65.1882 110.807 66.5985 112.029 68.2223C113.947 70.7737 114.439 72.4254 113.582 73.419C113.559 73.4444 113.536 73.4698 113.513 73.4927C113.352 73.6579 113.13 73.7493 112.901 73.7443C112.671 73.7417 112.452 73.6452 112.294 73.4749C111.197 72.2933 109.391 71.3632 107.863 70.7279C109.164 72.062 111.217 73.8179 114.199 75.4748C114.536 75.6628 114.702 76.0542 114.6 76.4252C114.567 76.5472 114.505 76.659 114.426 76.7504C114.266 76.936 114.028 77.0478 113.771 77.0427C111.072 76.9842 108.848 75.8077 106.697 74.6718C105.901 74.2525 105.095 73.8256 104.254 73.4469C105.363 75.335 105.692 77.4315 105.715 77.5687C105.754 77.8152 105.677 78.0591 105.521 78.2396C105.442 78.331 105.343 78.4047 105.228 78.4581C104.884 78.6131 104.481 78.5191 104.238 78.2319C104.231 78.2218 103.7 77.6246 102.402 76.8368C103.251 77.7822 103.797 78.5318 103.851 78.6055C104.078 78.9206 104.055 79.3475 103.805 79.6397C103.789 79.655 103.777 79.6728 103.761 79.688C103.471 79.9777 103.011 80.0133 102.677 79.7744C100.433 78.1633 97.54 77.8076 95.8462 77.7517C97.1063 80.1658 97.6777 83.1974 97.7058 83.3498C97.7542 83.609 97.6752 83.8631 97.517 84.0486C97.3971 84.1884 97.2313 84.2875 97.0375 84.3256C96.5834 84.412 96.1447 84.1173 96.0554 83.6649C96.035 83.576 95.5478 81.5481 92.4868 80.6562C93.5301 82.341 96.512 84.4857 98.7567 85.7182C99.1393 85.9266 99.2975 86.3941 99.1215 86.7905C99.0883 86.8668 99.0424 86.9379 98.9914 86.9989C98.772 87.253 98.4149 87.3598 98.0807 87.2454C97.9532 87.2022 94.979 86.1807 87.3445 82.9026C87.7985 84.567 90.0202 85.7716 90.0457 85.7868C90.4488 86.0028 90.6069 86.4983 90.4003 86.9049C90.3697 86.9659 90.3314 87.0218 90.2881 87.0726C90.0457 87.3521 89.6376 87.4487 89.2882 87.281C89.1836 87.2302 87.0205 86.173 83.9723 83.1135C83.7733 85.2354 82.9061 87.8705 81.549 89.441C80.8093 90.2999 79.9752 90.7929 79.0722 90.9047C78.7559 90.9453 78.4447 90.803 78.2687 90.5388C78.0927 90.2745 78.08 89.934 78.2381 89.657C79.0518 88.239 79.238 86.91 78.8018 85.5937C78.1182 83.5252 76.047 81.9852 74.6644 81.1543C74.8736 82.7755 75.4169 85.3726 76.802 87.1387C77.0265 87.4258 77.0418 87.8223 76.8377 88.1247C76.8199 88.1526 76.7995 88.178 76.779 88.2009C76.5673 88.4474 76.2281 88.5516 75.9092 88.4601C73.3125 87.713 71.004 84.6712 69.619 82.4579C69.5144 85.2074 69.772 88.8819 71.3612 90.5997C71.606 90.864 71.6545 91.2503 71.481 91.5654C71.453 91.6187 71.4173 91.667 71.379 91.7128C71.1903 91.9313 70.8969 92.0431 70.601 91.9923C64.3337 90.9377 62.214 85.276 61.4998 81.7667C61.0304 82.5646 60.4361 83.4515 59.727 84.2773C58.2475 85.9926 56.6584 86.9761 54.9978 87.2048C54.6509 87.253 54.3116 87.0802 54.1458 86.7753C53.9775 86.4704 54.0183 86.0917 54.2453 85.83C55.2809 84.628 55.4697 82.1682 55.3294 79.7541C54.9825 81.045 54.4953 82.3766 53.8117 83.5379C53.7862 83.5811 53.7556 83.6217 53.725 83.6599C53.6102 83.792 53.4571 83.886 53.2862 83.9292C53.0643 83.9826 52.8296 83.9445 52.6383 83.8225C52.3526 83.6421 52.1001 83.3574 51.8782 82.9941C52.1843 84.4095 52.6205 85.9291 53.2327 87.53C53.3423 87.8197 53.2837 88.1424 53.0847 88.3737C53.0694 88.3915 53.0541 88.4067 53.0362 88.4245C52.799 88.6583 52.447 88.7295 52.1358 88.6075C46.9067 86.5415 44.588 78.9841 43.7309 75.147C43.1264 76.105 42.3178 77.2765 41.3919 78.3488C39.642 80.3792 37.9789 81.4465 36.4535 81.5202C36.0709 81.538 35.724 81.2991 35.6092 80.9357C35.5199 80.6537 35.5888 80.3538 35.775 80.1378C35.8286 80.0743 35.8949 80.0184 35.9663 79.9726C36.3387 79.7414 36.6958 79.4263 37.0325 79.0375C40.9582 74.4863 40.7516 61.6255 40.7491 61.4959C40.744 61.2901 40.8179 61.0893 40.9531 60.9343L40.9455 60.9317Z" fill="url(#paint1_linear_99_43920)"/>
<path d="M45.9093 72.9311C45.9093 72.9311 47.5469 84.6839 53.7505 87.1362C50.3094 78.1455 52.5184 71.874 52.5184 71.874C52.5184 71.874 52.3679 81.4313 54.355 82.6891C56.3344 79.3196 56.49 74.1737 56.49 74.1737C56.49 74.1737 58.5791 82.834 56.0487 85.769C60.2193 85.1972 62.7497 78.7427 62.7497 78.7427C62.7497 78.7427 62.918 88.9302 71.0194 90.2923C68.2058 87.2505 69.3919 79.4517 69.3919 79.4517C69.3919 79.4517 72.5294 85.9469 76.1158 86.9786C73.9043 84.1655 73.8048 79.4593 73.8048 79.4593C73.8048 79.4593 82.2939 83.1516 78.784 89.2631C81.8322 88.8794 83.3474 82.1656 82.5438 80.4961C86.1532 84.6128 88.8698 85.9113 88.8698 85.9113C88.8698 85.9113 85.2477 83.9953 85.9007 81.2889C93.9944 84.7907 97.0834 85.8427 97.0834 85.8427C97.0834 85.8427 90.3518 82.1504 90.3952 79.3196C95.0912 79.993 95.6958 83.0601 95.6958 83.0601C95.6958 83.0601 94.9509 79.0451 93.3159 76.8623C93.3159 76.8623 98.1777 76.4176 101.634 78.9003C101.634 78.9003 98.6521 74.7556 95.6549 73.7824C101.364 75.3223 103.256 77.5789 103.256 77.5789C103.256 77.5789 102.55 72.8777 99.5857 71.752C104.343 72.6134 107.271 76.077 111.666 76.1736C105.828 72.9285 103.662 69.3226 103.662 69.3226C103.662 69.3226 108.598 70.6466 110.837 73.0582C112.187 71.6808 106.942 66.2631 106.942 66.2631L43.5065 62.2684C43.5065 62.2684 43.7998 77.1697 38.6191 80.3945C42.1265 80.2217 45.9119 72.9336 45.9119 72.9336L45.9093 72.9311Z" fill="#318063"/>
<path d="M109.825 76.9715C106.182 76.6539 102.718 73.6426 99.0705 73.4292C95.4229 73.2182 91.6604 75.8102 88.0102 75.7035C84.3575 75.5968 80.7405 72.7913 77.0877 72.7913C73.435 72.7913 69.8154 75.5968 66.1652 75.7035C62.5125 75.8102 58.7526 73.2182 55.105 73.4292C51.4573 73.6401 47.9934 76.6539 44.3508 76.9715C41.7567 77.1926 39.2849 74.3465 36.7877 73.9298C34.2344 73.5029 31.0459 75.3909 28.6991 74.3618C26.3243 73.3224 25.3703 69.6124 23.3169 68.0241C21.2559 66.4308 17.5853 66.5604 15.9554 64.4843C14.3407 62.426 15.1774 58.7006 14.0958 56.2357C13.0474 53.8445 9.78498 52.0885 9.33859 49.3771C9.33349 49.339 9.30543 49.1662 9.30033 49.1281C9.29522 49.09 9.27227 48.935 9.26461 48.8968C9.25951 48.8587 9.23911 48.724 9.23145 48.6834C8.75445 45.8017 11.3461 42.9124 11.7593 40.1324C12.1802 37.3092 10.5579 33.7465 11.7899 31.1799C12.999 28.6616 16.7104 27.8612 18.598 25.7393C20.4192 23.6911 20.8758 19.7523 23.2404 18.2048C25.4953 16.7284 29.0766 17.9862 31.7448 17.0841C34.2599 16.2328 36.4255 12.9776 39.239 12.7337C43.4223 12.3677 47.7944 14.8123 51.9828 14.5684C56.1738 14.3244 60.2601 11.3919 64.4562 11.27C68.6522 11.148 72.8866 13.8416 77.0852 13.8416C81.2838 13.8416 85.5181 11.148 89.7142 11.27C93.9102 11.3919 97.9966 14.3244 102.188 14.5684C106.379 14.8123 110.748 12.3677 114.931 12.7337C117.745 12.9776 119.91 16.2303 122.426 17.0841C125.091 17.9888 128.675 16.7284 130.93 18.2048C133.292 19.7523 133.749 23.6886 135.572 25.7393C137.46 27.8637 141.171 28.6642 142.38 31.1824C143.612 33.749 141.99 37.3117 142.411 40.1324C142.824 42.9124 145.416 45.8043 144.939 48.6834C144.934 48.7215 144.913 48.8562 144.906 48.8968C144.901 48.935 144.878 49.09 144.87 49.1281C144.865 49.1662 144.837 49.339 144.832 49.3771C144.385 52.0885 141.123 53.8445 140.075 56.2357C138.993 58.7006 139.83 62.426 138.215 64.4843C136.585 66.5604 132.917 66.4308 130.853 68.0241C128.8 69.6124 127.846 73.3199 125.471 74.3618C123.124 75.3884 119.936 73.5029 117.383 73.9298C114.885 74.3465 112.414 77.1926 109.82 76.9715H109.825Z" fill="url(#paint2_linear_99_43920)"/>
<path opacity="0.5" d="M141.656 46.0027C141.649 46.0357 141.631 46.1602 141.623 46.1984C141.623 46.2314 141.598 46.3762 141.59 46.4144C141.582 46.4474 141.564 46.61 141.557 46.6431C141.235 48.4981 139.424 49.8754 138.083 51.3544C137.603 51.8778 137.182 52.4216 136.912 53.0061C136.616 53.649 136.465 54.3834 136.374 55.1559C136.131 57.1152 136.228 59.2904 135.098 60.6677C133.506 62.5939 129.928 62.4694 127.913 63.9509C125.913 65.4247 124.979 68.8655 122.663 69.8311C120.372 70.7891 117.26 69.0383 114.768 69.4321C112.335 69.8184 109.927 72.4612 107.394 72.2579C103.841 71.9631 100.461 69.1653 96.9 68.9671C93.3416 68.7714 89.6685 71.1754 86.105 71.0788C82.539 70.9797 79.0138 68.3776 75.4478 68.3776C71.8818 68.3776 68.3566 70.9797 64.7906 71.0788C61.2245 71.1779 57.5539 68.7714 53.9956 68.9671C50.4372 69.1628 47.0549 71.9631 43.5016 72.2579C40.9687 72.4612 38.5607 69.8209 36.1273 69.4321C33.6326 69.0383 30.5232 70.7891 28.2325 69.8311C25.9164 68.868 24.9828 65.4273 22.983 63.9509C20.9704 62.4694 17.3917 62.5939 15.7974 60.6677C14.2185 58.7542 15.0347 55.2932 13.9812 53.0061C12.9558 50.7902 9.77754 49.1588 9.33625 46.6431C9.3286 46.61 9.31074 46.4474 9.30309 46.4144C9.29544 46.3762 9.26993 46.2314 9.26993 46.1984C9.26228 46.1602 9.24442 46.0357 9.23677 46.0027C8.76997 43.3294 11.2953 40.6408 11.7034 38.0667C12.1115 35.4442 10.5326 32.1356 11.7289 29.7571C12.9125 27.4167 16.532 26.6772 18.3737 24.7027C20.1491 22.8019 20.598 19.1452 22.9065 17.7095C25.1027 16.3398 28.5973 17.5062 31.2017 16.6676C33.6555 15.8798 35.7676 12.8584 38.5174 12.6297C42.5961 12.2943 46.8585 14.5635 50.9525 14.3348C55.044 14.1112 59.0309 11.3845 63.1249 11.2753C67.2164 11.1634 71.3487 13.6614 75.4478 13.6614C79.5469 13.6614 83.6792 11.1634 87.7707 11.2753C91.8622 11.3871 95.849 14.1137 99.9431 14.3348C104.035 14.5635 108.299 12.2968 112.378 12.6297C115.128 12.8584 117.24 15.8798 119.694 16.6676C122.298 17.5062 125.793 16.3398 127.989 17.7095C130.298 19.1452 130.746 22.8019 132.522 24.7027C134.364 26.6747 137.983 27.4167 139.167 29.7571C139.542 30.5042 139.646 31.3504 139.621 32.2347C139.6 33.0987 139.45 33.9983 139.325 34.8953C139.167 35.9956 139.042 37.0781 139.192 38.0667C139.6 40.6434 142.126 43.3294 141.659 46.0027H141.656Z" fill="url(#paint3_linear_99_43920)"/>
<path d="M140.595 45.7205C140.587 45.7586 140.57 45.8831 140.562 45.9161C140.554 45.9543 140.536 46.094 140.529 46.1321C140.521 46.1652 140.496 46.3227 140.496 46.3608C140.166 48.2413 138.304 49.6186 136.963 51.1179C136.521 51.6159 136.141 52.1267 135.891 52.6705C135.57 53.3719 135.417 54.1851 135.325 55.0313C135.113 56.9193 135.167 58.9573 134.088 60.2686C132.509 62.1821 128.956 62.0652 126.964 63.5314C124.977 64.9926 124.048 68.4079 121.752 69.3659C119.482 70.3087 116.391 68.5731 113.924 68.967C111.503 69.3532 109.116 71.9681 106.601 71.7648C103.075 71.4776 99.7262 68.7052 96.1933 68.507C92.6605 68.3113 89.023 70.6949 85.4902 70.5984C81.9497 70.4993 78.45 67.9175 74.912 67.9175C71.3741 67.9175 67.8795 70.4993 64.339 70.5984C60.8061 70.6975 57.1687 68.3113 53.6359 68.507C50.103 68.7027 46.7487 71.4751 43.221 71.7648C40.7135 71.9681 38.3183 69.3532 35.9053 68.967C33.431 68.5731 30.3471 70.3112 28.0769 69.3659C25.7735 68.4079 24.8527 64.9951 22.8656 63.5263C21.5621 62.576 19.5955 62.2939 17.9579 61.6713C17.0753 61.3511 16.2871 60.9369 15.7412 60.2686C14.9454 59.3055 14.7617 57.9561 14.6367 56.5534C14.5194 55.1964 14.4582 53.7937 13.9404 52.6731C12.9277 50.4699 9.76981 48.8588 9.33617 46.3608C9.32852 46.3227 9.30301 46.1652 9.30301 46.1321C9.29536 46.094 9.26985 45.9543 9.26475 45.9161C9.26475 45.8831 9.24435 45.7586 9.23924 45.7205C8.77755 43.0726 11.285 40.4044 11.6855 37.848C11.8768 36.6409 11.6395 35.2916 11.4482 33.9549C11.3309 33.129 11.2314 32.3032 11.2646 31.518C11.2901 30.842 11.4151 30.194 11.711 29.6045C12.8818 27.2844 16.4733 26.55 18.3022 24.5958C20.0648 22.7078 20.5061 19.0841 22.7967 17.6559C24.9802 16.299 28.4493 17.4603 31.0281 16.6268C33.4616 15.8416 35.5609 12.8455 38.2852 12.6219C41.2313 12.3729 44.2795 13.5012 47.2844 14.05C48.4016 14.2457 49.5214 14.3702 50.6208 14.3067C52.2329 14.2203 53.817 13.7426 55.4035 13.1937C57.8243 12.3551 60.2399 11.3386 62.6937 11.2726C66.7597 11.1608 70.8588 13.6384 74.9171 13.6384C78.9755 13.6384 83.0822 11.1608 87.1406 11.2726C91.2065 11.3844 95.1603 14.0831 99.2186 14.3067C103.272 14.5354 107.501 12.2814 111.554 12.6219C114.278 12.8455 116.37 15.839 118.804 16.6268C121.39 17.4603 124.857 16.299 127.04 17.6559C129.323 19.0841 129.769 22.7103 131.535 24.5958C133.364 26.55 136.955 27.2818 138.121 29.6045C139.317 31.9703 137.746 35.2484 138.154 37.8505C138.554 40.412 141.062 43.0751 140.6 45.723L140.595 45.7205Z" fill="url(#paint4_linear_99_43920)"/>
<path d="M138.082 51.3567C137.603 51.8802 137.182 52.424 136.912 53.0084C136.616 53.6514 136.465 54.3857 136.373 55.1583C112.176 57.2166 97.9966 52.8712 97.2926 52.6476C110.2 55.1964 125.759 53.598 138.082 51.3567Z" fill="url(#paint5_linear_99_43920)"/>
<path d="M56.4773 58.6523C47.6082 62.2582 27.5895 62.027 17.9577 61.6738C17.0752 61.3536 16.287 60.9394 15.7411 60.271C14.9452 59.308 14.7616 57.9586 14.6366 56.5559C21.46 58.1034 37.8208 61.0131 56.4799 58.6523H56.4773Z" fill="url(#paint6_linear_99_43920)"/>
<path d="M67.8921 65.6507C67.8921 65.6507 100.433 63.3713 103.858 62.1998C107.284 61.0309 104.198 62.2125 104.198 62.2125C104.198 62.2125 88.8673 68.9084 67.8895 65.6507H67.8921Z" fill="url(#paint7_linear_99_43920)"/>
<path d="M20.3581 33.2865C16.7997 33.8761 13.6087 33.9803 11.443 33.9549C11.3257 33.129 11.2262 32.3031 11.2594 31.5179C13.4709 32.1201 16.8048 32.9003 20.3581 33.2865Z" fill="url(#paint8_linear_99_43920)"/>
<path d="M55.3983 13.1936C53.0567 15.8796 43.6085 16.2735 37.155 15.7551C39.8334 15.4806 44.1085 14.6878 47.2791 14.05C48.3964 14.2456 49.5162 14.3702 50.6156 14.3066C52.2277 14.2202 53.8117 13.7425 55.3983 13.1936Z" fill="url(#paint9_linear_99_43920)"/>
<path d="M139.615 32.2319C139.595 33.0959 139.444 33.9955 139.319 34.8925C134.95 34.2115 131.463 32.2319 131.463 32.2319H139.615Z" fill="url(#paint10_linear_99_43920)"/>
<path d="M131.267 44.615C129.277 57.4351 118.834 66.3088 107.317 66.3088C106.611 66.3088 105.899 66.2758 105.177 66.2072C85.7145 64.2988 66.132 64.2988 46.6695 66.2072C34.3389 67.3888 22.6996 58.2229 20.5876 44.615C20.3963 43.3774 20.3019 42.1475 20.3019 40.9252C20.3019 40.6737 20.3095 40.4221 20.3146 40.1705C20.6871 28.2881 29.8903 17.694 42.6749 16.4514C64.798 14.2838 87.0511 14.2838 109.177 16.4514C121.956 17.694 131.165 28.2881 131.537 40.1781C131.585 41.6393 131.496 43.1259 131.267 44.615Z" fill="#562500"/>
<path d="M130.838 39.9114C130.818 40.9202 130.723 41.9417 130.568 42.9633C128.591 55.6411 118.219 64.4284 106.782 64.4284C106.073 64.4284 105.358 64.3954 104.642 64.3268C85.3014 62.4387 65.8414 62.4387 46.5013 64.3268C34.2473 65.5033 22.6819 56.4289 20.5826 42.9633C20.427 41.9417 20.3327 40.9202 20.3123 39.9037C20.6821 28.1458 29.8267 17.6661 42.5322 16.4362C64.5176 14.2914 86.6304 14.2914 108.616 16.4362C121.316 17.6661 130.466 28.1458 130.836 39.9114H130.838Z" fill="url(#paint11_linear_99_43920)"/>
<path d="M129.193 38.3587C129.193 39.4082 129.098 40.4704 128.917 41.5249C127.007 52.645 116.967 60.3422 105.894 60.3422C105.205 60.3422 104.516 60.3142 103.828 60.2558C85.1023 58.6015 66.2673 58.6015 47.5419 60.2558C38.1218 61.0766 29.1123 56.223 24.7887 48.2819C23.6689 46.2235 22.8654 43.9517 22.4471 41.5249C22.266 40.4551 22.1716 39.3878 22.1716 38.3307C22.1716 27.7417 31.1453 18.1971 43.6978 17.0866C64.9816 15.2113 86.393 15.2113 107.669 17.0866C120.24 18.1971 129.208 27.762 129.195 38.3561L129.193 38.3587Z" fill="url(#paint12_linear_99_43920)"/>
<path opacity="0.49" d="M129.193 38.3587C129.193 39.4082 129.098 40.4704 128.917 41.525C127.007 52.6451 116.967 60.3422 105.894 60.3422C105.205 60.3422 104.516 60.3143 103.828 60.2558C85.1023 58.6015 66.2672 58.6015 47.5418 60.2558C38.1217 61.0766 29.1123 56.223 24.7887 48.2819C58.7168 57.6232 120.691 48.2387 129.193 38.3587Z" fill="#96440C"/>
<path opacity="0.55" d="M48.2637 23.9376C52.1646 23.9376 55.3269 23.0149 55.3269 21.8767C55.3269 20.7385 52.1646 19.8159 48.2637 19.8159C44.3628 19.8159 41.2006 20.7385 41.2006 21.8767C41.2006 23.0149 44.3628 23.9376 48.2637 23.9376Z" fill="#F9BE93"/>
<path opacity="0.55" d="M37.1474 24.0443C37.4254 24.8855 36.3668 25.9909 34.7802 26.5118C33.1936 27.0327 31.681 26.771 31.403 25.9299C31.1249 25.0887 32.1835 23.9833 33.7701 23.4624C35.3567 22.9415 36.8693 23.2032 37.1474 24.0443Z" fill="#F9BE93"/>
<defs>
<linearGradient id="paint0_linear_99_43920" x1="40.7516" y1="-12.9825" x2="45.5259" y2="58.0718" gradientUnits="userSpaceOnUse">
<stop stop-color="#95D543"/>
<stop offset="0.26" stop-color="#72B74E"/>
<stop offset="0.58" stop-color="#4E9959"/>
<stop offset="0.83" stop-color="#388660"/>
<stop offset="1" stop-color="#318063"/>
</linearGradient>
<linearGradient id="paint1_linear_99_43920" x1="16.011" y1="85.6806" x2="107.109" y2="65.744" gradientUnits="userSpaceOnUse">
<stop stop-color="#95D543"/>
<stop offset="0.26" stop-color="#72B74E"/>
<stop offset="0.58" stop-color="#4E9959"/>
<stop offset="0.83" stop-color="#388660"/>
<stop offset="1" stop-color="#318063"/>
</linearGradient>
<linearGradient id="paint2_linear_99_43920" x1="48.0775" y1="-9.82926" x2="115.449" y2="116.183" gradientUnits="userSpaceOnUse">
<stop stop-color="#F8A45B"/>
<stop offset="0.22" stop-color="#C87E40"/>
<stop offset="0.47" stop-color="#975824"/>
<stop offset="0.7" stop-color="#733C10"/>
<stop offset="0.88" stop-color="#5D2B04"/>
<stop offset="1" stop-color="#562500"/>
</linearGradient>
<linearGradient id="paint3_linear_99_43920" x1="76.2232" y1="50.5005" x2="87.4525" y2="125.957" gradientUnits="userSpaceOnUse">
<stop stop-color="#F8A45B"/>
<stop offset="0.39" stop-color="#CB7837"/>
<stop offset="0.79" stop-color="#A45218"/>
<stop offset="1" stop-color="#96440C"/>
</linearGradient>
<linearGradient id="paint4_linear_99_43920" x1="65.6578" y1="-5.5448" x2="81.2333" y2="78.3346" gradientUnits="userSpaceOnUse">
<stop stop-color="#F8A45B"/>
<stop offset="0.39" stop-color="#CB7837"/>
<stop offset="0.79" stop-color="#A45218"/>
<stop offset="1" stop-color="#96440C"/>
</linearGradient>
<linearGradient id="paint5_linear_99_43920" x1="117.704" y1="52.3096" x2="117.998" y2="57.7275" gradientUnits="userSpaceOnUse">
<stop offset="0.38" stop-color="#96440C"/>
<stop offset="0.4" stop-color="#9A480F"/>
<stop offset="0.5" stop-color="#B76427"/>
</linearGradient>
<linearGradient id="paint6_linear_99_43920" x1="35.5939" y1="56.4161" x2="35.2522" y2="66.6571" gradientUnits="userSpaceOnUse">
<stop offset="0.38" stop-color="#96440C"/>
<stop offset="0.4" stop-color="#9A480F"/>
<stop offset="0.5" stop-color="#B76427"/>
</linearGradient>
<linearGradient id="paint7_linear_99_43920" x1="86.6965" y1="64.0624" x2="86.7953" y2="67.4702" gradientUnits="userSpaceOnUse">
<stop offset="0.38" stop-color="#96440C"/>
<stop offset="0.4" stop-color="#9A480F"/>
<stop offset="0.5" stop-color="#B76427"/>
</linearGradient>
<linearGradient id="paint8_linear_99_43920" x1="15.9248" y1="30.9334" x2="15.5121" y2="36.1939" gradientUnits="userSpaceOnUse">
<stop offset="0.38" stop-color="#96440C"/>
<stop offset="0.4" stop-color="#9A480F"/>
<stop offset="0.5" stop-color="#B76427"/>
</linearGradient>
<linearGradient id="paint9_linear_99_43920" x1="46.218" y1="13.8441" x2="46.4686" y2="16.6497" gradientUnits="userSpaceOnUse">
<stop offset="0.38" stop-color="#96440C"/>
<stop offset="0.4" stop-color="#9A480F"/>
<stop offset="0.5" stop-color="#B76427"/>
</linearGradient>
<linearGradient id="paint10_linear_99_43920" x1="135.845" y1="30.4989" x2="134.964" y2="36.5071" gradientUnits="userSpaceOnUse">
<stop offset="0.38" stop-color="#96440C"/>
<stop offset="0.4" stop-color="#9A480F"/>
<stop offset="0.5" stop-color="#B76427"/>
</linearGradient>
<linearGradient id="paint11_linear_99_43920" x1="73.9836" y1="26.4178" x2="79.1484" y2="70.7401" gradientUnits="userSpaceOnUse">
<stop stop-color="#F8A45B"/>
<stop offset="0.22" stop-color="#C87E40"/>
<stop offset="0.47" stop-color="#975824"/>
<stop offset="0.7" stop-color="#733C10"/>
<stop offset="0.88" stop-color="#5D2B04"/>
<stop offset="1" stop-color="#562500"/>
</linearGradient>
<linearGradient id="paint12_linear_99_43920" x1="75.6822" y1="17.8312" x2="75.6822" y2="67.2033" gradientUnits="userSpaceOnUse">
<stop stop-color="#F8A45B"/>
<stop offset="0.39" stop-color="#CB7837"/>
<stop offset="0.79" stop-color="#A45218"/>
<stop offset="1" stop-color="#96440C"/>
</linearGradient>
</defs>
</svg>
