<svg width="51" height="55" viewBox="0 0 51 55" fill="none" xmlns="http://www.w3.org/2000/svg">
<g clip-path="url(#clip0_99_132)">
<path d="M6.91298 31.0294C6.92345 31.0294 6.93392 31.0294 6.94439 31.0294C7.03514 31.0294 7.12415 31.0658 7.18524 31.1334L25.041 50.1706C25.0968 50.2295 25.1283 50.3074 25.1283 50.3888C25.1283 50.42 25.1352 51.1787 25.0427 51.96C24.8996 53.1881 24.596 53.784 24.0863 53.836C24.0741 53.836 24.0602 53.8377 24.0462 53.8394C23.9572 53.8429 23.8699 53.81 23.8053 53.7476C23.7408 53.6853 23.7059 53.6004 23.7059 53.5103C23.7129 52.8867 23.4528 52.1453 23.191 51.5598C23.2015 52.2804 23.3097 53.3198 23.7076 54.5791C23.753 54.7211 23.6937 54.8753 23.5662 54.9532C23.5244 54.9792 23.4772 54.9948 23.4301 54.9983C23.3359 55.0087 23.2381 54.9758 23.1666 54.9065C22.4196 54.172 22.1072 53.2522 21.8035 52.3601C21.6918 52.031 21.5784 51.6967 21.4423 51.3658C21.2485 52.1921 20.7791 52.8694 20.7477 52.9144C20.6918 52.9941 20.6045 53.0426 20.512 53.0513C20.4649 53.0565 20.4178 53.0513 20.3707 53.0357C20.2328 52.9872 20.142 52.8538 20.1525 52.7083C20.1525 52.7031 20.163 52.3947 20.0077 51.8283C19.9937 52.3203 19.9466 52.6754 19.9413 52.7117C19.9204 52.8607 19.8 52.975 19.6516 52.9906C19.6429 52.9906 19.6342 52.9906 19.6255 52.9906C19.4649 52.9941 19.3253 52.8832 19.2956 52.7273C19.0931 51.6776 18.3724 50.8098 17.9081 50.3438C17.6149 51.3589 16.9639 52.3636 16.9308 52.4138C16.8749 52.4987 16.7842 52.5506 16.6899 52.5593C16.6184 52.5662 16.5451 52.5506 16.4805 52.5091C16.3287 52.4121 16.285 52.2129 16.381 52.0622C16.3985 52.0327 16.8069 51.3312 16.1803 50.2676C16.0232 51.0194 16.2885 52.4138 16.5922 53.3579C16.6445 53.519 16.5643 53.6905 16.4072 53.7563C16.3775 53.7684 16.3461 53.7771 16.3147 53.7805C16.1855 53.7944 16.0546 53.7286 15.9918 53.609C15.9674 53.5623 15.4019 52.4866 14.1244 49.5348C13.805 50.1238 14.1104 51.054 14.1139 51.0644C14.1698 51.2324 14.0808 51.4143 13.9132 51.4732C13.887 51.4819 13.8626 51.4871 13.8364 51.4905C13.6933 51.5061 13.5519 51.423 13.4978 51.2844C13.4821 51.2428 13.154 50.3698 13.1139 48.6999C12.4873 49.2438 11.5344 49.7548 10.7299 49.838C10.2901 49.883 9.92181 49.7999 9.63733 49.592C9.53785 49.5192 9.48724 49.3963 9.50818 49.275C9.52912 49.1537 9.61813 49.055 9.73681 49.0186C10.3476 48.835 10.7578 48.5111 10.9882 48.0243C11.3494 47.2604 11.1784 46.2765 11.0108 45.6754C10.6356 46.1882 10.0911 47.0629 10.0073 47.9291C9.99336 48.0694 9.89039 48.1854 9.75251 48.2149C9.7403 48.2183 9.72808 48.2201 9.71586 48.2201C9.59021 48.2322 9.46629 48.1716 9.39997 48.0607C8.86767 47.16 9.02998 45.691 9.23417 44.7002C8.46626 45.4468 7.55349 46.5502 7.54127 47.4544C7.53952 47.593 7.44877 47.716 7.31613 47.7593C7.29344 47.7662 7.27075 47.7714 7.24807 47.7732C7.13637 47.7853 7.02293 47.7385 6.95312 47.645C5.46441 45.6841 6.38591 43.5275 7.12764 42.3495C6.78034 42.45 6.37369 42.5418 5.95308 42.5851C5.07522 42.6752 4.36141 42.5297 3.83085 42.1538C3.72089 42.0759 3.67028 41.9373 3.70519 41.8074C3.74009 41.6774 3.85179 41.5822 3.98792 41.5683C4.604 41.506 5.31781 40.8633 5.9269 40.1444C5.48186 40.4164 4.98621 40.6606 4.48183 40.8061C4.46263 40.8113 4.44343 40.8148 4.42423 40.8165C4.35617 40.8235 4.2881 40.8096 4.22877 40.775C4.15197 40.7316 4.09613 40.6589 4.07344 40.5723C4.04202 40.4458 4.04551 40.2986 4.08216 40.1375C3.78896 40.6173 3.50448 41.1612 3.24793 41.7745C3.20081 41.8853 3.09784 41.9615 2.97916 41.9737C2.97043 41.9737 2.96171 41.9737 2.95298 41.9737C2.82383 41.9771 2.70341 41.9026 2.6493 41.7866C1.72606 39.817 3.10133 37.0732 3.88844 35.7653C3.46085 35.8745 2.91807 35.9905 2.36832 36.046C1.32814 36.1534 0.572445 36.0113 0.120422 35.6285C0.00698049 35.5315 -0.0261795 35.3721 0.0383952 35.2387C0.0890077 35.1365 0.188488 35.069 0.298439 35.0586C0.329854 35.0551 0.363014 35.0569 0.396174 35.0638C0.563719 35.0967 0.748716 35.1036 0.949421 35.0828C3.28109 34.8438 6.67562 31.168 6.71053 31.1299C6.76463 31.071 6.83967 31.0329 6.91821 31.026L6.91298 31.0294Z" fill="url(#paint0_linear_99_132)"/>
<path d="M5.97403 35.4588C5.97403 35.4588 3.42072 39.0098 4.4574 41.2253C5.82568 37.9584 8.01424 36.8393 8.01424 36.8393C8.01424 36.8393 5.53946 39.3528 5.75238 40.1895C7.14161 39.7893 8.49244 38.4538 8.49244 38.4538C8.49244 38.4538 6.84666 41.2929 5.42253 41.4384C6.6861 42.3357 9.00729 41.2496 9.00729 41.2496C9.00729 41.2496 6.45747 44.0125 8.28127 46.4168C8.30221 44.8959 10.606 43.1117 10.606 43.1117C10.606 43.1117 9.79266 45.6356 10.4908 46.8153C10.6147 45.5074 11.7875 44.2256 11.7875 44.2256C11.7875 44.2256 13.1226 47.3488 10.6252 48.0971C11.5397 48.7623 13.6549 47.3522 13.8661 46.7027C13.7858 48.7103 14.182 49.741 14.182 49.741C14.182 49.741 13.6986 48.3171 14.5642 47.7593C15.8417 50.7318 16.402 51.7919 16.402 51.7919C16.402 51.7919 15.5381 49.1105 16.2711 48.3656C17.3584 49.7289 16.7388 50.6989 16.7388 50.6989C16.7388 50.6989 17.5626 49.4396 17.6795 48.4453C17.6795 48.4453 19.0949 49.5504 19.3898 51.0835C19.3898 51.0835 19.6464 49.2265 19.0914 48.2114C20.2293 50.0597 20.1613 51.1389 20.1613 51.1389C20.1613 51.1389 21.1683 49.7063 20.6621 48.6583C21.718 50.0857 21.6203 51.7486 22.7739 52.8815C22.0357 50.5447 22.3742 49.036 22.3742 49.036C22.3742 49.036 23.3603 50.6331 23.3464 51.8404C24.0584 51.8127 24.034 49.0446 24.034 49.0446L8.05089 32.003C8.05089 32.003 4.33523 36.0564 2.12573 35.6129C3.11006 36.4496 5.98101 35.457 5.98101 35.457L5.97403 35.4588Z" fill="#318063"/>
<path d="M23.8002 46.6074C23.8002 46.597 23.8037 46.5866 23.8054 46.5762C23.8246 46.4878 23.8805 46.4116 23.9607 46.3649L46.6055 33.2761C46.6753 33.2346 46.7591 33.2224 46.8394 33.2398C46.8708 33.2467 47.616 33.4078 48.3647 33.6694C49.5393 34.0782 50.0576 34.5043 49.9983 35.0101C49.9983 35.0222 49.9948 35.0361 49.993 35.0482C49.9773 35.1365 49.925 35.2128 49.8499 35.2613C49.7749 35.3098 49.6824 35.3254 49.5951 35.3046C48.9843 35.1608 48.1972 35.2491 47.5654 35.3739C48.2757 35.5228 49.3211 35.6476 50.6475 35.5402C50.7976 35.528 50.9355 35.6181 50.9843 35.7602C51.0001 35.8069 51.0053 35.8554 51.0001 35.9022C50.9878 35.9957 50.9355 36.0841 50.8517 36.1378C49.9651 36.699 48.9913 36.7995 48.0488 36.8965C47.7015 36.9329 47.3472 36.9692 46.9929 37.0281C47.7626 37.3971 48.3246 38.0017 48.3612 38.0415C48.4275 38.1125 48.4555 38.2078 48.445 38.2996C48.4398 38.3464 48.424 38.3914 48.3979 38.433C48.3211 38.556 48.1692 38.6131 48.0279 38.5733C48.0226 38.5733 47.7225 38.4936 47.1308 38.5196C47.6108 38.6408 47.9493 38.7656 47.9842 38.7777C48.1256 38.8314 48.2129 38.9734 48.1937 39.1207C48.1937 39.1293 48.1919 39.138 48.1902 39.1449C48.1588 39.3008 48.0191 39.4117 47.8586 39.4065C46.7818 39.3701 45.7695 39.8777 45.2093 40.2241C46.1413 40.7317 46.986 41.5839 47.0278 41.6272C47.0994 41.7 47.1291 41.7987 47.1186 41.8922C47.1099 41.9633 47.0785 42.0308 47.0244 42.0845C46.8969 42.2092 46.6893 42.2092 46.5636 42.0828C46.5374 42.0585 45.9388 41.5094 44.7555 41.8818C45.4606 42.2006 46.89 42.2508 47.883 42.1642C48.0523 42.1503 48.2041 42.2647 48.2338 42.431C48.2391 42.4639 48.2408 42.4951 48.2373 42.5262C48.2216 42.6544 48.1291 42.7653 47.9965 42.8017C47.9459 42.8155 46.7626 43.1256 43.581 43.7111C44.0906 44.1493 45.0697 44.0593 45.0819 44.0593C45.2581 44.0419 45.417 44.1684 45.4397 44.3433C45.4431 44.3693 45.4431 44.3953 45.4397 44.4213C45.4222 44.5633 45.3105 44.6829 45.1622 44.7037C45.1168 44.7106 44.1883 44.8353 42.5373 44.5044C42.9335 45.2302 43.2267 46.2661 43.1307 47.0647C43.0783 47.4995 42.916 47.839 42.649 48.0694C42.5547 48.1508 42.4238 48.1716 42.3087 48.1248C42.1935 48.078 42.1167 47.9706 42.108 47.8476C42.0626 47.2154 41.8339 46.7477 41.4064 46.4168C40.7362 45.8989 39.7309 45.8469 39.1026 45.8764C39.5232 46.3527 40.2632 47.0733 41.0957 47.3436C41.2301 47.3869 41.3208 47.5133 41.3208 47.6536C41.3208 47.6658 41.3208 47.6796 41.3191 47.6917C41.3034 47.8165 41.2161 47.9239 41.094 47.962C40.0922 48.279 38.6838 47.7974 37.7553 47.3817C38.3207 48.2894 39.2021 49.417 40.0887 49.6284C40.2248 49.6613 40.3243 49.7756 40.3383 49.9142C40.34 49.9367 40.34 49.961 40.3383 49.9835C40.3243 50.0943 40.2545 50.1931 40.148 50.2416C37.8931 51.2497 35.9769 49.883 34.9821 48.906C35.0047 49.2646 35.0047 49.6769 34.9541 50.0961C34.8494 50.9657 34.5492 51.6256 34.0623 52.0552C33.9611 52.1453 33.8145 52.1626 33.6941 52.1003C33.5736 52.0379 33.5038 51.908 33.5213 51.7746C33.5946 51.1649 33.1199 50.3317 32.5492 49.5851C32.7167 50.0753 32.8493 50.6088 32.8825 51.1302C32.8825 51.1493 32.8825 51.1701 32.8808 51.1891C32.872 51.2567 32.8441 51.319 32.797 51.3693C32.7376 51.4351 32.6521 51.4715 32.5631 51.4749C32.4305 51.4784 32.2874 51.4403 32.1373 51.371C32.5439 51.7607 33.0151 52.1557 33.5614 52.5403C33.6591 52.6095 33.7115 52.7256 33.6975 52.8434C33.6975 52.8521 33.6958 52.8607 33.6941 52.8694C33.6679 52.9958 33.5701 53.0946 33.4427 53.1223C31.303 53.5813 28.9103 51.6464 27.7986 50.595C27.8108 51.0332 27.8055 51.5841 27.7392 52.1297C27.6153 53.1604 27.3099 53.8619 26.8334 54.2136C26.7148 54.3019 26.549 54.2985 26.4338 54.2067C26.3448 54.1356 26.3011 54.023 26.3133 53.9139C26.3168 53.8827 26.3256 53.8498 26.3395 53.8204C26.4093 53.6662 26.4565 53.4878 26.4809 53.2903C26.7601 50.9813 23.8962 46.8828 23.8665 46.8412C23.8194 46.7754 23.8002 46.6957 23.8106 46.616L23.8002 46.6074Z" fill="url(#paint1_linear_99_132)"/>
<path d="M27.9469 48.4938C27.9469 48.4938 30.8737 51.7486 33.2804 51.2324C30.371 49.1884 29.755 46.8222 29.755 46.8222C29.755 46.8222 31.68 49.7721 32.5474 49.7514C32.4601 48.3188 31.4461 46.7148 31.4461 46.7148C31.4461 46.7148 33.8738 48.9337 33.7027 50.3455C34.8633 49.32 34.3066 46.8343 34.3066 46.8343C34.3066 46.8343 36.4603 49.9125 39.2248 48.6756C37.7343 48.3205 36.4899 45.6962 36.4899 45.6962C36.4899 45.6962 38.7919 47.0404 40.1044 46.6229C38.846 46.2141 37.846 44.7972 37.846 44.7972C37.846 44.7972 41.2109 44.1944 41.3941 46.7754C42.2493 46.0357 41.3295 43.6782 40.7396 43.3317C42.6943 43.8531 43.7956 43.6955 43.7956 43.6955C43.7956 43.6955 42.2894 43.8497 41.9317 42.89C45.1342 42.3097 46.3 41.9996 46.3 41.9996C46.3 41.9996 43.4745 42.2456 42.9038 41.3726C44.4832 40.6208 45.3 41.4332 45.3 41.4332C45.3 41.4332 44.2441 40.3592 43.293 40.0266C43.293 40.0266 44.6909 38.9007 46.2634 38.9526C46.2634 38.9526 44.4937 38.2944 43.375 38.6097C45.4431 37.9168 46.4885 38.2199 46.4885 38.2199C46.4885 38.2199 45.3018 36.9294 44.1603 37.1892C45.7957 36.4825 47.4083 36.9433 48.7748 36.0754C46.3157 36.2746 44.9073 35.6146 44.9073 35.6146C44.9073 35.6146 46.6927 35.0118 47.876 35.2924C48.0052 34.5961 45.2808 34.0106 45.2808 34.0106L25.0114 45.7274C25.0114 45.7274 28.1755 50.2191 27.2523 52.2596C28.2924 51.4922 27.9486 48.4938 27.9486 48.4938H27.9469Z" fill="#318063"/>
<path d="M6.91294 23.9706C6.92341 23.9706 6.93388 23.9706 6.94435 23.9706C7.03511 23.9706 7.12412 23.9342 7.1852 23.8667L25.0427 4.83119C25.0986 4.7723 25.13 4.69435 25.13 4.61293C25.13 4.58175 25.1369 3.82303 25.0444 3.0418C24.9013 1.81365 24.5977 1.21776 24.088 1.1658C24.0758 1.1658 24.0619 1.16406 24.0479 1.16233C23.9589 1.15887 23.8716 1.19178 23.8071 1.25414C23.7425 1.3165 23.7076 1.40138 23.7076 1.49145C23.7146 2.11506 23.4545 2.85645 23.1927 3.44194C23.2032 2.72134 23.3114 1.682 23.7093 0.422669C23.7547 0.280627 23.6954 0.126458 23.568 0.0485078C23.5261 0.0225244 23.479 0.00693433 23.4318 0.00346987C23.3376 -0.0069235 23.2398 0.0259888 23.1683 0.095278C22.4213 0.829743 22.1089 1.74956 21.8052 2.64165C21.6936 2.97078 21.5801 3.3051 21.444 3.63595C21.2503 2.80968 20.7808 2.13238 20.7494 2.08734C20.6935 2.00766 20.6063 1.95916 20.5138 1.9505C20.4666 1.9453 20.4195 1.9505 20.3724 1.96609C20.2345 2.01459 20.1438 2.14797 20.1542 2.29348C20.1542 2.29867 20.1647 2.60701 20.0094 3.17345C19.9954 2.6815 19.9483 2.32639 19.9431 2.29001C19.9221 2.14104 19.8017 2.02671 19.6533 2.01112C19.6446 2.01112 19.6359 2.01112 19.6272 2.01112C19.4666 2.00766 19.327 2.11852 19.2973 2.27442C19.0949 3.32415 18.3741 4.192 17.9098 4.65797C17.6166 3.64288 16.9656 2.63819 16.9325 2.58796C16.8766 2.50308 16.7859 2.45111 16.6916 2.44245C16.6201 2.43552 16.5468 2.45111 16.4822 2.49268C16.3304 2.58969 16.2867 2.78889 16.3827 2.9396C16.4002 2.96905 16.8086 3.6706 16.182 4.73419C16.0249 3.9824 16.2902 2.58796 16.5939 1.64389C16.6463 1.48279 16.566 1.3113 16.4089 1.24548C16.3792 1.23335 16.3478 1.22469 16.3164 1.22123C16.1873 1.20737 16.0564 1.27319 15.9935 1.39272C15.9691 1.43949 15.4036 2.5152 14.1261 5.46692C13.8067 4.87796 14.1121 3.94775 14.1156 3.93736C14.1715 3.76934 14.0825 3.58745 13.9149 3.52856C13.8887 3.51989 13.8643 3.5147 13.8381 3.51123C13.695 3.49564 13.5537 3.57879 13.4996 3.71737C13.4838 3.75894 13.1557 4.63199 13.1156 6.30185C12.489 5.75793 11.5361 5.24693 10.7316 5.16378C10.2918 5.11874 9.92351 5.20189 9.63904 5.40976C9.53956 5.48251 9.48894 5.6055 9.50989 5.72675C9.53083 5.84801 9.61984 5.94675 9.73852 5.98312C10.3494 6.16674 10.7595 6.49067 10.9899 6.97742C11.3511 7.74134 11.1801 8.72524 11.0126 9.32633C10.6373 8.81359 10.0928 7.93881 10.009 7.0727C9.99507 6.93239 9.8921 6.81633 9.75422 6.78688C9.74201 6.78341 9.72979 6.78168 9.71757 6.78168C9.59191 6.76956 9.468 6.83018 9.40168 6.94105C8.86938 7.84181 9.03168 9.31074 9.23588 10.3016C8.46797 9.55498 7.5552 8.45155 7.54298 7.54733C7.54123 7.40875 7.45048 7.28576 7.31784 7.24245C7.29515 7.23553 7.27246 7.23033 7.24977 7.2286C7.13808 7.21647 7.02464 7.26324 6.95483 7.35678C5.46612 9.31767 6.38762 11.4743 7.12935 12.6522C6.78204 12.5517 6.3754 12.4599 5.95479 12.4166C5.07693 12.3265 4.36311 12.4721 3.83255 12.8479C3.7226 12.9259 3.67199 13.0645 3.7069 13.1944C3.7418 13.3243 3.8535 13.4196 3.98963 13.4334C4.60571 13.4958 5.31952 14.1385 5.92861 14.8573C5.48357 14.5854 4.98792 14.3411 4.48354 14.1956C4.46434 14.1904 4.44514 14.187 4.42594 14.1852C4.35788 14.1783 4.28981 14.1922 4.23047 14.2268C4.15368 14.2701 4.09783 14.3429 4.07515 14.4295C4.04373 14.5559 4.04722 14.7032 4.08387 14.8643C3.79067 14.3844 3.50619 13.8405 3.24964 13.2273C3.20252 13.1164 3.09955 13.0402 2.98087 13.0281C2.97214 13.0281 2.96342 13.0281 2.95469 13.0281C2.82554 13.0246 2.70512 13.0991 2.65101 13.2152C1.72777 15.1847 3.10304 17.9286 3.89015 19.2364C3.46256 19.1273 2.91978 19.0112 2.37003 18.9558C1.32985 18.8484 0.574154 18.9904 0.122131 19.3733C0.00868948 19.4703 -0.0244705 19.6296 0.0401042 19.763C0.0907167 19.8652 0.190197 19.9328 0.300148 19.9432C0.331563 19.9466 0.364723 19.9449 0.397883 19.938C0.565428 19.905 0.750425 19.8981 0.95113 19.9189C3.2828 20.158 6.67733 23.8337 6.71223 23.8719C6.76634 23.9307 6.84138 23.9689 6.91992 23.9758L6.91294 23.9706Z" fill="url(#paint2_linear_99_132)"/>
<path d="M5.97403 19.5413C5.97403 19.5413 3.42072 15.9902 4.4574 13.7747C5.82568 17.0417 8.01424 18.1607 8.01424 18.1607C8.01424 18.1607 5.53946 15.6472 5.75238 14.8106C7.14161 15.2107 8.49244 16.5463 8.49244 16.5463C8.49244 16.5463 6.84666 13.7071 5.42253 13.5616C6.6861 12.6643 9.00729 13.7504 9.00729 13.7504C9.00729 13.7504 6.45747 10.9875 8.28127 8.5832C8.30221 10.1041 10.606 11.8883 10.606 11.8883C10.606 11.8883 9.79266 9.36444 10.4908 8.18479C10.6147 9.49262 11.7875 10.7745 11.7875 10.7745C11.7875 10.7745 13.1226 7.65126 10.6252 6.90294C11.5397 6.23776 13.6549 7.6478 13.8661 8.29565C13.7858 6.288 14.182 5.25732 14.182 5.25732C14.182 5.25732 13.6986 6.68121 14.5642 7.23899C15.8417 4.26649 16.402 3.20636 16.402 3.20636C16.402 3.20636 15.5381 5.88785 16.2711 6.63271C17.3584 5.26945 16.7388 4.2994 16.7388 4.2994C16.7388 4.2994 17.5626 5.55873 17.6795 6.55303C17.6795 6.55303 19.0949 5.44787 19.3898 3.91484C19.3898 3.91484 19.6464 5.77179 19.0914 6.78688C20.2293 4.93859 20.1613 3.85941 20.1613 3.85941C20.1613 3.85941 21.1683 5.29197 20.6621 6.33996C21.718 4.91261 21.6203 3.24967 22.7739 2.11679C22.0357 4.45357 22.3742 5.96234 22.3742 5.96234C22.3742 5.96234 23.3603 4.36522 23.3464 3.15786C24.0584 3.18558 24.034 5.95368 24.034 5.95368L8.05089 22.9953C8.05089 22.9953 4.33523 18.9419 2.12573 19.3854C3.11006 18.5487 5.98101 19.5413 5.98101 19.5413H5.97403Z" fill="#318063"/>
<path d="M23.8002 8.39266C23.8002 8.40305 23.8037 8.41344 23.8054 8.42384C23.8246 8.51218 23.8805 8.5884 23.9607 8.63517L46.6055 21.7239C46.6753 21.7655 46.7591 21.7776 46.8394 21.7603C46.8708 21.7533 47.616 21.5922 48.3647 21.3307C49.5393 20.9219 50.0576 20.4957 49.9983 19.9899C49.9983 19.9778 49.9948 19.9639 49.993 19.9518C49.9773 19.8635 49.925 19.7873 49.8499 19.7388C49.7749 19.6903 49.6824 19.6747 49.5951 19.6954C48.9843 19.8392 48.1972 19.7509 47.5654 19.6262C48.2757 19.4772 49.3211 19.3525 50.6475 19.4599C50.7976 19.472 50.9355 19.3819 50.9843 19.2399C51.0001 19.1931 51.0053 19.1446 51.0001 19.0978C50.9878 19.0043 50.9355 18.9159 50.8517 18.8622C49.9651 18.301 48.9913 18.2005 48.0488 18.1035C47.7015 18.0672 47.3472 18.0308 46.9929 17.9719C47.7626 17.6029 48.3246 16.9984 48.3612 16.9585C48.4275 16.8875 48.4555 16.7922 48.445 16.7004C48.4398 16.6537 48.424 16.6086 48.3979 16.567C48.3211 16.4441 48.1692 16.3869 48.0279 16.4267C48.0226 16.4267 47.7225 16.5064 47.1308 16.4804C47.6108 16.3592 47.9493 16.2345 47.9842 16.2223C48.1256 16.1686 48.2129 16.0266 48.1937 15.8793C48.1937 15.8707 48.1919 15.862 48.1902 15.8551C48.1588 15.6992 48.0191 15.5883 47.8586 15.5935C46.7818 15.6299 45.7695 15.1224 45.2093 14.7759C46.1413 14.2684 46.986 13.4161 47.0278 13.3728C47.0994 13.3001 47.1291 13.2013 47.1186 13.1078C47.1099 13.0368 47.0785 12.9692 47.0244 12.9155C46.8969 12.7908 46.6893 12.7908 46.5636 12.9172C46.5374 12.9415 45.9388 13.4906 44.7555 13.1182C45.4606 12.7994 46.89 12.7492 47.883 12.8358C48.0523 12.8497 48.2041 12.7354 48.2338 12.5691C48.2391 12.5361 48.2408 12.505 48.2373 12.4738C48.2216 12.3456 48.1291 12.2347 47.9965 12.1984C47.9459 12.1845 46.7626 11.8744 43.581 11.2889C44.0906 10.8507 45.0697 10.9408 45.0819 10.9408C45.2581 10.9581 45.417 10.8316 45.4397 10.6567C45.4431 10.6307 45.4431 10.6047 45.4397 10.5787C45.4222 10.4367 45.3105 10.3172 45.1622 10.2964C45.1168 10.2894 44.1883 10.1647 42.5373 10.4956C42.9335 9.76978 43.2267 8.7339 43.1307 7.93535C43.0783 7.50056 42.916 7.16104 42.649 6.93065C42.5547 6.84924 42.4238 6.82845 42.3087 6.87522C42.1935 6.92199 42.1167 7.02939 42.108 7.15238C42.0626 7.78464 41.8339 8.25235 41.4064 8.5832C40.7362 9.10114 39.7309 9.1531 39.1026 9.12366C39.5232 8.64729 40.2632 7.92669 41.0957 7.65646C41.2301 7.61315 41.3208 7.4867 41.3208 7.34639C41.3208 7.33426 41.3208 7.32041 41.3191 7.30828C41.3034 7.18356 41.2161 7.07616 41.094 7.03805C40.0922 6.72106 38.6838 7.20261 37.7553 7.61835C38.3207 6.71066 39.2021 5.58298 40.0887 5.37165C40.2248 5.33874 40.3243 5.22441 40.3383 5.08583C40.34 5.06331 40.34 5.03906 40.3383 5.01654C40.3243 4.90568 40.2545 4.80694 40.148 4.75844C37.8931 3.75028 35.9769 5.11701 34.9821 6.09399C35.0047 5.73542 35.0047 5.32315 34.9541 4.90395C34.8494 4.03437 34.5492 3.37439 34.0623 2.9448C33.9611 2.85472 33.8145 2.8374 33.6941 2.89976C33.5736 2.96212 33.5038 3.09204 33.5213 3.22542C33.5946 3.83516 33.1199 4.66836 32.5492 5.41495C32.7167 4.92473 32.8493 4.39121 32.8825 3.86981C32.8825 3.85075 32.8825 3.82996 32.8808 3.81091C32.872 3.74335 32.8441 3.68099 32.797 3.63076C32.7376 3.56493 32.6521 3.52856 32.5631 3.52509C32.4305 3.52163 32.2874 3.55974 32.1373 3.62903C32.5439 3.23927 33.0151 2.84433 33.5614 2.45977C33.6591 2.39048 33.7115 2.27442 33.6975 2.15663C33.6975 2.14797 33.6958 2.13931 33.6941 2.13065C33.6679 2.0042 33.5701 1.90546 33.4427 1.87774C31.303 1.4187 28.9103 3.3536 27.7986 4.40506C27.8108 3.96681 27.8055 3.41596 27.7392 2.87031C27.6153 1.83963 27.3099 1.13808 26.8334 0.786439C26.7148 0.698095 26.549 0.701559 26.4338 0.793368C26.3448 0.864389 26.3011 0.976984 26.3133 1.08611C26.3168 1.11729 26.3256 1.15021 26.3395 1.17965C26.4093 1.33382 26.4565 1.51224 26.4809 1.70972C26.7601 4.01878 23.8962 8.11723 23.8665 8.1588C23.8194 8.22463 23.8002 8.30431 23.8106 8.384L23.8002 8.39266Z" fill="url(#paint3_linear_99_132)"/>
<path d="M27.9469 6.50626C27.9469 6.50626 30.8737 3.2514 33.2804 3.76761C30.371 5.81164 29.755 8.17786 29.755 8.17786C29.755 8.17786 31.68 5.22787 32.5474 5.24866C32.4601 6.68121 31.4461 8.28526 31.4461 8.28526C31.4461 8.28526 33.8738 6.06627 33.7027 4.65451C34.8633 5.67999 34.3066 8.16747 34.3066 8.16747C34.3066 8.16747 36.4603 5.0893 39.2248 6.32611C37.7343 6.68122 36.4899 9.30554 36.4899 9.30554C36.4899 9.30554 38.7919 7.96133 40.1044 8.3788C38.846 8.78761 37.846 10.2046 37.846 10.2046C37.846 10.2046 41.2109 10.8074 41.3941 8.22636C42.2493 8.96602 41.3295 11.3253 40.7396 11.67C42.6943 11.1486 43.7956 11.3063 43.7956 11.3063C43.7956 11.3063 42.2894 11.1521 41.9317 12.1118C45.1342 12.692 46.3 13.0021 46.3 13.0021C46.3 13.0021 43.4745 12.7561 42.9038 13.6292C44.4832 14.381 45.3 13.5686 45.3 13.5686C45.3 13.5686 44.2441 14.6425 43.293 14.9751C43.293 14.9751 44.6909 16.1011 46.2634 16.0491C46.2634 16.0491 44.4937 16.7074 43.375 16.3921C45.4431 17.085 46.4885 16.7818 46.4885 16.7818C46.4885 16.7818 45.3018 18.0724 44.1603 17.8125C45.7957 18.5193 47.4083 18.0585 48.7748 18.9263C46.3157 18.7271 44.9073 19.3871 44.9073 19.3871C44.9073 19.3871 46.6927 19.9899 47.876 19.7093C48.0052 20.4057 45.2808 20.9912 45.2808 20.9912L25.0114 9.27436C25.0114 9.27436 28.1755 4.78269 27.2523 2.74213C28.2924 3.5095 27.9486 6.50799 27.9486 6.50799L27.9469 6.50626Z" fill="#318063"/>
<path d="M49.9301 26.4806C49.9301 28.5471 47.6665 30.2898 47.1534 32.1952C46.6229 34.1665 47.6892 36.796 46.6822 38.523C45.6612 40.2743 42.8234 40.6658 41.3923 42.088C39.9612 43.5084 39.565 46.325 37.8006 47.3384C36.0605 48.3378 33.4112 47.2795 31.4251 47.8061C29.5053 48.3153 27.7496 50.562 25.6675 50.562C23.5854 50.562 21.8297 48.3153 19.9099 47.8061C17.9238 47.2795 15.2745 48.3378 13.5345 47.3384C11.77 46.325 11.3756 43.5084 9.94272 42.088C8.51161 40.6675 5.67381 40.2743 4.65284 38.523C3.64582 36.796 4.71218 34.1665 4.18162 32.1952C3.66851 30.2898 1.40491 28.5471 1.40491 26.4806C1.40491 24.414 3.66851 22.6714 4.18162 20.766C4.71218 18.7947 3.64582 16.1652 4.65284 14.4381C5.67381 12.6868 8.51161 12.2954 9.94272 10.8732C11.3738 9.45278 11.77 6.63617 13.5345 5.62282C15.2745 4.62332 17.9238 5.68171 19.9099 5.15512C21.8297 4.64584 23.5854 2.39914 25.6675 2.39914C27.7496 2.39914 29.5053 4.64584 31.4251 5.15512C33.4112 5.68171 36.0605 4.62332 37.8006 5.62282C39.565 6.63617 39.9595 9.45278 41.3923 10.8732C42.8234 12.2936 45.6612 12.6868 46.6822 14.4381C47.6892 16.1652 46.6229 18.7947 47.1534 20.766C47.6665 22.6714 49.9301 24.414 49.9301 26.4806Z" fill="url(#paint4_linear_99_132)"/>
<path d="M48.7172 25.2749C48.7172 25.7132 48.6107 26.1376 48.4362 26.5499C48.218 27.0747 47.8951 27.5823 47.5548 28.0846C46.9632 28.9577 46.3209 29.8099 46.0801 30.702C45.752 31.9215 46.0661 33.406 46.0626 34.745C46.0591 35.4622 45.9666 36.1412 45.6315 36.7146C45.5321 36.8861 45.4134 37.0437 45.279 37.1892C44.1219 38.4641 41.8269 38.8903 40.6069 40.0994C39.2474 41.4488 38.8721 44.1251 37.1967 45.0864C35.5439 46.0357 33.0273 45.031 31.1389 45.5316C29.3151 46.0149 27.6484 48.149 25.6692 48.149C23.6901 48.149 22.0234 46.0149 20.1979 45.5316C18.3112 45.031 15.7946 46.0374 14.1418 45.0864C12.4664 44.1251 12.0911 41.4488 10.7298 40.0994C9.37026 38.75 6.67383 38.3775 5.70521 36.7146C5.66682 36.6488 5.63191 36.5829 5.6005 36.5136C5.35965 36.0009 5.28286 35.4154 5.27762 34.7987C5.26541 33.4441 5.59177 31.9371 5.25843 30.702C4.7715 28.8918 2.62134 27.2358 2.62134 25.2732C2.62134 23.3106 4.7715 21.6546 5.25843 19.8427C5.76281 17.9701 4.74881 15.4723 5.70521 13.8318C6.67558 12.1689 9.37201 11.7965 10.7298 10.4453C12.0894 9.09593 12.4664 6.41964 14.1418 5.45825C15.7946 4.50899 18.3112 5.51541 20.1979 5.0148C22.0217 4.53151 23.6901 2.3974 25.6692 2.3974C27.6484 2.3974 29.3151 4.53151 31.1389 5.0148C33.0273 5.51541 35.5439 4.50899 37.1967 5.45825C38.8268 6.39365 39.2264 8.94869 40.4952 10.3293C40.5319 10.3691 40.5685 10.409 40.6069 10.4453C41.5843 11.4154 43.2475 11.8796 44.4692 12.6816C44.9491 12.9952 45.3593 13.3624 45.6333 13.8318C46.5897 15.4723 45.5774 17.9701 46.0818 19.8427C46.5687 21.6529 48.7189 23.3089 48.7189 25.2732L48.7172 25.2749Z" fill="url(#paint5_linear_99_132)"/>
<path d="M45.6018 30.392C45.1027 32.2437 46.1045 34.7156 45.1603 36.3387C44.2021 37.9826 41.5354 38.3516 40.1898 39.6871C38.8459 41.0209 38.4742 43.6678 36.8162 44.6188C35.1809 45.5576 32.6921 44.5633 30.8265 45.057C29.0219 45.5368 27.3708 47.6467 25.4161 47.6467C23.4615 47.6467 21.8087 45.5351 20.0058 45.057C18.1402 44.5616 15.6497 45.5559 14.0161 44.6188C12.3581 43.6678 11.9864 41.0209 10.6425 39.6854C9.29692 38.3516 6.63016 37.9826 5.67202 36.337C4.72609 34.7139 5.72786 32.2437 5.23047 30.3902C4.74703 28.6008 2.62305 26.9622 2.62305 25.0221C2.62305 24.0139 3.19549 23.0889 3.81506 22.1812C4.23392 21.5663 4.67373 20.9565 4.97217 20.3381C5.08037 20.1112 5.16938 19.8825 5.23221 19.6539C5.73136 17.8021 4.72958 15.3302 5.67376 13.7089C6.63191 12.0633 9.29867 11.6943 10.6443 10.3605C11.9881 9.02492 12.3599 6.37808 14.0179 5.42708C15.6514 4.48821 18.1402 5.48251 20.0076 4.98883C21.8104 4.509 23.4615 2.40088 25.4179 2.40088C27.3743 2.40088 29.0236 4.51073 30.8265 4.98883C32.6921 5.48425 35.1826 4.48995 36.8179 5.42708C38.3991 6.33477 38.8093 8.78587 40.0153 10.1699C40.0694 10.2357 40.1287 10.2998 40.1915 10.3605C41.1567 11.3184 42.7989 11.7774 44.0049 12.5691C44.4814 12.8809 44.8898 13.2429 45.1603 13.7106C46.1062 15.332 45.1044 17.8021 45.6018 19.6556C46.0853 21.445 48.211 23.0837 48.211 25.0255C48.211 26.9673 46.0835 28.6043 45.6018 30.3937V30.392Z" fill="url(#paint6_linear_99_132)"/>
<path d="M13.6427 21.3116C10.4314 21.8209 6.42954 22.0686 3.81165 22.1829C4.23051 21.568 4.67031 20.9582 4.96875 20.3398C7.25504 20.4836 10.3808 20.5996 13.5537 20.4593C14.1 20.4351 14.182 21.2267 13.6427 21.3133V21.3116Z" fill="url(#paint7_linear_99_132)"/>
<path d="M48.4361 26.5516C48.218 27.0765 47.8951 27.584 47.5548 28.0864C23.0129 28.7793 11.0719 33.2813 5.60046 36.5154C5.35962 36.0026 5.28282 35.4172 5.27759 34.8005C5.67725 34.3345 6.11531 33.827 6.59875 33.2709C20.1594 28.0327 41.2474 26.8201 48.4361 26.5516Z" fill="url(#paint8_linear_99_132)"/>
<path d="M46.0626 34.7468C46.0591 35.4639 45.9666 36.1429 45.6315 36.7163C45.532 36.8878 45.4133 37.0454 45.279 37.1909C42.9124 37.7938 36.8563 39.2384 31.0237 39.8118C30.617 39.8516 30.5315 39.2558 30.9347 39.183C36.886 38.0934 42.8653 35.9801 46.0643 34.7485L46.0626 34.7468Z" fill="url(#paint9_linear_99_132)"/>
<path d="M44.4674 12.6851C41.4324 13.4854 32.748 15.5952 25.2765 15.6264C24.8123 15.6281 24.746 14.9612 25.2032 14.8746C31.1615 13.7643 37.2246 11.6007 40.4934 10.331C40.5301 10.3708 40.5668 10.4107 40.6051 10.4471C41.5825 11.4171 43.2457 11.8813 44.4674 12.6834V12.6851Z" fill="url(#paint10_linear_99_132)"/>
<path d="M22.6028 36.6626V34.4835C22.0426 34.3102 21.5033 34.0885 20.9902 33.8217L19.4387 35.3617L15.339 31.2927L16.8906 29.7527C16.6183 29.24 16.3949 28.7047 16.2221 28.1522H14.0266V22.3994H16.2221C16.3949 21.8503 16.6183 21.3133 16.8906 20.7988L15.339 19.2589L19.4387 15.1899L20.9902 16.7298C21.5016 16.4631 22.0426 16.2414 22.6028 16.0681V13.8907H28.3988V16.0681C28.9556 16.2414 29.4966 16.4631 30.0115 16.7298L31.563 15.1899L35.6626 19.2589L34.1111 20.7988C34.3798 21.3099 34.605 21.8451 34.7778 22.3994H36.9715V28.1522H34.7778C34.6032 28.7082 34.3798 29.2435 34.1111 29.7527L35.6626 31.2927L31.563 35.3617L30.0115 33.8217C29.4931 34.092 28.9521 34.3137 28.3988 34.4852V36.6643H22.6028V36.6626ZM25.5017 20.856C23.0461 20.856 21.0478 22.8377 21.0478 25.2749C21.0478 27.7122 23.0461 29.6938 25.5017 29.6938C27.9573 29.6938 29.9539 27.7122 29.9539 25.2749C29.9539 22.8377 27.9573 20.856 25.5017 20.856Z" fill="url(#paint11_linear_99_132)"/>
<path d="M28.0324 14.2528V16.3384C28.7532 16.5393 29.4373 16.8217 30.0761 17.1785L31.563 15.7026L35.1443 19.2572L33.6574 20.733C34.0169 21.3688 34.3013 22.0461 34.5038 22.7615H36.6051V27.7867H34.5038C34.3013 28.5021 34.0169 29.1828 33.6574 29.8151L35.1443 31.291L31.563 34.8455L30.0761 33.3696C29.4356 33.7265 28.7532 34.0106 28.0324 34.2098V36.2971H22.9694V34.2098C22.2486 34.0088 21.5627 33.7265 20.9257 33.3696L19.4387 34.8455L15.8574 31.291L17.3444 29.8151C16.9849 29.1828 16.6987 28.5021 16.498 27.7867H14.3949V22.7615H16.498C16.6987 22.0461 16.9849 21.367 17.3444 20.733L15.8574 19.2572L19.4387 15.7026L20.9257 17.1785C21.5627 16.8217 22.2486 16.5393 22.9694 16.3384V14.2528H28.0324ZM25.5017 30.0576C28.1633 30.0576 30.3204 27.9166 30.3204 25.2749C30.3204 22.6333 28.1633 20.4923 25.5017 20.4923C22.8402 20.4923 20.6813 22.6333 20.6813 25.2749C20.6813 27.9166 22.8402 30.0576 25.5017 30.0576ZM28.7654 13.5252H22.2364V15.8031C21.8332 15.94 21.4405 16.1011 21.0618 16.2847L19.9571 15.1882L19.4387 14.6737L18.9204 15.1882L15.3391 18.7427L14.8208 19.2572L15.3391 19.7716L16.4438 20.8681C16.2571 21.2475 16.093 21.6373 15.9569 22.0339H13.6602V28.5142H15.9552C16.0913 28.9126 16.2554 29.3024 16.4421 29.68L15.3374 30.7765L14.819 31.291L15.3374 31.8054L18.9186 35.36L19.437 35.8744L19.9553 35.36L21.0601 34.2635C21.4388 34.4471 21.8315 34.6099 22.2346 34.745V37.0246H28.7636V34.7468C29.1633 34.6117 29.556 34.4506 29.9382 34.2635L31.0429 35.36L31.5613 35.8744L32.0796 35.36L35.6609 31.8054L36.1793 31.291L35.6609 30.7765L34.5562 29.68C34.7412 29.3041 34.9035 28.9144 35.0413 28.5142H37.3364V22.0339H35.0413C34.9035 21.6355 34.7412 21.2458 34.5544 20.8681L35.6592 19.7716L36.1775 19.2572L35.6592 18.7427L32.0779 15.1882L31.5595 14.6737L31.0412 15.1882L29.9365 16.2847C29.556 16.0993 29.1633 15.9382 28.7619 15.8014V13.5235L28.7654 13.5252ZM25.5017 29.3301C23.2486 29.3301 21.4143 27.5112 21.4143 25.2749C21.4143 23.0386 23.2486 21.2198 25.5017 21.2198C27.7549 21.2198 29.5874 23.0386 29.5874 25.2749C29.5874 27.5112 27.7549 29.3301 25.5017 29.3301Z" fill="#5A2903"/>
<path d="M35.6085 27.1804V22.3804H33.6015C33.5631 22.2418 33.5212 22.1067 33.4776 21.9733C33.2961 21.4381 33.0692 20.9271 32.7934 20.442L34.2141 19.032L30.7951 15.6368L29.3745 17.0469C28.7636 16.7073 28.1109 16.4388 27.4215 16.2448V14.2528H22.5854V16.2448C21.896 16.4388 21.2416 16.7073 20.6325 17.0469L19.2118 15.6368L15.7911 19.032L17.2117 20.442C16.8697 21.0483 16.5957 21.6962 16.4037 22.3804H14.3949V27.1804H16.4037C16.5974 27.8646 16.8697 28.5142 17.2117 29.1188L15.7911 30.5288L17.2676 31.9908L19.2136 33.9222L20.6342 32.5122C21.2433 32.8535 21.8978 33.1237 22.5871 33.3142V35.308H27.4233V33.3142C28.1126 33.1254 28.7654 32.8535 29.3762 32.5122L30.7969 33.9222L34.2158 30.5288L32.7952 29.1188C33.139 28.5142 33.4113 27.8646 33.605 27.1804H35.612H35.6085ZM25.0026 29.3492C24.8665 29.3492 24.7321 29.344 24.5977 29.3301C22.2468 29.1292 20.3986 27.1665 20.3986 24.7795C20.3986 22.2574 22.4615 20.2116 25.0026 20.2116C27.5437 20.2116 29.6048 22.2557 29.6048 24.7795C29.6048 25.2472 29.5333 25.7011 29.3989 26.1255C28.823 27.9911 27.0725 29.3492 25.0026 29.3492Z" fill="url(#paint12_linear_99_132)"/>
<g opacity="0.25">
<path d="M33.6033 27.1804C33.4095 27.8646 33.139 28.5142 32.7934 29.1187L34.2141 30.5288L30.7951 33.9222L29.3745 32.5122C28.7636 32.8534 28.1109 33.1254 27.4215 33.3142V35.308H22.5854V33.3142C21.896 33.1219 21.2416 32.8534 20.6325 32.5122L19.2118 33.9222L17.2659 31.9908C20.0426 31.3776 22.4737 30.4474 24.5942 29.3301C24.7286 29.3439 24.863 29.3491 24.9991 29.3491C27.069 29.3491 28.8195 27.9911 29.3954 26.1255C31.0238 24.776 32.3694 23.3504 33.4741 21.9733C33.5177 22.1067 33.5596 22.2418 33.598 22.3804H35.6051V27.1804H33.598H33.6033Z" fill="#318063"/>
</g>
</g>
<defs>
<linearGradient id="paint0_linear_99_132" x1="6.72051" y1="54.3495" x2="18.7545" y2="32.5834" gradientUnits="userSpaceOnUse">
<stop stop-color="#95D543"/>
<stop offset="0.26" stop-color="#72B74E"/>
<stop offset="0.58" stop-color="#4E9959"/>
<stop offset="0.83" stop-color="#388660"/>
<stop offset="1" stop-color="#318063"/>
</linearGradient>
<linearGradient id="paint1_linear_99_132" x1="46.6809" y1="51.9374" x2="28.1764" y2="35.2333" gradientUnits="userSpaceOnUse">
<stop stop-color="#95D543"/>
<stop offset="0.26" stop-color="#72B74E"/>
<stop offset="0.58" stop-color="#4E9959"/>
<stop offset="0.83" stop-color="#388660"/>
<stop offset="1" stop-color="#318063"/>
</linearGradient>
<linearGradient id="paint2_linear_99_132" x1="6.70541" y1="0.653385" x2="18.7404" y2="22.4209" gradientUnits="userSpaceOnUse">
<stop stop-color="#95D543"/>
<stop offset="0.26" stop-color="#72B74E"/>
<stop offset="0.58" stop-color="#4E9959"/>
<stop offset="0.83" stop-color="#388660"/>
<stop offset="1" stop-color="#318063"/>
</linearGradient>
<linearGradient id="paint3_linear_99_132" x1="46.676" y1="3.05533" x2="28.1725" y2="19.7581" gradientUnits="userSpaceOnUse">
<stop stop-color="#95D543"/>
<stop offset="0.26" stop-color="#72B74E"/>
<stop offset="0.58" stop-color="#4E9959"/>
<stop offset="0.83" stop-color="#388660"/>
<stop offset="1" stop-color="#318063"/>
</linearGradient>
<linearGradient id="paint4_linear_99_132" x1="20.896" y1="15.7148" x2="35.8228" y2="49.8841" gradientUnits="userSpaceOnUse">
<stop stop-color="#F8A45B"/>
<stop offset="0.22" stop-color="#C87E40"/>
<stop offset="0.47" stop-color="#975824"/>
<stop offset="0.7" stop-color="#733C10"/>
<stop offset="0.88" stop-color="#5D2B04"/>
<stop offset="1" stop-color="#562500"/>
</linearGradient>
<linearGradient id="paint5_linear_99_132" x1="62.489" y1="53.1517" x2="16.2035" y2="17.5784" gradientUnits="userSpaceOnUse">
<stop stop-color="#F8A45B"/>
<stop offset="0.39" stop-color="#CB7837"/>
<stop offset="0.79" stop-color="#A45218"/>
<stop offset="1" stop-color="#96440C"/>
</linearGradient>
<linearGradient id="paint6_linear_99_132" x1="19.2257" y1="12.6435" x2="36.1986" y2="47.1071" gradientUnits="userSpaceOnUse">
<stop stop-color="#F8A45B"/>
<stop offset="0.39" stop-color="#CB7837"/>
<stop offset="0.79" stop-color="#A45218"/>
<stop offset="1" stop-color="#96440C"/>
</linearGradient>
<linearGradient id="paint7_linear_99_132" x1="8.76993" y1="19.6816" x2="9.03129" y2="23.1688" gradientUnits="userSpaceOnUse">
<stop offset="0.38" stop-color="#96440C"/>
<stop offset="0.4" stop-color="#9A480F"/>
<stop offset="0.5" stop-color="#B76427"/>
</linearGradient>
<linearGradient id="paint8_linear_99_132" x1="26.4162" y1="27.5857" x2="27.0697" y2="32.5222" gradientUnits="userSpaceOnUse">
<stop offset="0.38" stop-color="#96440C"/>
<stop offset="0.4" stop-color="#9A480F"/>
<stop offset="0.5" stop-color="#B76427"/>
</linearGradient>
<linearGradient id="paint9_linear_99_132" x1="38.2089" y1="36.453" x2="38.9987" y2="39.9356" gradientUnits="userSpaceOnUse">
<stop offset="0.38" stop-color="#96440C"/>
<stop offset="0.4" stop-color="#9A480F"/>
<stop offset="0.5" stop-color="#B76427"/>
</linearGradient>
<linearGradient id="paint10_linear_99_132" x1="34.1075" y1="11.2612" x2="35.0881" y2="16.0018" gradientUnits="userSpaceOnUse">
<stop offset="0.38" stop-color="#96440C"/>
<stop offset="0.4" stop-color="#9A480F"/>
<stop offset="0.5" stop-color="#B76427"/>
</linearGradient>
<linearGradient id="paint11_linear_99_132" x1="17.6568" y1="7.1281" x2="28.634" y2="32.9061" gradientUnits="userSpaceOnUse">
<stop stop-color="#318063"/>
<stop offset="0.35" stop-color="#22664C"/>
<stop offset="0.75" stop-color="#165039"/>
<stop offset="1" stop-color="#124933"/>
</linearGradient>
<linearGradient id="paint12_linear_99_132" x1="27.4547" y1="30.4353" x2="16.1671" y2="4.0093" gradientUnits="userSpaceOnUse">
<stop stop-color="#95D543"/>
<stop offset="0.03" stop-color="#98D648"/>
<stop offset="0.35" stop-color="#B8E879"/>
<stop offset="0.63" stop-color="#CFF49D"/>
<stop offset="0.85" stop-color="#DDFCB3"/>
<stop offset="1" stop-color="#E3FFBB"/>
</linearGradient>
<clipPath id="clip0_99_132">
<rect width="51" height="55" fill="white"/>
</clipPath>
</defs>
</svg>
