<svg width="51" height="55" viewBox="0 0 51 55" fill="none" xmlns="http://www.w3.org/2000/svg">
<g clip-path="url(#clip0_99_43966)">
<path d="M6.91298 31.0294C6.92345 31.0294 6.93392 31.0294 6.94439 31.0294C7.03514 31.0294 7.12415 31.0658 7.18524 31.1333L25.041 50.1705C25.0968 50.2294 25.1283 50.3074 25.1283 50.3888C25.1283 50.42 25.1352 51.1787 25.0427 51.9599C24.8996 53.1881 24.596 53.784 24.0863 53.8359C24.0741 53.8359 24.0602 53.8377 24.0462 53.8394C23.9572 53.8429 23.8699 53.81 23.8053 53.7476C23.7408 53.6852 23.7059 53.6004 23.7059 53.5103C23.7129 52.8867 23.4528 52.1453 23.191 51.5598C23.2015 52.2804 23.3097 53.3197 23.7076 54.5791C23.753 54.7211 23.6937 54.8753 23.5662 54.9532C23.5244 54.9792 23.4772 54.9948 23.4301 54.9983C23.3359 55.0087 23.2381 54.9757 23.1666 54.9065C22.4196 54.172 22.1072 53.2522 21.8035 52.3601C21.6918 52.031 21.5784 51.6966 21.4423 51.3658C21.2485 52.1921 20.7791 52.8694 20.7477 52.9144C20.6918 52.9941 20.6045 53.0426 20.512 53.0512C20.4649 53.0564 20.4178 53.0512 20.3707 53.0357C20.2328 52.9871 20.142 52.8538 20.1525 52.7083C20.1525 52.7031 20.163 52.3947 20.0077 51.8283C19.9937 52.3202 19.9466 52.6753 19.9413 52.7117C19.9204 52.8607 19.8 52.975 19.6516 52.9906C19.6429 52.9906 19.6342 52.9906 19.6255 52.9906C19.4649 52.9941 19.3253 52.8832 19.2956 52.7273C19.0931 51.6776 18.3724 50.8097 17.9081 50.3438C17.6149 51.3589 16.9639 52.3635 16.9308 52.4138C16.8749 52.4987 16.7842 52.5506 16.6899 52.5593C16.6184 52.5662 16.5451 52.5506 16.4805 52.5091C16.3287 52.412 16.285 52.2128 16.381 52.0621C16.3985 52.0327 16.8069 51.3311 16.1803 50.2675C16.0232 51.0193 16.2885 52.4138 16.5922 53.3578C16.6445 53.5189 16.5643 53.6904 16.4072 53.7563C16.3775 53.7684 16.3461 53.777 16.3147 53.7805C16.1855 53.7944 16.0546 53.7285 15.9918 53.609C15.9674 53.5622 15.4019 52.4865 14.1244 49.5348C13.805 50.1238 14.1104 51.054 14.1139 51.0644C14.1698 51.2324 14.0808 51.4143 13.9132 51.4732C13.887 51.4818 13.8626 51.487 13.8364 51.4905C13.6933 51.5061 13.5519 51.4229 13.4978 51.2844C13.4821 51.2428 13.154 50.3698 13.1139 48.6999C12.4873 49.2438 11.5344 49.7548 10.7299 49.838C10.2901 49.883 9.92181 49.7998 9.63733 49.592C9.53785 49.5192 9.48724 49.3962 9.50818 49.275C9.52912 49.1537 9.61813 49.055 9.73681 49.0186C10.3476 48.835 10.7578 48.5111 10.9882 48.0243C11.3494 47.2604 11.1784 46.2765 11.0108 45.6754C10.6356 46.1881 10.0911 47.0629 10.0073 47.929C9.99336 48.0693 9.89039 48.1854 9.75251 48.2149C9.7403 48.2183 9.72808 48.2201 9.71586 48.2201C9.59021 48.2322 9.46629 48.1715 9.39997 48.0624C8.86767 47.1617 9.02998 45.6927 9.23417 44.7019C8.46626 45.4485 7.55349 46.5519 7.54127 47.4561C7.53952 47.5947 7.44877 47.7177 7.31613 47.761C7.29344 47.7679 7.27075 47.7731 7.24807 47.7749C7.13637 47.787 7.02293 47.7402 6.95312 47.6467C5.46441 45.6858 6.38591 43.5292 7.12764 42.3513C6.78034 42.4517 6.37369 42.5435 5.95308 42.5868C5.07522 42.6769 4.36141 42.5314 3.83085 42.1555C3.72089 42.0776 3.67028 41.939 3.70519 41.8091C3.74009 41.6792 3.85179 41.5839 3.98792 41.57C4.604 41.5077 5.31781 40.865 5.9269 40.1461C5.48186 40.4181 4.98621 40.6623 4.48183 40.8078C4.46263 40.813 4.44343 40.8165 4.42423 40.8182C4.35617 40.8252 4.2881 40.8113 4.22877 40.7767C4.15197 40.7334 4.09613 40.6606 4.07344 40.574C4.04202 40.4475 4.04551 40.3003 4.08216 40.1392C3.78896 40.619 3.50448 41.163 3.24793 41.7762C3.20081 41.887 3.09784 41.9632 2.97916 41.9754C2.97043 41.9754 2.96171 41.9754 2.95298 41.9754C2.82383 41.9788 2.70341 41.9043 2.6493 41.7883C1.72606 39.8187 3.10133 37.0749 3.88844 35.7671C3.46085 35.8762 2.91807 35.9922 2.36832 36.0477C1.32814 36.1551 0.572445 36.013 0.120422 35.6302C0.00698049 35.5332 -0.0261795 35.3738 0.0383952 35.2405C0.0890077 35.1383 0.188488 35.0707 0.298439 35.0603C0.329854 35.0568 0.363014 35.0586 0.396174 35.0655C0.563719 35.0984 0.748716 35.1053 0.949421 35.0846C3.28109 34.8455 6.67562 31.1697 6.71053 31.1316C6.76463 31.0727 6.83967 31.0346 6.91821 31.0277L6.91298 31.0294Z" fill="url(#paint0_linear_99_43966)"/>
<path d="M5.97403 35.4587C5.97403 35.4587 3.42072 39.0098 4.4574 41.2253C5.82568 37.9583 8.01424 36.8393 8.01424 36.8393C8.01424 36.8393 5.53946 39.3528 5.75238 40.1894C7.14161 39.7893 8.49244 38.4537 8.49244 38.4537C8.49244 38.4537 6.84666 41.2929 5.42253 41.4384C6.6861 42.3357 9.00729 41.2496 9.00729 41.2496C9.00729 41.2496 6.45747 44.0125 8.28127 46.4168C8.30221 44.8959 10.606 43.1117 10.606 43.1117C10.606 43.1117 9.79266 45.6356 10.4908 46.8152C10.6147 45.5074 11.7875 44.2255 11.7875 44.2255C11.7875 44.2255 13.1226 47.3487 10.6252 48.0971C11.5397 48.7622 13.6549 47.3522 13.8661 46.7044C13.7858 48.712 14.182 49.7427 14.182 49.7427C14.182 49.7427 13.6986 48.3188 14.5642 47.761C15.8417 50.7335 16.402 51.7936 16.402 51.7936C16.402 51.7936 15.5381 49.1122 16.2711 48.3673C17.3584 49.7306 16.7388 50.7006 16.7388 50.7006C16.7388 50.7006 17.5626 49.4413 17.6795 48.447C17.6795 48.447 19.0949 49.5521 19.3898 51.0852C19.3898 51.0852 19.6464 49.2282 19.0914 48.2131C20.2293 50.0614 20.1613 51.1406 20.1613 51.1406C20.1613 51.1406 21.1683 49.708 20.6621 48.66C21.718 50.0874 21.6203 51.7503 22.7739 52.8832C22.0357 50.5464 22.3742 49.0377 22.3742 49.0377C22.3742 49.0377 23.3603 50.6348 23.3464 51.8421C24.0584 51.8144 24.034 49.0463 24.034 49.0463L8.05089 32.0047C8.05089 32.0047 4.33523 36.0581 2.12573 35.6146C3.11006 36.4513 5.98101 35.4587 5.98101 35.4587H5.97403Z" fill="#318063"/>
<path d="M23.8002 46.6073C23.8002 46.597 23.8037 46.5866 23.8054 46.5762C23.8246 46.4878 23.8805 46.4116 23.9607 46.3648L46.6055 33.2761C46.6753 33.2345 46.7591 33.2224 46.8394 33.2397C46.8708 33.2467 47.616 33.4078 48.3647 33.6693C49.5393 34.0781 50.0576 34.5043 49.9983 35.0101C49.9983 35.0222 49.9948 35.0361 49.993 35.0482C49.9773 35.1365 49.925 35.2127 49.8499 35.2613C49.7749 35.3098 49.6824 35.3253 49.5951 35.3046C48.9843 35.1608 48.1972 35.2491 47.5654 35.3738C48.2757 35.5228 49.3211 35.6475 50.6475 35.5401C50.7976 35.528 50.9355 35.6181 50.9843 35.7601C51.0001 35.8069 51.0053 35.8554 51.0001 35.9022C50.9878 35.9957 50.9355 36.0841 50.8517 36.1378C49.9651 36.699 48.9913 36.7995 48.0488 36.8965C47.7015 36.9329 47.3472 36.9692 46.9929 37.0281C47.7626 37.3971 48.3246 38.0016 48.3612 38.0415C48.4275 38.1125 48.4555 38.2078 48.445 38.2996C48.4398 38.3464 48.424 38.3914 48.3979 38.433C48.3211 38.5559 48.1692 38.6131 48.0279 38.5733C48.0226 38.5733 47.7225 38.4936 47.1308 38.5196C47.6108 38.6408 47.9493 38.7656 47.9842 38.7777C48.1256 38.8314 48.2129 38.9734 48.1937 39.1207C48.1937 39.1293 48.1919 39.138 48.1902 39.1449C48.1588 39.3008 48.0191 39.4117 47.8586 39.4065C46.7818 39.3701 45.7695 39.8776 45.2093 40.2241C46.1413 40.7316 46.986 41.5839 47.0278 41.6272C47.0994 41.6999 47.1291 41.7987 47.1186 41.8922C47.1099 41.9632 47.0785 42.0308 47.0244 42.0845C46.8969 42.2092 46.6893 42.2092 46.5636 42.0828C46.5374 42.0585 45.9388 41.5094 44.7555 41.8818C45.4606 42.2006 46.89 42.2508 47.883 42.1642C48.0523 42.1503 48.2041 42.2647 48.2338 42.4309C48.2391 42.4639 48.2408 42.495 48.2373 42.5262C48.2216 42.6544 48.1291 42.7653 47.9965 42.8016C47.9459 42.8155 46.7626 43.1256 43.581 43.7111C44.0906 44.1493 45.0697 44.0592 45.0819 44.0592C45.2581 44.0419 45.417 44.1684 45.4397 44.3433C45.4431 44.3693 45.4431 44.3953 45.4397 44.4213C45.4222 44.5633 45.3105 44.6828 45.1622 44.7036C45.1168 44.7106 44.1883 44.8353 42.5373 44.5044C42.9335 45.2302 43.2267 46.2661 43.1307 47.0647C43.0783 47.4995 42.916 47.839 42.649 48.0694C42.5547 48.1508 42.4238 48.1716 42.3087 48.1248C42.1935 48.078 42.1167 47.9706 42.108 47.8476C42.0626 47.2154 41.8339 46.7477 41.4064 46.4168C40.7362 45.8989 39.7309 45.8469 39.1026 45.8763C39.5232 46.3527 40.2632 47.0733 41.0957 47.3435C41.2301 47.3869 41.3208 47.5133 41.3208 47.6536C41.3208 47.6657 41.3208 47.6796 41.3191 47.6917C41.3034 47.8164 41.2161 47.9238 41.094 47.962C40.0922 48.279 38.6838 47.7974 37.7553 47.3817C38.3207 48.2893 39.2021 49.417 40.0887 49.6284C40.2248 49.6613 40.3243 49.7756 40.3383 49.9142C40.34 49.9367 40.34 49.9609 40.3383 49.9835C40.3243 50.0943 40.2545 50.1931 40.148 50.2416C37.8931 51.2497 35.9769 49.883 34.9821 48.906C35.0047 49.2646 35.0047 49.6769 34.9541 50.0961C34.8494 50.9656 34.5492 51.6256 34.0623 52.0552C33.9611 52.1453 33.8145 52.1626 33.6941 52.1002C33.5736 52.0379 33.5038 51.908 33.5213 51.7746C33.5946 51.1648 33.1199 50.3316 32.5492 49.5851C32.7167 50.0753 32.8493 50.6088 32.8825 51.1302C32.8825 51.1493 32.8825 51.17 32.8825 51.1891C32.8738 51.2567 32.8459 51.319 32.7987 51.3692C32.7394 51.4351 32.6539 51.4715 32.5649 51.4749C32.4322 51.4784 32.2891 51.4403 32.139 51.371C32.5457 51.7607 33.0169 52.1557 33.5632 52.5402C33.6609 52.6095 33.7133 52.7256 33.6993 52.8434C33.6993 52.852 33.6975 52.8607 33.6958 52.8694C33.6696 52.9958 33.5719 53.0946 33.4445 53.1223C31.3048 53.5813 28.912 51.6464 27.8003 50.5949C27.8125 51.0332 27.8073 51.584 27.741 52.1297C27.6171 53.1604 27.3116 53.8619 26.8352 54.2136C26.7165 54.3019 26.5507 54.2984 26.4355 54.2066C26.3465 54.1356 26.3029 54.023 26.3151 53.9139C26.3186 53.8827 26.3273 53.8498 26.3413 53.8204C26.4111 53.6662 26.4582 53.4878 26.4826 53.2903C26.7619 50.9812 23.8979 46.8828 23.8682 46.8412C23.8211 46.7754 23.8019 46.6957 23.8124 46.616L23.8002 46.6073Z" fill="url(#paint1_linear_99_43966)"/>
<path d="M27.9469 48.4937C27.9469 48.4937 30.8737 51.7486 33.2804 51.2324C30.371 49.1884 29.755 46.8221 29.755 46.8221C29.755 46.8221 31.68 49.7721 32.5474 49.7513C32.4601 48.3188 31.4461 46.7147 31.4461 46.7147C31.4461 46.7147 33.8738 48.9337 33.7027 50.3455C34.8633 49.32 34.3066 46.8325 34.3066 46.8325C34.3066 46.8325 36.4603 49.9107 39.2248 48.6739C37.7343 48.3188 36.4899 45.6945 36.4899 45.6945C36.4899 45.6945 38.7919 47.0387 40.1044 46.6212C38.846 46.2124 37.846 44.7954 37.846 44.7954C37.846 44.7954 41.2109 44.1926 41.3941 46.7736C42.2493 46.034 41.3295 43.6747 40.7396 43.33C42.6943 43.8514 43.7956 43.6937 43.7956 43.6937C43.7956 43.6937 42.2894 43.8479 41.9317 42.8883C45.1342 42.308 46.3 41.9979 46.3 41.9979C46.3 41.9979 43.4745 42.2439 42.9038 41.3708C44.4832 40.619 45.3 41.4314 45.3 41.4314C45.3 41.4314 44.2441 40.3575 43.293 40.0249C43.293 40.0249 44.6909 38.8989 46.2634 38.9509C46.2634 38.9509 44.4937 38.2926 43.375 38.6079C45.4431 37.915 46.4885 38.2182 46.4885 38.2182C46.4885 38.2182 45.3018 36.9277 44.1603 37.1875C45.7957 36.4807 47.4083 36.9415 48.7748 36.0737C46.3157 36.2729 44.9073 35.6129 44.9073 35.6129C44.9073 35.6129 46.6927 35.0101 47.876 35.2907C48.0052 34.5943 45.2808 34.0088 45.2808 34.0088L25.0114 45.7256C25.0114 45.7256 28.1755 50.2173 27.2523 52.2579C28.2924 51.4905 27.9486 48.492 27.9486 48.492L27.9469 48.4937Z" fill="#318063"/>
<path d="M6.91318 23.9706C6.92366 23.9706 6.93413 23.9706 6.9446 23.9706C7.03535 23.9706 7.12436 23.9342 7.18544 23.8666L25.0429 4.83115C25.0988 4.77226 25.1302 4.69431 25.1302 4.61289C25.1302 4.58171 25.1372 3.823 25.0447 3.04176C24.9016 1.81361 24.5979 1.21772 24.0883 1.16576C24.0761 1.16576 24.0621 1.16403 24.0481 1.16229C23.9591 1.15883 23.8719 1.19174 23.8073 1.2541C23.7427 1.31646 23.7078 1.40134 23.7078 1.49142C23.7148 2.11502 23.4548 2.85641 23.193 3.44191C23.2034 2.7213 23.3117 1.68196 23.7096 0.422631C23.7549 0.280588 23.6956 0.12642 23.5682 0.0484697C23.5263 0.0224862 23.4792 0.00689618 23.4321 0.00343172C23.3378 -0.00696165 23.2401 0.0259507 23.1685 0.0952398C22.4216 0.829705 22.1092 1.74952 21.8055 2.64162C21.6938 2.97074 21.5804 3.30506 21.4442 3.63592C21.2505 2.80964 20.781 2.13234 20.7496 2.0873C20.6938 2.00762 20.6065 1.95912 20.514 1.95046C20.4669 1.94526 20.4198 1.95046 20.3726 1.96605C20.2348 2.01455 20.144 2.14793 20.1545 2.29344C20.1545 2.29864 20.1649 2.60697 20.0096 3.17341C19.9957 2.68146 19.9485 2.32635 19.9433 2.28997C19.9224 2.141 19.8019 2.02667 19.6536 2.01109C19.6449 2.01109 19.6361 2.01109 19.6274 2.01109C19.4668 2.00762 19.3272 2.11848 19.2976 2.27438C19.0951 3.32411 18.3743 4.19196 17.9101 4.65793C17.6169 3.64284 16.9659 2.63815 16.9327 2.58792C16.8769 2.50304 16.7861 2.45107 16.6919 2.44241C16.6203 2.43548 16.547 2.45107 16.4824 2.49264C16.3306 2.58965 16.287 2.78886 16.383 2.93956C16.4004 2.96901 16.8088 3.67056 16.1823 4.73415C16.0252 3.98236 16.2905 2.58792 16.5941 1.64385C16.6465 1.48276 16.5662 1.31126 16.4091 1.24544C16.3795 1.23331 16.3481 1.22465 16.3166 1.22119C16.1875 1.20733 16.0566 1.27316 15.9938 1.39268C15.9693 1.43945 15.4039 2.51516 14.1263 5.46688C13.807 4.87792 14.1124 3.94772 14.1159 3.93732C14.1717 3.7693 14.0827 3.58741 13.9152 3.52852C13.889 3.51986 13.8646 3.51466 13.8384 3.5112C13.6953 3.4956 13.5539 3.57875 13.4998 3.71733C13.4841 3.7589 13.156 4.63195 13.1158 6.30182C12.4893 5.7579 11.5364 5.24689 10.7318 5.16374C10.292 5.1187 9.92376 5.20185 9.63928 5.40972C9.5398 5.48247 9.48919 5.60546 9.51013 5.72672C9.53107 5.84797 9.62008 5.94671 9.73876 5.98309C10.3496 6.1667 10.7597 6.49063 10.9901 6.97739C11.3514 7.7413 11.1803 8.7252 11.0128 9.32629C10.6376 8.81355 10.093 7.93877 10.0093 7.07266C9.99531 6.93235 9.89234 6.81629 9.75447 6.78684C9.74225 6.78338 9.73003 6.78164 9.71782 6.78164C9.59216 6.76952 9.46824 6.83015 9.40192 6.94101C8.86962 7.84177 9.03193 9.3107 9.23612 10.3015C8.46821 9.55494 7.55544 8.45151 7.54322 7.54729C7.54148 7.40871 7.45072 7.28572 7.31808 7.24242C7.2954 7.23549 7.27271 7.23029 7.25002 7.22856C7.13832 7.21643 7.02488 7.2632 6.95507 7.35674C5.46636 9.31763 6.38786 11.4743 7.1296 12.6522C6.78229 12.5517 6.37564 12.4599 5.95504 12.4166C5.07717 12.3265 4.36336 12.472 3.8328 12.8479C3.72285 12.9259 3.67224 13.0644 3.70714 13.1944C3.74205 13.3243 3.85374 13.4195 3.98987 13.4334C4.60595 13.4958 5.31976 14.1384 5.92886 14.8573C5.48382 14.5853 4.98816 14.3411 4.48378 14.1956C4.46458 14.1904 4.44539 14.1869 4.42619 14.1852C4.35812 14.1783 4.29006 14.1921 4.23072 14.2268C4.15393 14.2701 4.09808 14.3428 4.07539 14.4294C4.04398 14.5559 4.04747 14.7031 4.08412 14.8642C3.79091 14.3844 3.50644 13.8405 3.24988 13.2273C3.20276 13.1164 3.09979 13.0402 2.98111 13.0281C2.97239 13.0281 2.96366 13.0281 2.95493 13.0281C2.82578 13.0246 2.70536 13.0991 2.65126 13.2151C1.72801 15.1847 3.10328 17.9285 3.89039 19.2364C3.4628 19.1272 2.92003 19.0112 2.37027 18.9557C1.3301 18.8483 0.574398 18.9904 0.122376 19.3732C0.00893362 19.4702 -0.0242263 19.6296 0.0403483 19.763C0.0909609 19.8652 0.190441 19.9327 0.300392 19.9431C0.331807 19.9466 0.364967 19.9448 0.398127 19.9379C0.565672 19.905 0.750669 19.8981 0.951374 19.9189C3.28304 20.1579 6.67757 23.8337 6.71248 23.8718C6.76658 23.9307 6.84163 23.9688 6.92017 23.9757L6.91318 23.9706Z" fill="url(#paint2_linear_99_43966)"/>
<path d="M5.97403 19.5413C5.97403 19.5413 3.42072 15.9902 4.4574 13.7747C5.82568 17.0417 8.01424 18.1607 8.01424 18.1607C8.01424 18.1607 5.53946 15.6472 5.75238 14.8106C7.14161 15.2107 8.49244 16.5462 8.49244 16.5462C8.49244 16.5462 6.84666 13.7071 5.42253 13.5616C6.6861 12.6643 9.00729 13.7504 9.00729 13.7504C9.00729 13.7504 6.45747 10.9875 8.28127 8.58319C8.30221 10.1041 10.606 11.8883 10.606 11.8883C10.606 11.8883 9.79266 9.36443 10.4908 8.18478C10.6147 9.49261 11.7875 10.7745 11.7875 10.7745C11.7875 10.7745 13.1226 7.65125 10.6252 6.90293C11.5397 6.23775 13.6549 7.64952 13.8661 8.29738C13.7858 6.28972 14.182 5.25905 14.182 5.25905C14.182 5.25905 13.6986 6.68294 14.5642 7.24072C15.8417 4.26821 16.402 3.20809 16.402 3.20809C16.402 3.20809 15.5381 5.88958 16.2711 6.63444C17.3584 5.27117 16.7388 4.30112 16.7388 4.30112C16.7388 4.30112 17.5626 5.56045 17.6795 6.55475C17.6795 6.55475 19.0949 5.44959 19.3898 3.91657C19.3898 3.91657 19.6464 5.77352 19.0914 6.7886C20.2293 4.94032 20.1613 3.86114 20.1613 3.86114C20.1613 3.86114 21.1683 5.29369 20.6621 6.34169C21.718 4.91433 21.6203 3.25139 22.7739 2.11852C22.0357 4.45529 22.3742 5.96406 22.3742 5.96406C22.3742 5.96406 23.3603 4.36695 23.3464 3.15958C24.0584 3.1873 24.034 5.9554 24.034 5.9554L8.05089 22.9971C8.05089 22.9971 4.33523 18.9437 2.12573 19.3871C3.11006 18.5504 5.98101 19.543 5.98101 19.543L5.97403 19.5413Z" fill="#318063"/>
<path d="M23.8002 8.39265C23.8002 8.40304 23.8037 8.41343 23.8054 8.42383C23.8246 8.51217 23.8805 8.58839 23.9607 8.63516L46.6055 21.7239C46.6753 21.7655 46.7591 21.7776 46.8394 21.7603C46.8708 21.7533 47.616 21.5922 48.3647 21.3307C49.5393 20.9219 50.0576 20.4957 49.9983 19.9899C49.9983 19.9778 49.9948 19.9639 49.993 19.9518C49.9773 19.8635 49.925 19.7872 49.8499 19.7387C49.7749 19.6902 49.6824 19.6747 49.5951 19.6954C48.9843 19.8392 48.1972 19.7509 47.5654 19.6262C48.2757 19.4772 49.3211 19.3525 50.6475 19.4599C50.7976 19.472 50.9355 19.3819 50.9843 19.2399C51.0001 19.1931 51.0053 19.1446 51.0001 19.0978C50.9878 19.0043 50.9355 18.9159 50.8517 18.8622C49.9651 18.301 48.9913 18.2005 48.0488 18.1035C47.7015 18.0671 47.3472 18.0308 46.9929 17.9719C47.7626 17.6029 48.3246 16.9984 48.3612 16.9585C48.4275 16.8875 48.4555 16.7922 48.445 16.7004C48.4398 16.6536 48.424 16.6086 48.3979 16.567C48.3211 16.444 48.1692 16.3869 48.0279 16.4267C48.0226 16.4267 47.7225 16.5064 47.1308 16.4804C47.6108 16.3592 47.9493 16.2344 47.9842 16.2223C48.1256 16.1686 48.2129 16.0266 48.1937 15.8793C48.1937 15.8707 48.1919 15.862 48.1902 15.8551C48.1588 15.6992 48.0191 15.5883 47.8586 15.5935C46.7818 15.6299 45.7695 15.1224 45.2093 14.7759C46.1413 14.2684 46.986 13.4161 47.0278 13.3728C47.0994 13.3001 47.1291 13.2013 47.1186 13.1078C47.1099 13.0368 47.0785 12.9692 47.0244 12.9155C46.8969 12.7908 46.6893 12.7908 46.5636 12.9172C46.5374 12.9415 45.9388 13.4906 44.7555 13.1182C45.4606 12.7994 46.89 12.7492 47.883 12.8358C48.0523 12.8497 48.2041 12.7353 48.2338 12.5691C48.2391 12.5361 48.2408 12.505 48.2373 12.4738C48.2216 12.3456 48.1291 12.2347 47.9965 12.1984C47.9459 12.1845 46.7626 11.8744 43.581 11.2889C44.0906 10.8507 45.0697 10.9408 45.0819 10.9408C45.2581 10.9581 45.417 10.8316 45.4397 10.6567C45.4431 10.6307 45.4431 10.6047 45.4397 10.5787C45.4222 10.4367 45.3105 10.3172 45.1622 10.2964C45.1168 10.2894 44.1883 10.1647 42.5373 10.4956C42.9335 9.76977 43.2267 8.7339 43.1307 7.93534C43.0783 7.50055 42.916 7.16103 42.649 6.93065C42.5547 6.84923 42.4238 6.82845 42.3087 6.87522C42.1935 6.92199 42.1167 7.02938 42.108 7.15237C42.0626 7.78464 41.8339 8.25234 41.4064 8.58319C40.7362 9.10113 39.7309 9.1531 39.1026 9.12365C39.5232 8.64729 40.2632 7.92668 41.0957 7.65645C41.2301 7.61315 41.3208 7.48669 41.3208 7.34638C41.3208 7.33426 41.3208 7.3204 41.3191 7.30827C41.3034 7.18355 41.2161 7.07615 41.094 7.03805C40.0922 6.72105 38.6838 7.20261 37.7553 7.61834C38.3207 6.71065 39.2021 5.58297 40.0887 5.37164C40.2248 5.33873 40.3243 5.2244 40.3383 5.08582C40.34 5.0633 40.34 5.03905 40.3383 5.01653C40.3243 4.90567 40.2545 4.80693 40.148 4.75843C37.8931 3.75027 35.9769 5.117 34.9821 6.09398C35.0047 5.73541 35.0047 5.32314 34.9541 4.90394C34.8494 4.03436 34.5492 3.37438 34.0623 2.94479C33.9611 2.85471 33.8145 2.83739 33.6941 2.89975C33.5736 2.96211 33.5038 3.09203 33.5213 3.22541C33.5946 3.83515 33.1199 4.66836 32.5492 5.41495C32.7167 4.92473 32.8493 4.3912 32.8825 3.8698C32.8825 3.85074 32.8825 3.82996 32.8825 3.8109C32.8738 3.74335 32.8459 3.68099 32.7987 3.63075C32.7394 3.56493 32.6539 3.52855 32.5649 3.52508C32.4322 3.52162 32.2891 3.55973 32.139 3.62902C32.5457 3.23927 33.0169 2.84432 33.5632 2.45976C33.6609 2.39047 33.7133 2.27442 33.6993 2.15662C33.6993 2.14796 33.6975 2.1393 33.6958 2.13064C33.6696 2.00419 33.5719 1.90545 33.4445 1.87774C31.3048 1.41869 28.912 3.35359 27.8003 4.40506C27.8125 3.9668 27.8073 3.41595 27.741 2.8703C27.6171 1.83963 27.3116 1.13807 26.8352 0.786431C26.7165 0.698087 26.5507 0.701552 26.4355 0.79336C26.3465 0.864381 26.3029 0.976976 26.3151 1.08611C26.3186 1.11729 26.3273 1.1502 26.3413 1.17965C26.4111 1.33382 26.4582 1.51223 26.4826 1.70971C26.7619 4.01877 23.8979 8.11722 23.8682 8.1588C23.8211 8.22462 23.8019 8.3043 23.8124 8.38399L23.8002 8.39265Z" fill="url(#paint3_linear_99_43966)"/>
<path d="M27.9469 6.50625C27.9469 6.50625 30.8737 3.25139 33.2804 3.7676C30.371 5.81163 29.755 8.17785 29.755 8.17785C29.755 8.17785 31.68 5.22787 32.5474 5.24865C32.4601 6.68121 31.4461 8.28525 31.4461 8.28525C31.4461 8.28525 33.8738 6.06627 33.7027 4.6545C34.8633 5.67998 34.3066 8.16573 34.3066 8.16573C34.3066 8.16573 36.4603 5.08756 39.2248 6.32437C37.7343 6.67948 36.4899 9.3038 36.4899 9.3038C36.4899 9.3038 38.7919 7.95959 40.1044 8.37706C38.846 8.78587 37.846 10.2028 37.846 10.2028C37.846 10.2028 41.2109 10.8056 41.3941 8.22462C42.2493 8.96429 41.3295 11.3236 40.7396 11.6683C42.6943 11.1469 43.7956 11.3045 43.7956 11.3045C43.7956 11.3045 42.2894 11.1504 41.9317 12.11C45.1342 12.6903 46.3 13.0004 46.3 13.0004C46.3 13.0004 43.4745 12.7544 42.9038 13.6274C44.4832 14.3792 45.3 13.5668 45.3 13.5668C45.3 13.5668 44.2441 14.6408 43.293 14.9734C43.293 14.9734 44.6909 16.0993 46.2634 16.0474C46.2634 16.0474 44.4937 16.7056 43.375 16.3904C45.4431 17.0832 46.4885 16.7801 46.4885 16.7801C46.4885 16.7801 45.3018 18.0706 44.1603 17.8108C45.7957 18.5175 47.4083 18.0568 48.7748 18.9246C46.3157 18.7254 44.9073 19.3854 44.9073 19.3854C44.9073 19.3854 46.6927 19.9882 47.876 19.7076C48.0052 20.4039 45.2808 20.9894 45.2808 20.9894L25.0114 9.27262C25.0114 9.27262 28.1755 4.78095 27.2523 2.74039C28.2924 3.50776 27.9486 6.50625 27.9486 6.50625H27.9469Z" fill="#318063"/>
<path d="M49.9301 26.4806C49.9301 28.5471 47.6665 30.2897 47.1534 32.1952C46.6229 34.1665 47.6892 36.796 46.6822 38.523C45.6612 40.2743 42.8234 40.6658 41.3923 42.088C39.9612 43.5084 39.565 46.325 37.8006 47.3383C36.0605 48.3378 33.4112 47.2794 31.4251 47.806C29.5053 48.3153 27.7496 50.562 25.6675 50.562C23.5854 50.562 21.8297 48.3153 19.9099 47.806C17.9238 47.2794 15.2745 48.3378 13.5345 47.3383C11.77 46.325 11.3756 43.5084 9.94272 42.088C8.51161 40.6675 5.67381 40.2743 4.65284 38.523C3.64582 36.796 4.71218 34.1665 4.18162 32.1952C3.66851 30.2897 1.40491 28.5471 1.40491 26.4806C1.40491 24.414 3.66851 22.6714 4.18162 20.766C4.71218 18.7947 3.64582 16.1652 4.65284 14.4381C5.67381 12.6868 8.51161 12.2954 9.94272 10.8732C11.3738 9.45277 11.77 6.63616 13.5345 5.62281C15.2745 4.62331 17.9238 5.68171 19.9099 5.15511C21.8297 4.64583 23.5854 2.39913 25.6675 2.39913C27.7496 2.39913 29.5053 4.64583 31.4251 5.15511C33.4112 5.68171 36.0605 4.62331 37.8006 5.62281C39.565 6.63616 39.9595 9.45277 41.3923 10.8732C42.8234 12.2936 45.6612 12.6868 46.6822 14.4381C47.6892 16.1652 46.6229 18.7947 47.1534 20.766C47.6665 22.6714 49.9301 24.414 49.9301 26.4806Z" fill="url(#paint4_linear_99_43966)"/>
<path d="M48.7172 25.2749C48.7172 25.7132 48.6107 26.1376 48.4362 26.5499C48.218 27.0747 47.8951 27.5823 47.5548 28.0846C46.9632 28.9577 46.3209 29.8099 46.0801 30.702C45.752 31.9215 46.0661 33.406 46.0626 34.745C46.0591 35.4622 45.9666 36.1412 45.6315 36.7146C45.5321 36.8861 45.4134 37.0437 45.279 37.1892C44.1219 38.4641 41.8269 38.8903 40.6069 40.0994C39.2474 41.4488 38.8721 44.1251 37.1967 45.0864C35.5439 46.0357 33.0273 45.031 31.1389 45.5316C29.3151 46.0149 27.6484 48.149 25.6692 48.149C23.6901 48.149 22.0234 46.0149 20.1979 45.5316C18.3112 45.031 15.7946 46.0374 14.1418 45.0864C12.4664 44.1251 12.0911 41.4488 10.7298 40.0994C9.37026 38.75 6.67383 38.3775 5.70521 36.7146C5.66682 36.6488 5.63191 36.5829 5.6005 36.5136C5.35965 36.0009 5.28286 35.4154 5.27762 34.7987C5.26541 33.4441 5.59177 31.9371 5.25843 30.702C4.7715 28.8918 2.62134 27.2358 2.62134 25.2732C2.62134 23.3106 4.7715 21.6546 5.25843 19.8427C5.76281 17.9701 4.74881 15.4723 5.70521 13.8318C6.67558 12.1689 9.37201 11.7965 10.7298 10.4453C12.0894 9.09593 12.4664 6.41964 14.1418 5.45825C15.7946 4.50899 18.3112 5.51541 20.1979 5.0148C22.0217 4.53151 23.6901 2.3974 25.6692 2.3974C27.6484 2.3974 29.3151 4.53151 31.1389 5.0148C33.0273 5.51541 35.5439 4.50899 37.1967 5.45825C38.8268 6.39365 39.2264 8.94869 40.4952 10.3293C40.5319 10.3691 40.5685 10.409 40.6069 10.4453C41.5843 11.4154 43.2475 11.8796 44.4692 12.6816C44.9491 12.9952 45.3593 13.3624 45.6333 13.8318C46.5897 15.4723 45.5774 17.9701 46.0818 19.8427C46.5687 21.6529 48.7189 23.3089 48.7189 25.2732L48.7172 25.2749Z" fill="url(#paint5_linear_99_43966)"/>
<path d="M45.6018 30.3919C45.1027 32.2437 46.1045 34.7156 45.1603 36.3387C44.2021 37.9826 41.5354 38.3515 40.1898 39.6871C38.8459 41.0209 38.4742 43.6677 36.8162 44.6187C35.1809 45.5576 32.6921 44.5633 30.8265 45.057C29.0219 45.5368 27.3708 47.6467 25.4161 47.6467C23.4615 47.6467 21.8087 45.5351 20.0058 45.057C18.1402 44.5616 15.6497 45.5559 14.0161 44.6187C12.3581 43.6677 11.9864 41.0209 10.6425 39.6854C9.29692 38.3515 6.63016 37.9826 5.67202 36.337C4.72609 34.7139 5.72786 32.2437 5.23047 30.3902C4.74703 28.6008 2.62305 26.9621 2.62305 25.022C2.62305 24.0139 3.19549 23.0889 3.81506 22.1812C4.23392 21.5662 4.67373 20.9565 4.97217 20.3381C5.08037 20.1112 5.17113 19.8825 5.23221 19.6539C5.73136 17.8021 4.72958 15.3302 5.67376 13.7089C6.63191 12.0632 9.29867 11.6943 10.6443 10.3605C11.9881 9.02491 12.3599 6.37806 14.0179 5.42707C15.6514 4.4882 18.1402 5.4825 20.0076 4.98881C21.8104 4.50899 23.4615 2.40086 25.4179 2.40086C27.3743 2.40086 29.0236 4.51072 30.8265 4.98881C32.6921 5.48423 35.1826 4.48993 36.8179 5.42707C38.3991 6.33476 38.8093 8.78586 40.0153 10.1699C40.0694 10.2357 40.1287 10.2998 40.1915 10.3605C41.1567 11.3184 42.7989 11.7774 44.0049 12.569C44.4814 12.8808 44.8898 13.2429 45.1603 13.7106C46.1062 15.332 45.1044 17.8021 45.6018 19.6556C46.0853 21.445 48.211 23.0837 48.211 25.0255C48.211 26.9673 46.0835 28.6043 45.6018 30.3937V30.3919Z" fill="url(#paint6_linear_99_43966)"/>
<path d="M13.6427 21.3116C10.4314 21.8209 6.42954 22.0686 3.81165 22.1829C4.23051 21.568 4.67031 20.9582 4.96875 20.3398C7.25504 20.4836 10.3808 20.5997 13.5537 20.4594C14.1 20.4351 14.182 21.2267 13.6427 21.3133V21.3116Z" fill="url(#paint7_linear_99_43966)"/>
<path d="M48.4361 26.5516C48.218 27.0765 47.8951 27.584 47.5548 28.0864C23.0129 28.7792 11.0719 33.2813 5.60046 36.5154C5.35962 36.0026 5.28282 35.4171 5.27759 34.8005C5.67725 34.3345 6.11531 33.827 6.59875 33.2709C20.1594 28.0327 41.2474 26.8201 48.4361 26.5516Z" fill="url(#paint8_linear_99_43966)"/>
<path d="M46.0626 34.7468C46.0591 35.4639 45.9666 36.143 45.6315 36.7163C45.532 36.8878 45.4133 37.0454 45.279 37.1909C42.9124 37.7938 36.8563 39.2384 31.0237 39.8118C30.617 39.8517 30.5315 39.2558 30.9347 39.183C36.886 38.0934 42.8653 35.9819 46.0643 34.7485L46.0626 34.7468Z" fill="url(#paint9_linear_99_43966)"/>
<path d="M44.4675 12.6851C41.4325 13.4854 32.7498 15.5953 25.2784 15.6264C24.8141 15.6282 24.7478 14.9613 25.2051 14.8746C31.1634 13.7643 37.2264 11.6007 40.4953 10.331C40.5319 10.3709 40.5686 10.4107 40.607 10.4471C41.5843 11.4171 43.2476 11.8814 44.4692 12.6834L44.4675 12.6851Z" fill="url(#paint10_linear_99_43966)"/>
<path d="M26.1434 24.7099C25.9102 24.7099 25.6782 24.6476 25.4719 24.5293L17.0097 19.6805C16.5881 19.4388 16.3369 19.0063 16.3369 18.523C16.3369 18.0396 16.5881 17.6071 17.0097 17.3654L25.4719 12.5166C25.6782 12.3983 25.9102 12.336 26.1434 12.336C26.8867 12.336 27.4916 12.9364 27.4916 13.6741V14.8927H34.512C35.1463 14.8927 35.6615 15.4053 35.6615 16.0337V21.0097C35.6615 21.6393 35.1451 22.1507 34.512 22.1507H27.4916V23.3692C27.4916 24.107 26.8867 24.7074 26.1434 24.7074V24.7099Z" fill="url(#paint11_linear_99_43966)"/>
<path d="M26.1435 12.6716C26.6703 12.6716 27.1534 13.0901 27.1534 13.6739V15.2283H34.5121C34.9607 15.2283 35.3233 15.5896 35.3233 16.0335V21.0095C35.3233 21.4547 34.9594 21.8147 34.5121 21.8147H27.1534V23.369C27.1534 23.9529 26.6703 24.3714 26.1435 24.3714C25.9757 24.3714 25.8039 24.3294 25.6412 24.2353L17.1803 19.3864C16.5075 19.001 16.5075 18.0381 17.1803 17.6527L25.6412 12.8039C25.8039 12.711 25.9757 12.6678 26.1435 12.6678M26.1435 12C25.8513 12 25.5604 12.0776 25.3028 12.2251L16.842 17.074C16.314 17.3767 16 17.9173 16 18.5228C16 19.1282 16.3153 19.6688 16.842 19.9716L25.3028 24.8204C25.5604 24.9679 25.8513 25.0455 26.1435 25.0455C27.0739 25.0455 27.8301 24.295 27.8301 23.3716V22.4888H34.5121C35.3323 22.4888 36 21.8261 36 21.012V16.036C36 15.2219 35.3323 14.5592 34.5121 14.5592H27.8301V13.6765C27.8301 12.753 27.0739 12.0025 26.1435 12.0025V12Z" fill="#5A2903"/>
<path d="M34.3173 15.7575V20.3227C34.3173 20.7297 33.9739 21.0617 33.5497 21.0617H26.587V22.4876C26.587 23.1948 25.7911 23.6362 25.1568 23.2826L19.5999 20.1968L17.1496 18.8357C16.5139 18.4821 16.5139 17.5981 17.1496 17.2432L25.1568 12.7963C25.7911 12.4427 26.587 12.8841 26.587 13.5913V15.0172H33.5497C33.6509 15.0172 33.7458 15.035 33.8342 15.0706C34.1187 15.1788 34.3173 15.4446 34.3173 15.7562V15.7575Z" fill="url(#paint12_linear_99_43966)"/>
<g opacity="0.25">
<path d="M34.3173 15.7575V20.3226C34.3173 20.7297 33.9738 21.0616 33.5496 21.0616H26.5869V22.4875C26.5869 23.1948 25.7911 23.6362 25.1567 23.2825L19.5999 20.1967C27.3943 19.4729 31.7734 16.7903 33.8328 15.0706C34.1173 15.1787 34.316 15.4445 34.316 15.7562L34.3173 15.7575Z" fill="#318063"/>
</g>
<path d="M26.8566 39.7553C27.0898 39.7553 27.3218 39.6929 27.5281 39.5746L35.9903 34.7258C36.4119 34.4841 36.6631 34.0517 36.6631 33.5683C36.6631 33.0849 36.4119 32.6525 35.9903 32.4108L27.5281 27.562C27.3218 27.4437 27.0898 27.3813 26.8566 27.3813C26.1133 27.3813 25.5084 27.9817 25.5084 28.7195V29.938H18.488C17.8537 29.938 17.3385 30.4507 17.3385 31.079V36.055C17.3385 36.6847 17.8549 37.196 18.488 37.196H25.5084V38.4146C25.5084 39.1523 26.1133 39.7527 26.8566 39.7527V39.7553Z" fill="url(#paint13_linear_99_43966)"/>
<path d="M26.8565 27.717C26.3297 27.717 25.8466 28.1355 25.8466 28.7193V30.2737H18.4879C18.0393 30.2737 17.6767 30.635 17.6767 31.0789V36.0549C17.6767 36.5001 18.0406 36.8601 18.4879 36.8601H25.8466V38.4144C25.8466 38.9983 26.3297 39.4168 26.8565 39.4168C27.0243 39.4168 27.1961 39.3748 27.3588 39.2807L35.8197 34.4319C36.4925 34.0464 36.4925 33.0835 35.8197 32.6981L27.3588 27.8493C27.1961 27.7565 27.0243 27.7132 26.8565 27.7132M26.8565 27.0454C27.1487 27.0454 27.4396 27.123 27.6972 27.2706L36.158 32.1194C36.686 32.4221 37 32.9627 37 33.5682C37 34.1736 36.6847 34.7142 36.158 35.017L27.6972 39.8658C27.4396 40.0133 27.1487 40.0909 26.8565 40.0909C25.9261 40.0909 25.1699 39.3405 25.1699 38.417V37.5342H18.4879C17.6677 37.5342 17 36.8715 17 36.0575V31.0814C17 30.2674 17.6677 29.6047 18.4879 29.6047H25.1699V28.7219C25.1699 27.7984 25.9261 27.048 26.8565 27.048V27.0454Z" fill="#5A2903"/>
<path d="M17.6827 30.8029V35.3681C17.6827 35.7751 18.0261 36.1071 18.4503 36.1071H25.413V37.533C25.413 38.2403 26.2089 38.6816 26.8432 38.328L32.4001 35.2422L34.8504 33.8811C35.4861 33.5275 35.4861 32.6435 34.8504 32.2886L26.8432 27.8417C26.2089 27.4881 25.413 27.9295 25.413 28.6367V30.0626H18.4503C18.3491 30.0626 18.2542 30.0804 18.1658 30.1161C17.8813 30.2242 17.6827 30.49 17.6827 30.8017V30.8029Z" fill="url(#paint14_linear_99_43966)"/>
<g opacity="0.25">
<path d="M17.6827 30.8029V35.368C17.6827 35.7751 18.0262 36.1071 18.4504 36.1071H25.4131V37.533C25.4131 38.2402 26.2089 38.6816 26.8433 38.328L32.4001 35.2421C24.6057 34.5183 20.2266 31.8357 18.1672 30.116C17.8827 30.2241 17.684 30.49 17.684 30.8016L17.6827 30.8029Z" fill="#318063"/>
</g>
</g>
<defs>
<linearGradient id="paint0_linear_99_43966" x1="6.71697" y1="54.3537" x2="18.751" y2="32.5876" gradientUnits="userSpaceOnUse">
<stop stop-color="#95D543"/>
<stop offset="0.26" stop-color="#72B74E"/>
<stop offset="0.58" stop-color="#4E9959"/>
<stop offset="0.83" stop-color="#388660"/>
<stop offset="1" stop-color="#318063"/>
</linearGradient>
<linearGradient id="paint1_linear_99_43966" x1="46.6908" y1="51.9374" x2="28.1873" y2="35.2347" gradientUnits="userSpaceOnUse">
<stop stop-color="#95D543"/>
<stop offset="0.26" stop-color="#72B74E"/>
<stop offset="0.58" stop-color="#4E9959"/>
<stop offset="0.83" stop-color="#388660"/>
<stop offset="1" stop-color="#318063"/>
</linearGradient>
<linearGradient id="paint2_linear_99_43966" x1="6.69386" y1="0.649882" x2="18.7278" y2="22.416" gradientUnits="userSpaceOnUse">
<stop stop-color="#95D543"/>
<stop offset="0.26" stop-color="#72B74E"/>
<stop offset="0.58" stop-color="#4E9959"/>
<stop offset="0.83" stop-color="#388660"/>
<stop offset="1" stop-color="#318063"/>
</linearGradient>
<linearGradient id="paint3_linear_99_43966" x1="46.6835" y1="3.04873" x2="28.1801" y2="19.7515" gradientUnits="userSpaceOnUse">
<stop stop-color="#95D543"/>
<stop offset="0.26" stop-color="#72B74E"/>
<stop offset="0.58" stop-color="#4E9959"/>
<stop offset="0.83" stop-color="#388660"/>
<stop offset="1" stop-color="#318063"/>
</linearGradient>
<linearGradient id="paint4_linear_99_43966" x1="20.896" y1="15.7148" x2="35.8228" y2="49.8841" gradientUnits="userSpaceOnUse">
<stop stop-color="#F8A45B"/>
<stop offset="0.22" stop-color="#C87E40"/>
<stop offset="0.47" stop-color="#975824"/>
<stop offset="0.7" stop-color="#733C10"/>
<stop offset="0.88" stop-color="#5D2B04"/>
<stop offset="1" stop-color="#562500"/>
</linearGradient>
<linearGradient id="paint5_linear_99_43966" x1="62.489" y1="53.1517" x2="16.2035" y2="17.5784" gradientUnits="userSpaceOnUse">
<stop stop-color="#F8A45B"/>
<stop offset="0.39" stop-color="#CB7837"/>
<stop offset="0.79" stop-color="#A45218"/>
<stop offset="1" stop-color="#96440C"/>
</linearGradient>
<linearGradient id="paint6_linear_99_43966" x1="19.2257" y1="12.6435" x2="36.1986" y2="47.1071" gradientUnits="userSpaceOnUse">
<stop stop-color="#F8A45B"/>
<stop offset="0.39" stop-color="#CB7837"/>
<stop offset="0.79" stop-color="#A45218"/>
<stop offset="1" stop-color="#96440C"/>
</linearGradient>
<linearGradient id="paint7_linear_99_43966" x1="8.76993" y1="19.6816" x2="9.03129" y2="23.1689" gradientUnits="userSpaceOnUse">
<stop offset="0.38" stop-color="#96440C"/>
<stop offset="0.4" stop-color="#9A480F"/>
<stop offset="0.5" stop-color="#B76427"/>
</linearGradient>
<linearGradient id="paint8_linear_99_43966" x1="26.4162" y1="27.5857" x2="27.0697" y2="32.5221" gradientUnits="userSpaceOnUse">
<stop offset="0.38" stop-color="#96440C"/>
<stop offset="0.4" stop-color="#9A480F"/>
<stop offset="0.5" stop-color="#B76427"/>
</linearGradient>
<linearGradient id="paint9_linear_99_43966" x1="38.2089" y1="36.453" x2="38.9987" y2="39.9356" gradientUnits="userSpaceOnUse">
<stop offset="0.38" stop-color="#96440C"/>
<stop offset="0.4" stop-color="#9A480F"/>
<stop offset="0.5" stop-color="#B76427"/>
</linearGradient>
<linearGradient id="paint10_linear_99_43966" x1="34.1076" y1="11.2612" x2="35.0882" y2="16.0018" gradientUnits="userSpaceOnUse">
<stop offset="0.38" stop-color="#96440C"/>
<stop offset="0.4" stop-color="#9A480F"/>
<stop offset="0.5" stop-color="#B76427"/>
</linearGradient>
<linearGradient id="paint11_linear_99_43966" x1="25.0797" y1="15.4664" x2="29.8673" y2="25.1875" gradientUnits="userSpaceOnUse">
<stop stop-color="#318063"/>
<stop offset="0.35" stop-color="#22664C"/>
<stop offset="0.75" stop-color="#165039"/>
<stop offset="1" stop-color="#124933"/>
</linearGradient>
<linearGradient id="paint12_linear_99_43966" x1="24.7467" y1="15.423" x2="28.9505" y2="23.959" gradientUnits="userSpaceOnUse">
<stop stop-color="#95D543"/>
<stop offset="0.03" stop-color="#98D648"/>
<stop offset="0.35" stop-color="#B8E879"/>
<stop offset="0.63" stop-color="#CFF49D"/>
<stop offset="0.85" stop-color="#DDFCB3"/>
<stop offset="1" stop-color="#E3FFBB"/>
</linearGradient>
<linearGradient id="paint13_linear_99_43966" x1="27.9203" y1="30.5117" x2="23.1327" y2="40.2328" gradientUnits="userSpaceOnUse">
<stop stop-color="#318063"/>
<stop offset="0.35" stop-color="#22664C"/>
<stop offset="0.75" stop-color="#165039"/>
<stop offset="1" stop-color="#124933"/>
</linearGradient>
<linearGradient id="paint14_linear_99_43966" x1="27.2533" y1="30.4684" x2="23.0495" y2="39.0044" gradientUnits="userSpaceOnUse">
<stop stop-color="#95D543"/>
<stop offset="0.03" stop-color="#98D648"/>
<stop offset="0.35" stop-color="#B8E879"/>
<stop offset="0.63" stop-color="#CFF49D"/>
<stop offset="0.85" stop-color="#DDFCB3"/>
<stop offset="1" stop-color="#E3FFBB"/>
</linearGradient>
<clipPath id="clip0_99_43966">
<rect width="51" height="55" fill="white"/>
</clipPath>
</defs>
</svg>
