<svg width="110" height="36" viewBox="0 0 110 36" fill="none" xmlns="http://www.w3.org/2000/svg">
<rect x="0.5" y="0.5" width="109" height="35" rx="17.5" fill="url(#paint0_linear_99_47508)" stroke="white"/>
<path d="M35.1151 19.5832C34.7233 20.3449 34.1902 21.0358 33.5428 21.5962C32.2062 22.755 30.4272 23.3535 28.6591 23.3281C28.2746 23.3208 27.901 23.2338 27.5601 23.0778C27.2173 22.92 26.909 22.6934 26.6497 22.4086C26.5754 22.3579 26.5028 22.3053 26.4321 22.2491C25.7557 21.7032 25.3114 20.869 25.2479 20.0003C25.1772 19.041 25.5707 18.0581 26.2834 17.4143C27.0559 16.7125 28.1241 16.4296 28.9528 15.7967C28.9601 15.7912 28.9673 15.7858 28.9746 15.7804C30.0482 14.9462 30.6104 13.577 30.721 12.2223C30.7627 11.6946 30.7446 11.1687 30.6811 10.6428C30.585 9.81037 30.3764 8.98524 30.1407 8.17824C31.3992 9.17928 32.6669 10.1876 33.715 11.4081C34.7632 12.6303 35.5884 14.0884 35.8114 15.6824C35.9982 17.0135 35.7316 18.39 35.1151 19.5851V19.5832Z" fill="#D6633C"/>
<path d="M35.1149 19.5832C35.0624 18.5477 34.8592 17.5195 34.5111 16.542C34.2372 17.6392 33.9652 18.7382 33.6914 19.8371C32.3657 18.8615 31.702 17.0679 32.0701 15.4648C31.4626 16.464 30.8533 17.4651 30.2457 18.4643C29.718 17.4723 29.6763 16.2337 30.1333 15.2073C29.7815 15.4557 29.3861 15.6498 28.9745 15.7785C30.0481 14.9443 30.6102 13.5752 30.7209 12.2205C30.7626 11.6928 30.7444 11.1669 30.681 10.6409C30.5849 9.80856 30.3763 8.98342 30.1406 8.17642C31.3991 9.17747 32.6667 10.1858 33.7149 11.4062C34.7631 12.6285 35.5883 14.0866 35.8113 15.6806C35.9981 17.0117 35.7315 18.3881 35.1149 19.5832Z" fill="#F7E5D2"/>
<g style="mix-blend-mode:multiply" opacity="0.4">
<path d="M31.1308 20.6696C29.9031 21.7342 28.2673 22.2855 26.6406 22.2619C26.5699 22.2619 26.501 22.2564 26.4303 22.2492C25.7538 21.7033 25.3095 20.8691 25.2461 20.0005C25.1753 19.0411 25.5689 18.0582 26.2816 17.4144C27.0541 16.7126 28.1222 16.4297 28.951 15.7968C30.0391 14.9644 30.6085 13.5862 30.7192 12.2206C30.7609 11.6929 30.7427 11.167 30.6793 10.6411C30.8896 10.8533 31.0927 11.0745 31.2886 11.3012C32.2534 12.4237 33.0114 13.7657 33.2163 15.231C33.4992 17.2367 32.6596 19.344 31.129 20.6696H31.1308Z" fill="#D6633C"/>
</g>
<path d="M25.0757 28.5112C25.0702 28.756 25.0521 29.0026 25.0176 29.2474C24.9306 29.8622 24.6894 30.5259 24.1381 30.8088C23.8207 30.9702 23.4472 30.9829 23.0953 30.9285C22.914 30.8995 22.7308 30.8542 22.5767 30.7526C22.4244 30.6511 22.3065 30.4842 22.3029 30.2993C22.2974 30.0272 22.5259 29.8169 22.7018 29.6083C22.9158 29.3544 23.0609 29.048 23.1371 28.727C23.2549 28.2283 23.2023 27.6897 22.9666 27.2327C22.9231 27.1492 22.8759 27.0713 22.8251 26.9915C22.8016 26.9534 22.7744 26.9153 22.7472 26.8754C22.6402 26.7231 22.5241 26.5744 22.4171 26.422C22.3917 26.3894 22.3681 26.3531 22.3446 26.3187C22.321 26.286 22.2992 26.2516 22.2793 26.2189C22.263 26.1917 22.2466 26.1663 22.2321 26.1391C22.2176 26.1155 22.2049 26.092 22.1922 26.0684C21.9909 25.6948 21.8984 25.2614 21.9275 24.837L23.7446 23.7217L24.5516 23.2249C24.5516 23.292 24.5479 23.3609 24.5479 23.4262C24.5479 23.5277 24.5479 23.6311 24.5552 23.7344C24.5588 23.8287 24.5643 23.9212 24.5697 24.0155C24.5751 24.0899 24.5806 24.1642 24.586 24.2386C24.5915 24.2948 24.5969 24.3528 24.6023 24.4091C24.6314 24.6756 24.6676 24.9458 24.7057 25.2124C24.7093 25.2342 24.713 25.2541 24.7166 25.2759C24.7329 25.3811 24.7492 25.4845 24.7656 25.5878C24.7873 25.7202 24.8091 25.8508 24.829 25.9813C24.8617 26.179 24.8925 26.3749 24.9233 26.5707C24.965 26.8464 25.0013 27.122 25.0303 27.3977C25.0666 27.7694 25.0884 28.1376 25.0811 28.5093L25.0757 28.5112Z" fill="#D6633C"/>
<path d="M25.0756 28.5111C25.0702 28.7559 25.0521 29.0025 25.0176 29.2474C24.9306 29.8621 24.6894 30.5259 24.1381 30.8088C23.8207 30.9702 23.4471 30.9829 23.0953 30.9285C22.914 30.8995 22.7308 30.8541 22.5767 30.7526C22.4243 30.651 22.3065 30.4842 22.3028 30.2992C22.2974 30.0272 22.5259 29.8168 22.7018 29.6083C22.9158 29.3544 23.0609 29.0479 23.137 28.7269C23.2549 28.5782 23.342 28.415 23.3728 28.2246C23.4363 28.5456 23.4997 28.8683 23.5632 29.1893C23.7101 29.0007 23.8552 28.8121 24.0021 28.6235C24.0075 28.7595 24.0764 28.8901 24.1834 28.9699C24.2433 28.8067 24.3031 28.6417 24.3629 28.4785C24.4192 28.6217 24.4772 28.765 24.5334 28.9082C24.6604 28.7015 24.7438 28.4676 24.7764 28.2246C24.8109 28.4295 24.8943 28.6272 25.0176 28.7958C25.0376 28.6997 25.0557 28.609 25.0738 28.5129L25.0756 28.5111Z" fill="#79403D"/>
<g style="mix-blend-mode:multiply" opacity="0.4">
<path d="M22.8251 26.9933C23.5396 26.9353 24.2378 26.7902 24.9197 26.5744C24.7529 25.4627 24.5189 24.3474 24.5497 23.2267L21.9256 24.8389C21.8966 25.2632 21.9891 25.6966 22.1904 26.0702C22.3663 26.3985 22.622 26.6814 22.8251 26.9915V26.9933Z" fill="#D6633C"/>
</g>
<path d="M18.5108 30.3027C18.4764 30.6872 18.402 31.097 18.1463 31.3672C17.9015 31.6229 17.5442 31.7027 17.2069 31.7372C16.8206 31.7753 16.8968 31.7698 16.5105 31.7191C16.331 31.6955 16.1352 31.6501 16.0282 31.4942C15.932 31.3545 15.9375 31.1587 15.9937 30.9955C16.0481 30.8323 16.1478 30.6872 16.2313 30.5385C16.574 29.9328 16.3709 29.2183 16.2603 28.5074C16.2367 28.3605 16.2186 28.2136 16.2077 28.0685C16.1515 27.2216 15.9629 26.3892 15.8668 25.546V25.5423C15.7924 24.8732 15.7761 24.1949 15.8196 23.5203C15.8305 23.3172 15.8504 23.1104 15.874 22.9091C15.874 22.9091 15.874 22.9091 15.874 22.9055C15.9883 21.9244 16.2276 20.9597 16.5849 20.0475L17.3629 21.7957L18.159 23.5783L18.4673 24.2693C18.3549 24.982 18.3512 25.7037 18.3857 26.4255C18.4274 27.296 18.5235 28.1701 18.5453 29.0423C18.5562 29.4649 18.5507 29.8856 18.5126 30.3063L18.5108 30.3027Z" fill="#D6633C"/>
<path d="M18.5108 30.3028C18.4763 30.6872 18.402 31.0971 18.1463 31.3673C17.9015 31.623 17.5442 31.7028 17.2069 31.7373C16.8206 31.7753 16.8968 31.7699 16.5105 31.7191C16.331 31.6955 16.1351 31.6502 16.0281 31.4943C15.932 31.3546 15.9374 31.1588 15.9937 30.9955C16.0481 30.8323 16.1478 30.6873 16.2312 30.5385C16.574 29.9328 16.3709 29.2183 16.2602 28.5074C16.4053 28.7269 16.574 28.9282 16.7662 29.1077C16.8424 28.8302 16.9204 28.5546 16.9965 28.2771C17.1942 28.7232 17.39 29.1694 17.5877 29.6173C17.6548 29.3489 17.7237 29.0787 17.789 28.8103C17.8634 29.0098 17.9377 29.2093 18.0121 29.4087C18.0864 29.144 18.159 28.8792 18.2333 28.6126C18.2605 28.8157 18.3494 29.0116 18.4908 29.1639C18.5072 29.124 18.5253 29.0841 18.5434 29.0424C18.5543 29.465 18.5489 29.8857 18.5108 30.3064V30.3028Z" fill="#79403D"/>
<path d="M21.3344 29.6826C21.3344 29.7153 21.3344 29.7516 21.3344 29.7842C21.3399 30.1288 21.329 30.4715 21.3 30.8143C21.2655 31.1987 21.1911 31.6086 20.9354 31.8788C20.7015 32.1254 20.3624 32.2088 20.0378 32.2433C20.0251 32.2433 20.0088 32.2469 19.9961 32.2487C19.8038 32.2687 19.7259 32.2777 19.6479 32.2741H19.6279C19.5554 32.2687 19.4756 32.256 19.2997 32.2306C19.1183 32.207 18.9225 32.1617 18.8173 32.0057C18.7538 31.9114 18.7357 31.7954 18.7448 31.6793C18.7502 31.6194 18.7629 31.5614 18.781 31.5052C18.8155 31.4036 18.8663 31.3075 18.9189 31.2169C18.9189 31.2169 18.9189 31.2156 18.9189 31.2132C18.9515 31.1588 18.9841 31.1044 19.015 31.05C19.18 30.7562 19.2181 30.4352 19.1999 30.1034C19.1818 29.7479 19.1002 29.3762 19.0404 29.0098C19.0186 28.8666 19.0005 28.7233 18.9896 28.58C18.9442 27.8945 18.81 27.2199 18.7121 26.5417C18.6885 26.3803 18.6668 26.2189 18.6486 26.0575C18.5416 25.1163 18.5525 24.1624 18.6813 23.223C18.7339 22.8313 18.8046 22.445 18.8971 22.0642C18.9279 21.9318 18.9624 21.7994 18.9986 21.6707C19.102 21.2935 19.2253 20.9217 19.3686 20.559L19.8764 21.6961L21.2492 24.7808C21.1603 25.343 21.1404 25.907 21.1531 26.4746C21.1748 27.5427 21.3127 28.6163 21.3308 29.6863L21.3344 29.6826Z" fill="#D6633C"/>
<path d="M21.3344 29.7841C21.3399 30.1286 21.329 30.4714 21.3 30.8141C21.2655 31.1986 21.1911 31.6084 20.9354 31.8786C20.7015 32.1253 20.3624 32.2087 20.0378 32.2432C20.0196 32.2432 20.0033 32.2468 19.9852 32.2486C19.8256 32.2613 19.7259 32.2704 19.6497 32.274H19.6297C19.5572 32.2685 19.4774 32.2559 19.3015 32.2305C19.1202 32.2069 18.9243 32.1615 18.8191 32.0056C18.7556 31.9113 18.7375 31.7952 18.7466 31.6792C18.752 31.6193 18.7647 31.5613 18.7828 31.5051C18.8173 31.4035 18.8681 31.3074 18.9207 31.2167C18.9207 31.2167 18.9207 31.2155 18.9207 31.2131C18.9533 31.1587 18.986 31.1043 19.0168 31.0499C19.1818 30.7561 19.2199 30.4351 19.2018 30.1032C19.1836 29.7478 19.102 29.376 19.0422 29.0097C19.1256 29.1149 19.229 29.2092 19.3505 29.2872C19.3813 29.1022 19.4103 28.9154 19.4375 28.7323C19.7313 29.1385 20.0233 29.5465 20.3171 29.9545C20.4222 29.7206 20.5238 29.4867 20.6272 29.2509C20.6743 29.4069 20.7704 29.5501 20.9101 29.6644C20.9627 29.5302 21.0098 29.3978 21.0606 29.2654C21.1513 29.4395 21.2419 29.6154 21.3326 29.7895L21.3344 29.7841Z" fill="#79403D"/>
<path d="M27.8991 22.6335C27.7268 21.7739 27.161 20.985 26.3921 20.5698C26.2978 20.519 26.2035 20.4755 26.1056 20.4356C25.4328 20.1635 24.6711 20.1345 23.9385 20.149C23.0988 20.1635 22.2429 20.2216 21.4359 19.9894C20.6289 19.7555 19.8654 19.1552 19.7185 18.3283L15.805 17.9239C16.0009 17.9438 16.0099 18.9612 16.0027 19.1008C15.9827 19.4944 15.8975 19.8825 15.8286 20.2705C15.5275 21.9281 15.854 23.7143 16.8224 25.1035C18.6322 27.7004 21.376 26.5379 24.04 25.4226C25.3385 24.8786 27.6815 25.1144 27.9227 23.5892C27.9735 23.2719 27.9626 22.9491 27.8991 22.6353V22.6335Z" fill="#D6633C"/>
<path d="M21.1457 20.3704C20.6561 20.2471 20.2336 19.8789 20.0468 19.4092C19.86 18.9396 19.9108 18.3828 20.181 17.9548L14.5646 17.9857C14.882 18.3846 14.8113 18.9813 14.5701 19.431C14.3289 19.8808 13.948 20.2362 13.6379 20.6424C13.3278 21.0486 13.083 21.5564 13.1827 22.0569C13.3605 21.803 13.6071 21.5963 13.89 21.4657C13.2625 22.2564 13.4022 23.544 14.1856 24.1805C14.1947 23.8722 14.3325 23.5694 14.5592 23.359C14.3071 24.0173 14.6009 24.8388 15.2138 25.187C15.2284 24.9621 15.3172 24.7427 15.4605 24.5704C15.7633 25.8507 16.8877 26.8971 18.188 27.1075C17.6639 26.5598 17.7618 25.6839 17.9395 24.9476C18.0918 24.3147 18.2696 23.6202 18.0791 23.0199C18.1934 23.2828 18.3076 23.5458 18.4219 23.8088C18.8553 23.0326 19.0058 22.1023 18.8372 21.2282C19.0222 21.7087 19.2089 22.1893 19.3939 22.6699C19.967 21.9989 20.1084 20.9906 19.7457 20.1872C20.0939 20.5608 20.716 20.6406 21.1476 20.3668L21.1457 20.3704Z" fill="#F7E5D2"/>
<g style="mix-blend-mode:multiply">
<path d="M18.8354 19.7773C18.5453 19.6921 18.2968 19.4382 18.1862 19.1154C18.0756 18.7926 18.1064 18.4063 18.266 18.1125L14.9473 18.1343C15.1359 18.4099 15.0942 18.8216 14.9509 19.1317C14.8077 19.4418 14.5828 19.6885 14.3996 19.9677C14.2165 20.2488 14.0714 20.597 14.1312 20.9434C14.2364 20.7675 14.3815 20.626 14.5483 20.5353C14.1766 21.0812 14.26 21.968 14.7224 22.4087C14.7279 22.1965 14.8095 21.9861 14.9437 21.8429C14.795 22.2962 14.9691 22.8639 15.3299 23.1032C15.339 22.9491 15.3898 22.7968 15.4768 22.6789C15.6564 23.5621 16.3201 24.2838 17.089 24.4289C16.7789 24.0517 16.837 23.4478 16.9421 22.94C17.0328 22.503 17.138 22.0242 17.0237 21.6107C17.0908 21.7921 17.1579 21.9734 17.2269 22.1548C17.4844 21.6198 17.5714 20.9778 17.4717 20.3758C17.5823 20.7076 17.6911 21.0395 17.8017 21.3696C18.139 20.9071 18.2243 20.2107 18.0103 19.6576C18.217 19.9151 18.5833 19.9695 18.839 19.7809L18.8354 19.7773Z" fill="#F7E5D2"/>
</g>
<path d="M28.8005 28.1139C28.7207 28.9753 28.4596 30.067 28.1458 30.8722C28.0534 31.1098 27.9464 31.351 27.7632 31.5269C27.4549 31.8279 26.073 31.7391 25.8917 31.5595C25.6632 31.3346 25.752 30.9538 25.8536 30.651C26.0186 30.1704 26.1837 29.6862 26.3469 29.2056C26.3976 29.0533 26.4502 28.8955 26.443 28.7359C26.443 28.6978 26.4375 28.6598 26.4285 28.6199C26.3577 28.3333 26.073 28.1629 25.8228 28.0069C25.5417 27.8292 25.2751 27.6279 25.0285 27.3994C24.8018 27.1945 24.5932 26.9642 24.4119 26.7193C24.1417 26.3566 23.9259 25.954 23.788 25.5242C23.759 25.439 23.7354 25.352 23.7137 25.2631C23.6992 25.1996 23.6847 25.1343 23.6738 25.0709C23.5922 24.6121 23.6212 24.1514 23.7427 23.7216C23.9803 22.882 24.5697 22.1475 25.3767 21.7232L25.4746 21.6706C25.5743 21.6162 25.6795 21.5727 25.7901 21.5436C26.3831 21.3804 27.0704 21.5908 27.5256 22.0224C27.5837 22.0768 27.6381 22.1367 27.6888 22.1965C27.7414 22.26 27.7922 22.3253 27.8394 22.3942C28.0243 22.6626 28.1549 22.969 28.2401 23.29C28.3054 23.5312 28.3435 23.7815 28.358 24.0299C28.4034 24.7698 28.2655 25.5079 28.135 26.2388C28.0914 26.48 28.0534 26.7429 28.1749 26.9551C28.2274 27.0458 28.3018 27.1147 28.3816 27.18C28.5085 27.2851 28.6482 27.3813 28.7298 27.5209C28.8295 27.6968 28.8205 27.9126 28.8005 28.1121V28.1139Z" fill="#D6633C"/>
<path d="M28.8005 28.114C28.7207 28.9754 28.4596 30.0671 28.1459 30.8723C28.0534 31.1099 27.9464 31.3511 27.7632 31.527C27.4549 31.828 26.073 31.7392 25.8917 31.5596C25.6632 31.3348 25.7521 30.9539 25.8536 30.6511C26.0186 30.1705 26.1837 29.6863 26.3469 29.2057C26.3977 29.0534 26.4502 28.8956 26.443 28.736C26.4793 28.7777 26.5173 28.8195 26.5536 28.863C26.5627 28.6762 26.5718 28.4894 26.5826 28.3026C26.7168 28.4187 26.8492 28.5311 26.9852 28.6472C26.9725 28.4695 26.958 28.2954 26.9471 28.1176C27.0487 28.2301 27.1503 28.3425 27.2554 28.455C27.3171 28.3081 27.3225 28.1358 27.2681 27.9853C27.3352 28.0796 27.4023 28.172 27.4694 28.2682C27.4966 28.1049 27.522 27.9399 27.5474 27.7785C27.6798 27.8638 27.8104 27.949 27.9409 28.036C27.9573 27.7912 27.9736 27.5464 27.9917 27.3034C28.0842 27.3669 28.1731 27.4285 28.2637 27.4902C28.3218 27.3941 28.3617 27.2889 28.3852 27.1819C28.5122 27.2871 28.6518 27.3832 28.7334 27.5228C28.8332 27.6987 28.8241 27.9145 28.8042 28.114H28.8005Z" fill="#79403D"/>
<path d="M17.0583 6.75473C16.6811 5.99307 16.1153 5.34384 15.5567 4.70368C15.0526 4.12699 14.5466 3.54849 13.9826 3.02983C13.921 2.9718 13.8176 3.00263 13.7958 3.08605C13.6435 3.67906 13.4894 4.27388 13.337 4.86689C13.1122 5.7428 12.8855 6.66587 13.1194 7.53815C13.3479 8.39049 13.9953 9.07961 14.737 9.55837L17.4246 7.75758C17.3394 7.41121 17.2161 7.0739 17.0583 6.75291V6.75473Z" fill="#D6633C"/>
<g style="mix-blend-mode:multiply" opacity="0.42">
<path d="M16.4198 5.74287C16.01 5.75919 15.6038 5.82629 15.2393 5.91697C14.6843 6.0566 14.1766 6.27966 13.7486 6.66594C13.4965 6.89262 13.2843 7.15558 13.0975 7.43485C13.1048 7.46931 13.112 7.50558 13.1229 7.54003C13.3514 8.39237 13.9988 9.0815 14.7406 9.56025L17.4281 7.75947C17.3429 7.41309 17.2196 7.07578 17.0618 6.7548C16.8841 6.39573 16.6647 6.06204 16.4216 5.74106L16.4198 5.74287Z" fill="#D6633C"/>
</g>
<path d="M10.0019 12.371C10.0073 13.5262 10.3047 14.4801 10.7381 15.2545C11.9368 17.3944 14.1729 18.1869 14.1729 18.1869C15.9537 18.5931 17.477 18.7255 18.7809 18.662C19.9325 18.6076 20.91 18.3973 21.7423 18.0908C24.6167 17.0335 25.7465 14.8156 26.1455 13.6949C26.296 13.2814 26.3432 13.0185 26.3432 13.0185C25.6069 13.9452 24.9232 13.5825 24.9232 13.5825C25.3802 13.1146 25.3766 12.1045 25.3766 12.1045C25.3675 12.1135 25.3621 12.1244 25.3548 12.1335C24.9431 12.6612 24.1144 12.5415 23.8551 11.9249C22.3553 8.3832 18.7011 7.6977 18.7011 7.6977C14.8094 6.73111 13.0086 8.64252 12.1889 9.89746C11.9622 10.2456 11.5614 10.4234 11.1625 10.378C11.0827 10.369 11.0011 10.349 10.9213 10.3218L11.2477 11.5133C10.6529 11.1578 10.3899 9.8902 10.3899 9.8902C10.3156 10.1296 10.2539 10.3653 10.2032 10.592C10.0581 11.234 9.99823 11.8234 10 12.3692L10.0019 12.371Z" fill="#F7E5D2"/>
<path d="M10.2051 10.5939C10.6004 11.9685 11.4654 11.9286 11.4654 11.9286C12.0675 10.6138 12.6261 9.96276 13.0686 9.65447C13.5328 9.32804 14.1766 9.58737 14.309 10.1387C14.717 11.8488 14.1385 13.5099 13.0758 15.1511L15.3427 15.2962C16.1188 12.5996 17.4554 11.3809 18.266 10.8659C18.9841 10.4089 19.9398 10.5231 20.4966 11.1687C21.5121 12.3511 21.6699 14.7141 21.6699 14.7141C22.3101 14.7903 23.7155 13.9524 23.7155 13.9524C23.7463 14.4747 23.2041 15.0514 23.2041 15.0514C24.5425 15.3325 25.5598 14.4312 26.1456 13.6967C26.2961 13.2832 26.3433 13.0203 26.3433 13.0203C25.607 13.947 24.9233 13.5843 24.9233 13.5843C25.3803 13.1164 25.3767 12.1063 25.3767 12.1063C25.3676 12.1154 25.3622 12.1262 25.3549 12.1353C24.9432 12.663 24.1145 12.5433 23.8552 11.9268C22.3554 8.38503 18.7012 7.69953 18.7012 7.69953C14.581 6.70756 13.0087 8.64436 12.189 9.89929C11.9623 10.2475 11.5615 10.4252 11.1626 10.3799C11.0828 10.3708 11.0012 10.3508 10.9214 10.3236L11.2478 11.5151C10.653 11.1597 10.39 9.89204 10.39 9.89204C10.3157 10.1314 10.254 10.3672 10.2032 10.5939H10.2051Z" fill="#D6633C"/>
<path d="M20.4475 7.18806C21.1203 6.35567 21.9944 5.71551 22.8595 5.08442C23.652 4.50592 24.4463 3.92561 25.2968 3.43959C25.3712 3.39788 25.4636 3.45047 25.4655 3.53571C25.489 4.32276 25.5144 5.11162 25.538 5.89868C25.5724 7.03573 25.596 8.23082 25.0665 9.23911C24.5496 10.222 23.5649 10.8912 22.5222 11.2738C21.9382 10.2021 20.9372 9.23367 19.7203 8.31968C19.9198 7.91708 20.1646 7.53625 20.4475 7.18806Z" fill="#D6633C"/>
<path d="M21.1729 7.94975C21.6462 7.364 22.261 6.91425 22.8685 6.46995C23.4107 6.07461 23.9548 5.67745 24.5351 5.34196C24.6076 5.30025 24.7019 5.35284 24.7037 5.43626C24.7201 5.97124 24.7364 6.50622 24.7527 7.04119C24.7781 7.84094 24.7926 8.6824 24.4208 9.39147C24.0581 10.0842 23.3654 10.5539 22.6309 10.8223C22.1105 9.9337 21.4558 9.23732 20.6597 8.74406C20.8011 8.46115 20.9716 8.19276 21.1711 7.94794L21.1729 7.94975Z" fill="#E8A465"/>
<path d="M17.8636 16.767C17.7784 17.5377 18.1574 18.2558 18.783 18.6639C19.9346 18.6095 20.9121 18.3991 21.7444 18.0926C21.9113 17.8405 22.0219 17.5504 22.0564 17.233C22.1797 16.1286 21.3382 15.1257 20.1812 14.9988C19.0242 14.8719 17.9869 15.6625 17.8636 16.7688V16.767Z" fill="#E8A465"/>
<path d="M10.0021 12.3711C10.0075 13.5263 10.3049 14.4802 10.7383 15.2546C11.2643 15.0732 11.6669 14.6017 11.7321 14.0105C11.8228 13.189 11.2334 12.4509 10.4101 12.3585C10.2705 12.3421 10.1326 12.3458 10.0021 12.3711Z" fill="#E8A465"/>
<path d="M10.2558 15.4232C10.3483 15.9455 10.5822 16.5494 11.1154 17.0825C11.8807 17.8515 13.2644 18.4717 15.7307 18.488C15.7307 18.488 16.0789 17.4706 15.9066 16.4188C15.6745 15.0007 14.1185 14.2481 12.811 14.8429C12.5335 14.9698 12.2035 15.0605 11.848 15.0442C11.596 15.0333 11.3348 14.9662 11.0664 14.8248C10.662 14.6108 10.1778 14.9753 10.2576 15.425L10.2558 15.4232Z" fill="#F7E5D2"/>
<path d="M13.2218 17.6635C13.6099 17.8049 14.0615 17.6925 14.3317 17.3787C14.6092 17.0559 14.62 16.5572 14.3952 16.2054C14.3063 16.0658 14.5276 15.937 14.6164 16.0748C14.9029 16.5228 14.8631 17.1321 14.5276 17.5419C14.2066 17.9337 13.6263 18.0824 13.1529 17.9101C12.9988 17.8539 13.0659 17.6054 13.2218 17.6616V17.6635Z" fill="#79403D"/>
<path d="M10.2577 15.4251C10.3049 15.6934 10.3901 15.9818 10.5334 16.2719C10.8054 16.8214 11.529 16.9792 12.0059 16.5947C12.0077 16.5929 12.0114 16.5911 12.0132 16.5893C12.4085 16.2756 12.4412 15.6898 12.102 15.3181L12.0839 15.2981C11.9497 15.153 11.7756 15.0478 11.5834 15.0098C11.4238 14.9771 11.2624 14.9227 11.0974 14.8393C10.6748 14.6235 10.1743 14.959 10.2577 15.4269V15.4251Z" fill="#79403D"/>
<g style="mix-blend-mode:screen" opacity="0.42">
<path d="M10.3792 15.1457C10.3792 15.298 10.5768 15.4214 10.8198 15.4214C11.0628 15.4214 11.2605 15.298 11.2605 15.1457C11.2605 14.9934 11.0628 14.8701 10.8198 14.8701C10.5768 14.8701 10.3792 14.9934 10.3792 15.1457Z" fill="#79403D"/>
</g>
<path d="M16.8787 14.3822C16.8207 14.763 17.0637 15.1838 17.4191 15.1711C17.8235 15.1566 18.1191 14.5581 17.9233 14.161C17.7582 13.8273 17.3321 13.7475 17.0618 14.0141C16.9567 14.1174 16.8986 14.248 16.8769 14.3822H16.8787Z" fill="#79403D"/>
<path d="M12.2996 13.0258C12.2488 13.3594 12.4718 13.7312 12.7928 13.7221C13.1592 13.7113 13.4239 13.1872 13.2444 12.8372C13.0939 12.5434 12.7076 12.4708 12.4646 12.703C12.3703 12.7936 12.3177 12.9079 12.2996 13.0258Z" fill="#79403D"/>
<path d="M19.1891 15.5321C19.1891 15.6844 19.3868 15.8077 19.6298 15.8077C19.8728 15.8077 20.0704 15.6844 20.0704 15.5321C20.0704 15.3797 19.8728 15.2564 19.6298 15.2564C19.3868 15.2564 19.1891 15.3797 19.1891 15.5321Z" fill="white"/>
<path d="M10.7727 13.2124C11.0161 13.2124 11.2134 13.089 11.2134 12.9368C11.2134 12.7846 11.0161 12.6611 10.7727 12.6611C10.5293 12.6611 10.332 12.7846 10.332 12.9368C10.332 13.089 10.5293 13.2124 10.7727 13.2124Z" fill="white"/>
<defs>
<linearGradient id="paint0_linear_99_47508" x1="55" y1="36" x2="62.8678" y2="1.81055" gradientUnits="userSpaceOnUse">
<stop stop-color="#C65C5C"/>
<stop offset="1" stop-color="#F39898"/>
</linearGradient>
</defs>
</svg>
